<svg height="600" overflow="visible" preserveAspectRatio="xMidYMid meet" version="1.0" width="1000" xmlns:xlink="http://www.w3.org/1999/xlink" xmlns="http://www.w3.org/2000/svg" zoomAndPan="magnify"><g transform="translate(0.94341,599.05659) scale(0.18868,-0.18868)"><path d="M0.0,0.0 L0.0,30.0 L29.88584,32.61467 L0.0,35.22934 L0.0,65.22934 L29.88584,67.84401 L35.09529,38.29978 L35.09529,68.29978 L64.98113,70.91445 L35.09529,73.52912 L35.09529,103.52912 L29.88584,73.98489 L0.0,76.59956 L0.0,106.59956 L29.88584,109.21423 L0.0,111.8289 L0.0,141.8289 L29.88584,144.44357 L35.09529,114.89934 L35.09529,144.89934 L64.98113,147.51401 L70.19058,117.96978 L41.21281,110.20521 L71.09865,112.81988 L76.3081,83.27565 L76.3081,113.27565 L106.19394,115.89032 L76.3081,118.50499 L76.3081,148.50499 L106.19394,151.11966 L111.40339,121.57543 L111.40339,151.57543 L141.28923,154.1901 L111.40339,156.80477 L111.40339,186.80477 L106.19394,157.26054 L76.3081,159.87521 L76.3081,189.87521 L106.19394,192.48988 L76.3081,195.10455 L76.3081,225.10455 L71.09865,195.56032 L41.21281,198.17499 L70.19058,190.41042 L64.98113,160.86619 L35.09529,163.48086 L35.09529,193.48086 L29.88584,163.93663 L0.0,166.5513 L0.0,196.5513 L29.88584,199.16597 L0.0,201.78064 L0.0,231.78064 L29.88584,234.39531 L35.09529,204.85108 L35.09529,234.85108 L64.98113,237.46575 L35.09529,240.08042 L35.09529,270.08042 L29.88584,240.53619 L0.0,243.15086 L0.0,273.15086 L29.88584,275.76553 L0.0,278.3802 L0.0,308.3802 L29.88584,310.99487 L35.09529,281.45064 L35.09529,311.45064 L64.98113,314.06531 L70.19058,284.52108 L41.21281,276.75651 L71.09865,279.37118 L76.3081,249.82695 L76.3081,279.82695 L106.19394,282.44162 L76.3081,285.05629 L76.3081,315.05629 L106.19394,317.67096 L111.40339,288.12673 L111.40339,318.12673 L141.28923,320.7414 L146.49868,291.19717 L117.52091,283.4326 L147.40675,286.04727 L152.6162,256.50304 L123.63843,248.73847 L113.37783,276.92925 L118.58728,247.38502 L89.60951,239.62045 L119.49535,242.23512 L124.7048,212.69089 L124.7048,242.69089 L154.59064,245.30556 L159.80009,215.76133 L130.82232,207.99676 L160.70816,210.61143 L165.91761,181.0672 L165.91761,211.0672 L195.80345,213.68187 L165.91761,216.29654 L165.91761,246.29654 L195.80345,248.91121 L201.0129,219.36698 L201.0129,249.36698 L230.89874,251.98165 L201.0129,254.59632 L201.0129,284.59632 L195.80345,255.05209 L165.91761,257.66676 L165.91761,287.66676 L195.80345,290.28143 L165.91761,292.8961 L165.91761,322.8961 L195.80345,325.51077 L201.0129,295.96654 L201.0129,325.96654 L230.89874,328.58121 L236.10819,299.03698 L207.13042,291.27241 L237.01626,293.88708 L242.22571,264.34285 L242.22571,294.34285 L272.11155,296.95752 L242.22571,299.57219 L242.22571,329.57219 L272.11155,332.18686 L277.321,302.64263 L277.321,332.64263 L307.20684,335.2573 L277.321,337.87197 L277.321,367.87197 L272.11155,338.32774 L242.22571,340.94241 L242.22571,370.94241 L272.11155,373.55708 L242.22571,376.17175 L242.22571,406.17175 L237.01626,376.62752 L207.13042,379.24219 L236.10819,371.47762 L230.89874,341.93339 L201.0129,344.54806 L201.0129,374.54806 L195.80345,345.00383 L165.91761,347.6185 L165.91761,377.6185 L195.80345,380.23317 L165.91761,382.84784 L165.91761,412.84784 L195.80345,415.46251 L201.0129,385.91828 L201.0129,415.91828 L230.89874,418.53295 L201.0129,421.14762 L201.0129,451.14762 L195.80345,421.60339 L165.91761,424.21806 L165.91761,454.21806 L195.80345,456.83273 L165.91761,459.4474 L165.91761,489.4474 L160.70816,459.90317 L130.82232,462.51784 L159.80009,454.75327 L154.59064,425.20904 L124.7048,427.82371 L124.7048,457.82371 L119.49535,428.27948 L89.60951,430.89415 L118.58728,423.12958 L113.37783,393.58535 L123.63843,421.77613 L152.6162,414.01156 L147.40675,384.46733 L117.52091,387.082 L146.49868,379.31743 L141.28923,349.7732 L111.40339,352.38787 L111.40339,382.38787 L106.19394,352.84364 L76.3081,355.45831 L76.3081,385.45831 L106.19394,388.07298 L76.3081,390.68765 L76.3081,420.68765 L71.09865,391.14342 L41.21281,393.75809 L70.19058,385.99352 L64.98113,356.44929 L35.09529,359.06396 L35.09529,389.06396 L29.88584,359.51973 L0.0,362.1344 L0.0,392.1344 L29.88584,394.74907 L0.0,397.36374 L0.0,427.36374 L29.88584,429.97841 L35.09529,400.43418 L35.09529,430.43418 L64.98113,433.04885 L35.09529,435.66352 L35.09529,465.66352 L29.88584,436.11929 L0.0,438.73396 L0.0,468.73396 L29.88584,471.34863 L0.0,473.9633 L0.0,503.9633 L29.88584,506.57797 L35.09529,477.03374 L35.09529,507.03374 L64.98113,509.64841 L70.19058,480.10418 L41.21281,472.33961 L71.09865,474.95428 L76.3081,445.41005 L76.3081,475.41005 L106.19394,478.02472 L76.3081,480.63939 L76.3081,510.63939 L106.19394,513.25406 L111.40339,483.70983 L111.40339,513.70983 L141.28923,516.3245 L111.40339,518.93917 L111.40339,548.93917 L106.19394,519.39494 L76.3081,522.00961 L76.3081,552.00961 L106.19394,554.62428 L76.3081,557.23895 L76.3081,587.23895 L71.09865,557.69472 L41.21281,560.30939 L70.19058,552.54482 L64.98113,523.00059 L35.09529,525.61526 L35.09529,555.61526 L29.88584,526.07103 L0.0,528.6857 L0.0,558.6857 L29.88584,561.30037 L0.0,563.91504 L0.0,593.91504 L29.88584,596.52971 L35.09529,566.98548 L35.09529,596.98548 L64.98113,599.60015 L35.09529,602.21482 L35.09529,632.21482 L29.88584,602.67059 L0.0,605.28526 L0.0,635.28526 L29.88584,637.89993 L0.0,640.5146 L0.0,670.5146 L29.88584,673.12927 L35.09529,643.58504 L35.09529,673.58504 L64.98113,676.19971 L70.19058,646.65548 L41.21281,638.89091 L71.09865,641.50558 L76.3081,611.96135 L76.3081,641.96135 L106.19394,644.57602 L76.3081,647.19069 L76.3081,677.19069 L106.19394,679.80536 L111.40339,650.26113 L111.40339,680.26113 L141.28923,682.8758 L146.49868,653.33157 L117.52091,645.567 L147.40675,648.18167 L152.6162,618.63744 L123.63843,610.87287 L113.37783,639.06365 L118.58728,609.51942 L89.60951,601.75485 L119.49535,604.36952 L124.7048,574.82529 L124.7048,604.82529 L154.59064,607.43996 L159.80009,577.89573 L130.82232,570.13116 L160.70816,572.74583 L165.91761,543.2016 L165.91761,573.2016 L195.80345,575.81627 L165.91761,578.43094 L165.91761,608.43094 L195.80345,611.04561 L201.0129,581.50138 L201.0129,611.50138 L230.89874,614.11605 L201.0129,616.73072 L201.0129,646.73072 L195.80345,617.18649 L165.91761,619.80116 L165.91761,649.80116 L195.80345,652.41583 L165.91761,655.0305 L165.91761,685.0305 L195.80345,687.64517 L201.0129,658.10094 L201.0129,688.10094 L230.89874,690.71561 L236.10819,661.17138 L207.13042,653.40681 L237.01626,656.02148 L242.22571,626.47725 L242.22571,656.47725 L272.11155,659.09192 L242.22571,661.70659 L242.22571,691.70659 L272.11155,694.32126 L277.321,664.77703 L277.321,694.77703 L307.20684,697.3917 L312.41629,667.84747 L283.43852,660.0829 L313.32436,662.69757 L318.53381,633.15334 L289.55604,625.38877 L279.29544,653.57955 L284.50489,624.03532 L255.52712,616.27075 L285.41296,618.88542 L290.62241,589.34119 L290.62241,619.34119 L320.50825,621.95586 L325.7177,592.41163 L296.73993,584.64706 L326.62577,587.26173 L331.83522,557.7175 L302.85745,549.95293 L292.59685,578.14371 L297.8063,548.59948 L268.82853,540.83491 L258.56793,569.02569 L285.75716,581.70424 L256.77939,573.93967 L246.51879,602.13045 L251.72824,572.58622 L222.75047,564.82165 L252.63631,567.43632 L257.84576,537.89209 L228.86799,530.12752 L218.60739,558.3183 L223.81684,528.77407 L194.83907,521.0095 L224.72491,523.62417 L229.93436,494.07994 L229.93436,524.07994 L259.8202,526.69461 L265.02965,497.15038 L236.05188,489.38581 L265.93772,492.00048 L271.14717,462.45625 L271.14717,492.45625 L301.03301,495.07092 L271.14717,497.68559 L271.14717,527.68559 L301.03301,530.30026 L306.24246,500.75603 L306.24246,530.75603 L336.1283,533.3707 L341.33775,503.82647 L312.35998,496.0619 L342.24582,498.67657 L347.45527,469.13234 L318.4775,461.36777 L308.2169,489.55855 L313.42635,460.01432 L284.44858,452.24975 L314.33442,454.86442 L319.54387,425.32019 L319.54387,455.32019 L349.42971,457.93486 L354.63916,428.39063 L325.66139,420.62606 L355.54723,423.24073 L360.75668,393.6965 L360.75668,423.6965 L390.64252,426.31117 L360.75668,428.92584 L360.75668,458.92584 L390.64252,461.54051 L395.85197,431.99628 L395.85197,461.99628 L425.73781,464.61095 L395.85197,467.22562 L395.85197,497.22562 L390.64252,467.68139 L360.75668,470.29606 L360.75668,500.29606 L390.64252,502.91073 L360.75668,505.5254 L360.75668,535.5254 L390.64252,538.14007 L395.85197,508.59584 L395.85197,538.59584 L425.73781,541.21051 L430.94726,511.66628 L401.96949,503.90171 L431.85533,506.51638 L437.06478,476.97215 L437.06478,506.97215 L466.95062,509.58682 L437.06478,512.20149 L437.06478,542.20149 L466.95062,544.81616 L472.16007,515.27193 L472.16007,545.27193 L502.04591,547.8866 L472.16007,550.50127 L472.16007,580.50127 L466.95062,550.95704 L437.06478,553.57171 L437.06478,583.57171 L466.95062,586.18638 L437.06478,588.80105 L437.06478,618.80105 L431.85533,589.25682 L401.96949,591.87149 L430.94726,584.10692 L425.73781,554.56269 L395.85197,557.17736 L395.85197,587.17736 L390.64252,557.63313 L360.75668,560.2478 L360.75668,590.2478 L390.64252,592.86247 L360.75668,595.47714 L360.75668,625.47714 L390.64252,628.09181 L395.85197,598.54758 L395.85197,628.54758 L425.73781,631.16225 L395.85197,633.77692 L395.85197,663.77692 L390.64252,634.23269 L360.75668,636.84736 L360.75668,666.84736 L390.64252,669.46203 L360.75668,672.0767 L360.75668,702.0767 L390.64252,704.69137 L395.85197,675.14714 L395.85197,705.14714 L425.73781,707.76181 L430.94726,678.21758 L401.96949,670.45301 L431.85533,673.06768 L437.06478,643.52345 L437.06478,673.52345 L466.95062,676.13812 L437.06478,678.75279 L437.06478,708.75279 L466.95062,711.36746 L472.16007,681.82323 L472.16007,711.82323 L502.04591,714.4379 L507.25536,684.89367 L478.27759,677.1291 L508.16343,679.74377 L513.37288,650.19954 L484.39511,642.43497 L474.13451,670.62575 L479.34396,641.08152 L450.36619,633.31695 L480.25203,635.93162 L485.46148,606.38739 L485.46148,636.38739 L515.34732,639.00206 L520.55677,609.45783 L491.579,601.69326 L521.46484,604.30793 L526.67429,574.7637 L526.67429,604.7637 L556.56013,607.37837 L526.67429,609.99304 L526.67429,639.99304 L556.56013,642.60771 L561.76958,613.06348 L561.76958,643.06348 L591.65542,645.67815 L561.76958,648.29282 L561.76958,678.29282 L556.56013,648.74859 L526.67429,651.36326 L526.67429,681.36326 L556.56013,683.97793 L526.67429,686.5926 L526.67429,716.5926 L556.56013,719.20727 L561.76958,689.66304 L561.76958,719.66304 L591.65542,722.27771 L596.86487,692.73348 L567.8871,684.96891 L597.77294,687.58358 L602.98239,658.03935 L602.98239,688.03935 L632.86823,690.65402 L602.98239,693.26869 L602.98239,723.26869 L632.86823,725.88336 L638.07768,696.33913 L638.07768,726.33913 L667.96352,728.9538 L638.07768,731.56847 L638.07768,761.56847 L632.86823,732.02424 L602.98239,734.63891 L602.98239,764.63891 L632.86823,767.25358 L602.98239,769.86825 L602.98239,799.86825 L597.77294,770.32402 L567.8871,772.93869 L596.86487,765.17412 L591.65542,735.62989 L561.76958,738.24456 L561.76958,768.24456 L556.56013,738.70033 L526.67429,741.315 L526.67429,771.315 L556.56013,773.92967 L526.67429,776.54434 L526.67429,806.54434 L556.56013,809.15901 L561.76958,779.61478 L561.76958,809.61478 L591.65542,812.22945 L561.76958,814.84412 L561.76958,844.84412 L556.56013,815.29989 L526.67429,817.91456 L526.67429,847.91456 L556.56013,850.52923 L526.67429,853.1439 L526.67429,883.1439 L521.46484,853.59967 L491.579,856.21434 L520.55677,848.44977 L515.34732,818.90554 L485.46148,821.52021 L485.46148,851.52021 L480.25203,821.97598 L450.36619,824.59065 L479.34396,816.82608 L474.13451,787.28185 L484.39511,815.47263 L513.37288,807.70806 L508.16343,778.16383 L478.27759,780.7785 L507.25536,773.01393 L502.04591,743.4697 L472.16007,746.08437 L472.16007,776.08437 L466.95062,746.54014 L437.06478,749.15481 L437.06478,779.15481 L466.95062,781.76948 L437.06478,784.38415 L437.06478,814.38415 L431.85533,784.83992 L401.96949,787.45459 L430.94726,779.69002 L425.73781,750.14579 L395.85197,752.76046 L395.85197,782.76046 L390.64252,753.21623 L360.75668,755.8309 L360.75668,785.8309 L390.64252,788.44557 L360.75668,791.06024 L360.75668,821.06024 L390.64252,823.67491 L395.85197,794.13068 L395.85197,824.13068 L425.73781,826.74535 L395.85197,829.36002 L395.85197,859.36002 L390.64252,829.81579 L360.75668,832.43046 L360.75668,862.43046 L390.64252,865.04513 L360.75668,867.6598 L360.75668,897.6598 L390.64252,900.27447 L395.85197,870.73024 L395.85197,900.73024 L425.73781,903.34491 L430.94726,873.80068 L401.96949,866.03611 L431.85533,868.65078 L437.06478,839.10655 L437.06478,869.10655 L466.95062,871.72122 L437.06478,874.33589 L437.06478,904.33589 L466.95062,906.95056 L472.16007,877.40633 L472.16007,907.40633 L502.04591,910.021 L472.16007,912.63567 L472.16007,942.63567 L466.95062,913.09144 L437.06478,915.70611 L437.06478,945.70611 L466.95062,948.32078 L437.06478,950.93545 L437.06478,980.93545 L431.85533,951.39122 L401.96949,954.00589 L430.94726,946.24132 L425.73781,916.69709 L395.85197,919.31176 L395.85197,949.31176 L390.64252,919.76753 L360.75668,922.3822 L360.75668,952.3822 L390.64252,954.99687 L360.75668,957.61154 L360.75668,987.61154 L390.64252,990.22621 L395.85197,960.68198 L395.85197,990.68198 L425.73781,993.29665 L395.85197,995.91132 L395.85197,1025.91132 L390.64252,996.36709 L360.75668,998.98176 L360.75668,1028.98176 L390.64252,1031.59643 L360.75668,1034.2111 L360.75668,1064.2111 L355.54723,1034.66687 L325.66139,1037.28154 L354.63916,1029.51697 L349.42971,999.97274 L319.54387,1002.58741 L319.54387,1032.58741 L314.33442,1003.04318 L284.44858,1005.65785 L313.42635,997.89328 L308.2169,968.34905 L318.4775,996.53983 L347.45527,988.77526 L342.24582,959.23103 L312.35998,961.8457 L341.33775,954.08113 L336.1283,924.5369 L306.24246,927.15157 L306.24246,957.15157 L301.03301,927.60734 L271.14717,930.22201 L271.14717,960.22201 L301.03301,962.83668 L271.14717,965.45135 L271.14717,995.45135 L265.93772,965.90712 L236.05188,968.52179 L265.02965,960.75722 L259.8202,931.21299 L229.93436,933.82766 L229.93436,963.82766 L224.72491,934.28343 L194.83907,936.8981 L223.81684,929.13353 L218.60739,899.5893 L228.86799,927.78008 L257.84576,920.01551 L252.63631,890.47128 L222.75047,893.08595 L251.72824,885.32138 L246.51879,855.77715 L256.77939,883.96793 L285.75716,876.20336 L258.56793,888.88191 L268.82853,917.07269 L297.8063,909.30812 L292.59685,879.76389 L302.85745,907.95467 L331.83522,900.1901 L326.62577,870.64587 L296.73993,873.26054 L325.7177,865.49597 L320.50825,835.95174 L290.62241,838.56641 L290.62241,868.56641 L285.41296,839.02218 L255.52712,841.63685 L284.50489,833.87228 L279.29544,804.32805 L289.55604,832.51883 L318.53381,824.75426 L313.32436,795.21003 L283.43852,797.8247 L312.41629,790.06013 L307.20684,760.5159 L277.321,763.13057 L277.321,793.13057 L272.11155,763.58634 L242.22571,766.20101 L242.22571,796.20101 L272.11155,798.81568 L242.22571,801.43035 L242.22571,831.43035 L237.01626,801.88612 L207.13042,804.50079 L236.10819,796.73622 L230.89874,767.19199 L201.0129,769.80666 L201.0129,799.80666 L195.80345,770.26243 L165.91761,772.8771 L165.91761,802.8771 L195.80345,805.49177 L165.91761,808.10644 L165.91761,838.10644 L195.80345,840.72111 L201.0129,811.17688 L201.0129,841.17688 L230.89874,843.79155 L201.0129,846.40622 L201.0129,876.40622 L195.80345,846.86199 L165.91761,849.47666 L165.91761,879.47666 L195.80345,882.09133 L165.91761,884.706 L165.91761,914.706 L160.70816,885.16177 L130.82232,887.77644 L159.80009,880.01187 L154.59064,850.46764 L124.7048,853.08231 L124.7048,883.08231 L119.49535,853.53808 L89.60951,856.15275 L118.58728,848.38818 L113.37783,818.84395 L123.63843,847.03473 L152.6162,839.27016 L147.40675,809.72593 L117.52091,812.3406 L146.49868,804.57603 L141.28923,775.0318 L111.40339,777.64647 L111.40339,807.64647 L106.19394,778.10224 L76.3081,780.71691 L76.3081,810.71691 L106.19394,813.33158 L76.3081,815.94625 L76.3081,845.94625 L71.09865,816.40202 L41.21281,819.01669 L70.19058,811.25212 L64.98113,781.70789 L35.09529,784.32256 L35.09529,814.32256 L29.88584,784.77833 L0.0,787.393 L0.0,817.393 L29.88584,820.00767 L0.0,822.62234 L0.0,852.62234 L29.88584,855.23701 L35.09529,825.69278 L35.09529,855.69278 L64.98113,858.30745 L35.09529,860.92212 L35.09529,890.92212 L29.88584,861.37789 L0.0,863.99256 L0.0,893.99256 L29.88584,896.60723 L0.0,899.2219 L0.0,929.2219 L29.88584,931.83657 L35.09529,902.29234 L35.09529,932.29234 L64.98113,934.90701 L70.19058,905.36278 L41.21281,897.59821 L71.09865,900.21288 L76.3081,870.66865 L76.3081,900.66865 L106.19394,903.28332 L76.3081,905.89799 L76.3081,935.89799 L106.19394,938.51266 L111.40339,908.96843 L111.40339,938.96843 L141.28923,941.5831 L111.40339,944.19777 L111.40339,974.19777 L106.19394,944.65354 L76.3081,947.26821 L76.3081,977.26821 L106.19394,979.88288 L76.3081,982.49755 L76.3081,1012.49755 L71.09865,982.95332 L41.21281,985.56799 L70.19058,977.80342 L64.98113,948.25919 L35.09529,950.87386 L35.09529,980.87386 L29.88584,951.32963 L0.0,953.9443 L0.0,983.9443 L29.88584,986.55897 L0.0,989.17364 L0.0,1019.17364 L29.88584,1021.78831 L35.09529,992.24408 L35.09529,1022.24408 L64.98113,1024.85875 L35.09529,1027.47342 L35.09529,1057.47342 L29.88584,1027.92919 L0.0,1030.54386 L0.0,1060.54386 L29.88584,1063.15853 L0.0,1065.7732 L0.0,1095.7732 L29.88584,1098.38787 L35.09529,1068.84364 L35.09529,1098.84364 L64.98113,1101.45831 L70.19058,1071.91408 L41.21281,1064.14951 L71.09865,1066.76418 L76.3081,1037.21995 L76.3081,1067.21995 L106.19394,1069.83462 L76.3081,1072.44929 L76.3081,1102.44929 L106.19394,1105.06396 L111.40339,1075.51973 L111.40339,1105.51973 L141.28923,1108.1344 L146.49868,1078.59017 L117.52091,1070.8256 L147.40675,1073.44027 L152.6162,1043.89604 L123.63843,1036.13147 L113.37783,1064.32225 L118.58728,1034.77802 L89.60951,1027.01345 L119.49535,1029.62812 L124.7048,1000.08389 L124.7048,1030.08389 L154.59064,1032.69856 L159.80009,1003.15433 L130.82232,995.38976 L160.70816,998.00443 L165.91761,968.4602 L165.91761,998.4602 L195.80345,1001.07487 L165.91761,1003.68954 L165.91761,1033.68954 L195.80345,1036.30421 L201.0129,1006.75998 L201.0129,1036.75998 L230.89874,1039.37465 L201.0129,1041.98932 L201.0129,1071.98932 L195.80345,1042.44509 L165.91761,1045.05976 L165.91761,1075.05976 L195.80345,1077.67443 L165.91761,1080.2891 L165.91761,1110.2891 L195.80345,1112.90377 L201.0129,1083.35954 L201.0129,1113.35954 L230.89874,1115.97421 L236.10819,1086.42998 L207.13042,1078.66541 L237.01626,1081.28008 L242.22571,1051.73585 L242.22571,1081.73585 L272.11155,1084.35052 L242.22571,1086.96519 L242.22571,1116.96519 L272.11155,1119.57986 L277.321,1090.03563 L277.321,1120.03563 L307.20684,1122.6503 L277.321,1125.26497 L277.321,1155.26497 L272.11155,1125.72074 L242.22571,1128.33541 L242.22571,1158.33541 L272.11155,1160.95008 L242.22571,1163.56475 L242.22571,1193.56475 L237.01626,1164.02052 L207.13042,1166.63519 L236.10819,1158.87062 L230.89874,1129.32639 L201.0129,1131.94106 L201.0129,1161.94106 L195.80345,1132.39683 L165.91761,1135.0115 L165.91761,1165.0115 L195.80345,1167.62617 L165.91761,1170.24084 L165.91761,1200.24084 L195.80345,1202.85551 L201.0129,1173.31128 L201.0129,1203.31128 L230.89874,1205.92595 L201.0129,1208.54062 L201.0129,1238.54062 L195.80345,1208.99639 L165.91761,1211.61106 L165.91761,1241.61106 L195.80345,1244.22573 L165.91761,1246.8404 L165.91761,1276.8404 L160.70816,1247.29617 L130.82232,1249.91084 L159.80009,1242.14627 L154.59064,1212.60204 L124.7048,1215.21671 L124.7048,1245.21671 L119.49535,1215.67248 L89.60951,1218.28715 L118.58728,1210.52258 L113.37783,1180.97835 L123.63843,1209.16913 L152.6162,1201.40456 L147.40675,1171.86033 L117.52091,1174.475 L146.49868,1166.71043 L141.28923,1137.1662 L111.40339,1139.78087 L111.40339,1169.78087 L106.19394,1140.23664 L76.3081,1142.85131 L76.3081,1172.85131 L106.19394,1175.46598 L76.3081,1178.08065 L76.3081,1208.08065 L71.09865,1178.53642 L41.21281,1181.15109 L70.19058,1173.38652 L64.98113,1143.84229 L35.09529,1146.45696 L35.09529,1176.45696 L29.88584,1146.91273 L0.0,1149.5274 L0.0,1179.5274 L29.88584,1182.14207 L0.0,1184.75674 L0.0,1214.75674 L29.88584,1217.37141 L35.09529,1187.82718 L35.09529,1217.82718 L64.98113,1220.44185 L35.09529,1223.05652 L35.09529,1253.05652 L29.88584,1223.51229 L0.0,1226.12696 L0.0,1256.12696 L29.88584,1258.74163 L0.0,1261.3563 L0.0,1291.3563 L29.88584,1293.97097 L35.09529,1264.42674 L35.09529,1294.42674 L64.98113,1297.04141 L70.19058,1267.49718 L41.21281,1259.73261 L71.09865,1262.34728 L76.3081,1232.80305 L76.3081,1262.80305 L106.19394,1265.41772 L76.3081,1268.03239 L76.3081,1298.03239 L106.19394,1300.64706 L111.40339,1271.10283 L111.40339,1301.10283 L141.28923,1303.7175 L111.40339,1306.33217 L111.40339,1336.33217 L106.19394,1306.78794 L76.3081,1309.40261 L76.3081,1339.40261 L106.19394,1342.01728 L76.3081,1344.63195 L76.3081,1374.63195 L71.09865,1345.08772 L41.21281,1347.70239 L70.19058,1339.93782 L64.98113,1310.39359 L35.09529,1313.00826 L35.09529,1343.00826 L29.88584,1313.46403 L0.0,1316.0787 L0.0,1346.0787 L29.88584,1348.69337 L0.0,1351.30804 L0.0,1381.30804 L29.88584,1383.92271 L35.09529,1354.37848 L35.09529,1384.37848 L64.98113,1386.99315 L35.09529,1389.60782 L35.09529,1419.60782 L29.88584,1390.06359 L0.0,1392.67826 L0.0,1422.67826 L29.88584,1425.29293 L0.0,1427.9076 L0.0,1457.9076 L29.88584,1460.52227 L35.09529,1430.97804 L35.09529,1460.97804 L64.98113,1463.59271 L70.19058,1434.04848 L41.21281,1426.28391 L71.09865,1428.89858 L76.3081,1399.35435 L76.3081,1429.35435 L106.19394,1431.96902 L76.3081,1434.58369 L76.3081,1464.58369 L106.19394,1467.19836 L111.40339,1437.65413 L111.40339,1467.65413 L141.28923,1470.2688 L146.49868,1440.72457 L117.52091,1432.96 L147.40675,1435.57467 L152.6162,1406.03044 L123.63843,1398.26587 L113.37783,1426.45665 L118.58728,1396.91242 L89.60951,1389.14785 L119.49535,1391.76252 L124.7048,1362.21829 L124.7048,1392.21829 L154.59064,1394.83296 L159.80009,1365.28873 L130.82232,1357.52416 L160.70816,1360.13883 L165.91761,1330.5946 L165.91761,1360.5946 L195.80345,1363.20927 L165.91761,1365.82394 L165.91761,1395.82394 L195.80345,1398.43861 L201.0129,1368.89438 L201.0129,1398.89438 L230.89874,1401.50905 L201.0129,1404.12372 L201.0129,1434.12372 L195.80345,1404.57949 L165.91761,1407.19416 L165.91761,1437.19416 L195.80345,1439.80883 L165.91761,1442.4235 L165.91761,1472.4235 L195.80345,1475.03817 L201.0129,1445.49394 L201.0129,1475.49394 L230.89874,1478.10861 L236.10819,1448.56438 L207.13042,1440.79981 L237.01626,1443.41448 L242.22571,1413.87025 L242.22571,1443.87025 L272.11155,1446.48492 L242.22571,1449.09959 L242.22571,1479.09959 L272.11155,1481.71426 L277.321,1452.17003 L277.321,1482.17003 L307.20684,1484.7847 L312.41629,1455.24047 L283.43852,1447.4759 L313.32436,1450.09057 L318.53381,1420.54634 L289.55604,1412.78177 L279.29544,1440.97255 L284.50489,1411.42832 L255.52712,1403.66375 L285.41296,1406.27842 L290.62241,1376.73419 L290.62241,1406.73419 L320.50825,1409.34886 L325.7177,1379.80463 L296.73993,1372.04006 L326.62577,1374.65473 L331.83522,1345.1105 L302.85745,1337.34593 L292.59685,1365.53671 L297.8063,1335.99248 L268.82853,1328.22791 L258.56793,1356.41869 L285.75716,1369.09724 L256.77939,1361.33267 L246.51879,1389.52345 L251.72824,1359.97922 L222.75047,1352.21465 L252.63631,1354.82932 L257.84576,1325.28509 L228.86799,1317.52052 L218.60739,1345.7113 L223.81684,1316.16707 L194.83907,1308.4025 L224.72491,1311.01717 L229.93436,1281.47294 L229.93436,1311.47294 L259.8202,1314.08761 L265.02965,1284.54338 L236.05188,1276.77881 L265.93772,1279.39348 L271.14717,1249.84925 L271.14717,1279.84925 L301.03301,1282.46392 L271.14717,1285.07859 L271.14717,1315.07859 L301.03301,1317.69326 L306.24246,1288.14903 L306.24246,1318.14903 L336.1283,1320.7637 L341.33775,1291.21947 L312.35998,1283.4549 L342.24582,1286.06957 L347.45527,1256.52534 L318.4775,1248.76077 L308.2169,1276.95155 L313.42635,1247.40732 L284.44858,1239.64275 L314.33442,1242.25742 L319.54387,1212.71319 L319.54387,1242.71319 L349.42971,1245.32786 L354.63916,1215.78363 L325.66139,1208.01906 L355.54723,1210.63373 L360.75668,1181.0895 L360.75668,1211.0895 L390.64252,1213.70417 L360.75668,1216.31884 L360.75668,1246.31884 L390.64252,1248.93351 L395.85197,1219.38928 L395.85197,1249.38928 L425.73781,1252.00395 L395.85197,1254.61862 L395.85197,1284.61862 L390.64252,1255.07439 L360.75668,1257.68906 L360.75668,1287.68906 L390.64252,1290.30373 L360.75668,1292.9184 L360.75668,1322.9184 L390.64252,1325.53307 L395.85197,1295.98884 L395.85197,1325.98884 L425.73781,1328.60351 L430.94726,1299.05928 L401.96949,1291.29471 L431.85533,1293.90938 L437.06478,1264.36515 L437.06478,1294.36515 L466.95062,1296.97982 L437.06478,1299.59449 L437.06478,1329.59449 L466.95062,1332.20916 L472.16007,1302.66493 L472.16007,1332.66493 L502.04591,1335.2796 L472.16007,1337.89427 L472.16007,1367.89427 L466.95062,1338.35004 L437.06478,1340.96471 L437.06478,1370.96471 L466.95062,1373.57938 L437.06478,1376.19405 L437.06478,1406.19405 L431.85533,1376.64982 L401.96949,1379.26449 L430.94726,1371.49992 L425.73781,1341.95569 L395.85197,1344.57036 L395.85197,1374.57036 L390.64252,1345.02613 L360.75668,1347.6408 L360.75668,1377.6408 L390.64252,1380.25547 L360.75668,1382.87014 L360.75668,1412.87014 L390.64252,1415.48481 L395.85197,1385.94058 L395.85197,1415.94058 L425.73781,1418.55525 L395.85197,1421.16992 L395.85197,1451.16992 L390.64252,1421.62569 L360.75668,1424.24036 L360.75668,1454.24036 L390.64252,1456.85503 L360.75668,1459.4697 L360.75668,1489.4697 L390.64252,1492.08437 L395.85197,1462.54014 L395.85197,1492.54014 L425.73781,1495.15481 L430.94726,1465.61058 L401.96949,1457.84601 L431.85533,1460.46068 L437.06478,1430.91645 L437.06478,1460.91645 L466.95062,1463.53112 L437.06478,1466.14579 L437.06478,1496.14579 L466.95062,1498.76046 L472.16007,1469.21623 L472.16007,1499.21623 L502.04591,1501.8309 L507.25536,1472.28667 L478.27759,1464.5221 L508.16343,1467.13677 L513.37288,1437.59254 L484.39511,1429.82797 L474.13451,1458.01875 L479.34396,1428.47452 L450.36619,1420.70995 L480.25203,1423.32462 L485.46148,1393.78039 L485.46148,1423.78039 L515.34732,1426.39506 L520.55677,1396.85083 L491.579,1389.08626 L521.46484,1391.70093 L526.67429,1362.1567 L526.67429,1392.1567 L556.56013,1394.77137 L526.67429,1397.38604 L526.67429,1427.38604 L556.56013,1430.00071 L561.76958,1400.45648 L561.76958,1430.45648 L591.65542,1433.07115 L561.76958,1435.68582 L561.76958,1465.68582 L556.56013,1436.14159 L526.67429,1438.75626 L526.67429,1468.75626 L556.56013,1471.37093 L526.67429,1473.9856 L526.67429,1503.9856 L556.56013,1506.60027 L561.76958,1477.05604 L561.76958,1507.05604 L591.65542,1509.67071 L596.86487,1480.12648 L567.8871,1472.36191 L597.77294,1474.97658 L602.98239,1445.43235 L602.98239,1475.43235 L632.86823,1478.04702 L602.98239,1480.66169 L602.98239,1510.66169 L632.86823,1513.27636 L638.07768,1483.73213 L638.07768,1513.73213 L667.96352,1516.3468 L673.17297,1486.80257 L644.1952,1479.038 L674.08104,1481.65267 L679.29049,1452.10844 L650.31272,1444.34387 L640.05212,1472.53465 L645.26157,1442.99042 L616.2838,1435.22585 L646.16964,1437.84052 L651.37909,1408.29629 L651.37909,1438.29629 L681.26493,1440.91096 L686.47438,1411.36673 L657.49661,1403.60216 L687.38245,1406.21683 L692.5919,1376.6726 L663.61413,1368.90803 L653.35353,1397.09881 L658.56298,1367.55458 L629.58521,1359.79001 L619.32461,1387.98079 L646.51384,1400.65934 L617.53607,1392.89477 L607.27547,1421.08555 L612.48492,1391.54132 L583.50715,1383.77675 L613.39299,1386.39142 L618.60244,1356.84719 L589.62467,1349.08262 L579.36407,1377.2734 L584.57352,1347.72917 L555.59575,1339.9646 L585.48159,1342.57927 L590.69104,1313.03504 L590.69104,1343.03504 L620.57688,1345.64971 L625.78633,1316.10548 L596.80856,1308.34091 L626.6944,1310.95558 L631.90385,1281.41135 L631.90385,1311.41135 L661.78969,1314.02602 L631.90385,1316.64069 L631.90385,1346.64069 L661.78969,1349.25536 L666.99914,1319.71113 L666.99914,1349.71113 L696.88498,1352.3258 L702.09443,1322.78157 L673.11666,1315.017 L703.0025,1317.63167 L708.21195,1288.08744 L679.23418,1280.32287 L668.97358,1308.51365 L674.18303,1278.96942 L645.20526,1271.20485 L675.0911,1273.81952 L680.30055,1244.27529 L680.30055,1274.27529 L710.18639,1276.88996 L715.39584,1247.34573 L686.41807,1239.58116 L716.30391,1242.19583 L721.51336,1212.6516 L692.53559,1204.88703 L682.27499,1233.07781 L687.48444,1203.53358 L658.50667,1195.76901 L648.24607,1223.95979 L675.4353,1236.63834 L646.45753,1228.87377 L636.19693,1257.06455 L641.40638,1227.52032 L612.42861,1219.75575 L642.31445,1222.37042 L647.5239,1192.82619 L618.54613,1185.06162 L608.28553,1213.2524 L613.49498,1183.70817 L584.51721,1175.9436 L574.25661,1204.13438 L601.44584,1216.81293 L572.46807,1209.04836 L562.20747,1237.23914 L589.3967,1249.91769 L604.3967,1223.93693 L594.1361,1252.12771 L621.32533,1264.80626 L592.34756,1257.04169 L582.08696,1285.23247 L587.29641,1255.68824 L558.31864,1247.92367 L548.05804,1276.11445 L575.24727,1288.793 L546.2695,1281.02843 L536.0089,1309.21921 L541.21835,1279.67498 L512.24058,1271.91041 L542.12642,1274.52508 L547.33587,1244.98085 L518.3581,1237.21628 L508.0975,1265.40706 L513.30695,1235.86283 L484.32918,1228.09826 L514.21502,1230.71293 L519.42447,1201.1687 L519.42447,1231.1687 L549.31031,1233.78337 L554.51976,1204.23914 L525.54199,1196.47457 L555.42783,1199.08924 L560.63728,1169.54501 L531.65951,1161.78044 L521.39891,1189.97122 L526.60836,1160.42699 L497.63059,1152.66242 L487.36999,1180.8532 L514.55922,1193.53175 L485.58145,1185.76718 L475.32085,1213.95796 L480.5303,1184.41373 L451.55253,1176.64916 L481.43837,1179.26383 L486.64782,1149.7196 L457.67005,1141.95503 L447.40945,1170.14581 L452.6189,1140.60158 L423.64113,1132.83701 L453.52697,1135.45168 L458.73642,1105.90745 L458.73642,1135.90745 L488.62226,1138.52212 L493.83171,1108.97789 L464.85394,1101.21332 L494.73978,1103.82799 L499.94923,1074.28376 L499.94923,1104.28376 L529.83507,1106.89843 L499.94923,1109.5131 L499.94923,1139.5131 L529.83507,1142.12777 L535.04452,1112.58354 L535.04452,1142.58354 L564.93036,1145.19821 L570.13981,1115.65398 L541.16204,1107.88941 L571.04788,1110.50408 L576.25733,1080.95985 L547.27956,1073.19528 L537.01896,1101.38606 L542.22841,1071.84183 L513.25064,1064.07726 L543.13648,1066.69193 L548.34593,1037.1477 L548.34593,1067.1477 L578.23177,1069.76237 L583.44122,1040.21814 L554.46345,1032.45357 L584.34929,1035.06824 L589.55874,1005.52401 L589.55874,1035.52401 L619.44458,1038.13868 L589.55874,1040.75335 L589.55874,1070.75335 L619.44458,1073.36802 L624.65403,1043.82379 L624.65403,1073.82379 L654.53987,1076.43846 L624.65403,1079.05313 L624.65403,1109.05313 L619.44458,1079.5089 L589.55874,1082.12357 L589.55874,1112.12357 L619.44458,1114.73824 L589.55874,1117.35291 L589.55874,1147.35291 L619.44458,1149.96758 L624.65403,1120.42335 L624.65403,1150.42335 L654.53987,1153.03802 L659.74932,1123.49379 L630.77155,1115.72922 L660.65739,1118.34389 L665.86684,1088.79966 L665.86684,1118.79966 L695.75268,1121.41433 L665.86684,1124.029 L665.86684,1154.029 L695.75268,1156.64367 L700.96213,1127.09944 L700.96213,1157.09944 L730.84797,1159.71411 L736.05742,1130.16988 L707.07965,1122.40531 L736.96549,1125.01998 L742.17494,1095.47575 L713.19717,1087.71118 L702.93657,1115.90196 L708.14602,1086.35773 L679.16825,1078.59316 L709.05409,1081.20783 L714.26354,1051.6636 L714.26354,1081.6636 L744.14938,1084.27827 L749.35883,1054.73404 L720.38106,1046.96947 L750.2669,1049.58414 L755.47635,1020.03991 L726.49858,1012.27534 L716.23798,1040.46612 L721.44743,1010.92189 L692.46966,1003.15732 L682.20906,1031.3481 L709.39829,1044.02665 L680.42052,1036.26208 L670.15992,1064.45286 L675.36937,1034.90863 L646.3916,1027.14406 L676.27744,1029.75873 L681.48689,1000.2145 L652.50912,992.44993 L642.24852,1020.64071 L647.45797,991.09648 L618.4802,983.33191 L648.36604,985.94658 L653.57549,956.40235 L653.57549,986.40235 L683.46133,989.01702 L688.67078,959.47279 L659.69301,951.70822 L689.57885,954.32289 L694.7883,924.77866 L694.7883,954.77866 L724.67414,957.39333 L694.7883,960.008 L694.7883,990.008 L724.67414,992.62267 L729.88359,963.07844 L729.88359,993.07844 L759.76943,995.69311 L764.97888,966.14888 L736.00111,958.38431 L765.88695,960.99898 L771.0964,931.45475 L742.11863,923.69018 L731.85803,951.88096 L737.06748,922.33673 L708.08971,914.57216 L737.97555,917.18683 L743.185,887.6426 L743.185,917.6426 L773.07084,920.25727 L778.28029,890.71304 L749.30252,882.94847 L779.18836,885.56314 L784.39781,856.01891 L784.39781,886.01891 L814.28365,888.63358 L784.39781,891.24825 L784.39781,921.24825 L814.28365,923.86292 L819.4931,894.31869 L819.4931,924.31869 L849.37894,926.93336 L819.4931,929.54803 L819.4931,959.54803 L814.28365,930.0038 L784.39781,932.61847 L784.39781,962.61847 L814.28365,965.23314 L784.39781,967.84781 L784.39781,997.84781 L814.28365,1000.46248 L819.4931,970.91825 L819.4931,1000.91825 L849.37894,1003.53292 L854.58839,973.98869 L825.61062,966.22412 L855.49646,968.83879 L860.70591,939.29456 L860.70591,969.29456 L890.59175,971.90923 L860.70591,974.5239 L860.70591,1004.5239 L890.59175,1007.13857 L895.8012,977.59434 L895.8012,1007.59434 L925.68704,1010.20901 L895.8012,1012.82368 L895.8012,1042.82368 L890.59175,1013.27945 L860.70591,1015.89412 L860.70591,1045.89412 L890.59175,1048.50879 L860.70591,1051.12346 L860.70591,1081.12346 L855.49646,1051.57923 L825.61062,1054.1939 L854.58839,1046.42933 L849.37894,1016.8851 L819.4931,1019.49977 L819.4931,1049.49977 L814.28365,1019.95554 L784.39781,1022.57021 L784.39781,1052.57021 L814.28365,1055.18488 L784.39781,1057.79955 L784.39781,1087.79955 L814.28365,1090.41422 L819.4931,1060.86999 L819.4931,1090.86999 L849.37894,1093.48466 L819.4931,1096.09933 L819.4931,1126.09933 L814.28365,1096.5551 L784.39781,1099.16977 L784.39781,1129.16977 L814.28365,1131.78444 L784.39781,1134.39911 L784.39781,1164.39911 L814.28365,1167.01378 L819.4931,1137.46955 L819.4931,1167.46955 L849.37894,1170.08422 L854.58839,1140.53999 L825.61062,1132.77542 L855.49646,1135.39009 L860.70591,1105.84586 L860.70591,1135.84586 L890.59175,1138.46053 L860.70591,1141.0752 L860.70591,1171.0752 L890.59175,1173.68987 L895.8012,1144.14564 L895.8012,1174.14564 L925.68704,1176.76031 L930.89649,1147.21608 L901.91872,1139.45151 L931.80456,1142.06618 L937.01401,1112.52195 L908.03624,1104.75738 L897.77564,1132.94816 L902.98509,1103.40393 L874.00732,1095.63936 L903.89316,1098.25403 L909.10261,1068.7098 L909.10261,1098.7098 L938.98845,1101.32447 L944.1979,1071.78024 L915.22013,1064.01567 L945.10597,1066.63034 L950.31542,1037.08611 L950.31542,1067.08611 L980.20126,1069.70078 L950.31542,1072.31545 L950.31542,1102.31545 L980.20126,1104.93012 L985.41071,1075.38589 L985.41071,1105.38589 L1015.29655,1108.00056 L985.41071,1110.61523 L985.41071,1140.61523 L980.20126,1111.071 L950.31542,1113.68567 L950.31542,1143.68567 L980.20126,1146.30034 L950.31542,1148.91501 L950.31542,1178.91501 L980.20126,1181.52968 L985.41071,1151.98545 L985.41071,1181.98545 L1015.29655,1184.60012 L1020.506,1155.05589 L991.52823,1147.29132 L1021.41407,1149.90599 L1026.62352,1120.36176 L1026.62352,1150.36176 L1056.50936,1152.97643 L1026.62352,1155.5911 L1026.62352,1185.5911 L1056.50936,1188.20577 L1061.71881,1158.66154 L1061.71881,1188.66154 L1091.60465,1191.27621 L1061.71881,1193.89088 L1061.71881,1223.89088 L1056.50936,1194.34665 L1026.62352,1196.96132 L1026.62352,1226.96132 L1056.50936,1229.57599 L1026.62352,1232.19066 L1026.62352,1262.19066 L1021.41407,1232.64643 L991.52823,1235.2611 L1020.506,1227.49653 L1015.29655,1197.9523 L985.41071,1200.56697 L985.41071,1230.56697 L980.20126,1201.02274 L950.31542,1203.63741 L950.31542,1233.63741 L980.20126,1236.25208 L950.31542,1238.86675 L950.31542,1268.86675 L980.20126,1271.48142 L985.41071,1241.93719 L985.41071,1271.93719 L1015.29655,1274.55186 L985.41071,1277.16653 L985.41071,1307.16653 L980.20126,1277.6223 L950.31542,1280.23697 L950.31542,1310.23697 L980.20126,1312.85164 L950.31542,1315.46631 L950.31542,1345.46631 L945.10597,1315.92208 L915.22013,1318.53675 L944.1979,1310.77218 L938.98845,1281.22795 L909.10261,1283.84262 L909.10261,1313.84262 L903.89316,1284.29839 L874.00732,1286.91306 L902.98509,1279.14849 L897.77564,1249.60426 L908.03624,1277.79504 L937.01401,1270.03047 L931.80456,1240.48624 L901.91872,1243.10091 L930.89649,1235.33634 L925.68704,1205.79211 L895.8012,1208.40678 L895.8012,1238.40678 L890.59175,1208.86255 L860.70591,1211.47722 L860.70591,1241.47722 L890.59175,1244.09189 L860.70591,1246.70656 L860.70591,1276.70656 L855.49646,1247.16233 L825.61062,1249.777 L854.58839,1242.01243 L849.37894,1212.4682 L819.4931,1215.08287 L819.4931,1245.08287 L814.28365,1215.53864 L784.39781,1218.15331 L784.39781,1248.15331 L814.28365,1250.76798 L784.39781,1253.38265 L784.39781,1283.38265 L814.28365,1285.99732 L819.4931,1256.45309 L819.4931,1286.45309 L849.37894,1289.06776 L819.4931,1291.68243 L819.4931,1321.68243 L814.28365,1292.1382 L784.39781,1294.75287 L784.39781,1324.75287 L814.28365,1327.36754 L784.39781,1329.98221 L784.39781,1359.98221 L814.28365,1362.59688 L819.4931,1333.05265 L819.4931,1363.05265 L849.37894,1365.66732 L854.58839,1336.12309 L825.61062,1328.35852 L855.49646,1330.97319 L860.70591,1301.42896 L860.70591,1331.42896 L890.59175,1334.04363 L860.70591,1336.6583 L860.70591,1366.6583 L890.59175,1369.27297 L895.8012,1339.72874 L895.8012,1369.72874 L925.68704,1372.34341 L895.8012,1374.95808 L895.8012,1404.95808 L890.59175,1375.41385 L860.70591,1378.02852 L860.70591,1408.02852 L890.59175,1410.64319 L860.70591,1413.25786 L860.70591,1443.25786 L855.49646,1413.71363 L825.61062,1416.3283 L854.58839,1408.56373 L849.37894,1379.0195 L819.4931,1381.63417 L819.4931,1411.63417 L814.28365,1382.08994 L784.39781,1384.70461 L784.39781,1414.70461 L814.28365,1417.31928 L784.39781,1419.93395 L784.39781,1449.93395 L814.28365,1452.54862 L819.4931,1423.00439 L819.4931,1453.00439 L849.37894,1455.61906 L819.4931,1458.23373 L819.4931,1488.23373 L814.28365,1458.6895 L784.39781,1461.30417 L784.39781,1491.30417 L814.28365,1493.91884 L784.39781,1496.53351 L784.39781,1526.53351 L814.28365,1529.14818 L819.4931,1499.60395 L819.4931,1529.60395 L849.37894,1532.21862 L854.58839,1502.67439 L825.61062,1494.90982 L855.49646,1497.52449 L860.70591,1467.98026 L860.70591,1497.98026 L890.59175,1500.59493 L860.70591,1503.2096 L860.70591,1533.2096 L890.59175,1535.82427 L895.8012,1506.28004 L895.8012,1536.28004 L925.68704,1538.89471 L930.89649,1509.35048 L901.91872,1501.58591 L931.80456,1504.20058 L937.01401,1474.65635 L908.03624,1466.89178 L897.77564,1495.08256 L902.98509,1465.53833 L874.00732,1457.77376 L903.89316,1460.38843 L909.10261,1430.8442 L909.10261,1460.8442 L938.98845,1463.45887 L944.1979,1433.91464 L915.22013,1426.15007 L945.10597,1428.76474 L950.31542,1399.22051 L950.31542,1429.22051 L980.20126,1431.83518 L950.31542,1434.44985 L950.31542,1464.44985 L980.20126,1467.06452 L985.41071,1437.52029 L985.41071,1467.52029 L1015.29655,1470.13496 L985.41071,1472.74963 L985.41071,1502.74963 L980.20126,1473.2054 L950.31542,1475.82007 L950.31542,1505.82007 L980.20126,1508.43474 L950.31542,1511.04941 L950.31542,1541.04941 L980.20126,1543.66408 L985.41071,1514.11985 L985.41071,1544.11985 L1015.29655,1546.73452 L1020.506,1517.19029 L991.52823,1509.42572 L1021.41407,1512.04039 L1026.62352,1482.49616 L1026.62352,1512.49616 L1056.50936,1515.11083 L1026.62352,1517.7255 L1026.62352,1547.7255 L1056.50936,1550.34017 L1061.71881,1520.79594 L1061.71881,1550.79594 L1091.60465,1553.41061 L1096.8141,1523.86638 L1067.83633,1516.10181 L1097.72217,1518.71648 L1102.93162,1489.17225 L1073.95385,1481.40768 L1063.69325,1509.59846 L1068.9027,1480.05423 L1039.92493,1472.28966 L1069.81077,1474.90433 L1075.02022,1445.3601 L1075.02022,1475.3601 L1104.90606,1477.97477 L1110.11551,1448.43054 L1081.13774,1440.66597 L1111.02358,1443.28064 L1116.23303,1413.73641 L1087.25526,1405.97184 L1076.99466,1434.16262 L1082.20411,1404.61839 L1053.22634,1396.85382 L1042.96574,1425.0446 L1070.15497,1437.72315 L1041.1772,1429.95858 L1030.9166,1458.14936 L1036.12605,1428.60513 L1007.14828,1420.84056 L1037.03412,1423.45523 L1042.24357,1393.911 L1013.2658,1386.14643 L1003.0052,1414.33721 L1008.21465,1384.79298 L979.23688,1377.02841 L1009.12272,1379.64308 L1014.33217,1350.09885 L1014.33217,1380.09885 L1044.21801,1382.71352 L1049.42746,1353.16929 L1020.44969,1345.40472 L1050.33553,1348.01939 L1055.54498,1318.47516 L1055.54498,1348.47516 L1085.43082,1351.08983 L1055.54498,1353.7045 L1055.54498,1383.7045 L1085.43082,1386.31917 L1090.64027,1356.77494 L1090.64027,1386.77494 L1120.52611,1389.38961 L1125.73556,1359.84538 L1096.75779,1352.08081 L1126.64363,1354.69548 L1131.85308,1325.15125 L1102.87531,1317.38668 L1092.61471,1345.57746 L1097.82416,1316.03323 L1068.84639,1308.26866 L1098.73223,1310.88333 L1103.94168,1281.3391 L1103.94168,1311.3391 L1133.82752,1313.95377 L1139.03697,1284.40954 L1110.0592,1276.64497 L1139.94504,1279.25964 L1145.15449,1249.71541 L1145.15449,1279.71541 L1175.04033,1282.33008 L1145.15449,1284.94475 L1145.15449,1314.94475 L1175.04033,1317.55942 L1180.24978,1288.01519 L1180.24978,1318.01519 L1210.13562,1320.62986 L1180.24978,1323.24453 L1180.24978,1353.24453 L1175.04033,1323.7003 L1145.15449,1326.31497 L1145.15449,1356.31497 L1175.04033,1358.92964 L1145.15449,1361.54431 L1145.15449,1391.54431 L1175.04033,1394.15898 L1180.24978,1364.61475 L1180.24978,1394.61475 L1210.13562,1397.22942 L1215.34507,1367.68519 L1186.3673,1359.92062 L1216.25314,1362.53529 L1221.46259,1332.99106 L1221.46259,1362.99106 L1251.34843,1365.60573 L1221.46259,1368.2204 L1221.46259,1398.2204 L1251.34843,1400.83507 L1256.55788,1371.29084 L1256.55788,1401.29084 L1286.44372,1403.90551 L1256.55788,1406.52018 L1256.55788,1436.52018 L1251.34843,1406.97595 L1221.46259,1409.59062 L1221.46259,1439.59062 L1251.34843,1442.20529 L1221.46259,1444.81996 L1221.46259,1474.81996 L1216.25314,1445.27573 L1186.3673,1447.8904 L1215.34507,1440.12583 L1210.13562,1410.5816 L1180.24978,1413.19627 L1180.24978,1443.19627 L1175.04033,1413.65204 L1145.15449,1416.26671 L1145.15449,1446.26671 L1175.04033,1448.88138 L1145.15449,1451.49605 L1145.15449,1481.49605 L1175.04033,1484.11072 L1180.24978,1454.56649 L1180.24978,1484.56649 L1210.13562,1487.18116 L1180.24978,1489.79583 L1180.24978,1519.79583 L1175.04033,1490.2516 L1145.15449,1492.86627 L1145.15449,1522.86627 L1175.04033,1525.48094 L1145.15449,1528.09561 L1145.15449,1558.09561 L1175.04033,1560.71028 L1180.24978,1531.16605 L1180.24978,1561.16605 L1210.13562,1563.78072 L1215.34507,1534.23649 L1186.3673,1526.47192 L1216.25314,1529.08659 L1221.46259,1499.54236 L1221.46259,1529.54236 L1251.34843,1532.15703 L1221.46259,1534.7717 L1221.46259,1564.7717 L1251.34843,1567.38637 L1256.55788,1537.84214 L1256.55788,1567.84214 L1286.44372,1570.45681 L1291.65317,1540.91258 L1262.6754,1533.14801 L1292.56124,1535.76268 L1297.77069,1506.21845 L1268.79292,1498.45388 L1258.53232,1526.64466 L1263.74177,1497.10043 L1234.764,1489.33586 L1264.64984,1491.95053 L1269.85929,1462.4063 L1269.85929,1492.4063 L1299.74513,1495.02097 L1304.95458,1465.47674 L1275.97681,1457.71217 L1305.86265,1460.32684 L1311.0721,1430.78261 L1311.0721,1460.78261 L1340.95794,1463.39728 L1311.0721,1466.01195 L1311.0721,1496.01195 L1340.95794,1498.62662 L1346.16739,1469.08239 L1346.16739,1499.08239 L1376.05323,1501.69706 L1346.16739,1504.31173 L1346.16739,1534.31173 L1340.95794,1504.7675 L1311.0721,1507.38217 L1311.0721,1537.38217 L1340.95794,1539.99684 L1311.0721,1542.61151 L1311.0721,1572.61151 L1340.95794,1575.22618 L1346.16739,1545.68195 L1346.16739,1575.68195 L1376.05323,1578.29662 L1381.26268,1548.75239 L1352.28491,1540.98782 L1382.17075,1543.60249 L1387.3802,1514.05826 L1387.3802,1544.05826 L1417.26604,1546.67293 L1387.3802,1549.2876 L1387.3802,1579.2876 L1417.26604,1581.90227 L1422.47549,1552.35804 L1422.47549,1582.35804 L1452.36133,1584.97271 L1422.47549,1587.58738 L1422.47549,1617.58738 L1417.26604,1588.04315 L1387.3802,1590.65782 L1387.3802,1620.65782 L1417.26604,1623.27249 L1387.3802,1625.88716 L1387.3802,1655.88716 L1382.17075,1626.34293 L1352.28491,1628.9576 L1381.26268,1621.19303 L1376.05323,1591.6488 L1346.16739,1594.26347 L1346.16739,1624.26347 L1340.95794,1594.71924 L1311.0721,1597.33391 L1311.0721,1627.33391 L1340.95794,1629.94858 L1311.0721,1632.56325 L1311.0721,1662.56325 L1340.95794,1665.17792 L1346.16739,1635.63369 L1346.16739,1665.63369 L1376.05323,1668.24836 L1346.16739,1670.86303 L1346.16739,1700.86303 L1340.95794,1671.3188 L1311.0721,1673.93347 L1311.0721,1703.93347 L1340.95794,1706.54814 L1311.0721,1709.16281 L1311.0721,1739.16281 L1305.86265,1709.61858 L1275.97681,1712.23325 L1304.95458,1704.46868 L1299.74513,1674.92445 L1269.85929,1677.53912 L1269.85929,1707.53912 L1264.64984,1677.99489 L1234.764,1680.60956 L1263.74177,1672.84499 L1258.53232,1643.30076 L1268.79292,1671.49154 L1297.77069,1663.72697 L1292.56124,1634.18274 L1262.6754,1636.79741 L1291.65317,1629.03284 L1286.44372,1599.48861 L1256.55788,1602.10328 L1256.55788,1632.10328 L1251.34843,1602.55905 L1221.46259,1605.17372 L1221.46259,1635.17372 L1251.34843,1637.78839 L1221.46259,1640.40306 L1221.46259,1670.40306 L1216.25314,1640.85883 L1186.3673,1643.4735 L1215.34507,1635.70893 L1210.13562,1606.1647 L1180.24978,1608.77937 L1180.24978,1638.77937 L1175.04033,1609.23514 L1145.15449,1611.84981 L1145.15449,1641.84981 L1175.04033,1644.46448 L1145.15449,1647.07915 L1145.15449,1677.07915 L1175.04033,1679.69382 L1180.24978,1650.14959 L1180.24978,1680.14959 L1210.13562,1682.76426 L1180.24978,1685.37893 L1180.24978,1715.37893 L1175.04033,1685.8347 L1145.15449,1688.44937 L1145.15449,1718.44937 L1175.04033,1721.06404 L1145.15449,1723.67871 L1145.15449,1753.67871 L1175.04033,1756.29338 L1180.24978,1726.74915 L1180.24978,1756.74915 L1210.13562,1759.36382 L1215.34507,1729.81959 L1186.3673,1722.05502 L1216.25314,1724.66969 L1221.46259,1695.12546 L1221.46259,1725.12546 L1251.34843,1727.74013 L1221.46259,1730.3548 L1221.46259,1760.3548 L1251.34843,1762.96947 L1256.55788,1733.42524 L1256.55788,1763.42524 L1286.44372,1766.03991 L1256.55788,1768.65458 L1256.55788,1798.65458 L1251.34843,1769.11035 L1221.46259,1771.72502 L1221.46259,1801.72502 L1251.34843,1804.33969 L1221.46259,1806.95436 L1221.46259,1836.95436 L1216.25314,1807.41013 L1186.3673,1810.0248 L1215.34507,1802.26023 L1210.13562,1772.716 L1180.24978,1775.33067 L1180.24978,1805.33067 L1175.04033,1775.78644 L1145.15449,1778.40111 L1145.15449,1808.40111 L1175.04033,1811.01578 L1145.15449,1813.63045 L1145.15449,1843.63045 L1175.04033,1846.24512 L1180.24978,1816.70089 L1180.24978,1846.70089 L1210.13562,1849.31556 L1180.24978,1851.93023 L1180.24978,1881.93023 L1175.04033,1852.386 L1145.15449,1855.00067 L1145.15449,1885.00067 L1175.04033,1887.61534 L1145.15449,1890.23001 L1145.15449,1920.23001 L1139.94504,1890.68578 L1110.0592,1893.30045 L1139.03697,1885.53588 L1133.82752,1855.99165 L1103.94168,1858.60632 L1103.94168,1888.60632 L1098.73223,1859.06209 L1068.84639,1861.67676 L1097.82416,1853.91219 L1092.61471,1824.36796 L1102.87531,1852.55874 L1131.85308,1844.79417 L1126.64363,1815.24994 L1096.75779,1817.86461 L1125.73556,1810.10004 L1120.52611,1780.55581 L1090.64027,1783.17048 L1090.64027,1813.17048 L1085.43082,1783.62625 L1055.54498,1786.24092 L1055.54498,1816.24092 L1085.43082,1818.85559 L1055.54498,1821.47026 L1055.54498,1851.47026 L1050.33553,1821.92603 L1020.44969,1824.5407 L1049.42746,1816.77613 L1044.21801,1787.2319 L1014.33217,1789.84657 L1014.33217,1819.84657 L1009.12272,1790.30234 L979.23688,1792.91701 L1008.21465,1785.15244 L1003.0052,1755.60821 L1013.2658,1783.79899 L1042.24357,1776.03442 L1037.03412,1746.49019 L1007.14828,1749.10486 L1036.12605,1741.34029 L1030.9166,1711.79606 L1041.1772,1739.98684 L1070.15497,1732.22227 L1042.96574,1744.90082 L1053.22634,1773.0916 L1082.20411,1765.32703 L1076.99466,1735.7828 L1087.25526,1763.97358 L1116.23303,1756.20901 L1111.02358,1726.66478 L1081.13774,1729.27945 L1110.11551,1721.51488 L1104.90606,1691.97065 L1075.02022,1694.58532 L1075.02022,1724.58532 L1069.81077,1695.04109 L1039.92493,1697.65576 L1068.9027,1689.89119 L1063.69325,1660.34696 L1073.95385,1688.53774 L1102.93162,1680.77317 L1097.72217,1651.22894 L1067.83633,1653.84361 L1096.8141,1646.07904 L1091.60465,1616.53481 L1061.71881,1619.14948 L1061.71881,1649.14948 L1056.50936,1619.60525 L1026.62352,1622.21992 L1026.62352,1652.21992 L1056.50936,1654.83459 L1026.62352,1657.44926 L1026.62352,1687.44926 L1021.41407,1657.90503 L991.52823,1660.5197 L1020.506,1652.75513 L1015.29655,1623.2109 L985.41071,1625.82557 L985.41071,1655.82557 L980.20126,1626.28134 L950.31542,1628.89601 L950.31542,1658.89601 L980.20126,1661.51068 L950.31542,1664.12535 L950.31542,1694.12535 L980.20126,1696.74002 L985.41071,1667.19579 L985.41071,1697.19579 L1015.29655,1699.81046 L985.41071,1702.42513 L985.41071,1732.42513 L980.20126,1702.8809 L950.31542,1705.49557 L950.31542,1735.49557 L980.20126,1738.11024 L950.31542,1740.72491 L950.31542,1770.72491 L945.10597,1741.18068 L915.22013,1743.79535 L944.1979,1736.03078 L938.98845,1706.48655 L909.10261,1709.10122 L909.10261,1739.10122 L903.89316,1709.55699 L874.00732,1712.17166 L902.98509,1704.40709 L897.77564,1674.86286 L908.03624,1703.05364 L937.01401,1695.28907 L931.80456,1665.74484 L901.91872,1668.35951 L930.89649,1660.59494 L925.68704,1631.05071 L895.8012,1633.66538 L895.8012,1663.66538 L890.59175,1634.12115 L860.70591,1636.73582 L860.70591,1666.73582 L890.59175,1669.35049 L860.70591,1671.96516 L860.70591,1701.96516 L855.49646,1672.42093 L825.61062,1675.0356 L854.58839,1667.27103 L849.37894,1637.7268 L819.4931,1640.34147 L819.4931,1670.34147 L814.28365,1640.79724 L784.39781,1643.41191 L784.39781,1673.41191 L814.28365,1676.02658 L784.39781,1678.64125 L784.39781,1708.64125 L814.28365,1711.25592 L819.4931,1681.71169 L819.4931,1711.71169 L849.37894,1714.32636 L819.4931,1716.94103 L819.4931,1746.94103 L814.28365,1717.3968 L784.39781,1720.01147 L784.39781,1750.01147 L814.28365,1752.62614 L784.39781,1755.24081 L784.39781,1785.24081 L814.28365,1787.85548 L819.4931,1758.31125 L819.4931,1788.31125 L849.37894,1790.92592 L854.58839,1761.38169 L825.61062,1753.61712 L855.49646,1756.23179 L860.70591,1726.68756 L860.70591,1756.68756 L890.59175,1759.30223 L860.70591,1761.9169 L860.70591,1791.9169 L890.59175,1794.53157 L895.8012,1764.98734 L895.8012,1794.98734 L925.68704,1797.60201 L895.8012,1800.21668 L895.8012,1830.21668 L890.59175,1800.67245 L860.70591,1803.28712 L860.70591,1833.28712 L890.59175,1835.90179 L860.70591,1838.51646 L860.70591,1868.51646 L855.49646,1838.97223 L825.61062,1841.5869 L854.58839,1833.82233 L849.37894,1804.2781 L819.4931,1806.89277 L819.4931,1836.89277 L814.28365,1807.34854 L784.39781,1809.96321 L784.39781,1839.96321 L814.28365,1842.57788 L784.39781,1845.19255 L784.39781,1875.19255 L814.28365,1877.80722 L819.4931,1848.26299 L819.4931,1878.26299 L849.37894,1880.87766 L819.4931,1883.49233 L819.4931,1913.49233 L814.28365,1883.9481 L784.39781,1886.56277 L784.39781,1916.56277 L814.28365,1919.17744 L784.39781,1921.79211 L784.39781,1951.79211 L814.28365,1954.40678 L819.4931,1924.86255 L819.4931,1954.86255 L849.37894,1957.47722 L854.58839,1927.93299 L825.61062,1920.16842 L855.49646,1922.78309 L860.70591,1893.23886 L860.70591,1923.23886 L890.59175,1925.85353 L860.70591,1928.4682 L860.70591,1958.4682 L890.59175,1961.08287 L895.8012,1931.53864 L895.8012,1961.53864 L925.68704,1964.15331 L930.89649,1934.60908 L901.91872,1926.84451 L931.80456,1929.45918 L937.01401,1899.91495 L908.03624,1892.15038 L897.77564,1920.34116 L902.98509,1890.79693 L874.00732,1883.03236 L903.89316,1885.64703 L909.10261,1856.1028 L909.10261,1886.1028 L938.98845,1888.71747 L944.1979,1859.17324 L915.22013,1851.40867 L945.10597,1854.02334 L950.31542,1824.47911 L950.31542,1854.47911 L980.20126,1857.09378 L950.31542,1859.70845 L950.31542,1889.70845 L980.20126,1892.32312 L985.41071,1862.77889 L985.41071,1892.77889 L1015.29655,1895.39356 L985.41071,1898.00823 L985.41071,1928.00823 L980.20126,1898.464 L950.31542,1901.07867 L950.31542,1931.07867 L980.20126,1933.69334 L950.31542,1936.30801 L950.31542,1966.30801 L980.20126,1968.92268 L985.41071,1939.37845 L985.41071,1969.37845 L1015.29655,1971.99312 L1020.506,1942.44889 L991.52823,1934.68432 L1021.41407,1937.29899 L1026.62352,1907.75476 L1026.62352,1937.75476 L1056.50936,1940.36943 L1026.62352,1942.9841 L1026.62352,1972.9841 L1056.50936,1975.59877 L1061.71881,1946.05454 L1061.71881,1976.05454 L1091.60465,1978.66921 L1061.71881,1981.28388 L1061.71881,2011.28388 L1056.50936,1981.73965 L1026.62352,1984.35432 L1026.62352,2014.35432 L1056.50936,2016.96899 L1026.62352,2019.58366 L1026.62352,2049.58366 L1021.41407,2020.03943 L991.52823,2022.6541 L1020.506,2014.88953 L1015.29655,1985.3453 L985.41071,1987.95997 L985.41071,2017.95997 L980.20126,1988.41574 L950.31542,1991.03041 L950.31542,2021.03041 L980.20126,2023.64508 L950.31542,2026.25975 L950.31542,2056.25975 L980.20126,2058.87442 L985.41071,2029.33019 L985.41071,2059.33019 L1015.29655,2061.94486 L985.41071,2064.55953 L985.41071,2094.55953 L980.20126,2065.0153 L950.31542,2067.62997 L950.31542,2097.62997 L980.20126,2100.24464 L950.31542,2102.85931 L950.31542,2132.85931 L945.10597,2103.31508 L915.22013,2105.92975 L944.1979,2098.16518 L938.98845,2068.62095 L909.10261,2071.23562 L909.10261,2101.23562 L903.89316,2071.69139 L874.00732,2074.30606 L902.98509,2066.54149 L897.77564,2036.99726 L908.03624,2065.18804 L937.01401,2057.42347 L931.80456,2027.87924 L901.91872,2030.49391 L930.89649,2022.72934 L925.68704,1993.18511 L895.8012,1995.79978 L895.8012,2025.79978 L890.59175,1996.25555 L860.70591,1998.87022 L860.70591,2028.87022 L890.59175,2031.48489 L860.70591,2034.09956 L860.70591,2064.09956 L855.49646,2034.55533 L825.61062,2037.17 L854.58839,2029.40543 L849.37894,1999.8612 L819.4931,2002.47587 L819.4931,2032.47587 L814.28365,2002.93164 L784.39781,2005.54631 L784.39781,2035.54631 L814.28365,2038.16098 L784.39781,2040.77565 L784.39781,2070.77565 L814.28365,2073.39032 L819.4931,2043.84609 L819.4931,2073.84609 L849.37894,2076.46076 L819.4931,2079.07543 L819.4931,2109.07543 L814.28365,2079.5312 L784.39781,2082.14587 L784.39781,2112.14587 L814.28365,2114.76054 L784.39781,2117.37521 L784.39781,2147.37521 L814.28365,2149.98988 L819.4931,2120.44565 L819.4931,2150.44565 L849.37894,2153.06032 L854.58839,2123.51609 L825.61062,2115.75152 L855.49646,2118.36619 L860.70591,2088.82196 L860.70591,2118.82196 L890.59175,2121.43663 L860.70591,2124.0513 L860.70591,2154.0513 L890.59175,2156.66597 L895.8012,2127.12174 L895.8012,2157.12174 L925.68704,2159.73641 L895.8012,2162.35108 L895.8012,2192.35108 L890.59175,2162.80685 L860.70591,2165.42152 L860.70591,2195.42152 L890.59175,2198.03619 L860.70591,2200.65086 L860.70591,2230.65086 L855.49646,2201.10663 L825.61062,2203.7213 L854.58839,2195.95673 L849.37894,2166.4125 L819.4931,2169.02717 L819.4931,2199.02717 L814.28365,2169.48294 L784.39781,2172.09761 L784.39781,2202.09761 L814.28365,2204.71228 L784.39781,2207.32695 L784.39781,2237.32695 L814.28365,2239.94162 L819.4931,2210.39739 L819.4931,2240.39739 L849.37894,2243.01206 L819.4931,2245.62673 L819.4931,2275.62673 L814.28365,2246.0825 L784.39781,2248.69717 L784.39781,2278.69717 L814.28365,2281.31184 L784.39781,2283.92651 L784.39781,2313.92651 L779.18836,2284.38228 L749.30252,2286.99695 L778.28029,2279.23238 L773.07084,2249.68815 L743.185,2252.30282 L743.185,2282.30282 L737.97555,2252.75859 L708.08971,2255.37326 L737.06748,2247.60869 L731.85803,2218.06446 L742.11863,2246.25524 L771.0964,2238.49067 L765.88695,2208.94644 L736.00111,2211.56111 L764.97888,2203.79654 L759.76943,2174.25231 L729.88359,2176.86698 L729.88359,2206.86698 L724.67414,2177.32275 L694.7883,2179.93742 L694.7883,2209.93742 L724.67414,2212.55209 L694.7883,2215.16676 L694.7883,2245.16676 L689.57885,2215.62253 L659.69301,2218.2372 L688.67078,2210.47263 L683.46133,2180.9284 L653.57549,2183.54307 L653.57549,2213.54307 L648.36604,2183.99884 L618.4802,2186.61351 L647.45797,2178.84894 L642.24852,2149.30471 L652.50912,2177.49549 L681.48689,2169.73092 L676.27744,2140.18669 L646.3916,2142.80136 L675.36937,2135.03679 L670.15992,2105.49256 L680.42052,2133.68334 L709.39829,2125.91877 L682.20906,2138.59732 L692.46966,2166.7881 L721.44743,2159.02353 L716.23798,2129.4793 L726.49858,2157.67008 L755.47635,2149.90551 L750.2669,2120.36128 L720.38106,2122.97595 L749.35883,2115.21138 L744.14938,2085.66715 L714.26354,2088.28182 L714.26354,2118.28182 L709.05409,2088.73759 L679.16825,2091.35226 L708.14602,2083.58769 L702.93657,2054.04346 L713.19717,2082.23424 L742.17494,2074.46967 L736.96549,2044.92544 L707.07965,2047.54011 L736.05742,2039.77554 L730.84797,2010.23131 L700.96213,2012.84598 L700.96213,2042.84598 L695.75268,2013.30175 L665.86684,2015.91642 L665.86684,2045.91642 L695.75268,2048.53109 L665.86684,2051.14576 L665.86684,2081.14576 L660.65739,2051.60153 L630.77155,2054.2162 L659.74932,2046.45163 L654.53987,2016.9074 L624.65403,2019.52207 L624.65403,2049.52207 L619.44458,2019.97784 L589.55874,2022.59251 L589.55874,2052.59251 L619.44458,2055.20718 L589.55874,2057.82185 L589.55874,2087.82185 L619.44458,2090.43652 L624.65403,2060.89229 L624.65403,2090.89229 L654.53987,2093.50696 L624.65403,2096.12163 L624.65403,2126.12163 L619.44458,2096.5774 L589.55874,2099.19207 L589.55874,2129.19207 L619.44458,2131.80674 L589.55874,2134.42141 L589.55874,2164.42141 L584.34929,2134.87718 L554.46345,2137.49185 L583.44122,2129.72728 L578.23177,2100.18305 L548.34593,2102.79772 L548.34593,2132.79772 L543.13648,2103.25349 L513.25064,2105.86816 L542.22841,2098.10359 L537.01896,2068.55936 L547.27956,2096.75014 L576.25733,2088.98557 L571.04788,2059.44134 L541.16204,2062.05601 L570.13981,2054.29144 L564.93036,2024.74721 L535.04452,2027.36188 L535.04452,2057.36188 L529.83507,2027.81765 L499.94923,2030.43232 L499.94923,2060.43232 L529.83507,2063.04699 L499.94923,2065.66166 L499.94923,2095.66166 L494.73978,2066.11743 L464.85394,2068.7321 L493.83171,2060.96753 L488.62226,2031.4233 L458.73642,2034.03797 L458.73642,2064.03797 L453.52697,2034.49374 L423.64113,2037.10841 L452.6189,2029.34384 L447.40945,1999.79961 L457.67005,2027.99039 L486.64782,2020.22582 L481.43837,1990.68159 L451.55253,1993.29626 L480.5303,1985.53169 L475.32085,1955.98746 L485.58145,1984.17824 L514.55922,1976.41367 L487.36999,1989.09222 L497.63059,2017.283 L526.60836,2009.51843 L521.39891,1979.9742 L531.65951,2008.16498 L560.63728,2000.40041 L555.42783,1970.85618 L525.54199,1973.47085 L554.51976,1965.70628 L549.31031,1936.16205 L519.42447,1938.77672 L519.42447,1968.77672 L514.21502,1939.23249 L484.32918,1941.84716 L513.30695,1934.08259 L508.0975,1904.53836 L518.3581,1932.72914 L547.33587,1924.96457 L542.12642,1895.42034 L512.24058,1898.03501 L541.21835,1890.27044 L536.0089,1860.72621 L546.2695,1888.91699 L575.24727,1881.15242 L548.05804,1893.83097 L558.31864,1922.02175 L587.29641,1914.25718 L582.08696,1884.71295 L592.34756,1912.90373 L621.32533,1905.13916 L594.1361,1917.81771 L604.3967,1946.00849 L589.3967,1920.02773 L562.20747,1932.70628 L572.46807,1960.89706 L601.44584,1953.13249 L574.25661,1965.81104 L584.51721,1994.00182 L613.49498,1986.23725 L608.28553,1956.69302 L618.54613,1984.8838 L647.5239,1977.11923 L642.31445,1947.575 L612.42861,1950.18967 L641.40638,1942.4251 L636.19693,1912.88087 L646.45753,1941.07165 L675.4353,1933.30708 L648.24607,1945.98563 L658.50667,1974.17641 L687.48444,1966.41184 L682.27499,1936.86761 L692.53559,1965.05839 L721.51336,1957.29382 L716.30391,1927.74959 L686.41807,1930.36426 L715.39584,1922.59969 L710.18639,1893.05546 L680.30055,1895.67013 L680.30055,1925.67013 L675.0911,1896.1259 L645.20526,1898.74057 L674.18303,1890.976 L668.97358,1861.43177 L679.23418,1889.62255 L708.21195,1881.85798 L703.0025,1852.31375 L673.11666,1854.92842 L702.09443,1847.16385 L696.88498,1817.61962 L666.99914,1820.23429 L666.99914,1850.23429 L661.78969,1820.69006 L631.90385,1823.30473 L631.90385,1853.30473 L661.78969,1855.9194 L631.90385,1858.53407 L631.90385,1888.53407 L626.6944,1858.98984 L596.80856,1861.60451 L625.78633,1853.83994 L620.57688,1824.29571 L590.69104,1826.91038 L590.69104,1856.91038 L585.48159,1827.36615 L555.59575,1829.98082 L584.57352,1822.21625 L579.36407,1792.67202 L589.62467,1820.8628 L618.60244,1813.09823 L613.39299,1783.554 L583.50715,1786.16867 L612.48492,1778.4041 L607.27547,1748.85987 L617.53607,1777.05065 L646.51384,1769.28608 L619.32461,1781.96463 L629.58521,1810.15541 L658.56298,1802.39084 L653.35353,1772.84661 L663.61413,1801.03739 L692.5919,1793.27282 L687.38245,1763.72859 L657.49661,1766.34326 L686.47438,1758.57869 L681.26493,1729.03446 L651.37909,1731.64913 L651.37909,1761.64913 L646.16964,1732.1049 L616.2838,1734.71957 L645.26157,1726.955 L640.05212,1697.41077 L650.31272,1725.60155 L679.29049,1717.83698 L674.08104,1688.29275 L644.1952,1690.90742 L673.17297,1683.14285 L667.96352,1653.59862 L638.07768,1656.21329 L638.07768,1686.21329 L632.86823,1656.66906 L602.98239,1659.28373 L602.98239,1689.28373 L632.86823,1691.8984 L602.98239,1694.51307 L602.98239,1724.51307 L597.77294,1694.96884 L567.8871,1697.58351 L596.86487,1689.81894 L591.65542,1660.27471 L561.76958,1662.88938 L561.76958,1692.88938 L556.56013,1663.34515 L526.67429,1665.95982 L526.67429,1695.95982 L556.56013,1698.57449 L526.67429,1701.18916 L526.67429,1731.18916 L556.56013,1733.80383 L561.76958,1704.2596 L561.76958,1734.2596 L591.65542,1736.87427 L561.76958,1739.48894 L561.76958,1769.48894 L556.56013,1739.94471 L526.67429,1742.55938 L526.67429,1772.55938 L556.56013,1775.17405 L526.67429,1777.78872 L526.67429,1807.78872 L521.46484,1778.24449 L491.579,1780.85916 L520.55677,1773.09459 L515.34732,1743.55036 L485.46148,1746.16503 L485.46148,1776.16503 L480.25203,1746.6208 L450.36619,1749.23547 L479.34396,1741.4709 L474.13451,1711.92667 L484.39511,1740.11745 L513.37288,1732.35288 L508.16343,1702.80865 L478.27759,1705.42332 L507.25536,1697.65875 L502.04591,1668.11452 L472.16007,1670.72919 L472.16007,1700.72919 L466.95062,1671.18496 L437.06478,1673.79963 L437.06478,1703.79963 L466.95062,1706.4143 L437.06478,1709.02897 L437.06478,1739.02897 L431.85533,1709.48474 L401.96949,1712.09941 L430.94726,1704.33484 L425.73781,1674.79061 L395.85197,1677.40528 L395.85197,1707.40528 L390.64252,1677.86105 L360.75668,1680.47572 L360.75668,1710.47572 L390.64252,1713.09039 L360.75668,1715.70506 L360.75668,1745.70506 L390.64252,1748.31973 L395.85197,1718.7755 L395.85197,1748.7755 L425.73781,1751.39017 L395.85197,1754.00484 L395.85197,1784.00484 L390.64252,1754.46061 L360.75668,1757.07528 L360.75668,1787.07528 L390.64252,1789.68995 L360.75668,1792.30462 L360.75668,1822.30462 L390.64252,1824.91929 L395.85197,1795.37506 L395.85197,1825.37506 L425.73781,1827.98973 L430.94726,1798.4455 L401.96949,1790.68093 L431.85533,1793.2956 L437.06478,1763.75137 L437.06478,1793.75137 L466.95062,1796.36604 L437.06478,1798.98071 L437.06478,1828.98071 L466.95062,1831.59538 L472.16007,1802.05115 L472.16007,1832.05115 L502.04591,1834.66582 L472.16007,1837.28049 L472.16007,1867.28049 L466.95062,1837.73626 L437.06478,1840.35093 L437.06478,1870.35093 L466.95062,1872.9656 L437.06478,1875.58027 L437.06478,1905.58027 L431.85533,1876.03604 L401.96949,1878.65071 L430.94726,1870.88614 L425.73781,1841.34191 L395.85197,1843.95658 L395.85197,1873.95658 L390.64252,1844.41235 L360.75668,1847.02702 L360.75668,1877.02702 L390.64252,1879.64169 L360.75668,1882.25636 L360.75668,1912.25636 L390.64252,1914.87103 L395.85197,1885.3268 L395.85197,1915.3268 L425.73781,1917.94147 L395.85197,1920.55614 L395.85197,1950.55614 L390.64252,1921.01191 L360.75668,1923.62658 L360.75668,1953.62658 L390.64252,1956.24125 L360.75668,1958.85592 L360.75668,1988.85592 L355.54723,1959.31169 L325.66139,1961.92636 L354.63916,1954.16179 L349.42971,1924.61756 L319.54387,1927.23223 L319.54387,1957.23223 L314.33442,1927.688 L284.44858,1930.30267 L313.42635,1922.5381 L308.2169,1892.99387 L318.4775,1921.18465 L347.45527,1913.42008 L342.24582,1883.87585 L312.35998,1886.49052 L341.33775,1878.72595 L336.1283,1849.18172 L306.24246,1851.79639 L306.24246,1881.79639 L301.03301,1852.25216 L271.14717,1854.86683 L271.14717,1884.86683 L301.03301,1887.4815 L271.14717,1890.09617 L271.14717,1920.09617 L265.93772,1890.55194 L236.05188,1893.16661 L265.02965,1885.40204 L259.8202,1855.85781 L229.93436,1858.47248 L229.93436,1888.47248 L224.72491,1858.92825 L194.83907,1861.54292 L223.81684,1853.77835 L218.60739,1824.23412 L228.86799,1852.4249 L257.84576,1844.66033 L252.63631,1815.1161 L222.75047,1817.73077 L251.72824,1809.9662 L246.51879,1780.42197 L256.77939,1808.61275 L285.75716,1800.84818 L258.56793,1813.52673 L268.82853,1841.71751 L297.8063,1833.95294 L292.59685,1804.40871 L302.85745,1832.59949 L331.83522,1824.83492 L326.62577,1795.29069 L296.73993,1797.90536 L325.7177,1790.14079 L320.50825,1760.59656 L290.62241,1763.21123 L290.62241,1793.21123 L285.41296,1763.667 L255.52712,1766.28167 L284.50489,1758.5171 L279.29544,1728.97287 L289.55604,1757.16365 L318.53381,1749.39908 L313.32436,1719.85485 L283.43852,1722.46952 L312.41629,1714.70495 L307.20684,1685.16072 L277.321,1687.77539 L277.321,1717.77539 L272.11155,1688.23116 L242.22571,1690.84583 L242.22571,1720.84583 L272.11155,1723.4605 L242.22571,1726.07517 L242.22571,1756.07517 L237.01626,1726.53094 L207.13042,1729.14561 L236.10819,1721.38104 L230.89874,1691.83681 L201.0129,1694.45148 L201.0129,1724.45148 L195.80345,1694.90725 L165.91761,1697.52192 L165.91761,1727.52192 L195.80345,1730.13659 L165.91761,1732.75126 L165.91761,1762.75126 L195.80345,1765.36593 L201.0129,1735.8217 L201.0129,1765.8217 L230.89874,1768.43637 L201.0129,1771.05104 L201.0129,1801.05104 L195.80345,1771.50681 L165.91761,1774.12148 L165.91761,1804.12148 L195.80345,1806.73615 L165.91761,1809.35082 L165.91761,1839.35082 L160.70816,1809.80659 L130.82232,1812.42126 L159.80009,1804.65669 L154.59064,1775.11246 L124.7048,1777.72713 L124.7048,1807.72713 L119.49535,1778.1829 L89.60951,1780.79757 L118.58728,1773.033 L113.37783,1743.48877 L123.63843,1771.67955 L152.6162,1763.91498 L147.40675,1734.37075 L117.52091,1736.98542 L146.49868,1729.22085 L141.28923,1699.67662 L111.40339,1702.29129 L111.40339,1732.29129 L106.19394,1702.74706 L76.3081,1705.36173 L76.3081,1735.36173 L106.19394,1737.9764 L76.3081,1740.59107 L76.3081,1770.59107 L71.09865,1741.04684 L41.21281,1743.66151 L70.19058,1735.89694 L64.98113,1706.35271 L35.09529,1708.96738 L35.09529,1738.96738 L29.88584,1709.42315 L0.0,1712.03782 L0.0,1742.03782 L29.88584,1744.65249 L0.0,1747.26716 L0.0,1777.26716 L29.88584,1779.88183 L35.09529,1750.3376 L35.09529,1780.3376 L64.98113,1782.95227 L35.09529,1785.56694 L35.09529,1815.56694 L29.88584,1786.02271 L0.0,1788.63738 L0.0,1818.63738 L29.88584,1821.25205 L0.0,1823.86672 L0.0,1853.86672 L29.88584,1856.48139 L35.09529,1826.93716 L35.09529,1856.93716 L64.98113,1859.55183 L70.19058,1830.0076 L41.21281,1822.24303 L71.09865,1824.8577 L76.3081,1795.31347 L76.3081,1825.31347 L106.19394,1827.92814 L76.3081,1830.54281 L76.3081,1860.54281 L106.19394,1863.15748 L111.40339,1833.61325 L111.40339,1863.61325 L141.28923,1866.22792 L111.40339,1868.84259 L111.40339,1898.84259 L106.19394,1869.29836 L76.3081,1871.91303 L76.3081,1901.91303 L106.19394,1904.5277 L76.3081,1907.14237 L76.3081,1937.14237 L71.09865,1907.59814 L41.21281,1910.21281 L70.19058,1902.44824 L64.98113,1872.90401 L35.09529,1875.51868 L35.09529,1905.51868 L29.88584,1875.97445 L0.0,1878.58912 L0.0,1908.58912 L29.88584,1911.20379 L0.0,1913.81846 L0.0,1943.81846 L29.88584,1946.43313 L35.09529,1916.8889 L35.09529,1946.8889 L64.98113,1949.50357 L35.09529,1952.11824 L35.09529,1982.11824 L29.88584,1952.57401 L0.0,1955.18868 L0.0,1985.18868 L29.88584,1987.80335 L0.0,1990.41802 L0.0,2020.41802 L29.88584,2023.03269 L35.09529,1993.48846 L35.09529,2023.48846 L64.98113,2026.10313 L70.19058,1996.5589 L41.21281,1988.79433 L71.09865,1991.409 L76.3081,1961.86477 L76.3081,1991.86477 L106.19394,1994.47944 L76.3081,1997.09411 L76.3081,2027.09411 L106.19394,2029.70878 L111.40339,2000.16455 L111.40339,2030.16455 L141.28923,2032.77922 L146.49868,2003.23499 L117.52091,1995.47042 L147.40675,1998.08509 L152.6162,1968.54086 L123.63843,1960.77629 L113.37783,1988.96707 L118.58728,1959.42284 L89.60951,1951.65827 L119.49535,1954.27294 L124.7048,1924.72871 L124.7048,1954.72871 L154.59064,1957.34338 L159.80009,1927.79915 L130.82232,1920.03458 L160.70816,1922.64925 L165.91761,1893.10502 L165.91761,1923.10502 L195.80345,1925.71969 L165.91761,1928.33436 L165.91761,1958.33436 L195.80345,1960.94903 L201.0129,1931.4048 L201.0129,1961.4048 L230.89874,1964.01947 L201.0129,1966.63414 L201.0129,1996.63414 L195.80345,1967.08991 L165.91761,1969.70458 L165.91761,1999.70458 L195.80345,2002.31925 L165.91761,2004.93392 L165.91761,2034.93392 L195.80345,2037.54859 L201.0129,2008.00436 L201.0129,2038.00436 L230.89874,2040.61903 L236.10819,2011.0748 L207.13042,2003.31023 L237.01626,2005.9249 L242.22571,1976.38067 L242.22571,2006.38067 L272.11155,2008.99534 L242.22571,2011.61001 L242.22571,2041.61001 L272.11155,2044.22468 L277.321,2014.68045 L277.321,2044.68045 L307.20684,2047.29512 L277.321,2049.90979 L277.321,2079.90979 L272.11155,2050.36556 L242.22571,2052.98023 L242.22571,2082.98023 L272.11155,2085.5949 L242.22571,2088.20957 L242.22571,2118.20957 L237.01626,2088.66534 L207.13042,2091.28001 L236.10819,2083.51544 L230.89874,2053.97121 L201.0129,2056.58588 L201.0129,2086.58588 L195.80345,2057.04165 L165.91761,2059.65632 L165.91761,2089.65632 L195.80345,2092.27099 L165.91761,2094.88566 L165.91761,2124.88566 L195.80345,2127.50033 L201.0129,2097.9561 L201.0129,2127.9561 L230.89874,2130.57077 L201.0129,2133.18544 L201.0129,2163.18544 L195.80345,2133.64121 L165.91761,2136.25588 L165.91761,2166.25588 L195.80345,2168.87055 L165.91761,2171.48522 L165.91761,2201.48522 L160.70816,2171.94099 L130.82232,2174.55566 L159.80009,2166.79109 L154.59064,2137.24686 L124.7048,2139.86153 L124.7048,2169.86153 L119.49535,2140.3173 L89.60951,2142.93197 L118.58728,2135.1674 L113.37783,2105.62317 L123.63843,2133.81395 L152.6162,2126.04938 L147.40675,2096.50515 L117.52091,2099.11982 L146.49868,2091.35525 L141.28923,2061.81102 L111.40339,2064.42569 L111.40339,2094.42569 L106.19394,2064.88146 L76.3081,2067.49613 L76.3081,2097.49613 L106.19394,2100.1108 L76.3081,2102.72547 L76.3081,2132.72547 L71.09865,2103.18124 L41.21281,2105.79591 L70.19058,2098.03134 L64.98113,2068.48711 L35.09529,2071.10178 L35.09529,2101.10178 L29.88584,2071.55755 L0.0,2074.17222 L0.0,2104.17222 L29.88584,2106.78689 L0.0,2109.40156 L0.0,2139.40156 L29.88584,2142.01623 L35.09529,2112.472 L35.09529,2142.472 L64.98113,2145.08667 L35.09529,2147.70134 L35.09529,2177.70134 L29.88584,2148.15711 L0.0,2150.77178 L0.0,2180.77178 L29.88584,2183.38645 L0.0,2186.00112 L0.0,2216.00112 L29.88584,2218.61579 L35.09529,2189.07156 L35.09529,2219.07156 L64.98113,2221.68623 L70.19058,2192.142 L41.21281,2184.37743 L71.09865,2186.9921 L76.3081,2157.44787 L76.3081,2187.44787 L106.19394,2190.06254 L76.3081,2192.67721 L76.3081,2222.67721 L106.19394,2225.29188 L111.40339,2195.74765 L111.40339,2225.74765 L141.28923,2228.36232 L111.40339,2230.97699 L111.40339,2260.97699 L106.19394,2231.43276 L76.3081,2234.04743 L76.3081,2264.04743 L106.19394,2266.6621 L76.3081,2269.27677 L76.3081,2299.27677 L71.09865,2269.73254 L41.21281,2272.34721 L70.19058,2264.58264 L64.98113,2235.03841 L35.09529,2237.65308 L35.09529,2267.65308 L29.88584,2238.10885 L0.0,2240.72352 L0.0,2270.72352 L29.88584,2273.33819 L0.0,2275.95286 L0.0,2305.95286 L29.88584,2308.56753 L35.09529,2279.0233 L35.09529,2309.0233 L64.98113,2311.63797 L35.09529,2314.25264 L35.09529,2344.25264 L29.88584,2314.70841 L0.0,2317.32308 L0.0,2347.32308 L29.88584,2349.93775 L0.0,2352.55242 L0.0,2382.55242 L29.88584,2385.16709 L35.09529,2355.62286 L35.09529,2385.62286 L64.98113,2388.23753 L70.19058,2358.6933 L41.21281,2350.92873 L71.09865,2353.5434 L76.3081,2323.99917 L76.3081,2353.99917 L106.19394,2356.61384 L76.3081,2359.22851 L76.3081,2389.22851 L106.19394,2391.84318 L111.40339,2362.29895 L111.40339,2392.29895 L141.28923,2394.91362 L146.49868,2365.36939 L117.52091,2357.60482 L147.40675,2360.21949 L152.6162,2330.67526 L123.63843,2322.91069 L113.37783,2351.10147 L118.58728,2321.55724 L89.60951,2313.79267 L119.49535,2316.40734 L124.7048,2286.86311 L124.7048,2316.86311 L154.59064,2319.47778 L159.80009,2289.93355 L130.82232,2282.16898 L160.70816,2284.78365 L165.91761,2255.23942 L165.91761,2285.23942 L195.80345,2287.85409 L165.91761,2290.46876 L165.91761,2320.46876 L195.80345,2323.08343 L201.0129,2293.5392 L201.0129,2323.5392 L230.89874,2326.15387 L201.0129,2328.76854 L201.0129,2358.76854 L195.80345,2329.22431 L165.91761,2331.83898 L165.91761,2361.83898 L195.80345,2364.45365 L165.91761,2367.06832 L165.91761,2397.06832 L195.80345,2399.68299 L201.0129,2370.13876 L201.0129,2400.13876 L230.89874,2402.75343 L236.10819,2373.2092 L207.13042,2365.44463 L237.01626,2368.0593 L242.22571,2338.51507 L242.22571,2368.51507 L272.11155,2371.12974 L242.22571,2373.74441 L242.22571,2403.74441 L272.11155,2406.35908 L277.321,2376.81485 L277.321,2406.81485 L307.20684,2409.42952 L312.41629,2379.88529 L283.43852,2372.12072 L313.32436,2374.73539 L318.53381,2345.19116 L289.55604,2337.42659 L279.29544,2365.61737 L284.50489,2336.07314 L255.52712,2328.30857 L285.41296,2330.92324 L290.62241,2301.37901 L290.62241,2331.37901 L320.50825,2333.99368 L325.7177,2304.44945 L296.73993,2296.68488 L326.62577,2299.29955 L331.83522,2269.75532 L302.85745,2261.99075 L292.59685,2290.18153 L297.8063,2260.6373 L268.82853,2252.87273 L258.56793,2281.06351 L285.75716,2293.74206 L256.77939,2285.97749 L246.51879,2314.16827 L251.72824,2284.62404 L222.75047,2276.85947 L252.63631,2279.47414 L257.84576,2249.92991 L228.86799,2242.16534 L218.60739,2270.35612 L223.81684,2240.81189 L194.83907,2233.04732 L224.72491,2235.66199 L229.93436,2206.11776 L229.93436,2236.11776 L259.8202,2238.73243 L265.02965,2209.1882 L236.05188,2201.42363 L265.93772,2204.0383 L271.14717,2174.49407 L271.14717,2204.49407 L301.03301,2207.10874 L271.14717,2209.72341 L271.14717,2239.72341 L301.03301,2242.33808 L306.24246,2212.79385 L306.24246,2242.79385 L336.1283,2245.40852 L341.33775,2215.86429 L312.35998,2208.09972 L342.24582,2210.71439 L347.45527,2181.17016 L318.4775,2173.40559 L308.2169,2201.59637 L313.42635,2172.05214 L284.44858,2164.28757 L314.33442,2166.90224 L319.54387,2137.35801 L319.54387,2167.35801 L349.42971,2169.97268 L354.63916,2140.42845 L325.66139,2132.66388 L355.54723,2135.27855 L360.75668,2105.73432 L360.75668,2135.73432 L390.64252,2138.34899 L360.75668,2140.96366 L360.75668,2170.96366 L390.64252,2173.57833 L395.85197,2144.0341 L395.85197,2174.0341 L425.73781,2176.64877 L395.85197,2179.26344 L395.85197,2209.26344 L390.64252,2179.71921 L360.75668,2182.33388 L360.75668,2212.33388 L390.64252,2214.94855 L360.75668,2217.56322 L360.75668,2247.56322 L390.64252,2250.17789 L395.85197,2220.63366 L395.85197,2250.63366 L425.73781,2253.24833 L430.94726,2223.7041 L401.96949,2215.93953 L431.85533,2218.5542 L437.06478,2189.00997 L437.06478,2219.00997 L466.95062,2221.62464 L437.06478,2224.23931 L437.06478,2254.23931 L466.95062,2256.85398 L472.16007,2227.30975 L472.16007,2257.30975 L502.04591,2259.92442 L472.16007,2262.53909 L472.16007,2292.53909 L466.95062,2262.99486 L437.06478,2265.60953 L437.06478,2295.60953 L466.95062,2298.2242 L437.06478,2300.83887 L437.06478,2330.83887 L431.85533,2301.29464 L401.96949,2303.90931 L430.94726,2296.14474 L425.73781,2266.60051 L395.85197,2269.21518 L395.85197,2299.21518 L390.64252,2269.67095 L360.75668,2272.28562 L360.75668,2302.28562 L390.64252,2304.90029 L360.75668,2307.51496 L360.75668,2337.51496 L390.64252,2340.12963 L395.85197,2310.5854 L395.85197,2340.5854 L425.73781,2343.20007 L395.85197,2345.81474 L395.85197,2375.81474 L390.64252,2346.27051 L360.75668,2348.88518 L360.75668,2378.88518 L390.64252,2381.49985 L360.75668,2384.11452 L360.75668,2414.11452 L390.64252,2416.72919 L395.85197,2387.18496 L395.85197,2417.18496 L425.73781,2419.79963 L430.94726,2390.2554 L401.96949,2382.49083 L431.85533,2385.1055 L437.06478,2355.56127 L437.06478,2385.56127 L466.95062,2388.17594 L437.06478,2390.79061 L437.06478,2420.79061 L466.95062,2423.40528 L472.16007,2393.86105 L472.16007,2423.86105 L502.04591,2426.47572 L507.25536,2396.93149 L478.27759,2389.16692 L508.16343,2391.78159 L513.37288,2362.23736 L484.39511,2354.47279 L474.13451,2382.66357 L479.34396,2353.11934 L450.36619,2345.35477 L480.25203,2347.96944 L485.46148,2318.42521 L485.46148,2348.42521 L515.34732,2351.03988 L520.55677,2321.49565 L491.579,2313.73108 L521.46484,2316.34575 L526.67429,2286.80152 L526.67429,2316.80152 L556.56013,2319.41619 L526.67429,2322.03086 L526.67429,2352.03086 L556.56013,2354.64553 L561.76958,2325.1013 L561.76958,2355.1013 L591.65542,2357.71597 L561.76958,2360.33064 L561.76958,2390.33064 L556.56013,2360.78641 L526.67429,2363.40108 L526.67429,2393.40108 L556.56013,2396.01575 L526.67429,2398.63042 L526.67429,2428.63042 L556.56013,2431.24509 L561.76958,2401.70086 L561.76958,2431.70086 L591.65542,2434.31553 L596.86487,2404.7713 L567.8871,2397.00673 L597.77294,2399.6214 L602.98239,2370.07717 L602.98239,2400.07717 L632.86823,2402.69184 L602.98239,2405.30651 L602.98239,2435.30651 L632.86823,2437.92118 L638.07768,2408.37695 L638.07768,2438.37695 L667.96352,2440.99162 L638.07768,2443.60629 L638.07768,2473.60629 L632.86823,2444.06206 L602.98239,2446.67673 L602.98239,2476.67673 L632.86823,2479.2914 L602.98239,2481.90607 L602.98239,2511.90607 L597.77294,2482.36184 L567.8871,2484.97651 L596.86487,2477.21194 L591.65542,2447.66771 L561.76958,2450.28238 L561.76958,2480.28238 L556.56013,2450.73815 L526.67429,2453.35282 L526.67429,2483.35282 L556.56013,2485.96749 L526.67429,2488.58216 L526.67429,2518.58216 L556.56013,2521.19683 L561.76958,2491.6526 L561.76958,2521.6526 L591.65542,2524.26727 L561.76958,2526.88194 L561.76958,2556.88194 L556.56013,2527.33771 L526.67429,2529.95238 L526.67429,2559.95238 L556.56013,2562.56705 L526.67429,2565.18172 L526.67429,2595.18172 L521.46484,2565.63749 L491.579,2568.25216 L520.55677,2560.48759 L515.34732,2530.94336 L485.46148,2533.55803 L485.46148,2563.55803 L480.25203,2534.0138 L450.36619,2536.62847 L479.34396,2528.8639 L474.13451,2499.31967 L484.39511,2527.51045 L513.37288,2519.74588 L508.16343,2490.20165 L478.27759,2492.81632 L507.25536,2485.05175 L502.04591,2455.50752 L472.16007,2458.12219 L472.16007,2488.12219 L466.95062,2458.57796 L437.06478,2461.19263 L437.06478,2491.19263 L466.95062,2493.8073 L437.06478,2496.42197 L437.06478,2526.42197 L431.85533,2496.87774 L401.96949,2499.49241 L430.94726,2491.72784 L425.73781,2462.18361 L395.85197,2464.79828 L395.85197,2494.79828 L390.64252,2465.25405 L360.75668,2467.86872 L360.75668,2497.86872 L390.64252,2500.48339 L360.75668,2503.09806 L360.75668,2533.09806 L390.64252,2535.71273 L395.85197,2506.1685 L395.85197,2536.1685 L425.73781,2538.78317 L395.85197,2541.39784 L395.85197,2571.39784 L390.64252,2541.85361 L360.75668,2544.46828 L360.75668,2574.46828 L390.64252,2577.08295 L360.75668,2579.69762 L360.75668,2609.69762 L390.64252,2612.31229 L395.85197,2582.76806 L395.85197,2612.76806 L425.73781,2615.38273 L430.94726,2585.8385 L401.96949,2578.07393 L431.85533,2580.6886 L437.06478,2551.14437 L437.06478,2581.14437 L466.95062,2583.75904 L437.06478,2586.37371 L437.06478,2616.37371 L466.95062,2618.98838 L472.16007,2589.44415 L472.16007,2619.44415 L502.04591,2622.05882 L472.16007,2624.67349 L472.16007,2654.67349 L466.95062,2625.12926 L437.06478,2627.74393 L437.06478,2657.74393 L466.95062,2660.3586 L437.06478,2662.97327 L437.06478,2692.97327 L431.85533,2663.42904 L401.96949,2666.04371 L430.94726,2658.27914 L425.73781,2628.73491 L395.85197,2631.34958 L395.85197,2661.34958 L390.64252,2631.80535 L360.75668,2634.42002 L360.75668,2664.42002 L390.64252,2667.03469 L360.75668,2669.64936 L360.75668,2699.64936 L390.64252,2702.26403 L395.85197,2672.7198 L395.85197,2702.7198 L425.73781,2705.33447 L395.85197,2707.94914 L395.85197,2737.94914 L390.64252,2708.40491 L360.75668,2711.01958 L360.75668,2741.01958 L390.64252,2743.63425 L360.75668,2746.24892 L360.75668,2776.24892 L355.54723,2746.70469 L325.66139,2749.31936 L354.63916,2741.55479 L349.42971,2712.01056 L319.54387,2714.62523 L319.54387,2744.62523 L314.33442,2715.081 L284.44858,2717.69567 L313.42635,2709.9311 L308.2169,2680.38687 L318.4775,2708.57765 L347.45527,2700.81308 L342.24582,2671.26885 L312.35998,2673.88352 L341.33775,2666.11895 L336.1283,2636.57472 L306.24246,2639.18939 L306.24246,2669.18939 L301.03301,2639.64516 L271.14717,2642.25983 L271.14717,2672.25983 L301.03301,2674.8745 L271.14717,2677.48917 L271.14717,2707.48917 L265.93772,2677.94494 L236.05188,2680.55961 L265.02965,2672.79504 L259.8202,2643.25081 L229.93436,2645.86548 L229.93436,2675.86548 L224.72491,2646.32125 L194.83907,2648.93592 L223.81684,2641.17135 L218.60739,2611.62712 L228.86799,2639.8179 L257.84576,2632.05333 L252.63631,2602.5091 L222.75047,2605.12377 L251.72824,2597.3592 L246.51879,2567.81497 L256.77939,2596.00575 L285.75716,2588.24118 L258.56793,2600.91973 L268.82853,2629.11051 L297.8063,2621.34594 L292.59685,2591.80171 L302.85745,2619.99249 L331.83522,2612.22792 L326.62577,2582.68369 L296.73993,2585.29836 L325.7177,2577.53379 L320.50825,2547.98956 L290.62241,2550.60423 L290.62241,2580.60423 L285.41296,2551.06 L255.52712,2553.67467 L284.50489,2545.9101 L279.29544,2516.36587 L289.55604,2544.55665 L318.53381,2536.79208 L313.32436,2507.24785 L283.43852,2509.86252 L312.41629,2502.09795 L307.20684,2472.55372 L277.321,2475.16839 L277.321,2505.16839 L272.11155,2475.62416 L242.22571,2478.23883 L242.22571,2508.23883 L272.11155,2510.8535 L242.22571,2513.46817 L242.22571,2543.46817 L237.01626,2513.92394 L207.13042,2516.53861 L236.10819,2508.77404 L230.89874,2479.22981 L201.0129,2481.84448 L201.0129,2511.84448 L195.80345,2482.30025 L165.91761,2484.91492 L165.91761,2514.91492 L195.80345,2517.52959 L165.91761,2520.14426 L165.91761,2550.14426 L195.80345,2552.75893 L201.0129,2523.2147 L201.0129,2553.2147 L230.89874,2555.82937 L201.0129,2558.44404 L201.0129,2588.44404 L195.80345,2558.89981 L165.91761,2561.51448 L165.91761,2591.51448 L195.80345,2594.12915 L165.91761,2596.74382 L165.91761,2626.74382 L160.70816,2597.19959 L130.82232,2599.81426 L159.80009,2592.04969 L154.59064,2562.50546 L124.7048,2565.12013 L124.7048,2595.12013 L119.49535,2565.5759 L89.60951,2568.19057 L118.58728,2560.426 L113.37783,2530.88177 L123.63843,2559.07255 L152.6162,2551.30798 L147.40675,2521.76375 L117.52091,2524.37842 L146.49868,2516.61385 L141.28923,2487.06962 L111.40339,2489.68429 L111.40339,2519.68429 L106.19394,2490.14006 L76.3081,2492.75473 L76.3081,2522.75473 L106.19394,2525.3694 L76.3081,2527.98407 L76.3081,2557.98407 L71.09865,2528.43984 L41.21281,2531.05451 L70.19058,2523.28994 L64.98113,2493.74571 L35.09529,2496.36038 L35.09529,2526.36038 L29.88584,2496.81615 L0.0,2499.43082 L0.0,2529.43082 L29.88584,2532.04549 L0.0,2534.66016 L0.0,2564.66016 L29.88584,2567.27483 L35.09529,2537.7306 L35.09529,2567.7306 L64.98113,2570.34527 L35.09529,2572.95994 L35.09529,2602.95994 L29.88584,2573.41571 L0.0,2576.03038 L0.0,2606.03038 L29.88584,2608.64505 L0.0,2611.25972 L0.0,2641.25972 L29.88584,2643.87439 L35.09529,2614.33016 L35.09529,2644.33016 L64.98113,2646.94483 L70.19058,2617.4006 L41.21281,2609.63603 L71.09865,2612.2507 L76.3081,2582.70647 L76.3081,2612.70647 L106.19394,2615.32114 L76.3081,2617.93581 L76.3081,2647.93581 L106.19394,2650.55048 L111.40339,2621.00625 L111.40339,2651.00625 L141.28923,2653.62092 L111.40339,2656.23559 L111.40339,2686.23559 L106.19394,2656.69136 L76.3081,2659.30603 L76.3081,2689.30603 L106.19394,2691.9207 L76.3081,2694.53537 L76.3081,2724.53537 L71.09865,2694.99114 L41.21281,2697.60581 L70.19058,2689.84124 L64.98113,2660.29701 L35.09529,2662.91168 L35.09529,2692.91168 L29.88584,2663.36745 L0.0,2665.98212 L0.0,2695.98212 L29.88584,2698.59679 L0.0,2701.21146 L0.0,2731.21146 L29.88584,2733.82613 L35.09529,2704.2819 L35.09529,2734.2819 L64.98113,2736.89657 L35.09529,2739.51124 L35.09529,2769.51124 L29.88584,2739.96701 L0.0,2742.58168 L0.0,2772.58168 L29.88584,2775.19635 L0.0,2777.81102 L0.0,2807.81102 L29.88584,2810.42569 L35.09529,2780.88146 L35.09529,2810.88146 L64.98113,2813.49613 L70.19058,2783.9519 L41.21281,2776.18733 L71.09865,2778.802 L76.3081,2749.25777 L76.3081,2779.25777 L106.19394,2781.87244 L76.3081,2784.48711 L76.3081,2814.48711 L106.19394,2817.10178 L111.40339,2787.55755 L111.40339,2817.55755 L141.28923,2820.17222 L146.49868,2790.62799 L117.52091,2782.86342 L147.40675,2785.47809 L152.6162,2755.93386 L123.63843,2748.16929 L113.37783,2776.36007 L118.58728,2746.81584 L89.60951,2739.05127 L119.49535,2741.66594 L124.7048,2712.12171 L124.7048,2742.12171 L154.59064,2744.73638 L159.80009,2715.19215 L130.82232,2707.42758 L160.70816,2710.04225 L165.91761,2680.49802 L165.91761,2710.49802 L195.80345,2713.11269 L165.91761,2715.72736 L165.91761,2745.72736 L195.80345,2748.34203 L201.0129,2718.7978 L201.0129,2748.7978 L230.89874,2751.41247 L201.0129,2754.02714 L201.0129,2784.02714 L195.80345,2754.48291 L165.91761,2757.09758 L165.91761,2787.09758 L195.80345,2789.71225 L165.91761,2792.32692 L165.91761,2822.32692 L195.80345,2824.94159 L201.0129,2795.39736 L201.0129,2825.39736 L230.89874,2828.01203 L236.10819,2798.4678 L207.13042,2790.70323 L237.01626,2793.3179 L242.22571,2763.77367 L242.22571,2793.77367 L272.11155,2796.38834 L242.22571,2799.00301 L242.22571,2829.00301 L272.11155,2831.61768 L277.321,2802.07345 L277.321,2832.07345 L307.20684,2834.68812 L277.321,2837.30279 L277.321,2867.30279 L272.11155,2837.75856 L242.22571,2840.37323 L242.22571,2870.37323 L272.11155,2872.9879 L242.22571,2875.60257 L242.22571,2905.60257 L237.01626,2876.05834 L207.13042,2878.67301 L236.10819,2870.90844 L230.89874,2841.36421 L201.0129,2843.97888 L201.0129,2873.97888 L195.80345,2844.43465 L165.91761,2847.04932 L165.91761,2877.04932 L195.80345,2879.66399 L165.91761,2882.27866 L165.91761,2912.27866 L195.80345,2914.89333 L201.0129,2885.3491 L201.0129,2915.3491 L230.89874,2917.96377 L201.0129,2920.57844 L201.0129,2950.57844 L195.80345,2921.03421 L165.91761,2923.64888 L165.91761,2953.64888 L195.80345,2956.26355 L165.91761,2958.87822 L165.91761,2988.87822 L160.70816,2959.33399 L130.82232,2961.94866 L159.80009,2954.18409 L154.59064,2924.63986 L124.7048,2927.25453 L124.7048,2957.25453 L119.49535,2927.7103 L89.60951,2930.32497 L118.58728,2922.5604 L113.37783,2893.01617 L123.63843,2921.20695 L152.6162,2913.44238 L147.40675,2883.89815 L117.52091,2886.51282 L146.49868,2878.74825 L141.28923,2849.20402 L111.40339,2851.81869 L111.40339,2881.81869 L106.19394,2852.27446 L76.3081,2854.88913 L76.3081,2884.88913 L106.19394,2887.5038 L76.3081,2890.11847 L76.3081,2920.11847 L71.09865,2890.57424 L41.21281,2893.18891 L70.19058,2885.42434 L64.98113,2855.88011 L35.09529,2858.49478 L35.09529,2888.49478 L29.88584,2858.95055 L0.0,2861.56522 L0.0,2891.56522 L29.88584,2894.17989 L0.0,2896.79456 L0.0,2926.79456 L29.88584,2929.40923 L35.09529,2899.865 L35.09529,2929.865 L64.98113,2932.47967 L35.09529,2935.09434 L35.09529,2965.09434 L29.88584,2935.55011 L0.0,2938.16478 L0.0,2968.16478 L29.88584,2970.77945 L0.0,2973.39412 L0.0,3003.39412 L29.88584,3006.00879 L35.09529,2976.46456 L35.09529,3006.46456 L64.98113,3009.07923 L70.19058,2979.535 L41.21281,2971.77043 L71.09865,2974.3851 L76.3081,2944.84087 L76.3081,2974.84087 L106.19394,2977.45554 L76.3081,2980.07021 L76.3081,3010.07021 L106.19394,3012.68488 L111.40339,2983.14065 L111.40339,3013.14065 L141.28923,3015.75532 L111.40339,3018.36999 L111.40339,3048.36999 L106.19394,3018.82576 L76.3081,3021.44043 L76.3081,3051.44043 L106.19394,3054.0551 L76.3081,3056.66977 L76.3081,3086.66977 L71.09865,3057.12554 L41.21281,3059.74021 L70.19058,3051.97564 L64.98113,3022.43141 L35.09529,3025.04608 L35.09529,3055.04608 L29.88584,3025.50185 L0.0,3028.11652 L0.0,3058.11652 L29.88584,3060.73119 L0.0,3063.34586 L0.0,3093.34586 L29.88584,3095.96053 L35.09529,3066.4163 L35.09529,3096.4163 L64.98113,3099.03097 L35.09529,3101.64564 L35.09529,3131.64564 L29.88584,3102.10141 L0.0,3104.71608 L0.0,3134.71608 L29.88584,3137.33075 L0.0,3139.94542 L0.0,3169.94542 " style="fill:none;stroke-width:3;stroke:red;"></path></g></svg>