<svg height="600" overflow="visible" preserveAspectRatio="xMidYMid meet" version="1.0" width="1000" xmlns:xlink="http://www.w3.org/1999/xlink" xmlns="http://www.w3.org/2000/svg" zoomAndPan="magnify"><g transform="translate(2.47934,597.52066) scale(0.49587,-0.49587)"><path d="M0.0,0.0 L0.0,0.0 L15.0,0.0 L15.0,15.0 L0.0,15.0 L0.0,30.0 L15.0,30.0 L30.0,30.0 L30.0,15.0 L30.0,0.0 L45.0,0.0 L60.0,0.0 L75.0,0.0 L75.0,15.0 L75.0,30.0 L60.0,30.0 L60.0,15.0 L45.0,15.0 L45.0,30.0 L45.0,45.0 L60.0,45.0 L75.0,45.0 L75.0,60.0 L75.0,75.0 L60.0,75.0 L60.0,60.0 L45.0,60.0 L45.0,75.0 L30.0,75.0 L15.0,75.0 L15.0,60.0 L30.0,60.0 L30.0,45.0 L15.0,45.0 L0.0,45.0 L0.0,60.0 L0.0,75.0 L0.0,90.0 L15.0,90.0 L15.0,105.0 L0.0,105.0 L0.0,120.0 L15.0,120.0 L30.0,120.0 L30.0,105.0 L30.0,90.0 L45.0,90.0 L60.0,90.0 L60.0,105.0 L45.0,105.0 L45.0,120.0 L60.0,120.0 L75.0,120.0 L75.0,105.0 L75.0,90.0 L90.0,90.0 L105.0,90.0 L105.0,105.0 L90.0,105.0 L90.0,120.0 L105.0,120.0 L120.0,120.0 L120.0,105.0 L120.0,90.0 L120.0,75.0 L105.0,75.0 L90.0,75.0 L90.0,60.0 L90.0,45.0 L105.0,45.0 L105.0,60.0 L120.0,60.0 L120.0,45.0 L120.0,30.0 L105.0,30.0 L90.0,30.0 L90.0,15.0 L90.0,0.0 L105.0,0.0 L105.0,15.0 L120.0,15.0 L120.0,0.0 L135.0,0.0 L150.0,0.0 L150.0,15.0 L135.0,15.0 L135.0,30.0 L150.0,30.0 L165.0,30.0 L165.0,15.0 L165.0,0.0 L180.0,0.0 L195.0,0.0 L195.0,15.0 L180.0,15.0 L180.0,30.0 L195.0,30.0 L210.0,30.0 L210.0,15.0 L210.0,0.0 L225.0,0.0 L240.0,0.0 L255.0,0.0 L255.0,15.0 L255.0,30.0 L240.0,30.0 L240.0,15.0 L225.0,15.0 L225.0,30.0 L225.0,45.0 L240.0,45.0 L255.0,45.0 L255.0,60.0 L255.0,75.0 L240.0,75.0 L240.0,60.0 L225.0,60.0 L225.0,75.0 L225.0,90.0 L240.0,90.0 L255.0,90.0 L255.0,105.0 L255.0,120.0 L240.0,120.0 L240.0,105.0 L225.0,105.0 L225.0,120.0 L210.0,120.0 L195.0,120.0 L180.0,120.0 L180.0,105.0 L180.0,90.0 L195.0,90.0 L195.0,105.0 L210.0,105.0 L210.0,90.0 L210.0,75.0 L195.0,75.0 L195.0,60.0 L210.0,60.0 L210.0,45.0 L195.0,45.0 L180.0,45.0 L180.0,60.0 L180.0,75.0 L165.0,75.0 L150.0,75.0 L150.0,60.0 L165.0,60.0 L165.0,45.0 L150.0,45.0 L135.0,45.0 L135.0,60.0 L135.0,75.0 L135.0,90.0 L150.0,90.0 L165.0,90.0 L165.0,105.0 L165.0,120.0 L150.0,120.0 L150.0,105.0 L135.0,105.0 L135.0,120.0 L135.0,135.0 L150.0,135.0 L150.0,150.0 L135.0,150.0 L135.0,165.0 L150.0,165.0 L165.0,165.0 L165.0,150.0 L165.0,135.0 L180.0,135.0 L195.0,135.0 L195.0,150.0 L180.0,150.0 L180.0,165.0 L195.0,165.0 L210.0,165.0 L210.0,150.0 L210.0,135.0 L225.0,135.0 L240.0,135.0 L255.0,135.0 L255.0,150.0 L255.0,165.0 L240.0,165.0 L240.0,150.0 L225.0,150.0 L225.0,165.0 L225.0,180.0 L240.0,180.0 L255.0,180.0 L255.0,195.0 L255.0,210.0 L240.0,210.0 L240.0,195.0 L225.0,195.0 L225.0,210.0 L225.0,225.0 L240.0,225.0 L255.0,225.0 L255.0,240.0 L255.0,255.0 L240.0,255.0 L240.0,240.0 L225.0,240.0 L225.0,255.0 L210.0,255.0 L195.0,255.0 L180.0,255.0 L180.0,240.0 L180.0,225.0 L195.0,225.0 L195.0,240.0 L210.0,240.0 L210.0,225.0 L210.0,210.0 L195.0,210.0 L195.0,195.0 L210.0,195.0 L210.0,180.0 L195.0,180.0 L180.0,180.0 L180.0,195.0 L180.0,210.0 L165.0,210.0 L150.0,210.0 L150.0,195.0 L165.0,195.0 L165.0,180.0 L150.0,180.0 L135.0,180.0 L135.0,195.0 L135.0,210.0 L135.0,225.0 L150.0,225.0 L165.0,225.0 L165.0,240.0 L165.0,255.0 L150.0,255.0 L150.0,240.0 L135.0,240.0 L135.0,255.0 L120.0,255.0 L105.0,255.0 L105.0,240.0 L120.0,240.0 L120.0,225.0 L105.0,225.0 L90.0,225.0 L90.0,240.0 L90.0,255.0 L75.0,255.0 L60.0,255.0 L45.0,255.0 L45.0,240.0 L45.0,225.0 L60.0,225.0 L60.0,240.0 L75.0,240.0 L75.0,225.0 L75.0,210.0 L60.0,210.0 L45.0,210.0 L45.0,195.0 L45.0,180.0 L60.0,180.0 L60.0,195.0 L75.0,195.0 L75.0,180.0 L90.0,180.0 L105.0,180.0 L105.0,195.0 L90.0,195.0 L90.0,210.0 L105.0,210.0 L120.0,210.0 L120.0,195.0 L120.0,180.0 L120.0,165.0 L105.0,165.0 L105.0,150.0 L120.0,150.0 L120.0,135.0 L105.0,135.0 L90.0,135.0 L90.0,150.0 L90.0,165.0 L75.0,165.0 L60.0,165.0 L60.0,150.0 L75.0,150.0 L75.0,135.0 L60.0,135.0 L45.0,135.0 L45.0,150.0 L45.0,165.0 L30.0,165.0 L15.0,165.0 L15.0,150.0 L30.0,150.0 L30.0,135.0 L15.0,135.0 L0.0,135.0 L0.0,150.0 L0.0,165.0 L0.0,180.0 L15.0,180.0 L30.0,180.0 L30.0,195.0 L30.0,210.0 L15.0,210.0 L15.0,195.0 L0.0,195.0 L0.0,210.0 L0.0,225.0 L15.0,225.0 L30.0,225.0 L30.0,240.0 L30.0,255.0 L15.0,255.0 L15.0,240.0 L0.0,240.0 L0.0,255.0 L0.0,270.0 L15.0,270.0 L15.0,285.0 L0.0,285.0 L0.0,300.0 L15.0,300.0 L30.0,300.0 L30.0,285.0 L30.0,270.0 L45.0,270.0 L60.0,270.0 L75.0,270.0 L75.0,285.0 L75.0,300.0 L60.0,300.0 L60.0,285.0 L45.0,285.0 L45.0,300.0 L45.0,315.0 L60.0,315.0 L75.0,315.0 L75.0,330.0 L75.0,345.0 L60.0,345.0 L60.0,330.0 L45.0,330.0 L45.0,345.0 L30.0,345.0 L15.0,345.0 L15.0,330.0 L30.0,330.0 L30.0,315.0 L15.0,315.0 L0.0,315.0 L0.0,330.0 L0.0,345.0 L0.0,360.0 L15.0,360.0 L15.0,375.0 L0.0,375.0 L0.0,390.0 L15.0,390.0 L30.0,390.0 L30.0,375.0 L30.0,360.0 L45.0,360.0 L60.0,360.0 L60.0,375.0 L45.0,375.0 L45.0,390.0 L60.0,390.0 L75.0,390.0 L75.0,375.0 L75.0,360.0 L90.0,360.0 L105.0,360.0 L105.0,375.0 L90.0,375.0 L90.0,390.0 L105.0,390.0 L120.0,390.0 L120.0,375.0 L120.0,360.0 L120.0,345.0 L105.0,345.0 L90.0,345.0 L90.0,330.0 L90.0,315.0 L105.0,315.0 L105.0,330.0 L120.0,330.0 L120.0,315.0 L120.0,300.0 L105.0,300.0 L90.0,300.0 L90.0,285.0 L90.0,270.0 L105.0,270.0 L105.0,285.0 L120.0,285.0 L120.0,270.0 L135.0,270.0 L150.0,270.0 L150.0,285.0 L135.0,285.0 L135.0,300.0 L150.0,300.0 L165.0,300.0 L165.0,285.0 L165.0,270.0 L180.0,270.0 L195.0,270.0 L210.0,270.0 L210.0,285.0 L210.0,300.0 L195.0,300.0 L195.0,285.0 L180.0,285.0 L180.0,300.0 L180.0,315.0 L195.0,315.0 L210.0,315.0 L210.0,330.0 L210.0,345.0 L195.0,345.0 L195.0,330.0 L180.0,330.0 L180.0,345.0 L165.0,345.0 L150.0,345.0 L150.0,330.0 L165.0,330.0 L165.0,315.0 L150.0,315.0 L135.0,315.0 L135.0,330.0 L135.0,345.0 L135.0,360.0 L150.0,360.0 L150.0,375.0 L135.0,375.0 L135.0,390.0 L150.0,390.0 L165.0,390.0 L165.0,375.0 L165.0,360.0 L180.0,360.0 L195.0,360.0 L195.0,375.0 L180.0,375.0 L180.0,390.0 L195.0,390.0 L210.0,390.0 L210.0,375.0 L210.0,360.0 L225.0,360.0 L240.0,360.0 L240.0,375.0 L225.0,375.0 L225.0,390.0 L240.0,390.0 L255.0,390.0 L255.0,375.0 L255.0,360.0 L255.0,345.0 L240.0,345.0 L225.0,345.0 L225.0,330.0 L225.0,315.0 L240.0,315.0 L240.0,330.0 L255.0,330.0 L255.0,315.0 L255.0,300.0 L240.0,300.0 L225.0,300.0 L225.0,285.0 L225.0,270.0 L240.0,270.0 L240.0,285.0 L255.0,285.0 L255.0,270.0 L270.0,270.0 L285.0,270.0 L285.0,285.0 L270.0,285.0 L270.0,300.0 L285.0,300.0 L300.0,300.0 L300.0,285.0 L300.0,270.0 L315.0,270.0 L330.0,270.0 L345.0,270.0 L345.0,285.0 L345.0,300.0 L330.0,300.0 L330.0,285.0 L315.0,285.0 L315.0,300.0 L315.0,315.0 L330.0,315.0 L345.0,315.0 L345.0,330.0 L345.0,345.0 L330.0,345.0 L330.0,330.0 L315.0,330.0 L315.0,345.0 L300.0,345.0 L285.0,345.0 L285.0,330.0 L300.0,330.0 L300.0,315.0 L285.0,315.0 L270.0,315.0 L270.0,330.0 L270.0,345.0 L270.0,360.0 L285.0,360.0 L285.0,375.0 L270.0,375.0 L270.0,390.0 L285.0,390.0 L300.0,390.0 L300.0,375.0 L300.0,360.0 L315.0,360.0 L330.0,360.0 L330.0,375.0 L315.0,375.0 L315.0,390.0 L330.0,390.0 L345.0,390.0 L345.0,375.0 L345.0,360.0 L360.0,360.0 L375.0,360.0 L375.0,375.0 L360.0,375.0 L360.0,390.0 L375.0,390.0 L390.0,390.0 L390.0,375.0 L390.0,360.0 L390.0,345.0 L375.0,345.0 L360.0,345.0 L360.0,330.0 L360.0,315.0 L375.0,315.0 L375.0,330.0 L390.0,330.0 L390.0,315.0 L390.0,300.0 L375.0,300.0 L360.0,300.0 L360.0,285.0 L360.0,270.0 L375.0,270.0 L375.0,285.0 L390.0,285.0 L390.0,270.0 L390.0,255.0 L375.0,255.0 L375.0,240.0 L390.0,240.0 L390.0,225.0 L375.0,225.0 L360.0,225.0 L360.0,240.0 L360.0,255.0 L345.0,255.0 L330.0,255.0 L330.0,240.0 L345.0,240.0 L345.0,225.0 L330.0,225.0 L315.0,225.0 L315.0,240.0 L315.0,255.0 L300.0,255.0 L285.0,255.0 L270.0,255.0 L270.0,240.0 L270.0,225.0 L285.0,225.0 L285.0,240.0 L300.0,240.0 L300.0,225.0 L300.0,210.0 L285.0,210.0 L270.0,210.0 L270.0,195.0 L270.0,180.0 L285.0,180.0 L285.0,195.0 L300.0,195.0 L300.0,180.0 L300.0,165.0 L285.0,165.0 L270.0,165.0 L270.0,150.0 L270.0,135.0 L285.0,135.0 L285.0,150.0 L300.0,150.0 L300.0,135.0 L315.0,135.0 L330.0,135.0 L345.0,135.0 L345.0,150.0 L345.0,165.0 L330.0,165.0 L330.0,150.0 L315.0,150.0 L315.0,165.0 L315.0,180.0 L330.0,180.0 L330.0,195.0 L315.0,195.0 L315.0,210.0 L330.0,210.0 L345.0,210.0 L345.0,195.0 L345.0,180.0 L360.0,180.0 L375.0,180.0 L375.0,195.0 L360.0,195.0 L360.0,210.0 L375.0,210.0 L390.0,210.0 L390.0,195.0 L390.0,180.0 L390.0,165.0 L375.0,165.0 L360.0,165.0 L360.0,150.0 L360.0,135.0 L375.0,135.0 L375.0,150.0 L390.0,150.0 L390.0,135.0 L390.0,120.0 L375.0,120.0 L375.0,105.0 L390.0,105.0 L390.0,90.0 L375.0,90.0 L360.0,90.0 L360.0,105.0 L360.0,120.0 L345.0,120.0 L330.0,120.0 L330.0,105.0 L345.0,105.0 L345.0,90.0 L330.0,90.0 L315.0,90.0 L315.0,105.0 L315.0,120.0 L300.0,120.0 L285.0,120.0 L270.0,120.0 L270.0,105.0 L270.0,90.0 L285.0,90.0 L285.0,105.0 L300.0,105.0 L300.0,90.0 L300.0,75.0 L285.0,75.0 L270.0,75.0 L270.0,60.0 L270.0,45.0 L285.0,45.0 L285.0,60.0 L300.0,60.0 L300.0,45.0 L300.0,30.0 L285.0,30.0 L270.0,30.0 L270.0,15.0 L270.0,0.0 L285.0,0.0 L285.0,15.0 L300.0,15.0 L300.0,0.0 L315.0,0.0 L330.0,0.0 L345.0,0.0 L345.0,15.0 L345.0,30.0 L330.0,30.0 L330.0,15.0 L315.0,15.0 L315.0,30.0 L315.0,45.0 L330.0,45.0 L330.0,60.0 L315.0,60.0 L315.0,75.0 L330.0,75.0 L345.0,75.0 L345.0,60.0 L345.0,45.0 L360.0,45.0 L375.0,45.0 L375.0,60.0 L360.0,60.0 L360.0,75.0 L375.0,75.0 L390.0,75.0 L390.0,60.0 L390.0,45.0 L390.0,30.0 L375.0,30.0 L360.0,30.0 L360.0,15.0 L360.0,0.0 L375.0,0.0 L375.0,15.0 L390.0,15.0 L390.0,0.0 L405.0,0.0 L420.0,0.0 L420.0,15.0 L405.0,15.0 L405.0,30.0 L420.0,30.0 L435.0,30.0 L435.0,15.0 L435.0,0.0 L450.0,0.0 L465.0,0.0 L480.0,0.0 L480.0,15.0 L480.0,30.0 L465.0,30.0 L465.0,15.0 L450.0,15.0 L450.0,30.0 L450.0,45.0 L465.0,45.0 L480.0,45.0 L480.0,60.0 L480.0,75.0 L465.0,75.0 L465.0,60.0 L450.0,60.0 L450.0,75.0 L435.0,75.0 L420.0,75.0 L420.0,60.0 L435.0,60.0 L435.0,45.0 L420.0,45.0 L405.0,45.0 L405.0,60.0 L405.0,75.0 L405.0,90.0 L420.0,90.0 L420.0,105.0 L405.0,105.0 L405.0,120.0 L420.0,120.0 L435.0,120.0 L435.0,105.0 L435.0,90.0 L450.0,90.0 L465.0,90.0 L465.0,105.0 L450.0,105.0 L450.0,120.0 L465.0,120.0 L480.0,120.0 L480.0,105.0 L480.0,90.0 L495.0,90.0 L510.0,90.0 L510.0,105.0 L495.0,105.0 L495.0,120.0 L510.0,120.0 L525.0,120.0 L525.0,105.0 L525.0,90.0 L525.0,75.0 L510.0,75.0 L495.0,75.0 L495.0,60.0 L495.0,45.0 L510.0,45.0 L510.0,60.0 L525.0,60.0 L525.0,45.0 L525.0,30.0 L510.0,30.0 L495.0,30.0 L495.0,15.0 L495.0,0.0 L510.0,0.0 L510.0,15.0 L525.0,15.0 L525.0,0.0 L540.0,0.0 L555.0,0.0 L555.0,15.0 L540.0,15.0 L540.0,30.0 L555.0,30.0 L570.0,30.0 L570.0,15.0 L570.0,0.0 L585.0,0.0 L600.0,0.0 L615.0,0.0 L615.0,15.0 L615.0,30.0 L600.0,30.0 L600.0,15.0 L585.0,15.0 L585.0,30.0 L585.0,45.0 L600.0,45.0 L615.0,45.0 L615.0,60.0 L615.0,75.0 L600.0,75.0 L600.0,60.0 L585.0,60.0 L585.0,75.0 L570.0,75.0 L555.0,75.0 L555.0,60.0 L570.0,60.0 L570.0,45.0 L555.0,45.0 L540.0,45.0 L540.0,60.0 L540.0,75.0 L540.0,90.0 L555.0,90.0 L555.0,105.0 L540.0,105.0 L540.0,120.0 L555.0,120.0 L570.0,120.0 L570.0,105.0 L570.0,90.0 L585.0,90.0 L600.0,90.0 L600.0,105.0 L585.0,105.0 L585.0,120.0 L600.0,120.0 L615.0,120.0 L615.0,105.0 L615.0,90.0 L630.0,90.0 L645.0,90.0 L645.0,105.0 L630.0,105.0 L630.0,120.0 L645.0,120.0 L660.0,120.0 L660.0,105.0 L660.0,90.0 L660.0,75.0 L645.0,75.0 L630.0,75.0 L630.0,60.0 L630.0,45.0 L645.0,45.0 L645.0,60.0 L660.0,60.0 L660.0,45.0 L660.0,30.0 L645.0,30.0 L630.0,30.0 L630.0,15.0 L630.0,0.0 L645.0,0.0 L645.0,15.0 L660.0,15.0 L660.0,0.0 L675.0,0.0 L690.0,0.0 L690.0,15.0 L675.0,15.0 L675.0,30.0 L690.0,30.0 L705.0,30.0 L705.0,15.0 L705.0,0.0 L720.0,0.0 L735.0,0.0 L735.0,15.0 L720.0,15.0 L720.0,30.0 L735.0,30.0 L750.0,30.0 L750.0,15.0 L750.0,0.0 L765.0,0.0 L780.0,0.0 L795.0,0.0 L795.0,15.0 L795.0,30.0 L780.0,30.0 L780.0,15.0 L765.0,15.0 L765.0,30.0 L765.0,45.0 L780.0,45.0 L795.0,45.0 L795.0,60.0 L795.0,75.0 L780.0,75.0 L780.0,60.0 L765.0,60.0 L765.0,75.0 L765.0,90.0 L780.0,90.0 L795.0,90.0 L795.0,105.0 L795.0,120.0 L780.0,120.0 L780.0,105.0 L765.0,105.0 L765.0,120.0 L750.0,120.0 L735.0,120.0 L720.0,120.0 L720.0,105.0 L720.0,90.0 L735.0,90.0 L735.0,105.0 L750.0,105.0 L750.0,90.0 L750.0,75.0 L735.0,75.0 L735.0,60.0 L750.0,60.0 L750.0,45.0 L735.0,45.0 L720.0,45.0 L720.0,60.0 L720.0,75.0 L705.0,75.0 L690.0,75.0 L690.0,60.0 L705.0,60.0 L705.0,45.0 L690.0,45.0 L675.0,45.0 L675.0,60.0 L675.0,75.0 L675.0,90.0 L690.0,90.0 L705.0,90.0 L705.0,105.0 L705.0,120.0 L690.0,120.0 L690.0,105.0 L675.0,105.0 L675.0,120.0 L675.0,135.0 L690.0,135.0 L690.0,150.0 L675.0,150.0 L675.0,165.0 L690.0,165.0 L705.0,165.0 L705.0,150.0 L705.0,135.0 L720.0,135.0 L735.0,135.0 L735.0,150.0 L720.0,150.0 L720.0,165.0 L735.0,165.0 L750.0,165.0 L750.0,150.0 L750.0,135.0 L765.0,135.0 L780.0,135.0 L795.0,135.0 L795.0,150.0 L795.0,165.0 L780.0,165.0 L780.0,150.0 L765.0,150.0 L765.0,165.0 L765.0,180.0 L780.0,180.0 L795.0,180.0 L795.0,195.0 L795.0,210.0 L780.0,210.0 L780.0,195.0 L765.0,195.0 L765.0,210.0 L765.0,225.0 L780.0,225.0 L795.0,225.0 L795.0,240.0 L795.0,255.0 L780.0,255.0 L780.0,240.0 L765.0,240.0 L765.0,255.0 L750.0,255.0 L735.0,255.0 L720.0,255.0 L720.0,240.0 L720.0,225.0 L735.0,225.0 L735.0,240.0 L750.0,240.0 L750.0,225.0 L750.0,210.0 L735.0,210.0 L735.0,195.0 L750.0,195.0 L750.0,180.0 L735.0,180.0 L720.0,180.0 L720.0,195.0 L720.0,210.0 L705.0,210.0 L690.0,210.0 L690.0,195.0 L705.0,195.0 L705.0,180.0 L690.0,180.0 L675.0,180.0 L675.0,195.0 L675.0,210.0 L675.0,225.0 L690.0,225.0 L705.0,225.0 L705.0,240.0 L705.0,255.0 L690.0,255.0 L690.0,240.0 L675.0,240.0 L675.0,255.0 L675.0,270.0 L690.0,270.0 L690.0,285.0 L675.0,285.0 L675.0,300.0 L690.0,300.0 L705.0,300.0 L705.0,285.0 L705.0,270.0 L720.0,270.0 L735.0,270.0 L735.0,285.0 L720.0,285.0 L720.0,300.0 L735.0,300.0 L750.0,300.0 L750.0,285.0 L750.0,270.0 L765.0,270.0 L780.0,270.0 L795.0,270.0 L795.0,285.0 L795.0,300.0 L780.0,300.0 L780.0,285.0 L765.0,285.0 L765.0,300.0 L765.0,315.0 L780.0,315.0 L795.0,315.0 L795.0,330.0 L795.0,345.0 L780.0,345.0 L780.0,330.0 L765.0,330.0 L765.0,345.0 L765.0,360.0 L780.0,360.0 L795.0,360.0 L795.0,375.0 L795.0,390.0 L780.0,390.0 L780.0,375.0 L765.0,375.0 L765.0,390.0 L750.0,390.0 L735.0,390.0 L720.0,390.0 L720.0,375.0 L720.0,360.0 L735.0,360.0 L735.0,375.0 L750.0,375.0 L750.0,360.0 L750.0,345.0 L735.0,345.0 L735.0,330.0 L750.0,330.0 L750.0,315.0 L735.0,315.0 L720.0,315.0 L720.0,330.0 L720.0,345.0 L705.0,345.0 L690.0,345.0 L690.0,330.0 L705.0,330.0 L705.0,315.0 L690.0,315.0 L675.0,315.0 L675.0,330.0 L675.0,345.0 L675.0,360.0 L690.0,360.0 L705.0,360.0 L705.0,375.0 L705.0,390.0 L690.0,390.0 L690.0,375.0 L675.0,375.0 L675.0,390.0 L660.0,390.0 L645.0,390.0 L645.0,375.0 L660.0,375.0 L660.0,360.0 L645.0,360.0 L630.0,360.0 L630.0,375.0 L630.0,390.0 L615.0,390.0 L600.0,390.0 L600.0,375.0 L615.0,375.0 L615.0,360.0 L600.0,360.0 L585.0,360.0 L585.0,375.0 L585.0,390.0 L570.0,390.0 L555.0,390.0 L540.0,390.0 L540.0,375.0 L540.0,360.0 L555.0,360.0 L555.0,375.0 L570.0,375.0 L570.0,360.0 L570.0,345.0 L555.0,345.0 L540.0,345.0 L540.0,330.0 L540.0,315.0 L555.0,315.0 L555.0,330.0 L570.0,330.0 L570.0,315.0 L570.0,300.0 L555.0,300.0 L540.0,300.0 L540.0,285.0 L540.0,270.0 L555.0,270.0 L555.0,285.0 L570.0,285.0 L570.0,270.0 L585.0,270.0 L600.0,270.0 L615.0,270.0 L615.0,285.0 L615.0,300.0 L600.0,300.0 L600.0,285.0 L585.0,285.0 L585.0,300.0 L585.0,315.0 L600.0,315.0 L600.0,330.0 L585.0,330.0 L585.0,345.0 L600.0,345.0 L615.0,345.0 L615.0,330.0 L615.0,315.0 L630.0,315.0 L645.0,315.0 L645.0,330.0 L630.0,330.0 L630.0,345.0 L645.0,345.0 L660.0,345.0 L660.0,330.0 L660.0,315.0 L660.0,300.0 L645.0,300.0 L630.0,300.0 L630.0,285.0 L630.0,270.0 L645.0,270.0 L645.0,285.0 L660.0,285.0 L660.0,270.0 L660.0,255.0 L645.0,255.0 L645.0,240.0 L660.0,240.0 L660.0,225.0 L645.0,225.0 L630.0,225.0 L630.0,240.0 L630.0,255.0 L615.0,255.0 L600.0,255.0 L585.0,255.0 L585.0,240.0 L585.0,225.0 L600.0,225.0 L600.0,240.0 L615.0,240.0 L615.0,225.0 L615.0,210.0 L600.0,210.0 L585.0,210.0 L585.0,195.0 L585.0,180.0 L600.0,180.0 L600.0,195.0 L615.0,195.0 L615.0,180.0 L630.0,180.0 L645.0,180.0 L645.0,195.0 L630.0,195.0 L630.0,210.0 L645.0,210.0 L660.0,210.0 L660.0,195.0 L660.0,180.0 L660.0,165.0 L645.0,165.0 L645.0,150.0 L660.0,150.0 L660.0,135.0 L645.0,135.0 L630.0,135.0 L630.0,150.0 L630.0,165.0 L615.0,165.0 L600.0,165.0 L600.0,150.0 L615.0,150.0 L615.0,135.0 L600.0,135.0 L585.0,135.0 L585.0,150.0 L585.0,165.0 L570.0,165.0 L555.0,165.0 L555.0,150.0 L570.0,150.0 L570.0,135.0 L555.0,135.0 L540.0,135.0 L540.0,150.0 L540.0,165.0 L540.0,180.0 L555.0,180.0 L570.0,180.0 L570.0,195.0 L570.0,210.0 L555.0,210.0 L555.0,195.0 L540.0,195.0 L540.0,210.0 L540.0,225.0 L555.0,225.0 L570.0,225.0 L570.0,240.0 L570.0,255.0 L555.0,255.0 L555.0,240.0 L540.0,240.0 L540.0,255.0 L525.0,255.0 L510.0,255.0 L510.0,240.0 L525.0,240.0 L525.0,225.0 L510.0,225.0 L495.0,225.0 L495.0,240.0 L495.0,255.0 L480.0,255.0 L465.0,255.0 L450.0,255.0 L450.0,240.0 L450.0,225.0 L465.0,225.0 L465.0,240.0 L480.0,240.0 L480.0,225.0 L480.0,210.0 L465.0,210.0 L450.0,210.0 L450.0,195.0 L450.0,180.0 L465.0,180.0 L465.0,195.0 L480.0,195.0 L480.0,180.0 L495.0,180.0 L510.0,180.0 L510.0,195.0 L495.0,195.0 L495.0,210.0 L510.0,210.0 L525.0,210.0 L525.0,195.0 L525.0,180.0 L525.0,165.0 L510.0,165.0 L510.0,150.0 L525.0,150.0 L525.0,135.0 L510.0,135.0 L495.0,135.0 L495.0,150.0 L495.0,165.0 L480.0,165.0 L465.0,165.0 L465.0,150.0 L480.0,150.0 L480.0,135.0 L465.0,135.0 L450.0,135.0 L450.0,150.0 L450.0,165.0 L435.0,165.0 L420.0,165.0 L420.0,150.0 L435.0,150.0 L435.0,135.0 L420.0,135.0 L405.0,135.0 L405.0,150.0 L405.0,165.0 L405.0,180.0 L420.0,180.0 L435.0,180.0 L435.0,195.0 L435.0,210.0 L420.0,210.0 L420.0,195.0 L405.0,195.0 L405.0,210.0 L405.0,225.0 L420.0,225.0 L435.0,225.0 L435.0,240.0 L435.0,255.0 L420.0,255.0 L420.0,240.0 L405.0,240.0 L405.0,255.0 L405.0,270.0 L420.0,270.0 L420.0,285.0 L405.0,285.0 L405.0,300.0 L420.0,300.0 L435.0,300.0 L435.0,285.0 L435.0,270.0 L450.0,270.0 L465.0,270.0 L465.0,285.0 L450.0,285.0 L450.0,300.0 L465.0,300.0 L480.0,300.0 L480.0,285.0 L480.0,270.0 L495.0,270.0 L510.0,270.0 L525.0,270.0 L525.0,285.0 L525.0,300.0 L510.0,300.0 L510.0,285.0 L495.0,285.0 L495.0,300.0 L495.0,315.0 L510.0,315.0 L525.0,315.0 L525.0,330.0 L525.0,345.0 L510.0,345.0 L510.0,330.0 L495.0,330.0 L495.0,345.0 L495.0,360.0 L510.0,360.0 L525.0,360.0 L525.0,375.0 L525.0,390.0 L510.0,390.0 L510.0,375.0 L495.0,375.0 L495.0,390.0 L480.0,390.0 L465.0,390.0 L450.0,390.0 L450.0,375.0 L450.0,360.0 L465.0,360.0 L465.0,375.0 L480.0,375.0 L480.0,360.0 L480.0,345.0 L465.0,345.0 L465.0,330.0 L480.0,330.0 L480.0,315.0 L465.0,315.0 L450.0,315.0 L450.0,330.0 L450.0,345.0 L435.0,345.0 L420.0,345.0 L420.0,330.0 L435.0,330.0 L435.0,315.0 L420.0,315.0 L405.0,315.0 L405.0,330.0 L405.0,345.0 L405.0,360.0 L420.0,360.0 L435.0,360.0 L435.0,375.0 L435.0,390.0 L420.0,390.0 L420.0,375.0 L405.0,375.0 L405.0,390.0 L405.0,405.0 L420.0,405.0 L420.0,420.0 L405.0,420.0 L405.0,435.0 L420.0,435.0 L435.0,435.0 L435.0,420.0 L435.0,405.0 L450.0,405.0 L465.0,405.0 L480.0,405.0 L480.0,420.0 L480.0,435.0 L465.0,435.0 L465.0,420.0 L450.0,420.0 L450.0,435.0 L450.0,450.0 L465.0,450.0 L480.0,450.0 L480.0,465.0 L480.0,480.0 L465.0,480.0 L465.0,465.0 L450.0,465.0 L450.0,480.0 L435.0,480.0 L420.0,480.0 L420.0,465.0 L435.0,465.0 L435.0,450.0 L420.0,450.0 L405.0,450.0 L405.0,465.0 L405.0,480.0 L405.0,495.0 L420.0,495.0 L420.0,510.0 L405.0,510.0 L405.0,525.0 L420.0,525.0 L435.0,525.0 L435.0,510.0 L435.0,495.0 L450.0,495.0 L465.0,495.0 L465.0,510.0 L450.0,510.0 L450.0,525.0 L465.0,525.0 L480.0,525.0 L480.0,510.0 L480.0,495.0 L495.0,495.0 L510.0,495.0 L510.0,510.0 L495.0,510.0 L495.0,525.0 L510.0,525.0 L525.0,525.0 L525.0,510.0 L525.0,495.0 L525.0,480.0 L510.0,480.0 L495.0,480.0 L495.0,465.0 L495.0,450.0 L510.0,450.0 L510.0,465.0 L525.0,465.0 L525.0,450.0 L525.0,435.0 L510.0,435.0 L495.0,435.0 L495.0,420.0 L495.0,405.0 L510.0,405.0 L510.0,420.0 L525.0,420.0 L525.0,405.0 L540.0,405.0 L555.0,405.0 L555.0,420.0 L540.0,420.0 L540.0,435.0 L555.0,435.0 L570.0,435.0 L570.0,420.0 L570.0,405.0 L585.0,405.0 L600.0,405.0 L615.0,405.0 L615.0,420.0 L615.0,435.0 L600.0,435.0 L600.0,420.0 L585.0,420.0 L585.0,435.0 L585.0,450.0 L600.0,450.0 L615.0,450.0 L615.0,465.0 L615.0,480.0 L600.0,480.0 L600.0,465.0 L585.0,465.0 L585.0,480.0 L570.0,480.0 L555.0,480.0 L555.0,465.0 L570.0,465.0 L570.0,450.0 L555.0,450.0 L540.0,450.0 L540.0,465.0 L540.0,480.0 L540.0,495.0 L555.0,495.0 L555.0,510.0 L540.0,510.0 L540.0,525.0 L555.0,525.0 L570.0,525.0 L570.0,510.0 L570.0,495.0 L585.0,495.0 L600.0,495.0 L600.0,510.0 L585.0,510.0 L585.0,525.0 L600.0,525.0 L615.0,525.0 L615.0,510.0 L615.0,495.0 L630.0,495.0 L645.0,495.0 L645.0,510.0 L630.0,510.0 L630.0,525.0 L645.0,525.0 L660.0,525.0 L660.0,510.0 L660.0,495.0 L660.0,480.0 L645.0,480.0 L630.0,480.0 L630.0,465.0 L630.0,450.0 L645.0,450.0 L645.0,465.0 L660.0,465.0 L660.0,450.0 L660.0,435.0 L645.0,435.0 L630.0,435.0 L630.0,420.0 L630.0,405.0 L645.0,405.0 L645.0,420.0 L660.0,420.0 L660.0,405.0 L675.0,405.0 L690.0,405.0 L690.0,420.0 L675.0,420.0 L675.0,435.0 L690.0,435.0 L705.0,435.0 L705.0,420.0 L705.0,405.0 L720.0,405.0 L735.0,405.0 L735.0,420.0 L720.0,420.0 L720.0,435.0 L735.0,435.0 L750.0,435.0 L750.0,420.0 L750.0,405.0 L765.0,405.0 L780.0,405.0 L795.0,405.0 L795.0,420.0 L795.0,435.0 L780.0,435.0 L780.0,420.0 L765.0,420.0 L765.0,435.0 L765.0,450.0 L780.0,450.0 L795.0,450.0 L795.0,465.0 L795.0,480.0 L780.0,480.0 L780.0,465.0 L765.0,465.0 L765.0,480.0 L765.0,495.0 L780.0,495.0 L795.0,495.0 L795.0,510.0 L795.0,525.0 L780.0,525.0 L780.0,510.0 L765.0,510.0 L765.0,525.0 L750.0,525.0 L735.0,525.0 L720.0,525.0 L720.0,510.0 L720.0,495.0 L735.0,495.0 L735.0,510.0 L750.0,510.0 L750.0,495.0 L750.0,480.0 L735.0,480.0 L735.0,465.0 L750.0,465.0 L750.0,450.0 L735.0,450.0 L720.0,450.0 L720.0,465.0 L720.0,480.0 L705.0,480.0 L690.0,480.0 L690.0,465.0 L705.0,465.0 L705.0,450.0 L690.0,450.0 L675.0,450.0 L675.0,465.0 L675.0,480.0 L675.0,495.0 L690.0,495.0 L705.0,495.0 L705.0,510.0 L705.0,525.0 L690.0,525.0 L690.0,510.0 L675.0,510.0 L675.0,525.0 L675.0,540.0 L690.0,540.0 L690.0,555.0 L675.0,555.0 L675.0,570.0 L690.0,570.0 L705.0,570.0 L705.0,555.0 L705.0,540.0 L720.0,540.0 L735.0,540.0 L735.0,555.0 L720.0,555.0 L720.0,570.0 L735.0,570.0 L750.0,570.0 L750.0,555.0 L750.0,540.0 L765.0,540.0 L780.0,540.0 L795.0,540.0 L795.0,555.0 L795.0,570.0 L780.0,570.0 L780.0,555.0 L765.0,555.0 L765.0,570.0 L765.0,585.0 L780.0,585.0 L795.0,585.0 L795.0,600.0 L795.0,615.0 L780.0,615.0 L780.0,600.0 L765.0,600.0 L765.0,615.0 L765.0,630.0 L780.0,630.0 L795.0,630.0 L795.0,645.0 L795.0,660.0 L780.0,660.0 L780.0,645.0 L765.0,645.0 L765.0,660.0 L750.0,660.0 L735.0,660.0 L720.0,660.0 L720.0,645.0 L720.0,630.0 L735.0,630.0 L735.0,645.0 L750.0,645.0 L750.0,630.0 L750.0,615.0 L735.0,615.0 L735.0,600.0 L750.0,600.0 L750.0,585.0 L735.0,585.0 L720.0,585.0 L720.0,600.0 L720.0,615.0 L705.0,615.0 L690.0,615.0 L690.0,600.0 L705.0,600.0 L705.0,585.0 L690.0,585.0 L675.0,585.0 L675.0,600.0 L675.0,615.0 L675.0,630.0 L690.0,630.0 L705.0,630.0 L705.0,645.0 L705.0,660.0 L690.0,660.0 L690.0,645.0 L675.0,645.0 L675.0,660.0 L675.0,675.0 L690.0,675.0 L690.0,690.0 L675.0,690.0 L675.0,705.0 L690.0,705.0 L705.0,705.0 L705.0,690.0 L705.0,675.0 L720.0,675.0 L735.0,675.0 L735.0,690.0 L720.0,690.0 L720.0,705.0 L735.0,705.0 L750.0,705.0 L750.0,690.0 L750.0,675.0 L765.0,675.0 L780.0,675.0 L795.0,675.0 L795.0,690.0 L795.0,705.0 L780.0,705.0 L780.0,690.0 L765.0,690.0 L765.0,705.0 L765.0,720.0 L780.0,720.0 L795.0,720.0 L795.0,735.0 L795.0,750.0 L780.0,750.0 L780.0,735.0 L765.0,735.0 L765.0,750.0 L765.0,765.0 L780.0,765.0 L795.0,765.0 L795.0,780.0 L795.0,795.0 L780.0,795.0 L780.0,780.0 L765.0,780.0 L765.0,795.0 L750.0,795.0 L735.0,795.0 L720.0,795.0 L720.0,780.0 L720.0,765.0 L735.0,765.0 L735.0,780.0 L750.0,780.0 L750.0,765.0 L750.0,750.0 L735.0,750.0 L735.0,735.0 L750.0,735.0 L750.0,720.0 L735.0,720.0 L720.0,720.0 L720.0,735.0 L720.0,750.0 L705.0,750.0 L690.0,750.0 L690.0,735.0 L705.0,735.0 L705.0,720.0 L690.0,720.0 L675.0,720.0 L675.0,735.0 L675.0,750.0 L675.0,765.0 L690.0,765.0 L705.0,765.0 L705.0,780.0 L705.0,795.0 L690.0,795.0 L690.0,780.0 L675.0,780.0 L675.0,795.0 L660.0,795.0 L645.0,795.0 L645.0,780.0 L660.0,780.0 L660.0,765.0 L645.0,765.0 L630.0,765.0 L630.0,780.0 L630.0,795.0 L615.0,795.0 L600.0,795.0 L600.0,780.0 L615.0,780.0 L615.0,765.0 L600.0,765.0 L585.0,765.0 L585.0,780.0 L585.0,795.0 L570.0,795.0 L555.0,795.0 L540.0,795.0 L540.0,780.0 L540.0,765.0 L555.0,765.0 L555.0,780.0 L570.0,780.0 L570.0,765.0 L570.0,750.0 L555.0,750.0 L540.0,750.0 L540.0,735.0 L540.0,720.0 L555.0,720.0 L555.0,735.0 L570.0,735.0 L570.0,720.0 L570.0,705.0 L555.0,705.0 L540.0,705.0 L540.0,690.0 L540.0,675.0 L555.0,675.0 L555.0,690.0 L570.0,690.0 L570.0,675.0 L585.0,675.0 L600.0,675.0 L615.0,675.0 L615.0,690.0 L615.0,705.0 L600.0,705.0 L600.0,690.0 L585.0,690.0 L585.0,705.0 L585.0,720.0 L600.0,720.0 L600.0,735.0 L585.0,735.0 L585.0,750.0 L600.0,750.0 L615.0,750.0 L615.0,735.0 L615.0,720.0 L630.0,720.0 L645.0,720.0 L645.0,735.0 L630.0,735.0 L630.0,750.0 L645.0,750.0 L660.0,750.0 L660.0,735.0 L660.0,720.0 L660.0,705.0 L645.0,705.0 L630.0,705.0 L630.0,690.0 L630.0,675.0 L645.0,675.0 L645.0,690.0 L660.0,690.0 L660.0,675.0 L660.0,660.0 L645.0,660.0 L645.0,645.0 L660.0,645.0 L660.0,630.0 L645.0,630.0 L630.0,630.0 L630.0,645.0 L630.0,660.0 L615.0,660.0 L600.0,660.0 L585.0,660.0 L585.0,645.0 L585.0,630.0 L600.0,630.0 L600.0,645.0 L615.0,645.0 L615.0,630.0 L615.0,615.0 L600.0,615.0 L585.0,615.0 L585.0,600.0 L585.0,585.0 L600.0,585.0 L600.0,600.0 L615.0,600.0 L615.0,585.0 L630.0,585.0 L645.0,585.0 L645.0,600.0 L630.0,600.0 L630.0,615.0 L645.0,615.0 L660.0,615.0 L660.0,600.0 L660.0,585.0 L660.0,570.0 L645.0,570.0 L645.0,555.0 L660.0,555.0 L660.0,540.0 L645.0,540.0 L630.0,540.0 L630.0,555.0 L630.0,570.0 L615.0,570.0 L600.0,570.0 L600.0,555.0 L615.0,555.0 L615.0,540.0 L600.0,540.0 L585.0,540.0 L585.0,555.0 L585.0,570.0 L570.0,570.0 L555.0,570.0 L555.0,555.0 L570.0,555.0 L570.0,540.0 L555.0,540.0 L540.0,540.0 L540.0,555.0 L540.0,570.0 L540.0,585.0 L555.0,585.0 L570.0,585.0 L570.0,600.0 L570.0,615.0 L555.0,615.0 L555.0,600.0 L540.0,600.0 L540.0,615.0 L540.0,630.0 L555.0,630.0 L570.0,630.0 L570.0,645.0 L570.0,660.0 L555.0,660.0 L555.0,645.0 L540.0,645.0 L540.0,660.0 L525.0,660.0 L510.0,660.0 L510.0,645.0 L525.0,645.0 L525.0,630.0 L510.0,630.0 L495.0,630.0 L495.0,645.0 L495.0,660.0 L480.0,660.0 L465.0,660.0 L450.0,660.0 L450.0,645.0 L450.0,630.0 L465.0,630.0 L465.0,645.0 L480.0,645.0 L480.0,630.0 L480.0,615.0 L465.0,615.0 L450.0,615.0 L450.0,600.0 L450.0,585.0 L465.0,585.0 L465.0,600.0 L480.0,600.0 L480.0,585.0 L495.0,585.0 L510.0,585.0 L510.0,600.0 L495.0,600.0 L495.0,615.0 L510.0,615.0 L525.0,615.0 L525.0,600.0 L525.0,585.0 L525.0,570.0 L510.0,570.0 L510.0,555.0 L525.0,555.0 L525.0,540.0 L510.0,540.0 L495.0,540.0 L495.0,555.0 L495.0,570.0 L480.0,570.0 L465.0,570.0 L465.0,555.0 L480.0,555.0 L480.0,540.0 L465.0,540.0 L450.0,540.0 L450.0,555.0 L450.0,570.0 L435.0,570.0 L420.0,570.0 L420.0,555.0 L435.0,555.0 L435.0,540.0 L420.0,540.0 L405.0,540.0 L405.0,555.0 L405.0,570.0 L405.0,585.0 L420.0,585.0 L435.0,585.0 L435.0,600.0 L435.0,615.0 L420.0,615.0 L420.0,600.0 L405.0,600.0 L405.0,615.0 L405.0,630.0 L420.0,630.0 L435.0,630.0 L435.0,645.0 L435.0,660.0 L420.0,660.0 L420.0,645.0 L405.0,645.0 L405.0,660.0 L405.0,675.0 L420.0,675.0 L420.0,690.0 L405.0,690.0 L405.0,705.0 L420.0,705.0 L435.0,705.0 L435.0,690.0 L435.0,675.0 L450.0,675.0 L465.0,675.0 L465.0,690.0 L450.0,690.0 L450.0,705.0 L465.0,705.0 L480.0,705.0 L480.0,690.0 L480.0,675.0 L495.0,675.0 L510.0,675.0 L525.0,675.0 L525.0,690.0 L525.0,705.0 L510.0,705.0 L510.0,690.0 L495.0,690.0 L495.0,705.0 L495.0,720.0 L510.0,720.0 L525.0,720.0 L525.0,735.0 L525.0,750.0 L510.0,750.0 L510.0,735.0 L495.0,735.0 L495.0,750.0 L495.0,765.0 L510.0,765.0 L525.0,765.0 L525.0,780.0 L525.0,795.0 L510.0,795.0 L510.0,780.0 L495.0,780.0 L495.0,795.0 L480.0,795.0 L465.0,795.0 L450.0,795.0 L450.0,780.0 L450.0,765.0 L465.0,765.0 L465.0,780.0 L480.0,780.0 L480.0,765.0 L480.0,750.0 L465.0,750.0 L465.0,735.0 L480.0,735.0 L480.0,720.0 L465.0,720.0 L450.0,720.0 L450.0,735.0 L450.0,750.0 L435.0,750.0 L420.0,750.0 L420.0,735.0 L435.0,735.0 L435.0,720.0 L420.0,720.0 L405.0,720.0 L405.0,735.0 L405.0,750.0 L405.0,765.0 L420.0,765.0 L435.0,765.0 L435.0,780.0 L435.0,795.0 L420.0,795.0 L420.0,780.0 L405.0,780.0 L405.0,795.0 L390.0,795.0 L375.0,795.0 L375.0,780.0 L390.0,780.0 L390.0,765.0 L375.0,765.0 L360.0,765.0 L360.0,780.0 L360.0,795.0 L345.0,795.0 L330.0,795.0 L315.0,795.0 L315.0,780.0 L315.0,765.0 L330.0,765.0 L330.0,780.0 L345.0,780.0 L345.0,765.0 L345.0,750.0 L330.0,750.0 L315.0,750.0 L315.0,735.0 L315.0,720.0 L330.0,720.0 L330.0,735.0 L345.0,735.0 L345.0,720.0 L360.0,720.0 L375.0,720.0 L375.0,735.0 L360.0,735.0 L360.0,750.0 L375.0,750.0 L390.0,750.0 L390.0,735.0 L390.0,720.0 L390.0,705.0 L375.0,705.0 L375.0,690.0 L390.0,690.0 L390.0,675.0 L375.0,675.0 L360.0,675.0 L360.0,690.0 L360.0,705.0 L345.0,705.0 L330.0,705.0 L330.0,690.0 L345.0,690.0 L345.0,675.0 L330.0,675.0 L315.0,675.0 L315.0,690.0 L315.0,705.0 L300.0,705.0 L285.0,705.0 L285.0,690.0 L300.0,690.0 L300.0,675.0 L285.0,675.0 L270.0,675.0 L270.0,690.0 L270.0,705.0 L270.0,720.0 L285.0,720.0 L300.0,720.0 L300.0,735.0 L300.0,750.0 L285.0,750.0 L285.0,735.0 L270.0,735.0 L270.0,750.0 L270.0,765.0 L285.0,765.0 L300.0,765.0 L300.0,780.0 L300.0,795.0 L285.0,795.0 L285.0,780.0 L270.0,780.0 L270.0,795.0 L255.0,795.0 L240.0,795.0 L240.0,780.0 L255.0,780.0 L255.0,765.0 L240.0,765.0 L225.0,765.0 L225.0,780.0 L225.0,795.0 L210.0,795.0 L195.0,795.0 L195.0,780.0 L210.0,780.0 L210.0,765.0 L195.0,765.0 L180.0,765.0 L180.0,780.0 L180.0,795.0 L165.0,795.0 L150.0,795.0 L135.0,795.0 L135.0,780.0 L135.0,765.0 L150.0,765.0 L150.0,780.0 L165.0,780.0 L165.0,765.0 L165.0,750.0 L150.0,750.0 L135.0,750.0 L135.0,735.0 L135.0,720.0 L150.0,720.0 L150.0,735.0 L165.0,735.0 L165.0,720.0 L165.0,705.0 L150.0,705.0 L135.0,705.0 L135.0,690.0 L135.0,675.0 L150.0,675.0 L150.0,690.0 L165.0,690.0 L165.0,675.0 L180.0,675.0 L195.0,675.0 L210.0,675.0 L210.0,690.0 L210.0,705.0 L195.0,705.0 L195.0,690.0 L180.0,690.0 L180.0,705.0 L180.0,720.0 L195.0,720.0 L195.0,735.0 L180.0,735.0 L180.0,750.0 L195.0,750.0 L210.0,750.0 L210.0,735.0 L210.0,720.0 L225.0,720.0 L240.0,720.0 L240.0,735.0 L225.0,735.0 L225.0,750.0 L240.0,750.0 L255.0,750.0 L255.0,735.0 L255.0,720.0 L255.0,705.0 L240.0,705.0 L225.0,705.0 L225.0,690.0 L225.0,675.0 L240.0,675.0 L240.0,690.0 L255.0,690.0 L255.0,675.0 L255.0,660.0 L240.0,660.0 L240.0,645.0 L255.0,645.0 L255.0,630.0 L240.0,630.0 L225.0,630.0 L225.0,645.0 L225.0,660.0 L210.0,660.0 L195.0,660.0 L195.0,645.0 L210.0,645.0 L210.0,630.0 L195.0,630.0 L180.0,630.0 L180.0,645.0 L180.0,660.0 L165.0,660.0 L150.0,660.0 L135.0,660.0 L135.0,645.0 L135.0,630.0 L150.0,630.0 L150.0,645.0 L165.0,645.0 L165.0,630.0 L165.0,615.0 L150.0,615.0 L135.0,615.0 L135.0,600.0 L135.0,585.0 L150.0,585.0 L150.0,600.0 L165.0,600.0 L165.0,585.0 L165.0,570.0 L150.0,570.0 L135.0,570.0 L135.0,555.0 L135.0,540.0 L150.0,540.0 L150.0,555.0 L165.0,555.0 L165.0,540.0 L180.0,540.0 L195.0,540.0 L210.0,540.0 L210.0,555.0 L210.0,570.0 L195.0,570.0 L195.0,555.0 L180.0,555.0 L180.0,570.0 L180.0,585.0 L195.0,585.0 L195.0,600.0 L180.0,600.0 L180.0,615.0 L195.0,615.0 L210.0,615.0 L210.0,600.0 L210.0,585.0 L225.0,585.0 L240.0,585.0 L240.0,600.0 L225.0,600.0 L225.0,615.0 L240.0,615.0 L255.0,615.0 L255.0,600.0 L255.0,585.0 L255.0,570.0 L240.0,570.0 L225.0,570.0 L225.0,555.0 L225.0,540.0 L240.0,540.0 L240.0,555.0 L255.0,555.0 L255.0,540.0 L270.0,540.0 L285.0,540.0 L285.0,555.0 L270.0,555.0 L270.0,570.0 L285.0,570.0 L300.0,570.0 L300.0,555.0 L300.0,540.0 L315.0,540.0 L330.0,540.0 L345.0,540.0 L345.0,555.0 L345.0,570.0 L330.0,570.0 L330.0,555.0 L315.0,555.0 L315.0,570.0 L315.0,585.0 L330.0,585.0 L345.0,585.0 L345.0,600.0 L345.0,615.0 L330.0,615.0 L330.0,600.0 L315.0,600.0 L315.0,615.0 L300.0,615.0 L285.0,615.0 L285.0,600.0 L300.0,600.0 L300.0,585.0 L285.0,585.0 L270.0,585.0 L270.0,600.0 L270.0,615.0 L270.0,630.0 L285.0,630.0 L285.0,645.0 L270.0,645.0 L270.0,660.0 L285.0,660.0 L300.0,660.0 L300.0,645.0 L300.0,630.0 L315.0,630.0 L330.0,630.0 L330.0,645.0 L315.0,645.0 L315.0,660.0 L330.0,660.0 L345.0,660.0 L345.0,645.0 L345.0,630.0 L360.0,630.0 L375.0,630.0 L375.0,645.0 L360.0,645.0 L360.0,660.0 L375.0,660.0 L390.0,660.0 L390.0,645.0 L390.0,630.0 L390.0,615.0 L375.0,615.0 L360.0,615.0 L360.0,600.0 L360.0,585.0 L375.0,585.0 L375.0,600.0 L390.0,600.0 L390.0,585.0 L390.0,570.0 L375.0,570.0 L360.0,570.0 L360.0,555.0 L360.0,540.0 L375.0,540.0 L375.0,555.0 L390.0,555.0 L390.0,540.0 L390.0,525.0 L375.0,525.0 L375.0,510.0 L390.0,510.0 L390.0,495.0 L375.0,495.0 L360.0,495.0 L360.0,510.0 L360.0,525.0 L345.0,525.0 L330.0,525.0 L315.0,525.0 L315.0,510.0 L315.0,495.0 L330.0,495.0 L330.0,510.0 L345.0,510.0 L345.0,495.0 L345.0,480.0 L330.0,480.0 L315.0,480.0 L315.0,465.0 L315.0,450.0 L330.0,450.0 L330.0,465.0 L345.0,465.0 L345.0,450.0 L360.0,450.0 L375.0,450.0 L375.0,465.0 L360.0,465.0 L360.0,480.0 L375.0,480.0 L390.0,480.0 L390.0,465.0 L390.0,450.0 L390.0,435.0 L375.0,435.0 L375.0,420.0 L390.0,420.0 L390.0,405.0 L375.0,405.0 L360.0,405.0 L360.0,420.0 L360.0,435.0 L345.0,435.0 L330.0,435.0 L330.0,420.0 L345.0,420.0 L345.0,405.0 L330.0,405.0 L315.0,405.0 L315.0,420.0 L315.0,435.0 L300.0,435.0 L285.0,435.0 L285.0,420.0 L300.0,420.0 L300.0,405.0 L285.0,405.0 L270.0,405.0 L270.0,420.0 L270.0,435.0 L270.0,450.0 L285.0,450.0 L300.0,450.0 L300.0,465.0 L300.0,480.0 L285.0,480.0 L285.0,465.0 L270.0,465.0 L270.0,480.0 L270.0,495.0 L285.0,495.0 L300.0,495.0 L300.0,510.0 L300.0,525.0 L285.0,525.0 L285.0,510.0 L270.0,510.0 L270.0,525.0 L255.0,525.0 L240.0,525.0 L240.0,510.0 L255.0,510.0 L255.0,495.0 L240.0,495.0 L225.0,495.0 L225.0,510.0 L225.0,525.0 L210.0,525.0 L195.0,525.0 L180.0,525.0 L180.0,510.0 L180.0,495.0 L195.0,495.0 L195.0,510.0 L210.0,510.0 L210.0,495.0 L210.0,480.0 L195.0,480.0 L180.0,480.0 L180.0,465.0 L180.0,450.0 L195.0,450.0 L195.0,465.0 L210.0,465.0 L210.0,450.0 L225.0,450.0 L240.0,450.0 L240.0,465.0 L225.0,465.0 L225.0,480.0 L240.0,480.0 L255.0,480.0 L255.0,465.0 L255.0,450.0 L255.0,435.0 L240.0,435.0 L240.0,420.0 L255.0,420.0 L255.0,405.0 L240.0,405.0 L225.0,405.0 L225.0,420.0 L225.0,435.0 L210.0,435.0 L195.0,435.0 L195.0,420.0 L210.0,420.0 L210.0,405.0 L195.0,405.0 L180.0,405.0 L180.0,420.0 L180.0,435.0 L165.0,435.0 L150.0,435.0 L150.0,420.0 L165.0,420.0 L165.0,405.0 L150.0,405.0 L135.0,405.0 L135.0,420.0 L135.0,435.0 L135.0,450.0 L150.0,450.0 L165.0,450.0 L165.0,465.0 L165.0,480.0 L150.0,480.0 L150.0,465.0 L135.0,465.0 L135.0,480.0 L135.0,495.0 L150.0,495.0 L165.0,495.0 L165.0,510.0 L165.0,525.0 L150.0,525.0 L150.0,510.0 L135.0,510.0 L135.0,525.0 L120.0,525.0 L105.0,525.0 L105.0,510.0 L120.0,510.0 L120.0,495.0 L105.0,495.0 L90.0,495.0 L90.0,510.0 L90.0,525.0 L75.0,525.0 L60.0,525.0 L45.0,525.0 L45.0,510.0 L45.0,495.0 L60.0,495.0 L60.0,510.0 L75.0,510.0 L75.0,495.0 L75.0,480.0 L60.0,480.0 L45.0,480.0 L45.0,465.0 L45.0,450.0 L60.0,450.0 L60.0,465.0 L75.0,465.0 L75.0,450.0 L90.0,450.0 L105.0,450.0 L105.0,465.0 L90.0,465.0 L90.0,480.0 L105.0,480.0 L120.0,480.0 L120.0,465.0 L120.0,450.0 L120.0,435.0 L105.0,435.0 L105.0,420.0 L120.0,420.0 L120.0,405.0 L105.0,405.0 L90.0,405.0 L90.0,420.0 L90.0,435.0 L75.0,435.0 L60.0,435.0 L60.0,420.0 L75.0,420.0 L75.0,405.0 L60.0,405.0 L45.0,405.0 L45.0,420.0 L45.0,435.0 L30.0,435.0 L15.0,435.0 L15.0,420.0 L30.0,420.0 L30.0,405.0 L15.0,405.0 L0.0,405.0 L0.0,420.0 L0.0,435.0 L0.0,450.0 L15.0,450.0 L30.0,450.0 L30.0,465.0 L30.0,480.0 L15.0,480.0 L15.0,465.0 L0.0,465.0 L0.0,480.0 L0.0,495.0 L15.0,495.0 L30.0,495.0 L30.0,510.0 L30.0,525.0 L15.0,525.0 L15.0,510.0 L0.0,510.0 L0.0,525.0 L0.0,540.0 L15.0,540.0 L15.0,555.0 L0.0,555.0 L0.0,570.0 L15.0,570.0 L30.0,570.0 L30.0,555.0 L30.0,540.0 L45.0,540.0 L60.0,540.0 L60.0,555.0 L45.0,555.0 L45.0,570.0 L60.0,570.0 L75.0,570.0 L75.0,555.0 L75.0,540.0 L90.0,540.0 L105.0,540.0 L120.0,540.0 L120.0,555.0 L120.0,570.0 L105.0,570.0 L105.0,555.0 L90.0,555.0 L90.0,570.0 L90.0,585.0 L105.0,585.0 L120.0,585.0 L120.0,600.0 L120.0,615.0 L105.0,615.0 L105.0,600.0 L90.0,600.0 L90.0,615.0 L90.0,630.0 L105.0,630.0 L120.0,630.0 L120.0,645.0 L120.0,660.0 L105.0,660.0 L105.0,645.0 L90.0,645.0 L90.0,660.0 L75.0,660.0 L60.0,660.0 L45.0,660.0 L45.0,645.0 L45.0,630.0 L60.0,630.0 L60.0,645.0 L75.0,645.0 L75.0,630.0 L75.0,615.0 L60.0,615.0 L60.0,600.0 L75.0,600.0 L75.0,585.0 L60.0,585.0 L45.0,585.0 L45.0,600.0 L45.0,615.0 L30.0,615.0 L15.0,615.0 L15.0,600.0 L30.0,600.0 L30.0,585.0 L15.0,585.0 L0.0,585.0 L0.0,600.0 L0.0,615.0 L0.0,630.0 L15.0,630.0 L30.0,630.0 L30.0,645.0 L30.0,660.0 L15.0,660.0 L15.0,645.0 L0.0,645.0 L0.0,660.0 L0.0,675.0 L15.0,675.0 L15.0,690.0 L0.0,690.0 L0.0,705.0 L15.0,705.0 L30.0,705.0 L30.0,690.0 L30.0,675.0 L45.0,675.0 L60.0,675.0 L60.0,690.0 L45.0,690.0 L45.0,705.0 L60.0,705.0 L75.0,705.0 L75.0,690.0 L75.0,675.0 L90.0,675.0 L105.0,675.0 L120.0,675.0 L120.0,690.0 L120.0,705.0 L105.0,705.0 L105.0,690.0 L90.0,690.0 L90.0,705.0 L90.0,720.0 L105.0,720.0 L120.0,720.0 L120.0,735.0 L120.0,750.0 L105.0,750.0 L105.0,735.0 L90.0,735.0 L90.0,750.0 L90.0,765.0 L105.0,765.0 L120.0,765.0 L120.0,780.0 L120.0,795.0 L105.0,795.0 L105.0,780.0 L90.0,780.0 L90.0,795.0 L75.0,795.0 L60.0,795.0 L45.0,795.0 L45.0,780.0 L45.0,765.0 L60.0,765.0 L60.0,780.0 L75.0,780.0 L75.0,765.0 L75.0,750.0 L60.0,750.0 L60.0,735.0 L75.0,735.0 L75.0,720.0 L60.0,720.0 L45.0,720.0 L45.0,735.0 L45.0,750.0 L30.0,750.0 L15.0,750.0 L15.0,735.0 L30.0,735.0 L30.0,720.0 L15.0,720.0 L0.0,720.0 L0.0,735.0 L0.0,750.0 L0.0,765.0 L15.0,765.0 L30.0,765.0 L30.0,780.0 L30.0,795.0 L15.0,795.0 L15.0,780.0 L0.0,780.0 L0.0,795.0 L0.0,810.0 L15.0,810.0 L15.0,825.0 L0.0,825.0 L0.0,840.0 L15.0,840.0 L30.0,840.0 L30.0,825.0 L30.0,810.0 L45.0,810.0 L60.0,810.0 L75.0,810.0 L75.0,825.0 L75.0,840.0 L60.0,840.0 L60.0,825.0 L45.0,825.0 L45.0,840.0 L45.0,855.0 L60.0,855.0 L75.0,855.0 L75.0,870.0 L75.0,885.0 L60.0,885.0 L60.0,870.0 L45.0,870.0 L45.0,885.0 L30.0,885.0 L15.0,885.0 L15.0,870.0 L30.0,870.0 L30.0,855.0 L15.0,855.0 L0.0,855.0 L0.0,870.0 L0.0,885.0 L0.0,900.0 L15.0,900.0 L15.0,915.0 L0.0,915.0 L0.0,930.0 L15.0,930.0 L30.0,930.0 L30.0,915.0 L30.0,900.0 L45.0,900.0 L60.0,900.0 L60.0,915.0 L45.0,915.0 L45.0,930.0 L60.0,930.0 L75.0,930.0 L75.0,915.0 L75.0,900.0 L90.0,900.0 L105.0,900.0 L105.0,915.0 L90.0,915.0 L90.0,930.0 L105.0,930.0 L120.0,930.0 L120.0,915.0 L120.0,900.0 L120.0,885.0 L105.0,885.0 L90.0,885.0 L90.0,870.0 L90.0,855.0 L105.0,855.0 L105.0,870.0 L120.0,870.0 L120.0,855.0 L120.0,840.0 L105.0,840.0 L90.0,840.0 L90.0,825.0 L90.0,810.0 L105.0,810.0 L105.0,825.0 L120.0,825.0 L120.0,810.0 L135.0,810.0 L150.0,810.0 L150.0,825.0 L135.0,825.0 L135.0,840.0 L150.0,840.0 L165.0,840.0 L165.0,825.0 L165.0,810.0 L180.0,810.0 L195.0,810.0 L195.0,825.0 L180.0,825.0 L180.0,840.0 L195.0,840.0 L210.0,840.0 L210.0,825.0 L210.0,810.0 L225.0,810.0 L240.0,810.0 L255.0,810.0 L255.0,825.0 L255.0,840.0 L240.0,840.0 L240.0,825.0 L225.0,825.0 L225.0,840.0 L225.0,855.0 L240.0,855.0 L255.0,855.0 L255.0,870.0 L255.0,885.0 L240.0,885.0 L240.0,870.0 L225.0,870.0 L225.0,885.0 L225.0,900.0 L240.0,900.0 L255.0,900.0 L255.0,915.0 L255.0,930.0 L240.0,930.0 L240.0,915.0 L225.0,915.0 L225.0,930.0 L210.0,930.0 L195.0,930.0 L180.0,930.0 L180.0,915.0 L180.0,900.0 L195.0,900.0 L195.0,915.0 L210.0,915.0 L210.0,900.0 L210.0,885.0 L195.0,885.0 L195.0,870.0 L210.0,870.0 L210.0,855.0 L195.0,855.0 L180.0,855.0 L180.0,870.0 L180.0,885.0 L165.0,885.0 L150.0,885.0 L150.0,870.0 L165.0,870.0 L165.0,855.0 L150.0,855.0 L135.0,855.0 L135.0,870.0 L135.0,885.0 L135.0,900.0 L150.0,900.0 L165.0,900.0 L165.0,915.0 L165.0,930.0 L150.0,930.0 L150.0,915.0 L135.0,915.0 L135.0,930.0 L135.0,945.0 L150.0,945.0 L150.0,960.0 L135.0,960.0 L135.0,975.0 L150.0,975.0 L165.0,975.0 L165.0,960.0 L165.0,945.0 L180.0,945.0 L195.0,945.0 L195.0,960.0 L180.0,960.0 L180.0,975.0 L195.0,975.0 L210.0,975.0 L210.0,960.0 L210.0,945.0 L225.0,945.0 L240.0,945.0 L255.0,945.0 L255.0,960.0 L255.0,975.0 L240.0,975.0 L240.0,960.0 L225.0,960.0 L225.0,975.0 L225.0,990.0 L240.0,990.0 L255.0,990.0 L255.0,1005.0 L255.0,1020.0 L240.0,1020.0 L240.0,1005.0 L225.0,1005.0 L225.0,1020.0 L225.0,1035.0 L240.0,1035.0 L255.0,1035.0 L255.0,1050.0 L255.0,1065.0 L240.0,1065.0 L240.0,1050.0 L225.0,1050.0 L225.0,1065.0 L210.0,1065.0 L195.0,1065.0 L180.0,1065.0 L180.0,1050.0 L180.0,1035.0 L195.0,1035.0 L195.0,1050.0 L210.0,1050.0 L210.0,1035.0 L210.0,1020.0 L195.0,1020.0 L195.0,1005.0 L210.0,1005.0 L210.0,990.0 L195.0,990.0 L180.0,990.0 L180.0,1005.0 L180.0,1020.0 L165.0,1020.0 L150.0,1020.0 L150.0,1005.0 L165.0,1005.0 L165.0,990.0 L150.0,990.0 L135.0,990.0 L135.0,1005.0 L135.0,1020.0 L135.0,1035.0 L150.0,1035.0 L165.0,1035.0 L165.0,1050.0 L165.0,1065.0 L150.0,1065.0 L150.0,1050.0 L135.0,1050.0 L135.0,1065.0 L120.0,1065.0 L105.0,1065.0 L105.0,1050.0 L120.0,1050.0 L120.0,1035.0 L105.0,1035.0 L90.0,1035.0 L90.0,1050.0 L90.0,1065.0 L75.0,1065.0 L60.0,1065.0 L45.0,1065.0 L45.0,1050.0 L45.0,1035.0 L60.0,1035.0 L60.0,1050.0 L75.0,1050.0 L75.0,1035.0 L75.0,1020.0 L60.0,1020.0 L45.0,1020.0 L45.0,1005.0 L45.0,990.0 L60.0,990.0 L60.0,1005.0 L75.0,1005.0 L75.0,990.0 L90.0,990.0 L105.0,990.0 L105.0,1005.0 L90.0,1005.0 L90.0,1020.0 L105.0,1020.0 L120.0,1020.0 L120.0,1005.0 L120.0,990.0 L120.0,975.0 L105.0,975.0 L105.0,960.0 L120.0,960.0 L120.0,945.0 L105.0,945.0 L90.0,945.0 L90.0,960.0 L90.0,975.0 L75.0,975.0 L60.0,975.0 L60.0,960.0 L75.0,960.0 L75.0,945.0 L60.0,945.0 L45.0,945.0 L45.0,960.0 L45.0,975.0 L30.0,975.0 L15.0,975.0 L15.0,960.0 L30.0,960.0 L30.0,945.0 L15.0,945.0 L0.0,945.0 L0.0,960.0 L0.0,975.0 L0.0,990.0 L15.0,990.0 L30.0,990.0 L30.0,1005.0 L30.0,1020.0 L15.0,1020.0 L15.0,1005.0 L0.0,1005.0 L0.0,1020.0 L0.0,1035.0 L15.0,1035.0 L30.0,1035.0 L30.0,1050.0 L30.0,1065.0 L15.0,1065.0 L15.0,1050.0 L0.0,1050.0 L0.0,1065.0 L0.0,1080.0 L15.0,1080.0 L15.0,1095.0 L0.0,1095.0 L0.0,1110.0 L15.0,1110.0 L30.0,1110.0 L30.0,1095.0 L30.0,1080.0 L45.0,1080.0 L60.0,1080.0 L75.0,1080.0 L75.0,1095.0 L75.0,1110.0 L60.0,1110.0 L60.0,1095.0 L45.0,1095.0 L45.0,1110.0 L45.0,1125.0 L60.0,1125.0 L75.0,1125.0 L75.0,1140.0 L75.0,1155.0 L60.0,1155.0 L60.0,1140.0 L45.0,1140.0 L45.0,1155.0 L30.0,1155.0 L15.0,1155.0 L15.0,1140.0 L30.0,1140.0 L30.0,1125.0 L15.0,1125.0 L0.0,1125.0 L0.0,1140.0 L0.0,1155.0 L0.0,1170.0 L15.0,1170.0 L15.0,1185.0 L0.0,1185.0 L0.0,1200.0 L15.0,1200.0 L30.0,1200.0 L30.0,1185.0 L30.0,1170.0 L45.0,1170.0 L60.0,1170.0 L60.0,1185.0 L45.0,1185.0 L45.0,1200.0 L60.0,1200.0 L75.0,1200.0 L75.0,1185.0 L75.0,1170.0 L90.0,1170.0 L105.0,1170.0 L105.0,1185.0 L90.0,1185.0 L90.0,1200.0 L105.0,1200.0 L120.0,1200.0 L120.0,1185.0 L120.0,1170.0 L120.0,1155.0 L105.0,1155.0 L90.0,1155.0 L90.0,1140.0 L90.0,1125.0 L105.0,1125.0 L105.0,1140.0 L120.0,1140.0 L120.0,1125.0 L120.0,1110.0 L105.0,1110.0 L90.0,1110.0 L90.0,1095.0 L90.0,1080.0 L105.0,1080.0 L105.0,1095.0 L120.0,1095.0 L120.0,1080.0 L135.0,1080.0 L150.0,1080.0 L150.0,1095.0 L135.0,1095.0 L135.0,1110.0 L150.0,1110.0 L165.0,1110.0 L165.0,1095.0 L165.0,1080.0 L180.0,1080.0 L195.0,1080.0 L210.0,1080.0 L210.0,1095.0 L210.0,1110.0 L195.0,1110.0 L195.0,1095.0 L180.0,1095.0 L180.0,1110.0 L180.0,1125.0 L195.0,1125.0 L210.0,1125.0 L210.0,1140.0 L210.0,1155.0 L195.0,1155.0 L195.0,1140.0 L180.0,1140.0 L180.0,1155.0 L165.0,1155.0 L150.0,1155.0 L150.0,1140.0 L165.0,1140.0 L165.0,1125.0 L150.0,1125.0 L135.0,1125.0 L135.0,1140.0 L135.0,1155.0 L135.0,1170.0 L150.0,1170.0 L150.0,1185.0 L135.0,1185.0 L135.0,1200.0 L150.0,1200.0 L165.0,1200.0 L165.0,1185.0 L165.0,1170.0 L180.0,1170.0 L195.0,1170.0 L195.0,1185.0 L180.0,1185.0 L180.0,1200.0 L195.0,1200.0 L210.0,1200.0 L210.0,1185.0 L210.0,1170.0 L225.0,1170.0 L240.0,1170.0 L240.0,1185.0 L225.0,1185.0 L225.0,1200.0 L240.0,1200.0 L255.0,1200.0 L255.0,1185.0 L255.0,1170.0 L255.0,1155.0 L240.0,1155.0 L225.0,1155.0 L225.0,1140.0 L225.0,1125.0 L240.0,1125.0 L240.0,1140.0 L255.0,1140.0 L255.0,1125.0 L255.0,1110.0 L240.0,1110.0 L225.0,1110.0 L225.0,1095.0 L225.0,1080.0 L240.0,1080.0 L240.0,1095.0 L255.0,1095.0 L255.0,1080.0 L270.0,1080.0 L285.0,1080.0 L285.0,1095.0 L270.0,1095.0 L270.0,1110.0 L285.0,1110.0 L300.0,1110.0 L300.0,1095.0 L300.0,1080.0 L315.0,1080.0 L330.0,1080.0 L345.0,1080.0 L345.0,1095.0 L345.0,1110.0 L330.0,1110.0 L330.0,1095.0 L315.0,1095.0 L315.0,1110.0 L315.0,1125.0 L330.0,1125.0 L345.0,1125.0 L345.0,1140.0 L345.0,1155.0 L330.0,1155.0 L330.0,1140.0 L315.0,1140.0 L315.0,1155.0 L300.0,1155.0 L285.0,1155.0 L285.0,1140.0 L300.0,1140.0 L300.0,1125.0 L285.0,1125.0 L270.0,1125.0 L270.0,1140.0 L270.0,1155.0 L270.0,1170.0 L285.0,1170.0 L285.0,1185.0 L270.0,1185.0 L270.0,1200.0 L285.0,1200.0 L300.0,1200.0 L300.0,1185.0 L300.0,1170.0 L315.0,1170.0 L330.0,1170.0 L330.0,1185.0 L315.0,1185.0 L315.0,1200.0 L330.0,1200.0 L345.0,1200.0 L345.0,1185.0 L345.0,1170.0 L360.0,1170.0 L375.0,1170.0 L375.0,1185.0 L360.0,1185.0 L360.0,1200.0 L375.0,1200.0 L390.0,1200.0 L390.0,1185.0 L390.0,1170.0 L390.0,1155.0 L375.0,1155.0 L360.0,1155.0 L360.0,1140.0 L360.0,1125.0 L375.0,1125.0 L375.0,1140.0 L390.0,1140.0 L390.0,1125.0 L390.0,1110.0 L375.0,1110.0 L360.0,1110.0 L360.0,1095.0 L360.0,1080.0 L375.0,1080.0 L375.0,1095.0 L390.0,1095.0 L390.0,1080.0 L390.0,1065.0 L375.0,1065.0 L375.0,1050.0 L390.0,1050.0 L390.0,1035.0 L375.0,1035.0 L360.0,1035.0 L360.0,1050.0 L360.0,1065.0 L345.0,1065.0 L330.0,1065.0 L330.0,1050.0 L345.0,1050.0 L345.0,1035.0 L330.0,1035.0 L315.0,1035.0 L315.0,1050.0 L315.0,1065.0 L300.0,1065.0 L285.0,1065.0 L270.0,1065.0 L270.0,1050.0 L270.0,1035.0 L285.0,1035.0 L285.0,1050.0 L300.0,1050.0 L300.0,1035.0 L300.0,1020.0 L285.0,1020.0 L270.0,1020.0 L270.0,1005.0 L270.0,990.0 L285.0,990.0 L285.0,1005.0 L300.0,1005.0 L300.0,990.0 L300.0,975.0 L285.0,975.0 L270.0,975.0 L270.0,960.0 L270.0,945.0 L285.0,945.0 L285.0,960.0 L300.0,960.0 L300.0,945.0 L315.0,945.0 L330.0,945.0 L345.0,945.0 L345.0,960.0 L345.0,975.0 L330.0,975.0 L330.0,960.0 L315.0,960.0 L315.0,975.0 L315.0,990.0 L330.0,990.0 L330.0,1005.0 L315.0,1005.0 L315.0,1020.0 L330.0,1020.0 L345.0,1020.0 L345.0,1005.0 L345.0,990.0 L360.0,990.0 L375.0,990.0 L375.0,1005.0 L360.0,1005.0 L360.0,1020.0 L375.0,1020.0 L390.0,1020.0 L390.0,1005.0 L390.0,990.0 L390.0,975.0 L375.0,975.0 L360.0,975.0 L360.0,960.0 L360.0,945.0 L375.0,945.0 L375.0,960.0 L390.0,960.0 L390.0,945.0 L390.0,930.0 L375.0,930.0 L375.0,915.0 L390.0,915.0 L390.0,900.0 L375.0,900.0 L360.0,900.0 L360.0,915.0 L360.0,930.0 L345.0,930.0 L330.0,930.0 L330.0,915.0 L345.0,915.0 L345.0,900.0 L330.0,900.0 L315.0,900.0 L315.0,915.0 L315.0,930.0 L300.0,930.0 L285.0,930.0 L270.0,930.0 L270.0,915.0 L270.0,900.0 L285.0,900.0 L285.0,915.0 L300.0,915.0 L300.0,900.0 L300.0,885.0 L285.0,885.0 L270.0,885.0 L270.0,870.0 L270.0,855.0 L285.0,855.0 L285.0,870.0 L300.0,870.0 L300.0,855.0 L300.0,840.0 L285.0,840.0 L270.0,840.0 L270.0,825.0 L270.0,810.0 L285.0,810.0 L285.0,825.0 L300.0,825.0 L300.0,810.0 L315.0,810.0 L330.0,810.0 L345.0,810.0 L345.0,825.0 L345.0,840.0 L330.0,840.0 L330.0,825.0 L315.0,825.0 L315.0,840.0 L315.0,855.0 L330.0,855.0 L330.0,870.0 L315.0,870.0 L315.0,885.0 L330.0,885.0 L345.0,885.0 L345.0,870.0 L345.0,855.0 L360.0,855.0 L375.0,855.0 L375.0,870.0 L360.0,870.0 L360.0,885.0 L375.0,885.0 L390.0,885.0 L390.0,870.0 L390.0,855.0 L390.0,840.0 L375.0,840.0 L360.0,840.0 L360.0,825.0 L360.0,810.0 L375.0,810.0 L375.0,825.0 L390.0,825.0 L390.0,810.0 L405.0,810.0 L420.0,810.0 L420.0,825.0 L405.0,825.0 L405.0,840.0 L420.0,840.0 L435.0,840.0 L435.0,825.0 L435.0,810.0 L450.0,810.0 L465.0,810.0 L480.0,810.0 L480.0,825.0 L480.0,840.0 L465.0,840.0 L465.0,825.0 L450.0,825.0 L450.0,840.0 L450.0,855.0 L465.0,855.0 L480.0,855.0 L480.0,870.0 L480.0,885.0 L465.0,885.0 L465.0,870.0 L450.0,870.0 L450.0,885.0 L435.0,885.0 L420.0,885.0 L420.0,870.0 L435.0,870.0 L435.0,855.0 L420.0,855.0 L405.0,855.0 L405.0,870.0 L405.0,885.0 L405.0,900.0 L420.0,900.0 L420.0,915.0 L405.0,915.0 L405.0,930.0 L420.0,930.0 L435.0,930.0 L435.0,915.0 L435.0,900.0 L450.0,900.0 L465.0,900.0 L465.0,915.0 L450.0,915.0 L450.0,930.0 L465.0,930.0 L480.0,930.0 L480.0,915.0 L480.0,900.0 L495.0,900.0 L510.0,900.0 L510.0,915.0 L495.0,915.0 L495.0,930.0 L510.0,930.0 L525.0,930.0 L525.0,915.0 L525.0,900.0 L525.0,885.0 L510.0,885.0 L495.0,885.0 L495.0,870.0 L495.0,855.0 L510.0,855.0 L510.0,870.0 L525.0,870.0 L525.0,855.0 L525.0,840.0 L510.0,840.0 L495.0,840.0 L495.0,825.0 L495.0,810.0 L510.0,810.0 L510.0,825.0 L525.0,825.0 L525.0,810.0 L540.0,810.0 L555.0,810.0 L555.0,825.0 L540.0,825.0 L540.0,840.0 L555.0,840.0 L570.0,840.0 L570.0,825.0 L570.0,810.0 L585.0,810.0 L600.0,810.0 L600.0,825.0 L585.0,825.0 L585.0,840.0 L600.0,840.0 L615.0,840.0 L615.0,825.0 L615.0,810.0 L630.0,810.0 L645.0,810.0 L660.0,810.0 L660.0,825.0 L660.0,840.0 L645.0,840.0 L645.0,825.0 L630.0,825.0 L630.0,840.0 L630.0,855.0 L645.0,855.0 L660.0,855.0 L660.0,870.0 L660.0,885.0 L645.0,885.0 L645.0,870.0 L630.0,870.0 L630.0,885.0 L630.0,900.0 L645.0,900.0 L660.0,900.0 L660.0,915.0 L660.0,930.0 L645.0,930.0 L645.0,915.0 L630.0,915.0 L630.0,930.0 L615.0,930.0 L600.0,930.0 L585.0,930.0 L585.0,915.0 L585.0,900.0 L600.0,900.0 L600.0,915.0 L615.0,915.0 L615.0,900.0 L615.0,885.0 L600.0,885.0 L600.0,870.0 L615.0,870.0 L615.0,855.0 L600.0,855.0 L585.0,855.0 L585.0,870.0 L585.0,885.0 L570.0,885.0 L555.0,885.0 L555.0,870.0 L570.0,870.0 L570.0,855.0 L555.0,855.0 L540.0,855.0 L540.0,870.0 L540.0,885.0 L540.0,900.0 L555.0,900.0 L570.0,900.0 L570.0,915.0 L570.0,930.0 L555.0,930.0 L555.0,915.0 L540.0,915.0 L540.0,930.0 L540.0,945.0 L555.0,945.0 L555.0,960.0 L540.0,960.0 L540.0,975.0 L555.0,975.0 L570.0,975.0 L570.0,960.0 L570.0,945.0 L585.0,945.0 L600.0,945.0 L600.0,960.0 L585.0,960.0 L585.0,975.0 L600.0,975.0 L615.0,975.0 L615.0,960.0 L615.0,945.0 L630.0,945.0 L645.0,945.0 L660.0,945.0 L660.0,960.0 L660.0,975.0 L645.0,975.0 L645.0,960.0 L630.0,960.0 L630.0,975.0 L630.0,990.0 L645.0,990.0 L660.0,990.0 L660.0,1005.0 L660.0,1020.0 L645.0,1020.0 L645.0,1005.0 L630.0,1005.0 L630.0,1020.0 L630.0,1035.0 L645.0,1035.0 L660.0,1035.0 L660.0,1050.0 L660.0,1065.0 L645.0,1065.0 L645.0,1050.0 L630.0,1050.0 L630.0,1065.0 L615.0,1065.0 L600.0,1065.0 L585.0,1065.0 L585.0,1050.0 L585.0,1035.0 L600.0,1035.0 L600.0,1050.0 L615.0,1050.0 L615.0,1035.0 L615.0,1020.0 L600.0,1020.0 L600.0,1005.0 L615.0,1005.0 L615.0,990.0 L600.0,990.0 L585.0,990.0 L585.0,1005.0 L585.0,1020.0 L570.0,1020.0 L555.0,1020.0 L555.0,1005.0 L570.0,1005.0 L570.0,990.0 L555.0,990.0 L540.0,990.0 L540.0,1005.0 L540.0,1020.0 L540.0,1035.0 L555.0,1035.0 L570.0,1035.0 L570.0,1050.0 L570.0,1065.0 L555.0,1065.0 L555.0,1050.0 L540.0,1050.0 L540.0,1065.0 L525.0,1065.0 L510.0,1065.0 L510.0,1050.0 L525.0,1050.0 L525.0,1035.0 L510.0,1035.0 L495.0,1035.0 L495.0,1050.0 L495.0,1065.0 L480.0,1065.0 L465.0,1065.0 L450.0,1065.0 L450.0,1050.0 L450.0,1035.0 L465.0,1035.0 L465.0,1050.0 L480.0,1050.0 L480.0,1035.0 L480.0,1020.0 L465.0,1020.0 L450.0,1020.0 L450.0,1005.0 L450.0,990.0 L465.0,990.0 L465.0,1005.0 L480.0,1005.0 L480.0,990.0 L495.0,990.0 L510.0,990.0 L510.0,1005.0 L495.0,1005.0 L495.0,1020.0 L510.0,1020.0 L525.0,1020.0 L525.0,1005.0 L525.0,990.0 L525.0,975.0 L510.0,975.0 L510.0,960.0 L525.0,960.0 L525.0,945.0 L510.0,945.0 L495.0,945.0 L495.0,960.0 L495.0,975.0 L480.0,975.0 L465.0,975.0 L465.0,960.0 L480.0,960.0 L480.0,945.0 L465.0,945.0 L450.0,945.0 L450.0,960.0 L450.0,975.0 L435.0,975.0 L420.0,975.0 L420.0,960.0 L435.0,960.0 L435.0,945.0 L420.0,945.0 L405.0,945.0 L405.0,960.0 L405.0,975.0 L405.0,990.0 L420.0,990.0 L435.0,990.0 L435.0,1005.0 L435.0,1020.0 L420.0,1020.0 L420.0,1005.0 L405.0,1005.0 L405.0,1020.0 L405.0,1035.0 L420.0,1035.0 L435.0,1035.0 L435.0,1050.0 L435.0,1065.0 L420.0,1065.0 L420.0,1050.0 L405.0,1050.0 L405.0,1065.0 L405.0,1080.0 L420.0,1080.0 L420.0,1095.0 L405.0,1095.0 L405.0,1110.0 L420.0,1110.0 L435.0,1110.0 L435.0,1095.0 L435.0,1080.0 L450.0,1080.0 L465.0,1080.0 L480.0,1080.0 L480.0,1095.0 L480.0,1110.0 L465.0,1110.0 L465.0,1095.0 L450.0,1095.0 L450.0,1110.0 L450.0,1125.0 L465.0,1125.0 L480.0,1125.0 L480.0,1140.0 L480.0,1155.0 L465.0,1155.0 L465.0,1140.0 L450.0,1140.0 L450.0,1155.0 L435.0,1155.0 L420.0,1155.0 L420.0,1140.0 L435.0,1140.0 L435.0,1125.0 L420.0,1125.0 L405.0,1125.0 L405.0,1140.0 L405.0,1155.0 L405.0,1170.0 L420.0,1170.0 L420.0,1185.0 L405.0,1185.0 L405.0,1200.0 L420.0,1200.0 L435.0,1200.0 L435.0,1185.0 L435.0,1170.0 L450.0,1170.0 L465.0,1170.0 L465.0,1185.0 L450.0,1185.0 L450.0,1200.0 L465.0,1200.0 L480.0,1200.0 L480.0,1185.0 L480.0,1170.0 L495.0,1170.0 L510.0,1170.0 L510.0,1185.0 L495.0,1185.0 L495.0,1200.0 L510.0,1200.0 L525.0,1200.0 L525.0,1185.0 L525.0,1170.0 L525.0,1155.0 L510.0,1155.0 L495.0,1155.0 L495.0,1140.0 L495.0,1125.0 L510.0,1125.0 L510.0,1140.0 L525.0,1140.0 L525.0,1125.0 L525.0,1110.0 L510.0,1110.0 L495.0,1110.0 L495.0,1095.0 L495.0,1080.0 L510.0,1080.0 L510.0,1095.0 L525.0,1095.0 L525.0,1080.0 L540.0,1080.0 L555.0,1080.0 L555.0,1095.0 L540.0,1095.0 L540.0,1110.0 L555.0,1110.0 L570.0,1110.0 L570.0,1095.0 L570.0,1080.0 L585.0,1080.0 L600.0,1080.0 L615.0,1080.0 L615.0,1095.0 L615.0,1110.0 L600.0,1110.0 L600.0,1095.0 L585.0,1095.0 L585.0,1110.0 L585.0,1125.0 L600.0,1125.0 L615.0,1125.0 L615.0,1140.0 L615.0,1155.0 L600.0,1155.0 L600.0,1140.0 L585.0,1140.0 L585.0,1155.0 L570.0,1155.0 L555.0,1155.0 L555.0,1140.0 L570.0,1140.0 L570.0,1125.0 L555.0,1125.0 L540.0,1125.0 L540.0,1140.0 L540.0,1155.0 L540.0,1170.0 L555.0,1170.0 L555.0,1185.0 L540.0,1185.0 L540.0,1200.0 L555.0,1200.0 L570.0,1200.0 L570.0,1185.0 L570.0,1170.0 L585.0,1170.0 L600.0,1170.0 L600.0,1185.0 L585.0,1185.0 L585.0,1200.0 L600.0,1200.0 L615.0,1200.0 L615.0,1185.0 L615.0,1170.0 L630.0,1170.0 L645.0,1170.0 L645.0,1185.0 L630.0,1185.0 L630.0,1200.0 L645.0,1200.0 L660.0,1200.0 L660.0,1185.0 L660.0,1170.0 L660.0,1155.0 L645.0,1155.0 L630.0,1155.0 L630.0,1140.0 L630.0,1125.0 L645.0,1125.0 L645.0,1140.0 L660.0,1140.0 L660.0,1125.0 L660.0,1110.0 L645.0,1110.0 L630.0,1110.0 L630.0,1095.0 L630.0,1080.0 L645.0,1080.0 L645.0,1095.0 L660.0,1095.0 L660.0,1080.0 L675.0,1080.0 L690.0,1080.0 L690.0,1095.0 L675.0,1095.0 L675.0,1110.0 L690.0,1110.0 L705.0,1110.0 L705.0,1095.0 L705.0,1080.0 L720.0,1080.0 L735.0,1080.0 L750.0,1080.0 L750.0,1095.0 L750.0,1110.0 L735.0,1110.0 L735.0,1095.0 L720.0,1095.0 L720.0,1110.0 L720.0,1125.0 L735.0,1125.0 L750.0,1125.0 L750.0,1140.0 L750.0,1155.0 L735.0,1155.0 L735.0,1140.0 L720.0,1140.0 L720.0,1155.0 L705.0,1155.0 L690.0,1155.0 L690.0,1140.0 L705.0,1140.0 L705.0,1125.0 L690.0,1125.0 L675.0,1125.0 L675.0,1140.0 L675.0,1155.0 L675.0,1170.0 L690.0,1170.0 L690.0,1185.0 L675.0,1185.0 L675.0,1200.0 L690.0,1200.0 L705.0,1200.0 L705.0,1185.0 L705.0,1170.0 L720.0,1170.0 L735.0,1170.0 L735.0,1185.0 L720.0,1185.0 L720.0,1200.0 L735.0,1200.0 L750.0,1200.0 L750.0,1185.0 L750.0,1170.0 L765.0,1170.0 L780.0,1170.0 L780.0,1185.0 L765.0,1185.0 L765.0,1200.0 L780.0,1200.0 L795.0,1200.0 L795.0,1185.0 L795.0,1170.0 L795.0,1155.0 L780.0,1155.0 L765.0,1155.0 L765.0,1140.0 L765.0,1125.0 L780.0,1125.0 L780.0,1140.0 L795.0,1140.0 L795.0,1125.0 L795.0,1110.0 L780.0,1110.0 L765.0,1110.0 L765.0,1095.0 L765.0,1080.0 L780.0,1080.0 L780.0,1095.0 L795.0,1095.0 L795.0,1080.0 L795.0,1065.0 L780.0,1065.0 L780.0,1050.0 L795.0,1050.0 L795.0,1035.0 L780.0,1035.0 L765.0,1035.0 L765.0,1050.0 L765.0,1065.0 L750.0,1065.0 L735.0,1065.0 L735.0,1050.0 L750.0,1050.0 L750.0,1035.0 L735.0,1035.0 L720.0,1035.0 L720.0,1050.0 L720.0,1065.0 L705.0,1065.0 L690.0,1065.0 L675.0,1065.0 L675.0,1050.0 L675.0,1035.0 L690.0,1035.0 L690.0,1050.0 L705.0,1050.0 L705.0,1035.0 L705.0,1020.0 L690.0,1020.0 L675.0,1020.0 L675.0,1005.0 L675.0,990.0 L690.0,990.0 L690.0,1005.0 L705.0,1005.0 L705.0,990.0 L705.0,975.0 L690.0,975.0 L675.0,975.0 L675.0,960.0 L675.0,945.0 L690.0,945.0 L690.0,960.0 L705.0,960.0 L705.0,945.0 L720.0,945.0 L735.0,945.0 L750.0,945.0 L750.0,960.0 L750.0,975.0 L735.0,975.0 L735.0,960.0 L720.0,960.0 L720.0,975.0 L720.0,990.0 L735.0,990.0 L735.0,1005.0 L720.0,1005.0 L720.0,1020.0 L735.0,1020.0 L750.0,1020.0 L750.0,1005.0 L750.0,990.0 L765.0,990.0 L780.0,990.0 L780.0,1005.0 L765.0,1005.0 L765.0,1020.0 L780.0,1020.0 L795.0,1020.0 L795.0,1005.0 L795.0,990.0 L795.0,975.0 L780.0,975.0 L765.0,975.0 L765.0,960.0 L765.0,945.0 L780.0,945.0 L780.0,960.0 L795.0,960.0 L795.0,945.0 L795.0,930.0 L780.0,930.0 L780.0,915.0 L795.0,915.0 L795.0,900.0 L780.0,900.0 L765.0,900.0 L765.0,915.0 L765.0,930.0 L750.0,930.0 L735.0,930.0 L735.0,915.0 L750.0,915.0 L750.0,900.0 L735.0,900.0 L720.0,900.0 L720.0,915.0 L720.0,930.0 L705.0,930.0 L690.0,930.0 L675.0,930.0 L675.0,915.0 L675.0,900.0 L690.0,900.0 L690.0,915.0 L705.0,915.0 L705.0,900.0 L705.0,885.0 L690.0,885.0 L675.0,885.0 L675.0,870.0 L675.0,855.0 L690.0,855.0 L690.0,870.0 L705.0,870.0 L705.0,855.0 L705.0,840.0 L690.0,840.0 L675.0,840.0 L675.0,825.0 L675.0,810.0 L690.0,810.0 L690.0,825.0 L705.0,825.0 L705.0,810.0 L720.0,810.0 L735.0,810.0 L750.0,810.0 L750.0,825.0 L750.0,840.0 L735.0,840.0 L735.0,825.0 L720.0,825.0 L720.0,840.0 L720.0,855.0 L735.0,855.0 L735.0,870.0 L720.0,870.0 L720.0,885.0 L735.0,885.0 L750.0,885.0 L750.0,870.0 L750.0,855.0 L765.0,855.0 L780.0,855.0 L780.0,870.0 L765.0,870.0 L765.0,885.0 L780.0,885.0 L795.0,885.0 L795.0,870.0 L795.0,855.0 L795.0,840.0 L780.0,840.0 L765.0,840.0 L765.0,825.0 L765.0,810.0 L780.0,810.0 L780.0,825.0 L795.0,825.0 L795.0,810.0 L810.0,810.0 L825.0,810.0 L825.0,825.0 L810.0,825.0 L810.0,840.0 L825.0,840.0 L840.0,840.0 L840.0,825.0 L840.0,810.0 L855.0,810.0 L870.0,810.0 L885.0,810.0 L885.0,825.0 L885.0,840.0 L870.0,840.0 L870.0,825.0 L855.0,825.0 L855.0,840.0 L855.0,855.0 L870.0,855.0 L885.0,855.0 L885.0,870.0 L885.0,885.0 L870.0,885.0 L870.0,870.0 L855.0,870.0 L855.0,885.0 L840.0,885.0 L825.0,885.0 L825.0,870.0 L840.0,870.0 L840.0,855.0 L825.0,855.0 L810.0,855.0 L810.0,870.0 L810.0,885.0 L810.0,900.0 L825.0,900.0 L825.0,915.0 L810.0,915.0 L810.0,930.0 L825.0,930.0 L840.0,930.0 L840.0,915.0 L840.0,900.0 L855.0,900.0 L870.0,900.0 L870.0,915.0 L855.0,915.0 L855.0,930.0 L870.0,930.0 L885.0,930.0 L885.0,915.0 L885.0,900.0 L900.0,900.0 L915.0,900.0 L915.0,915.0 L900.0,915.0 L900.0,930.0 L915.0,930.0 L930.0,930.0 L930.0,915.0 L930.0,900.0 L930.0,885.0 L915.0,885.0 L900.0,885.0 L900.0,870.0 L900.0,855.0 L915.0,855.0 L915.0,870.0 L930.0,870.0 L930.0,855.0 L930.0,840.0 L915.0,840.0 L900.0,840.0 L900.0,825.0 L900.0,810.0 L915.0,810.0 L915.0,825.0 L930.0,825.0 L930.0,810.0 L945.0,810.0 L960.0,810.0 L960.0,825.0 L945.0,825.0 L945.0,840.0 L960.0,840.0 L975.0,840.0 L975.0,825.0 L975.0,810.0 L990.0,810.0 L1005.0,810.0 L1005.0,825.0 L990.0,825.0 L990.0,840.0 L1005.0,840.0 L1020.0,840.0 L1020.0,825.0 L1020.0,810.0 L1035.0,810.0 L1050.0,810.0 L1065.0,810.0 L1065.0,825.0 L1065.0,840.0 L1050.0,840.0 L1050.0,825.0 L1035.0,825.0 L1035.0,840.0 L1035.0,855.0 L1050.0,855.0 L1065.0,855.0 L1065.0,870.0 L1065.0,885.0 L1050.0,885.0 L1050.0,870.0 L1035.0,870.0 L1035.0,885.0 L1035.0,900.0 L1050.0,900.0 L1065.0,900.0 L1065.0,915.0 L1065.0,930.0 L1050.0,930.0 L1050.0,915.0 L1035.0,915.0 L1035.0,930.0 L1020.0,930.0 L1005.0,930.0 L990.0,930.0 L990.0,915.0 L990.0,900.0 L1005.0,900.0 L1005.0,915.0 L1020.0,915.0 L1020.0,900.0 L1020.0,885.0 L1005.0,885.0 L1005.0,870.0 L1020.0,870.0 L1020.0,855.0 L1005.0,855.0 L990.0,855.0 L990.0,870.0 L990.0,885.0 L975.0,885.0 L960.0,885.0 L960.0,870.0 L975.0,870.0 L975.0,855.0 L960.0,855.0 L945.0,855.0 L945.0,870.0 L945.0,885.0 L945.0,900.0 L960.0,900.0 L975.0,900.0 L975.0,915.0 L975.0,930.0 L960.0,930.0 L960.0,915.0 L945.0,915.0 L945.0,930.0 L945.0,945.0 L960.0,945.0 L960.0,960.0 L945.0,960.0 L945.0,975.0 L960.0,975.0 L975.0,975.0 L975.0,960.0 L975.0,945.0 L990.0,945.0 L1005.0,945.0 L1005.0,960.0 L990.0,960.0 L990.0,975.0 L1005.0,975.0 L1020.0,975.0 L1020.0,960.0 L1020.0,945.0 L1035.0,945.0 L1050.0,945.0 L1065.0,945.0 L1065.0,960.0 L1065.0,975.0 L1050.0,975.0 L1050.0,960.0 L1035.0,960.0 L1035.0,975.0 L1035.0,990.0 L1050.0,990.0 L1065.0,990.0 L1065.0,1005.0 L1065.0,1020.0 L1050.0,1020.0 L1050.0,1005.0 L1035.0,1005.0 L1035.0,1020.0 L1035.0,1035.0 L1050.0,1035.0 L1065.0,1035.0 L1065.0,1050.0 L1065.0,1065.0 L1050.0,1065.0 L1050.0,1050.0 L1035.0,1050.0 L1035.0,1065.0 L1020.0,1065.0 L1005.0,1065.0 L990.0,1065.0 L990.0,1050.0 L990.0,1035.0 L1005.0,1035.0 L1005.0,1050.0 L1020.0,1050.0 L1020.0,1035.0 L1020.0,1020.0 L1005.0,1020.0 L1005.0,1005.0 L1020.0,1005.0 L1020.0,990.0 L1005.0,990.0 L990.0,990.0 L990.0,1005.0 L990.0,1020.0 L975.0,1020.0 L960.0,1020.0 L960.0,1005.0 L975.0,1005.0 L975.0,990.0 L960.0,990.0 L945.0,990.0 L945.0,1005.0 L945.0,1020.0 L945.0,1035.0 L960.0,1035.0 L975.0,1035.0 L975.0,1050.0 L975.0,1065.0 L960.0,1065.0 L960.0,1050.0 L945.0,1050.0 L945.0,1065.0 L930.0,1065.0 L915.0,1065.0 L915.0,1050.0 L930.0,1050.0 L930.0,1035.0 L915.0,1035.0 L900.0,1035.0 L900.0,1050.0 L900.0,1065.0 L885.0,1065.0 L870.0,1065.0 L855.0,1065.0 L855.0,1050.0 L855.0,1035.0 L870.0,1035.0 L870.0,1050.0 L885.0,1050.0 L885.0,1035.0 L885.0,1020.0 L870.0,1020.0 L855.0,1020.0 L855.0,1005.0 L855.0,990.0 L870.0,990.0 L870.0,1005.0 L885.0,1005.0 L885.0,990.0 L900.0,990.0 L915.0,990.0 L915.0,1005.0 L900.0,1005.0 L900.0,1020.0 L915.0,1020.0 L930.0,1020.0 L930.0,1005.0 L930.0,990.0 L930.0,975.0 L915.0,975.0 L915.0,960.0 L930.0,960.0 L930.0,945.0 L915.0,945.0 L900.0,945.0 L900.0,960.0 L900.0,975.0 L885.0,975.0 L870.0,975.0 L870.0,960.0 L885.0,960.0 L885.0,945.0 L870.0,945.0 L855.0,945.0 L855.0,960.0 L855.0,975.0 L840.0,975.0 L825.0,975.0 L825.0,960.0 L840.0,960.0 L840.0,945.0 L825.0,945.0 L810.0,945.0 L810.0,960.0 L810.0,975.0 L810.0,990.0 L825.0,990.0 L840.0,990.0 L840.0,1005.0 L840.0,1020.0 L825.0,1020.0 L825.0,1005.0 L810.0,1005.0 L810.0,1020.0 L810.0,1035.0 L825.0,1035.0 L840.0,1035.0 L840.0,1050.0 L840.0,1065.0 L825.0,1065.0 L825.0,1050.0 L810.0,1050.0 L810.0,1065.0 L810.0,1080.0 L825.0,1080.0 L825.0,1095.0 L810.0,1095.0 L810.0,1110.0 L825.0,1110.0 L840.0,1110.0 L840.0,1095.0 L840.0,1080.0 L855.0,1080.0 L870.0,1080.0 L885.0,1080.0 L885.0,1095.0 L885.0,1110.0 L870.0,1110.0 L870.0,1095.0 L855.0,1095.0 L855.0,1110.0 L855.0,1125.0 L870.0,1125.0 L885.0,1125.0 L885.0,1140.0 L885.0,1155.0 L870.0,1155.0 L870.0,1140.0 L855.0,1140.0 L855.0,1155.0 L840.0,1155.0 L825.0,1155.0 L825.0,1140.0 L840.0,1140.0 L840.0,1125.0 L825.0,1125.0 L810.0,1125.0 L810.0,1140.0 L810.0,1155.0 L810.0,1170.0 L825.0,1170.0 L825.0,1185.0 L810.0,1185.0 L810.0,1200.0 L825.0,1200.0 L840.0,1200.0 L840.0,1185.0 L840.0,1170.0 L855.0,1170.0 L870.0,1170.0 L870.0,1185.0 L855.0,1185.0 L855.0,1200.0 L870.0,1200.0 L885.0,1200.0 L885.0,1185.0 L885.0,1170.0 L900.0,1170.0 L915.0,1170.0 L915.0,1185.0 L900.0,1185.0 L900.0,1200.0 L915.0,1200.0 L930.0,1200.0 L930.0,1185.0 L930.0,1170.0 L930.0,1155.0 L915.0,1155.0 L900.0,1155.0 L900.0,1140.0 L900.0,1125.0 L915.0,1125.0 L915.0,1140.0 L930.0,1140.0 L930.0,1125.0 L930.0,1110.0 L915.0,1110.0 L900.0,1110.0 L900.0,1095.0 L900.0,1080.0 L915.0,1080.0 L915.0,1095.0 L930.0,1095.0 L930.0,1080.0 L945.0,1080.0 L960.0,1080.0 L960.0,1095.0 L945.0,1095.0 L945.0,1110.0 L960.0,1110.0 L975.0,1110.0 L975.0,1095.0 L975.0,1080.0 L990.0,1080.0 L1005.0,1080.0 L1020.0,1080.0 L1020.0,1095.0 L1020.0,1110.0 L1005.0,1110.0 L1005.0,1095.0 L990.0,1095.0 L990.0,1110.0 L990.0,1125.0 L1005.0,1125.0 L1020.0,1125.0 L1020.0,1140.0 L1020.0,1155.0 L1005.0,1155.0 L1005.0,1140.0 L990.0,1140.0 L990.0,1155.0 L975.0,1155.0 L960.0,1155.0 L960.0,1140.0 L975.0,1140.0 L975.0,1125.0 L960.0,1125.0 L945.0,1125.0 L945.0,1140.0 L945.0,1155.0 L945.0,1170.0 L960.0,1170.0 L960.0,1185.0 L945.0,1185.0 L945.0,1200.0 L960.0,1200.0 L975.0,1200.0 L975.0,1185.0 L975.0,1170.0 L990.0,1170.0 L1005.0,1170.0 L1005.0,1185.0 L990.0,1185.0 L990.0,1200.0 L1005.0,1200.0 L1020.0,1200.0 L1020.0,1185.0 L1020.0,1170.0 L1035.0,1170.0 L1050.0,1170.0 L1050.0,1185.0 L1035.0,1185.0 L1035.0,1200.0 L1050.0,1200.0 L1065.0,1200.0 L1065.0,1185.0 L1065.0,1170.0 L1065.0,1155.0 L1050.0,1155.0 L1035.0,1155.0 L1035.0,1140.0 L1035.0,1125.0 L1050.0,1125.0 L1050.0,1140.0 L1065.0,1140.0 L1065.0,1125.0 L1065.0,1110.0 L1050.0,1110.0 L1035.0,1110.0 L1035.0,1095.0 L1035.0,1080.0 L1050.0,1080.0 L1050.0,1095.0 L1065.0,1095.0 L1065.0,1080.0 L1080.0,1080.0 L1095.0,1080.0 L1095.0,1095.0 L1080.0,1095.0 L1080.0,1110.0 L1095.0,1110.0 L1110.0,1110.0 L1110.0,1095.0 L1110.0,1080.0 L1125.0,1080.0 L1140.0,1080.0 L1155.0,1080.0 L1155.0,1095.0 L1155.0,1110.0 L1140.0,1110.0 L1140.0,1095.0 L1125.0,1095.0 L1125.0,1110.0 L1125.0,1125.0 L1140.0,1125.0 L1155.0,1125.0 L1155.0,1140.0 L1155.0,1155.0 L1140.0,1155.0 L1140.0,1140.0 L1125.0,1140.0 L1125.0,1155.0 L1110.0,1155.0 L1095.0,1155.0 L1095.0,1140.0 L1110.0,1140.0 L1110.0,1125.0 L1095.0,1125.0 L1080.0,1125.0 L1080.0,1140.0 L1080.0,1155.0 L1080.0,1170.0 L1095.0,1170.0 L1095.0,1185.0 L1080.0,1185.0 L1080.0,1200.0 L1095.0,1200.0 L1110.0,1200.0 L1110.0,1185.0 L1110.0,1170.0 L1125.0,1170.0 L1140.0,1170.0 L1140.0,1185.0 L1125.0,1185.0 L1125.0,1200.0 L1140.0,1200.0 L1155.0,1200.0 L1155.0,1185.0 L1155.0,1170.0 L1170.0,1170.0 L1185.0,1170.0 L1185.0,1185.0 L1170.0,1185.0 L1170.0,1200.0 L1185.0,1200.0 L1200.0,1200.0 L1200.0,1185.0 L1200.0,1170.0 L1200.0,1155.0 L1185.0,1155.0 L1170.0,1155.0 L1170.0,1140.0 L1170.0,1125.0 L1185.0,1125.0 L1185.0,1140.0 L1200.0,1140.0 L1200.0,1125.0 L1200.0,1110.0 L1185.0,1110.0 L1170.0,1110.0 L1170.0,1095.0 L1170.0,1080.0 L1185.0,1080.0 L1185.0,1095.0 L1200.0,1095.0 L1200.0,1080.0 L1200.0,1065.0 L1185.0,1065.0 L1185.0,1050.0 L1200.0,1050.0 L1200.0,1035.0 L1185.0,1035.0 L1170.0,1035.0 L1170.0,1050.0 L1170.0,1065.0 L1155.0,1065.0 L1140.0,1065.0 L1140.0,1050.0 L1155.0,1050.0 L1155.0,1035.0 L1140.0,1035.0 L1125.0,1035.0 L1125.0,1050.0 L1125.0,1065.0 L1110.0,1065.0 L1095.0,1065.0 L1080.0,1065.0 L1080.0,1050.0 L1080.0,1035.0 L1095.0,1035.0 L1095.0,1050.0 L1110.0,1050.0 L1110.0,1035.0 L1110.0,1020.0 L1095.0,1020.0 L1080.0,1020.0 L1080.0,1005.0 L1080.0,990.0 L1095.0,990.0 L1095.0,1005.0 L1110.0,1005.0 L1110.0,990.0 L1110.0,975.0 L1095.0,975.0 L1080.0,975.0 L1080.0,960.0 L1080.0,945.0 L1095.0,945.0 L1095.0,960.0 L1110.0,960.0 L1110.0,945.0 L1125.0,945.0 L1140.0,945.0 L1155.0,945.0 L1155.0,960.0 L1155.0,975.0 L1140.0,975.0 L1140.0,960.0 L1125.0,960.0 L1125.0,975.0 L1125.0,990.0 L1140.0,990.0 L1140.0,1005.0 L1125.0,1005.0 L1125.0,1020.0 L1140.0,1020.0 L1155.0,1020.0 L1155.0,1005.0 L1155.0,990.0 L1170.0,990.0 L1185.0,990.0 L1185.0,1005.0 L1170.0,1005.0 L1170.0,1020.0 L1185.0,1020.0 L1200.0,1020.0 L1200.0,1005.0 L1200.0,990.0 L1200.0,975.0 L1185.0,975.0 L1170.0,975.0 L1170.0,960.0 L1170.0,945.0 L1185.0,945.0 L1185.0,960.0 L1200.0,960.0 L1200.0,945.0 L1200.0,930.0 L1185.0,930.0 L1185.0,915.0 L1200.0,915.0 L1200.0,900.0 L1185.0,900.0 L1170.0,900.0 L1170.0,915.0 L1170.0,930.0 L1155.0,930.0 L1140.0,930.0 L1140.0,915.0 L1155.0,915.0 L1155.0,900.0 L1140.0,900.0 L1125.0,900.0 L1125.0,915.0 L1125.0,930.0 L1110.0,930.0 L1095.0,930.0 L1080.0,930.0 L1080.0,915.0 L1080.0,900.0 L1095.0,900.0 L1095.0,915.0 L1110.0,915.0 L1110.0,900.0 L1110.0,885.0 L1095.0,885.0 L1080.0,885.0 L1080.0,870.0 L1080.0,855.0 L1095.0,855.0 L1095.0,870.0 L1110.0,870.0 L1110.0,855.0 L1110.0,840.0 L1095.0,840.0 L1080.0,840.0 L1080.0,825.0 L1080.0,810.0 L1095.0,810.0 L1095.0,825.0 L1110.0,825.0 L1110.0,810.0 L1125.0,810.0 L1140.0,810.0 L1155.0,810.0 L1155.0,825.0 L1155.0,840.0 L1140.0,840.0 L1140.0,825.0 L1125.0,825.0 L1125.0,840.0 L1125.0,855.0 L1140.0,855.0 L1140.0,870.0 L1125.0,870.0 L1125.0,885.0 L1140.0,885.0 L1155.0,885.0 L1155.0,870.0 L1155.0,855.0 L1170.0,855.0 L1185.0,855.0 L1185.0,870.0 L1170.0,870.0 L1170.0,885.0 L1185.0,885.0 L1200.0,885.0 L1200.0,870.0 L1200.0,855.0 L1200.0,840.0 L1185.0,840.0 L1170.0,840.0 L1170.0,825.0 L1170.0,810.0 L1185.0,810.0 L1185.0,825.0 L1200.0,825.0 L1200.0,810.0 L1200.0,795.0 L1185.0,795.0 L1185.0,780.0 L1200.0,780.0 L1200.0,765.0 L1185.0,765.0 L1170.0,765.0 L1170.0,780.0 L1170.0,795.0 L1155.0,795.0 L1140.0,795.0 L1125.0,795.0 L1125.0,780.0 L1125.0,765.0 L1140.0,765.0 L1140.0,780.0 L1155.0,780.0 L1155.0,765.0 L1155.0,750.0 L1140.0,750.0 L1125.0,750.0 L1125.0,735.0 L1125.0,720.0 L1140.0,720.0 L1140.0,735.0 L1155.0,735.0 L1155.0,720.0 L1170.0,720.0 L1185.0,720.0 L1185.0,735.0 L1170.0,735.0 L1170.0,750.0 L1185.0,750.0 L1200.0,750.0 L1200.0,735.0 L1200.0,720.0 L1200.0,705.0 L1185.0,705.0 L1185.0,690.0 L1200.0,690.0 L1200.0,675.0 L1185.0,675.0 L1170.0,675.0 L1170.0,690.0 L1170.0,705.0 L1155.0,705.0 L1140.0,705.0 L1140.0,690.0 L1155.0,690.0 L1155.0,675.0 L1140.0,675.0 L1125.0,675.0 L1125.0,690.0 L1125.0,705.0 L1110.0,705.0 L1095.0,705.0 L1095.0,690.0 L1110.0,690.0 L1110.0,675.0 L1095.0,675.0 L1080.0,675.0 L1080.0,690.0 L1080.0,705.0 L1080.0,720.0 L1095.0,720.0 L1110.0,720.0 L1110.0,735.0 L1110.0,750.0 L1095.0,750.0 L1095.0,735.0 L1080.0,735.0 L1080.0,750.0 L1080.0,765.0 L1095.0,765.0 L1110.0,765.0 L1110.0,780.0 L1110.0,795.0 L1095.0,795.0 L1095.0,780.0 L1080.0,780.0 L1080.0,795.0 L1065.0,795.0 L1050.0,795.0 L1050.0,780.0 L1065.0,780.0 L1065.0,765.0 L1050.0,765.0 L1035.0,765.0 L1035.0,780.0 L1035.0,795.0 L1020.0,795.0 L1005.0,795.0 L990.0,795.0 L990.0,780.0 L990.0,765.0 L1005.0,765.0 L1005.0,780.0 L1020.0,780.0 L1020.0,765.0 L1020.0,750.0 L1005.0,750.0 L990.0,750.0 L990.0,735.0 L990.0,720.0 L1005.0,720.0 L1005.0,735.0 L1020.0,735.0 L1020.0,720.0 L1035.0,720.0 L1050.0,720.0 L1050.0,735.0 L1035.0,735.0 L1035.0,750.0 L1050.0,750.0 L1065.0,750.0 L1065.0,735.0 L1065.0,720.0 L1065.0,705.0 L1050.0,705.0 L1050.0,690.0 L1065.0,690.0 L1065.0,675.0 L1050.0,675.0 L1035.0,675.0 L1035.0,690.0 L1035.0,705.0 L1020.0,705.0 L1005.0,705.0 L1005.0,690.0 L1020.0,690.0 L1020.0,675.0 L1005.0,675.0 L990.0,675.0 L990.0,690.0 L990.0,705.0 L975.0,705.0 L960.0,705.0 L960.0,690.0 L975.0,690.0 L975.0,675.0 L960.0,675.0 L945.0,675.0 L945.0,690.0 L945.0,705.0 L945.0,720.0 L960.0,720.0 L975.0,720.0 L975.0,735.0 L975.0,750.0 L960.0,750.0 L960.0,735.0 L945.0,735.0 L945.0,750.0 L945.0,765.0 L960.0,765.0 L975.0,765.0 L975.0,780.0 L975.0,795.0 L960.0,795.0 L960.0,780.0 L945.0,780.0 L945.0,795.0 L930.0,795.0 L915.0,795.0 L915.0,780.0 L930.0,780.0 L930.0,765.0 L915.0,765.0 L900.0,765.0 L900.0,780.0 L900.0,795.0 L885.0,795.0 L870.0,795.0 L870.0,780.0 L885.0,780.0 L885.0,765.0 L870.0,765.0 L855.0,765.0 L855.0,780.0 L855.0,795.0 L840.0,795.0 L825.0,795.0 L810.0,795.0 L810.0,780.0 L810.0,765.0 L825.0,765.0 L825.0,780.0 L840.0,780.0 L840.0,765.0 L840.0,750.0 L825.0,750.0 L810.0,750.0 L810.0,735.0 L810.0,720.0 L825.0,720.0 L825.0,735.0 L840.0,735.0 L840.0,720.0 L840.0,705.0 L825.0,705.0 L810.0,705.0 L810.0,690.0 L810.0,675.0 L825.0,675.0 L825.0,690.0 L840.0,690.0 L840.0,675.0 L855.0,675.0 L870.0,675.0 L885.0,675.0 L885.0,690.0 L885.0,705.0 L870.0,705.0 L870.0,690.0 L855.0,690.0 L855.0,705.0 L855.0,720.0 L870.0,720.0 L870.0,735.0 L855.0,735.0 L855.0,750.0 L870.0,750.0 L885.0,750.0 L885.0,735.0 L885.0,720.0 L900.0,720.0 L915.0,720.0 L915.0,735.0 L900.0,735.0 L900.0,750.0 L915.0,750.0 L930.0,750.0 L930.0,735.0 L930.0,720.0 L930.0,705.0 L915.0,705.0 L900.0,705.0 L900.0,690.0 L900.0,675.0 L915.0,675.0 L915.0,690.0 L930.0,690.0 L930.0,675.0 L930.0,660.0 L915.0,660.0 L915.0,645.0 L930.0,645.0 L930.0,630.0 L915.0,630.0 L900.0,630.0 L900.0,645.0 L900.0,660.0 L885.0,660.0 L870.0,660.0 L870.0,645.0 L885.0,645.0 L885.0,630.0 L870.0,630.0 L855.0,630.0 L855.0,645.0 L855.0,660.0 L840.0,660.0 L825.0,660.0 L810.0,660.0 L810.0,645.0 L810.0,630.0 L825.0,630.0 L825.0,645.0 L840.0,645.0 L840.0,630.0 L840.0,615.0 L825.0,615.0 L810.0,615.0 L810.0,600.0 L810.0,585.0 L825.0,585.0 L825.0,600.0 L840.0,600.0 L840.0,585.0 L840.0,570.0 L825.0,570.0 L810.0,570.0 L810.0,555.0 L810.0,540.0 L825.0,540.0 L825.0,555.0 L840.0,555.0 L840.0,540.0 L855.0,540.0 L870.0,540.0 L885.0,540.0 L885.0,555.0 L885.0,570.0 L870.0,570.0 L870.0,555.0 L855.0,555.0 L855.0,570.0 L855.0,585.0 L870.0,585.0 L870.0,600.0 L855.0,600.0 L855.0,615.0 L870.0,615.0 L885.0,615.0 L885.0,600.0 L885.0,585.0 L900.0,585.0 L915.0,585.0 L915.0,600.0 L900.0,600.0 L900.0,615.0 L915.0,615.0 L930.0,615.0 L930.0,600.0 L930.0,585.0 L930.0,570.0 L915.0,570.0 L900.0,570.0 L900.0,555.0 L900.0,540.0 L915.0,540.0 L915.0,555.0 L930.0,555.0 L930.0,540.0 L930.0,525.0 L915.0,525.0 L915.0,510.0 L930.0,510.0 L930.0,495.0 L915.0,495.0 L900.0,495.0 L900.0,510.0 L900.0,525.0 L885.0,525.0 L870.0,525.0 L870.0,510.0 L885.0,510.0 L885.0,495.0 L870.0,495.0 L855.0,495.0 L855.0,510.0 L855.0,525.0 L840.0,525.0 L825.0,525.0 L810.0,525.0 L810.0,510.0 L810.0,495.0 L825.0,495.0 L825.0,510.0 L840.0,510.0 L840.0,495.0 L840.0,480.0 L825.0,480.0 L810.0,480.0 L810.0,465.0 L810.0,450.0 L825.0,450.0 L825.0,465.0 L840.0,465.0 L840.0,450.0 L840.0,435.0 L825.0,435.0 L810.0,435.0 L810.0,420.0 L810.0,405.0 L825.0,405.0 L825.0,420.0 L840.0,420.0 L840.0,405.0 L855.0,405.0 L870.0,405.0 L885.0,405.0 L885.0,420.0 L885.0,435.0 L870.0,435.0 L870.0,420.0 L855.0,420.0 L855.0,435.0 L855.0,450.0 L870.0,450.0 L870.0,465.0 L855.0,465.0 L855.0,480.0 L870.0,480.0 L885.0,480.0 L885.0,465.0 L885.0,450.0 L900.0,450.0 L915.0,450.0 L915.0,465.0 L900.0,465.0 L900.0,480.0 L915.0,480.0 L930.0,480.0 L930.0,465.0 L930.0,450.0 L930.0,435.0 L915.0,435.0 L900.0,435.0 L900.0,420.0 L900.0,405.0 L915.0,405.0 L915.0,420.0 L930.0,420.0 L930.0,405.0 L945.0,405.0 L960.0,405.0 L960.0,420.0 L945.0,420.0 L945.0,435.0 L960.0,435.0 L975.0,435.0 L975.0,420.0 L975.0,405.0 L990.0,405.0 L1005.0,405.0 L1005.0,420.0 L990.0,420.0 L990.0,435.0 L1005.0,435.0 L1020.0,435.0 L1020.0,420.0 L1020.0,405.0 L1035.0,405.0 L1050.0,405.0 L1065.0,405.0 L1065.0,420.0 L1065.0,435.0 L1050.0,435.0 L1050.0,420.0 L1035.0,420.0 L1035.0,435.0 L1035.0,450.0 L1050.0,450.0 L1065.0,450.0 L1065.0,465.0 L1065.0,480.0 L1050.0,480.0 L1050.0,465.0 L1035.0,465.0 L1035.0,480.0 L1035.0,495.0 L1050.0,495.0 L1065.0,495.0 L1065.0,510.0 L1065.0,525.0 L1050.0,525.0 L1050.0,510.0 L1035.0,510.0 L1035.0,525.0 L1020.0,525.0 L1005.0,525.0 L990.0,525.0 L990.0,510.0 L990.0,495.0 L1005.0,495.0 L1005.0,510.0 L1020.0,510.0 L1020.0,495.0 L1020.0,480.0 L1005.0,480.0 L1005.0,465.0 L1020.0,465.0 L1020.0,450.0 L1005.0,450.0 L990.0,450.0 L990.0,465.0 L990.0,480.0 L975.0,480.0 L960.0,480.0 L960.0,465.0 L975.0,465.0 L975.0,450.0 L960.0,450.0 L945.0,450.0 L945.0,465.0 L945.0,480.0 L945.0,495.0 L960.0,495.0 L975.0,495.0 L975.0,510.0 L975.0,525.0 L960.0,525.0 L960.0,510.0 L945.0,510.0 L945.0,525.0 L945.0,540.0 L960.0,540.0 L960.0,555.0 L945.0,555.0 L945.0,570.0 L960.0,570.0 L975.0,570.0 L975.0,555.0 L975.0,540.0 L990.0,540.0 L1005.0,540.0 L1020.0,540.0 L1020.0,555.0 L1020.0,570.0 L1005.0,570.0 L1005.0,555.0 L990.0,555.0 L990.0,570.0 L990.0,585.0 L1005.0,585.0 L1020.0,585.0 L1020.0,600.0 L1020.0,615.0 L1005.0,615.0 L1005.0,600.0 L990.0,600.0 L990.0,615.0 L975.0,615.0 L960.0,615.0 L960.0,600.0 L975.0,600.0 L975.0,585.0 L960.0,585.0 L945.0,585.0 L945.0,600.0 L945.0,615.0 L945.0,630.0 L960.0,630.0 L960.0,645.0 L945.0,645.0 L945.0,660.0 L960.0,660.0 L975.0,660.0 L975.0,645.0 L975.0,630.0 L990.0,630.0 L1005.0,630.0 L1005.0,645.0 L990.0,645.0 L990.0,660.0 L1005.0,660.0 L1020.0,660.0 L1020.0,645.0 L1020.0,630.0 L1035.0,630.0 L1050.0,630.0 L1050.0,645.0 L1035.0,645.0 L1035.0,660.0 L1050.0,660.0 L1065.0,660.0 L1065.0,645.0 L1065.0,630.0 L1065.0,615.0 L1050.0,615.0 L1035.0,615.0 L1035.0,600.0 L1035.0,585.0 L1050.0,585.0 L1050.0,600.0 L1065.0,600.0 L1065.0,585.0 L1065.0,570.0 L1050.0,570.0 L1035.0,570.0 L1035.0,555.0 L1035.0,540.0 L1050.0,540.0 L1050.0,555.0 L1065.0,555.0 L1065.0,540.0 L1080.0,540.0 L1095.0,540.0 L1095.0,555.0 L1080.0,555.0 L1080.0,570.0 L1095.0,570.0 L1110.0,570.0 L1110.0,555.0 L1110.0,540.0 L1125.0,540.0 L1140.0,540.0 L1155.0,540.0 L1155.0,555.0 L1155.0,570.0 L1140.0,570.0 L1140.0,555.0 L1125.0,555.0 L1125.0,570.0 L1125.0,585.0 L1140.0,585.0 L1155.0,585.0 L1155.0,600.0 L1155.0,615.0 L1140.0,615.0 L1140.0,600.0 L1125.0,600.0 L1125.0,615.0 L1110.0,615.0 L1095.0,615.0 L1095.0,600.0 L1110.0,600.0 L1110.0,585.0 L1095.0,585.0 L1080.0,585.0 L1080.0,600.0 L1080.0,615.0 L1080.0,630.0 L1095.0,630.0 L1095.0,645.0 L1080.0,645.0 L1080.0,660.0 L1095.0,660.0 L1110.0,660.0 L1110.0,645.0 L1110.0,630.0 L1125.0,630.0 L1140.0,630.0 L1140.0,645.0 L1125.0,645.0 L1125.0,660.0 L1140.0,660.0 L1155.0,660.0 L1155.0,645.0 L1155.0,630.0 L1170.0,630.0 L1185.0,630.0 L1185.0,645.0 L1170.0,645.0 L1170.0,660.0 L1185.0,660.0 L1200.0,660.0 L1200.0,645.0 L1200.0,630.0 L1200.0,615.0 L1185.0,615.0 L1170.0,615.0 L1170.0,600.0 L1170.0,585.0 L1185.0,585.0 L1185.0,600.0 L1200.0,600.0 L1200.0,585.0 L1200.0,570.0 L1185.0,570.0 L1170.0,570.0 L1170.0,555.0 L1170.0,540.0 L1185.0,540.0 L1185.0,555.0 L1200.0,555.0 L1200.0,540.0 L1200.0,525.0 L1185.0,525.0 L1185.0,510.0 L1200.0,510.0 L1200.0,495.0 L1185.0,495.0 L1170.0,495.0 L1170.0,510.0 L1170.0,525.0 L1155.0,525.0 L1140.0,525.0 L1140.0,510.0 L1155.0,510.0 L1155.0,495.0 L1140.0,495.0 L1125.0,495.0 L1125.0,510.0 L1125.0,525.0 L1110.0,525.0 L1095.0,525.0 L1080.0,525.0 L1080.0,510.0 L1080.0,495.0 L1095.0,495.0 L1095.0,510.0 L1110.0,510.0 L1110.0,495.0 L1110.0,480.0 L1095.0,480.0 L1080.0,480.0 L1080.0,465.0 L1080.0,450.0 L1095.0,450.0 L1095.0,465.0 L1110.0,465.0 L1110.0,450.0 L1110.0,435.0 L1095.0,435.0 L1080.0,435.0 L1080.0,420.0 L1080.0,405.0 L1095.0,405.0 L1095.0,420.0 L1110.0,420.0 L1110.0,405.0 L1125.0,405.0 L1140.0,405.0 L1155.0,405.0 L1155.0,420.0 L1155.0,435.0 L1140.0,435.0 L1140.0,420.0 L1125.0,420.0 L1125.0,435.0 L1125.0,450.0 L1140.0,450.0 L1140.0,465.0 L1125.0,465.0 L1125.0,480.0 L1140.0,480.0 L1155.0,480.0 L1155.0,465.0 L1155.0,450.0 L1170.0,450.0 L1185.0,450.0 L1185.0,465.0 L1170.0,465.0 L1170.0,480.0 L1185.0,480.0 L1200.0,480.0 L1200.0,465.0 L1200.0,450.0 L1200.0,435.0 L1185.0,435.0 L1170.0,435.0 L1170.0,420.0 L1170.0,405.0 L1185.0,405.0 L1185.0,420.0 L1200.0,420.0 L1200.0,405.0 L1200.0,390.0 L1185.0,390.0 L1185.0,375.0 L1200.0,375.0 L1200.0,360.0 L1185.0,360.0 L1170.0,360.0 L1170.0,375.0 L1170.0,390.0 L1155.0,390.0 L1140.0,390.0 L1125.0,390.0 L1125.0,375.0 L1125.0,360.0 L1140.0,360.0 L1140.0,375.0 L1155.0,375.0 L1155.0,360.0 L1155.0,345.0 L1140.0,345.0 L1125.0,345.0 L1125.0,330.0 L1125.0,315.0 L1140.0,315.0 L1140.0,330.0 L1155.0,330.0 L1155.0,315.0 L1170.0,315.0 L1185.0,315.0 L1185.0,330.0 L1170.0,330.0 L1170.0,345.0 L1185.0,345.0 L1200.0,345.0 L1200.0,330.0 L1200.0,315.0 L1200.0,300.0 L1185.0,300.0 L1185.0,285.0 L1200.0,285.0 L1200.0,270.0 L1185.0,270.0 L1170.0,270.0 L1170.0,285.0 L1170.0,300.0 L1155.0,300.0 L1140.0,300.0 L1140.0,285.0 L1155.0,285.0 L1155.0,270.0 L1140.0,270.0 L1125.0,270.0 L1125.0,285.0 L1125.0,300.0 L1110.0,300.0 L1095.0,300.0 L1095.0,285.0 L1110.0,285.0 L1110.0,270.0 L1095.0,270.0 L1080.0,270.0 L1080.0,285.0 L1080.0,300.0 L1080.0,315.0 L1095.0,315.0 L1110.0,315.0 L1110.0,330.0 L1110.0,345.0 L1095.0,345.0 L1095.0,330.0 L1080.0,330.0 L1080.0,345.0 L1080.0,360.0 L1095.0,360.0 L1110.0,360.0 L1110.0,375.0 L1110.0,390.0 L1095.0,390.0 L1095.0,375.0 L1080.0,375.0 L1080.0,390.0 L1065.0,390.0 L1050.0,390.0 L1050.0,375.0 L1065.0,375.0 L1065.0,360.0 L1050.0,360.0 L1035.0,360.0 L1035.0,375.0 L1035.0,390.0 L1020.0,390.0 L1005.0,390.0 L990.0,390.0 L990.0,375.0 L990.0,360.0 L1005.0,360.0 L1005.0,375.0 L1020.0,375.0 L1020.0,360.0 L1020.0,345.0 L1005.0,345.0 L990.0,345.0 L990.0,330.0 L990.0,315.0 L1005.0,315.0 L1005.0,330.0 L1020.0,330.0 L1020.0,315.0 L1035.0,315.0 L1050.0,315.0 L1050.0,330.0 L1035.0,330.0 L1035.0,345.0 L1050.0,345.0 L1065.0,345.0 L1065.0,330.0 L1065.0,315.0 L1065.0,300.0 L1050.0,300.0 L1050.0,285.0 L1065.0,285.0 L1065.0,270.0 L1050.0,270.0 L1035.0,270.0 L1035.0,285.0 L1035.0,300.0 L1020.0,300.0 L1005.0,300.0 L1005.0,285.0 L1020.0,285.0 L1020.0,270.0 L1005.0,270.0 L990.0,270.0 L990.0,285.0 L990.0,300.0 L975.0,300.0 L960.0,300.0 L960.0,285.0 L975.0,285.0 L975.0,270.0 L960.0,270.0 L945.0,270.0 L945.0,285.0 L945.0,300.0 L945.0,315.0 L960.0,315.0 L975.0,315.0 L975.0,330.0 L975.0,345.0 L960.0,345.0 L960.0,330.0 L945.0,330.0 L945.0,345.0 L945.0,360.0 L960.0,360.0 L975.0,360.0 L975.0,375.0 L975.0,390.0 L960.0,390.0 L960.0,375.0 L945.0,375.0 L945.0,390.0 L930.0,390.0 L915.0,390.0 L915.0,375.0 L930.0,375.0 L930.0,360.0 L915.0,360.0 L900.0,360.0 L900.0,375.0 L900.0,390.0 L885.0,390.0 L870.0,390.0 L870.0,375.0 L885.0,375.0 L885.0,360.0 L870.0,360.0 L855.0,360.0 L855.0,375.0 L855.0,390.0 L840.0,390.0 L825.0,390.0 L810.0,390.0 L810.0,375.0 L810.0,360.0 L825.0,360.0 L825.0,375.0 L840.0,375.0 L840.0,360.0 L840.0,345.0 L825.0,345.0 L810.0,345.0 L810.0,330.0 L810.0,315.0 L825.0,315.0 L825.0,330.0 L840.0,330.0 L840.0,315.0 L840.0,300.0 L825.0,300.0 L810.0,300.0 L810.0,285.0 L810.0,270.0 L825.0,270.0 L825.0,285.0 L840.0,285.0 L840.0,270.0 L855.0,270.0 L870.0,270.0 L885.0,270.0 L885.0,285.0 L885.0,300.0 L870.0,300.0 L870.0,285.0 L855.0,285.0 L855.0,300.0 L855.0,315.0 L870.0,315.0 L870.0,330.0 L855.0,330.0 L855.0,345.0 L870.0,345.0 L885.0,345.0 L885.0,330.0 L885.0,315.0 L900.0,315.0 L915.0,315.0 L915.0,330.0 L900.0,330.0 L900.0,345.0 L915.0,345.0 L930.0,345.0 L930.0,330.0 L930.0,315.0 L930.0,300.0 L915.0,300.0 L900.0,300.0 L900.0,285.0 L900.0,270.0 L915.0,270.0 L915.0,285.0 L930.0,285.0 L930.0,270.0 L930.0,255.0 L915.0,255.0 L915.0,240.0 L930.0,240.0 L930.0,225.0 L915.0,225.0 L900.0,225.0 L900.0,240.0 L900.0,255.0 L885.0,255.0 L870.0,255.0 L870.0,240.0 L885.0,240.0 L885.0,225.0 L870.0,225.0 L855.0,225.0 L855.0,240.0 L855.0,255.0 L840.0,255.0 L825.0,255.0 L810.0,255.0 L810.0,240.0 L810.0,225.0 L825.0,225.0 L825.0,240.0 L840.0,240.0 L840.0,225.0 L840.0,210.0 L825.0,210.0 L810.0,210.0 L810.0,195.0 L810.0,180.0 L825.0,180.0 L825.0,195.0 L840.0,195.0 L840.0,180.0 L840.0,165.0 L825.0,165.0 L810.0,165.0 L810.0,150.0 L810.0,135.0 L825.0,135.0 L825.0,150.0 L840.0,150.0 L840.0,135.0 L855.0,135.0 L870.0,135.0 L885.0,135.0 L885.0,150.0 L885.0,165.0 L870.0,165.0 L870.0,150.0 L855.0,150.0 L855.0,165.0 L855.0,180.0 L870.0,180.0 L870.0,195.0 L855.0,195.0 L855.0,210.0 L870.0,210.0 L885.0,210.0 L885.0,195.0 L885.0,180.0 L900.0,180.0 L915.0,180.0 L915.0,195.0 L900.0,195.0 L900.0,210.0 L915.0,210.0 L930.0,210.0 L930.0,195.0 L930.0,180.0 L930.0,165.0 L915.0,165.0 L900.0,165.0 L900.0,150.0 L900.0,135.0 L915.0,135.0 L915.0,150.0 L930.0,150.0 L930.0,135.0 L930.0,120.0 L915.0,120.0 L915.0,105.0 L930.0,105.0 L930.0,90.0 L915.0,90.0 L900.0,90.0 L900.0,105.0 L900.0,120.0 L885.0,120.0 L870.0,120.0 L870.0,105.0 L885.0,105.0 L885.0,90.0 L870.0,90.0 L855.0,90.0 L855.0,105.0 L855.0,120.0 L840.0,120.0 L825.0,120.0 L810.0,120.0 L810.0,105.0 L810.0,90.0 L825.0,90.0 L825.0,105.0 L840.0,105.0 L840.0,90.0 L840.0,75.0 L825.0,75.0 L810.0,75.0 L810.0,60.0 L810.0,45.0 L825.0,45.0 L825.0,60.0 L840.0,60.0 L840.0,45.0 L840.0,30.0 L825.0,30.0 L810.0,30.0 L810.0,15.0 L810.0,0.0 L825.0,0.0 L825.0,15.0 L840.0,15.0 L840.0,0.0 L855.0,0.0 L870.0,0.0 L885.0,0.0 L885.0,15.0 L885.0,30.0 L870.0,30.0 L870.0,15.0 L855.0,15.0 L855.0,30.0 L855.0,45.0 L870.0,45.0 L870.0,60.0 L855.0,60.0 L855.0,75.0 L870.0,75.0 L885.0,75.0 L885.0,60.0 L885.0,45.0 L900.0,45.0 L915.0,45.0 L915.0,60.0 L900.0,60.0 L900.0,75.0 L915.0,75.0 L930.0,75.0 L930.0,60.0 L930.0,45.0 L930.0,30.0 L915.0,30.0 L900.0,30.0 L900.0,15.0 L900.0,0.0 L915.0,0.0 L915.0,15.0 L930.0,15.0 L930.0,0.0 L945.0,0.0 L960.0,0.0 L960.0,15.0 L945.0,15.0 L945.0,30.0 L960.0,30.0 L975.0,30.0 L975.0,15.0 L975.0,0.0 L990.0,0.0 L1005.0,0.0 L1005.0,15.0 L990.0,15.0 L990.0,30.0 L1005.0,30.0 L1020.0,30.0 L1020.0,15.0 L1020.0,0.0 L1035.0,0.0 L1050.0,0.0 L1065.0,0.0 L1065.0,15.0 L1065.0,30.0 L1050.0,30.0 L1050.0,15.0 L1035.0,15.0 L1035.0,30.0 L1035.0,45.0 L1050.0,45.0 L1065.0,45.0 L1065.0,60.0 L1065.0,75.0 L1050.0,75.0 L1050.0,60.0 L1035.0,60.0 L1035.0,75.0 L1035.0,90.0 L1050.0,90.0 L1065.0,90.0 L1065.0,105.0 L1065.0,120.0 L1050.0,120.0 L1050.0,105.0 L1035.0,105.0 L1035.0,120.0 L1020.0,120.0 L1005.0,120.0 L990.0,120.0 L990.0,105.0 L990.0,90.0 L1005.0,90.0 L1005.0,105.0 L1020.0,105.0 L1020.0,90.0 L1020.0,75.0 L1005.0,75.0 L1005.0,60.0 L1020.0,60.0 L1020.0,45.0 L1005.0,45.0 L990.0,45.0 L990.0,60.0 L990.0,75.0 L975.0,75.0 L960.0,75.0 L960.0,60.0 L975.0,60.0 L975.0,45.0 L960.0,45.0 L945.0,45.0 L945.0,60.0 L945.0,75.0 L945.0,90.0 L960.0,90.0 L975.0,90.0 L975.0,105.0 L975.0,120.0 L960.0,120.0 L960.0,105.0 L945.0,105.0 L945.0,120.0 L945.0,135.0 L960.0,135.0 L960.0,150.0 L945.0,150.0 L945.0,165.0 L960.0,165.0 L975.0,165.0 L975.0,150.0 L975.0,135.0 L990.0,135.0 L1005.0,135.0 L1020.0,135.0 L1020.0,150.0 L1020.0,165.0 L1005.0,165.0 L1005.0,150.0 L990.0,150.0 L990.0,165.0 L990.0,180.0 L1005.0,180.0 L1020.0,180.0 L1020.0,195.0 L1020.0,210.0 L1005.0,210.0 L1005.0,195.0 L990.0,195.0 L990.0,210.0 L975.0,210.0 L960.0,210.0 L960.0,195.0 L975.0,195.0 L975.0,180.0 L960.0,180.0 L945.0,180.0 L945.0,195.0 L945.0,210.0 L945.0,225.0 L960.0,225.0 L960.0,240.0 L945.0,240.0 L945.0,255.0 L960.0,255.0 L975.0,255.0 L975.0,240.0 L975.0,225.0 L990.0,225.0 L1005.0,225.0 L1005.0,240.0 L990.0,240.0 L990.0,255.0 L1005.0,255.0 L1020.0,255.0 L1020.0,240.0 L1020.0,225.0 L1035.0,225.0 L1050.0,225.0 L1050.0,240.0 L1035.0,240.0 L1035.0,255.0 L1050.0,255.0 L1065.0,255.0 L1065.0,240.0 L1065.0,225.0 L1065.0,210.0 L1050.0,210.0 L1035.0,210.0 L1035.0,195.0 L1035.0,180.0 L1050.0,180.0 L1050.0,195.0 L1065.0,195.0 L1065.0,180.0 L1065.0,165.0 L1050.0,165.0 L1035.0,165.0 L1035.0,150.0 L1035.0,135.0 L1050.0,135.0 L1050.0,150.0 L1065.0,150.0 L1065.0,135.0 L1080.0,135.0 L1095.0,135.0 L1095.0,150.0 L1080.0,150.0 L1080.0,165.0 L1095.0,165.0 L1110.0,165.0 L1110.0,150.0 L1110.0,135.0 L1125.0,135.0 L1140.0,135.0 L1155.0,135.0 L1155.0,150.0 L1155.0,165.0 L1140.0,165.0 L1140.0,150.0 L1125.0,150.0 L1125.0,165.0 L1125.0,180.0 L1140.0,180.0 L1155.0,180.0 L1155.0,195.0 L1155.0,210.0 L1140.0,210.0 L1140.0,195.0 L1125.0,195.0 L1125.0,210.0 L1110.0,210.0 L1095.0,210.0 L1095.0,195.0 L1110.0,195.0 L1110.0,180.0 L1095.0,180.0 L1080.0,180.0 L1080.0,195.0 L1080.0,210.0 L1080.0,225.0 L1095.0,225.0 L1095.0,240.0 L1080.0,240.0 L1080.0,255.0 L1095.0,255.0 L1110.0,255.0 L1110.0,240.0 L1110.0,225.0 L1125.0,225.0 L1140.0,225.0 L1140.0,240.0 L1125.0,240.0 L1125.0,255.0 L1140.0,255.0 L1155.0,255.0 L1155.0,240.0 L1155.0,225.0 L1170.0,225.0 L1185.0,225.0 L1185.0,240.0 L1170.0,240.0 L1170.0,255.0 L1185.0,255.0 L1200.0,255.0 L1200.0,240.0 L1200.0,225.0 L1200.0,210.0 L1185.0,210.0 L1170.0,210.0 L1170.0,195.0 L1170.0,180.0 L1185.0,180.0 L1185.0,195.0 L1200.0,195.0 L1200.0,180.0 L1200.0,165.0 L1185.0,165.0 L1170.0,165.0 L1170.0,150.0 L1170.0,135.0 L1185.0,135.0 L1185.0,150.0 L1200.0,150.0 L1200.0,135.0 L1200.0,120.0 L1185.0,120.0 L1185.0,105.0 L1200.0,105.0 L1200.0,90.0 L1185.0,90.0 L1170.0,90.0 L1170.0,105.0 L1170.0,120.0 L1155.0,120.0 L1140.0,120.0 L1140.0,105.0 L1155.0,105.0 L1155.0,90.0 L1140.0,90.0 L1125.0,90.0 L1125.0,105.0 L1125.0,120.0 L1110.0,120.0 L1095.0,120.0 L1080.0,120.0 L1080.0,105.0 L1080.0,90.0 L1095.0,90.0 L1095.0,105.0 L1110.0,105.0 L1110.0,90.0 L1110.0,75.0 L1095.0,75.0 L1080.0,75.0 L1080.0,60.0 L1080.0,45.0 L1095.0,45.0 L1095.0,60.0 L1110.0,60.0 L1110.0,45.0 L1110.0,30.0 L1095.0,30.0 L1080.0,30.0 L1080.0,15.0 L1080.0,0.0 L1095.0,0.0 L1095.0,15.0 L1110.0,15.0 L1110.0,0.0 L1125.0,0.0 L1140.0,0.0 L1155.0,0.0 L1155.0,15.0 L1155.0,30.0 L1140.0,30.0 L1140.0,15.0 L1125.0,15.0 L1125.0,30.0 L1125.0,45.0 L1140.0,45.0 L1140.0,60.0 L1125.0,60.0 L1125.0,75.0 L1140.0,75.0 L1155.0,75.0 L1155.0,60.0 L1155.0,45.0 L1170.0,45.0 L1185.0,45.0 L1185.0,60.0 L1170.0,60.0 L1170.0,75.0 L1185.0,75.0 L1200.0,75.0 L1200.0,60.0 L1200.0,45.0 L1200.0,30.0 L1185.0,30.0 L1170.0,30.0 L1170.0,15.0 L1170.0,0.0 L1185.0,0.0 L1185.0,15.0 L1200.0,15.0 L1200.0,0.0 " style="fill:none;stroke-width:3;stroke:red;"></path></g></svg>