<svg height="600" overflow="visible" preserveAspectRatio="xMidYMid meet" version="1.0" width="1000" xmlns:xlink="http://www.w3.org/1999/xlink" xmlns="http://www.w3.org/2000/svg" zoomAndPan="magnify"><g transform="translate(475.81395,553.95349) scale(0.27907,-0.27907)"><path d="M0.0,0.0 L0.0,20.0 L-20.0,20.0 L-20.0,0.0 L-20.0,-20.0 L-40.0,-20.0 L-60.0,-20.0 L-60.0,-40.0 L-40.0,-40.0 L-20.0,-40.0 L-20.0,-60.0 L-20.0,-80.0 L0.0,-80.0 L0.0,-60.0 L0.0,-40.0 L20.0,-40.0 L40.0,-40.0 L40.0,-20.0 L40.0,0.0 L60.0,0.0 L60.0,-20.0 L60.0,-40.0 L80.0,-40.0 L100.0,-40.0 L100.0,-60.0 L80.0,-60.0 L60.0,-60.0 L60.0,-80.0 L80.0,-80.0 L100.0,-80.0 L100.0,-100.0 L100.0,-120.0 L120.0,-120.0 L120.0,-100.0 L120.0,-80.0 L140.0,-80.0 L160.0,-80.0 L160.0,-60.0 L140.0,-60.0 L120.0,-60.0 L120.0,-40.0 L120.0,-20.0 L100.0,-20.0 L80.0,-20.0 L80.0,0.0 L100.0,0.0 L120.0,0.0 L120.0,20.0 L120.0,40.0 L140.0,40.0 L140.0,20.0 L140.0,0.0 L160.0,0.0 L160.0,20.0 L160.0,40.0 L180.0,40.0 L200.0,40.0 L200.0,60.0 L180.0,60.0 L160.0,60.0 L160.0,80.0 L160.0,100.0 L140.0,100.0 L140.0,80.0 L140.0,60.0 L120.0,60.0 L100.0,60.0 L100.0,40.0 L100.0,20.0 L80.0,20.0 L80.0,40.0 L80.0,60.0 L60.0,60.0 L40.0,60.0 L40.0,80.0 L60.0,80.0 L80.0,80.0 L80.0,100.0 L60.0,100.0 L40.0,100.0 L40.0,120.0 L40.0,140.0 L20.0,140.0 L20.0,120.0 L20.0,100.0 L0.0,100.0 L-20.0,100.0 L-20.0,80.0 L-20.0,60.0 L-40.0,60.0 L-40.0,80.0 L-40.0,100.0 L-60.0,100.0 L-80.0,100.0 L-80.0,120.0 L-60.0,120.0 L-40.0,120.0 L-40.0,140.0 L-40.0,160.0 L-20.0,160.0 L-20.0,140.0 L-20.0,120.0 L0.0,120.0 L0.0,140.0 L0.0,160.0 L20.0,160.0 L40.0,160.0 L40.0,180.0 L20.0,180.0 L0.0,180.0 L0.0,200.0 L0.0,220.0 L-20.0,220.0 L-40.0,220.0 L-40.0,240.0 L-20.0,240.0 L0.0,240.0 L0.0,260.0 L0.0,280.0 L20.0,280.0 L20.0,260.0 L20.0,240.0 L40.0,240.0 L60.0,240.0 L60.0,220.0 L40.0,220.0 L20.0,220.0 L20.0,200.0 L40.0,200.0 L60.0,200.0 L60.0,180.0 L60.0,160.0 L80.0,160.0 L80.0,180.0 L80.0,200.0 L100.0,200.0 L120.0,200.0 L120.0,220.0 L100.0,220.0 L80.0,220.0 L80.0,240.0 L80.0,260.0 L60.0,260.0 L40.0,260.0 L40.0,280.0 L60.0,280.0 L80.0,280.0 L80.0,300.0 L80.0,320.0 L100.0,320.0 L100.0,300.0 L100.0,280.0 L120.0,280.0 L120.0,300.0 L120.0,320.0 L140.0,320.0 L160.0,320.0 L160.0,340.0 L140.0,340.0 L120.0,340.0 L120.0,360.0 L120.0,380.0 L100.0,380.0 L100.0,360.0 L100.0,340.0 L80.0,340.0 L60.0,340.0 L60.0,320.0 L60.0,300.0 L40.0,300.0 L40.0,320.0 L40.0,340.0 L20.0,340.0 L0.0,340.0 L0.0,360.0 L20.0,360.0 L40.0,360.0 L40.0,380.0 L20.0,380.0 L0.0,380.0 L0.0,400.0 L0.0,420.0 L-20.0,420.0 L-20.0,400.0 L-20.0,380.0 L-40.0,380.0 L-60.0,380.0 L-60.0,360.0 L-60.0,340.0 L-80.0,340.0 L-80.0,360.0 L-80.0,380.0 L-100.0,380.0 L-120.0,380.0 L-120.0,400.0 L-100.0,400.0 L-80.0,400.0 L-80.0,420.0 L-80.0,440.0 L-60.0,440.0 L-60.0,420.0 L-60.0,400.0 L-40.0,400.0 L-40.0,420.0 L-40.0,440.0 L-20.0,440.0 L0.0,440.0 L0.0,460.0 L-20.0,460.0 L-40.0,460.0 L-40.0,480.0 L-40.0,500.0 L-60.0,500.0 L-80.0,500.0 L-80.0,520.0 L-60.0,520.0 L-40.0,520.0 L-40.0,540.0 L-40.0,560.0 L-20.0,560.0 L-20.0,540.0 L-20.0,520.0 L0.0,520.0 L20.0,520.0 L20.0,500.0 L0.0,500.0 L-20.0,500.0 L-20.0,480.0 L0.0,480.0 L20.0,480.0 L20.0,460.0 L20.0,440.0 L40.0,440.0 L40.0,460.0 L40.0,480.0 L60.0,480.0 L80.0,480.0 L80.0,500.0 L80.0,520.0 L100.0,520.0 L100.0,500.0 L100.0,480.0 L120.0,480.0 L140.0,480.0 L140.0,460.0 L120.0,460.0 L100.0,460.0 L100.0,440.0 L100.0,420.0 L80.0,420.0 L80.0,440.0 L80.0,460.0 L60.0,460.0 L60.0,440.0 L60.0,420.0 L40.0,420.0 L20.0,420.0 L20.0,400.0 L40.0,400.0 L60.0,400.0 L60.0,380.0 L60.0,360.0 L80.0,360.0 L80.0,380.0 L80.0,400.0 L100.0,400.0 L120.0,400.0 L120.0,420.0 L120.0,440.0 L140.0,440.0 L140.0,420.0 L140.0,400.0 L160.0,400.0 L180.0,400.0 L180.0,380.0 L160.0,380.0 L140.0,380.0 L140.0,360.0 L160.0,360.0 L180.0,360.0 L180.0,340.0 L180.0,320.0 L200.0,320.0 L200.0,340.0 L200.0,360.0 L220.0,360.0 L240.0,360.0 L240.0,380.0 L220.0,380.0 L200.0,380.0 L200.0,400.0 L200.0,420.0 L180.0,420.0 L160.0,420.0 L160.0,440.0 L180.0,440.0 L200.0,440.0 L200.0,460.0 L200.0,480.0 L220.0,480.0 L220.0,460.0 L220.0,440.0 L240.0,440.0 L240.0,460.0 L240.0,480.0 L260.0,480.0 L280.0,480.0 L280.0,500.0 L260.0,500.0 L240.0,500.0 L240.0,520.0 L240.0,540.0 L220.0,540.0 L220.0,520.0 L220.0,500.0 L200.0,500.0 L180.0,500.0 L180.0,480.0 L180.0,460.0 L160.0,460.0 L160.0,480.0 L160.0,500.0 L140.0,500.0 L120.0,500.0 L120.0,520.0 L140.0,520.0 L160.0,520.0 L160.0,540.0 L140.0,540.0 L120.0,540.0 L120.0,560.0 L120.0,580.0 L100.0,580.0 L100.0,560.0 L100.0,540.0 L80.0,540.0 L60.0,540.0 L60.0,520.0 L60.0,500.0 L40.0,500.0 L40.0,520.0 L40.0,540.0 L20.0,540.0 L0.0,540.0 L0.0,560.0 L20.0,560.0 L40.0,560.0 L40.0,580.0 L40.0,600.0 L60.0,600.0 L60.0,580.0 L60.0,560.0 L80.0,560.0 L80.0,580.0 L80.0,600.0 L100.0,600.0 L120.0,600.0 L120.0,620.0 L100.0,620.0 L80.0,620.0 L80.0,640.0 L80.0,660.0 L60.0,660.0 L40.0,660.0 L40.0,680.0 L60.0,680.0 L80.0,680.0 L80.0,700.0 L80.0,720.0 L100.0,720.0 L100.0,700.0 L100.0,680.0 L120.0,680.0 L140.0,680.0 L140.0,660.0 L120.0,660.0 L100.0,660.0 L100.0,640.0 L120.0,640.0 L140.0,640.0 L140.0,620.0 L140.0,600.0 L160.0,600.0 L160.0,620.0 L160.0,640.0 L180.0,640.0 L200.0,640.0 L200.0,660.0 L180.0,660.0 L160.0,660.0 L160.0,680.0 L160.0,700.0 L140.0,700.0 L120.0,700.0 L120.0,720.0 L140.0,720.0 L160.0,720.0 L160.0,740.0 L160.0,760.0 L180.0,760.0 L180.0,740.0 L180.0,720.0 L200.0,720.0 L200.0,740.0 L200.0,760.0 L220.0,760.0 L240.0,760.0 L240.0,780.0 L220.0,780.0 L200.0,780.0 L200.0,800.0 L200.0,820.0 L180.0,820.0 L180.0,800.0 L180.0,780.0 L160.0,780.0 L140.0,780.0 L140.0,760.0 L140.0,740.0 L120.0,740.0 L120.0,760.0 L120.0,780.0 L100.0,780.0 L80.0,780.0 L80.0,800.0 L100.0,800.0 L120.0,800.0 L120.0,820.0 L100.0,820.0 L80.0,820.0 L80.0,840.0 L80.0,860.0 L60.0,860.0 L60.0,840.0 L60.0,820.0 L40.0,820.0 L20.0,820.0 L20.0,800.0 L20.0,780.0 L0.0,780.0 L0.0,800.0 L0.0,820.0 L-20.0,820.0 L-40.0,820.0 L-40.0,840.0 L-20.0,840.0 L0.0,840.0 L0.0,860.0 L0.0,880.0 L20.0,880.0 L20.0,860.0 L20.0,840.0 L40.0,840.0 L40.0,860.0 L40.0,880.0 L60.0,880.0 L80.0,880.0 L80.0,900.0 L60.0,900.0 L40.0,900.0 L40.0,920.0 L40.0,940.0 L20.0,940.0 L0.0,940.0 L0.0,960.0 L20.0,960.0 L40.0,960.0 L40.0,980.0 L40.0,1000.0 L60.0,1000.0 L60.0,980.0 L60.0,960.0 L80.0,960.0 L100.0,960.0 L100.0,940.0 L80.0,940.0 L60.0,940.0 L60.0,920.0 L80.0,920.0 L100.0,920.0 L100.0,900.0 L100.0,880.0 L120.0,880.0 L120.0,900.0 L120.0,920.0 L140.0,920.0 L160.0,920.0 L160.0,940.0 L160.0,960.0 L180.0,960.0 L180.0,940.0 L180.0,920.0 L200.0,920.0 L220.0,920.0 L220.0,900.0 L200.0,900.0 L180.0,900.0 L180.0,880.0 L180.0,860.0 L160.0,860.0 L160.0,880.0 L160.0,900.0 L140.0,900.0 L140.0,880.0 L140.0,860.0 L120.0,860.0 L100.0,860.0 L100.0,840.0 L120.0,840.0 L140.0,840.0 L140.0,820.0 L140.0,800.0 L160.0,800.0 L160.0,820.0 L160.0,840.0 L180.0,840.0 L200.0,840.0 L200.0,860.0 L200.0,880.0 L220.0,880.0 L220.0,860.0 L220.0,840.0 L240.0,840.0 L260.0,840.0 L260.0,820.0 L240.0,820.0 L220.0,820.0 L220.0,800.0 L240.0,800.0 L260.0,800.0 L260.0,780.0 L260.0,760.0 L280.0,760.0 L280.0,780.0 L280.0,800.0 L300.0,800.0 L320.0,800.0 L320.0,820.0 L300.0,820.0 L280.0,820.0 L280.0,840.0 L280.0,860.0 L260.0,860.0 L240.0,860.0 L240.0,880.0 L260.0,880.0 L280.0,880.0 L280.0,900.0 L280.0,920.0 L300.0,920.0 L300.0,900.0 L300.0,880.0 L320.0,880.0 L320.0,900.0 L320.0,920.0 L340.0,920.0 L360.0,920.0 L360.0,940.0 L340.0,940.0 L320.0,940.0 L320.0,960.0 L320.0,980.0 L300.0,980.0 L300.0,960.0 L300.0,940.0 L280.0,940.0 L260.0,940.0 L260.0,920.0 L260.0,900.0 L240.0,900.0 L240.0,920.0 L240.0,940.0 L220.0,940.0 L200.0,940.0 L200.0,960.0 L220.0,960.0 L240.0,960.0 L240.0,980.0 L220.0,980.0 L200.0,980.0 L200.0,1000.0 L200.0,1020.0 L180.0,1020.0 L180.0,1000.0 L180.0,980.0 L160.0,980.0 L140.0,980.0 L140.0,960.0 L140.0,940.0 L120.0,940.0 L120.0,960.0 L120.0,980.0 L100.0,980.0 L80.0,980.0 L80.0,1000.0 L100.0,1000.0 L120.0,1000.0 L120.0,1020.0 L120.0,1040.0 L140.0,1040.0 L140.0,1020.0 L140.0,1000.0 L160.0,1000.0 L160.0,1020.0 L160.0,1040.0 L180.0,1040.0 L200.0,1040.0 L200.0,1060.0 L180.0,1060.0 L160.0,1060.0 L160.0,1080.0 L160.0,1100.0 L140.0,1100.0 L120.0,1100.0 L120.0,1120.0 L140.0,1120.0 L160.0,1120.0 L160.0,1140.0 L160.0,1160.0 L180.0,1160.0 L180.0,1140.0 L180.0,1120.0 L200.0,1120.0 L220.0,1120.0 L220.0,1100.0 L200.0,1100.0 L180.0,1100.0 L180.0,1080.0 L200.0,1080.0 L220.0,1080.0 L220.0,1060.0 L220.0,1040.0 L240.0,1040.0 L240.0,1060.0 L240.0,1080.0 L260.0,1080.0 L280.0,1080.0 L280.0,1100.0 L260.0,1100.0 L240.0,1100.0 L240.0,1120.0 L240.0,1140.0 L220.0,1140.0 L200.0,1140.0 L200.0,1160.0 L220.0,1160.0 L240.0,1160.0 L240.0,1180.0 L240.0,1200.0 L260.0,1200.0 L260.0,1180.0 L260.0,1160.0 L280.0,1160.0 L280.0,1180.0 L280.0,1200.0 L300.0,1200.0 L320.0,1200.0 L320.0,1220.0 L300.0,1220.0 L280.0,1220.0 L280.0,1240.0 L280.0,1260.0 L260.0,1260.0 L260.0,1240.0 L260.0,1220.0 L240.0,1220.0 L220.0,1220.0 L220.0,1200.0 L220.0,1180.0 L200.0,1180.0 L200.0,1200.0 L200.0,1220.0 L180.0,1220.0 L160.0,1220.0 L160.0,1240.0 L180.0,1240.0 L200.0,1240.0 L200.0,1260.0 L180.0,1260.0 L160.0,1260.0 L160.0,1280.0 L160.0,1300.0 L140.0,1300.0 L140.0,1280.0 L140.0,1260.0 L120.0,1260.0 L100.0,1260.0 L100.0,1240.0 L100.0,1220.0 L80.0,1220.0 L80.0,1240.0 L80.0,1260.0 L60.0,1260.0 L40.0,1260.0 L40.0,1280.0 L60.0,1280.0 L80.0,1280.0 L80.0,1300.0 L80.0,1320.0 L100.0,1320.0 L100.0,1300.0 L100.0,1280.0 L120.0,1280.0 L120.0,1300.0 L120.0,1320.0 L140.0,1320.0 L160.0,1320.0 L160.0,1340.0 L140.0,1340.0 L120.0,1340.0 L120.0,1360.0 L120.0,1380.0 L100.0,1380.0 L80.0,1380.0 L80.0,1400.0 L100.0,1400.0 L120.0,1400.0 L120.0,1420.0 L120.0,1440.0 L140.0,1440.0 L140.0,1420.0 L140.0,1400.0 L160.0,1400.0 L180.0,1400.0 L180.0,1380.0 L160.0,1380.0 L140.0,1380.0 L140.0,1360.0 L160.0,1360.0 L180.0,1360.0 L180.0,1340.0 L180.0,1320.0 L200.0,1320.0 L200.0,1340.0 L200.0,1360.0 L220.0,1360.0 L240.0,1360.0 L240.0,1380.0 L240.0,1400.0 L260.0,1400.0 L260.0,1380.0 L260.0,1360.0 L280.0,1360.0 L300.0,1360.0 L300.0,1340.0 L280.0,1340.0 L260.0,1340.0 L260.0,1320.0 L260.0,1300.0 L240.0,1300.0 L240.0,1320.0 L240.0,1340.0 L220.0,1340.0 L220.0,1320.0 L220.0,1300.0 L200.0,1300.0 L180.0,1300.0 L180.0,1280.0 L200.0,1280.0 L220.0,1280.0 L220.0,1260.0 L220.0,1240.0 L240.0,1240.0 L240.0,1260.0 L240.0,1280.0 L260.0,1280.0 L280.0,1280.0 L280.0,1300.0 L280.0,1320.0 L300.0,1320.0 L300.0,1300.0 L300.0,1280.0 L320.0,1280.0 L340.0,1280.0 L340.0,1260.0 L320.0,1260.0 L300.0,1260.0 L300.0,1240.0 L320.0,1240.0 L340.0,1240.0 L340.0,1220.0 L340.0,1200.0 L360.0,1200.0 L360.0,1220.0 L360.0,1240.0 L380.0,1240.0 L400.0,1240.0 L400.0,1260.0 L380.0,1260.0 L360.0,1260.0 L360.0,1280.0 L360.0,1300.0 L340.0,1300.0 L320.0,1300.0 L320.0,1320.0 L340.0,1320.0 L360.0,1320.0 L360.0,1340.0 L360.0,1360.0 L380.0,1360.0 L380.0,1340.0 L380.0,1320.0 L400.0,1320.0 L400.0,1340.0 L400.0,1360.0 L420.0,1360.0 L440.0,1360.0 L440.0,1380.0 L420.0,1380.0 L400.0,1380.0 L400.0,1400.0 L400.0,1420.0 L380.0,1420.0 L380.0,1400.0 L380.0,1380.0 L360.0,1380.0 L340.0,1380.0 L340.0,1360.0 L340.0,1340.0 L320.0,1340.0 L320.0,1360.0 L320.0,1380.0 L300.0,1380.0 L280.0,1380.0 L280.0,1400.0 L300.0,1400.0 L320.0,1400.0 L320.0,1420.0 L300.0,1420.0 L280.0,1420.0 L280.0,1440.0 L280.0,1460.0 L260.0,1460.0 L260.0,1440.0 L260.0,1420.0 L240.0,1420.0 L220.0,1420.0 L220.0,1400.0 L220.0,1380.0 L200.0,1380.0 L200.0,1400.0 L200.0,1420.0 L180.0,1420.0 L160.0,1420.0 L160.0,1440.0 L180.0,1440.0 L200.0,1440.0 L200.0,1460.0 L200.0,1480.0 L220.0,1480.0 L220.0,1460.0 L220.0,1440.0 L240.0,1440.0 L240.0,1460.0 L240.0,1480.0 L260.0,1480.0 L280.0,1480.0 L280.0,1500.0 L260.0,1500.0 L240.0,1500.0 L240.0,1520.0 L240.0,1540.0 L220.0,1540.0 L200.0,1540.0 L200.0,1560.0 L220.0,1560.0 L240.0,1560.0 L240.0,1580.0 L240.0,1600.0 L260.0,1600.0 L260.0,1580.0 L260.0,1560.0 L280.0,1560.0 L300.0,1560.0 L300.0,1540.0 L280.0,1540.0 L260.0,1540.0 L260.0,1520.0 L280.0,1520.0 L300.0,1520.0 L300.0,1500.0 L300.0,1480.0 L320.0,1480.0 L320.0,1500.0 L320.0,1520.0 L340.0,1520.0 L360.0,1520.0 L360.0,1540.0 L340.0,1540.0 L320.0,1540.0 L320.0,1560.0 L320.0,1580.0 L300.0,1580.0 L280.0,1580.0 L280.0,1600.0 L300.0,1600.0 L320.0,1600.0 L320.0,1620.0 L320.0,1640.0 L340.0,1640.0 L340.0,1620.0 L340.0,1600.0 L360.0,1600.0 L360.0,1620.0 L360.0,1640.0 L380.0,1640.0 L400.0,1640.0 L400.0,1660.0 L380.0,1660.0 L360.0,1660.0 L360.0,1680.0 L360.0,1700.0 L340.0,1700.0 L340.0,1680.0 L340.0,1660.0 L320.0,1660.0 L300.0,1660.0 L300.0,1640.0 L300.0,1620.0 L280.0,1620.0 L280.0,1640.0 L280.0,1660.0 L260.0,1660.0 L240.0,1660.0 L240.0,1680.0 L260.0,1680.0 L280.0,1680.0 L280.0,1700.0 L260.0,1700.0 L240.0,1700.0 L240.0,1720.0 L240.0,1740.0 L220.0,1740.0 L220.0,1720.0 L220.0,1700.0 L200.0,1700.0 L180.0,1700.0 L180.0,1680.0 L200.0,1680.0 L220.0,1680.0 L220.0,1660.0 L220.0,1640.0 L240.0,1640.0 L260.0,1640.0 L260.0,1620.0 L240.0,1620.0 L220.0,1620.0 L220.0,1600.0 L220.0,1580.0 L200.0,1580.0 L200.0,1600.0 L200.0,1620.0 L180.0,1620.0 L180.0,1600.0 L180.0,1580.0 L160.0,1580.0 L140.0,1580.0 L140.0,1560.0 L160.0,1560.0 L180.0,1560.0 L180.0,1540.0 L180.0,1520.0 L200.0,1520.0 L220.0,1520.0 L220.0,1500.0 L200.0,1500.0 L180.0,1500.0 L180.0,1480.0 L180.0,1460.0 L160.0,1460.0 L160.0,1480.0 L160.0,1500.0 L140.0,1500.0 L120.0,1500.0 L120.0,1520.0 L140.0,1520.0 L160.0,1520.0 L160.0,1540.0 L140.0,1540.0 L120.0,1540.0 L120.0,1560.0 L120.0,1580.0 L100.0,1580.0 L100.0,1560.0 L100.0,1540.0 L80.0,1540.0 L60.0,1540.0 L60.0,1520.0 L60.0,1500.0 L40.0,1500.0 L40.0,1520.0 L40.0,1540.0 L20.0,1540.0 L0.0,1540.0 L0.0,1560.0 L20.0,1560.0 L40.0,1560.0 L40.0,1580.0 L40.0,1600.0 L60.0,1600.0 L60.0,1580.0 L60.0,1560.0 L80.0,1560.0 L80.0,1580.0 L80.0,1600.0 L100.0,1600.0 L120.0,1600.0 L120.0,1620.0 L100.0,1620.0 L80.0,1620.0 L80.0,1640.0 L80.0,1660.0 L60.0,1660.0 L60.0,1640.0 L60.0,1620.0 L40.0,1620.0 L20.0,1620.0 L20.0,1600.0 L20.0,1580.0 L0.0,1580.0 L0.0,1600.0 L0.0,1620.0 L-20.0,1620.0 L-40.0,1620.0 L-40.0,1640.0 L-20.0,1640.0 L0.0,1640.0 L0.0,1660.0 L-20.0,1660.0 L-40.0,1660.0 L-40.0,1680.0 L-40.0,1700.0 L-60.0,1700.0 L-60.0,1680.0 L-60.0,1660.0 L-80.0,1660.0 L-100.0,1660.0 L-100.0,1640.0 L-80.0,1640.0 L-60.0,1640.0 L-60.0,1620.0 L-60.0,1600.0 L-40.0,1600.0 L-20.0,1600.0 L-20.0,1580.0 L-40.0,1580.0 L-60.0,1580.0 L-60.0,1560.0 L-60.0,1540.0 L-80.0,1540.0 L-80.0,1560.0 L-80.0,1580.0 L-100.0,1580.0 L-100.0,1560.0 L-100.0,1540.0 L-120.0,1540.0 L-140.0,1540.0 L-140.0,1520.0 L-120.0,1520.0 L-100.0,1520.0 L-100.0,1500.0 L-100.0,1480.0 L-80.0,1480.0 L-60.0,1480.0 L-60.0,1460.0 L-80.0,1460.0 L-100.0,1460.0 L-100.0,1440.0 L-100.0,1420.0 L-120.0,1420.0 L-120.0,1440.0 L-120.0,1460.0 L-140.0,1460.0 L-160.0,1460.0 L-160.0,1480.0 L-140.0,1480.0 L-120.0,1480.0 L-120.0,1500.0 L-140.0,1500.0 L-160.0,1500.0 L-160.0,1520.0 L-160.0,1540.0 L-180.0,1540.0 L-180.0,1520.0 L-180.0,1500.0 L-200.0,1500.0 L-220.0,1500.0 L-220.0,1480.0 L-220.0,1460.0 L-240.0,1460.0 L-240.0,1480.0 L-240.0,1500.0 L-260.0,1500.0 L-280.0,1500.0 L-280.0,1520.0 L-260.0,1520.0 L-240.0,1520.0 L-240.0,1540.0 L-240.0,1560.0 L-220.0,1560.0 L-220.0,1540.0 L-220.0,1520.0 L-200.0,1520.0 L-200.0,1540.0 L-200.0,1560.0 L-180.0,1560.0 L-160.0,1560.0 L-160.0,1580.0 L-180.0,1580.0 L-200.0,1580.0 L-200.0,1600.0 L-200.0,1620.0 L-220.0,1620.0 L-240.0,1620.0 L-240.0,1640.0 L-220.0,1640.0 L-200.0,1640.0 L-200.0,1660.0 L-200.0,1680.0 L-180.0,1680.0 L-180.0,1660.0 L-180.0,1640.0 L-160.0,1640.0 L-140.0,1640.0 L-140.0,1620.0 L-160.0,1620.0 L-180.0,1620.0 L-180.0,1600.0 L-160.0,1600.0 L-140.0,1600.0 L-140.0,1580.0 L-140.0,1560.0 L-120.0,1560.0 L-120.0,1580.0 L-120.0,1600.0 L-100.0,1600.0 L-80.0,1600.0 L-80.0,1620.0 L-100.0,1620.0 L-120.0,1620.0 L-120.0,1640.0 L-120.0,1660.0 L-140.0,1660.0 L-160.0,1660.0 L-160.0,1680.0 L-140.0,1680.0 L-120.0,1680.0 L-120.0,1700.0 L-120.0,1720.0 L-100.0,1720.0 L-100.0,1700.0 L-100.0,1680.0 L-80.0,1680.0 L-80.0,1700.0 L-80.0,1720.0 L-60.0,1720.0 L-40.0,1720.0 L-40.0,1740.0 L-60.0,1740.0 L-80.0,1740.0 L-80.0,1760.0 L-80.0,1780.0 L-100.0,1780.0 L-100.0,1760.0 L-100.0,1740.0 L-120.0,1740.0 L-140.0,1740.0 L-140.0,1720.0 L-140.0,1700.0 L-160.0,1700.0 L-160.0,1720.0 L-160.0,1740.0 L-180.0,1740.0 L-200.0,1740.0 L-200.0,1760.0 L-180.0,1760.0 L-160.0,1760.0 L-160.0,1780.0 L-180.0,1780.0 L-200.0,1780.0 L-200.0,1800.0 L-200.0,1820.0 L-220.0,1820.0 L-220.0,1800.0 L-220.0,1780.0 L-240.0,1780.0 L-260.0,1780.0 L-260.0,1760.0 L-240.0,1760.0 L-220.0,1760.0 L-220.0,1740.0 L-220.0,1720.0 L-200.0,1720.0 L-180.0,1720.0 L-180.0,1700.0 L-200.0,1700.0 L-220.0,1700.0 L-220.0,1680.0 L-220.0,1660.0 L-240.0,1660.0 L-240.0,1680.0 L-240.0,1700.0 L-260.0,1700.0 L-260.0,1680.0 L-260.0,1660.0 L-280.0,1660.0 L-300.0,1660.0 L-300.0,1640.0 L-280.0,1640.0 L-260.0,1640.0 L-260.0,1620.0 L-260.0,1600.0 L-240.0,1600.0 L-220.0,1600.0 L-220.0,1580.0 L-240.0,1580.0 L-260.0,1580.0 L-260.0,1560.0 L-260.0,1540.0 L-280.0,1540.0 L-280.0,1560.0 L-280.0,1580.0 L-300.0,1580.0 L-320.0,1580.0 L-320.0,1600.0 L-300.0,1600.0 L-280.0,1600.0 L-280.0,1620.0 L-300.0,1620.0 L-320.0,1620.0 L-320.0,1640.0 L-320.0,1660.0 L-340.0,1660.0 L-340.0,1640.0 L-340.0,1620.0 L-360.0,1620.0 L-380.0,1620.0 L-380.0,1600.0 L-380.0,1580.0 L-400.0,1580.0 L-400.0,1600.0 L-400.0,1620.0 L-420.0,1620.0 L-440.0,1620.0 L-440.0,1640.0 L-420.0,1640.0 L-400.0,1640.0 L-400.0,1660.0 L-400.0,1680.0 L-380.0,1680.0 L-380.0,1660.0 L-380.0,1640.0 L-360.0,1640.0 L-360.0,1660.0 L-360.0,1680.0 L-340.0,1680.0 L-320.0,1680.0 L-320.0,1700.0 L-340.0,1700.0 L-360.0,1700.0 L-360.0,1720.0 L-360.0,1740.0 L-380.0,1740.0 L-380.0,1720.0 L-380.0,1700.0 L-400.0,1700.0 L-420.0,1700.0 L-420.0,1680.0 L-420.0,1660.0 L-440.0,1660.0 L-440.0,1680.0 L-440.0,1700.0 L-460.0,1700.0 L-480.0,1700.0 L-480.0,1720.0 L-460.0,1720.0 L-440.0,1720.0 L-440.0,1740.0 L-460.0,1740.0 L-480.0,1740.0 L-480.0,1760.0 L-480.0,1780.0 L-500.0,1780.0 L-500.0,1760.0 L-500.0,1740.0 L-520.0,1740.0 L-540.0,1740.0 L-540.0,1720.0 L-520.0,1720.0 L-500.0,1720.0 L-500.0,1700.0 L-500.0,1680.0 L-480.0,1680.0 L-460.0,1680.0 L-460.0,1660.0 L-480.0,1660.0 L-500.0,1660.0 L-500.0,1640.0 L-500.0,1620.0 L-520.0,1620.0 L-520.0,1640.0 L-520.0,1660.0 L-540.0,1660.0 L-540.0,1640.0 L-540.0,1620.0 L-560.0,1620.0 L-580.0,1620.0 L-580.0,1600.0 L-560.0,1600.0 L-540.0,1600.0 L-540.0,1580.0 L-540.0,1560.0 L-520.0,1560.0 L-500.0,1560.0 L-500.0,1540.0 L-520.0,1540.0 L-540.0,1540.0 L-540.0,1520.0 L-540.0,1500.0 L-560.0,1500.0 L-560.0,1520.0 L-560.0,1540.0 L-580.0,1540.0 L-600.0,1540.0 L-600.0,1560.0 L-580.0,1560.0 L-560.0,1560.0 L-560.0,1580.0 L-580.0,1580.0 L-600.0,1580.0 L-600.0,1600.0 L-600.0,1620.0 L-620.0,1620.0 L-620.0,1600.0 L-620.0,1580.0 L-640.0,1580.0 L-660.0,1580.0 L-660.0,1560.0 L-660.0,1540.0 L-680.0,1540.0 L-680.0,1560.0 L-680.0,1580.0 L-700.0,1580.0 L-720.0,1580.0 L-720.0,1600.0 L-700.0,1600.0 L-680.0,1600.0 L-680.0,1620.0 L-680.0,1640.0 L-660.0,1640.0 L-660.0,1620.0 L-660.0,1600.0 L-640.0,1600.0 L-640.0,1620.0 L-640.0,1640.0 L-620.0,1640.0 L-600.0,1640.0 L-600.0,1660.0 L-620.0,1660.0 L-640.0,1660.0 L-640.0,1680.0 L-640.0,1700.0 L-660.0,1700.0 L-680.0,1700.0 L-680.0,1720.0 L-660.0,1720.0 L-640.0,1720.0 L-640.0,1740.0 L-640.0,1760.0 L-620.0,1760.0 L-620.0,1740.0 L-620.0,1720.0 L-600.0,1720.0 L-580.0,1720.0 L-580.0,1700.0 L-600.0,1700.0 L-620.0,1700.0 L-620.0,1680.0 L-600.0,1680.0 L-580.0,1680.0 L-580.0,1660.0 L-580.0,1640.0 L-560.0,1640.0 L-560.0,1660.0 L-560.0,1680.0 L-540.0,1680.0 L-520.0,1680.0 L-520.0,1700.0 L-540.0,1700.0 L-560.0,1700.0 L-560.0,1720.0 L-560.0,1740.0 L-580.0,1740.0 L-600.0,1740.0 L-600.0,1760.0 L-580.0,1760.0 L-560.0,1760.0 L-560.0,1780.0 L-560.0,1800.0 L-540.0,1800.0 L-540.0,1780.0 L-540.0,1760.0 L-520.0,1760.0 L-520.0,1780.0 L-520.0,1800.0 L-500.0,1800.0 L-480.0,1800.0 L-480.0,1820.0 L-500.0,1820.0 L-520.0,1820.0 L-520.0,1840.0 L-520.0,1860.0 L-540.0,1860.0 L-540.0,1840.0 L-540.0,1820.0 L-560.0,1820.0 L-580.0,1820.0 L-580.0,1800.0 L-580.0,1780.0 L-600.0,1780.0 L-600.0,1800.0 L-600.0,1820.0 L-620.0,1820.0 L-640.0,1820.0 L-640.0,1840.0 L-620.0,1840.0 L-600.0,1840.0 L-600.0,1860.0 L-620.0,1860.0 L-640.0,1860.0 L-640.0,1880.0 L-640.0,1900.0 L-660.0,1900.0 L-660.0,1880.0 L-660.0,1860.0 L-680.0,1860.0 L-700.0,1860.0 L-700.0,1840.0 L-680.0,1840.0 L-660.0,1840.0 L-660.0,1820.0 L-660.0,1800.0 L-640.0,1800.0 L-620.0,1800.0 L-620.0,1780.0 L-640.0,1780.0 L-660.0,1780.0 L-660.0,1760.0 L-660.0,1740.0 L-680.0,1740.0 L-680.0,1760.0 L-680.0,1780.0 L-700.0,1780.0 L-700.0,1760.0 L-700.0,1740.0 L-720.0,1740.0 L-740.0,1740.0 L-740.0,1720.0 L-720.0,1720.0 L-700.0,1720.0 L-700.0,1700.0 L-700.0,1680.0 L-680.0,1680.0 L-660.0,1680.0 L-660.0,1660.0 L-680.0,1660.0 L-700.0,1660.0 L-700.0,1640.0 L-700.0,1620.0 L-720.0,1620.0 L-720.0,1640.0 L-720.0,1660.0 L-740.0,1660.0 L-760.0,1660.0 L-760.0,1680.0 L-740.0,1680.0 L-720.0,1680.0 L-720.0,1700.0 L-740.0,1700.0 L-760.0,1700.0 L-760.0,1720.0 L-760.0,1740.0 L-780.0,1740.0 L-780.0,1720.0 L-780.0,1700.0 L-800.0,1700.0 L-820.0,1700.0 L-820.0,1680.0 L-820.0,1660.0 L-840.0,1660.0 L-840.0,1680.0 L-840.0,1700.0 L-860.0,1700.0 L-880.0,1700.0 L-880.0,1720.0 L-860.0,1720.0 L-840.0,1720.0 L-840.0,1740.0 L-840.0,1760.0 L-820.0,1760.0 L-820.0,1740.0 L-820.0,1720.0 L-800.0,1720.0 L-800.0,1740.0 L-800.0,1760.0 L-780.0,1760.0 L-760.0,1760.0 L-760.0,1780.0 L-780.0,1780.0 L-800.0,1780.0 L-800.0,1800.0 L-800.0,1820.0 L-820.0,1820.0 L-820.0,1800.0 L-820.0,1780.0 L-840.0,1780.0 L-860.0,1780.0 L-860.0,1760.0 L-860.0,1740.0 L-880.0,1740.0 L-880.0,1760.0 L-880.0,1780.0 L-900.0,1780.0 L-920.0,1780.0 L-920.0,1800.0 L-900.0,1800.0 L-880.0,1800.0 L-880.0,1820.0 L-900.0,1820.0 L-920.0,1820.0 L-920.0,1840.0 L-920.0,1860.0 L-940.0,1860.0 L-940.0,1840.0 L-940.0,1820.0 L-960.0,1820.0 L-980.0,1820.0 L-980.0,1800.0 L-960.0,1800.0 L-940.0,1800.0 L-940.0,1780.0 L-940.0,1760.0 L-920.0,1760.0 L-900.0,1760.0 L-900.0,1740.0 L-920.0,1740.0 L-940.0,1740.0 L-940.0,1720.0 L-940.0,1700.0 L-960.0,1700.0 L-960.0,1720.0 L-960.0,1740.0 L-980.0,1740.0 L-980.0,1720.0 L-980.0,1700.0 L-1000.0,1700.0 L-1020.0,1700.0 L-1020.0,1680.0 L-1000.0,1680.0 L-980.0,1680.0 L-980.0,1660.0 L-980.0,1640.0 L-960.0,1640.0 L-940.0,1640.0 L-940.0,1620.0 L-960.0,1620.0 L-980.0,1620.0 L-980.0,1600.0 L-980.0,1580.0 L-1000.0,1580.0 L-1000.0,1600.0 L-1000.0,1620.0 L-1020.0,1620.0 L-1040.0,1620.0 L-1040.0,1640.0 L-1020.0,1640.0 L-1000.0,1640.0 L-1000.0,1660.0 L-1020.0,1660.0 L-1040.0,1660.0 L-1040.0,1680.0 L-1040.0,1700.0 L-1060.0,1700.0 L-1060.0,1680.0 L-1060.0,1660.0 L-1080.0,1660.0 L-1100.0,1660.0 L-1100.0,1640.0 L-1100.0,1620.0 L-1120.0,1620.0 L-1120.0,1640.0 L-1120.0,1660.0 L-1140.0,1660.0 L-1160.0,1660.0 L-1160.0,1680.0 L-1140.0,1680.0 L-1120.0,1680.0 L-1120.0,1700.0 L-1120.0,1720.0 L-1100.0,1720.0 L-1100.0,1700.0 L-1100.0,1680.0 L-1080.0,1680.0 L-1080.0,1700.0 L-1080.0,1720.0 L-1060.0,1720.0 L-1040.0,1720.0 L-1040.0,1740.0 L-1060.0,1740.0 L-1080.0,1740.0 L-1080.0,1760.0 L-1080.0,1780.0 L-1100.0,1780.0 L-1120.0,1780.0 L-1120.0,1800.0 L-1100.0,1800.0 L-1080.0,1800.0 L-1080.0,1820.0 L-1080.0,1840.0 L-1060.0,1840.0 L-1060.0,1820.0 L-1060.0,1800.0 L-1040.0,1800.0 L-1020.0,1800.0 L-1020.0,1780.0 L-1040.0,1780.0 L-1060.0,1780.0 L-1060.0,1760.0 L-1040.0,1760.0 L-1020.0,1760.0 L-1020.0,1740.0 L-1020.0,1720.0 L-1000.0,1720.0 L-1000.0,1740.0 L-1000.0,1760.0 L-980.0,1760.0 L-960.0,1760.0 L-960.0,1780.0 L-980.0,1780.0 L-1000.0,1780.0 L-1000.0,1800.0 L-1000.0,1820.0 L-1020.0,1820.0 L-1040.0,1820.0 L-1040.0,1840.0 L-1020.0,1840.0 L-1000.0,1840.0 L-1000.0,1860.0 L-1000.0,1880.0 L-980.0,1880.0 L-980.0,1860.0 L-980.0,1840.0 L-960.0,1840.0 L-960.0,1860.0 L-960.0,1880.0 L-940.0,1880.0 L-920.0,1880.0 L-920.0,1900.0 L-940.0,1900.0 L-960.0,1900.0 L-960.0,1920.0 L-960.0,1940.0 L-980.0,1940.0 L-980.0,1920.0 L-980.0,1900.0 L-1000.0,1900.0 L-1020.0,1900.0 L-1020.0,1880.0 L-1020.0,1860.0 L-1040.0,1860.0 L-1040.0,1880.0 L-1040.0,1900.0 L-1060.0,1900.0 L-1080.0,1900.0 L-1080.0,1920.0 L-1060.0,1920.0 L-1040.0,1920.0 L-1040.0,1940.0 L-1060.0,1940.0 L-1080.0,1940.0 L-1080.0,1960.0 L-1080.0,1980.0 L-1100.0,1980.0 L-1100.0,1960.0 L-1100.0,1940.0 L-1120.0,1940.0 L-1140.0,1940.0 L-1140.0,1920.0 L-1120.0,1920.0 L-1100.0,1920.0 L-1100.0,1900.0 L-1100.0,1880.0 L-1080.0,1880.0 L-1060.0,1880.0 L-1060.0,1860.0 L-1080.0,1860.0 L-1100.0,1860.0 L-1100.0,1840.0 L-1100.0,1820.0 L-1120.0,1820.0 L-1120.0,1840.0 L-1120.0,1860.0 L-1140.0,1860.0 L-1140.0,1840.0 L-1140.0,1820.0 L-1160.0,1820.0 L-1180.0,1820.0 L-1180.0,1800.0 L-1160.0,1800.0 L-1140.0,1800.0 L-1140.0,1780.0 L-1140.0,1760.0 L-1120.0,1760.0 L-1100.0,1760.0 L-1100.0,1740.0 L-1120.0,1740.0 L-1140.0,1740.0 L-1140.0,1720.0 L-1140.0,1700.0 L-1160.0,1700.0 L-1160.0,1720.0 L-1160.0,1740.0 L-1180.0,1740.0 L-1200.0,1740.0 L-1200.0,1760.0 L-1180.0,1760.0 L-1160.0,1760.0 L-1160.0,1780.0 L-1180.0,1780.0 L-1200.0,1780.0 L-1200.0,1800.0 L-1200.0,1820.0 L-1220.0,1820.0 L-1220.0,1800.0 L-1220.0,1780.0 L-1240.0,1780.0 L-1260.0,1780.0 L-1260.0,1760.0 L-1260.0,1740.0 L-1280.0,1740.0 L-1280.0,1760.0 L-1280.0,1780.0 L-1300.0,1780.0 L-1320.0,1780.0 L-1320.0,1800.0 L-1300.0,1800.0 L-1280.0,1800.0 L-1280.0,1820.0 L-1280.0,1840.0 L-1260.0,1840.0 L-1260.0,1820.0 L-1260.0,1800.0 L-1240.0,1800.0 L-1240.0,1820.0 L-1240.0,1840.0 L-1220.0,1840.0 L-1200.0,1840.0 L-1200.0,1860.0 L-1220.0,1860.0 L-1240.0,1860.0 L-1240.0,1880.0 L-1240.0,1900.0 L-1260.0,1900.0 L-1260.0,1880.0 L-1260.0,1860.0 L-1280.0,1860.0 L-1300.0,1860.0 L-1300.0,1840.0 L-1300.0,1820.0 L-1320.0,1820.0 L-1320.0,1840.0 L-1320.0,1860.0 L-1340.0,1860.0 L-1360.0,1860.0 L-1360.0,1880.0 L-1340.0,1880.0 L-1320.0,1880.0 L-1320.0,1900.0 L-1340.0,1900.0 L-1360.0,1900.0 L-1360.0,1920.0 L-1360.0,1940.0 L-1380.0,1940.0 L-1380.0,1920.0 L-1380.0,1900.0 L-1400.0,1900.0 L-1420.0,1900.0 L-1420.0,1880.0 L-1400.0,1880.0 L-1380.0,1880.0 L-1380.0,1860.0 L-1380.0,1840.0 L-1360.0,1840.0 L-1340.0,1840.0 L-1340.0,1820.0 L-1360.0,1820.0 L-1380.0,1820.0 L-1380.0,1800.0 L-1380.0,1780.0 L-1400.0,1780.0 L-1400.0,1800.0 L-1400.0,1820.0 L-1420.0,1820.0 L-1420.0,1800.0 L-1420.0,1780.0 L-1440.0,1780.0 L-1460.0,1780.0 L-1460.0,1760.0 L-1440.0,1760.0 L-1420.0,1760.0 L-1420.0,1740.0 L-1420.0,1720.0 L-1400.0,1720.0 L-1400.0,1740.0 L-1400.0,1760.0 L-1380.0,1760.0 L-1360.0,1760.0 L-1360.0,1780.0 L-1360.0,1800.0 L-1340.0,1800.0 L-1340.0,1780.0 L-1340.0,1760.0 L-1320.0,1760.0 L-1300.0,1760.0 L-1300.0,1740.0 L-1320.0,1740.0 L-1340.0,1740.0 L-1340.0,1720.0 L-1320.0,1720.0 L-1300.0,1720.0 L-1300.0,1700.0 L-1300.0,1680.0 L-1280.0,1680.0 L-1280.0,1700.0 L-1280.0,1720.0 L-1260.0,1720.0 L-1240.0,1720.0 L-1240.0,1740.0 L-1240.0,1760.0 L-1220.0,1760.0 L-1220.0,1740.0 L-1220.0,1720.0 L-1200.0,1720.0 L-1180.0,1720.0 L-1180.0,1700.0 L-1200.0,1700.0 L-1220.0,1700.0 L-1220.0,1680.0 L-1220.0,1660.0 L-1240.0,1660.0 L-1240.0,1680.0 L-1240.0,1700.0 L-1260.0,1700.0 L-1260.0,1680.0 L-1260.0,1660.0 L-1280.0,1660.0 L-1300.0,1660.0 L-1300.0,1640.0 L-1280.0,1640.0 L-1260.0,1640.0 L-1260.0,1620.0 L-1260.0,1600.0 L-1240.0,1600.0 L-1220.0,1600.0 L-1220.0,1580.0 L-1240.0,1580.0 L-1260.0,1580.0 L-1260.0,1560.0 L-1260.0,1540.0 L-1280.0,1540.0 L-1280.0,1560.0 L-1280.0,1580.0 L-1300.0,1580.0 L-1320.0,1580.0 L-1320.0,1600.0 L-1300.0,1600.0 L-1280.0,1600.0 L-1280.0,1620.0 L-1300.0,1620.0 L-1320.0,1620.0 L-1320.0,1640.0 L-1320.0,1660.0 L-1340.0,1660.0 L-1340.0,1640.0 L-1340.0,1620.0 L-1360.0,1620.0 L-1380.0,1620.0 L-1380.0,1600.0 L-1360.0,1600.0 L-1340.0,1600.0 L-1340.0,1580.0 L-1340.0,1560.0 L-1320.0,1560.0 L-1300.0,1560.0 L-1300.0,1540.0 L-1320.0,1540.0 L-1340.0,1540.0 L-1340.0,1520.0 L-1340.0,1500.0 L-1360.0,1500.0 L-1360.0,1520.0 L-1360.0,1540.0 L-1380.0,1540.0 L-1380.0,1520.0 L-1380.0,1500.0 L-1400.0,1500.0 L-1420.0,1500.0 L-1420.0,1480.0 L-1400.0,1480.0 L-1380.0,1480.0 L-1380.0,1460.0 L-1380.0,1440.0 L-1360.0,1440.0 L-1360.0,1460.0 L-1360.0,1480.0 L-1340.0,1480.0 L-1320.0,1480.0 L-1320.0,1500.0 L-1320.0,1520.0 L-1300.0,1520.0 L-1300.0,1500.0 L-1300.0,1480.0 L-1280.0,1480.0 L-1260.0,1480.0 L-1260.0,1460.0 L-1280.0,1460.0 L-1300.0,1460.0 L-1300.0,1440.0 L-1280.0,1440.0 L-1260.0,1440.0 L-1260.0,1420.0 L-1260.0,1400.0 L-1240.0,1400.0 L-1240.0,1420.0 L-1240.0,1440.0 L-1220.0,1440.0 L-1200.0,1440.0 L-1200.0,1460.0 L-1200.0,1480.0 L-1180.0,1480.0 L-1180.0,1460.0 L-1180.0,1440.0 L-1160.0,1440.0 L-1140.0,1440.0 L-1140.0,1420.0 L-1160.0,1420.0 L-1180.0,1420.0 L-1180.0,1400.0 L-1180.0,1380.0 L-1200.0,1380.0 L-1200.0,1400.0 L-1200.0,1420.0 L-1220.0,1420.0 L-1220.0,1400.0 L-1220.0,1380.0 L-1240.0,1380.0 L-1260.0,1380.0 L-1260.0,1360.0 L-1240.0,1360.0 L-1220.0,1360.0 L-1220.0,1340.0 L-1220.0,1320.0 L-1200.0,1320.0 L-1180.0,1320.0 L-1180.0,1300.0 L-1200.0,1300.0 L-1220.0,1300.0 L-1220.0,1280.0 L-1220.0,1260.0 L-1240.0,1260.0 L-1240.0,1280.0 L-1240.0,1300.0 L-1260.0,1300.0 L-1280.0,1300.0 L-1280.0,1320.0 L-1260.0,1320.0 L-1240.0,1320.0 L-1240.0,1340.0 L-1260.0,1340.0 L-1280.0,1340.0 L-1280.0,1360.0 L-1280.0,1380.0 L-1300.0,1380.0 L-1300.0,1360.0 L-1300.0,1340.0 L-1320.0,1340.0 L-1340.0,1340.0 L-1340.0,1320.0 L-1340.0,1300.0 L-1360.0,1300.0 L-1360.0,1320.0 L-1360.0,1340.0 L-1380.0,1340.0 L-1400.0,1340.0 L-1400.0,1360.0 L-1380.0,1360.0 L-1360.0,1360.0 L-1360.0,1380.0 L-1360.0,1400.0 L-1340.0,1400.0 L-1340.0,1380.0 L-1340.0,1360.0 L-1320.0,1360.0 L-1320.0,1380.0 L-1320.0,1400.0 L-1300.0,1400.0 L-1280.0,1400.0 L-1280.0,1420.0 L-1300.0,1420.0 L-1320.0,1420.0 L-1320.0,1440.0 L-1320.0,1460.0 L-1340.0,1460.0 L-1340.0,1440.0 L-1340.0,1420.0 L-1360.0,1420.0 L-1380.0,1420.0 L-1380.0,1400.0 L-1380.0,1380.0 L-1400.0,1380.0 L-1400.0,1400.0 L-1400.0,1420.0 L-1420.0,1420.0 L-1440.0,1420.0 L-1440.0,1440.0 L-1420.0,1440.0 L-1400.0,1440.0 L-1400.0,1460.0 L-1420.0,1460.0 L-1440.0,1460.0 L-1440.0,1480.0 L-1440.0,1500.0 L-1460.0,1500.0 L-1460.0,1480.0 L-1460.0,1460.0 L-1480.0,1460.0 L-1500.0,1460.0 L-1500.0,1440.0 L-1480.0,1440.0 L-1460.0,1440.0 L-1460.0,1420.0 L-1460.0,1400.0 L-1440.0,1400.0 L-1420.0,1400.0 L-1420.0,1380.0 L-1440.0,1380.0 L-1460.0,1380.0 L-1460.0,1360.0 L-1460.0,1340.0 L-1480.0,1340.0 L-1480.0,1360.0 L-1480.0,1380.0 L-1500.0,1380.0 L-1500.0,1360.0 L-1500.0,1340.0 L-1520.0,1340.0 L-1540.0,1340.0 L-1540.0,1320.0 L-1520.0,1320.0 L-1500.0,1320.0 L-1500.0,1300.0 L-1500.0,1280.0 L-1480.0,1280.0 L-1480.0,1300.0 L-1480.0,1320.0 L-1460.0,1320.0 L-1440.0,1320.0 L-1440.0,1340.0 L-1440.0,1360.0 L-1420.0,1360.0 L-1420.0,1340.0 L-1420.0,1320.0 L-1400.0,1320.0 L-1380.0,1320.0 L-1380.0,1300.0 L-1400.0,1300.0 L-1420.0,1300.0 L-1420.0,1280.0 L-1400.0,1280.0 L-1380.0,1280.0 L-1380.0,1260.0 L-1380.0,1240.0 L-1360.0,1240.0 L-1360.0,1260.0 L-1360.0,1280.0 L-1340.0,1280.0 L-1320.0,1280.0 L-1320.0,1300.0 L-1320.0,1320.0 L-1300.0,1320.0 L-1300.0,1300.0 L-1300.0,1280.0 L-1280.0,1280.0 L-1260.0,1280.0 L-1260.0,1260.0 L-1280.0,1260.0 L-1300.0,1260.0 L-1300.0,1240.0 L-1300.0,1220.0 L-1320.0,1220.0 L-1320.0,1240.0 L-1320.0,1260.0 L-1340.0,1260.0 L-1340.0,1240.0 L-1340.0,1220.0 L-1360.0,1220.0 L-1380.0,1220.0 L-1380.0,1200.0 L-1360.0,1200.0 L-1340.0,1200.0 L-1340.0,1180.0 L-1340.0,1160.0 L-1320.0,1160.0 L-1300.0,1160.0 L-1300.0,1140.0 L-1320.0,1140.0 L-1340.0,1140.0 L-1340.0,1120.0 L-1340.0,1100.0 L-1360.0,1100.0 L-1360.0,1120.0 L-1360.0,1140.0 L-1380.0,1140.0 L-1400.0,1140.0 L-1400.0,1160.0 L-1380.0,1160.0 L-1360.0,1160.0 L-1360.0,1180.0 L-1380.0,1180.0 L-1400.0,1180.0 L-1400.0,1200.0 L-1400.0,1220.0 L-1420.0,1220.0 L-1420.0,1200.0 L-1420.0,1180.0 L-1440.0,1180.0 L-1460.0,1180.0 L-1460.0,1160.0 L-1440.0,1160.0 L-1420.0,1160.0 L-1420.0,1140.0 L-1420.0,1120.0 L-1400.0,1120.0 L-1380.0,1120.0 L-1380.0,1100.0 L-1400.0,1100.0 L-1420.0,1100.0 L-1420.0,1080.0 L-1420.0,1060.0 L-1440.0,1060.0 L-1440.0,1080.0 L-1440.0,1100.0 L-1460.0,1100.0 L-1460.0,1080.0 L-1460.0,1060.0 L-1480.0,1060.0 L-1500.0,1060.0 L-1500.0,1040.0 L-1480.0,1040.0 L-1460.0,1040.0 L-1460.0,1020.0 L-1460.0,1000.0 L-1440.0,1000.0 L-1440.0,1020.0 L-1440.0,1040.0 L-1420.0,1040.0 L-1400.0,1040.0 L-1400.0,1060.0 L-1400.0,1080.0 L-1380.0,1080.0 L-1380.0,1060.0 L-1380.0,1040.0 L-1360.0,1040.0 L-1340.0,1040.0 L-1340.0,1020.0 L-1360.0,1020.0 L-1380.0,1020.0 L-1380.0,1000.0 L-1360.0,1000.0 L-1340.0,1000.0 L-1340.0,980.0 L-1340.0,960.0 L-1320.0,960.0 L-1320.0,980.0 L-1320.0,1000.0 L-1300.0,1000.0 L-1280.0,1000.0 L-1280.0,1020.0 L-1280.0,1040.0 L-1260.0,1040.0 L-1260.0,1020.0 L-1260.0,1000.0 L-1240.0,1000.0 L-1220.0,1000.0 L-1220.0,980.0 L-1240.0,980.0 L-1260.0,980.0 L-1260.0,960.0 L-1260.0,940.0 L-1280.0,940.0 L-1280.0,960.0 L-1280.0,980.0 L-1300.0,980.0 L-1300.0,960.0 L-1300.0,940.0 L-1320.0,940.0 L-1340.0,940.0 L-1340.0,920.0 L-1320.0,920.0 L-1300.0,920.0 L-1300.0,900.0 L-1300.0,880.0 L-1280.0,880.0 L-1260.0,880.0 L-1260.0,860.0 L-1280.0,860.0 L-1300.0,860.0 L-1300.0,840.0 L-1300.0,820.0 L-1320.0,820.0 L-1320.0,840.0 L-1320.0,860.0 L-1340.0,860.0 L-1360.0,860.0 L-1360.0,880.0 L-1340.0,880.0 L-1320.0,880.0 L-1320.0,900.0 L-1340.0,900.0 L-1360.0,900.0 L-1360.0,920.0 L-1360.0,940.0 L-1380.0,940.0 L-1380.0,920.0 L-1380.0,900.0 L-1400.0,900.0 L-1420.0,900.0 L-1420.0,880.0 L-1420.0,860.0 L-1440.0,860.0 L-1440.0,880.0 L-1440.0,900.0 L-1460.0,900.0 L-1480.0,900.0 L-1480.0,920.0 L-1460.0,920.0 L-1440.0,920.0 L-1440.0,940.0 L-1440.0,960.0 L-1420.0,960.0 L-1420.0,940.0 L-1420.0,920.0 L-1400.0,920.0 L-1400.0,940.0 L-1400.0,960.0 L-1380.0,960.0 L-1360.0,960.0 L-1360.0,980.0 L-1380.0,980.0 L-1400.0,980.0 L-1400.0,1000.0 L-1400.0,1020.0 L-1420.0,1020.0 L-1420.0,1000.0 L-1420.0,980.0 L-1440.0,980.0 L-1460.0,980.0 L-1460.0,960.0 L-1460.0,940.0 L-1480.0,940.0 L-1480.0,960.0 L-1480.0,980.0 L-1500.0,980.0 L-1520.0,980.0 L-1520.0,1000.0 L-1500.0,1000.0 L-1480.0,1000.0 L-1480.0,1020.0 L-1500.0,1020.0 L-1520.0,1020.0 L-1520.0,1040.0 L-1520.0,1060.0 L-1540.0,1060.0 L-1540.0,1040.0 L-1540.0,1020.0 L-1560.0,1020.0 L-1580.0,1020.0 L-1580.0,1000.0 L-1560.0,1000.0 L-1540.0,1000.0 L-1540.0,980.0 L-1540.0,960.0 L-1520.0,960.0 L-1500.0,960.0 L-1500.0,940.0 L-1520.0,940.0 L-1540.0,940.0 L-1540.0,920.0 L-1540.0,900.0 L-1560.0,900.0 L-1560.0,920.0 L-1560.0,940.0 L-1580.0,940.0 L-1580.0,920.0 L-1580.0,900.0 L-1600.0,900.0 L-1620.0,900.0 L-1620.0,880.0 L-1600.0,880.0 L-1580.0,880.0 L-1580.0,860.0 L-1580.0,840.0 L-1560.0,840.0 L-1560.0,860.0 L-1560.0,880.0 L-1540.0,880.0 L-1520.0,880.0 L-1520.0,900.0 L-1520.0,920.0 L-1500.0,920.0 L-1500.0,900.0 L-1500.0,880.0 L-1480.0,880.0 L-1460.0,880.0 L-1460.0,860.0 L-1480.0,860.0 L-1500.0,860.0 L-1500.0,840.0 L-1480.0,840.0 L-1460.0,840.0 L-1460.0,820.0 L-1460.0,800.0 L-1440.0,800.0 L-1440.0,820.0 L-1440.0,840.0 L-1420.0,840.0 L-1400.0,840.0 L-1400.0,860.0 L-1400.0,880.0 L-1380.0,880.0 L-1380.0,860.0 L-1380.0,840.0 L-1360.0,840.0 L-1340.0,840.0 L-1340.0,820.0 L-1360.0,820.0 L-1380.0,820.0 L-1380.0,800.0 L-1380.0,780.0 L-1400.0,780.0 L-1400.0,800.0 L-1400.0,820.0 L-1420.0,820.0 L-1420.0,800.0 L-1420.0,780.0 L-1440.0,780.0 L-1460.0,780.0 L-1460.0,760.0 L-1440.0,760.0 L-1420.0,760.0 L-1420.0,740.0 L-1420.0,720.0 L-1400.0,720.0 L-1380.0,720.0 L-1380.0,700.0 L-1400.0,700.0 L-1420.0,700.0 L-1420.0,680.0 L-1420.0,660.0 L-1440.0,660.0 L-1440.0,680.0 L-1440.0,700.0 L-1460.0,700.0 L-1480.0,700.0 L-1480.0,720.0 L-1460.0,720.0 L-1440.0,720.0 L-1440.0,740.0 L-1460.0,740.0 L-1480.0,740.0 L-1480.0,760.0 L-1480.0,780.0 L-1500.0,780.0 L-1500.0,760.0 L-1500.0,740.0 L-1520.0,740.0 L-1540.0,740.0 L-1540.0,720.0 L-1520.0,720.0 L-1500.0,720.0 L-1500.0,700.0 L-1500.0,680.0 L-1480.0,680.0 L-1460.0,680.0 L-1460.0,660.0 L-1480.0,660.0 L-1500.0,660.0 L-1500.0,640.0 L-1500.0,620.0 L-1520.0,620.0 L-1520.0,640.0 L-1520.0,660.0 L-1540.0,660.0 L-1540.0,640.0 L-1540.0,620.0 L-1560.0,620.0 L-1580.0,620.0 L-1580.0,600.0 L-1560.0,600.0 L-1540.0,600.0 L-1540.0,580.0 L-1540.0,560.0 L-1520.0,560.0 L-1520.0,580.0 L-1520.0,600.0 L-1500.0,600.0 L-1480.0,600.0 L-1480.0,620.0 L-1480.0,640.0 L-1460.0,640.0 L-1460.0,620.0 L-1460.0,600.0 L-1440.0,600.0 L-1420.0,600.0 L-1420.0,580.0 L-1440.0,580.0 L-1460.0,580.0 L-1460.0,560.0 L-1440.0,560.0 L-1420.0,560.0 L-1420.0,540.0 L-1420.0,520.0 L-1400.0,520.0 L-1400.0,540.0 L-1400.0,560.0 L-1380.0,560.0 L-1360.0,560.0 L-1360.0,580.0 L-1360.0,600.0 L-1340.0,600.0 L-1340.0,580.0 L-1340.0,560.0 L-1320.0,560.0 L-1300.0,560.0 L-1300.0,540.0 L-1320.0,540.0 L-1340.0,540.0 L-1340.0,520.0 L-1340.0,500.0 L-1360.0,500.0 L-1360.0,520.0 L-1360.0,540.0 L-1380.0,540.0 L-1380.0,520.0 L-1380.0,500.0 L-1400.0,500.0 L-1420.0,500.0 L-1420.0,480.0 L-1400.0,480.0 L-1380.0,480.0 L-1380.0,460.0 L-1380.0,440.0 L-1360.0,440.0 L-1340.0,440.0 L-1340.0,420.0 L-1360.0,420.0 L-1380.0,420.0 L-1380.0,400.0 L-1380.0,380.0 L-1400.0,380.0 L-1400.0,400.0 L-1400.0,420.0 L-1420.0,420.0 L-1440.0,420.0 L-1440.0,440.0 L-1420.0,440.0 L-1400.0,440.0 L-1400.0,460.0 L-1420.0,460.0 L-1440.0,460.0 L-1440.0,480.0 L-1440.0,500.0 L-1460.0,500.0 L-1460.0,480.0 L-1460.0,460.0 L-1480.0,460.0 L-1500.0,460.0 L-1500.0,440.0 L-1500.0,420.0 L-1520.0,420.0 L-1520.0,440.0 L-1520.0,460.0 L-1540.0,460.0 L-1560.0,460.0 L-1560.0,480.0 L-1540.0,480.0 L-1520.0,480.0 L-1520.0,500.0 L-1520.0,520.0 L-1500.0,520.0 L-1500.0,500.0 L-1500.0,480.0 L-1480.0,480.0 L-1480.0,500.0 L-1480.0,520.0 L-1460.0,520.0 L-1440.0,520.0 L-1440.0,540.0 L-1460.0,540.0 L-1480.0,540.0 L-1480.0,560.0 L-1480.0,580.0 L-1500.0,580.0 L-1500.0,560.0 L-1500.0,540.0 L-1520.0,540.0 L-1540.0,540.0 L-1540.0,520.0 L-1540.0,500.0 L-1560.0,500.0 L-1560.0,520.0 L-1560.0,540.0 L-1580.0,540.0 L-1600.0,540.0 L-1600.0,560.0 L-1580.0,560.0 L-1560.0,560.0 L-1560.0,580.0 L-1580.0,580.0 L-1600.0,580.0 L-1600.0,600.0 L-1600.0,620.0 L-1620.0,620.0 L-1620.0,600.0 L-1620.0,580.0 L-1640.0,580.0 L-1660.0,580.0 L-1660.0,560.0 L-1640.0,560.0 L-1620.0,560.0 L-1620.0,540.0 L-1620.0,520.0 L-1600.0,520.0 L-1580.0,520.0 L-1580.0,500.0 L-1600.0,500.0 L-1620.0,500.0 L-1620.0,480.0 L-1620.0,460.0 L-1640.0,460.0 L-1640.0,480.0 L-1640.0,500.0 L-1660.0,500.0 L-1660.0,480.0 L-1660.0,460.0 L-1680.0,460.0 L-1700.0,460.0 L-1700.0,440.0 L-1680.0,440.0 L-1660.0,440.0 L-1660.0,420.0 L-1660.0,400.0 L-1640.0,400.0 L-1640.0,420.0 L-1640.0,440.0 L-1620.0,440.0 L-1600.0,440.0 L-1600.0,460.0 L-1600.0,480.0 L-1580.0,480.0 L-1580.0,460.0 L-1580.0,440.0 L-1560.0,440.0 L-1540.0,440.0 L-1540.0,420.0 L-1560.0,420.0 L-1580.0,420.0 L-1580.0,400.0 L-1560.0,400.0 L-1540.0,400.0 L-1540.0,380.0 L-1540.0,360.0 L-1520.0,360.0 L-1520.0,380.0 L-1520.0,400.0 L-1500.0,400.0 L-1480.0,400.0 L-1480.0,420.0 L-1480.0,440.0 L-1460.0,440.0 L-1460.0,420.0 L-1460.0,400.0 L-1440.0,400.0 L-1420.0,400.0 L-1420.0,380.0 L-1440.0,380.0 L-1460.0,380.0 L-1460.0,360.0 L-1460.0,340.0 L-1480.0,340.0 L-1480.0,360.0 L-1480.0,380.0 L-1500.0,380.0 L-1500.0,360.0 L-1500.0,340.0 L-1520.0,340.0 L-1540.0,340.0 L-1540.0,320.0 L-1520.0,320.0 L-1500.0,320.0 L-1500.0,300.0 L-1500.0,280.0 L-1480.0,280.0 L-1460.0,280.0 L-1460.0,260.0 L-1480.0,260.0 L-1500.0,260.0 L-1500.0,240.0 L-1500.0,220.0 L-1520.0,220.0 L-1520.0,240.0 L-1520.0,260.0 L-1540.0,260.0 L-1560.0,260.0 L-1560.0,280.0 L-1540.0,280.0 L-1520.0,280.0 L-1520.0,300.0 L-1540.0,300.0 L-1560.0,300.0 L-1560.0,320.0 L-1560.0,340.0 L-1580.0,340.0 L-1580.0,320.0 L-1580.0,300.0 L-1600.0,300.0 L-1620.0,300.0 L-1620.0,280.0 L-1600.0,280.0 L-1580.0,280.0 L-1580.0,260.0 L-1580.0,240.0 L-1560.0,240.0 L-1540.0,240.0 L-1540.0,220.0 L-1560.0,220.0 L-1580.0,220.0 L-1580.0,200.0 L-1580.0,180.0 L-1600.0,180.0 L-1600.0,200.0 L-1600.0,220.0 L-1620.0,220.0 L-1620.0,200.0 L-1620.0,180.0 L-1640.0,180.0 L-1660.0,180.0 L-1660.0,160.0 L-1640.0,160.0 L-1620.0,160.0 L-1620.0,140.0 L-1620.0,120.0 L-1600.0,120.0 L-1600.0,140.0 L-1600.0,160.0 L-1580.0,160.0 L-1560.0,160.0 L-1560.0,180.0 L-1560.0,200.0 L-1540.0,200.0 L-1540.0,180.0 L-1540.0,160.0 L-1520.0,160.0 L-1500.0,160.0 L-1500.0,140.0 L-1520.0,140.0 L-1540.0,140.0 L-1540.0,120.0 L-1520.0,120.0 L-1500.0,120.0 L-1500.0,100.0 L-1500.0,80.0 L-1480.0,80.0 L-1480.0,100.0 L-1480.0,120.0 L-1460.0,120.0 L-1440.0,120.0 L-1440.0,140.0 L-1460.0,140.0 L-1480.0,140.0 L-1480.0,160.0 L-1480.0,180.0 L-1500.0,180.0 L-1520.0,180.0 L-1520.0,200.0 L-1500.0,200.0 L-1480.0,200.0 L-1480.0,220.0 L-1480.0,240.0 L-1460.0,240.0 L-1460.0,220.0 L-1460.0,200.0 L-1440.0,200.0 L-1440.0,220.0 L-1440.0,240.0 L-1420.0,240.0 L-1400.0,240.0 L-1400.0,260.0 L-1420.0,260.0 L-1440.0,260.0 L-1440.0,280.0 L-1440.0,300.0 L-1460.0,300.0 L-1480.0,300.0 L-1480.0,320.0 L-1460.0,320.0 L-1440.0,320.0 L-1440.0,340.0 L-1440.0,360.0 L-1420.0,360.0 L-1420.0,340.0 L-1420.0,320.0 L-1400.0,320.0 L-1380.0,320.0 L-1380.0,300.0 L-1400.0,300.0 L-1420.0,300.0 L-1420.0,280.0 L-1400.0,280.0 L-1380.0,280.0 L-1380.0,260.0 L-1380.0,240.0 L-1360.0,240.0 L-1360.0,260.0 L-1360.0,280.0 L-1340.0,280.0 L-1320.0,280.0 L-1320.0,300.0 L-1320.0,320.0 L-1300.0,320.0 L-1300.0,300.0 L-1300.0,280.0 L-1280.0,280.0 L-1260.0,280.0 L-1260.0,260.0 L-1280.0,260.0 L-1300.0,260.0 L-1300.0,240.0 L-1300.0,220.0 L-1320.0,220.0 L-1320.0,240.0 L-1320.0,260.0 L-1340.0,260.0 L-1340.0,240.0 L-1340.0,220.0 L-1360.0,220.0 L-1380.0,220.0 L-1380.0,200.0 L-1360.0,200.0 L-1340.0,200.0 L-1340.0,180.0 L-1340.0,160.0 L-1320.0,160.0 L-1320.0,180.0 L-1320.0,200.0 L-1300.0,200.0 L-1280.0,200.0 L-1280.0,220.0 L-1280.0,240.0 L-1260.0,240.0 L-1260.0,220.0 L-1260.0,200.0 L-1240.0,200.0 L-1220.0,200.0 L-1220.0,180.0 L-1240.0,180.0 L-1260.0,180.0 L-1260.0,160.0 L-1240.0,160.0 L-1220.0,160.0 L-1220.0,140.0 L-1220.0,120.0 L-1200.0,120.0 L-1200.0,140.0 L-1200.0,160.0 L-1180.0,160.0 L-1160.0,160.0 L-1160.0,180.0 L-1180.0,180.0 L-1200.0,180.0 L-1200.0,200.0 L-1200.0,220.0 L-1220.0,220.0 L-1240.0,220.0 L-1240.0,240.0 L-1220.0,240.0 L-1200.0,240.0 L-1200.0,260.0 L-1200.0,280.0 L-1180.0,280.0 L-1180.0,260.0 L-1180.0,240.0 L-1160.0,240.0 L-1160.0,260.0 L-1160.0,280.0 L-1140.0,280.0 L-1120.0,280.0 L-1120.0,300.0 L-1140.0,300.0 L-1160.0,300.0 L-1160.0,320.0 L-1160.0,340.0 L-1180.0,340.0 L-1200.0,340.0 L-1200.0,360.0 L-1180.0,360.0 L-1160.0,360.0 L-1160.0,380.0 L-1160.0,400.0 L-1140.0,400.0 L-1140.0,380.0 L-1140.0,360.0 L-1120.0,360.0 L-1100.0,360.0 L-1100.0,340.0 L-1120.0,340.0 L-1140.0,340.0 L-1140.0,320.0 L-1120.0,320.0 L-1100.0,320.0 L-1100.0,300.0 L-1100.0,280.0 L-1080.0,280.0 L-1080.0,300.0 L-1080.0,320.0 L-1060.0,320.0 L-1040.0,320.0 L-1040.0,340.0 L-1040.0,360.0 L-1020.0,360.0 L-1020.0,340.0 L-1020.0,320.0 L-1000.0,320.0 L-980.0,320.0 L-980.0,300.0 L-1000.0,300.0 L-1020.0,300.0 L-1020.0,280.0 L-1020.0,260.0 L-1040.0,260.0 L-1040.0,280.0 L-1040.0,300.0 L-1060.0,300.0 L-1060.0,280.0 L-1060.0,260.0 L-1080.0,260.0 L-1100.0,260.0 L-1100.0,240.0 L-1080.0,240.0 L-1060.0,240.0 L-1060.0,220.0 L-1060.0,200.0 L-1040.0,200.0 L-1020.0,200.0 L-1020.0,180.0 L-1040.0,180.0 L-1060.0,180.0 L-1060.0,160.0 L-1060.0,140.0 L-1080.0,140.0 L-1080.0,160.0 L-1080.0,180.0 L-1100.0,180.0 L-1120.0,180.0 L-1120.0,200.0 L-1100.0,200.0 L-1080.0,200.0 L-1080.0,220.0 L-1100.0,220.0 L-1120.0,220.0 L-1120.0,240.0 L-1120.0,260.0 L-1140.0,260.0 L-1140.0,240.0 L-1140.0,220.0 L-1160.0,220.0 L-1180.0,220.0 L-1180.0,200.0 L-1160.0,200.0 L-1140.0,200.0 L-1140.0,180.0 L-1140.0,160.0 L-1120.0,160.0 L-1100.0,160.0 L-1100.0,140.0 L-1120.0,140.0 L-1140.0,140.0 L-1140.0,120.0 L-1140.0,100.0 L-1160.0,100.0 L-1160.0,120.0 L-1160.0,140.0 L-1180.0,140.0 L-1180.0,120.0 L-1180.0,100.0 L-1200.0,100.0 L-1220.0,100.0 L-1220.0,80.0 L-1200.0,80.0 L-1180.0,80.0 L-1180.0,60.0 L-1180.0,40.0 L-1160.0,40.0 L-1160.0,60.0 L-1160.0,80.0 L-1140.0,80.0 L-1120.0,80.0 L-1120.0,100.0 L-1120.0,120.0 L-1100.0,120.0 L-1100.0,100.0 L-1100.0,80.0 L-1080.0,80.0 L-1060.0,80.0 L-1060.0,60.0 L-1080.0,60.0 L-1100.0,60.0 L-1100.0,40.0 L-1080.0,40.0 L-1060.0,40.0 L-1060.0,20.0 L-1060.0,0.0 L-1040.0,0.0 L-1040.0,20.0 L-1040.0,40.0 L-1020.0,40.0 L-1000.0,40.0 L-1000.0,60.0 L-1020.0,60.0 L-1040.0,60.0 L-1040.0,80.0 L-1040.0,100.0 L-1060.0,100.0 L-1080.0,100.0 L-1080.0,120.0 L-1060.0,120.0 L-1040.0,120.0 L-1040.0,140.0 L-1040.0,160.0 L-1020.0,160.0 L-1020.0,140.0 L-1020.0,120.0 L-1000.0,120.0 L-1000.0,140.0 L-1000.0,160.0 L-980.0,160.0 L-960.0,160.0 L-960.0,180.0 L-980.0,180.0 L-1000.0,180.0 L-1000.0,200.0 L-1000.0,220.0 L-1020.0,220.0 L-1040.0,220.0 L-1040.0,240.0 L-1020.0,240.0 L-1000.0,240.0 L-1000.0,260.0 L-1000.0,280.0 L-980.0,280.0 L-980.0,260.0 L-980.0,240.0 L-960.0,240.0 L-940.0,240.0 L-940.0,220.0 L-960.0,220.0 L-980.0,220.0 L-980.0,200.0 L-960.0,200.0 L-940.0,200.0 L-940.0,180.0 L-940.0,160.0 L-920.0,160.0 L-920.0,180.0 L-920.0,200.0 L-900.0,200.0 L-880.0,200.0 L-880.0,220.0 L-880.0,240.0 L-860.0,240.0 L-860.0,220.0 L-860.0,200.0 L-840.0,200.0 L-820.0,200.0 L-820.0,180.0 L-840.0,180.0 L-860.0,180.0 L-860.0,160.0 L-860.0,140.0 L-880.0,140.0 L-880.0,160.0 L-880.0,180.0 L-900.0,180.0 L-900.0,160.0 L-900.0,140.0 L-920.0,140.0 L-940.0,140.0 L-940.0,120.0 L-920.0,120.0 L-900.0,120.0 L-900.0,100.0 L-900.0,80.0 L-880.0,80.0 L-880.0,100.0 L-880.0,120.0 L-860.0,120.0 L-840.0,120.0 L-840.0,140.0 L-840.0,160.0 L-820.0,160.0 L-820.0,140.0 L-820.0,120.0 L-800.0,120.0 L-780.0,120.0 L-780.0,100.0 L-800.0,100.0 L-820.0,100.0 L-820.0,80.0 L-800.0,80.0 L-780.0,80.0 L-780.0,60.0 L-780.0,40.0 L-760.0,40.0 L-760.0,60.0 L-760.0,80.0 L-740.0,80.0 L-720.0,80.0 L-720.0,100.0 L-740.0,100.0 L-760.0,100.0 L-760.0,120.0 L-760.0,140.0 L-780.0,140.0 L-800.0,140.0 L-800.0,160.0 L-780.0,160.0 L-760.0,160.0 L-760.0,180.0 L-760.0,200.0 L-740.0,200.0 L-740.0,180.0 L-740.0,160.0 L-720.0,160.0 L-720.0,180.0 L-720.0,200.0 L-700.0,200.0 L-680.0,200.0 L-680.0,220.0 L-700.0,220.0 L-720.0,220.0 L-720.0,240.0 L-720.0,260.0 L-740.0,260.0 L-760.0,260.0 L-760.0,280.0 L-740.0,280.0 L-720.0,280.0 L-720.0,300.0 L-720.0,320.0 L-700.0,320.0 L-700.0,300.0 L-700.0,280.0 L-680.0,280.0 L-660.0,280.0 L-660.0,260.0 L-680.0,260.0 L-700.0,260.0 L-700.0,240.0 L-680.0,240.0 L-660.0,240.0 L-660.0,220.0 L-660.0,200.0 L-640.0,200.0 L-640.0,220.0 L-640.0,240.0 L-620.0,240.0 L-600.0,240.0 L-600.0,260.0 L-600.0,280.0 L-580.0,280.0 L-580.0,260.0 L-580.0,240.0 L-560.0,240.0 L-540.0,240.0 L-540.0,220.0 L-560.0,220.0 L-580.0,220.0 L-580.0,200.0 L-580.0,180.0 L-600.0,180.0 L-600.0,200.0 L-600.0,220.0 L-620.0,220.0 L-620.0,200.0 L-620.0,180.0 L-640.0,180.0 L-660.0,180.0 L-660.0,160.0 L-640.0,160.0 L-620.0,160.0 L-620.0,140.0 L-620.0,120.0 L-600.0,120.0 L-580.0,120.0 L-580.0,100.0 L-600.0,100.0 L-620.0,100.0 L-620.0,80.0 L-620.0,60.0 L-640.0,60.0 L-640.0,80.0 L-640.0,100.0 L-660.0,100.0 L-680.0,100.0 L-680.0,120.0 L-660.0,120.0 L-640.0,120.0 L-640.0,140.0 L-660.0,140.0 L-680.0,140.0 L-680.0,160.0 L-680.0,180.0 L-700.0,180.0 L-700.0,160.0 L-700.0,140.0 L-720.0,140.0 L-740.0,140.0 L-740.0,120.0 L-720.0,120.0 L-700.0,120.0 L-700.0,100.0 L-700.0,80.0 L-680.0,80.0 L-660.0,80.0 L-660.0,60.0 L-680.0,60.0 L-700.0,60.0 L-700.0,40.0 L-700.0,20.0 L-720.0,20.0 L-720.0,40.0 L-720.0,60.0 L-740.0,60.0 L-740.0,40.0 L-740.0,20.0 L-760.0,20.0 L-780.0,20.0 L-780.0,0.0 L-760.0,0.0 L-740.0,0.0 L-740.0,-20.0 L-740.0,-40.0 L-720.0,-40.0 L-720.0,-20.0 L-720.0,0.0 L-700.0,0.0 L-680.0,0.0 L-680.0,20.0 L-680.0,40.0 L-660.0,40.0 L-660.0,20.0 L-660.0,0.0 L-640.0,0.0 L-620.0,0.0 L-620.0,-20.0 L-640.0,-20.0 L-660.0,-20.0 L-660.0,-40.0 L-640.0,-40.0 L-620.0,-40.0 L-620.0,-60.0 L-620.0,-80.0 L-600.0,-80.0 L-600.0,-60.0 L-600.0,-40.0 L-580.0,-40.0 L-560.0,-40.0 L-560.0,-20.0 L-580.0,-20.0 L-600.0,-20.0 L-600.0,0.0 L-600.0,20.0 L-620.0,20.0 L-640.0,20.0 L-640.0,40.0 L-620.0,40.0 L-600.0,40.0 L-600.0,60.0 L-600.0,80.0 L-580.0,80.0 L-580.0,60.0 L-580.0,40.0 L-560.0,40.0 L-560.0,60.0 L-560.0,80.0 L-540.0,80.0 L-520.0,80.0 L-520.0,100.0 L-540.0,100.0 L-560.0,100.0 L-560.0,120.0 L-560.0,140.0 L-580.0,140.0 L-600.0,140.0 L-600.0,160.0 L-580.0,160.0 L-560.0,160.0 L-560.0,180.0 L-560.0,200.0 L-540.0,200.0 L-540.0,180.0 L-540.0,160.0 L-520.0,160.0 L-500.0,160.0 L-500.0,140.0 L-520.0,140.0 L-540.0,140.0 L-540.0,120.0 L-520.0,120.0 L-500.0,120.0 L-500.0,100.0 L-500.0,80.0 L-480.0,80.0 L-480.0,100.0 L-480.0,120.0 L-460.0,120.0 L-440.0,120.0 L-440.0,140.0 L-440.0,160.0 L-420.0,160.0 L-420.0,140.0 L-420.0,120.0 L-400.0,120.0 L-380.0,120.0 L-380.0,100.0 L-400.0,100.0 L-420.0,100.0 L-420.0,80.0 L-420.0,60.0 L-440.0,60.0 L-440.0,80.0 L-440.0,100.0 L-460.0,100.0 L-460.0,80.0 L-460.0,60.0 L-480.0,60.0 L-500.0,60.0 L-500.0,40.0 L-480.0,40.0 L-460.0,40.0 L-460.0,20.0 L-460.0,0.0 L-440.0,0.0 L-440.0,20.0 L-440.0,40.0 L-420.0,40.0 L-400.0,40.0 L-400.0,60.0 L-400.0,80.0 L-380.0,80.0 L-380.0,60.0 L-380.0,40.0 L-360.0,40.0 L-340.0,40.0 L-340.0,20.0 L-360.0,20.0 L-380.0,20.0 L-380.0,0.0 L-360.0,0.0 L-340.0,0.0 L-340.0,-20.0 L-340.0,-40.0 L-320.0,-40.0 L-320.0,-20.0 L-320.0,0.0 L-300.0,0.0 L-280.0,0.0 L-280.0,20.0 L-300.0,20.0 L-320.0,20.0 L-320.0,40.0 L-320.0,60.0 L-340.0,60.0 L-360.0,60.0 L-360.0,80.0 L-340.0,80.0 L-320.0,80.0 L-320.0,100.0 L-320.0,120.0 L-300.0,120.0 L-300.0,100.0 L-300.0,80.0 L-280.0,80.0 L-280.0,100.0 L-280.0,120.0 L-260.0,120.0 L-240.0,120.0 L-240.0,140.0 L-260.0,140.0 L-280.0,140.0 L-280.0,160.0 L-280.0,180.0 L-300.0,180.0 L-320.0,180.0 L-320.0,200.0 L-300.0,200.0 L-280.0,200.0 L-280.0,220.0 L-280.0,240.0 L-260.0,240.0 L-260.0,220.0 L-260.0,200.0 L-240.0,200.0 L-220.0,200.0 L-220.0,180.0 L-240.0,180.0 L-260.0,180.0 L-260.0,160.0 L-240.0,160.0 L-220.0,160.0 L-220.0,140.0 L-220.0,120.0 L-200.0,120.0 L-200.0,140.0 L-200.0,160.0 L-180.0,160.0 L-160.0,160.0 L-160.0,180.0 L-160.0,200.0 L-140.0,200.0 L-140.0,180.0 L-140.0,160.0 L-120.0,160.0 L-100.0,160.0 L-100.0,140.0 L-120.0,140.0 L-140.0,140.0 L-140.0,120.0 L-140.0,100.0 L-160.0,100.0 L-160.0,120.0 L-160.0,140.0 L-180.0,140.0 L-180.0,120.0 L-180.0,100.0 L-200.0,100.0 L-220.0,100.0 L-220.0,80.0 L-200.0,80.0 L-180.0,80.0 L-180.0,60.0 L-180.0,40.0 L-160.0,40.0 L-140.0,40.0 L-140.0,20.0 L-160.0,20.0 L-180.0,20.0 L-180.0,0.0 L-180.0,-20.0 L-200.0,-20.0 L-200.0,0.0 L-200.0,20.0 L-220.0,20.0 L-240.0,20.0 L-240.0,40.0 L-220.0,40.0 L-200.0,40.0 L-200.0,60.0 L-220.0,60.0 L-240.0,60.0 L-240.0,80.0 L-240.0,100.0 L-260.0,100.0 L-260.0,80.0 L-260.0,60.0 L-280.0,60.0 L-300.0,60.0 L-300.0,40.0 L-280.0,40.0 L-260.0,40.0 L-260.0,20.0 L-260.0,0.0 L-240.0,0.0 L-220.0,0.0 L-220.0,-20.0 L-240.0,-20.0 L-260.0,-20.0 L-260.0,-40.0 L-260.0,-60.0 L-280.0,-60.0 L-280.0,-40.0 L-280.0,-20.0 L-300.0,-20.0 L-300.0,-40.0 L-300.0,-60.0 L-320.0,-60.0 L-340.0,-60.0 L-340.0,-80.0 L-320.0,-80.0 L-300.0,-80.0 L-300.0,-100.0 L-300.0,-120.0 L-280.0,-120.0 L-280.0,-100.0 L-280.0,-80.0 L-260.0,-80.0 L-240.0,-80.0 L-240.0,-60.0 L-240.0,-40.0 L-220.0,-40.0 L-220.0,-60.0 L-220.0,-80.0 L-200.0,-80.0 L-180.0,-80.0 L-180.0,-100.0 L-200.0,-100.0 L-220.0,-100.0 L-220.0,-120.0 L-200.0,-120.0 L-180.0,-120.0 L-180.0,-140.0 L-180.0,-160.0 L-160.0,-160.0 L-160.0,-140.0 L-160.0,-120.0 L-140.0,-120.0 L-120.0,-120.0 L-120.0,-100.0 L-140.0,-100.0 L-160.0,-100.0 L-160.0,-80.0 L-160.0,-60.0 L-180.0,-60.0 L-200.0,-60.0 L-200.0,-40.0 L-180.0,-40.0 L-160.0,-40.0 L-160.0,-20.0 L-160.0,0.0 L-140.0,0.0 L-140.0,-20.0 L-140.0,-40.0 L-120.0,-40.0 L-120.0,-20.0 L-120.0,0.0 L-100.0,0.0 L-80.0,0.0 L-80.0,20.0 L-100.0,20.0 L-120.0,20.0 L-120.0,40.0 L-120.0,60.0 L-140.0,60.0 L-160.0,60.0 L-160.0,80.0 L-140.0,80.0 L-120.0,80.0 L-120.0,100.0 L-120.0,120.0 L-100.0,120.0 L-100.0,100.0 L-100.0,80.0 L-80.0,80.0 L-60.0,80.0 L-60.0,60.0 L-80.0,60.0 L-100.0,60.0 L-100.0,40.0 L-80.0,40.0 L-60.0,40.0 L-60.0,20.0 L-60.0,0.0 L-40.0,0.0 L-40.0,20.0 L-40.0,40.0 L-20.0,40.0 L0.0,40.0 L0.0,60.0 L0.0,80.0 L20.0,80.0 L20.0,60.0 L20.0,40.0 L40.0,40.0 L60.0,40.0 L60.0,20.0 L40.0,20.0 L20.0,20.0 L20.0,0.0 L20.0,-20.0 L0.0,-20.0 L0.0,0.0 " style="fill:none;stroke-width:3;stroke:red;"></path></g></svg>