<svg height="600" overflow="visible" preserveAspectRatio="xMidYMid meet" version="1.0" width="1000" xmlns:xlink="http://www.w3.org/1999/xlink" xmlns="http://www.w3.org/2000/svg" zoomAndPan="magnify"><g transform="translate(997.95082,497.95082) scale(0.40984,-0.40984)"><path d="M0.0,0.0 L0.0,0.0 L-10.0,0.0 L-10.0,10.0 L-20.0,10.0 L-20.0,0.0 L-30.0,0.0 L-30.0,10.0 L-20.0,10.0 L-20.0,20.0 L-30.0,20.0 L-30.0,30.0 L-40.0,30.0 L-40.0,40.0 L-50.0,40.0 L-50.0,30.0 L-60.0,30.0 L-60.0,20.0 L-70.0,20.0 L-70.0,10.0 L-60.0,10.0 L-60.0,0.0 L-70.0,0.0 L-70.0,10.0 L-80.0,10.0 L-80.0,0.0 L-90.0,0.0 L-90.0,10.0 L-80.0,10.0 L-80.0,20.0 L-90.0,20.0 L-90.0,30.0 L-80.0,30.0 L-80.0,20.0 L-70.0,20.0 L-70.0,30.0 L-60.0,30.0 L-60.0,40.0 L-50.0,40.0 L-50.0,50.0 L-60.0,50.0 L-60.0,60.0 L-70.0,60.0 L-70.0,70.0 L-80.0,70.0 L-80.0,60.0 L-90.0,60.0 L-90.0,70.0 L-80.0,70.0 L-80.0,80.0 L-90.0,80.0 L-90.0,90.0 L-100.0,90.0 L-100.0,100.0 L-110.0,100.0 L-110.0,90.0 L-120.0,90.0 L-120.0,100.0 L-110.0,100.0 L-110.0,110.0 L-120.0,110.0 L-120.0,120.0 L-130.0,120.0 L-130.0,130.0 L-140.0,130.0 L-140.0,120.0 L-150.0,120.0 L-150.0,110.0 L-160.0,110.0 L-160.0,100.0 L-150.0,100.0 L-150.0,90.0 L-160.0,90.0 L-160.0,100.0 L-170.0,100.0 L-170.0,90.0 L-180.0,90.0 L-180.0,80.0 L-190.0,80.0 L-190.0,70.0 L-180.0,70.0 L-180.0,60.0 L-190.0,60.0 L-190.0,70.0 L-200.0,70.0 L-200.0,60.0 L-210.0,60.0 L-210.0,50.0 L-220.0,50.0 L-220.0,40.0 L-210.0,40.0 L-210.0,30.0 L-200.0,30.0 L-200.0,20.0 L-190.0,20.0 L-190.0,30.0 L-180.0,30.0 L-180.0,20.0 L-190.0,20.0 L-190.0,10.0 L-180.0,10.0 L-180.0,0.0 L-190.0,0.0 L-190.0,10.0 L-200.0,10.0 L-200.0,0.0 L-210.0,0.0 L-210.0,10.0 L-200.0,10.0 L-200.0,20.0 L-210.0,20.0 L-210.0,30.0 L-220.0,30.0 L-220.0,40.0 L-230.0,40.0 L-230.0,30.0 L-240.0,30.0 L-240.0,20.0 L-250.0,20.0 L-250.0,10.0 L-240.0,10.0 L-240.0,0.0 L-250.0,0.0 L-250.0,10.0 L-260.0,10.0 L-260.0,0.0 L-270.0,0.0 L-270.0,10.0 L-260.0,10.0 L-260.0,20.0 L-270.0,20.0 L-270.0,30.0 L-260.0,30.0 L-260.0,20.0 L-250.0,20.0 L-250.0,30.0 L-240.0,30.0 L-240.0,40.0 L-230.0,40.0 L-230.0,50.0 L-240.0,50.0 L-240.0,60.0 L-250.0,60.0 L-250.0,70.0 L-260.0,70.0 L-260.0,60.0 L-270.0,60.0 L-270.0,70.0 L-260.0,70.0 L-260.0,80.0 L-270.0,80.0 L-270.0,90.0 L-260.0,90.0 L-260.0,80.0 L-250.0,80.0 L-250.0,90.0 L-240.0,90.0 L-240.0,80.0 L-250.0,80.0 L-250.0,70.0 L-240.0,70.0 L-240.0,60.0 L-230.0,60.0 L-230.0,50.0 L-220.0,50.0 L-220.0,60.0 L-210.0,60.0 L-210.0,70.0 L-200.0,70.0 L-200.0,80.0 L-210.0,80.0 L-210.0,90.0 L-200.0,90.0 L-200.0,80.0 L-190.0,80.0 L-190.0,90.0 L-180.0,90.0 L-180.0,100.0 L-170.0,100.0 L-170.0,110.0 L-180.0,110.0 L-180.0,120.0 L-170.0,120.0 L-170.0,110.0 L-160.0,110.0 L-160.0,120.0 L-150.0,120.0 L-150.0,130.0 L-140.0,130.0 L-140.0,140.0 L-150.0,140.0 L-150.0,150.0 L-160.0,150.0 L-160.0,160.0 L-170.0,160.0 L-170.0,150.0 L-180.0,150.0 L-180.0,160.0 L-170.0,160.0 L-170.0,170.0 L-180.0,170.0 L-180.0,180.0 L-190.0,180.0 L-190.0,190.0 L-200.0,190.0 L-200.0,180.0 L-210.0,180.0 L-210.0,190.0 L-200.0,190.0 L-200.0,200.0 L-210.0,200.0 L-210.0,210.0 L-220.0,210.0 L-220.0,220.0 L-230.0,220.0 L-230.0,210.0 L-240.0,210.0 L-240.0,200.0 L-250.0,200.0 L-250.0,190.0 L-240.0,190.0 L-240.0,180.0 L-250.0,180.0 L-250.0,190.0 L-260.0,190.0 L-260.0,180.0 L-270.0,180.0 L-270.0,190.0 L-260.0,190.0 L-260.0,200.0 L-270.0,200.0 L-270.0,210.0 L-260.0,210.0 L-260.0,200.0 L-250.0,200.0 L-250.0,210.0 L-240.0,210.0 L-240.0,220.0 L-230.0,220.0 L-230.0,230.0 L-240.0,230.0 L-240.0,240.0 L-250.0,240.0 L-250.0,250.0 L-260.0,250.0 L-260.0,240.0 L-270.0,240.0 L-270.0,250.0 L-260.0,250.0 L-260.0,260.0 L-270.0,260.0 L-270.0,270.0 L-280.0,270.0 L-280.0,280.0 L-290.0,280.0 L-290.0,270.0 L-300.0,270.0 L-300.0,280.0 L-290.0,280.0 L-290.0,290.0 L-300.0,290.0 L-300.0,300.0 L-310.0,300.0 L-310.0,310.0 L-320.0,310.0 L-320.0,300.0 L-330.0,300.0 L-330.0,290.0 L-340.0,290.0 L-340.0,280.0 L-330.0,280.0 L-330.0,270.0 L-340.0,270.0 L-340.0,280.0 L-350.0,280.0 L-350.0,270.0 L-360.0,270.0 L-360.0,280.0 L-350.0,280.0 L-350.0,290.0 L-360.0,290.0 L-360.0,300.0 L-350.0,300.0 L-350.0,290.0 L-340.0,290.0 L-340.0,300.0 L-330.0,300.0 L-330.0,310.0 L-320.0,310.0 L-320.0,320.0 L-330.0,320.0 L-330.0,330.0 L-340.0,330.0 L-340.0,340.0 L-350.0,340.0 L-350.0,330.0 L-360.0,330.0 L-360.0,340.0 L-350.0,340.0 L-350.0,350.0 L-360.0,350.0 L-360.0,360.0 L-370.0,360.0 L-370.0,370.0 L-380.0,370.0 L-380.0,360.0 L-390.0,360.0 L-390.0,370.0 L-380.0,370.0 L-380.0,380.0 L-390.0,380.0 L-390.0,390.0 L-400.0,390.0 L-400.0,400.0 L-410.0,400.0 L-410.0,390.0 L-420.0,390.0 L-420.0,380.0 L-430.0,380.0 L-430.0,370.0 L-420.0,370.0 L-420.0,360.0 L-430.0,360.0 L-430.0,370.0 L-440.0,370.0 L-440.0,360.0 L-450.0,360.0 L-450.0,350.0 L-460.0,350.0 L-460.0,340.0 L-450.0,340.0 L-450.0,330.0 L-460.0,330.0 L-460.0,340.0 L-470.0,340.0 L-470.0,330.0 L-480.0,330.0 L-480.0,320.0 L-490.0,320.0 L-490.0,310.0 L-480.0,310.0 L-480.0,300.0 L-470.0,300.0 L-470.0,290.0 L-460.0,290.0 L-460.0,300.0 L-450.0,300.0 L-450.0,290.0 L-460.0,290.0 L-460.0,280.0 L-450.0,280.0 L-450.0,270.0 L-460.0,270.0 L-460.0,280.0 L-470.0,280.0 L-470.0,270.0 L-480.0,270.0 L-480.0,280.0 L-470.0,280.0 L-470.0,290.0 L-480.0,290.0 L-480.0,300.0 L-490.0,300.0 L-490.0,310.0 L-500.0,310.0 L-500.0,300.0 L-510.0,300.0 L-510.0,290.0 L-520.0,290.0 L-520.0,280.0 L-510.0,280.0 L-510.0,270.0 L-520.0,270.0 L-520.0,280.0 L-530.0,280.0 L-530.0,270.0 L-540.0,270.0 L-540.0,260.0 L-550.0,260.0 L-550.0,250.0 L-540.0,250.0 L-540.0,240.0 L-550.0,240.0 L-550.0,250.0 L-560.0,250.0 L-560.0,240.0 L-570.0,240.0 L-570.0,230.0 L-580.0,230.0 L-580.0,220.0 L-570.0,220.0 L-570.0,210.0 L-560.0,210.0 L-560.0,200.0 L-550.0,200.0 L-550.0,210.0 L-540.0,210.0 L-540.0,200.0 L-550.0,200.0 L-550.0,190.0 L-540.0,190.0 L-540.0,180.0 L-550.0,180.0 L-550.0,190.0 L-560.0,190.0 L-560.0,180.0 L-570.0,180.0 L-570.0,190.0 L-560.0,190.0 L-560.0,200.0 L-570.0,200.0 L-570.0,210.0 L-580.0,210.0 L-580.0,220.0 L-590.0,220.0 L-590.0,210.0 L-600.0,210.0 L-600.0,200.0 L-610.0,200.0 L-610.0,190.0 L-600.0,190.0 L-600.0,180.0 L-610.0,180.0 L-610.0,190.0 L-620.0,190.0 L-620.0,180.0 L-630.0,180.0 L-630.0,170.0 L-640.0,170.0 L-640.0,160.0 L-630.0,160.0 L-630.0,150.0 L-640.0,150.0 L-640.0,160.0 L-650.0,160.0 L-650.0,150.0 L-660.0,150.0 L-660.0,140.0 L-670.0,140.0 L-670.0,130.0 L-660.0,130.0 L-660.0,120.0 L-650.0,120.0 L-650.0,110.0 L-640.0,110.0 L-640.0,120.0 L-630.0,120.0 L-630.0,110.0 L-640.0,110.0 L-640.0,100.0 L-630.0,100.0 L-630.0,90.0 L-620.0,90.0 L-620.0,80.0 L-610.0,80.0 L-610.0,90.0 L-600.0,90.0 L-600.0,80.0 L-610.0,80.0 L-610.0,70.0 L-600.0,70.0 L-600.0,60.0 L-590.0,60.0 L-590.0,50.0 L-580.0,50.0 L-580.0,60.0 L-570.0,60.0 L-570.0,70.0 L-560.0,70.0 L-560.0,80.0 L-570.0,80.0 L-570.0,90.0 L-560.0,90.0 L-560.0,80.0 L-550.0,80.0 L-550.0,90.0 L-540.0,90.0 L-540.0,80.0 L-550.0,80.0 L-550.0,70.0 L-540.0,70.0 L-540.0,60.0 L-550.0,60.0 L-550.0,70.0 L-560.0,70.0 L-560.0,60.0 L-570.0,60.0 L-570.0,50.0 L-580.0,50.0 L-580.0,40.0 L-570.0,40.0 L-570.0,30.0 L-560.0,30.0 L-560.0,20.0 L-550.0,20.0 L-550.0,30.0 L-540.0,30.0 L-540.0,20.0 L-550.0,20.0 L-550.0,10.0 L-540.0,10.0 L-540.0,0.0 L-550.0,0.0 L-550.0,10.0 L-560.0,10.0 L-560.0,0.0 L-570.0,0.0 L-570.0,10.0 L-560.0,10.0 L-560.0,20.0 L-570.0,20.0 L-570.0,30.0 L-580.0,30.0 L-580.0,40.0 L-590.0,40.0 L-590.0,30.0 L-600.0,30.0 L-600.0,20.0 L-610.0,20.0 L-610.0,10.0 L-600.0,10.0 L-600.0,0.0 L-610.0,0.0 L-610.0,10.0 L-620.0,10.0 L-620.0,0.0 L-630.0,0.0 L-630.0,10.0 L-620.0,10.0 L-620.0,20.0 L-630.0,20.0 L-630.0,30.0 L-620.0,30.0 L-620.0,20.0 L-610.0,20.0 L-610.0,30.0 L-600.0,30.0 L-600.0,40.0 L-590.0,40.0 L-590.0,50.0 L-600.0,50.0 L-600.0,60.0 L-610.0,60.0 L-610.0,70.0 L-620.0,70.0 L-620.0,60.0 L-630.0,60.0 L-630.0,70.0 L-620.0,70.0 L-620.0,80.0 L-630.0,80.0 L-630.0,90.0 L-640.0,90.0 L-640.0,100.0 L-650.0,100.0 L-650.0,90.0 L-660.0,90.0 L-660.0,100.0 L-650.0,100.0 L-650.0,110.0 L-660.0,110.0 L-660.0,120.0 L-670.0,120.0 L-670.0,130.0 L-680.0,130.0 L-680.0,120.0 L-690.0,120.0 L-690.0,110.0 L-700.0,110.0 L-700.0,100.0 L-690.0,100.0 L-690.0,90.0 L-700.0,90.0 L-700.0,100.0 L-710.0,100.0 L-710.0,90.0 L-720.0,90.0 L-720.0,80.0 L-730.0,80.0 L-730.0,70.0 L-720.0,70.0 L-720.0,60.0 L-730.0,60.0 L-730.0,70.0 L-740.0,70.0 L-740.0,60.0 L-750.0,60.0 L-750.0,50.0 L-760.0,50.0 L-760.0,40.0 L-750.0,40.0 L-750.0,30.0 L-740.0,30.0 L-740.0,20.0 L-730.0,20.0 L-730.0,30.0 L-720.0,30.0 L-720.0,20.0 L-730.0,20.0 L-730.0,10.0 L-720.0,10.0 L-720.0,0.0 L-730.0,0.0 L-730.0,10.0 L-740.0,10.0 L-740.0,0.0 L-750.0,0.0 L-750.0,10.0 L-740.0,10.0 L-740.0,20.0 L-750.0,20.0 L-750.0,30.0 L-760.0,30.0 L-760.0,40.0 L-770.0,40.0 L-770.0,30.0 L-780.0,30.0 L-780.0,20.0 L-790.0,20.0 L-790.0,10.0 L-780.0,10.0 L-780.0,0.0 L-790.0,0.0 L-790.0,10.0 L-800.0,10.0 L-800.0,0.0 L-810.0,0.0 L-810.0,10.0 L-800.0,10.0 L-800.0,20.0 L-810.0,20.0 L-810.0,30.0 L-800.0,30.0 L-800.0,20.0 L-790.0,20.0 L-790.0,30.0 L-780.0,30.0 L-780.0,40.0 L-770.0,40.0 L-770.0,50.0 L-780.0,50.0 L-780.0,60.0 L-790.0,60.0 L-790.0,70.0 L-800.0,70.0 L-800.0,60.0 L-810.0,60.0 L-810.0,70.0 L-800.0,70.0 L-800.0,80.0 L-810.0,80.0 L-810.0,90.0 L-800.0,90.0 L-800.0,80.0 L-790.0,80.0 L-790.0,90.0 L-780.0,90.0 L-780.0,80.0 L-790.0,80.0 L-790.0,70.0 L-780.0,70.0 L-780.0,60.0 L-770.0,60.0 L-770.0,50.0 L-760.0,50.0 L-760.0,60.0 L-750.0,60.0 L-750.0,70.0 L-740.0,70.0 L-740.0,80.0 L-750.0,80.0 L-750.0,90.0 L-740.0,90.0 L-740.0,80.0 L-730.0,80.0 L-730.0,90.0 L-720.0,90.0 L-720.0,100.0 L-710.0,100.0 L-710.0,110.0 L-720.0,110.0 L-720.0,120.0 L-710.0,120.0 L-710.0,110.0 L-700.0,110.0 L-700.0,120.0 L-690.0,120.0 L-690.0,130.0 L-680.0,130.0 L-680.0,140.0 L-690.0,140.0 L-690.0,150.0 L-700.0,150.0 L-700.0,160.0 L-710.0,160.0 L-710.0,150.0 L-720.0,150.0 L-720.0,160.0 L-710.0,160.0 L-710.0,170.0 L-720.0,170.0 L-720.0,180.0 L-730.0,180.0 L-730.0,190.0 L-740.0,190.0 L-740.0,180.0 L-750.0,180.0 L-750.0,190.0 L-740.0,190.0 L-740.0,200.0 L-750.0,200.0 L-750.0,210.0 L-760.0,210.0 L-760.0,220.0 L-770.0,220.0 L-770.0,210.0 L-780.0,210.0 L-780.0,200.0 L-790.0,200.0 L-790.0,190.0 L-780.0,190.0 L-780.0,180.0 L-790.0,180.0 L-790.0,190.0 L-800.0,190.0 L-800.0,180.0 L-810.0,180.0 L-810.0,190.0 L-800.0,190.0 L-800.0,200.0 L-810.0,200.0 L-810.0,210.0 L-800.0,210.0 L-800.0,200.0 L-790.0,200.0 L-790.0,210.0 L-780.0,210.0 L-780.0,220.0 L-770.0,220.0 L-770.0,230.0 L-780.0,230.0 L-780.0,240.0 L-790.0,240.0 L-790.0,250.0 L-800.0,250.0 L-800.0,240.0 L-810.0,240.0 L-810.0,250.0 L-800.0,250.0 L-800.0,260.0 L-810.0,260.0 L-810.0,270.0 L-800.0,270.0 L-800.0,260.0 L-790.0,260.0 L-790.0,270.0 L-780.0,270.0 L-780.0,260.0 L-790.0,260.0 L-790.0,250.0 L-780.0,250.0 L-780.0,240.0 L-770.0,240.0 L-770.0,230.0 L-760.0,230.0 L-760.0,240.0 L-750.0,240.0 L-750.0,250.0 L-740.0,250.0 L-740.0,260.0 L-750.0,260.0 L-750.0,270.0 L-740.0,270.0 L-740.0,260.0 L-730.0,260.0 L-730.0,270.0 L-720.0,270.0 L-720.0,260.0 L-730.0,260.0 L-730.0,250.0 L-720.0,250.0 L-720.0,240.0 L-730.0,240.0 L-730.0,250.0 L-740.0,250.0 L-740.0,240.0 L-750.0,240.0 L-750.0,230.0 L-760.0,230.0 L-760.0,220.0 L-750.0,220.0 L-750.0,210.0 L-740.0,210.0 L-740.0,200.0 L-730.0,200.0 L-730.0,210.0 L-720.0,210.0 L-720.0,200.0 L-730.0,200.0 L-730.0,190.0 L-720.0,190.0 L-720.0,180.0 L-710.0,180.0 L-710.0,170.0 L-700.0,170.0 L-700.0,180.0 L-690.0,180.0 L-690.0,170.0 L-700.0,170.0 L-700.0,160.0 L-690.0,160.0 L-690.0,150.0 L-680.0,150.0 L-680.0,140.0 L-670.0,140.0 L-670.0,150.0 L-660.0,150.0 L-660.0,160.0 L-650.0,160.0 L-650.0,170.0 L-660.0,170.0 L-660.0,180.0 L-650.0,180.0 L-650.0,170.0 L-640.0,170.0 L-640.0,180.0 L-630.0,180.0 L-630.0,190.0 L-620.0,190.0 L-620.0,200.0 L-630.0,200.0 L-630.0,210.0 L-620.0,210.0 L-620.0,200.0 L-610.0,200.0 L-610.0,210.0 L-600.0,210.0 L-600.0,220.0 L-590.0,220.0 L-590.0,230.0 L-600.0,230.0 L-600.0,240.0 L-610.0,240.0 L-610.0,250.0 L-620.0,250.0 L-620.0,240.0 L-630.0,240.0 L-630.0,250.0 L-620.0,250.0 L-620.0,260.0 L-630.0,260.0 L-630.0,270.0 L-620.0,270.0 L-620.0,260.0 L-610.0,260.0 L-610.0,270.0 L-600.0,270.0 L-600.0,260.0 L-610.0,260.0 L-610.0,250.0 L-600.0,250.0 L-600.0,240.0 L-590.0,240.0 L-590.0,230.0 L-580.0,230.0 L-580.0,240.0 L-570.0,240.0 L-570.0,250.0 L-560.0,250.0 L-560.0,260.0 L-570.0,260.0 L-570.0,270.0 L-560.0,270.0 L-560.0,260.0 L-550.0,260.0 L-550.0,270.0 L-540.0,270.0 L-540.0,280.0 L-530.0,280.0 L-530.0,290.0 L-540.0,290.0 L-540.0,300.0 L-530.0,300.0 L-530.0,290.0 L-520.0,290.0 L-520.0,300.0 L-510.0,300.0 L-510.0,310.0 L-500.0,310.0 L-500.0,320.0 L-510.0,320.0 L-510.0,330.0 L-520.0,330.0 L-520.0,340.0 L-530.0,340.0 L-530.0,330.0 L-540.0,330.0 L-540.0,340.0 L-530.0,340.0 L-530.0,350.0 L-540.0,350.0 L-540.0,360.0 L-530.0,360.0 L-530.0,350.0 L-520.0,350.0 L-520.0,360.0 L-510.0,360.0 L-510.0,350.0 L-520.0,350.0 L-520.0,340.0 L-510.0,340.0 L-510.0,330.0 L-500.0,330.0 L-500.0,320.0 L-490.0,320.0 L-490.0,330.0 L-480.0,330.0 L-480.0,340.0 L-470.0,340.0 L-470.0,350.0 L-480.0,350.0 L-480.0,360.0 L-470.0,360.0 L-470.0,350.0 L-460.0,350.0 L-460.0,360.0 L-450.0,360.0 L-450.0,370.0 L-440.0,370.0 L-440.0,380.0 L-450.0,380.0 L-450.0,390.0 L-440.0,390.0 L-440.0,380.0 L-430.0,380.0 L-430.0,390.0 L-420.0,390.0 L-420.0,400.0 L-410.0,400.0 L-410.0,410.0 L-420.0,410.0 L-420.0,420.0 L-430.0,420.0 L-430.0,430.0 L-440.0,430.0 L-440.0,420.0 L-450.0,420.0 L-450.0,430.0 L-440.0,430.0 L-440.0,440.0 L-450.0,440.0 L-450.0,450.0 L-460.0,450.0 L-460.0,460.0 L-470.0,460.0 L-470.0,450.0 L-480.0,450.0 L-480.0,460.0 L-470.0,460.0 L-470.0,470.0 L-480.0,470.0 L-480.0,480.0 L-490.0,480.0 L-490.0,490.0 L-500.0,490.0 L-500.0,480.0 L-510.0,480.0 L-510.0,470.0 L-520.0,470.0 L-520.0,460.0 L-510.0,460.0 L-510.0,450.0 L-520.0,450.0 L-520.0,460.0 L-530.0,460.0 L-530.0,450.0 L-540.0,450.0 L-540.0,460.0 L-530.0,460.0 L-530.0,470.0 L-540.0,470.0 L-540.0,480.0 L-530.0,480.0 L-530.0,470.0 L-520.0,470.0 L-520.0,480.0 L-510.0,480.0 L-510.0,490.0 L-500.0,490.0 L-500.0,500.0 L-510.0,500.0 L-510.0,510.0 L-520.0,510.0 L-520.0,520.0 L-530.0,520.0 L-530.0,510.0 L-540.0,510.0 L-540.0,520.0 L-530.0,520.0 L-530.0,530.0 L-540.0,530.0 L-540.0,540.0 L-550.0,540.0 L-550.0,550.0 L-560.0,550.0 L-560.0,540.0 L-570.0,540.0 L-570.0,550.0 L-560.0,550.0 L-560.0,560.0 L-570.0,560.0 L-570.0,570.0 L-580.0,570.0 L-580.0,580.0 L-590.0,580.0 L-590.0,570.0 L-600.0,570.0 L-600.0,560.0 L-610.0,560.0 L-610.0,550.0 L-600.0,550.0 L-600.0,540.0 L-610.0,540.0 L-610.0,550.0 L-620.0,550.0 L-620.0,540.0 L-630.0,540.0 L-630.0,550.0 L-620.0,550.0 L-620.0,560.0 L-630.0,560.0 L-630.0,570.0 L-620.0,570.0 L-620.0,560.0 L-610.0,560.0 L-610.0,570.0 L-600.0,570.0 L-600.0,580.0 L-590.0,580.0 L-590.0,590.0 L-600.0,590.0 L-600.0,600.0 L-610.0,600.0 L-610.0,610.0 L-620.0,610.0 L-620.0,600.0 L-630.0,600.0 L-630.0,610.0 L-620.0,610.0 L-620.0,620.0 L-630.0,620.0 L-630.0,630.0 L-640.0,630.0 L-640.0,640.0 L-650.0,640.0 L-650.0,630.0 L-660.0,630.0 L-660.0,640.0 L-650.0,640.0 L-650.0,650.0 L-660.0,650.0 L-660.0,660.0 L-670.0,660.0 L-670.0,670.0 L-680.0,670.0 L-680.0,660.0 L-690.0,660.0 L-690.0,650.0 L-700.0,650.0 L-700.0,640.0 L-690.0,640.0 L-690.0,630.0 L-700.0,630.0 L-700.0,640.0 L-710.0,640.0 L-710.0,630.0 L-720.0,630.0 L-720.0,620.0 L-730.0,620.0 L-730.0,610.0 L-720.0,610.0 L-720.0,600.0 L-730.0,600.0 L-730.0,610.0 L-740.0,610.0 L-740.0,600.0 L-750.0,600.0 L-750.0,590.0 L-760.0,590.0 L-760.0,580.0 L-750.0,580.0 L-750.0,570.0 L-740.0,570.0 L-740.0,560.0 L-730.0,560.0 L-730.0,570.0 L-720.0,570.0 L-720.0,560.0 L-730.0,560.0 L-730.0,550.0 L-720.0,550.0 L-720.0,540.0 L-730.0,540.0 L-730.0,550.0 L-740.0,550.0 L-740.0,540.0 L-750.0,540.0 L-750.0,550.0 L-740.0,550.0 L-740.0,560.0 L-750.0,560.0 L-750.0,570.0 L-760.0,570.0 L-760.0,580.0 L-770.0,580.0 L-770.0,570.0 L-780.0,570.0 L-780.0,560.0 L-790.0,560.0 L-790.0,550.0 L-780.0,550.0 L-780.0,540.0 L-790.0,540.0 L-790.0,550.0 L-800.0,550.0 L-800.0,540.0 L-810.0,540.0 L-810.0,550.0 L-800.0,550.0 L-800.0,560.0 L-810.0,560.0 L-810.0,570.0 L-800.0,570.0 L-800.0,560.0 L-790.0,560.0 L-790.0,570.0 L-780.0,570.0 L-780.0,580.0 L-770.0,580.0 L-770.0,590.0 L-780.0,590.0 L-780.0,600.0 L-790.0,600.0 L-790.0,610.0 L-800.0,610.0 L-800.0,600.0 L-810.0,600.0 L-810.0,610.0 L-800.0,610.0 L-800.0,620.0 L-810.0,620.0 L-810.0,630.0 L-800.0,630.0 L-800.0,620.0 L-790.0,620.0 L-790.0,630.0 L-780.0,630.0 L-780.0,620.0 L-790.0,620.0 L-790.0,610.0 L-780.0,610.0 L-780.0,600.0 L-770.0,600.0 L-770.0,590.0 L-760.0,590.0 L-760.0,600.0 L-750.0,600.0 L-750.0,610.0 L-740.0,610.0 L-740.0,620.0 L-750.0,620.0 L-750.0,630.0 L-740.0,630.0 L-740.0,620.0 L-730.0,620.0 L-730.0,630.0 L-720.0,630.0 L-720.0,640.0 L-710.0,640.0 L-710.0,650.0 L-720.0,650.0 L-720.0,660.0 L-710.0,660.0 L-710.0,650.0 L-700.0,650.0 L-700.0,660.0 L-690.0,660.0 L-690.0,670.0 L-680.0,670.0 L-680.0,680.0 L-690.0,680.0 L-690.0,690.0 L-700.0,690.0 L-700.0,700.0 L-710.0,700.0 L-710.0,690.0 L-720.0,690.0 L-720.0,700.0 L-710.0,700.0 L-710.0,710.0 L-720.0,710.0 L-720.0,720.0 L-730.0,720.0 L-730.0,730.0 L-740.0,730.0 L-740.0,720.0 L-750.0,720.0 L-750.0,730.0 L-740.0,730.0 L-740.0,740.0 L-750.0,740.0 L-750.0,750.0 L-760.0,750.0 L-760.0,760.0 L-770.0,760.0 L-770.0,750.0 L-780.0,750.0 L-780.0,740.0 L-790.0,740.0 L-790.0,730.0 L-780.0,730.0 L-780.0,720.0 L-790.0,720.0 L-790.0,730.0 L-800.0,730.0 L-800.0,720.0 L-810.0,720.0 L-810.0,730.0 L-800.0,730.0 L-800.0,740.0 L-810.0,740.0 L-810.0,750.0 L-800.0,750.0 L-800.0,740.0 L-790.0,740.0 L-790.0,750.0 L-780.0,750.0 L-780.0,760.0 L-770.0,760.0 L-770.0,770.0 L-780.0,770.0 L-780.0,780.0 L-790.0,780.0 L-790.0,790.0 L-800.0,790.0 L-800.0,780.0 L-810.0,780.0 L-810.0,790.0 L-800.0,790.0 L-800.0,800.0 L-810.0,800.0 L-810.0,810.0 L-820.0,810.0 L-820.0,820.0 L-830.0,820.0 L-830.0,810.0 L-840.0,810.0 L-840.0,820.0 L-830.0,820.0 L-830.0,830.0 L-840.0,830.0 L-840.0,840.0 L-850.0,840.0 L-850.0,850.0 L-860.0,850.0 L-860.0,840.0 L-870.0,840.0 L-870.0,830.0 L-880.0,830.0 L-880.0,820.0 L-870.0,820.0 L-870.0,810.0 L-880.0,810.0 L-880.0,820.0 L-890.0,820.0 L-890.0,810.0 L-900.0,810.0 L-900.0,820.0 L-890.0,820.0 L-890.0,830.0 L-900.0,830.0 L-900.0,840.0 L-890.0,840.0 L-890.0,830.0 L-880.0,830.0 L-880.0,840.0 L-870.0,840.0 L-870.0,850.0 L-860.0,850.0 L-860.0,860.0 L-870.0,860.0 L-870.0,870.0 L-880.0,870.0 L-880.0,880.0 L-890.0,880.0 L-890.0,870.0 L-900.0,870.0 L-900.0,880.0 L-890.0,880.0 L-890.0,890.0 L-900.0,890.0 L-900.0,900.0 L-910.0,900.0 L-910.0,910.0 L-920.0,910.0 L-920.0,900.0 L-930.0,900.0 L-930.0,910.0 L-920.0,910.0 L-920.0,920.0 L-930.0,920.0 L-930.0,930.0 L-940.0,930.0 L-940.0,940.0 L-950.0,940.0 L-950.0,930.0 L-960.0,930.0 L-960.0,920.0 L-970.0,920.0 L-970.0,910.0 L-960.0,910.0 L-960.0,900.0 L-970.0,900.0 L-970.0,910.0 L-980.0,910.0 L-980.0,900.0 L-990.0,900.0 L-990.0,890.0 L-1000.0,890.0 L-1000.0,880.0 L-990.0,880.0 L-990.0,870.0 L-1000.0,870.0 L-1000.0,880.0 L-1010.0,880.0 L-1010.0,870.0 L-1020.0,870.0 L-1020.0,860.0 L-1030.0,860.0 L-1030.0,850.0 L-1020.0,850.0 L-1020.0,840.0 L-1010.0,840.0 L-1010.0,830.0 L-1000.0,830.0 L-1000.0,840.0 L-990.0,840.0 L-990.0,830.0 L-1000.0,830.0 L-1000.0,820.0 L-990.0,820.0 L-990.0,810.0 L-1000.0,810.0 L-1000.0,820.0 L-1010.0,820.0 L-1010.0,810.0 L-1020.0,810.0 L-1020.0,820.0 L-1010.0,820.0 L-1010.0,830.0 L-1020.0,830.0 L-1020.0,840.0 L-1030.0,840.0 L-1030.0,850.0 L-1040.0,850.0 L-1040.0,840.0 L-1050.0,840.0 L-1050.0,830.0 L-1060.0,830.0 L-1060.0,820.0 L-1050.0,820.0 L-1050.0,810.0 L-1060.0,810.0 L-1060.0,820.0 L-1070.0,820.0 L-1070.0,810.0 L-1080.0,810.0 L-1080.0,820.0 L-1070.0,820.0 L-1070.0,830.0 L-1080.0,830.0 L-1080.0,840.0 L-1070.0,840.0 L-1070.0,830.0 L-1060.0,830.0 L-1060.0,840.0 L-1050.0,840.0 L-1050.0,850.0 L-1040.0,850.0 L-1040.0,860.0 L-1050.0,860.0 L-1050.0,870.0 L-1060.0,870.0 L-1060.0,880.0 L-1070.0,880.0 L-1070.0,870.0 L-1080.0,870.0 L-1080.0,880.0 L-1070.0,880.0 L-1070.0,890.0 L-1080.0,890.0 L-1080.0,900.0 L-1070.0,900.0 L-1070.0,890.0 L-1060.0,890.0 L-1060.0,900.0 L-1050.0,900.0 L-1050.0,890.0 L-1060.0,890.0 L-1060.0,880.0 L-1050.0,880.0 L-1050.0,870.0 L-1040.0,870.0 L-1040.0,860.0 L-1030.0,860.0 L-1030.0,870.0 L-1020.0,870.0 L-1020.0,880.0 L-1010.0,880.0 L-1010.0,890.0 L-1020.0,890.0 L-1020.0,900.0 L-1010.0,900.0 L-1010.0,890.0 L-1000.0,890.0 L-1000.0,900.0 L-990.0,900.0 L-990.0,910.0 L-980.0,910.0 L-980.0,920.0 L-990.0,920.0 L-990.0,930.0 L-980.0,930.0 L-980.0,920.0 L-970.0,920.0 L-970.0,930.0 L-960.0,930.0 L-960.0,940.0 L-950.0,940.0 L-950.0,950.0 L-960.0,950.0 L-960.0,960.0 L-970.0,960.0 L-970.0,970.0 L-980.0,970.0 L-980.0,960.0 L-990.0,960.0 L-990.0,970.0 L-980.0,970.0 L-980.0,980.0 L-990.0,980.0 L-990.0,990.0 L-1000.0,990.0 L-1000.0,1000.0 L-1010.0,1000.0 L-1010.0,990.0 L-1020.0,990.0 L-1020.0,1000.0 L-1010.0,1000.0 L-1010.0,1010.0 L-1020.0,1010.0 L-1020.0,1020.0 L-1030.0,1020.0 L-1030.0,1030.0 L-1040.0,1030.0 L-1040.0,1020.0 L-1050.0,1020.0 L-1050.0,1010.0 L-1060.0,1010.0 L-1060.0,1000.0 L-1050.0,1000.0 L-1050.0,990.0 L-1060.0,990.0 L-1060.0,1000.0 L-1070.0,1000.0 L-1070.0,990.0 L-1080.0,990.0 L-1080.0,1000.0 L-1070.0,1000.0 L-1070.0,1010.0 L-1080.0,1010.0 L-1080.0,1020.0 L-1070.0,1020.0 L-1070.0,1010.0 L-1060.0,1010.0 L-1060.0,1020.0 L-1050.0,1020.0 L-1050.0,1030.0 L-1040.0,1030.0 L-1040.0,1040.0 L-1050.0,1040.0 L-1050.0,1050.0 L-1060.0,1050.0 L-1060.0,1060.0 L-1070.0,1060.0 L-1070.0,1050.0 L-1080.0,1050.0 L-1080.0,1060.0 L-1070.0,1060.0 L-1070.0,1070.0 L-1080.0,1070.0 L-1080.0,1080.0 L-1090.0,1080.0 L-1090.0,1090.0 L-1100.0,1090.0 L-1100.0,1080.0 L-1110.0,1080.0 L-1110.0,1090.0 L-1100.0,1090.0 L-1100.0,1100.0 L-1110.0,1100.0 L-1110.0,1110.0 L-1120.0,1110.0 L-1120.0,1120.0 L-1130.0,1120.0 L-1130.0,1110.0 L-1140.0,1110.0 L-1140.0,1100.0 L-1150.0,1100.0 L-1150.0,1090.0 L-1140.0,1090.0 L-1140.0,1080.0 L-1150.0,1080.0 L-1150.0,1090.0 L-1160.0,1090.0 L-1160.0,1080.0 L-1170.0,1080.0 L-1170.0,1090.0 L-1160.0,1090.0 L-1160.0,1100.0 L-1170.0,1100.0 L-1170.0,1110.0 L-1160.0,1110.0 L-1160.0,1100.0 L-1150.0,1100.0 L-1150.0,1110.0 L-1140.0,1110.0 L-1140.0,1120.0 L-1130.0,1120.0 L-1130.0,1130.0 L-1140.0,1130.0 L-1140.0,1140.0 L-1150.0,1140.0 L-1150.0,1150.0 L-1160.0,1150.0 L-1160.0,1140.0 L-1170.0,1140.0 L-1170.0,1150.0 L-1160.0,1150.0 L-1160.0,1160.0 L-1170.0,1160.0 L-1170.0,1170.0 L-1180.0,1170.0 L-1180.0,1180.0 L-1190.0,1180.0 L-1190.0,1170.0 L-1200.0,1170.0 L-1200.0,1180.0 L-1190.0,1180.0 L-1190.0,1190.0 L-1200.0,1190.0 L-1200.0,1200.0 L-1210.0,1200.0 L-1210.0,1210.0 L-1220.0,1210.0 L-1220.0,1200.0 L-1230.0,1200.0 L-1230.0,1190.0 L-1240.0,1190.0 L-1240.0,1180.0 L-1230.0,1180.0 L-1230.0,1170.0 L-1240.0,1170.0 L-1240.0,1180.0 L-1250.0,1180.0 L-1250.0,1170.0 L-1260.0,1170.0 L-1260.0,1160.0 L-1270.0,1160.0 L-1270.0,1150.0 L-1260.0,1150.0 L-1260.0,1140.0 L-1270.0,1140.0 L-1270.0,1150.0 L-1280.0,1150.0 L-1280.0,1140.0 L-1290.0,1140.0 L-1290.0,1130.0 L-1300.0,1130.0 L-1300.0,1120.0 L-1290.0,1120.0 L-1290.0,1110.0 L-1280.0,1110.0 L-1280.0,1100.0 L-1270.0,1100.0 L-1270.0,1110.0 L-1260.0,1110.0 L-1260.0,1100.0 L-1270.0,1100.0 L-1270.0,1090.0 L-1260.0,1090.0 L-1260.0,1080.0 L-1270.0,1080.0 L-1270.0,1090.0 L-1280.0,1090.0 L-1280.0,1080.0 L-1290.0,1080.0 L-1290.0,1090.0 L-1280.0,1090.0 L-1280.0,1100.0 L-1290.0,1100.0 L-1290.0,1110.0 L-1300.0,1110.0 L-1300.0,1120.0 L-1310.0,1120.0 L-1310.0,1110.0 L-1320.0,1110.0 L-1320.0,1100.0 L-1330.0,1100.0 L-1330.0,1090.0 L-1320.0,1090.0 L-1320.0,1080.0 L-1330.0,1080.0 L-1330.0,1090.0 L-1340.0,1090.0 L-1340.0,1080.0 L-1350.0,1080.0 L-1350.0,1070.0 L-1360.0,1070.0 L-1360.0,1060.0 L-1350.0,1060.0 L-1350.0,1050.0 L-1360.0,1050.0 L-1360.0,1060.0 L-1370.0,1060.0 L-1370.0,1050.0 L-1380.0,1050.0 L-1380.0,1040.0 L-1390.0,1040.0 L-1390.0,1030.0 L-1380.0,1030.0 L-1380.0,1020.0 L-1370.0,1020.0 L-1370.0,1010.0 L-1360.0,1010.0 L-1360.0,1020.0 L-1350.0,1020.0 L-1350.0,1010.0 L-1360.0,1010.0 L-1360.0,1000.0 L-1350.0,1000.0 L-1350.0,990.0 L-1360.0,990.0 L-1360.0,1000.0 L-1370.0,1000.0 L-1370.0,990.0 L-1380.0,990.0 L-1380.0,1000.0 L-1370.0,1000.0 L-1370.0,1010.0 L-1380.0,1010.0 L-1380.0,1020.0 L-1390.0,1020.0 L-1390.0,1030.0 L-1400.0,1030.0 L-1400.0,1020.0 L-1410.0,1020.0 L-1410.0,1010.0 L-1420.0,1010.0 L-1420.0,1000.0 L-1410.0,1000.0 L-1410.0,990.0 L-1420.0,990.0 L-1420.0,1000.0 L-1430.0,1000.0 L-1430.0,990.0 L-1440.0,990.0 L-1440.0,980.0 L-1450.0,980.0 L-1450.0,970.0 L-1440.0,970.0 L-1440.0,960.0 L-1450.0,960.0 L-1450.0,970.0 L-1460.0,970.0 L-1460.0,960.0 L-1470.0,960.0 L-1470.0,950.0 L-1480.0,950.0 L-1480.0,940.0 L-1470.0,940.0 L-1470.0,930.0 L-1460.0,930.0 L-1460.0,920.0 L-1450.0,920.0 L-1450.0,930.0 L-1440.0,930.0 L-1440.0,920.0 L-1450.0,920.0 L-1450.0,910.0 L-1440.0,910.0 L-1440.0,900.0 L-1430.0,900.0 L-1430.0,890.0 L-1420.0,890.0 L-1420.0,900.0 L-1410.0,900.0 L-1410.0,890.0 L-1420.0,890.0 L-1420.0,880.0 L-1410.0,880.0 L-1410.0,870.0 L-1400.0,870.0 L-1400.0,860.0 L-1390.0,860.0 L-1390.0,870.0 L-1380.0,870.0 L-1380.0,880.0 L-1370.0,880.0 L-1370.0,890.0 L-1380.0,890.0 L-1380.0,900.0 L-1370.0,900.0 L-1370.0,890.0 L-1360.0,890.0 L-1360.0,900.0 L-1350.0,900.0 L-1350.0,890.0 L-1360.0,890.0 L-1360.0,880.0 L-1350.0,880.0 L-1350.0,870.0 L-1360.0,870.0 L-1360.0,880.0 L-1370.0,880.0 L-1370.0,870.0 L-1380.0,870.0 L-1380.0,860.0 L-1390.0,860.0 L-1390.0,850.0 L-1380.0,850.0 L-1380.0,840.0 L-1370.0,840.0 L-1370.0,830.0 L-1360.0,830.0 L-1360.0,840.0 L-1350.0,840.0 L-1350.0,830.0 L-1360.0,830.0 L-1360.0,820.0 L-1350.0,820.0 L-1350.0,810.0 L-1360.0,810.0 L-1360.0,820.0 L-1370.0,820.0 L-1370.0,810.0 L-1380.0,810.0 L-1380.0,820.0 L-1370.0,820.0 L-1370.0,830.0 L-1380.0,830.0 L-1380.0,840.0 L-1390.0,840.0 L-1390.0,850.0 L-1400.0,850.0 L-1400.0,840.0 L-1410.0,840.0 L-1410.0,830.0 L-1420.0,830.0 L-1420.0,820.0 L-1410.0,820.0 L-1410.0,810.0 L-1420.0,810.0 L-1420.0,820.0 L-1430.0,820.0 L-1430.0,810.0 L-1440.0,810.0 L-1440.0,820.0 L-1430.0,820.0 L-1430.0,830.0 L-1440.0,830.0 L-1440.0,840.0 L-1430.0,840.0 L-1430.0,830.0 L-1420.0,830.0 L-1420.0,840.0 L-1410.0,840.0 L-1410.0,850.0 L-1400.0,850.0 L-1400.0,860.0 L-1410.0,860.0 L-1410.0,870.0 L-1420.0,870.0 L-1420.0,880.0 L-1430.0,880.0 L-1430.0,870.0 L-1440.0,870.0 L-1440.0,880.0 L-1430.0,880.0 L-1430.0,890.0 L-1440.0,890.0 L-1440.0,900.0 L-1450.0,900.0 L-1450.0,910.0 L-1460.0,910.0 L-1460.0,900.0 L-1470.0,900.0 L-1470.0,910.0 L-1460.0,910.0 L-1460.0,920.0 L-1470.0,920.0 L-1470.0,930.0 L-1480.0,930.0 L-1480.0,940.0 L-1490.0,940.0 L-1490.0,930.0 L-1500.0,930.0 L-1500.0,920.0 L-1510.0,920.0 L-1510.0,910.0 L-1500.0,910.0 L-1500.0,900.0 L-1510.0,900.0 L-1510.0,910.0 L-1520.0,910.0 L-1520.0,900.0 L-1530.0,900.0 L-1530.0,890.0 L-1540.0,890.0 L-1540.0,880.0 L-1530.0,880.0 L-1530.0,870.0 L-1540.0,870.0 L-1540.0,880.0 L-1550.0,880.0 L-1550.0,870.0 L-1560.0,870.0 L-1560.0,860.0 L-1570.0,860.0 L-1570.0,850.0 L-1560.0,850.0 L-1560.0,840.0 L-1550.0,840.0 L-1550.0,830.0 L-1540.0,830.0 L-1540.0,840.0 L-1530.0,840.0 L-1530.0,830.0 L-1540.0,830.0 L-1540.0,820.0 L-1530.0,820.0 L-1530.0,810.0 L-1540.0,810.0 L-1540.0,820.0 L-1550.0,820.0 L-1550.0,810.0 L-1560.0,810.0 L-1560.0,820.0 L-1550.0,820.0 L-1550.0,830.0 L-1560.0,830.0 L-1560.0,840.0 L-1570.0,840.0 L-1570.0,850.0 L-1580.0,850.0 L-1580.0,840.0 L-1590.0,840.0 L-1590.0,830.0 L-1600.0,830.0 L-1600.0,820.0 L-1590.0,820.0 L-1590.0,810.0 L-1600.0,810.0 L-1600.0,820.0 L-1610.0,820.0 L-1610.0,810.0 L-1620.0,810.0 L-1620.0,800.0 L-1630.0,800.0 L-1630.0,790.0 L-1620.0,790.0 L-1620.0,780.0 L-1630.0,780.0 L-1630.0,790.0 L-1640.0,790.0 L-1640.0,780.0 L-1650.0,780.0 L-1650.0,770.0 L-1660.0,770.0 L-1660.0,760.0 L-1650.0,760.0 L-1650.0,750.0 L-1640.0,750.0 L-1640.0,740.0 L-1630.0,740.0 L-1630.0,750.0 L-1620.0,750.0 L-1620.0,740.0 L-1630.0,740.0 L-1630.0,730.0 L-1620.0,730.0 L-1620.0,720.0 L-1630.0,720.0 L-1630.0,730.0 L-1640.0,730.0 L-1640.0,720.0 L-1650.0,720.0 L-1650.0,730.0 L-1640.0,730.0 L-1640.0,740.0 L-1650.0,740.0 L-1650.0,750.0 L-1660.0,750.0 L-1660.0,760.0 L-1670.0,760.0 L-1670.0,750.0 L-1680.0,750.0 L-1680.0,740.0 L-1690.0,740.0 L-1690.0,730.0 L-1680.0,730.0 L-1680.0,720.0 L-1690.0,720.0 L-1690.0,730.0 L-1700.0,730.0 L-1700.0,720.0 L-1710.0,720.0 L-1710.0,710.0 L-1720.0,710.0 L-1720.0,700.0 L-1710.0,700.0 L-1710.0,690.0 L-1720.0,690.0 L-1720.0,700.0 L-1730.0,700.0 L-1730.0,690.0 L-1740.0,690.0 L-1740.0,680.0 L-1750.0,680.0 L-1750.0,670.0 L-1740.0,670.0 L-1740.0,660.0 L-1730.0,660.0 L-1730.0,650.0 L-1720.0,650.0 L-1720.0,660.0 L-1710.0,660.0 L-1710.0,650.0 L-1720.0,650.0 L-1720.0,640.0 L-1710.0,640.0 L-1710.0,630.0 L-1700.0,630.0 L-1700.0,620.0 L-1690.0,620.0 L-1690.0,630.0 L-1680.0,630.0 L-1680.0,620.0 L-1690.0,620.0 L-1690.0,610.0 L-1680.0,610.0 L-1680.0,600.0 L-1670.0,600.0 L-1670.0,590.0 L-1660.0,590.0 L-1660.0,600.0 L-1650.0,600.0 L-1650.0,610.0 L-1640.0,610.0 L-1640.0,620.0 L-1650.0,620.0 L-1650.0,630.0 L-1640.0,630.0 L-1640.0,620.0 L-1630.0,620.0 L-1630.0,630.0 L-1620.0,630.0 L-1620.0,620.0 L-1630.0,620.0 L-1630.0,610.0 L-1620.0,610.0 L-1620.0,600.0 L-1630.0,600.0 L-1630.0,610.0 L-1640.0,610.0 L-1640.0,600.0 L-1650.0,600.0 L-1650.0,590.0 L-1660.0,590.0 L-1660.0,580.0 L-1650.0,580.0 L-1650.0,570.0 L-1640.0,570.0 L-1640.0,560.0 L-1630.0,560.0 L-1630.0,570.0 L-1620.0,570.0 L-1620.0,560.0 L-1630.0,560.0 L-1630.0,550.0 L-1620.0,550.0 L-1620.0,540.0 L-1630.0,540.0 L-1630.0,550.0 L-1640.0,550.0 L-1640.0,540.0 L-1650.0,540.0 L-1650.0,550.0 L-1640.0,550.0 L-1640.0,560.0 L-1650.0,560.0 L-1650.0,570.0 L-1660.0,570.0 L-1660.0,580.0 L-1670.0,580.0 L-1670.0,570.0 L-1680.0,570.0 L-1680.0,560.0 L-1690.0,560.0 L-1690.0,550.0 L-1680.0,550.0 L-1680.0,540.0 L-1690.0,540.0 L-1690.0,550.0 L-1700.0,550.0 L-1700.0,540.0 L-1710.0,540.0 L-1710.0,550.0 L-1700.0,550.0 L-1700.0,560.0 L-1710.0,560.0 L-1710.0,570.0 L-1700.0,570.0 L-1700.0,560.0 L-1690.0,560.0 L-1690.0,570.0 L-1680.0,570.0 L-1680.0,580.0 L-1670.0,580.0 L-1670.0,590.0 L-1680.0,590.0 L-1680.0,600.0 L-1690.0,600.0 L-1690.0,610.0 L-1700.0,610.0 L-1700.0,600.0 L-1710.0,600.0 L-1710.0,610.0 L-1700.0,610.0 L-1700.0,620.0 L-1710.0,620.0 L-1710.0,630.0 L-1720.0,630.0 L-1720.0,640.0 L-1730.0,640.0 L-1730.0,630.0 L-1740.0,630.0 L-1740.0,640.0 L-1730.0,640.0 L-1730.0,650.0 L-1740.0,650.0 L-1740.0,660.0 L-1750.0,660.0 L-1750.0,670.0 L-1760.0,670.0 L-1760.0,660.0 L-1770.0,660.0 L-1770.0,650.0 L-1780.0,650.0 L-1780.0,640.0 L-1770.0,640.0 L-1770.0,630.0 L-1780.0,630.0 L-1780.0,640.0 L-1790.0,640.0 L-1790.0,630.0 L-1800.0,630.0 L-1800.0,620.0 L-1810.0,620.0 L-1810.0,610.0 L-1800.0,610.0 L-1800.0,600.0 L-1810.0,600.0 L-1810.0,610.0 L-1820.0,610.0 L-1820.0,600.0 L-1830.0,600.0 L-1830.0,590.0 L-1840.0,590.0 L-1840.0,580.0 L-1830.0,580.0 L-1830.0,570.0 L-1820.0,570.0 L-1820.0,560.0 L-1810.0,560.0 L-1810.0,570.0 L-1800.0,570.0 L-1800.0,560.0 L-1810.0,560.0 L-1810.0,550.0 L-1800.0,550.0 L-1800.0,540.0 L-1810.0,540.0 L-1810.0,550.0 L-1820.0,550.0 L-1820.0,540.0 L-1830.0,540.0 L-1830.0,550.0 L-1820.0,550.0 L-1820.0,560.0 L-1830.0,560.0 L-1830.0,570.0 L-1840.0,570.0 L-1840.0,580.0 L-1850.0,580.0 L-1850.0,570.0 L-1860.0,570.0 L-1860.0,560.0 L-1870.0,560.0 L-1870.0,550.0 L-1860.0,550.0 L-1860.0,540.0 L-1870.0,540.0 L-1870.0,550.0 L-1880.0,550.0 L-1880.0,540.0 L-1890.0,540.0 L-1890.0,530.0 L-1900.0,530.0 L-1900.0,520.0 L-1890.0,520.0 L-1890.0,510.0 L-1900.0,510.0 L-1900.0,520.0 L-1910.0,520.0 L-1910.0,510.0 L-1920.0,510.0 L-1920.0,500.0 L-1930.0,500.0 L-1930.0,490.0 L-1920.0,490.0 L-1920.0,480.0 L-1910.0,480.0 L-1910.0,470.0 L-1900.0,470.0 L-1900.0,480.0 L-1890.0,480.0 L-1890.0,470.0 L-1900.0,470.0 L-1900.0,460.0 L-1890.0,460.0 L-1890.0,450.0 L-1900.0,450.0 L-1900.0,460.0 L-1910.0,460.0 L-1910.0,450.0 L-1920.0,450.0 L-1920.0,460.0 L-1910.0,460.0 L-1910.0,470.0 L-1920.0,470.0 L-1920.0,480.0 L-1930.0,480.0 L-1930.0,490.0 L-1940.0,490.0 L-1940.0,480.0 L-1950.0,480.0 L-1950.0,470.0 L-1960.0,470.0 L-1960.0,460.0 L-1950.0,460.0 L-1950.0,450.0 L-1960.0,450.0 L-1960.0,460.0 L-1970.0,460.0 L-1970.0,450.0 L-1980.0,450.0 L-1980.0,440.0 L-1990.0,440.0 L-1990.0,430.0 L-1980.0,430.0 L-1980.0,420.0 L-1990.0,420.0 L-1990.0,430.0 L-2000.0,430.0 L-2000.0,420.0 L-2010.0,420.0 L-2010.0,410.0 L-2020.0,410.0 L-2020.0,400.0 L-2010.0,400.0 L-2010.0,390.0 L-2000.0,390.0 L-2000.0,380.0 L-1990.0,380.0 L-1990.0,390.0 L-1980.0,390.0 L-1980.0,380.0 L-1990.0,380.0 L-1990.0,370.0 L-1980.0,370.0 L-1980.0,360.0 L-1970.0,360.0 L-1970.0,350.0 L-1960.0,350.0 L-1960.0,360.0 L-1950.0,360.0 L-1950.0,350.0 L-1960.0,350.0 L-1960.0,340.0 L-1950.0,340.0 L-1950.0,330.0 L-1940.0,330.0 L-1940.0,320.0 L-1930.0,320.0 L-1930.0,330.0 L-1920.0,330.0 L-1920.0,340.0 L-1910.0,340.0 L-1910.0,350.0 L-1920.0,350.0 L-1920.0,360.0 L-1910.0,360.0 L-1910.0,350.0 L-1900.0,350.0 L-1900.0,360.0 L-1890.0,360.0 L-1890.0,350.0 L-1900.0,350.0 L-1900.0,340.0 L-1890.0,340.0 L-1890.0,330.0 L-1900.0,330.0 L-1900.0,340.0 L-1910.0,340.0 L-1910.0,330.0 L-1920.0,330.0 L-1920.0,320.0 L-1930.0,320.0 L-1930.0,310.0 L-1920.0,310.0 L-1920.0,300.0 L-1910.0,300.0 L-1910.0,290.0 L-1900.0,290.0 L-1900.0,300.0 L-1890.0,300.0 L-1890.0,290.0 L-1900.0,290.0 L-1900.0,280.0 L-1890.0,280.0 L-1890.0,270.0 L-1880.0,270.0 L-1880.0,260.0 L-1870.0,260.0 L-1870.0,270.0 L-1860.0,270.0 L-1860.0,260.0 L-1870.0,260.0 L-1870.0,250.0 L-1860.0,250.0 L-1860.0,240.0 L-1850.0,240.0 L-1850.0,230.0 L-1840.0,230.0 L-1840.0,240.0 L-1830.0,240.0 L-1830.0,250.0 L-1820.0,250.0 L-1820.0,260.0 L-1830.0,260.0 L-1830.0,270.0 L-1820.0,270.0 L-1820.0,260.0 L-1810.0,260.0 L-1810.0,270.0 L-1800.0,270.0 L-1800.0,260.0 L-1810.0,260.0 L-1810.0,250.0 L-1800.0,250.0 L-1800.0,240.0 L-1810.0,240.0 L-1810.0,250.0 L-1820.0,250.0 L-1820.0,240.0 L-1830.0,240.0 L-1830.0,230.0 L-1840.0,230.0 L-1840.0,220.0 L-1830.0,220.0 L-1830.0,210.0 L-1820.0,210.0 L-1820.0,200.0 L-1810.0,200.0 L-1810.0,210.0 L-1800.0,210.0 L-1800.0,200.0 L-1810.0,200.0 L-1810.0,190.0 L-1800.0,190.0 L-1800.0,180.0 L-1790.0,180.0 L-1790.0,170.0 L-1780.0,170.0 L-1780.0,180.0 L-1770.0,180.0 L-1770.0,170.0 L-1780.0,170.0 L-1780.0,160.0 L-1770.0,160.0 L-1770.0,150.0 L-1760.0,150.0 L-1760.0,140.0 L-1750.0,140.0 L-1750.0,150.0 L-1740.0,150.0 L-1740.0,160.0 L-1730.0,160.0 L-1730.0,170.0 L-1740.0,170.0 L-1740.0,180.0 L-1730.0,180.0 L-1730.0,170.0 L-1720.0,170.0 L-1720.0,180.0 L-1710.0,180.0 L-1710.0,190.0 L-1700.0,190.0 L-1700.0,200.0 L-1710.0,200.0 L-1710.0,210.0 L-1700.0,210.0 L-1700.0,200.0 L-1690.0,200.0 L-1690.0,210.0 L-1680.0,210.0 L-1680.0,220.0 L-1670.0,220.0 L-1670.0,230.0 L-1680.0,230.0 L-1680.0,240.0 L-1690.0,240.0 L-1690.0,250.0 L-1700.0,250.0 L-1700.0,240.0 L-1710.0,240.0 L-1710.0,250.0 L-1700.0,250.0 L-1700.0,260.0 L-1710.0,260.0 L-1710.0,270.0 L-1700.0,270.0 L-1700.0,260.0 L-1690.0,260.0 L-1690.0,270.0 L-1680.0,270.0 L-1680.0,260.0 L-1690.0,260.0 L-1690.0,250.0 L-1680.0,250.0 L-1680.0,240.0 L-1670.0,240.0 L-1670.0,230.0 L-1660.0,230.0 L-1660.0,240.0 L-1650.0,240.0 L-1650.0,250.0 L-1640.0,250.0 L-1640.0,260.0 L-1650.0,260.0 L-1650.0,270.0 L-1640.0,270.0 L-1640.0,260.0 L-1630.0,260.0 L-1630.0,270.0 L-1620.0,270.0 L-1620.0,260.0 L-1630.0,260.0 L-1630.0,250.0 L-1620.0,250.0 L-1620.0,240.0 L-1630.0,240.0 L-1630.0,250.0 L-1640.0,250.0 L-1640.0,240.0 L-1650.0,240.0 L-1650.0,230.0 L-1660.0,230.0 L-1660.0,220.0 L-1650.0,220.0 L-1650.0,210.0 L-1640.0,210.0 L-1640.0,200.0 L-1630.0,200.0 L-1630.0,210.0 L-1620.0,210.0 L-1620.0,200.0 L-1630.0,200.0 L-1630.0,190.0 L-1620.0,190.0 L-1620.0,180.0 L-1630.0,180.0 L-1630.0,190.0 L-1640.0,190.0 L-1640.0,180.0 L-1650.0,180.0 L-1650.0,190.0 L-1640.0,190.0 L-1640.0,200.0 L-1650.0,200.0 L-1650.0,210.0 L-1660.0,210.0 L-1660.0,220.0 L-1670.0,220.0 L-1670.0,210.0 L-1680.0,210.0 L-1680.0,200.0 L-1690.0,200.0 L-1690.0,190.0 L-1680.0,190.0 L-1680.0,180.0 L-1690.0,180.0 L-1690.0,190.0 L-1700.0,190.0 L-1700.0,180.0 L-1710.0,180.0 L-1710.0,170.0 L-1720.0,170.0 L-1720.0,160.0 L-1710.0,160.0 L-1710.0,150.0 L-1720.0,150.0 L-1720.0,160.0 L-1730.0,160.0 L-1730.0,150.0 L-1740.0,150.0 L-1740.0,140.0 L-1750.0,140.0 L-1750.0,130.0 L-1740.0,130.0 L-1740.0,120.0 L-1730.0,120.0 L-1730.0,110.0 L-1720.0,110.0 L-1720.0,120.0 L-1710.0,120.0 L-1710.0,110.0 L-1720.0,110.0 L-1720.0,100.0 L-1710.0,100.0 L-1710.0,90.0 L-1700.0,90.0 L-1700.0,80.0 L-1690.0,80.0 L-1690.0,90.0 L-1680.0,90.0 L-1680.0,80.0 L-1690.0,80.0 L-1690.0,70.0 L-1680.0,70.0 L-1680.0,60.0 L-1670.0,60.0 L-1670.0,50.0 L-1660.0,50.0 L-1660.0,60.0 L-1650.0,60.0 L-1650.0,70.0 L-1640.0,70.0 L-1640.0,80.0 L-1650.0,80.0 L-1650.0,90.0 L-1640.0,90.0 L-1640.0,80.0 L-1630.0,80.0 L-1630.0,90.0 L-1620.0,90.0 L-1620.0,80.0 L-1630.0,80.0 L-1630.0,70.0 L-1620.0,70.0 L-1620.0,60.0 L-1630.0,60.0 L-1630.0,70.0 L-1640.0,70.0 L-1640.0,60.0 L-1650.0,60.0 L-1650.0,50.0 L-1660.0,50.0 L-1660.0,40.0 L-1650.0,40.0 L-1650.0,30.0 L-1640.0,30.0 L-1640.0,20.0 L-1630.0,20.0 L-1630.0,30.0 L-1620.0,30.0 L-1620.0,20.0 L-1630.0,20.0 L-1630.0,10.0 L-1620.0,10.0 L-1620.0,0.0 L-1630.0,0.0 L-1630.0,10.0 L-1640.0,10.0 L-1640.0,0.0 L-1650.0,0.0 L-1650.0,10.0 L-1640.0,10.0 L-1640.0,20.0 L-1650.0,20.0 L-1650.0,30.0 L-1660.0,30.0 L-1660.0,40.0 L-1670.0,40.0 L-1670.0,30.0 L-1680.0,30.0 L-1680.0,20.0 L-1690.0,20.0 L-1690.0,10.0 L-1680.0,10.0 L-1680.0,0.0 L-1690.0,0.0 L-1690.0,10.0 L-1700.0,10.0 L-1700.0,0.0 L-1710.0,0.0 L-1710.0,10.0 L-1700.0,10.0 L-1700.0,20.0 L-1710.0,20.0 L-1710.0,30.0 L-1700.0,30.0 L-1700.0,20.0 L-1690.0,20.0 L-1690.0,30.0 L-1680.0,30.0 L-1680.0,40.0 L-1670.0,40.0 L-1670.0,50.0 L-1680.0,50.0 L-1680.0,60.0 L-1690.0,60.0 L-1690.0,70.0 L-1700.0,70.0 L-1700.0,60.0 L-1710.0,60.0 L-1710.0,70.0 L-1700.0,70.0 L-1700.0,80.0 L-1710.0,80.0 L-1710.0,90.0 L-1720.0,90.0 L-1720.0,100.0 L-1730.0,100.0 L-1730.0,90.0 L-1740.0,90.0 L-1740.0,100.0 L-1730.0,100.0 L-1730.0,110.0 L-1740.0,110.0 L-1740.0,120.0 L-1750.0,120.0 L-1750.0,130.0 L-1760.0,130.0 L-1760.0,120.0 L-1770.0,120.0 L-1770.0,110.0 L-1780.0,110.0 L-1780.0,100.0 L-1770.0,100.0 L-1770.0,90.0 L-1780.0,90.0 L-1780.0,100.0 L-1790.0,100.0 L-1790.0,90.0 L-1800.0,90.0 L-1800.0,80.0 L-1810.0,80.0 L-1810.0,70.0 L-1800.0,70.0 L-1800.0,60.0 L-1810.0,60.0 L-1810.0,70.0 L-1820.0,70.0 L-1820.0,60.0 L-1830.0,60.0 L-1830.0,50.0 L-1840.0,50.0 L-1840.0,40.0 L-1830.0,40.0 L-1830.0,30.0 L-1820.0,30.0 L-1820.0,20.0 L-1810.0,20.0 L-1810.0,30.0 L-1800.0,30.0 L-1800.0,20.0 L-1810.0,20.0 L-1810.0,10.0 L-1800.0,10.0 L-1800.0,0.0 L-1810.0,0.0 L-1810.0,10.0 L-1820.0,10.0 L-1820.0,0.0 L-1830.0,0.0 L-1830.0,10.0 L-1820.0,10.0 L-1820.0,20.0 L-1830.0,20.0 L-1830.0,30.0 L-1840.0,30.0 L-1840.0,40.0 L-1850.0,40.0 L-1850.0,30.0 L-1860.0,30.0 L-1860.0,20.0 L-1870.0,20.0 L-1870.0,10.0 L-1860.0,10.0 L-1860.0,0.0 L-1870.0,0.0 L-1870.0,10.0 L-1880.0,10.0 L-1880.0,0.0 L-1890.0,0.0 L-1890.0,10.0 L-1880.0,10.0 L-1880.0,20.0 L-1890.0,20.0 L-1890.0,30.0 L-1880.0,30.0 L-1880.0,20.0 L-1870.0,20.0 L-1870.0,30.0 L-1860.0,30.0 L-1860.0,40.0 L-1850.0,40.0 L-1850.0,50.0 L-1860.0,50.0 L-1860.0,60.0 L-1870.0,60.0 L-1870.0,70.0 L-1880.0,70.0 L-1880.0,60.0 L-1890.0,60.0 L-1890.0,70.0 L-1880.0,70.0 L-1880.0,80.0 L-1890.0,80.0 L-1890.0,90.0 L-1880.0,90.0 L-1880.0,80.0 L-1870.0,80.0 L-1870.0,90.0 L-1860.0,90.0 L-1860.0,80.0 L-1870.0,80.0 L-1870.0,70.0 L-1860.0,70.0 L-1860.0,60.0 L-1850.0,60.0 L-1850.0,50.0 L-1840.0,50.0 L-1840.0,60.0 L-1830.0,60.0 L-1830.0,70.0 L-1820.0,70.0 L-1820.0,80.0 L-1830.0,80.0 L-1830.0,90.0 L-1820.0,90.0 L-1820.0,80.0 L-1810.0,80.0 L-1810.0,90.0 L-1800.0,90.0 L-1800.0,100.0 L-1790.0,100.0 L-1790.0,110.0 L-1800.0,110.0 L-1800.0,120.0 L-1790.0,120.0 L-1790.0,110.0 L-1780.0,110.0 L-1780.0,120.0 L-1770.0,120.0 L-1770.0,130.0 L-1760.0,130.0 L-1760.0,140.0 L-1770.0,140.0 L-1770.0,150.0 L-1780.0,150.0 L-1780.0,160.0 L-1790.0,160.0 L-1790.0,150.0 L-1800.0,150.0 L-1800.0,160.0 L-1790.0,160.0 L-1790.0,170.0 L-1800.0,170.0 L-1800.0,180.0 L-1810.0,180.0 L-1810.0,190.0 L-1820.0,190.0 L-1820.0,180.0 L-1830.0,180.0 L-1830.0,190.0 L-1820.0,190.0 L-1820.0,200.0 L-1830.0,200.0 L-1830.0,210.0 L-1840.0,210.0 L-1840.0,220.0 L-1850.0,220.0 L-1850.0,210.0 L-1860.0,210.0 L-1860.0,200.0 L-1870.0,200.0 L-1870.0,190.0 L-1860.0,190.0 L-1860.0,180.0 L-1870.0,180.0 L-1870.0,190.0 L-1880.0,190.0 L-1880.0,180.0 L-1890.0,180.0 L-1890.0,190.0 L-1880.0,190.0 L-1880.0,200.0 L-1890.0,200.0 L-1890.0,210.0 L-1880.0,210.0 L-1880.0,200.0 L-1870.0,200.0 L-1870.0,210.0 L-1860.0,210.0 L-1860.0,220.0 L-1850.0,220.0 L-1850.0,230.0 L-1860.0,230.0 L-1860.0,240.0 L-1870.0,240.0 L-1870.0,250.0 L-1880.0,250.0 L-1880.0,240.0 L-1890.0,240.0 L-1890.0,250.0 L-1880.0,250.0 L-1880.0,260.0 L-1890.0,260.0 L-1890.0,270.0 L-1900.0,270.0 L-1900.0,280.0 L-1910.0,280.0 L-1910.0,270.0 L-1920.0,270.0 L-1920.0,280.0 L-1910.0,280.0 L-1910.0,290.0 L-1920.0,290.0 L-1920.0,300.0 L-1930.0,300.0 L-1930.0,310.0 L-1940.0,310.0 L-1940.0,300.0 L-1950.0,300.0 L-1950.0,290.0 L-1960.0,290.0 L-1960.0,280.0 L-1950.0,280.0 L-1950.0,270.0 L-1960.0,270.0 L-1960.0,280.0 L-1970.0,280.0 L-1970.0,270.0 L-1980.0,270.0 L-1980.0,280.0 L-1970.0,280.0 L-1970.0,290.0 L-1980.0,290.0 L-1980.0,300.0 L-1970.0,300.0 L-1970.0,290.0 L-1960.0,290.0 L-1960.0,300.0 L-1950.0,300.0 L-1950.0,310.0 L-1940.0,310.0 L-1940.0,320.0 L-1950.0,320.0 L-1950.0,330.0 L-1960.0,330.0 L-1960.0,340.0 L-1970.0,340.0 L-1970.0,330.0 L-1980.0,330.0 L-1980.0,340.0 L-1970.0,340.0 L-1970.0,350.0 L-1980.0,350.0 L-1980.0,360.0 L-1990.0,360.0 L-1990.0,370.0 L-2000.0,370.0 L-2000.0,360.0 L-2010.0,360.0 L-2010.0,370.0 L-2000.0,370.0 L-2000.0,380.0 L-2010.0,380.0 L-2010.0,390.0 L-2020.0,390.0 L-2020.0,400.0 L-2030.0,400.0 L-2030.0,390.0 L-2040.0,390.0 L-2040.0,380.0 L-2050.0,380.0 L-2050.0,370.0 L-2040.0,370.0 L-2040.0,360.0 L-2050.0,360.0 L-2050.0,370.0 L-2060.0,370.0 L-2060.0,360.0 L-2070.0,360.0 L-2070.0,350.0 L-2080.0,350.0 L-2080.0,340.0 L-2070.0,340.0 L-2070.0,330.0 L-2080.0,330.0 L-2080.0,340.0 L-2090.0,340.0 L-2090.0,330.0 L-2100.0,330.0 L-2100.0,320.0 L-2110.0,320.0 L-2110.0,310.0 L-2100.0,310.0 L-2100.0,300.0 L-2090.0,300.0 L-2090.0,290.0 L-2080.0,290.0 L-2080.0,300.0 L-2070.0,300.0 L-2070.0,290.0 L-2080.0,290.0 L-2080.0,280.0 L-2070.0,280.0 L-2070.0,270.0 L-2080.0,270.0 L-2080.0,280.0 L-2090.0,280.0 L-2090.0,270.0 L-2100.0,270.0 L-2100.0,280.0 L-2090.0,280.0 L-2090.0,290.0 L-2100.0,290.0 L-2100.0,300.0 L-2110.0,300.0 L-2110.0,310.0 L-2120.0,310.0 L-2120.0,300.0 L-2130.0,300.0 L-2130.0,290.0 L-2140.0,290.0 L-2140.0,280.0 L-2130.0,280.0 L-2130.0,270.0 L-2140.0,270.0 L-2140.0,280.0 L-2150.0,280.0 L-2150.0,270.0 L-2160.0,270.0 L-2160.0,260.0 L-2170.0,260.0 L-2170.0,250.0 L-2160.0,250.0 L-2160.0,240.0 L-2170.0,240.0 L-2170.0,250.0 L-2180.0,250.0 L-2180.0,240.0 L-2190.0,240.0 L-2190.0,230.0 L-2200.0,230.0 L-2200.0,220.0 L-2190.0,220.0 L-2190.0,210.0 L-2180.0,210.0 L-2180.0,200.0 L-2170.0,200.0 L-2170.0,210.0 L-2160.0,210.0 L-2160.0,200.0 L-2170.0,200.0 L-2170.0,190.0 L-2160.0,190.0 L-2160.0,180.0 L-2170.0,180.0 L-2170.0,190.0 L-2180.0,190.0 L-2180.0,180.0 L-2190.0,180.0 L-2190.0,190.0 L-2180.0,190.0 L-2180.0,200.0 L-2190.0,200.0 L-2190.0,210.0 L-2200.0,210.0 L-2200.0,220.0 L-2210.0,220.0 L-2210.0,210.0 L-2220.0,210.0 L-2220.0,200.0 L-2230.0,200.0 L-2230.0,190.0 L-2220.0,190.0 L-2220.0,180.0 L-2230.0,180.0 L-2230.0,190.0 L-2240.0,190.0 L-2240.0,180.0 L-2250.0,180.0 L-2250.0,170.0 L-2260.0,170.0 L-2260.0,160.0 L-2250.0,160.0 L-2250.0,150.0 L-2260.0,150.0 L-2260.0,160.0 L-2270.0,160.0 L-2270.0,150.0 L-2280.0,150.0 L-2280.0,140.0 L-2290.0,140.0 L-2290.0,130.0 L-2280.0,130.0 L-2280.0,120.0 L-2270.0,120.0 L-2270.0,110.0 L-2260.0,110.0 L-2260.0,120.0 L-2250.0,120.0 L-2250.0,110.0 L-2260.0,110.0 L-2260.0,100.0 L-2250.0,100.0 L-2250.0,90.0 L-2240.0,90.0 L-2240.0,80.0 L-2230.0,80.0 L-2230.0,90.0 L-2220.0,90.0 L-2220.0,80.0 L-2230.0,80.0 L-2230.0,70.0 L-2220.0,70.0 L-2220.0,60.0 L-2210.0,60.0 L-2210.0,50.0 L-2200.0,50.0 L-2200.0,60.0 L-2190.0,60.0 L-2190.0,70.0 L-2180.0,70.0 L-2180.0,80.0 L-2190.0,80.0 L-2190.0,90.0 L-2180.0,90.0 L-2180.0,80.0 L-2170.0,80.0 L-2170.0,90.0 L-2160.0,90.0 L-2160.0,80.0 L-2170.0,80.0 L-2170.0,70.0 L-2160.0,70.0 L-2160.0,60.0 L-2170.0,60.0 L-2170.0,70.0 L-2180.0,70.0 L-2180.0,60.0 L-2190.0,60.0 L-2190.0,50.0 L-2200.0,50.0 L-2200.0,40.0 L-2190.0,40.0 L-2190.0,30.0 L-2180.0,30.0 L-2180.0,20.0 L-2170.0,20.0 L-2170.0,30.0 L-2160.0,30.0 L-2160.0,20.0 L-2170.0,20.0 L-2170.0,10.0 L-2160.0,10.0 L-2160.0,0.0 L-2170.0,0.0 L-2170.0,10.0 L-2180.0,10.0 L-2180.0,0.0 L-2190.0,0.0 L-2190.0,10.0 L-2180.0,10.0 L-2180.0,20.0 L-2190.0,20.0 L-2190.0,30.0 L-2200.0,30.0 L-2200.0,40.0 L-2210.0,40.0 L-2210.0,30.0 L-2220.0,30.0 L-2220.0,20.0 L-2230.0,20.0 L-2230.0,10.0 L-2220.0,10.0 L-2220.0,0.0 L-2230.0,0.0 L-2230.0,10.0 L-2240.0,10.0 L-2240.0,0.0 L-2250.0,0.0 L-2250.0,10.0 L-2240.0,10.0 L-2240.0,20.0 L-2250.0,20.0 L-2250.0,30.0 L-2240.0,30.0 L-2240.0,20.0 L-2230.0,20.0 L-2230.0,30.0 L-2220.0,30.0 L-2220.0,40.0 L-2210.0,40.0 L-2210.0,50.0 L-2220.0,50.0 L-2220.0,60.0 L-2230.0,60.0 L-2230.0,70.0 L-2240.0,70.0 L-2240.0,60.0 L-2250.0,60.0 L-2250.0,70.0 L-2240.0,70.0 L-2240.0,80.0 L-2250.0,80.0 L-2250.0,90.0 L-2260.0,90.0 L-2260.0,100.0 L-2270.0,100.0 L-2270.0,90.0 L-2280.0,90.0 L-2280.0,100.0 L-2270.0,100.0 L-2270.0,110.0 L-2280.0,110.0 L-2280.0,120.0 L-2290.0,120.0 L-2290.0,130.0 L-2300.0,130.0 L-2300.0,120.0 L-2310.0,120.0 L-2310.0,110.0 L-2320.0,110.0 L-2320.0,100.0 L-2310.0,100.0 L-2310.0,90.0 L-2320.0,90.0 L-2320.0,100.0 L-2330.0,100.0 L-2330.0,90.0 L-2340.0,90.0 L-2340.0,80.0 L-2350.0,80.0 L-2350.0,70.0 L-2340.0,70.0 L-2340.0,60.0 L-2350.0,60.0 L-2350.0,70.0 L-2360.0,70.0 L-2360.0,60.0 L-2370.0,60.0 L-2370.0,50.0 L-2380.0,50.0 L-2380.0,40.0 L-2370.0,40.0 L-2370.0,30.0 L-2360.0,30.0 L-2360.0,20.0 L-2350.0,20.0 L-2350.0,30.0 L-2340.0,30.0 L-2340.0,20.0 L-2350.0,20.0 L-2350.0,10.0 L-2340.0,10.0 L-2340.0,0.0 L-2350.0,0.0 L-2350.0,10.0 L-2360.0,10.0 L-2360.0,0.0 L-2370.0,0.0 L-2370.0,10.0 L-2360.0,10.0 L-2360.0,20.0 L-2370.0,20.0 L-2370.0,30.0 L-2380.0,30.0 L-2380.0,40.0 L-2390.0,40.0 L-2390.0,30.0 L-2400.0,30.0 L-2400.0,20.0 L-2410.0,20.0 L-2410.0,10.0 L-2400.0,10.0 L-2400.0,0.0 L-2410.0,0.0 L-2410.0,10.0 L-2420.0,10.0 L-2420.0,0.0 L-2430.0,0.0 " style="fill:none;stroke-width:3;stroke:red;"></path></g></svg>