<svg height="600" overflow="visible" preserveAspectRatio="xMidYMid meet" version="1.0" width="1000" xmlns:xlink="http://www.w3.org/1999/xlink" xmlns="http://www.w3.org/2000/svg" zoomAndPan="magnify"><g transform="translate(2.44898,597.55102) scale(0.4898,-0.4898)"><path d="M0.0,0.0 L0.0,15.0 L0.0,30.0 L15.0,30.0 L0.0,30.0 L0.0,45.0 L0.0,60.0 L0.0,75.0 L15.0,75.0 L0.0,75.0 L0.0,90.0 L15.0,90.0 L30.0,90.0 L30.0,75.0 L30.0,90.0 L45.0,90.0 L30.0,90.0 L15.0,90.0 L15.0,105.0 L15.0,90.0 L0.0,90.0 L0.0,105.0 L0.0,120.0 L15.0,120.0 L0.0,120.0 L0.0,135.0 L0.0,150.0 L0.0,165.0 L15.0,165.0 L0.0,165.0 L0.0,180.0 L0.0,195.0 L0.0,210.0 L15.0,210.0 L0.0,210.0 L0.0,225.0 L15.0,225.0 L30.0,225.0 L30.0,210.0 L30.0,225.0 L45.0,225.0 L30.0,225.0 L15.0,225.0 L15.0,240.0 L15.0,225.0 L0.0,225.0 L0.0,240.0 L0.0,255.0 L15.0,255.0 L0.0,255.0 L0.0,270.0 L15.0,270.0 L30.0,270.0 L30.0,255.0 L30.0,270.0 L45.0,270.0 L60.0,270.0 L75.0,270.0 L75.0,255.0 L75.0,270.0 L90.0,270.0 L90.0,255.0 L90.0,240.0 L75.0,240.0 L90.0,240.0 L90.0,225.0 L90.0,240.0 L90.0,255.0 L105.0,255.0 L90.0,255.0 L90.0,270.0 L105.0,270.0 L120.0,270.0 L120.0,255.0 L120.0,270.0 L135.0,270.0 L120.0,270.0 L105.0,270.0 L105.0,285.0 L105.0,270.0 L90.0,270.0 L75.0,270.0 L60.0,270.0 L60.0,285.0 L60.0,270.0 L45.0,270.0 L45.0,285.0 L45.0,300.0 L60.0,300.0 L45.0,300.0 L45.0,315.0 L45.0,300.0 L45.0,285.0 L30.0,285.0 L45.0,285.0 L45.0,270.0 L30.0,270.0 L15.0,270.0 L15.0,285.0 L15.0,270.0 L0.0,270.0 L0.0,285.0 L0.0,300.0 L15.0,300.0 L0.0,300.0 L0.0,315.0 L0.0,330.0 L0.0,345.0 L15.0,345.0 L0.0,345.0 L0.0,360.0 L15.0,360.0 L30.0,360.0 L30.0,345.0 L30.0,360.0 L45.0,360.0 L30.0,360.0 L15.0,360.0 L15.0,375.0 L15.0,360.0 L0.0,360.0 L0.0,375.0 L0.0,390.0 L15.0,390.0 L0.0,390.0 L0.0,405.0 L0.0,420.0 L0.0,435.0 L15.0,435.0 L0.0,435.0 L0.0,450.0 L0.0,465.0 L0.0,480.0 L15.0,480.0 L0.0,480.0 L0.0,495.0 L15.0,495.0 L30.0,495.0 L30.0,480.0 L30.0,495.0 L45.0,495.0 L30.0,495.0 L15.0,495.0 L15.0,510.0 L15.0,495.0 L0.0,495.0 L0.0,510.0 L0.0,525.0 L15.0,525.0 L0.0,525.0 L0.0,540.0 L0.0,555.0 L0.0,570.0 L15.0,570.0 L0.0,570.0 L0.0,585.0 L0.0,600.0 L0.0,615.0 L15.0,615.0 L0.0,615.0 L0.0,630.0 L15.0,630.0 L30.0,630.0 L30.0,615.0 L30.0,630.0 L45.0,630.0 L30.0,630.0 L15.0,630.0 L15.0,645.0 L15.0,630.0 L0.0,630.0 L0.0,645.0 L0.0,660.0 L15.0,660.0 L0.0,660.0 L0.0,675.0 L15.0,675.0 L30.0,675.0 L30.0,660.0 L30.0,675.0 L45.0,675.0 L60.0,675.0 L75.0,675.0 L75.0,660.0 L75.0,675.0 L90.0,675.0 L90.0,660.0 L90.0,645.0 L75.0,645.0 L90.0,645.0 L90.0,630.0 L90.0,645.0 L90.0,660.0 L105.0,660.0 L90.0,660.0 L90.0,675.0 L105.0,675.0 L120.0,675.0 L120.0,660.0 L120.0,675.0 L135.0,675.0 L120.0,675.0 L105.0,675.0 L105.0,690.0 L105.0,675.0 L90.0,675.0 L75.0,675.0 L60.0,675.0 L60.0,690.0 L60.0,675.0 L45.0,675.0 L45.0,690.0 L45.0,705.0 L60.0,705.0 L45.0,705.0 L45.0,720.0 L45.0,705.0 L45.0,690.0 L30.0,690.0 L45.0,690.0 L45.0,675.0 L30.0,675.0 L15.0,675.0 L15.0,690.0 L15.0,675.0 L0.0,675.0 L0.0,690.0 L0.0,705.0 L15.0,705.0 L0.0,705.0 L0.0,720.0 L0.0,735.0 L0.0,750.0 L15.0,750.0 L0.0,750.0 L0.0,765.0 L15.0,765.0 L30.0,765.0 L30.0,750.0 L30.0,765.0 L45.0,765.0 L30.0,765.0 L15.0,765.0 L15.0,780.0 L15.0,765.0 L0.0,765.0 L0.0,780.0 L0.0,795.0 L15.0,795.0 L0.0,795.0 L0.0,810.0 L15.0,810.0 L30.0,810.0 L30.0,795.0 L30.0,810.0 L45.0,810.0 L60.0,810.0 L75.0,810.0 L75.0,795.0 L75.0,810.0 L90.0,810.0 L90.0,795.0 L90.0,780.0 L75.0,780.0 L90.0,780.0 L90.0,765.0 L90.0,780.0 L90.0,795.0 L105.0,795.0 L90.0,795.0 L90.0,810.0 L105.0,810.0 L120.0,810.0 L120.0,795.0 L120.0,810.0 L135.0,810.0 L150.0,810.0 L165.0,810.0 L165.0,795.0 L165.0,810.0 L180.0,810.0 L195.0,810.0 L210.0,810.0 L210.0,795.0 L210.0,810.0 L225.0,810.0 L225.0,795.0 L225.0,780.0 L210.0,780.0 L225.0,780.0 L225.0,765.0 L225.0,780.0 L225.0,795.0 L240.0,795.0 L225.0,795.0 L225.0,810.0 L240.0,810.0 L255.0,810.0 L255.0,795.0 L255.0,810.0 L270.0,810.0 L270.0,795.0 L270.0,780.0 L255.0,780.0 L270.0,780.0 L270.0,765.0 L270.0,750.0 L270.0,735.0 L255.0,735.0 L270.0,735.0 L270.0,720.0 L255.0,720.0 L240.0,720.0 L240.0,735.0 L240.0,720.0 L225.0,720.0 L240.0,720.0 L255.0,720.0 L255.0,705.0 L255.0,720.0 L270.0,720.0 L270.0,705.0 L270.0,690.0 L255.0,690.0 L270.0,690.0 L270.0,675.0 L270.0,690.0 L270.0,705.0 L285.0,705.0 L270.0,705.0 L270.0,720.0 L270.0,735.0 L270.0,750.0 L285.0,750.0 L270.0,750.0 L270.0,765.0 L285.0,765.0 L300.0,765.0 L300.0,750.0 L300.0,765.0 L315.0,765.0 L300.0,765.0 L285.0,765.0 L285.0,780.0 L285.0,765.0 L270.0,765.0 L270.0,780.0 L270.0,795.0 L285.0,795.0 L270.0,795.0 L270.0,810.0 L285.0,810.0 L300.0,810.0 L300.0,795.0 L300.0,810.0 L315.0,810.0 L330.0,810.0 L345.0,810.0 L345.0,795.0 L345.0,810.0 L360.0,810.0 L360.0,795.0 L360.0,780.0 L345.0,780.0 L360.0,780.0 L360.0,765.0 L360.0,780.0 L360.0,795.0 L375.0,795.0 L360.0,795.0 L360.0,810.0 L375.0,810.0 L390.0,810.0 L390.0,795.0 L390.0,810.0 L405.0,810.0 L390.0,810.0 L375.0,810.0 L375.0,825.0 L375.0,810.0 L360.0,810.0 L345.0,810.0 L330.0,810.0 L330.0,825.0 L330.0,810.0 L315.0,810.0 L315.0,825.0 L315.0,840.0 L330.0,840.0 L315.0,840.0 L315.0,855.0 L315.0,840.0 L315.0,825.0 L300.0,825.0 L315.0,825.0 L315.0,810.0 L300.0,810.0 L285.0,810.0 L285.0,825.0 L285.0,810.0 L270.0,810.0 L255.0,810.0 L240.0,810.0 L240.0,825.0 L240.0,810.0 L225.0,810.0 L210.0,810.0 L195.0,810.0 L195.0,825.0 L195.0,810.0 L180.0,810.0 L180.0,825.0 L180.0,840.0 L195.0,840.0 L180.0,840.0 L180.0,855.0 L180.0,840.0 L180.0,825.0 L165.0,825.0 L180.0,825.0 L180.0,810.0 L165.0,810.0 L150.0,810.0 L150.0,825.0 L150.0,810.0 L135.0,810.0 L135.0,825.0 L135.0,840.0 L150.0,840.0 L135.0,840.0 L135.0,855.0 L135.0,870.0 L135.0,885.0 L150.0,885.0 L135.0,885.0 L135.0,900.0 L150.0,900.0 L165.0,900.0 L165.0,885.0 L165.0,900.0 L180.0,900.0 L165.0,900.0 L150.0,900.0 L150.0,915.0 L150.0,900.0 L135.0,900.0 L135.0,915.0 L135.0,930.0 L150.0,930.0 L135.0,930.0 L135.0,945.0 L135.0,930.0 L135.0,915.0 L120.0,915.0 L135.0,915.0 L135.0,900.0 L135.0,885.0 L135.0,870.0 L120.0,870.0 L135.0,870.0 L135.0,855.0 L120.0,855.0 L105.0,855.0 L105.0,870.0 L105.0,855.0 L90.0,855.0 L105.0,855.0 L120.0,855.0 L120.0,840.0 L120.0,855.0 L135.0,855.0 L135.0,840.0 L135.0,825.0 L120.0,825.0 L135.0,825.0 L135.0,810.0 L120.0,810.0 L105.0,810.0 L105.0,825.0 L105.0,810.0 L90.0,810.0 L75.0,810.0 L60.0,810.0 L60.0,825.0 L60.0,810.0 L45.0,810.0 L45.0,825.0 L45.0,840.0 L60.0,840.0 L45.0,840.0 L45.0,855.0 L45.0,840.0 L45.0,825.0 L30.0,825.0 L45.0,825.0 L45.0,810.0 L30.0,810.0 L15.0,810.0 L15.0,825.0 L15.0,810.0 L0.0,810.0 L0.0,825.0 L0.0,840.0 L15.0,840.0 L0.0,840.0 L0.0,855.0 L0.0,870.0 L0.0,885.0 L15.0,885.0 L0.0,885.0 L0.0,900.0 L15.0,900.0 L30.0,900.0 L30.0,885.0 L30.0,900.0 L45.0,900.0 L30.0,900.0 L15.0,900.0 L15.0,915.0 L15.0,900.0 L0.0,900.0 L0.0,915.0 L0.0,930.0 L15.0,930.0 L0.0,930.0 L0.0,945.0 L0.0,960.0 L0.0,975.0 L15.0,975.0 L0.0,975.0 L0.0,990.0 L0.0,1005.0 L0.0,1020.0 L15.0,1020.0 L0.0,1020.0 L0.0,1035.0 L15.0,1035.0 L30.0,1035.0 L30.0,1020.0 L30.0,1035.0 L45.0,1035.0 L30.0,1035.0 L15.0,1035.0 L15.0,1050.0 L15.0,1035.0 L0.0,1035.0 L0.0,1050.0 L0.0,1065.0 L15.0,1065.0 L0.0,1065.0 L0.0,1080.0 L15.0,1080.0 L30.0,1080.0 L30.0,1065.0 L30.0,1080.0 L45.0,1080.0 L60.0,1080.0 L75.0,1080.0 L75.0,1065.0 L75.0,1080.0 L90.0,1080.0 L90.0,1065.0 L90.0,1050.0 L75.0,1050.0 L90.0,1050.0 L90.0,1035.0 L90.0,1050.0 L90.0,1065.0 L105.0,1065.0 L90.0,1065.0 L90.0,1080.0 L105.0,1080.0 L120.0,1080.0 L120.0,1065.0 L120.0,1080.0 L135.0,1080.0 L120.0,1080.0 L105.0,1080.0 L105.0,1095.0 L105.0,1080.0 L90.0,1080.0 L75.0,1080.0 L60.0,1080.0 L60.0,1095.0 L60.0,1080.0 L45.0,1080.0 L45.0,1095.0 L45.0,1110.0 L60.0,1110.0 L45.0,1110.0 L45.0,1125.0 L45.0,1110.0 L45.0,1095.0 L30.0,1095.0 L45.0,1095.0 L45.0,1080.0 L30.0,1080.0 L15.0,1080.0 L15.0,1095.0 L15.0,1080.0 L0.0,1080.0 L0.0,1095.0 L0.0,1110.0 L15.0,1110.0 L0.0,1110.0 L0.0,1125.0 L0.0,1140.0 L0.0,1155.0 L15.0,1155.0 L0.0,1155.0 L0.0,1170.0 L15.0,1170.0 L30.0,1170.0 L30.0,1155.0 L30.0,1170.0 L45.0,1170.0 L30.0,1170.0 L15.0,1170.0 L15.0,1185.0 L15.0,1170.0 L0.0,1170.0 L0.0,1185.0 L0.0,1200.0 L15.0,1200.0 L0.0,1200.0 L0.0,1215.0 L15.0,1215.0 L30.0,1215.0 L30.0,1200.0 L30.0,1215.0 L45.0,1215.0 L60.0,1215.0 L75.0,1215.0 L75.0,1200.0 L75.0,1215.0 L90.0,1215.0 L90.0,1200.0 L90.0,1185.0 L75.0,1185.0 L90.0,1185.0 L90.0,1170.0 L90.0,1185.0 L90.0,1200.0 L105.0,1200.0 L90.0,1200.0 L90.0,1215.0 L105.0,1215.0 L120.0,1215.0 L120.0,1200.0 L120.0,1215.0 L135.0,1215.0 L150.0,1215.0 L165.0,1215.0 L165.0,1200.0 L165.0,1215.0 L180.0,1215.0 L195.0,1215.0 L210.0,1215.0 L210.0,1200.0 L210.0,1215.0 L225.0,1215.0 L225.0,1200.0 L225.0,1185.0 L210.0,1185.0 L225.0,1185.0 L225.0,1170.0 L225.0,1185.0 L225.0,1200.0 L240.0,1200.0 L225.0,1200.0 L225.0,1215.0 L240.0,1215.0 L255.0,1215.0 L255.0,1200.0 L255.0,1215.0 L270.0,1215.0 L270.0,1200.0 L270.0,1185.0 L255.0,1185.0 L270.0,1185.0 L270.0,1170.0 L270.0,1155.0 L270.0,1140.0 L255.0,1140.0 L270.0,1140.0 L270.0,1125.0 L255.0,1125.0 L240.0,1125.0 L240.0,1140.0 L240.0,1125.0 L225.0,1125.0 L240.0,1125.0 L255.0,1125.0 L255.0,1110.0 L255.0,1125.0 L270.0,1125.0 L270.0,1110.0 L270.0,1095.0 L255.0,1095.0 L270.0,1095.0 L270.0,1080.0 L270.0,1095.0 L270.0,1110.0 L285.0,1110.0 L270.0,1110.0 L270.0,1125.0 L270.0,1140.0 L270.0,1155.0 L285.0,1155.0 L270.0,1155.0 L270.0,1170.0 L285.0,1170.0 L300.0,1170.0 L300.0,1155.0 L300.0,1170.0 L315.0,1170.0 L300.0,1170.0 L285.0,1170.0 L285.0,1185.0 L285.0,1170.0 L270.0,1170.0 L270.0,1185.0 L270.0,1200.0 L285.0,1200.0 L270.0,1200.0 L270.0,1215.0 L285.0,1215.0 L300.0,1215.0 L300.0,1200.0 L300.0,1215.0 L315.0,1215.0 L330.0,1215.0 L345.0,1215.0 L345.0,1200.0 L345.0,1215.0 L360.0,1215.0 L360.0,1200.0 L360.0,1185.0 L345.0,1185.0 L360.0,1185.0 L360.0,1170.0 L360.0,1185.0 L360.0,1200.0 L375.0,1200.0 L360.0,1200.0 L360.0,1215.0 L375.0,1215.0 L390.0,1215.0 L390.0,1200.0 L390.0,1215.0 L405.0,1215.0 L420.0,1215.0 L435.0,1215.0 L435.0,1200.0 L435.0,1215.0 L450.0,1215.0 L465.0,1215.0 L480.0,1215.0 L480.0,1200.0 L480.0,1215.0 L495.0,1215.0 L495.0,1200.0 L495.0,1185.0 L480.0,1185.0 L495.0,1185.0 L495.0,1170.0 L495.0,1185.0 L495.0,1200.0 L510.0,1200.0 L495.0,1200.0 L495.0,1215.0 L510.0,1215.0 L525.0,1215.0 L525.0,1200.0 L525.0,1215.0 L540.0,1215.0 L555.0,1215.0 L570.0,1215.0 L570.0,1200.0 L570.0,1215.0 L585.0,1215.0 L600.0,1215.0 L615.0,1215.0 L615.0,1200.0 L615.0,1215.0 L630.0,1215.0 L630.0,1200.0 L630.0,1185.0 L615.0,1185.0 L630.0,1185.0 L630.0,1170.0 L630.0,1185.0 L630.0,1200.0 L645.0,1200.0 L630.0,1200.0 L630.0,1215.0 L645.0,1215.0 L660.0,1215.0 L660.0,1200.0 L660.0,1215.0 L675.0,1215.0 L675.0,1200.0 L675.0,1185.0 L660.0,1185.0 L675.0,1185.0 L675.0,1170.0 L675.0,1155.0 L675.0,1140.0 L660.0,1140.0 L675.0,1140.0 L675.0,1125.0 L660.0,1125.0 L645.0,1125.0 L645.0,1140.0 L645.0,1125.0 L630.0,1125.0 L645.0,1125.0 L660.0,1125.0 L660.0,1110.0 L660.0,1125.0 L675.0,1125.0 L675.0,1110.0 L675.0,1095.0 L660.0,1095.0 L675.0,1095.0 L675.0,1080.0 L675.0,1095.0 L675.0,1110.0 L690.0,1110.0 L675.0,1110.0 L675.0,1125.0 L675.0,1140.0 L675.0,1155.0 L690.0,1155.0 L675.0,1155.0 L675.0,1170.0 L690.0,1170.0 L705.0,1170.0 L705.0,1155.0 L705.0,1170.0 L720.0,1170.0 L705.0,1170.0 L690.0,1170.0 L690.0,1185.0 L690.0,1170.0 L675.0,1170.0 L675.0,1185.0 L675.0,1200.0 L690.0,1200.0 L675.0,1200.0 L675.0,1215.0 L690.0,1215.0 L705.0,1215.0 L705.0,1200.0 L705.0,1215.0 L720.0,1215.0 L735.0,1215.0 L750.0,1215.0 L750.0,1200.0 L750.0,1215.0 L765.0,1215.0 L765.0,1200.0 L765.0,1185.0 L750.0,1185.0 L765.0,1185.0 L765.0,1170.0 L765.0,1185.0 L765.0,1200.0 L780.0,1200.0 L765.0,1200.0 L765.0,1215.0 L780.0,1215.0 L795.0,1215.0 L795.0,1200.0 L795.0,1215.0 L810.0,1215.0 L810.0,1200.0 L810.0,1185.0 L795.0,1185.0 L810.0,1185.0 L810.0,1170.0 L810.0,1155.0 L810.0,1140.0 L795.0,1140.0 L810.0,1140.0 L810.0,1125.0 L795.0,1125.0 L780.0,1125.0 L780.0,1140.0 L780.0,1125.0 L765.0,1125.0 L780.0,1125.0 L795.0,1125.0 L795.0,1110.0 L795.0,1125.0 L810.0,1125.0 L810.0,1110.0 L810.0,1095.0 L795.0,1095.0 L810.0,1095.0 L810.0,1080.0 L810.0,1065.0 L810.0,1050.0 L795.0,1050.0 L810.0,1050.0 L810.0,1035.0 L810.0,1020.0 L810.0,1005.0 L795.0,1005.0 L810.0,1005.0 L810.0,990.0 L795.0,990.0 L780.0,990.0 L780.0,1005.0 L780.0,990.0 L765.0,990.0 L780.0,990.0 L795.0,990.0 L795.0,975.0 L795.0,990.0 L810.0,990.0 L810.0,975.0 L810.0,960.0 L795.0,960.0 L810.0,960.0 L810.0,945.0 L795.0,945.0 L780.0,945.0 L780.0,960.0 L780.0,945.0 L765.0,945.0 L750.0,945.0 L735.0,945.0 L735.0,960.0 L735.0,945.0 L720.0,945.0 L720.0,960.0 L720.0,975.0 L735.0,975.0 L720.0,975.0 L720.0,990.0 L720.0,975.0 L720.0,960.0 L705.0,960.0 L720.0,960.0 L720.0,945.0 L705.0,945.0 L690.0,945.0 L690.0,960.0 L690.0,945.0 L675.0,945.0 L690.0,945.0 L705.0,945.0 L705.0,930.0 L705.0,945.0 L720.0,945.0 L735.0,945.0 L750.0,945.0 L750.0,930.0 L750.0,945.0 L765.0,945.0 L765.0,930.0 L765.0,915.0 L750.0,915.0 L765.0,915.0 L765.0,900.0 L765.0,915.0 L765.0,930.0 L780.0,930.0 L765.0,930.0 L765.0,945.0 L780.0,945.0 L795.0,945.0 L795.0,930.0 L795.0,945.0 L810.0,945.0 L810.0,930.0 L810.0,915.0 L795.0,915.0 L810.0,915.0 L810.0,900.0 L810.0,885.0 L810.0,870.0 L795.0,870.0 L810.0,870.0 L810.0,855.0 L795.0,855.0 L780.0,855.0 L780.0,870.0 L780.0,855.0 L765.0,855.0 L780.0,855.0 L795.0,855.0 L795.0,840.0 L795.0,855.0 L810.0,855.0 L810.0,840.0 L810.0,825.0 L795.0,825.0 L810.0,825.0 L810.0,810.0 L810.0,825.0 L810.0,840.0 L825.0,840.0 L810.0,840.0 L810.0,855.0 L810.0,870.0 L810.0,885.0 L825.0,885.0 L810.0,885.0 L810.0,900.0 L825.0,900.0 L840.0,900.0 L840.0,885.0 L840.0,900.0 L855.0,900.0 L840.0,900.0 L825.0,900.0 L825.0,915.0 L825.0,900.0 L810.0,900.0 L810.0,915.0 L810.0,930.0 L825.0,930.0 L810.0,930.0 L810.0,945.0 L810.0,960.0 L810.0,975.0 L825.0,975.0 L810.0,975.0 L810.0,990.0 L810.0,1005.0 L810.0,1020.0 L825.0,1020.0 L810.0,1020.0 L810.0,1035.0 L825.0,1035.0 L840.0,1035.0 L840.0,1020.0 L840.0,1035.0 L855.0,1035.0 L840.0,1035.0 L825.0,1035.0 L825.0,1050.0 L825.0,1035.0 L810.0,1035.0 L810.0,1050.0 L810.0,1065.0 L825.0,1065.0 L810.0,1065.0 L810.0,1080.0 L825.0,1080.0 L840.0,1080.0 L840.0,1065.0 L840.0,1080.0 L855.0,1080.0 L870.0,1080.0 L885.0,1080.0 L885.0,1065.0 L885.0,1080.0 L900.0,1080.0 L900.0,1065.0 L900.0,1050.0 L885.0,1050.0 L900.0,1050.0 L900.0,1035.0 L900.0,1050.0 L900.0,1065.0 L915.0,1065.0 L900.0,1065.0 L900.0,1080.0 L915.0,1080.0 L930.0,1080.0 L930.0,1065.0 L930.0,1080.0 L945.0,1080.0 L930.0,1080.0 L915.0,1080.0 L915.0,1095.0 L915.0,1080.0 L900.0,1080.0 L885.0,1080.0 L870.0,1080.0 L870.0,1095.0 L870.0,1080.0 L855.0,1080.0 L855.0,1095.0 L855.0,1110.0 L870.0,1110.0 L855.0,1110.0 L855.0,1125.0 L855.0,1110.0 L855.0,1095.0 L840.0,1095.0 L855.0,1095.0 L855.0,1080.0 L840.0,1080.0 L825.0,1080.0 L825.0,1095.0 L825.0,1080.0 L810.0,1080.0 L810.0,1095.0 L810.0,1110.0 L825.0,1110.0 L810.0,1110.0 L810.0,1125.0 L810.0,1140.0 L810.0,1155.0 L825.0,1155.0 L810.0,1155.0 L810.0,1170.0 L825.0,1170.0 L840.0,1170.0 L840.0,1155.0 L840.0,1170.0 L855.0,1170.0 L840.0,1170.0 L825.0,1170.0 L825.0,1185.0 L825.0,1170.0 L810.0,1170.0 L810.0,1185.0 L810.0,1200.0 L825.0,1200.0 L810.0,1200.0 L810.0,1215.0 L825.0,1215.0 L840.0,1215.0 L840.0,1200.0 L840.0,1215.0 L855.0,1215.0 L870.0,1215.0 L885.0,1215.0 L885.0,1200.0 L885.0,1215.0 L900.0,1215.0 L900.0,1200.0 L900.0,1185.0 L885.0,1185.0 L900.0,1185.0 L900.0,1170.0 L900.0,1185.0 L900.0,1200.0 L915.0,1200.0 L900.0,1200.0 L900.0,1215.0 L915.0,1215.0 L930.0,1215.0 L930.0,1200.0 L930.0,1215.0 L945.0,1215.0 L960.0,1215.0 L975.0,1215.0 L975.0,1200.0 L975.0,1215.0 L990.0,1215.0 L1005.0,1215.0 L1020.0,1215.0 L1020.0,1200.0 L1020.0,1215.0 L1035.0,1215.0 L1035.0,1200.0 L1035.0,1185.0 L1020.0,1185.0 L1035.0,1185.0 L1035.0,1170.0 L1035.0,1185.0 L1035.0,1200.0 L1050.0,1200.0 L1035.0,1200.0 L1035.0,1215.0 L1050.0,1215.0 L1065.0,1215.0 L1065.0,1200.0 L1065.0,1215.0 L1080.0,1215.0 L1080.0,1200.0 L1080.0,1185.0 L1065.0,1185.0 L1080.0,1185.0 L1080.0,1170.0 L1080.0,1155.0 L1080.0,1140.0 L1065.0,1140.0 L1080.0,1140.0 L1080.0,1125.0 L1065.0,1125.0 L1050.0,1125.0 L1050.0,1140.0 L1050.0,1125.0 L1035.0,1125.0 L1050.0,1125.0 L1065.0,1125.0 L1065.0,1110.0 L1065.0,1125.0 L1080.0,1125.0 L1080.0,1110.0 L1080.0,1095.0 L1065.0,1095.0 L1080.0,1095.0 L1080.0,1080.0 L1080.0,1095.0 L1080.0,1110.0 L1095.0,1110.0 L1080.0,1110.0 L1080.0,1125.0 L1080.0,1140.0 L1080.0,1155.0 L1095.0,1155.0 L1080.0,1155.0 L1080.0,1170.0 L1095.0,1170.0 L1110.0,1170.0 L1110.0,1155.0 L1110.0,1170.0 L1125.0,1170.0 L1110.0,1170.0 L1095.0,1170.0 L1095.0,1185.0 L1095.0,1170.0 L1080.0,1170.0 L1080.0,1185.0 L1080.0,1200.0 L1095.0,1200.0 L1080.0,1200.0 L1080.0,1215.0 L1095.0,1215.0 L1110.0,1215.0 L1110.0,1200.0 L1110.0,1215.0 L1125.0,1215.0 L1140.0,1215.0 L1155.0,1215.0 L1155.0,1200.0 L1155.0,1215.0 L1170.0,1215.0 L1170.0,1200.0 L1170.0,1185.0 L1155.0,1185.0 L1170.0,1185.0 L1170.0,1170.0 L1170.0,1185.0 L1170.0,1200.0 L1185.0,1200.0 L1170.0,1200.0 L1170.0,1215.0 L1185.0,1215.0 L1200.0,1215.0 L1200.0,1200.0 L1200.0,1215.0 L1215.0,1215.0 L1215.0,1200.0 L1215.0,1185.0 L1200.0,1185.0 L1215.0,1185.0 L1215.0,1170.0 L1215.0,1155.0 L1215.0,1140.0 L1200.0,1140.0 L1215.0,1140.0 L1215.0,1125.0 L1200.0,1125.0 L1185.0,1125.0 L1185.0,1140.0 L1185.0,1125.0 L1170.0,1125.0 L1185.0,1125.0 L1200.0,1125.0 L1200.0,1110.0 L1200.0,1125.0 L1215.0,1125.0 L1215.0,1110.0 L1215.0,1095.0 L1200.0,1095.0 L1215.0,1095.0 L1215.0,1080.0 L1215.0,1065.0 L1215.0,1050.0 L1200.0,1050.0 L1215.0,1050.0 L1215.0,1035.0 L1215.0,1020.0 L1215.0,1005.0 L1200.0,1005.0 L1215.0,1005.0 L1215.0,990.0 L1200.0,990.0 L1185.0,990.0 L1185.0,1005.0 L1185.0,990.0 L1170.0,990.0 L1185.0,990.0 L1200.0,990.0 L1200.0,975.0 L1200.0,990.0 L1215.0,990.0 L1215.0,975.0 L1215.0,960.0 L1200.0,960.0 L1215.0,960.0 L1215.0,945.0 L1200.0,945.0 L1185.0,945.0 L1185.0,960.0 L1185.0,945.0 L1170.0,945.0 L1155.0,945.0 L1140.0,945.0 L1140.0,960.0 L1140.0,945.0 L1125.0,945.0 L1125.0,960.0 L1125.0,975.0 L1140.0,975.0 L1125.0,975.0 L1125.0,990.0 L1125.0,975.0 L1125.0,960.0 L1110.0,960.0 L1125.0,960.0 L1125.0,945.0 L1110.0,945.0 L1095.0,945.0 L1095.0,960.0 L1095.0,945.0 L1080.0,945.0 L1095.0,945.0 L1110.0,945.0 L1110.0,930.0 L1110.0,945.0 L1125.0,945.0 L1140.0,945.0 L1155.0,945.0 L1155.0,930.0 L1155.0,945.0 L1170.0,945.0 L1170.0,930.0 L1170.0,915.0 L1155.0,915.0 L1170.0,915.0 L1170.0,900.0 L1170.0,915.0 L1170.0,930.0 L1185.0,930.0 L1170.0,930.0 L1170.0,945.0 L1185.0,945.0 L1200.0,945.0 L1200.0,930.0 L1200.0,945.0 L1215.0,945.0 L1215.0,930.0 L1215.0,915.0 L1200.0,915.0 L1215.0,915.0 L1215.0,900.0 L1215.0,885.0 L1215.0,870.0 L1200.0,870.0 L1215.0,870.0 L1215.0,855.0 L1200.0,855.0 L1185.0,855.0 L1185.0,870.0 L1185.0,855.0 L1170.0,855.0 L1185.0,855.0 L1200.0,855.0 L1200.0,840.0 L1200.0,855.0 L1215.0,855.0 L1215.0,840.0 L1215.0,825.0 L1200.0,825.0 L1215.0,825.0 L1215.0,810.0 L1215.0,795.0 L1215.0,780.0 L1200.0,780.0 L1215.0,780.0 L1215.0,765.0 L1215.0,750.0 L1215.0,735.0 L1200.0,735.0 L1215.0,735.0 L1215.0,720.0 L1200.0,720.0 L1185.0,720.0 L1185.0,735.0 L1185.0,720.0 L1170.0,720.0 L1185.0,720.0 L1200.0,720.0 L1200.0,705.0 L1200.0,720.0 L1215.0,720.0 L1215.0,705.0 L1215.0,690.0 L1200.0,690.0 L1215.0,690.0 L1215.0,675.0 L1215.0,660.0 L1215.0,645.0 L1200.0,645.0 L1215.0,645.0 L1215.0,630.0 L1215.0,615.0 L1215.0,600.0 L1200.0,600.0 L1215.0,600.0 L1215.0,585.0 L1200.0,585.0 L1185.0,585.0 L1185.0,600.0 L1185.0,585.0 L1170.0,585.0 L1185.0,585.0 L1200.0,585.0 L1200.0,570.0 L1200.0,585.0 L1215.0,585.0 L1215.0,570.0 L1215.0,555.0 L1200.0,555.0 L1215.0,555.0 L1215.0,540.0 L1200.0,540.0 L1185.0,540.0 L1185.0,555.0 L1185.0,540.0 L1170.0,540.0 L1155.0,540.0 L1140.0,540.0 L1140.0,555.0 L1140.0,540.0 L1125.0,540.0 L1125.0,555.0 L1125.0,570.0 L1140.0,570.0 L1125.0,570.0 L1125.0,585.0 L1125.0,570.0 L1125.0,555.0 L1110.0,555.0 L1125.0,555.0 L1125.0,540.0 L1110.0,540.0 L1095.0,540.0 L1095.0,555.0 L1095.0,540.0 L1080.0,540.0 L1095.0,540.0 L1110.0,540.0 L1110.0,525.0 L1110.0,540.0 L1125.0,540.0 L1140.0,540.0 L1155.0,540.0 L1155.0,525.0 L1155.0,540.0 L1170.0,540.0 L1170.0,525.0 L1170.0,510.0 L1155.0,510.0 L1170.0,510.0 L1170.0,495.0 L1170.0,510.0 L1170.0,525.0 L1185.0,525.0 L1170.0,525.0 L1170.0,540.0 L1185.0,540.0 L1200.0,540.0 L1200.0,525.0 L1200.0,540.0 L1215.0,540.0 L1215.0,525.0 L1215.0,510.0 L1200.0,510.0 L1215.0,510.0 L1215.0,495.0 L1215.0,480.0 L1215.0,465.0 L1200.0,465.0 L1215.0,465.0 L1215.0,450.0 L1200.0,450.0 L1185.0,450.0 L1185.0,465.0 L1185.0,450.0 L1170.0,450.0 L1185.0,450.0 L1200.0,450.0 L1200.0,435.0 L1200.0,450.0 L1215.0,450.0 L1215.0,435.0 L1215.0,420.0 L1200.0,420.0 L1215.0,420.0 L1215.0,405.0 L1200.0,405.0 L1185.0,405.0 L1185.0,420.0 L1185.0,405.0 L1170.0,405.0 L1155.0,405.0 L1140.0,405.0 L1140.0,420.0 L1140.0,405.0 L1125.0,405.0 L1125.0,420.0 L1125.0,435.0 L1140.0,435.0 L1125.0,435.0 L1125.0,450.0 L1125.0,435.0 L1125.0,420.0 L1110.0,420.0 L1125.0,420.0 L1125.0,405.0 L1110.0,405.0 L1095.0,405.0 L1095.0,420.0 L1095.0,405.0 L1080.0,405.0 L1065.0,405.0 L1050.0,405.0 L1050.0,420.0 L1050.0,405.0 L1035.0,405.0 L1020.0,405.0 L1005.0,405.0 L1005.0,420.0 L1005.0,405.0 L990.0,405.0 L990.0,420.0 L990.0,435.0 L1005.0,435.0 L990.0,435.0 L990.0,450.0 L990.0,435.0 L990.0,420.0 L975.0,420.0 L990.0,420.0 L990.0,405.0 L975.0,405.0 L960.0,405.0 L960.0,420.0 L960.0,405.0 L945.0,405.0 L945.0,420.0 L945.0,435.0 L960.0,435.0 L945.0,435.0 L945.0,450.0 L945.0,465.0 L945.0,480.0 L960.0,480.0 L945.0,480.0 L945.0,495.0 L960.0,495.0 L975.0,495.0 L975.0,480.0 L975.0,495.0 L990.0,495.0 L975.0,495.0 L960.0,495.0 L960.0,510.0 L960.0,495.0 L945.0,495.0 L945.0,510.0 L945.0,525.0 L960.0,525.0 L945.0,525.0 L945.0,540.0 L945.0,525.0 L945.0,510.0 L930.0,510.0 L945.0,510.0 L945.0,495.0 L945.0,480.0 L945.0,465.0 L930.0,465.0 L945.0,465.0 L945.0,450.0 L930.0,450.0 L915.0,450.0 L915.0,465.0 L915.0,450.0 L900.0,450.0 L915.0,450.0 L930.0,450.0 L930.0,435.0 L930.0,450.0 L945.0,450.0 L945.0,435.0 L945.0,420.0 L930.0,420.0 L945.0,420.0 L945.0,405.0 L930.0,405.0 L915.0,405.0 L915.0,420.0 L915.0,405.0 L900.0,405.0 L885.0,405.0 L870.0,405.0 L870.0,420.0 L870.0,405.0 L855.0,405.0 L855.0,420.0 L855.0,435.0 L870.0,435.0 L855.0,435.0 L855.0,450.0 L855.0,435.0 L855.0,420.0 L840.0,420.0 L855.0,420.0 L855.0,405.0 L840.0,405.0 L825.0,405.0 L825.0,420.0 L825.0,405.0 L810.0,405.0 L825.0,405.0 L840.0,405.0 L840.0,390.0 L840.0,405.0 L855.0,405.0 L870.0,405.0 L885.0,405.0 L885.0,390.0 L885.0,405.0 L900.0,405.0 L900.0,390.0 L900.0,375.0 L885.0,375.0 L900.0,375.0 L900.0,360.0 L900.0,375.0 L900.0,390.0 L915.0,390.0 L900.0,390.0 L900.0,405.0 L915.0,405.0 L930.0,405.0 L930.0,390.0 L930.0,405.0 L945.0,405.0 L960.0,405.0 L975.0,405.0 L975.0,390.0 L975.0,405.0 L990.0,405.0 L1005.0,405.0 L1020.0,405.0 L1020.0,390.0 L1020.0,405.0 L1035.0,405.0 L1035.0,390.0 L1035.0,375.0 L1020.0,375.0 L1035.0,375.0 L1035.0,360.0 L1035.0,375.0 L1035.0,390.0 L1050.0,390.0 L1035.0,390.0 L1035.0,405.0 L1050.0,405.0 L1065.0,405.0 L1065.0,390.0 L1065.0,405.0 L1080.0,405.0 L1080.0,390.0 L1080.0,375.0 L1065.0,375.0 L1080.0,375.0 L1080.0,360.0 L1080.0,345.0 L1080.0,330.0 L1065.0,330.0 L1080.0,330.0 L1080.0,315.0 L1065.0,315.0 L1050.0,315.0 L1050.0,330.0 L1050.0,315.0 L1035.0,315.0 L1050.0,315.0 L1065.0,315.0 L1065.0,300.0 L1065.0,315.0 L1080.0,315.0 L1080.0,300.0 L1080.0,285.0 L1065.0,285.0 L1080.0,285.0 L1080.0,270.0 L1080.0,285.0 L1080.0,300.0 L1095.0,300.0 L1080.0,300.0 L1080.0,315.0 L1080.0,330.0 L1080.0,345.0 L1095.0,345.0 L1080.0,345.0 L1080.0,360.0 L1095.0,360.0 L1110.0,360.0 L1110.0,345.0 L1110.0,360.0 L1125.0,360.0 L1110.0,360.0 L1095.0,360.0 L1095.0,375.0 L1095.0,360.0 L1080.0,360.0 L1080.0,375.0 L1080.0,390.0 L1095.0,390.0 L1080.0,390.0 L1080.0,405.0 L1095.0,405.0 L1110.0,405.0 L1110.0,390.0 L1110.0,405.0 L1125.0,405.0 L1140.0,405.0 L1155.0,405.0 L1155.0,390.0 L1155.0,405.0 L1170.0,405.0 L1170.0,390.0 L1170.0,375.0 L1155.0,375.0 L1170.0,375.0 L1170.0,360.0 L1170.0,375.0 L1170.0,390.0 L1185.0,390.0 L1170.0,390.0 L1170.0,405.0 L1185.0,405.0 L1200.0,405.0 L1200.0,390.0 L1200.0,405.0 L1215.0,405.0 L1215.0,390.0 L1215.0,375.0 L1200.0,375.0 L1215.0,375.0 L1215.0,360.0 L1215.0,345.0 L1215.0,330.0 L1200.0,330.0 L1215.0,330.0 L1215.0,315.0 L1200.0,315.0 L1185.0,315.0 L1185.0,330.0 L1185.0,315.0 L1170.0,315.0 L1185.0,315.0 L1200.0,315.0 L1200.0,300.0 L1200.0,315.0 L1215.0,315.0 L1215.0,300.0 L1215.0,285.0 L1200.0,285.0 L1215.0,285.0 L1215.0,270.0 L1215.0,255.0 L1215.0,240.0 L1200.0,240.0 L1215.0,240.0 L1215.0,225.0 L1215.0,210.0 L1215.0,195.0 L1200.0,195.0 L1215.0,195.0 L1215.0,180.0 L1200.0,180.0 L1185.0,180.0 L1185.0,195.0 L1185.0,180.0 L1170.0,180.0 L1185.0,180.0 L1200.0,180.0 L1200.0,165.0 L1200.0,180.0 L1215.0,180.0 L1215.0,165.0 L1215.0,150.0 L1200.0,150.0 L1215.0,150.0 L1215.0,135.0 L1200.0,135.0 L1185.0,135.0 L1185.0,150.0 L1185.0,135.0 L1170.0,135.0 L1155.0,135.0 L1140.0,135.0 L1140.0,150.0 L1140.0,135.0 L1125.0,135.0 L1125.0,150.0 L1125.0,165.0 L1140.0,165.0 L1125.0,165.0 L1125.0,180.0 L1125.0,165.0 L1125.0,150.0 L1110.0,150.0 L1125.0,150.0 L1125.0,135.0 L1110.0,135.0 L1095.0,135.0 L1095.0,150.0 L1095.0,135.0 L1080.0,135.0 L1095.0,135.0 L1110.0,135.0 L1110.0,120.0 L1110.0,135.0 L1125.0,135.0 L1140.0,135.0 L1155.0,135.0 L1155.0,120.0 L1155.0,135.0 L1170.0,135.0 L1170.0,120.0 L1170.0,105.0 L1155.0,105.0 L1170.0,105.0 L1170.0,90.0 L1170.0,105.0 L1170.0,120.0 L1185.0,120.0 L1170.0,120.0 L1170.0,135.0 L1185.0,135.0 L1200.0,135.0 L1200.0,120.0 L1200.0,135.0 L1215.0,135.0 L1215.0,120.0 L1215.0,105.0 L1200.0,105.0 L1215.0,105.0 L1215.0,90.0 L1215.0,75.0 L1215.0,60.0 L1200.0,60.0 L1215.0,60.0 L1215.0,45.0 L1200.0,45.0 L1185.0,45.0 L1185.0,60.0 L1185.0,45.0 L1170.0,45.0 L1185.0,45.0 L1200.0,45.0 L1200.0,30.0 L1200.0,45.0 L1215.0,45.0 L1215.0,30.0 L1215.0,15.0 L1200.0,15.0 L1215.0,15.0 L1215.0,0.0 L1200.0,0.0 L1185.0,0.0 L1185.0,15.0 L1185.0,0.0 L1170.0,0.0 L1155.0,0.0 L1140.0,0.0 L1140.0,15.0 L1140.0,0.0 L1125.0,0.0 L1125.0,15.0 L1125.0,30.0 L1140.0,30.0 L1125.0,30.0 L1125.0,45.0 L1125.0,30.0 L1125.0,15.0 L1110.0,15.0 L1125.0,15.0 L1125.0,0.0 L1110.0,0.0 L1095.0,0.0 L1095.0,15.0 L1095.0,0.0 L1080.0,0.0 L1065.0,0.0 L1050.0,0.0 L1050.0,15.0 L1050.0,0.0 L1035.0,0.0 L1020.0,0.0 L1005.0,0.0 L1005.0,15.0 L1005.0,0.0 L990.0,0.0 L990.0,15.0 L990.0,30.0 L1005.0,30.0 L990.0,30.0 L990.0,45.0 L990.0,30.0 L990.0,15.0 L975.0,15.0 L990.0,15.0 L990.0,0.0 L975.0,0.0 L960.0,0.0 L960.0,15.0 L960.0,0.0 L945.0,0.0 L945.0,15.0 L945.0,30.0 L960.0,30.0 L945.0,30.0 L945.0,45.0 L945.0,60.0 L945.0,75.0 L960.0,75.0 L945.0,75.0 L945.0,90.0 L960.0,90.0 L975.0,90.0 L975.0,75.0 L975.0,90.0 L990.0,90.0 L975.0,90.0 L960.0,90.0 L960.0,105.0 L960.0,90.0 L945.0,90.0 L945.0,105.0 L945.0,120.0 L960.0,120.0 L945.0,120.0 L945.0,135.0 L945.0,120.0 L945.0,105.0 L930.0,105.0 L945.0,105.0 L945.0,90.0 L945.0,75.0 L945.0,60.0 L930.0,60.0 L945.0,60.0 L945.0,45.0 L930.0,45.0 L915.0,45.0 L915.0,60.0 L915.0,45.0 L900.0,45.0 L915.0,45.0 L930.0,45.0 L930.0,30.0 L930.0,45.0 L945.0,45.0 L945.0,30.0 L945.0,15.0 L930.0,15.0 L945.0,15.0 L945.0,0.0 L930.0,0.0 L915.0,0.0 L915.0,15.0 L915.0,0.0 L900.0,0.0 L885.0,0.0 L870.0,0.0 L870.0,15.0 L870.0,0.0 L855.0,0.0 L855.0,15.0 L855.0,30.0 L870.0,30.0 L855.0,30.0 L855.0,45.0 L855.0,30.0 L855.0,15.0 L840.0,15.0 L855.0,15.0 L855.0,0.0 L840.0,0.0 L825.0,0.0 L825.0,15.0 L825.0,0.0 L810.0,0.0 L795.0,0.0 L780.0,0.0 L780.0,15.0 L780.0,0.0 L765.0,0.0 L750.0,0.0 L735.0,0.0 L735.0,15.0 L735.0,0.0 L720.0,0.0 L720.0,15.0 L720.0,30.0 L735.0,30.0 L720.0,30.0 L720.0,45.0 L720.0,30.0 L720.0,15.0 L705.0,15.0 L720.0,15.0 L720.0,0.0 L705.0,0.0 L690.0,0.0 L690.0,15.0 L690.0,0.0 L675.0,0.0 L660.0,0.0 L645.0,0.0 L645.0,15.0 L645.0,0.0 L630.0,0.0 L615.0,0.0 L600.0,0.0 L600.0,15.0 L600.0,0.0 L585.0,0.0 L585.0,15.0 L585.0,30.0 L600.0,30.0 L585.0,30.0 L585.0,45.0 L585.0,30.0 L585.0,15.0 L570.0,15.0 L585.0,15.0 L585.0,0.0 L570.0,0.0 L555.0,0.0 L555.0,15.0 L555.0,0.0 L540.0,0.0 L540.0,15.0 L540.0,30.0 L555.0,30.0 L540.0,30.0 L540.0,45.0 L540.0,60.0 L540.0,75.0 L555.0,75.0 L540.0,75.0 L540.0,90.0 L555.0,90.0 L570.0,90.0 L570.0,75.0 L570.0,90.0 L585.0,90.0 L570.0,90.0 L555.0,90.0 L555.0,105.0 L555.0,90.0 L540.0,90.0 L540.0,105.0 L540.0,120.0 L555.0,120.0 L540.0,120.0 L540.0,135.0 L540.0,120.0 L540.0,105.0 L525.0,105.0 L540.0,105.0 L540.0,90.0 L540.0,75.0 L540.0,60.0 L525.0,60.0 L540.0,60.0 L540.0,45.0 L525.0,45.0 L510.0,45.0 L510.0,60.0 L510.0,45.0 L495.0,45.0 L510.0,45.0 L525.0,45.0 L525.0,30.0 L525.0,45.0 L540.0,45.0 L540.0,30.0 L540.0,15.0 L525.0,15.0 L540.0,15.0 L540.0,0.0 L525.0,0.0 L510.0,0.0 L510.0,15.0 L510.0,0.0 L495.0,0.0 L480.0,0.0 L465.0,0.0 L465.0,15.0 L465.0,0.0 L450.0,0.0 L450.0,15.0 L450.0,30.0 L465.0,30.0 L450.0,30.0 L450.0,45.0 L450.0,30.0 L450.0,15.0 L435.0,15.0 L450.0,15.0 L450.0,0.0 L435.0,0.0 L420.0,0.0 L420.0,15.0 L420.0,0.0 L405.0,0.0 L405.0,15.0 L405.0,30.0 L420.0,30.0 L405.0,30.0 L405.0,45.0 L405.0,60.0 L405.0,75.0 L420.0,75.0 L405.0,75.0 L405.0,90.0 L420.0,90.0 L435.0,90.0 L435.0,75.0 L435.0,90.0 L450.0,90.0 L435.0,90.0 L420.0,90.0 L420.0,105.0 L420.0,90.0 L405.0,90.0 L405.0,105.0 L405.0,120.0 L420.0,120.0 L405.0,120.0 L405.0,135.0 L405.0,150.0 L405.0,165.0 L420.0,165.0 L405.0,165.0 L405.0,180.0 L405.0,195.0 L405.0,210.0 L420.0,210.0 L405.0,210.0 L405.0,225.0 L420.0,225.0 L435.0,225.0 L435.0,210.0 L435.0,225.0 L450.0,225.0 L435.0,225.0 L420.0,225.0 L420.0,240.0 L420.0,225.0 L405.0,225.0 L405.0,240.0 L405.0,255.0 L420.0,255.0 L405.0,255.0 L405.0,270.0 L420.0,270.0 L435.0,270.0 L435.0,255.0 L435.0,270.0 L450.0,270.0 L465.0,270.0 L480.0,270.0 L480.0,255.0 L480.0,270.0 L495.0,270.0 L495.0,255.0 L495.0,240.0 L480.0,240.0 L495.0,240.0 L495.0,225.0 L495.0,240.0 L495.0,255.0 L510.0,255.0 L495.0,255.0 L495.0,270.0 L510.0,270.0 L525.0,270.0 L525.0,255.0 L525.0,270.0 L540.0,270.0 L525.0,270.0 L510.0,270.0 L510.0,285.0 L510.0,270.0 L495.0,270.0 L480.0,270.0 L465.0,270.0 L465.0,285.0 L465.0,270.0 L450.0,270.0 L450.0,285.0 L450.0,300.0 L465.0,300.0 L450.0,300.0 L450.0,315.0 L450.0,300.0 L450.0,285.0 L435.0,285.0 L450.0,285.0 L450.0,270.0 L435.0,270.0 L420.0,270.0 L420.0,285.0 L420.0,270.0 L405.0,270.0 L405.0,285.0 L405.0,300.0 L420.0,300.0 L405.0,300.0 L405.0,315.0 L405.0,330.0 L405.0,345.0 L420.0,345.0 L405.0,345.0 L405.0,360.0 L420.0,360.0 L435.0,360.0 L435.0,345.0 L435.0,360.0 L450.0,360.0 L435.0,360.0 L420.0,360.0 L420.0,375.0 L420.0,360.0 L405.0,360.0 L405.0,375.0 L405.0,390.0 L420.0,390.0 L405.0,390.0 L405.0,405.0 L405.0,390.0 L405.0,375.0 L390.0,375.0 L405.0,375.0 L405.0,360.0 L405.0,345.0 L405.0,330.0 L390.0,330.0 L405.0,330.0 L405.0,315.0 L390.0,315.0 L375.0,315.0 L375.0,330.0 L375.0,315.0 L360.0,315.0 L375.0,315.0 L390.0,315.0 L390.0,300.0 L390.0,315.0 L405.0,315.0 L405.0,300.0 L405.0,285.0 L390.0,285.0 L405.0,285.0 L405.0,270.0 L405.0,255.0 L405.0,240.0 L390.0,240.0 L405.0,240.0 L405.0,225.0 L405.0,210.0 L405.0,195.0 L390.0,195.0 L405.0,195.0 L405.0,180.0 L390.0,180.0 L375.0,180.0 L375.0,195.0 L375.0,180.0 L360.0,180.0 L375.0,180.0 L390.0,180.0 L390.0,165.0 L390.0,180.0 L405.0,180.0 L405.0,165.0 L405.0,150.0 L390.0,150.0 L405.0,150.0 L405.0,135.0 L390.0,135.0 L375.0,135.0 L375.0,150.0 L375.0,135.0 L360.0,135.0 L345.0,135.0 L330.0,135.0 L330.0,150.0 L330.0,135.0 L315.0,135.0 L315.0,150.0 L315.0,165.0 L330.0,165.0 L315.0,165.0 L315.0,180.0 L315.0,165.0 L315.0,150.0 L300.0,150.0 L315.0,150.0 L315.0,135.0 L300.0,135.0 L285.0,135.0 L285.0,150.0 L285.0,135.0 L270.0,135.0 L285.0,135.0 L300.0,135.0 L300.0,120.0 L300.0,135.0 L315.0,135.0 L330.0,135.0 L345.0,135.0 L345.0,120.0 L345.0,135.0 L360.0,135.0 L360.0,120.0 L360.0,105.0 L345.0,105.0 L360.0,105.0 L360.0,90.0 L360.0,105.0 L360.0,120.0 L375.0,120.0 L360.0,120.0 L360.0,135.0 L375.0,135.0 L390.0,135.0 L390.0,120.0 L390.0,135.0 L405.0,135.0 L405.0,120.0 L405.0,105.0 L390.0,105.0 L405.0,105.0 L405.0,90.0 L405.0,75.0 L405.0,60.0 L390.0,60.0 L405.0,60.0 L405.0,45.0 L390.0,45.0 L375.0,45.0 L375.0,60.0 L375.0,45.0 L360.0,45.0 L375.0,45.0 L390.0,45.0 L390.0,30.0 L390.0,45.0 L405.0,45.0 L405.0,30.0 L405.0,15.0 L390.0,15.0 L405.0,15.0 L405.0,0.0 L390.0,0.0 L375.0,0.0 L375.0,15.0 L375.0,0.0 L360.0,0.0 L345.0,0.0 L330.0,0.0 L330.0,15.0 L330.0,0.0 L315.0,0.0 L315.0,15.0 L315.0,30.0 L330.0,30.0 L315.0,30.0 L315.0,45.0 L315.0,30.0 L315.0,15.0 L300.0,15.0 L315.0,15.0 L315.0,0.0 L300.0,0.0 L285.0,0.0 L285.0,15.0 L285.0,0.0 L270.0,0.0 L255.0,0.0 L240.0,0.0 L240.0,15.0 L240.0,0.0 L225.0,0.0 L210.0,0.0 L195.0,0.0 L195.0,15.0 L195.0,0.0 L180.0,0.0 L180.0,15.0 L180.0,30.0 L195.0,30.0 L180.0,30.0 L180.0,45.0 L180.0,30.0 L180.0,15.0 L165.0,15.0 L180.0,15.0 L180.0,0.0 L165.0,0.0 L150.0,0.0 L150.0,15.0 L150.0,0.0 L135.0,0.0 L135.0,15.0 L135.0,30.0 L150.0,30.0 L135.0,30.0 L135.0,45.0 L135.0,60.0 L135.0,75.0 L150.0,75.0 L135.0,75.0 L135.0,90.0 L150.0,90.0 L165.0,90.0 L165.0,75.0 L165.0,90.0 L180.0,90.0 L165.0,90.0 L150.0,90.0 L150.0,105.0 L150.0,90.0 L135.0,90.0 L135.0,105.0 L135.0,120.0 L150.0,120.0 L135.0,120.0 L135.0,135.0 L135.0,120.0 L135.0,105.0 L120.0,105.0 L135.0,105.0 L135.0,90.0 L135.0,75.0 L135.0,60.0 L120.0,60.0 L135.0,60.0 L135.0,45.0 L120.0,45.0 L105.0,45.0 L105.0,60.0 L105.0,45.0 L90.0,45.0 L105.0,45.0 L120.0,45.0 L120.0,30.0 L120.0,45.0 L135.0,45.0 L135.0,30.0 L135.0,15.0 L120.0,15.0 L135.0,15.0 L135.0,0.0 L120.0,0.0 L105.0,0.0 L105.0,15.0 L105.0,0.0 L90.0,0.0 L75.0,0.0 L60.0,0.0 L60.0,15.0 L60.0,0.0 L45.0,0.0 L45.0,15.0 L45.0,30.0 L60.0,30.0 L45.0,30.0 L45.0,45.0 L45.0,30.0 L45.0,15.0 L30.0,15.0 L45.0,15.0 L45.0,0.0 L30.0,0.0 L15.0,0.0 L15.0,15.0 L15.0,0.0 L0.0,0.0 " style="fill:none;stroke-width:3;stroke:red;"></path></g></svg>