<svg height="600" overflow="visible" preserveAspectRatio="xMidYMid meet" version="1.0" width="1000" xmlns:xlink="http://www.w3.org/1999/xlink" xmlns="http://www.w3.org/2000/svg" zoomAndPan="magnify"><g transform="translate(691.21008,300.0) scale(0.2459,-0.2459)"><path d="M0.0,0.0 L0.0,0.0 L-8.66025,5.0 L-8.66025,15.0 L-17.3205,10.0 L-25.98075,15.0 L-25.98075,25.0 L-17.3205,30.0 L-25.98075,35.0 L-25.98075,45.0 L-34.641,40.0 L-43.30125,45.0 L-43.30125,35.0 L-51.9615,30.0 L-60.62175,35.0 L-60.62175,45.0 L-69.282,40.0 L-77.94225,45.0 L-77.94225,55.0 L-69.282,60.0 L-77.94225,65.0 L-77.94225,75.0 L-69.282,80.0 L-60.62175,75.0 L-60.62175,85.0 L-51.9615,90.0 L-60.62175,95.0 L-60.62175,105.0 L-69.282,100.0 L-77.94225,105.0 L-77.94225,115.0 L-69.282,120.0 L-77.94225,125.0 L-77.94225,135.0 L-86.6025,130.0 L-95.26275,135.0 L-95.26275,125.0 L-103.923,120.0 L-112.58325,125.0 L-112.58325,135.0 L-121.2435,130.0 L-129.90375,135.0 L-129.90375,125.0 L-138.564,120.0 L-129.90375,115.0 L-129.90375,105.0 L-138.564,100.0 L-147.22425,105.0 L-147.22425,95.0 L-155.8845,90.0 L-164.54475,95.0 L-164.54475,105.0 L-173.205,100.0 L-181.86525,105.0 L-181.86525,115.0 L-173.205,120.0 L-181.86525,125.0 L-181.86525,135.0 L-190.5255,130.0 L-199.18575,135.0 L-199.18575,125.0 L-207.846,120.0 L-216.50625,125.0 L-216.50625,135.0 L-225.1665,130.0 L-233.82675,135.0 L-233.82675,145.0 L-225.1665,150.0 L-233.82675,155.0 L-233.82675,165.0 L-225.1665,170.0 L-216.50625,165.0 L-216.50625,175.0 L-207.846,180.0 L-216.50625,185.0 L-216.50625,195.0 L-225.1665,190.0 L-233.82675,195.0 L-233.82675,205.0 L-225.1665,210.0 L-233.82675,215.0 L-233.82675,225.0 L-225.1665,230.0 L-216.50625,225.0 L-216.50625,235.0 L-207.846,240.0 L-199.18575,235.0 L-199.18575,225.0 L-190.5255,230.0 L-181.86525,225.0 L-181.86525,235.0 L-173.205,240.0 L-181.86525,245.0 L-181.86525,255.0 L-173.205,260.0 L-164.54475,255.0 L-164.54475,265.0 L-155.8845,270.0 L-164.54475,275.0 L-164.54475,285.0 L-173.205,280.0 L-181.86525,285.0 L-181.86525,295.0 L-173.205,300.0 L-181.86525,305.0 L-181.86525,315.0 L-190.5255,310.0 L-199.18575,315.0 L-199.18575,305.0 L-207.846,300.0 L-216.50625,305.0 L-216.50625,315.0 L-225.1665,310.0 L-233.82675,315.0 L-233.82675,325.0 L-225.1665,330.0 L-233.82675,335.0 L-233.82675,345.0 L-225.1665,350.0 L-216.50625,345.0 L-216.50625,355.0 L-207.846,360.0 L-216.50625,365.0 L-216.50625,375.0 L-225.1665,370.0 L-233.82675,375.0 L-233.82675,385.0 L-225.1665,390.0 L-233.82675,395.0 L-233.82675,405.0 L-242.487,400.0 L-251.14725,405.0 L-251.14725,395.0 L-259.8075,390.0 L-268.46775,395.0 L-268.46775,405.0 L-277.128,400.0 L-285.78825,405.0 L-285.78825,395.0 L-294.4485,390.0 L-285.78825,385.0 L-285.78825,375.0 L-294.4485,370.0 L-303.10875,375.0 L-303.10875,365.0 L-311.769,360.0 L-320.42925,365.0 L-320.42925,375.0 L-329.0895,370.0 L-337.74975,375.0 L-337.74975,385.0 L-329.0895,390.0 L-337.74975,395.0 L-337.74975,405.0 L-346.41,400.0 L-355.07025,405.0 L-355.07025,395.0 L-363.7305,390.0 L-372.39075,395.0 L-372.39075,405.0 L-381.051,400.0 L-389.71125,405.0 L-389.71125,395.0 L-398.3715,390.0 L-389.71125,385.0 L-389.71125,375.0 L-398.3715,370.0 L-407.03175,375.0 L-407.03175,365.0 L-415.692,360.0 L-407.03175,355.0 L-407.03175,345.0 L-398.3715,350.0 L-389.71125,345.0 L-389.71125,335.0 L-398.3715,330.0 L-389.71125,325.0 L-389.71125,315.0 L-398.3715,310.0 L-407.03175,315.0 L-407.03175,305.0 L-415.692,300.0 L-424.35225,305.0 L-424.35225,315.0 L-433.0125,310.0 L-441.67275,315.0 L-441.67275,305.0 L-450.333,300.0 L-441.67275,295.0 L-441.67275,285.0 L-450.333,280.0 L-458.99325,285.0 L-458.99325,275.0 L-467.6535,270.0 L-476.31375,275.0 L-476.31375,285.0 L-484.974,280.0 L-493.63425,285.0 L-493.63425,295.0 L-484.974,300.0 L-493.63425,305.0 L-493.63425,315.0 L-502.2945,310.0 L-510.95475,315.0 L-510.95475,305.0 L-519.615,300.0 L-528.27525,305.0 L-528.27525,315.0 L-536.9355,310.0 L-545.59575,315.0 L-545.59575,325.0 L-536.9355,330.0 L-545.59575,335.0 L-545.59575,345.0 L-536.9355,350.0 L-528.27525,345.0 L-528.27525,355.0 L-519.615,360.0 L-528.27525,365.0 L-528.27525,375.0 L-536.9355,370.0 L-545.59575,375.0 L-545.59575,385.0 L-536.9355,390.0 L-545.59575,395.0 L-545.59575,405.0 L-554.256,400.0 L-562.91625,405.0 L-562.91625,395.0 L-571.5765,390.0 L-580.23675,395.0 L-580.23675,405.0 L-588.897,400.0 L-597.55725,405.0 L-597.55725,395.0 L-606.2175,390.0 L-597.55725,385.0 L-597.55725,375.0 L-606.2175,370.0 L-614.87775,375.0 L-614.87775,365.0 L-623.538,360.0 L-632.19825,365.0 L-632.19825,375.0 L-640.8585,370.0 L-649.51875,375.0 L-649.51875,385.0 L-640.8585,390.0 L-649.51875,395.0 L-649.51875,405.0 L-658.179,400.0 L-666.83925,405.0 L-666.83925,395.0 L-675.4995,390.0 L-684.15975,395.0 L-684.15975,405.0 L-692.82,400.0 L-701.48025,405.0 L-701.48025,415.0 L-692.82,420.0 L-701.48025,425.0 L-701.48025,435.0 L-692.82,440.0 L-684.15975,435.0 L-684.15975,445.0 L-675.4995,450.0 L-684.15975,455.0 L-684.15975,465.0 L-692.82,460.0 L-701.48025,465.0 L-701.48025,475.0 L-692.82,480.0 L-701.48025,485.0 L-701.48025,495.0 L-692.82,500.0 L-684.15975,495.0 L-684.15975,505.0 L-675.4995,510.0 L-666.83925,505.0 L-666.83925,495.0 L-658.179,500.0 L-649.51875,495.0 L-649.51875,505.0 L-640.8585,510.0 L-649.51875,515.0 L-649.51875,525.0 L-640.8585,530.0 L-632.19825,525.0 L-632.19825,535.0 L-623.538,540.0 L-632.19825,545.0 L-632.19825,555.0 L-640.8585,550.0 L-649.51875,555.0 L-649.51875,565.0 L-640.8585,570.0 L-649.51875,575.0 L-649.51875,585.0 L-658.179,580.0 L-666.83925,585.0 L-666.83925,575.0 L-675.4995,570.0 L-684.15975,575.0 L-684.15975,585.0 L-692.82,580.0 L-701.48025,585.0 L-701.48025,595.0 L-692.82,600.0 L-701.48025,605.0 L-701.48025,615.0 L-692.82,620.0 L-684.15975,615.0 L-684.15975,625.0 L-675.4995,630.0 L-684.15975,635.0 L-684.15975,645.0 L-692.82,640.0 L-701.48025,645.0 L-701.48025,655.0 L-692.82,660.0 L-701.48025,665.0 L-701.48025,675.0 L-692.82,680.0 L-684.15975,675.0 L-684.15975,685.0 L-675.4995,690.0 L-666.83925,685.0 L-666.83925,675.0 L-658.179,680.0 L-649.51875,675.0 L-649.51875,685.0 L-640.8585,690.0 L-649.51875,695.0 L-649.51875,705.0 L-640.8585,710.0 L-632.19825,705.0 L-632.19825,715.0 L-623.538,720.0 L-614.87775,715.0 L-614.87775,705.0 L-606.2175,710.0 L-597.55725,705.0 L-597.55725,695.0 L-606.2175,690.0 L-597.55725,685.0 L-597.55725,675.0 L-588.897,680.0 L-580.23675,675.0 L-580.23675,685.0 L-571.5765,690.0 L-562.91625,685.0 L-562.91625,675.0 L-554.256,680.0 L-545.59575,675.0 L-545.59575,685.0 L-536.9355,690.0 L-545.59575,695.0 L-545.59575,705.0 L-536.9355,710.0 L-528.27525,705.0 L-528.27525,715.0 L-519.615,720.0 L-528.27525,725.0 L-528.27525,735.0 L-536.9355,730.0 L-545.59575,735.0 L-545.59575,745.0 L-536.9355,750.0 L-545.59575,755.0 L-545.59575,765.0 L-536.9355,770.0 L-528.27525,765.0 L-528.27525,775.0 L-519.615,780.0 L-510.95475,775.0 L-510.95475,765.0 L-502.2945,770.0 L-493.63425,765.0 L-493.63425,775.0 L-484.974,780.0 L-493.63425,785.0 L-493.63425,795.0 L-484.974,800.0 L-476.31375,795.0 L-476.31375,805.0 L-467.6535,810.0 L-476.31375,815.0 L-476.31375,825.0 L-484.974,820.0 L-493.63425,825.0 L-493.63425,835.0 L-484.974,840.0 L-493.63425,845.0 L-493.63425,855.0 L-502.2945,850.0 L-510.95475,855.0 L-510.95475,845.0 L-519.615,840.0 L-528.27525,845.0 L-528.27525,855.0 L-536.9355,850.0 L-545.59575,855.0 L-545.59575,865.0 L-536.9355,870.0 L-545.59575,875.0 L-545.59575,885.0 L-536.9355,890.0 L-528.27525,885.0 L-528.27525,895.0 L-519.615,900.0 L-528.27525,905.0 L-528.27525,915.0 L-536.9355,910.0 L-545.59575,915.0 L-545.59575,925.0 L-536.9355,930.0 L-545.59575,935.0 L-545.59575,945.0 L-554.256,940.0 L-562.91625,945.0 L-562.91625,935.0 L-571.5765,930.0 L-580.23675,935.0 L-580.23675,945.0 L-588.897,940.0 L-597.55725,945.0 L-597.55725,935.0 L-606.2175,930.0 L-597.55725,925.0 L-597.55725,915.0 L-606.2175,910.0 L-614.87775,915.0 L-614.87775,905.0 L-623.538,900.0 L-632.19825,905.0 L-632.19825,915.0 L-640.8585,910.0 L-649.51875,915.0 L-649.51875,925.0 L-640.8585,930.0 L-649.51875,935.0 L-649.51875,945.0 L-658.179,940.0 L-666.83925,945.0 L-666.83925,935.0 L-675.4995,930.0 L-684.15975,935.0 L-684.15975,945.0 L-692.82,940.0 L-701.48025,945.0 L-701.48025,955.0 L-692.82,960.0 L-701.48025,965.0 L-701.48025,975.0 L-692.82,980.0 L-684.15975,975.0 L-684.15975,985.0 L-675.4995,990.0 L-684.15975,995.0 L-684.15975,1005.0 L-692.82,1000.0 L-701.48025,1005.0 L-701.48025,1015.0 L-692.82,1020.0 L-701.48025,1025.0 L-701.48025,1035.0 L-692.82,1040.0 L-684.15975,1035.0 L-684.15975,1045.0 L-675.4995,1050.0 L-666.83925,1045.0 L-666.83925,1035.0 L-658.179,1040.0 L-649.51875,1035.0 L-649.51875,1045.0 L-640.8585,1050.0 L-649.51875,1055.0 L-649.51875,1065.0 L-640.8585,1070.0 L-632.19825,1065.0 L-632.19825,1075.0 L-623.538,1080.0 L-632.19825,1085.0 L-632.19825,1095.0 L-640.8585,1090.0 L-649.51875,1095.0 L-649.51875,1105.0 L-640.8585,1110.0 L-649.51875,1115.0 L-649.51875,1125.0 L-658.179,1120.0 L-666.83925,1125.0 L-666.83925,1115.0 L-675.4995,1110.0 L-684.15975,1115.0 L-684.15975,1125.0 L-692.82,1120.0 L-701.48025,1125.0 L-701.48025,1135.0 L-692.82,1140.0 L-701.48025,1145.0 L-701.48025,1155.0 L-692.82,1160.0 L-684.15975,1155.0 L-684.15975,1165.0 L-675.4995,1170.0 L-684.15975,1175.0 L-684.15975,1185.0 L-692.82,1180.0 L-701.48025,1185.0 L-701.48025,1195.0 L-692.82,1200.0 L-701.48025,1205.0 L-701.48025,1215.0 L-710.1405,1210.0 L-718.80075,1215.0 L-718.80075,1205.0 L-727.461,1200.0 L-736.12125,1205.0 L-736.12125,1215.0 L-744.7815,1210.0 L-753.44175,1215.0 L-753.44175,1205.0 L-762.102,1200.0 L-753.44175,1195.0 L-753.44175,1185.0 L-762.102,1180.0 L-770.76225,1185.0 L-770.76225,1175.0 L-779.4225,1170.0 L-788.08275,1175.0 L-788.08275,1185.0 L-796.743,1180.0 L-805.40325,1185.0 L-805.40325,1195.0 L-796.743,1200.0 L-805.40325,1205.0 L-805.40325,1215.0 L-814.0635,1210.0 L-822.72375,1215.0 L-822.72375,1205.0 L-831.384,1200.0 L-840.04425,1205.0 L-840.04425,1215.0 L-848.7045,1210.0 L-857.36475,1215.0 L-857.36475,1205.0 L-866.025,1200.0 L-857.36475,1195.0 L-857.36475,1185.0 L-866.025,1180.0 L-874.68525,1185.0 L-874.68525,1175.0 L-883.3455,1170.0 L-874.68525,1165.0 L-874.68525,1155.0 L-866.025,1160.0 L-857.36475,1155.0 L-857.36475,1145.0 L-866.025,1140.0 L-857.36475,1135.0 L-857.36475,1125.0 L-866.025,1120.0 L-874.68525,1125.0 L-874.68525,1115.0 L-883.3455,1110.0 L-892.00575,1115.0 L-892.00575,1125.0 L-900.666,1120.0 L-909.32625,1125.0 L-909.32625,1115.0 L-917.9865,1110.0 L-909.32625,1105.0 L-909.32625,1095.0 L-917.9865,1090.0 L-926.64675,1095.0 L-926.64675,1085.0 L-935.307,1080.0 L-943.96725,1085.0 L-943.96725,1095.0 L-952.6275,1090.0 L-961.28775,1095.0 L-961.28775,1105.0 L-952.6275,1110.0 L-961.28775,1115.0 L-961.28775,1125.0 L-969.948,1120.0 L-978.60825,1125.0 L-978.60825,1115.0 L-987.2685,1110.0 L-995.92875,1115.0 L-995.92875,1125.0 L-1004.589,1120.0 L-1013.24925,1125.0 L-1013.24925,1135.0 L-1004.589,1140.0 L-1013.24925,1145.0 L-1013.24925,1155.0 L-1004.589,1160.0 L-995.92875,1155.0 L-995.92875,1165.0 L-987.2685,1170.0 L-995.92875,1175.0 L-995.92875,1185.0 L-1004.589,1180.0 L-1013.24925,1185.0 L-1013.24925,1195.0 L-1004.589,1200.0 L-1013.24925,1205.0 L-1013.24925,1215.0 L-1021.9095,1210.0 L-1030.56975,1215.0 L-1030.56975,1205.0 L-1039.23,1200.0 L-1047.89025,1205.0 L-1047.89025,1215.0 L-1056.5505,1210.0 L-1065.21075,1215.0 L-1065.21075,1205.0 L-1073.871,1200.0 L-1065.21075,1195.0 L-1065.21075,1185.0 L-1073.871,1180.0 L-1082.53125,1185.0 L-1082.53125,1175.0 L-1091.1915,1170.0 L-1099.85175,1175.0 L-1099.85175,1185.0 L-1108.512,1180.0 L-1117.17225,1185.0 L-1117.17225,1195.0 L-1108.512,1200.0 L-1117.17225,1205.0 L-1117.17225,1215.0 L-1125.8325,1210.0 L-1134.49275,1215.0 L-1134.49275,1205.0 L-1143.153,1200.0 L-1151.81325,1205.0 L-1151.81325,1215.0 L-1160.4735,1210.0 L-1169.13375,1215.0 L-1169.13375,1205.0 L-1177.794,1200.0 L-1169.13375,1195.0 L-1169.13375,1185.0 L-1177.794,1180.0 L-1186.45425,1185.0 L-1186.45425,1175.0 L-1195.1145,1170.0 L-1186.45425,1165.0 L-1186.45425,1155.0 L-1177.794,1160.0 L-1169.13375,1155.0 L-1169.13375,1145.0 L-1177.794,1140.0 L-1169.13375,1135.0 L-1169.13375,1125.0 L-1177.794,1120.0 L-1186.45425,1125.0 L-1186.45425,1115.0 L-1195.1145,1110.0 L-1203.77475,1115.0 L-1203.77475,1125.0 L-1212.435,1120.0 L-1221.09525,1125.0 L-1221.09525,1115.0 L-1229.7555,1110.0 L-1221.09525,1105.0 L-1221.09525,1095.0 L-1229.7555,1090.0 L-1238.41575,1095.0 L-1238.41575,1085.0 L-1247.076,1080.0 L-1238.41575,1075.0 L-1238.41575,1065.0 L-1229.7555,1070.0 L-1221.09525,1065.0 L-1221.09525,1055.0 L-1229.7555,1050.0 L-1221.09525,1045.0 L-1221.09525,1035.0 L-1212.435,1040.0 L-1203.77475,1035.0 L-1203.77475,1045.0 L-1195.1145,1050.0 L-1186.45425,1045.0 L-1186.45425,1035.0 L-1177.794,1040.0 L-1169.13375,1035.0 L-1169.13375,1025.0 L-1177.794,1020.0 L-1169.13375,1015.0 L-1169.13375,1005.0 L-1177.794,1000.0 L-1186.45425,1005.0 L-1186.45425,995.0 L-1195.1145,990.0 L-1186.45425,985.0 L-1186.45425,975.0 L-1177.794,980.0 L-1169.13375,975.0 L-1169.13375,965.0 L-1177.794,960.0 L-1169.13375,955.0 L-1169.13375,945.0 L-1177.794,940.0 L-1186.45425,945.0 L-1186.45425,935.0 L-1195.1145,930.0 L-1203.77475,935.0 L-1203.77475,945.0 L-1212.435,940.0 L-1221.09525,945.0 L-1221.09525,935.0 L-1229.7555,930.0 L-1221.09525,925.0 L-1221.09525,915.0 L-1229.7555,910.0 L-1238.41575,915.0 L-1238.41575,905.0 L-1247.076,900.0 L-1255.73625,905.0 L-1255.73625,915.0 L-1264.3965,910.0 L-1273.05675,915.0 L-1273.05675,925.0 L-1264.3965,930.0 L-1273.05675,935.0 L-1273.05675,945.0 L-1281.717,940.0 L-1290.37725,945.0 L-1290.37725,935.0 L-1299.0375,930.0 L-1307.69775,935.0 L-1307.69775,945.0 L-1316.358,940.0 L-1325.01825,945.0 L-1325.01825,935.0 L-1333.6785,930.0 L-1325.01825,925.0 L-1325.01825,915.0 L-1333.6785,910.0 L-1342.33875,915.0 L-1342.33875,905.0 L-1350.999,900.0 L-1342.33875,895.0 L-1342.33875,885.0 L-1333.6785,890.0 L-1325.01825,885.0 L-1325.01825,875.0 L-1333.6785,870.0 L-1325.01825,865.0 L-1325.01825,855.0 L-1333.6785,850.0 L-1342.33875,855.0 L-1342.33875,845.0 L-1350.999,840.0 L-1359.65925,845.0 L-1359.65925,855.0 L-1368.3195,850.0 L-1376.97975,855.0 L-1376.97975,845.0 L-1385.64,840.0 L-1376.97975,835.0 L-1376.97975,825.0 L-1385.64,820.0 L-1394.30025,825.0 L-1394.30025,815.0 L-1402.9605,810.0 L-1411.62075,815.0 L-1411.62075,825.0 L-1420.281,820.0 L-1428.94125,825.0 L-1428.94125,835.0 L-1420.281,840.0 L-1428.94125,845.0 L-1428.94125,855.0 L-1437.6015,850.0 L-1446.26175,855.0 L-1446.26175,845.0 L-1454.922,840.0 L-1463.58225,845.0 L-1463.58225,855.0 L-1472.2425,850.0 L-1480.90275,855.0 L-1480.90275,865.0 L-1472.2425,870.0 L-1480.90275,875.0 L-1480.90275,885.0 L-1472.2425,890.0 L-1463.58225,885.0 L-1463.58225,895.0 L-1454.922,900.0 L-1463.58225,905.0 L-1463.58225,915.0 L-1472.2425,910.0 L-1480.90275,915.0 L-1480.90275,925.0 L-1472.2425,930.0 L-1480.90275,935.0 L-1480.90275,945.0 L-1489.563,940.0 L-1498.22325,945.0 L-1498.22325,935.0 L-1506.8835,930.0 L-1515.54375,935.0 L-1515.54375,945.0 L-1524.204,940.0 L-1532.86425,945.0 L-1532.86425,935.0 L-1541.5245,930.0 L-1532.86425,925.0 L-1532.86425,915.0 L-1541.5245,910.0 L-1550.18475,915.0 L-1550.18475,905.0 L-1558.845,900.0 L-1567.50525,905.0 L-1567.50525,915.0 L-1576.1655,910.0 L-1584.82575,915.0 L-1584.82575,925.0 L-1576.1655,930.0 L-1584.82575,935.0 L-1584.82575,945.0 L-1593.486,940.0 L-1602.14625,945.0 L-1602.14625,935.0 L-1610.8065,930.0 L-1619.46675,935.0 L-1619.46675,945.0 L-1628.127,940.0 L-1636.78725,945.0 L-1636.78725,955.0 L-1628.127,960.0 L-1636.78725,965.0 L-1636.78725,975.0 L-1628.127,980.0 L-1619.46675,975.0 L-1619.46675,985.0 L-1610.8065,990.0 L-1619.46675,995.0 L-1619.46675,1005.0 L-1628.127,1000.0 L-1636.78725,1005.0 L-1636.78725,1015.0 L-1628.127,1020.0 L-1636.78725,1025.0 L-1636.78725,1035.0 L-1628.127,1040.0 L-1619.46675,1035.0 L-1619.46675,1045.0 L-1610.8065,1050.0 L-1602.14625,1045.0 L-1602.14625,1035.0 L-1593.486,1040.0 L-1584.82575,1035.0 L-1584.82575,1045.0 L-1576.1655,1050.0 L-1584.82575,1055.0 L-1584.82575,1065.0 L-1576.1655,1070.0 L-1567.50525,1065.0 L-1567.50525,1075.0 L-1558.845,1080.0 L-1567.50525,1085.0 L-1567.50525,1095.0 L-1576.1655,1090.0 L-1584.82575,1095.0 L-1584.82575,1105.0 L-1576.1655,1110.0 L-1584.82575,1115.0 L-1584.82575,1125.0 L-1593.486,1120.0 L-1602.14625,1125.0 L-1602.14625,1115.0 L-1610.8065,1110.0 L-1619.46675,1115.0 L-1619.46675,1125.0 L-1628.127,1120.0 L-1636.78725,1125.0 L-1636.78725,1135.0 L-1628.127,1140.0 L-1636.78725,1145.0 L-1636.78725,1155.0 L-1628.127,1160.0 L-1619.46675,1155.0 L-1619.46675,1165.0 L-1610.8065,1170.0 L-1619.46675,1175.0 L-1619.46675,1185.0 L-1628.127,1180.0 L-1636.78725,1185.0 L-1636.78725,1195.0 L-1628.127,1200.0 L-1636.78725,1205.0 L-1636.78725,1215.0 L-1645.4475,1210.0 L-1654.10775,1215.0 L-1654.10775,1205.0 L-1662.768,1200.0 L-1671.42825,1205.0 L-1671.42825,1215.0 L-1680.0885,1210.0 L-1688.74875,1215.0 L-1688.74875,1205.0 L-1697.409,1200.0 L-1688.74875,1195.0 L-1688.74875,1185.0 L-1697.409,1180.0 L-1706.06925,1185.0 L-1706.06925,1175.0 L-1714.7295,1170.0 L-1723.38975,1175.0 L-1723.38975,1185.0 L-1732.05,1180.0 L-1740.71025,1185.0 L-1740.71025,1195.0 L-1732.05,1200.0 L-1740.71025,1205.0 L-1740.71025,1215.0 L-1749.3705,1210.0 L-1758.03075,1215.0 L-1758.03075,1205.0 L-1766.691,1200.0 L-1775.35125,1205.0 L-1775.35125,1215.0 L-1784.0115,1210.0 L-1792.67175,1215.0 L-1792.67175,1205.0 L-1801.332,1200.0 L-1792.67175,1195.0 L-1792.67175,1185.0 L-1801.332,1180.0 L-1809.99225,1185.0 L-1809.99225,1175.0 L-1818.6525,1170.0 L-1809.99225,1165.0 L-1809.99225,1155.0 L-1801.332,1160.0 L-1792.67175,1155.0 L-1792.67175,1145.0 L-1801.332,1140.0 L-1792.67175,1135.0 L-1792.67175,1125.0 L-1801.332,1120.0 L-1809.99225,1125.0 L-1809.99225,1115.0 L-1818.6525,1110.0 L-1827.31275,1115.0 L-1827.31275,1125.0 L-1835.973,1120.0 L-1844.63325,1125.0 L-1844.63325,1115.0 L-1853.2935,1110.0 L-1844.63325,1105.0 L-1844.63325,1095.0 L-1853.2935,1090.0 L-1861.95375,1095.0 L-1861.95375,1085.0 L-1870.614,1080.0 L-1879.27425,1085.0 L-1879.27425,1095.0 L-1887.9345,1090.0 L-1896.59475,1095.0 L-1896.59475,1105.0 L-1887.9345,1110.0 L-1896.59475,1115.0 L-1896.59475,1125.0 L-1905.255,1120.0 L-1913.91525,1125.0 L-1913.91525,1115.0 L-1922.5755,1110.0 L-1931.23575,1115.0 L-1931.23575,1125.0 L-1939.896,1120.0 L-1948.55625,1125.0 L-1948.55625,1135.0 L-1939.896,1140.0 L-1948.55625,1145.0 L-1948.55625,1155.0 L-1939.896,1160.0 L-1931.23575,1155.0 L-1931.23575,1165.0 L-1922.5755,1170.0 L-1931.23575,1175.0 L-1931.23575,1185.0 L-1939.896,1180.0 L-1948.55625,1185.0 L-1948.55625,1195.0 L-1939.896,1200.0 L-1948.55625,1205.0 L-1948.55625,1215.0 L-1957.2165,1210.0 L-1965.87675,1215.0 L-1965.87675,1205.0 L-1974.537,1200.0 L-1983.19725,1205.0 L-1983.19725,1215.0 L-1991.8575,1210.0 L-2000.51775,1215.0 L-2000.51775,1205.0 L-2009.178,1200.0 L-2000.51775,1195.0 L-2000.51775,1185.0 L-2009.178,1180.0 L-2017.83825,1185.0 L-2017.83825,1175.0 L-2026.4985,1170.0 L-2035.15875,1175.0 L-2035.15875,1185.0 L-2043.819,1180.0 L-2052.47925,1185.0 L-2052.47925,1195.0 L-2043.819,1200.0 L-2052.47925,1205.0 L-2052.47925,1215.0 L-2061.1395,1210.0 L-2069.79975,1215.0 L-2069.79975,1205.0 L-2078.46,1200.0 L-2087.12025,1205.0 L-2087.12025,1215.0 L-2095.7805,1210.0 L-2104.44075,1215.0 L-2104.44075,1205.0 L-2113.101,1200.0 L-2104.44075,1195.0 L-2104.44075,1185.0 L-2113.101,1180.0 L-2121.76125,1185.0 L-2121.76125,1175.0 L-2130.4215,1170.0 L-2121.76125,1165.0 L-2121.76125,1155.0 L-2113.101,1160.0 L-2104.44075,1155.0 L-2104.44075,1145.0 L-2113.101,1140.0 L-2104.44075,1135.0 L-2104.44075,1125.0 L-2113.101,1120.0 L-2121.76125,1125.0 L-2121.76125,1115.0 L-2130.4215,1110.0 L-2139.08175,1115.0 L-2139.08175,1125.0 L-2147.742,1120.0 L-2156.40225,1125.0 L-2156.40225,1115.0 L-2165.0625,1110.0 L-2156.40225,1105.0 L-2156.40225,1095.0 L-2165.0625,1090.0 L-2173.72275,1095.0 L-2173.72275,1085.0 L-2182.383,1080.0 L-2173.72275,1075.0 L-2173.72275,1065.0 L-2165.0625,1070.0 L-2156.40225,1065.0 L-2156.40225,1055.0 L-2165.0625,1050.0 L-2156.40225,1045.0 L-2156.40225,1035.0 L-2147.742,1040.0 L-2139.08175,1035.0 L-2139.08175,1045.0 L-2130.4215,1050.0 L-2121.76125,1045.0 L-2121.76125,1035.0 L-2113.101,1040.0 L-2104.44075,1035.0 L-2104.44075,1025.0 L-2113.101,1020.0 L-2104.44075,1015.0 L-2104.44075,1005.0 L-2113.101,1000.0 L-2121.76125,1005.0 L-2121.76125,995.0 L-2130.4215,990.0 L-2121.76125,985.0 L-2121.76125,975.0 L-2113.101,980.0 L-2104.44075,975.0 L-2104.44075,965.0 L-2113.101,960.0 L-2104.44075,955.0 L-2104.44075,945.0 L-2113.101,940.0 L-2121.76125,945.0 L-2121.76125,935.0 L-2130.4215,930.0 L-2139.08175,935.0 L-2139.08175,945.0 L-2147.742,940.0 L-2156.40225,945.0 L-2156.40225,935.0 L-2165.0625,930.0 L-2156.40225,925.0 L-2156.40225,915.0 L-2165.0625,910.0 L-2173.72275,915.0 L-2173.72275,905.0 L-2182.383,900.0 L-2191.04325,905.0 L-2191.04325,915.0 L-2199.7035,910.0 L-2208.36375,915.0 L-2208.36375,925.0 L-2199.7035,930.0 L-2208.36375,935.0 L-2208.36375,945.0 L-2217.024,940.0 L-2225.68425,945.0 L-2225.68425,935.0 L-2234.3445,930.0 L-2243.00475,935.0 L-2243.00475,945.0 L-2251.665,940.0 L-2260.32525,945.0 L-2260.32525,935.0 L-2268.9855,930.0 L-2260.32525,925.0 L-2260.32525,915.0 L-2268.9855,910.0 L-2277.64575,915.0 L-2277.64575,905.0 L-2286.306,900.0 L-2277.64575,895.0 L-2277.64575,885.0 L-2268.9855,890.0 L-2260.32525,885.0 L-2260.32525,875.0 L-2268.9855,870.0 L-2260.32525,865.0 L-2260.32525,855.0 L-2268.9855,850.0 L-2277.64575,855.0 L-2277.64575,845.0 L-2286.306,840.0 L-2294.96625,845.0 L-2294.96625,855.0 L-2303.6265,850.0 L-2312.28675,855.0 L-2312.28675,845.0 L-2320.947,840.0 L-2312.28675,835.0 L-2312.28675,825.0 L-2320.947,820.0 L-2329.60725,825.0 L-2329.60725,815.0 L-2338.2675,810.0 L-2329.60725,805.0 L-2329.60725,795.0 L-2320.947,800.0 L-2312.28675,795.0 L-2312.28675,785.0 L-2320.947,780.0 L-2312.28675,775.0 L-2312.28675,765.0 L-2303.6265,770.0 L-2294.96625,765.0 L-2294.96625,775.0 L-2286.306,780.0 L-2277.64575,775.0 L-2277.64575,765.0 L-2268.9855,770.0 L-2260.32525,765.0 L-2260.32525,755.0 L-2268.9855,750.0 L-2260.32525,745.0 L-2260.32525,735.0 L-2268.9855,730.0 L-2277.64575,735.0 L-2277.64575,725.0 L-2286.306,720.0 L-2277.64575,715.0 L-2277.64575,705.0 L-2268.9855,710.0 L-2260.32525,705.0 L-2260.32525,695.0 L-2268.9855,690.0 L-2260.32525,685.0 L-2260.32525,675.0 L-2251.665,680.0 L-2243.00475,675.0 L-2243.00475,685.0 L-2234.3445,690.0 L-2225.68425,685.0 L-2225.68425,675.0 L-2217.024,680.0 L-2208.36375,675.0 L-2208.36375,685.0 L-2199.7035,690.0 L-2208.36375,695.0 L-2208.36375,705.0 L-2199.7035,710.0 L-2191.04325,705.0 L-2191.04325,715.0 L-2182.383,720.0 L-2173.72275,715.0 L-2173.72275,705.0 L-2165.0625,710.0 L-2156.40225,705.0 L-2156.40225,695.0 L-2165.0625,690.0 L-2156.40225,685.0 L-2156.40225,675.0 L-2147.742,680.0 L-2139.08175,675.0 L-2139.08175,685.0 L-2130.4215,690.0 L-2121.76125,685.0 L-2121.76125,675.0 L-2113.101,680.0 L-2104.44075,675.0 L-2104.44075,665.0 L-2113.101,660.0 L-2104.44075,655.0 L-2104.44075,645.0 L-2113.101,640.0 L-2121.76125,645.0 L-2121.76125,635.0 L-2130.4215,630.0 L-2121.76125,625.0 L-2121.76125,615.0 L-2113.101,620.0 L-2104.44075,615.0 L-2104.44075,605.0 L-2113.101,600.0 L-2104.44075,595.0 L-2104.44075,585.0 L-2113.101,580.0 L-2121.76125,585.0 L-2121.76125,575.0 L-2130.4215,570.0 L-2139.08175,575.0 L-2139.08175,585.0 L-2147.742,580.0 L-2156.40225,585.0 L-2156.40225,575.0 L-2165.0625,570.0 L-2156.40225,565.0 L-2156.40225,555.0 L-2165.0625,550.0 L-2173.72275,555.0 L-2173.72275,545.0 L-2182.383,540.0 L-2173.72275,535.0 L-2173.72275,525.0 L-2165.0625,530.0 L-2156.40225,525.0 L-2156.40225,515.0 L-2165.0625,510.0 L-2156.40225,505.0 L-2156.40225,495.0 L-2147.742,500.0 L-2139.08175,495.0 L-2139.08175,505.0 L-2130.4215,510.0 L-2121.76125,505.0 L-2121.76125,495.0 L-2113.101,500.0 L-2104.44075,495.0 L-2104.44075,485.0 L-2113.101,480.0 L-2104.44075,475.0 L-2104.44075,465.0 L-2113.101,460.0 L-2121.76125,465.0 L-2121.76125,455.0 L-2130.4215,450.0 L-2121.76125,445.0 L-2121.76125,435.0 L-2113.101,440.0 L-2104.44075,435.0 L-2104.44075,425.0 L-2113.101,420.0 L-2104.44075,415.0 L-2104.44075,405.0 L-2113.101,400.0 L-2121.76125,405.0 L-2121.76125,395.0 L-2130.4215,390.0 L-2139.08175,395.0 L-2139.08175,405.0 L-2147.742,400.0 L-2156.40225,405.0 L-2156.40225,395.0 L-2165.0625,390.0 L-2156.40225,385.0 L-2156.40225,375.0 L-2165.0625,370.0 L-2173.72275,375.0 L-2173.72275,365.0 L-2182.383,360.0 L-2191.04325,365.0 L-2191.04325,375.0 L-2199.7035,370.0 L-2208.36375,375.0 L-2208.36375,385.0 L-2199.7035,390.0 L-2208.36375,395.0 L-2208.36375,405.0 L-2217.024,400.0 L-2225.68425,405.0 L-2225.68425,395.0 L-2234.3445,390.0 L-2243.00475,395.0 L-2243.00475,405.0 L-2251.665,400.0 L-2260.32525,405.0 L-2260.32525,395.0 L-2268.9855,390.0 L-2260.32525,385.0 L-2260.32525,375.0 L-2268.9855,370.0 L-2277.64575,375.0 L-2277.64575,365.0 L-2286.306,360.0 L-2277.64575,355.0 L-2277.64575,345.0 L-2268.9855,350.0 L-2260.32525,345.0 L-2260.32525,335.0 L-2268.9855,330.0 L-2260.32525,325.0 L-2260.32525,315.0 L-2268.9855,310.0 L-2277.64575,315.0 L-2277.64575,305.0 L-2286.306,300.0 L-2294.96625,305.0 L-2294.96625,315.0 L-2303.6265,310.0 L-2312.28675,315.0 L-2312.28675,305.0 L-2320.947,300.0 L-2312.28675,295.0 L-2312.28675,285.0 L-2320.947,280.0 L-2329.60725,285.0 L-2329.60725,275.0 L-2338.2675,270.0 L-2346.92775,275.0 L-2346.92775,285.0 L-2355.588,280.0 L-2364.24825,285.0 L-2364.24825,295.0 L-2355.588,300.0 L-2364.24825,305.0 L-2364.24825,315.0 L-2372.9085,310.0 L-2381.56875,315.0 L-2381.56875,305.0 L-2390.229,300.0 L-2398.88925,305.0 L-2398.88925,315.0 L-2407.5495,310.0 L-2416.20975,315.0 L-2416.20975,325.0 L-2407.5495,330.0 L-2416.20975,335.0 L-2416.20975,345.0 L-2407.5495,350.0 L-2398.88925,345.0 L-2398.88925,355.0 L-2390.229,360.0 L-2398.88925,365.0 L-2398.88925,375.0 L-2407.5495,370.0 L-2416.20975,375.0 L-2416.20975,385.0 L-2407.5495,390.0 L-2416.20975,395.0 L-2416.20975,405.0 L-2424.87,400.0 L-2433.53025,405.0 L-2433.53025,395.0 L-2442.1905,390.0 L-2450.85075,395.0 L-2450.85075,405.0 L-2459.511,400.0 L-2468.17125,405.0 L-2468.17125,395.0 L-2476.8315,390.0 L-2468.17125,385.0 L-2468.17125,375.0 L-2476.8315,370.0 L-2485.49175,375.0 L-2485.49175,365.0 L-2494.152,360.0 L-2502.81225,365.0 L-2502.81225,375.0 L-2511.4725,370.0 L-2520.13275,375.0 L-2520.13275,385.0 L-2511.4725,390.0 L-2520.13275,395.0 L-2520.13275,405.0 L-2528.793,400.0 L-2537.45325,405.0 L-2537.45325,395.0 L-2546.1135,390.0 L-2554.77375,395.0 L-2554.77375,405.0 L-2563.434,400.0 L-2572.09425,405.0 L-2572.09425,395.0 L-2580.7545,390.0 L-2572.09425,385.0 L-2572.09425,375.0 L-2580.7545,370.0 L-2589.41475,375.0 L-2589.41475,365.0 L-2598.075,360.0 L-2589.41475,355.0 L-2589.41475,345.0 L-2580.7545,350.0 L-2572.09425,345.0 L-2572.09425,335.0 L-2580.7545,330.0 L-2572.09425,325.0 L-2572.09425,315.0 L-2580.7545,310.0 L-2589.41475,315.0 L-2589.41475,305.0 L-2598.075,300.0 L-2606.73525,305.0 L-2606.73525,315.0 L-2615.3955,310.0 L-2624.05575,315.0 L-2624.05575,305.0 L-2632.716,300.0 L-2624.05575,295.0 L-2624.05575,285.0 L-2632.716,280.0 L-2641.37625,285.0 L-2641.37625,275.0 L-2650.0365,270.0 L-2641.37625,265.0 L-2641.37625,255.0 L-2632.716,260.0 L-2624.05575,255.0 L-2624.05575,245.0 L-2632.716,240.0 L-2624.05575,235.0 L-2624.05575,225.0 L-2615.3955,230.0 L-2606.73525,225.0 L-2606.73525,235.0 L-2598.075,240.0 L-2589.41475,235.0 L-2589.41475,225.0 L-2580.7545,230.0 L-2572.09425,225.0 L-2572.09425,215.0 L-2580.7545,210.0 L-2572.09425,205.0 L-2572.09425,195.0 L-2580.7545,190.0 L-2589.41475,195.0 L-2589.41475,185.0 L-2598.075,180.0 L-2589.41475,175.0 L-2589.41475,165.0 L-2580.7545,170.0 L-2572.09425,165.0 L-2572.09425,155.0 L-2580.7545,150.0 L-2572.09425,145.0 L-2572.09425,135.0 L-2580.7545,130.0 L-2589.41475,135.0 L-2589.41475,125.0 L-2598.075,120.0 L-2606.73525,125.0 L-2606.73525,135.0 L-2615.3955,130.0 L-2624.05575,135.0 L-2624.05575,125.0 L-2632.716,120.0 L-2624.05575,115.0 L-2624.05575,105.0 L-2632.716,100.0 L-2641.37625,105.0 L-2641.37625,95.0 L-2650.0365,90.0 L-2658.69675,95.0 L-2658.69675,105.0 L-2667.357,100.0 L-2676.01725,105.0 L-2676.01725,115.0 L-2667.357,120.0 L-2676.01725,125.0 L-2676.01725,135.0 L-2684.6775,130.0 L-2693.33775,135.0 L-2693.33775,125.0 L-2701.998,120.0 L-2710.65825,125.0 L-2710.65825,135.0 L-2719.3185,130.0 L-2727.97875,135.0 L-2727.97875,125.0 L-2736.639,120.0 L-2727.97875,115.0 L-2727.97875,105.0 L-2736.639,100.0 L-2745.29925,105.0 L-2745.29925,95.0 L-2753.9595,90.0 L-2745.29925,85.0 L-2745.29925,75.0 L-2736.639,80.0 L-2727.97875,75.0 L-2727.97875,65.0 L-2736.639,60.0 L-2727.97875,55.0 L-2727.97875,45.0 L-2736.639,40.0 L-2745.29925,45.0 L-2745.29925,35.0 L-2753.9595,30.0 L-2762.61975,35.0 L-2762.61975,45.0 L-2771.28,40.0 L-2779.94025,45.0 L-2779.94025,35.0 L-2788.6005,30.0 L-2779.94025,25.0 L-2779.94025,15.0 L-2788.6005,10.0 L-2797.26075,15.0 L-2797.26075,5.0 L-2805.921,0.0 L-2797.26075,-5.0 L-2797.26075,-15.0 L-2788.6005,-10.0 L-2779.94025,-15.0 L-2779.94025,-25.0 L-2788.6005,-30.0 L-2779.94025,-35.0 L-2779.94025,-45.0 L-2771.28,-40.0 L-2762.61975,-45.0 L-2762.61975,-35.0 L-2753.9595,-30.0 L-2745.29925,-35.0 L-2745.29925,-45.0 L-2736.639,-40.0 L-2727.97875,-45.0 L-2727.97875,-55.0 L-2736.639,-60.0 L-2727.97875,-65.0 L-2727.97875,-75.0 L-2736.639,-80.0 L-2745.29925,-75.0 L-2745.29925,-85.0 L-2753.9595,-90.0 L-2745.29925,-95.0 L-2745.29925,-105.0 L-2736.639,-100.0 L-2727.97875,-105.0 L-2727.97875,-115.0 L-2736.639,-120.0 L-2727.97875,-125.0 L-2727.97875,-135.0 L-2719.3185,-130.0 L-2710.65825,-135.0 L-2710.65825,-125.0 L-2701.998,-120.0 L-2693.33775,-125.0 L-2693.33775,-135.0 L-2684.6775,-130.0 L-2676.01725,-135.0 L-2676.01725,-125.0 L-2667.357,-120.0 L-2676.01725,-115.0 L-2676.01725,-105.0 L-2667.357,-100.0 L-2658.69675,-105.0 L-2658.69675,-95.0 L-2650.0365,-90.0 L-2641.37625,-95.0 L-2641.37625,-105.0 L-2632.716,-100.0 L-2624.05575,-105.0 L-2624.05575,-115.0 L-2632.716,-120.0 L-2624.05575,-125.0 L-2624.05575,-135.0 L-2615.3955,-130.0 L-2606.73525,-135.0 L-2606.73525,-125.0 L-2598.075,-120.0 L-2589.41475,-125.0 L-2589.41475,-135.0 L-2580.7545,-130.0 L-2572.09425,-135.0 L-2572.09425,-145.0 L-2580.7545,-150.0 L-2572.09425,-155.0 L-2572.09425,-165.0 L-2580.7545,-170.0 L-2589.41475,-165.0 L-2589.41475,-175.0 L-2598.075,-180.0 L-2589.41475,-185.0 L-2589.41475,-195.0 L-2580.7545,-190.0 L-2572.09425,-195.0 L-2572.09425,-205.0 L-2580.7545,-210.0 L-2572.09425,-215.0 L-2572.09425,-225.0 L-2580.7545,-230.0 L-2589.41475,-225.0 L-2589.41475,-235.0 L-2598.075,-240.0 L-2606.73525,-235.0 L-2606.73525,-225.0 L-2615.3955,-230.0 L-2624.05575,-225.0 L-2624.05575,-235.0 L-2632.716,-240.0 L-2624.05575,-245.0 L-2624.05575,-255.0 L-2632.716,-260.0 L-2641.37625,-255.0 L-2641.37625,-265.0 L-2650.0365,-270.0 L-2641.37625,-275.0 L-2641.37625,-285.0 L-2632.716,-280.0 L-2624.05575,-285.0 L-2624.05575,-295.0 L-2632.716,-300.0 L-2624.05575,-305.0 L-2624.05575,-315.0 L-2615.3955,-310.0 L-2606.73525,-315.0 L-2606.73525,-305.0 L-2598.075,-300.0 L-2589.41475,-305.0 L-2589.41475,-315.0 L-2580.7545,-310.0 L-2572.09425,-315.0 L-2572.09425,-325.0 L-2580.7545,-330.0 L-2572.09425,-335.0 L-2572.09425,-345.0 L-2580.7545,-350.0 L-2589.41475,-345.0 L-2589.41475,-355.0 L-2598.075,-360.0 L-2589.41475,-365.0 L-2589.41475,-375.0 L-2580.7545,-370.0 L-2572.09425,-375.0 L-2572.09425,-385.0 L-2580.7545,-390.0 L-2572.09425,-395.0 L-2572.09425,-405.0 L-2563.434,-400.0 L-2554.77375,-405.0 L-2554.77375,-395.0 L-2546.1135,-390.0 L-2537.45325,-395.0 L-2537.45325,-405.0 L-2528.793,-400.0 L-2520.13275,-405.0 L-2520.13275,-395.0 L-2511.4725,-390.0 L-2520.13275,-385.0 L-2520.13275,-375.0 L-2511.4725,-370.0 L-2502.81225,-375.0 L-2502.81225,-365.0 L-2494.152,-360.0 L-2485.49175,-365.0 L-2485.49175,-375.0 L-2476.8315,-370.0 L-2468.17125,-375.0 L-2468.17125,-385.0 L-2476.8315,-390.0 L-2468.17125,-395.0 L-2468.17125,-405.0 L-2459.511,-400.0 L-2450.85075,-405.0 L-2450.85075,-395.0 L-2442.1905,-390.0 L-2433.53025,-395.0 L-2433.53025,-405.0 L-2424.87,-400.0 L-2416.20975,-405.0 L-2416.20975,-395.0 L-2407.5495,-390.0 L-2416.20975,-385.0 L-2416.20975,-375.0 L-2407.5495,-370.0 L-2398.88925,-375.0 L-2398.88925,-365.0 L-2390.229,-360.0 L-2398.88925,-355.0 L-2398.88925,-345.0 L-2407.5495,-350.0 L-2416.20975,-345.0 L-2416.20975,-335.0 L-2407.5495,-330.0 L-2416.20975,-325.0 L-2416.20975,-315.0 L-2407.5495,-310.0 L-2398.88925,-315.0 L-2398.88925,-305.0 L-2390.229,-300.0 L-2381.56875,-305.0 L-2381.56875,-315.0 L-2372.9085,-310.0 L-2364.24825,-315.0 L-2364.24825,-305.0 L-2355.588,-300.0 L-2364.24825,-295.0 L-2364.24825,-285.0 L-2355.588,-280.0 L-2346.92775,-285.0 L-2346.92775,-275.0 L-2338.2675,-270.0 L-2329.60725,-275.0 L-2329.60725,-285.0 L-2320.947,-280.0 L-2312.28675,-285.0 L-2312.28675,-295.0 L-2320.947,-300.0 L-2312.28675,-305.0 L-2312.28675,-315.0 L-2303.6265,-310.0 L-2294.96625,-315.0 L-2294.96625,-305.0 L-2286.306,-300.0 L-2277.64575,-305.0 L-2277.64575,-315.0 L-2268.9855,-310.0 L-2260.32525,-315.0 L-2260.32525,-325.0 L-2268.9855,-330.0 L-2260.32525,-335.0 L-2260.32525,-345.0 L-2268.9855,-350.0 L-2277.64575,-345.0 L-2277.64575,-355.0 L-2286.306,-360.0 L-2277.64575,-365.0 L-2277.64575,-375.0 L-2268.9855,-370.0 L-2260.32525,-375.0 L-2260.32525,-385.0 L-2268.9855,-390.0 L-2260.32525,-395.0 L-2260.32525,-405.0 L-2251.665,-400.0 L-2243.00475,-405.0 L-2243.00475,-395.0 L-2234.3445,-390.0 L-2225.68425,-395.0 L-2225.68425,-405.0 L-2217.024,-400.0 L-2208.36375,-405.0 L-2208.36375,-395.0 L-2199.7035,-390.0 L-2208.36375,-385.0 L-2208.36375,-375.0 L-2199.7035,-370.0 L-2191.04325,-375.0 L-2191.04325,-365.0 L-2182.383,-360.0 L-2173.72275,-365.0 L-2173.72275,-375.0 L-2165.0625,-370.0 L-2156.40225,-375.0 L-2156.40225,-385.0 L-2165.0625,-390.0 L-2156.40225,-395.0 L-2156.40225,-405.0 L-2147.742,-400.0 L-2139.08175,-405.0 L-2139.08175,-395.0 L-2130.4215,-390.0 L-2121.76125,-395.0 L-2121.76125,-405.0 L-2113.101,-400.0 L-2104.44075,-405.0 L-2104.44075,-415.0 L-2113.101,-420.0 L-2104.44075,-425.0 L-2104.44075,-435.0 L-2113.101,-440.0 L-2121.76125,-435.0 L-2121.76125,-445.0 L-2130.4215,-450.0 L-2121.76125,-455.0 L-2121.76125,-465.0 L-2113.101,-460.0 L-2104.44075,-465.0 L-2104.44075,-475.0 L-2113.101,-480.0 L-2104.44075,-485.0 L-2104.44075,-495.0 L-2113.101,-500.0 L-2121.76125,-495.0 L-2121.76125,-505.0 L-2130.4215,-510.0 L-2139.08175,-505.0 L-2139.08175,-495.0 L-2147.742,-500.0 L-2156.40225,-495.0 L-2156.40225,-505.0 L-2165.0625,-510.0 L-2156.40225,-515.0 L-2156.40225,-525.0 L-2165.0625,-530.0 L-2173.72275,-525.0 L-2173.72275,-535.0 L-2182.383,-540.0 L-2173.72275,-545.0 L-2173.72275,-555.0 L-2165.0625,-550.0 L-2156.40225,-555.0 L-2156.40225,-565.0 L-2165.0625,-570.0 L-2156.40225,-575.0 L-2156.40225,-585.0 L-2147.742,-580.0 L-2139.08175,-585.0 L-2139.08175,-575.0 L-2130.4215,-570.0 L-2121.76125,-575.0 L-2121.76125,-585.0 L-2113.101,-580.0 L-2104.44075,-585.0 L-2104.44075,-595.0 L-2113.101,-600.0 L-2104.44075,-605.0 L-2104.44075,-615.0 L-2113.101,-620.0 L-2121.76125,-615.0 L-2121.76125,-625.0 L-2130.4215,-630.0 L-2121.76125,-635.0 L-2121.76125,-645.0 L-2113.101,-640.0 L-2104.44075,-645.0 L-2104.44075,-655.0 L-2113.101,-660.0 L-2104.44075,-665.0 L-2104.44075,-675.0 L-2113.101,-680.0 L-2121.76125,-675.0 L-2121.76125,-685.0 L-2130.4215,-690.0 L-2139.08175,-685.0 L-2139.08175,-675.0 L-2147.742,-680.0 L-2156.40225,-675.0 L-2156.40225,-685.0 L-2165.0625,-690.0 L-2156.40225,-695.0 L-2156.40225,-705.0 L-2165.0625,-710.0 L-2173.72275,-705.0 L-2173.72275,-715.0 L-2182.383,-720.0 L-2191.04325,-715.0 L-2191.04325,-705.0 L-2199.7035,-710.0 L-2208.36375,-705.0 L-2208.36375,-695.0 L-2199.7035,-690.0 L-2208.36375,-685.0 L-2208.36375,-675.0 L-2217.024,-680.0 L-2225.68425,-675.0 L-2225.68425,-685.0 L-2234.3445,-690.0 L-2243.00475,-685.0 L-2243.00475,-675.0 L-2251.665,-680.0 L-2260.32525,-675.0 L-2260.32525,-685.0 L-2268.9855,-690.0 L-2260.32525,-695.0 L-2260.32525,-705.0 L-2268.9855,-710.0 L-2277.64575,-705.0 L-2277.64575,-715.0 L-2286.306,-720.0 L-2277.64575,-725.0 L-2277.64575,-735.0 L-2268.9855,-730.0 L-2260.32525,-735.0 L-2260.32525,-745.0 L-2268.9855,-750.0 L-2260.32525,-755.0 L-2260.32525,-765.0 L-2268.9855,-770.0 L-2277.64575,-765.0 L-2277.64575,-775.0 L-2286.306,-780.0 L-2294.96625,-775.0 L-2294.96625,-765.0 L-2303.6265,-770.0 L-2312.28675,-765.0 L-2312.28675,-775.0 L-2320.947,-780.0 L-2312.28675,-785.0 L-2312.28675,-795.0 L-2320.947,-800.0 L-2329.60725,-795.0 L-2329.60725,-805.0 L-2338.2675,-810.0 L-2329.60725,-815.0 L-2329.60725,-825.0 L-2320.947,-820.0 L-2312.28675,-825.0 L-2312.28675,-835.0 L-2320.947,-840.0 L-2312.28675,-845.0 L-2312.28675,-855.0 L-2303.6265,-850.0 L-2294.96625,-855.0 L-2294.96625,-845.0 L-2286.306,-840.0 L-2277.64575,-845.0 L-2277.64575,-855.0 L-2268.9855,-850.0 L-2260.32525,-855.0 L-2260.32525,-865.0 L-2268.9855,-870.0 L-2260.32525,-875.0 L-2260.32525,-885.0 L-2268.9855,-890.0 L-2277.64575,-885.0 L-2277.64575,-895.0 L-2286.306,-900.0 L-2277.64575,-905.0 L-2277.64575,-915.0 L-2268.9855,-910.0 L-2260.32525,-915.0 L-2260.32525,-925.0 L-2268.9855,-930.0 L-2260.32525,-935.0 L-2260.32525,-945.0 L-2251.665,-940.0 L-2243.00475,-945.0 L-2243.00475,-935.0 L-2234.3445,-930.0 L-2225.68425,-935.0 L-2225.68425,-945.0 L-2217.024,-940.0 L-2208.36375,-945.0 L-2208.36375,-935.0 L-2199.7035,-930.0 L-2208.36375,-925.0 L-2208.36375,-915.0 L-2199.7035,-910.0 L-2191.04325,-915.0 L-2191.04325,-905.0 L-2182.383,-900.0 L-2173.72275,-905.0 L-2173.72275,-915.0 L-2165.0625,-910.0 L-2156.40225,-915.0 L-2156.40225,-925.0 L-2165.0625,-930.0 L-2156.40225,-935.0 L-2156.40225,-945.0 L-2147.742,-940.0 L-2139.08175,-945.0 L-2139.08175,-935.0 L-2130.4215,-930.0 L-2121.76125,-935.0 L-2121.76125,-945.0 L-2113.101,-940.0 L-2104.44075,-945.0 L-2104.44075,-955.0 L-2113.101,-960.0 L-2104.44075,-965.0 L-2104.44075,-975.0 L-2113.101,-980.0 L-2121.76125,-975.0 L-2121.76125,-985.0 L-2130.4215,-990.0 L-2121.76125,-995.0 L-2121.76125,-1005.0 L-2113.101,-1000.0 L-2104.44075,-1005.0 L-2104.44075,-1015.0 L-2113.101,-1020.0 L-2104.44075,-1025.0 L-2104.44075,-1035.0 L-2113.101,-1040.0 L-2121.76125,-1035.0 L-2121.76125,-1045.0 L-2130.4215,-1050.0 L-2139.08175,-1045.0 L-2139.08175,-1035.0 L-2147.742,-1040.0 L-2156.40225,-1035.0 L-2156.40225,-1045.0 L-2165.0625,-1050.0 L-2156.40225,-1055.0 L-2156.40225,-1065.0 L-2165.0625,-1070.0 L-2173.72275,-1065.0 L-2173.72275,-1075.0 L-2182.383,-1080.0 L-2173.72275,-1085.0 L-2173.72275,-1095.0 L-2165.0625,-1090.0 L-2156.40225,-1095.0 L-2156.40225,-1105.0 L-2165.0625,-1110.0 L-2156.40225,-1115.0 L-2156.40225,-1125.0 L-2147.742,-1120.0 L-2139.08175,-1125.0 L-2139.08175,-1115.0 L-2130.4215,-1110.0 L-2121.76125,-1115.0 L-2121.76125,-1125.0 L-2113.101,-1120.0 L-2104.44075,-1125.0 L-2104.44075,-1135.0 L-2113.101,-1140.0 L-2104.44075,-1145.0 L-2104.44075,-1155.0 L-2113.101,-1160.0 L-2121.76125,-1155.0 L-2121.76125,-1165.0 L-2130.4215,-1170.0 L-2121.76125,-1175.0 L-2121.76125,-1185.0 L-2113.101,-1180.0 L-2104.44075,-1185.0 L-2104.44075,-1195.0 L-2113.101,-1200.0 L-2104.44075,-1205.0 L-2104.44075,-1215.0 L-2095.7805,-1210.0 L-2087.12025,-1215.0 L-2087.12025,-1205.0 L-2078.46,-1200.0 L-2069.79975,-1205.0 L-2069.79975,-1215.0 L-2061.1395,-1210.0 L-2052.47925,-1215.0 L-2052.47925,-1205.0 L-2043.819,-1200.0 L-2052.47925,-1195.0 L-2052.47925,-1185.0 L-2043.819,-1180.0 L-2035.15875,-1185.0 L-2035.15875,-1175.0 L-2026.4985,-1170.0 L-2017.83825,-1175.0 L-2017.83825,-1185.0 L-2009.178,-1180.0 L-2000.51775,-1185.0 L-2000.51775,-1195.0 L-2009.178,-1200.0 L-2000.51775,-1205.0 L-2000.51775,-1215.0 L-1991.8575,-1210.0 L-1983.19725,-1215.0 L-1983.19725,-1205.0 L-1974.537,-1200.0 L-1965.87675,-1205.0 L-1965.87675,-1215.0 L-1957.2165,-1210.0 L-1948.55625,-1215.0 L-1948.55625,-1205.0 L-1939.896,-1200.0 L-1948.55625,-1195.0 L-1948.55625,-1185.0 L-1939.896,-1180.0 L-1931.23575,-1185.0 L-1931.23575,-1175.0 L-1922.5755,-1170.0 L-1931.23575,-1165.0 L-1931.23575,-1155.0 L-1939.896,-1160.0 L-1948.55625,-1155.0 L-1948.55625,-1145.0 L-1939.896,-1140.0 L-1948.55625,-1135.0 L-1948.55625,-1125.0 L-1939.896,-1120.0 L-1931.23575,-1125.0 L-1931.23575,-1115.0 L-1922.5755,-1110.0 L-1913.91525,-1115.0 L-1913.91525,-1125.0 L-1905.255,-1120.0 L-1896.59475,-1125.0 L-1896.59475,-1115.0 L-1887.9345,-1110.0 L-1896.59475,-1105.0 L-1896.59475,-1095.0 L-1887.9345,-1090.0 L-1879.27425,-1095.0 L-1879.27425,-1085.0 L-1870.614,-1080.0 L-1861.95375,-1085.0 L-1861.95375,-1095.0 L-1853.2935,-1090.0 L-1844.63325,-1095.0 L-1844.63325,-1105.0 L-1853.2935,-1110.0 L-1844.63325,-1115.0 L-1844.63325,-1125.0 L-1835.973,-1120.0 L-1827.31275,-1125.0 L-1827.31275,-1115.0 L-1818.6525,-1110.0 L-1809.99225,-1115.0 L-1809.99225,-1125.0 L-1801.332,-1120.0 L-1792.67175,-1125.0 L-1792.67175,-1135.0 L-1801.332,-1140.0 L-1792.67175,-1145.0 L-1792.67175,-1155.0 L-1801.332,-1160.0 L-1809.99225,-1155.0 L-1809.99225,-1165.0 L-1818.6525,-1170.0 L-1809.99225,-1175.0 L-1809.99225,-1185.0 L-1801.332,-1180.0 L-1792.67175,-1185.0 L-1792.67175,-1195.0 L-1801.332,-1200.0 L-1792.67175,-1205.0 L-1792.67175,-1215.0 L-1784.0115,-1210.0 L-1775.35125,-1215.0 L-1775.35125,-1205.0 L-1766.691,-1200.0 L-1758.03075,-1205.0 L-1758.03075,-1215.0 L-1749.3705,-1210.0 L-1740.71025,-1215.0 L-1740.71025,-1205.0 L-1732.05,-1200.0 L-1740.71025,-1195.0 L-1740.71025,-1185.0 L-1732.05,-1180.0 L-1723.38975,-1185.0 L-1723.38975,-1175.0 L-1714.7295,-1170.0 L-1706.06925,-1175.0 L-1706.06925,-1185.0 L-1697.409,-1180.0 L-1688.74875,-1185.0 L-1688.74875,-1195.0 L-1697.409,-1200.0 L-1688.74875,-1205.0 L-1688.74875,-1215.0 L-1680.0885,-1210.0 L-1671.42825,-1215.0 L-1671.42825,-1205.0 L-1662.768,-1200.0 L-1654.10775,-1205.0 L-1654.10775,-1215.0 L-1645.4475,-1210.0 L-1636.78725,-1215.0 L-1636.78725,-1205.0 L-1628.127,-1200.0 L-1636.78725,-1195.0 L-1636.78725,-1185.0 L-1628.127,-1180.0 L-1619.46675,-1185.0 L-1619.46675,-1175.0 L-1610.8065,-1170.0 L-1619.46675,-1165.0 L-1619.46675,-1155.0 L-1628.127,-1160.0 L-1636.78725,-1155.0 L-1636.78725,-1145.0 L-1628.127,-1140.0 L-1636.78725,-1135.0 L-1636.78725,-1125.0 L-1628.127,-1120.0 L-1619.46675,-1125.0 L-1619.46675,-1115.0 L-1610.8065,-1110.0 L-1602.14625,-1115.0 L-1602.14625,-1125.0 L-1593.486,-1120.0 L-1584.82575,-1125.0 L-1584.82575,-1115.0 L-1576.1655,-1110.0 L-1584.82575,-1105.0 L-1584.82575,-1095.0 L-1576.1655,-1090.0 L-1567.50525,-1095.0 L-1567.50525,-1085.0 L-1558.845,-1080.0 L-1567.50525,-1075.0 L-1567.50525,-1065.0 L-1576.1655,-1070.0 L-1584.82575,-1065.0 L-1584.82575,-1055.0 L-1576.1655,-1050.0 L-1584.82575,-1045.0 L-1584.82575,-1035.0 L-1593.486,-1040.0 L-1602.14625,-1035.0 L-1602.14625,-1045.0 L-1610.8065,-1050.0 L-1619.46675,-1045.0 L-1619.46675,-1035.0 L-1628.127,-1040.0 L-1636.78725,-1035.0 L-1636.78725,-1025.0 L-1628.127,-1020.0 L-1636.78725,-1015.0 L-1636.78725,-1005.0 L-1628.127,-1000.0 L-1619.46675,-1005.0 L-1619.46675,-995.0 L-1610.8065,-990.0 L-1619.46675,-985.0 L-1619.46675,-975.0 L-1628.127,-980.0 L-1636.78725,-975.0 L-1636.78725,-965.0 L-1628.127,-960.0 L-1636.78725,-955.0 L-1636.78725,-945.0 L-1628.127,-940.0 L-1619.46675,-945.0 L-1619.46675,-935.0 L-1610.8065,-930.0 L-1602.14625,-935.0 L-1602.14625,-945.0 L-1593.486,-940.0 L-1584.82575,-945.0 L-1584.82575,-935.0 L-1576.1655,-930.0 L-1584.82575,-925.0 L-1584.82575,-915.0 L-1576.1655,-910.0 L-1567.50525,-915.0 L-1567.50525,-905.0 L-1558.845,-900.0 L-1550.18475,-905.0 L-1550.18475,-915.0 L-1541.5245,-910.0 L-1532.86425,-915.0 L-1532.86425,-925.0 L-1541.5245,-930.0 L-1532.86425,-935.0 L-1532.86425,-945.0 L-1524.204,-940.0 L-1515.54375,-945.0 L-1515.54375,-935.0 L-1506.8835,-930.0 L-1498.22325,-935.0 L-1498.22325,-945.0 L-1489.563,-940.0 L-1480.90275,-945.0 L-1480.90275,-935.0 L-1472.2425,-930.0 L-1480.90275,-925.0 L-1480.90275,-915.0 L-1472.2425,-910.0 L-1463.58225,-915.0 L-1463.58225,-905.0 L-1454.922,-900.0 L-1463.58225,-895.0 L-1463.58225,-885.0 L-1472.2425,-890.0 L-1480.90275,-885.0 L-1480.90275,-875.0 L-1472.2425,-870.0 L-1480.90275,-865.0 L-1480.90275,-855.0 L-1472.2425,-850.0 L-1463.58225,-855.0 L-1463.58225,-845.0 L-1454.922,-840.0 L-1446.26175,-845.0 L-1446.26175,-855.0 L-1437.6015,-850.0 L-1428.94125,-855.0 L-1428.94125,-845.0 L-1420.281,-840.0 L-1428.94125,-835.0 L-1428.94125,-825.0 L-1420.281,-820.0 L-1411.62075,-825.0 L-1411.62075,-815.0 L-1402.9605,-810.0 L-1394.30025,-815.0 L-1394.30025,-825.0 L-1385.64,-820.0 L-1376.97975,-825.0 L-1376.97975,-835.0 L-1385.64,-840.0 L-1376.97975,-845.0 L-1376.97975,-855.0 L-1368.3195,-850.0 L-1359.65925,-855.0 L-1359.65925,-845.0 L-1350.999,-840.0 L-1342.33875,-845.0 L-1342.33875,-855.0 L-1333.6785,-850.0 L-1325.01825,-855.0 L-1325.01825,-865.0 L-1333.6785,-870.0 L-1325.01825,-875.0 L-1325.01825,-885.0 L-1333.6785,-890.0 L-1342.33875,-885.0 L-1342.33875,-895.0 L-1350.999,-900.0 L-1342.33875,-905.0 L-1342.33875,-915.0 L-1333.6785,-910.0 L-1325.01825,-915.0 L-1325.01825,-925.0 L-1333.6785,-930.0 L-1325.01825,-935.0 L-1325.01825,-945.0 L-1316.358,-940.0 L-1307.69775,-945.0 L-1307.69775,-935.0 L-1299.0375,-930.0 L-1290.37725,-935.0 L-1290.37725,-945.0 L-1281.717,-940.0 L-1273.05675,-945.0 L-1273.05675,-935.0 L-1264.3965,-930.0 L-1273.05675,-925.0 L-1273.05675,-915.0 L-1264.3965,-910.0 L-1255.73625,-915.0 L-1255.73625,-905.0 L-1247.076,-900.0 L-1238.41575,-905.0 L-1238.41575,-915.0 L-1229.7555,-910.0 L-1221.09525,-915.0 L-1221.09525,-925.0 L-1229.7555,-930.0 L-1221.09525,-935.0 L-1221.09525,-945.0 L-1212.435,-940.0 L-1203.77475,-945.0 L-1203.77475,-935.0 L-1195.1145,-930.0 L-1186.45425,-935.0 L-1186.45425,-945.0 L-1177.794,-940.0 L-1169.13375,-945.0 L-1169.13375,-955.0 L-1177.794,-960.0 L-1169.13375,-965.0 L-1169.13375,-975.0 L-1177.794,-980.0 L-1186.45425,-975.0 L-1186.45425,-985.0 L-1195.1145,-990.0 L-1186.45425,-995.0 L-1186.45425,-1005.0 L-1177.794,-1000.0 L-1169.13375,-1005.0 L-1169.13375,-1015.0 L-1177.794,-1020.0 L-1169.13375,-1025.0 L-1169.13375,-1035.0 L-1177.794,-1040.0 L-1186.45425,-1035.0 L-1186.45425,-1045.0 L-1195.1145,-1050.0 L-1203.77475,-1045.0 L-1203.77475,-1035.0 L-1212.435,-1040.0 L-1221.09525,-1035.0 L-1221.09525,-1045.0 L-1229.7555,-1050.0 L-1221.09525,-1055.0 L-1221.09525,-1065.0 L-1229.7555,-1070.0 L-1238.41575,-1065.0 L-1238.41575,-1075.0 L-1247.076,-1080.0 L-1238.41575,-1085.0 L-1238.41575,-1095.0 L-1229.7555,-1090.0 L-1221.09525,-1095.0 L-1221.09525,-1105.0 L-1229.7555,-1110.0 L-1221.09525,-1115.0 L-1221.09525,-1125.0 L-1212.435,-1120.0 L-1203.77475,-1125.0 L-1203.77475,-1115.0 L-1195.1145,-1110.0 L-1186.45425,-1115.0 L-1186.45425,-1125.0 L-1177.794,-1120.0 L-1169.13375,-1125.0 L-1169.13375,-1135.0 L-1177.794,-1140.0 L-1169.13375,-1145.0 L-1169.13375,-1155.0 L-1177.794,-1160.0 L-1186.45425,-1155.0 L-1186.45425,-1165.0 L-1195.1145,-1170.0 L-1186.45425,-1175.0 L-1186.45425,-1185.0 L-1177.794,-1180.0 L-1169.13375,-1185.0 L-1169.13375,-1195.0 L-1177.794,-1200.0 L-1169.13375,-1205.0 L-1169.13375,-1215.0 L-1160.4735,-1210.0 L-1151.81325,-1215.0 L-1151.81325,-1205.0 L-1143.153,-1200.0 L-1134.49275,-1205.0 L-1134.49275,-1215.0 L-1125.8325,-1210.0 L-1117.17225,-1215.0 L-1117.17225,-1205.0 L-1108.512,-1200.0 L-1117.17225,-1195.0 L-1117.17225,-1185.0 L-1108.512,-1180.0 L-1099.85175,-1185.0 L-1099.85175,-1175.0 L-1091.1915,-1170.0 L-1082.53125,-1175.0 L-1082.53125,-1185.0 L-1073.871,-1180.0 L-1065.21075,-1185.0 L-1065.21075,-1195.0 L-1073.871,-1200.0 L-1065.21075,-1205.0 L-1065.21075,-1215.0 L-1056.5505,-1210.0 L-1047.89025,-1215.0 L-1047.89025,-1205.0 L-1039.23,-1200.0 L-1030.56975,-1205.0 L-1030.56975,-1215.0 L-1021.9095,-1210.0 L-1013.24925,-1215.0 L-1013.24925,-1205.0 L-1004.589,-1200.0 L-1013.24925,-1195.0 L-1013.24925,-1185.0 L-1004.589,-1180.0 L-995.92875,-1185.0 L-995.92875,-1175.0 L-987.2685,-1170.0 L-995.92875,-1165.0 L-995.92875,-1155.0 L-1004.589,-1160.0 L-1013.24925,-1155.0 L-1013.24925,-1145.0 L-1004.589,-1140.0 L-1013.24925,-1135.0 L-1013.24925,-1125.0 L-1004.589,-1120.0 L-995.92875,-1125.0 L-995.92875,-1115.0 L-987.2685,-1110.0 L-978.60825,-1115.0 L-978.60825,-1125.0 L-969.948,-1120.0 L-961.28775,-1125.0 L-961.28775,-1115.0 L-952.6275,-1110.0 L-961.28775,-1105.0 L-961.28775,-1095.0 L-952.6275,-1090.0 L-943.96725,-1095.0 L-943.96725,-1085.0 L-935.307,-1080.0 L-926.64675,-1085.0 L-926.64675,-1095.0 L-917.9865,-1090.0 L-909.32625,-1095.0 L-909.32625,-1105.0 L-917.9865,-1110.0 L-909.32625,-1115.0 L-909.32625,-1125.0 L-900.666,-1120.0 L-892.00575,-1125.0 L-892.00575,-1115.0 L-883.3455,-1110.0 L-874.68525,-1115.0 L-874.68525,-1125.0 L-866.025,-1120.0 L-857.36475,-1125.0 L-857.36475,-1135.0 L-866.025,-1140.0 L-857.36475,-1145.0 L-857.36475,-1155.0 L-866.025,-1160.0 L-874.68525,-1155.0 L-874.68525,-1165.0 L-883.3455,-1170.0 L-874.68525,-1175.0 L-874.68525,-1185.0 L-866.025,-1180.0 L-857.36475,-1185.0 L-857.36475,-1195.0 L-866.025,-1200.0 L-857.36475,-1205.0 L-857.36475,-1215.0 L-848.7045,-1210.0 L-840.04425,-1215.0 L-840.04425,-1205.0 L-831.384,-1200.0 L-822.72375,-1205.0 L-822.72375,-1215.0 L-814.0635,-1210.0 L-805.40325,-1215.0 L-805.40325,-1205.0 L-796.743,-1200.0 L-805.40325,-1195.0 L-805.40325,-1185.0 L-796.743,-1180.0 L-788.08275,-1185.0 L-788.08275,-1175.0 L-779.4225,-1170.0 L-770.76225,-1175.0 L-770.76225,-1185.0 L-762.102,-1180.0 L-753.44175,-1185.0 L-753.44175,-1195.0 L-762.102,-1200.0 L-753.44175,-1205.0 L-753.44175,-1215.0 L-744.7815,-1210.0 L-736.12125,-1215.0 L-736.12125,-1205.0 L-727.461,-1200.0 L-718.80075,-1205.0 L-718.80075,-1215.0 L-710.1405,-1210.0 L-701.48025,-1215.0 L-701.48025,-1205.0 L-692.82,-1200.0 L-701.48025,-1195.0 L-701.48025,-1185.0 L-692.82,-1180.0 L-684.15975,-1185.0 L-684.15975,-1175.0 L-675.4995,-1170.0 L-684.15975,-1165.0 L-684.15975,-1155.0 L-692.82,-1160.0 L-701.48025,-1155.0 L-701.48025,-1145.0 L-692.82,-1140.0 L-701.48025,-1135.0 L-701.48025,-1125.0 L-692.82,-1120.0 L-684.15975,-1125.0 L-684.15975,-1115.0 L-675.4995,-1110.0 L-666.83925,-1115.0 L-666.83925,-1125.0 L-658.179,-1120.0 L-649.51875,-1125.0 L-649.51875,-1115.0 L-640.8585,-1110.0 L-649.51875,-1105.0 L-649.51875,-1095.0 L-640.8585,-1090.0 L-632.19825,-1095.0 L-632.19825,-1085.0 L-623.538,-1080.0 L-632.19825,-1075.0 L-632.19825,-1065.0 L-640.8585,-1070.0 L-649.51875,-1065.0 L-649.51875,-1055.0 L-640.8585,-1050.0 L-649.51875,-1045.0 L-649.51875,-1035.0 L-658.179,-1040.0 L-666.83925,-1035.0 L-666.83925,-1045.0 L-675.4995,-1050.0 L-684.15975,-1045.0 L-684.15975,-1035.0 L-692.82,-1040.0 L-701.48025,-1035.0 L-701.48025,-1025.0 L-692.82,-1020.0 L-701.48025,-1015.0 L-701.48025,-1005.0 L-692.82,-1000.0 L-684.15975,-1005.0 L-684.15975,-995.0 L-675.4995,-990.0 L-684.15975,-985.0 L-684.15975,-975.0 L-692.82,-980.0 L-701.48025,-975.0 L-701.48025,-965.0 L-692.82,-960.0 L-701.48025,-955.0 L-701.48025,-945.0 L-692.82,-940.0 L-684.15975,-945.0 L-684.15975,-935.0 L-675.4995,-930.0 L-666.83925,-935.0 L-666.83925,-945.0 L-658.179,-940.0 L-649.51875,-945.0 L-649.51875,-935.0 L-640.8585,-930.0 L-649.51875,-925.0 L-649.51875,-915.0 L-640.8585,-910.0 L-632.19825,-915.0 L-632.19825,-905.0 L-623.538,-900.0 L-614.87775,-905.0 L-614.87775,-915.0 L-606.2175,-910.0 L-597.55725,-915.0 L-597.55725,-925.0 L-606.2175,-930.0 L-597.55725,-935.0 L-597.55725,-945.0 L-588.897,-940.0 L-580.23675,-945.0 L-580.23675,-935.0 L-571.5765,-930.0 L-562.91625,-935.0 L-562.91625,-945.0 L-554.256,-940.0 L-545.59575,-945.0 L-545.59575,-935.0 L-536.9355,-930.0 L-545.59575,-925.0 L-545.59575,-915.0 L-536.9355,-910.0 L-528.27525,-915.0 L-528.27525,-905.0 L-519.615,-900.0 L-528.27525,-895.0 L-528.27525,-885.0 L-536.9355,-890.0 L-545.59575,-885.0 L-545.59575,-875.0 L-536.9355,-870.0 L-545.59575,-865.0 L-545.59575,-855.0 L-536.9355,-850.0 L-528.27525,-855.0 L-528.27525,-845.0 L-519.615,-840.0 L-510.95475,-845.0 L-510.95475,-855.0 L-502.2945,-850.0 L-493.63425,-855.0 L-493.63425,-845.0 L-484.974,-840.0 L-493.63425,-835.0 L-493.63425,-825.0 L-484.974,-820.0 L-476.31375,-825.0 L-476.31375,-815.0 L-467.6535,-810.0 L-476.31375,-805.0 L-476.31375,-795.0 L-484.974,-800.0 L-493.63425,-795.0 L-493.63425,-785.0 L-484.974,-780.0 L-493.63425,-775.0 L-493.63425,-765.0 L-502.2945,-770.0 L-510.95475,-765.0 L-510.95475,-775.0 L-519.615,-780.0 L-528.27525,-775.0 L-528.27525,-765.0 L-536.9355,-770.0 L-545.59575,-765.0 L-545.59575,-755.0 L-536.9355,-750.0 L-545.59575,-745.0 L-545.59575,-735.0 L-536.9355,-730.0 L-528.27525,-735.0 L-528.27525,-725.0 L-519.615,-720.0 L-528.27525,-715.0 L-528.27525,-705.0 L-536.9355,-710.0 L-545.59575,-705.0 L-545.59575,-695.0 L-536.9355,-690.0 L-545.59575,-685.0 L-545.59575,-675.0 L-554.256,-680.0 L-562.91625,-675.0 L-562.91625,-685.0 L-571.5765,-690.0 L-580.23675,-685.0 L-580.23675,-675.0 L-588.897,-680.0 L-597.55725,-675.0 L-597.55725,-685.0 L-606.2175,-690.0 L-597.55725,-695.0 L-597.55725,-705.0 L-606.2175,-710.0 L-614.87775,-705.0 L-614.87775,-715.0 L-623.538,-720.0 L-632.19825,-715.0 L-632.19825,-705.0 L-640.8585,-710.0 L-649.51875,-705.0 L-649.51875,-695.0 L-640.8585,-690.0 L-649.51875,-685.0 L-649.51875,-675.0 L-658.179,-680.0 L-666.83925,-675.0 L-666.83925,-685.0 L-675.4995,-690.0 L-684.15975,-685.0 L-684.15975,-675.0 L-692.82,-680.0 L-701.48025,-675.0 L-701.48025,-665.0 L-692.82,-660.0 L-701.48025,-655.0 L-701.48025,-645.0 L-692.82,-640.0 L-684.15975,-645.0 L-684.15975,-635.0 L-675.4995,-630.0 L-684.15975,-625.0 L-684.15975,-615.0 L-692.82,-620.0 L-701.48025,-615.0 L-701.48025,-605.0 L-692.82,-600.0 L-701.48025,-595.0 L-701.48025,-585.0 L-692.82,-580.0 L-684.15975,-585.0 L-684.15975,-575.0 L-675.4995,-570.0 L-666.83925,-575.0 L-666.83925,-585.0 L-658.179,-580.0 L-649.51875,-585.0 L-649.51875,-575.0 L-640.8585,-570.0 L-649.51875,-565.0 L-649.51875,-555.0 L-640.8585,-550.0 L-632.19825,-555.0 L-632.19825,-545.0 L-623.538,-540.0 L-632.19825,-535.0 L-632.19825,-525.0 L-640.8585,-530.0 L-649.51875,-525.0 L-649.51875,-515.0 L-640.8585,-510.0 L-649.51875,-505.0 L-649.51875,-495.0 L-658.179,-500.0 L-666.83925,-495.0 L-666.83925,-505.0 L-675.4995,-510.0 L-684.15975,-505.0 L-684.15975,-495.0 L-692.82,-500.0 L-701.48025,-495.0 L-701.48025,-485.0 L-692.82,-480.0 L-701.48025,-475.0 L-701.48025,-465.0 L-692.82,-460.0 L-684.15975,-465.0 L-684.15975,-455.0 L-675.4995,-450.0 L-684.15975,-445.0 L-684.15975,-435.0 L-692.82,-440.0 L-701.48025,-435.0 L-701.48025,-425.0 L-692.82,-420.0 L-701.48025,-415.0 L-701.48025,-405.0 L-692.82,-400.0 L-684.15975,-405.0 L-684.15975,-395.0 L-675.4995,-390.0 L-666.83925,-395.0 L-666.83925,-405.0 L-658.179,-400.0 L-649.51875,-405.0 L-649.51875,-395.0 L-640.8585,-390.0 L-649.51875,-385.0 L-649.51875,-375.0 L-640.8585,-370.0 L-632.19825,-375.0 L-632.19825,-365.0 L-623.538,-360.0 L-614.87775,-365.0 L-614.87775,-375.0 L-606.2175,-370.0 L-597.55725,-375.0 L-597.55725,-385.0 L-606.2175,-390.0 L-597.55725,-395.0 L-597.55725,-405.0 L-588.897,-400.0 L-580.23675,-405.0 L-580.23675,-395.0 L-571.5765,-390.0 L-562.91625,-395.0 L-562.91625,-405.0 L-554.256,-400.0 L-545.59575,-405.0 L-545.59575,-395.0 L-536.9355,-390.0 L-545.59575,-385.0 L-545.59575,-375.0 L-536.9355,-370.0 L-528.27525,-375.0 L-528.27525,-365.0 L-519.615,-360.0 L-528.27525,-355.0 L-528.27525,-345.0 L-536.9355,-350.0 L-545.59575,-345.0 L-545.59575,-335.0 L-536.9355,-330.0 L-545.59575,-325.0 L-545.59575,-315.0 L-536.9355,-310.0 L-528.27525,-315.0 L-528.27525,-305.0 L-519.615,-300.0 L-510.95475,-305.0 L-510.95475,-315.0 L-502.2945,-310.0 L-493.63425,-315.0 L-493.63425,-305.0 L-484.974,-300.0 L-493.63425,-295.0 L-493.63425,-285.0 L-484.974,-280.0 L-476.31375,-285.0 L-476.31375,-275.0 L-467.6535,-270.0 L-458.99325,-275.0 L-458.99325,-285.0 L-450.333,-280.0 L-441.67275,-285.0 L-441.67275,-295.0 L-450.333,-300.0 L-441.67275,-305.0 L-441.67275,-315.0 L-433.0125,-310.0 L-424.35225,-315.0 L-424.35225,-305.0 L-415.692,-300.0 L-407.03175,-305.0 L-407.03175,-315.0 L-398.3715,-310.0 L-389.71125,-315.0 L-389.71125,-325.0 L-398.3715,-330.0 L-389.71125,-335.0 L-389.71125,-345.0 L-398.3715,-350.0 L-407.03175,-345.0 L-407.03175,-355.0 L-415.692,-360.0 L-407.03175,-365.0 L-407.03175,-375.0 L-398.3715,-370.0 L-389.71125,-375.0 L-389.71125,-385.0 L-398.3715,-390.0 L-389.71125,-395.0 L-389.71125,-405.0 L-381.051,-400.0 L-372.39075,-405.0 L-372.39075,-395.0 L-363.7305,-390.0 L-355.07025,-395.0 L-355.07025,-405.0 L-346.41,-400.0 L-337.74975,-405.0 L-337.74975,-395.0 L-329.0895,-390.0 L-337.74975,-385.0 L-337.74975,-375.0 L-329.0895,-370.0 L-320.42925,-375.0 L-320.42925,-365.0 L-311.769,-360.0 L-303.10875,-365.0 L-303.10875,-375.0 L-294.4485,-370.0 L-285.78825,-375.0 L-285.78825,-385.0 L-294.4485,-390.0 L-285.78825,-395.0 L-285.78825,-405.0 L-277.128,-400.0 L-268.46775,-405.0 L-268.46775,-395.0 L-259.8075,-390.0 L-251.14725,-395.0 L-251.14725,-405.0 L-242.487,-400.0 L-233.82675,-405.0 L-233.82675,-395.0 L-225.1665,-390.0 L-233.82675,-385.0 L-233.82675,-375.0 L-225.1665,-370.0 L-216.50625,-375.0 L-216.50625,-365.0 L-207.846,-360.0 L-216.50625,-355.0 L-216.50625,-345.0 L-225.1665,-350.0 L-233.82675,-345.0 L-233.82675,-335.0 L-225.1665,-330.0 L-233.82675,-325.0 L-233.82675,-315.0 L-225.1665,-310.0 L-216.50625,-315.0 L-216.50625,-305.0 L-207.846,-300.0 L-199.18575,-305.0 L-199.18575,-315.0 L-190.5255,-310.0 L-181.86525,-315.0 L-181.86525,-305.0 L-173.205,-300.0 L-181.86525,-295.0 L-181.86525,-285.0 L-173.205,-280.0 L-164.54475,-285.0 L-164.54475,-275.0 L-155.8845,-270.0 L-164.54475,-265.0 L-164.54475,-255.0 L-173.205,-260.0 L-181.86525,-255.0 L-181.86525,-245.0 L-173.205,-240.0 L-181.86525,-235.0 L-181.86525,-225.0 L-190.5255,-230.0 L-199.18575,-225.0 L-199.18575,-235.0 L-207.846,-240.0 L-216.50625,-235.0 L-216.50625,-225.0 L-225.1665,-230.0 L-233.82675,-225.0 L-233.82675,-215.0 L-225.1665,-210.0 L-233.82675,-205.0 L-233.82675,-195.0 L-225.1665,-190.0 L-216.50625,-195.0 L-216.50625,-185.0 L-207.846,-180.0 L-216.50625,-175.0 L-216.50625,-165.0 L-225.1665,-170.0 L-233.82675,-165.0 L-233.82675,-155.0 L-225.1665,-150.0 L-233.82675,-145.0 L-233.82675,-135.0 L-225.1665,-130.0 L-216.50625,-135.0 L-216.50625,-125.0 L-207.846,-120.0 L-199.18575,-125.0 L-199.18575,-135.0 L-190.5255,-130.0 L-181.86525,-135.0 L-181.86525,-125.0 L-173.205,-120.0 L-181.86525,-115.0 L-181.86525,-105.0 L-173.205,-100.0 L-164.54475,-105.0 L-164.54475,-95.0 L-155.8845,-90.0 L-147.22425,-95.0 L-147.22425,-105.0 L-138.564,-100.0 L-129.90375,-105.0 L-129.90375,-115.0 L-138.564,-120.0 L-129.90375,-125.0 L-129.90375,-135.0 L-121.2435,-130.0 L-112.58325,-135.0 L-112.58325,-125.0 L-103.923,-120.0 L-95.26275,-125.0 L-95.26275,-135.0 L-86.6025,-130.0 L-77.94225,-135.0 L-77.94225,-125.0 L-69.282,-120.0 L-77.94225,-115.0 L-77.94225,-105.0 L-69.282,-100.0 L-60.62175,-105.0 L-60.62175,-95.0 L-51.9615,-90.0 L-60.62175,-85.0 L-60.62175,-75.0 L-69.282,-80.0 L-77.94225,-75.0 L-77.94225,-65.0 L-69.282,-60.0 L-77.94225,-55.0 L-77.94225,-45.0 L-69.282,-40.0 L-60.62175,-45.0 L-60.62175,-35.0 L-51.9615,-30.0 L-43.30125,-35.0 L-43.30125,-45.0 L-34.641,-40.0 L-25.98075,-45.0 L-25.98075,-35.0 L-17.3205,-30.0 L-25.98075,-25.0 L-25.98075,-15.0 L-17.3205,-10.0 L-8.66025,-15.0 L-8.66025,-5.0 L0.0,0.0 " style="fill:none;stroke-width:3;stroke:red;"></path></g></svg>