<svg height="600" overflow="visible" preserveAspectRatio="xMidYMid meet" version="1.0" width="1000" xmlns:xlink="http://www.w3.org/1999/xlink" xmlns="http://www.w3.org/2000/svg" zoomAndPan="magnify"><g transform="translate(370.3125,89.0625) scale(0.9375,-0.9375)"><path d="M0.0,0.0 L0.0,30.0 L0.0,60.0 L30.0,60.0 L30.0,90.0 L60.0,90.0 L60.0,60.0 L60.0,30.0 L60.0,0.0 L60.0,-30.0 L30.0,-30.0 L30.0,-60.0 L0.0,-60.0 L0.0,-30.0 L0.0,0.0 L30.0,0.0 L60.0,0.0 L60.0,-30.0 L90.0,-30.0 L90.0,-60.0 L60.0,-60.0 L30.0,-60.0 L30.0,-90.0 L30.0,-120.0 L0.0,-120.0 L0.0,-150.0 L-30.0,-150.0 L-30.0,-120.0 L-30.0,-90.0 L0.0,-90.0 L30.0,-90.0 L30.0,-120.0 L60.0,-120.0 L60.0,-150.0 L30.0,-150.0 L0.0,-150.0 L0.0,-120.0 L0.0,-90.0 L30.0,-90.0 L30.0,-60.0 L60.0,-60.0 L60.0,-90.0 L60.0,-120.0 L60.0,-150.0 L60.0,-180.0 L30.0,-180.0 L30.0,-210.0 L0.0,-210.0 L0.0,-180.0 L0.0,-150.0 L0.0,-120.0 L0.0,-90.0 L30.0,-90.0 L30.0,-60.0 L60.0,-60.0 L60.0,-90.0 L60.0,-120.0 L60.0,-150.0 L60.0,-180.0 L30.0,-180.0 L30.0,-210.0 L0.0,-210.0 L0.0,-180.0 L0.0,-150.0 L30.0,-150.0 L60.0,-150.0 L60.0,-180.0 L90.0,-180.0 L90.0,-210.0 L60.0,-210.0 L30.0,-210.0 L30.0,-240.0 L30.0,-270.0 L0.0,-270.0 L0.0,-300.0 L-30.0,-300.0 L-30.0,-270.0 L-30.0,-240.0 L0.0,-240.0 L30.0,-240.0 L30.0,-270.0 L60.0,-270.0 L60.0,-300.0 L30.0,-300.0 L0.0,-300.0 L0.0,-270.0 L0.0,-240.0 L30.0,-240.0 L30.0,-210.0 L60.0,-210.0 L60.0,-240.0 L60.0,-270.0 L60.0,-300.0 L60.0,-330.0 L30.0,-330.0 L30.0,-360.0 L0.0,-360.0 L0.0,-330.0 L0.0,-300.0 L30.0,-300.0 L60.0,-300.0 L60.0,-330.0 L90.0,-330.0 L90.0,-360.0 L60.0,-360.0 L30.0,-360.0 L0.0,-360.0 L-30.0,-360.0 L-30.0,-330.0 L-60.0,-330.0 L-60.0,-300.0 L-30.0,-300.0 L0.0,-300.0 L0.0,-330.0 L0.0,-360.0 L-30.0,-360.0 L-30.0,-390.0 L-60.0,-390.0 L-60.0,-360.0 L-60.0,-330.0 L-90.0,-330.0 L-120.0,-330.0 L-120.0,-300.0 L-150.0,-300.0 L-150.0,-270.0 L-120.0,-270.0 L-90.0,-270.0 L-90.0,-300.0 L-90.0,-330.0 L-120.0,-330.0 L-120.0,-360.0 L-150.0,-360.0 L-150.0,-330.0 L-150.0,-300.0 L-120.0,-300.0 L-90.0,-300.0 L-90.0,-330.0 L-60.0,-330.0 L-60.0,-360.0 L-90.0,-360.0 L-120.0,-360.0 L-150.0,-360.0 L-180.0,-360.0 L-180.0,-330.0 L-210.0,-330.0 L-210.0,-300.0 L-180.0,-300.0 L-150.0,-300.0 L-150.0,-270.0 L-150.0,-240.0 L-120.0,-240.0 L-120.0,-210.0 L-90.0,-210.0 L-90.0,-240.0 L-90.0,-270.0 L-90.0,-300.0 L-90.0,-330.0 L-120.0,-330.0 L-120.0,-360.0 L-150.0,-360.0 L-150.0,-330.0 L-150.0,-300.0 L-120.0,-300.0 L-90.0,-300.0 L-90.0,-330.0 L-60.0,-330.0 L-60.0,-360.0 L-90.0,-360.0 L-120.0,-360.0 L-120.0,-390.0 L-120.0,-420.0 L-150.0,-420.0 L-150.0,-450.0 L-180.0,-450.0 L-180.0,-420.0 L-180.0,-390.0 L-150.0,-390.0 L-120.0,-390.0 L-120.0,-420.0 L-90.0,-420.0 L-90.0,-450.0 L-120.0,-450.0 L-150.0,-450.0 L-150.0,-420.0 L-150.0,-390.0 L-120.0,-390.0 L-120.0,-360.0 L-90.0,-360.0 L-90.0,-390.0 L-90.0,-420.0 L-90.0,-450.0 L-90.0,-480.0 L-120.0,-480.0 L-120.0,-510.0 L-150.0,-510.0 L-150.0,-480.0 L-150.0,-450.0 L-120.0,-450.0 L-90.0,-450.0 L-90.0,-480.0 L-60.0,-480.0 L-60.0,-510.0 L-90.0,-510.0 L-120.0,-510.0 L-150.0,-510.0 L-180.0,-510.0 L-180.0,-480.0 L-210.0,-480.0 L-210.0,-450.0 L-180.0,-450.0 L-150.0,-450.0 L-150.0,-480.0 L-150.0,-510.0 L-180.0,-510.0 L-180.0,-540.0 L-210.0,-540.0 L-210.0,-510.0 L-210.0,-480.0 L-240.0,-480.0 L-270.0,-480.0 L-270.0,-450.0 L-300.0,-450.0 L-300.0,-420.0 L-270.0,-420.0 L-240.0,-420.0 L-240.0,-450.0 L-240.0,-480.0 L-270.0,-480.0 L-270.0,-510.0 L-300.0,-510.0 L-300.0,-480.0 L-300.0,-450.0 L-270.0,-450.0 L-240.0,-450.0 L-240.0,-480.0 L-210.0,-480.0 L-210.0,-510.0 L-240.0,-510.0 L-270.0,-510.0 L-300.0,-510.0 L-330.0,-510.0 L-330.0,-480.0 L-360.0,-480.0 L-360.0,-450.0 L-330.0,-450.0 L-300.0,-450.0 L-300.0,-480.0 L-300.0,-510.0 L-330.0,-510.0 L-330.0,-540.0 L-360.0,-540.0 L-360.0,-510.0 L-360.0,-480.0 L-360.0,-450.0 L-360.0,-420.0 L-330.0,-420.0 L-330.0,-390.0 L-300.0,-390.0 L-300.0,-420.0 L-300.0,-450.0 L-330.0,-450.0 L-360.0,-450.0 L-360.0,-420.0 L-390.0,-420.0 L-390.0,-390.0 L-360.0,-390.0 L-330.0,-390.0 L-330.0,-360.0 L-330.0,-330.0 L-300.0,-330.0 L-300.0,-300.0 L-270.0,-300.0 L-270.0,-330.0 L-270.0,-360.0 L-300.0,-360.0 L-330.0,-360.0 L-330.0,-330.0 L-360.0,-330.0 L-360.0,-300.0 L-330.0,-300.0 L-300.0,-300.0 L-300.0,-330.0 L-300.0,-360.0 L-330.0,-360.0 L-330.0,-390.0 L-360.0,-390.0 L-360.0,-360.0 L-360.0,-330.0 L-360.0,-300.0 L-360.0,-270.0 L-330.0,-270.0 L-330.0,-240.0 L-300.0,-240.0 L-300.0,-270.0 L-300.0,-300.0 L-300.0,-330.0 L-300.0,-360.0 L-330.0,-360.0 L-330.0,-390.0 L-360.0,-390.0 L-360.0,-360.0 L-360.0,-330.0 L-360.0,-300.0 L-360.0,-270.0 L-330.0,-270.0 L-330.0,-240.0 L-300.0,-240.0 L-300.0,-270.0 L-300.0,-300.0 L-330.0,-300.0 L-360.0,-300.0 L-360.0,-270.0 L-390.0,-270.0 L-390.0,-240.0 L-360.0,-240.0 L-330.0,-240.0 L-330.0,-210.0 L-330.0,-180.0 L-300.0,-180.0 L-300.0,-150.0 L-270.0,-150.0 L-270.0,-180.0 L-270.0,-210.0 L-300.0,-210.0 L-330.0,-210.0 L-330.0,-180.0 L-360.0,-180.0 L-360.0,-150.0 L-330.0,-150.0 L-300.0,-150.0 L-300.0,-180.0 L-300.0,-210.0 L-330.0,-210.0 L-330.0,-240.0 L-360.0,-240.0 L-360.0,-210.0 L-360.0,-180.0 L-360.0,-150.0 L-360.0,-120.0 L-330.0,-120.0 L-330.0,-90.0 L-300.0,-90.0 L-300.0,-120.0 L-300.0,-150.0 L-330.0,-150.0 L-360.0,-150.0 L-360.0,-120.0 L-390.0,-120.0 L-390.0,-90.0 L-360.0,-90.0 L-330.0,-90.0 L-300.0,-90.0 L-270.0,-90.0 L-270.0,-120.0 L-240.0,-120.0 L-240.0,-150.0 L-270.0,-150.0 L-300.0,-150.0 L-300.0,-120.0 L-300.0,-90.0 L-270.0,-90.0 L-270.0,-60.0 L-240.0,-60.0 L-240.0,-90.0 L-240.0,-120.0 L-210.0,-120.0 L-180.0,-120.0 L-180.0,-150.0 L-150.0,-150.0 L-150.0,-180.0 L-180.0,-180.0 L-210.0,-180.0 L-210.0,-150.0 L-210.0,-120.0 L-180.0,-120.0 L-180.0,-90.0 L-150.0,-90.0 L-150.0,-120.0 L-150.0,-150.0 L-180.0,-150.0 L-210.0,-150.0 L-210.0,-120.0 L-240.0,-120.0 L-240.0,-90.0 L-210.0,-90.0 L-180.0,-90.0 L-150.0,-90.0 L-120.0,-90.0 L-120.0,-120.0 L-90.0,-120.0 L-90.0,-150.0 L-120.0,-150.0 L-150.0,-150.0 L-180.0,-150.0 L-210.0,-150.0 L-210.0,-120.0 L-240.0,-120.0 L-240.0,-90.0 L-210.0,-90.0 L-180.0,-90.0 L-150.0,-90.0 L-120.0,-90.0 L-120.0,-120.0 L-90.0,-120.0 L-90.0,-150.0 L-120.0,-150.0 L-150.0,-150.0 L-150.0,-120.0 L-150.0,-90.0 L-120.0,-90.0 L-120.0,-60.0 L-90.0,-60.0 L-90.0,-90.0 L-90.0,-120.0 L-60.0,-120.0 L-30.0,-120.0 L-30.0,-150.0 L0.0,-150.0 L0.0,-180.0 L-30.0,-180.0 L-60.0,-180.0 L-60.0,-150.0 L-60.0,-120.0 L-30.0,-120.0 L-30.0,-90.0 L0.0,-90.0 L0.0,-120.0 L0.0,-150.0 L-30.0,-150.0 L-60.0,-150.0 L-60.0,-120.0 L-90.0,-120.0 L-90.0,-90.0 L-60.0,-90.0 L-30.0,-90.0 L0.0,-90.0 L30.0,-90.0 L30.0,-120.0 L60.0,-120.0 L60.0,-150.0 L30.0,-150.0 L0.0,-150.0 L0.0,-120.0 L0.0,-90.0 L30.0,-90.0 L30.0,-60.0 L60.0,-60.0 L60.0,-90.0 L60.0,-120.0 L60.0,-150.0 L60.0,-180.0 L30.0,-180.0 L30.0,-210.0 L0.0,-210.0 L0.0,-180.0 L0.0,-150.0 L30.0,-150.0 L60.0,-150.0 L60.0,-180.0 L90.0,-180.0 L90.0,-210.0 L60.0,-210.0 L30.0,-210.0 L30.0,-240.0 L30.0,-270.0 L0.0,-270.0 L0.0,-300.0 L-30.0,-300.0 L-30.0,-270.0 L-30.0,-240.0 L0.0,-240.0 L30.0,-240.0 L30.0,-270.0 L60.0,-270.0 L60.0,-300.0 L30.0,-300.0 L0.0,-300.0 L0.0,-270.0 L0.0,-240.0 L30.0,-240.0 L30.0,-210.0 L60.0,-210.0 L60.0,-240.0 L60.0,-270.0 L60.0,-300.0 L60.0,-330.0 L30.0,-330.0 L30.0,-360.0 L0.0,-360.0 L0.0,-330.0 L0.0,-300.0 L-30.0,-300.0 L-60.0,-300.0 L-60.0,-270.0 L-90.0,-270.0 L-90.0,-240.0 L-60.0,-240.0 L-30.0,-240.0 L0.0,-240.0 L30.0,-240.0 L30.0,-270.0 L60.0,-270.0 L60.0,-300.0 L30.0,-300.0 L0.0,-300.0 L0.0,-270.0 L0.0,-240.0 L30.0,-240.0 L30.0,-210.0 L60.0,-210.0 L60.0,-240.0 L60.0,-270.0 L90.0,-270.0 L120.0,-270.0 L120.0,-300.0 L150.0,-300.0 L150.0,-330.0 L120.0,-330.0 L90.0,-330.0 L90.0,-300.0 L90.0,-270.0 L120.0,-270.0 L120.0,-240.0 L150.0,-240.0 L150.0,-270.0 L150.0,-300.0 L120.0,-300.0 L90.0,-300.0 L90.0,-270.0 L60.0,-270.0 L60.0,-240.0 L90.0,-240.0 L120.0,-240.0 L150.0,-240.0 L180.0,-240.0 L180.0,-270.0 L210.0,-270.0 L210.0,-300.0 L180.0,-300.0 L150.0,-300.0 L150.0,-270.0 L150.0,-240.0 L180.0,-240.0 L180.0,-210.0 L210.0,-210.0 L210.0,-240.0 L210.0,-270.0 L210.0,-300.0 L210.0,-330.0 L180.0,-330.0 L180.0,-360.0 L150.0,-360.0 L150.0,-330.0 L150.0,-300.0 L180.0,-300.0 L210.0,-300.0 L210.0,-330.0 L240.0,-330.0 L240.0,-360.0 L210.0,-360.0 L180.0,-360.0 L180.0,-390.0 L180.0,-420.0 L150.0,-420.0 L150.0,-450.0 L120.0,-450.0 L120.0,-420.0 L120.0,-390.0 L150.0,-390.0 L180.0,-390.0 L180.0,-420.0 L210.0,-420.0 L210.0,-450.0 L180.0,-450.0 L150.0,-450.0 L150.0,-420.0 L150.0,-390.0 L180.0,-390.0 L180.0,-360.0 L210.0,-360.0 L210.0,-390.0 L210.0,-420.0 L210.0,-450.0 L210.0,-480.0 L180.0,-480.0 L180.0,-510.0 L150.0,-510.0 L150.0,-480.0 L150.0,-450.0 L180.0,-450.0 L210.0,-450.0 L210.0,-480.0 L240.0,-480.0 L240.0,-510.0 L210.0,-510.0 L180.0,-510.0 L150.0,-510.0 L120.0,-510.0 L120.0,-480.0 L90.0,-480.0 L90.0,-450.0 L120.0,-450.0 L150.0,-450.0 L150.0,-480.0 L150.0,-510.0 L120.0,-510.0 L120.0,-540.0 L90.0,-540.0 L90.0,-510.0 L90.0,-480.0 L60.0,-480.0 L30.0,-480.0 L30.0,-450.0 L0.0,-450.0 L0.0,-420.0 L30.0,-420.0 L60.0,-420.0 L60.0,-450.0 L60.0,-480.0 L30.0,-480.0 L30.0,-510.0 L0.0,-510.0 L0.0,-480.0 L0.0,-450.0 L30.0,-450.0 L60.0,-450.0 L60.0,-480.0 L90.0,-480.0 L90.0,-510.0 L60.0,-510.0 L30.0,-510.0 L0.0,-510.0 L-30.0,-510.0 L-30.0,-480.0 L-60.0,-480.0 L-60.0,-450.0 L-30.0,-450.0 L0.0,-450.0 L30.0,-450.0 L60.0,-450.0 L60.0,-480.0 L90.0,-480.0 L90.0,-510.0 L60.0,-510.0 L30.0,-510.0 L0.0,-510.0 L-30.0,-510.0 L-30.0,-480.0 L-60.0,-480.0 L-60.0,-450.0 L-30.0,-450.0 L0.0,-450.0 L0.0,-480.0 L0.0,-510.0 L-30.0,-510.0 L-30.0,-540.0 L-60.0,-540.0 L-60.0,-510.0 L-60.0,-480.0 L-90.0,-480.0 L-120.0,-480.0 L-120.0,-450.0 L-150.0,-450.0 L-150.0,-420.0 L-120.0,-420.0 L-90.0,-420.0 L-90.0,-450.0 L-90.0,-480.0 L-120.0,-480.0 L-120.0,-510.0 L-150.0,-510.0 L-150.0,-480.0 L-150.0,-450.0 L-120.0,-450.0 L-90.0,-450.0 L-90.0,-480.0 L-60.0,-480.0 L-60.0,-510.0 L-90.0,-510.0 L-120.0,-510.0 L-150.0,-510.0 L-180.0,-510.0 L-180.0,-480.0 L-210.0,-480.0 L-210.0,-450.0 L-180.0,-450.0 L-150.0,-450.0 L-150.0,-480.0 L-150.0,-510.0 L-180.0,-510.0 L-180.0,-540.0 L-210.0,-540.0 L-210.0,-510.0 L-210.0,-480.0 L-210.0,-450.0 L-210.0,-420.0 L-180.0,-420.0 L-180.0,-390.0 L-150.0,-390.0 L-150.0,-420.0 L-150.0,-450.0 L-180.0,-450.0 L-210.0,-450.0 L-210.0,-420.0 L-240.0,-420.0 L-240.0,-390.0 L-210.0,-390.0 L-180.0,-390.0 L-180.0,-360.0 L-180.0,-330.0 L-150.0,-330.0 L-150.0,-300.0 L-120.0,-300.0 L-120.0,-330.0 L-120.0,-360.0 L-150.0,-360.0 L-180.0,-360.0 L-180.0,-330.0 L-210.0,-330.0 L-210.0,-300.0 L-180.0,-300.0 L-150.0,-300.0 L-150.0,-330.0 L-150.0,-360.0 L-180.0,-360.0 L-180.0,-390.0 L-210.0,-390.0 L-210.0,-360.0 L-210.0,-330.0 L-210.0,-300.0 L-210.0,-270.0 L-180.0,-270.0 L-180.0,-240.0 L-150.0,-240.0 L-150.0,-270.0 L-150.0,-300.0 L-150.0,-330.0 L-150.0,-360.0 L-180.0,-360.0 L-180.0,-390.0 L-210.0,-390.0 L-210.0,-360.0 L-210.0,-330.0 L-210.0,-300.0 L-210.0,-270.0 L-180.0,-270.0 L-180.0,-240.0 L-150.0,-240.0 L-150.0,-270.0 L-150.0,-300.0 L-180.0,-300.0 L-210.0,-300.0 L-210.0,-270.0 L-240.0,-270.0 L-240.0,-240.0 L-210.0,-240.0 L-180.0,-240.0 L-180.0,-210.0 L-180.0,-180.0 L-150.0,-180.0 L-150.0,-150.0 L-120.0,-150.0 L-120.0,-180.0 L-120.0,-210.0 L-150.0,-210.0 L-180.0,-210.0 L-180.0,-180.0 L-210.0,-180.0 L-210.0,-150.0 L-180.0,-150.0 L-150.0,-150.0 L-150.0,-180.0 L-150.0,-210.0 L-180.0,-210.0 L-180.0,-240.0 L-210.0,-240.0 L-210.0,-210.0 L-210.0,-180.0 L-210.0,-150.0 L-210.0,-120.0 L-180.0,-120.0 L-180.0,-90.0 L-150.0,-90.0 L-150.0,-120.0 L-150.0,-150.0 L-180.0,-150.0 L-210.0,-150.0 L-210.0,-120.0 L-240.0,-120.0 L-240.0,-90.0 L-210.0,-90.0 L-180.0,-90.0 L-150.0,-90.0 L-120.0,-90.0 L-120.0,-120.0 L-90.0,-120.0 L-90.0,-150.0 L-120.0,-150.0 L-150.0,-150.0 L-150.0,-120.0 L-150.0,-90.0 L-120.0,-90.0 L-120.0,-60.0 L-90.0,-60.0 L-90.0,-90.0 L-90.0,-120.0 L-60.0,-120.0 L-30.0,-120.0 L-30.0,-150.0 L0.0,-150.0 L0.0,-180.0 L-30.0,-180.0 L-60.0,-180.0 L-60.0,-150.0 L-60.0,-120.0 L-30.0,-120.0 L-30.0,-90.0 L0.0,-90.0 L0.0,-120.0 L0.0,-150.0 L-30.0,-150.0 L-60.0,-150.0 L-60.0,-120.0 L-90.0,-120.0 L-90.0,-90.0 L-60.0,-90.0 L-30.0,-90.0 L0.0,-90.0 L30.0,-90.0 L30.0,-120.0 L60.0,-120.0 L60.0,-150.0 L30.0,-150.0 L0.0,-150.0 L0.0,-180.0 L0.0,-210.0 L-30.0,-210.0 L-30.0,-240.0 L-60.0,-240.0 L-60.0,-210.0 L-60.0,-180.0 L-60.0,-150.0 L-60.0,-120.0 L-30.0,-120.0 L-30.0,-90.0 L0.0,-90.0 L0.0,-120.0 L0.0,-150.0 L-30.0,-150.0 L-60.0,-150.0 L-60.0,-120.0 L-90.0,-120.0 L-90.0,-90.0 L-60.0,-90.0 L-30.0,-90.0 L-30.0,-60.0 L-30.0,-30.0 L0.0,-30.0 L0.0,0.0 L30.0,0.0 L30.0,-30.0 L30.0,-60.0 L0.0,-60.0 L-30.0,-60.0 L-30.0,-30.0 L-60.0,-30.0 L-60.0,0.0 L-30.0,0.0 L0.0,0.0 L0.0,-30.0 L0.0,-60.0 L-30.0,-60.0 L-30.0,-90.0 L-60.0,-90.0 L-60.0,-60.0 L-60.0,-30.0 L-60.0,0.0 L-60.0,30.0 L-30.0,30.0 L-30.0,60.0 L0.0,60.0 L0.0,30.0 L0.0,0.0 L-30.0,0.0 L-60.0,0.0 L-60.0,30.0 L-90.0,30.0 L-90.0,60.0 L-60.0,60.0 L-30.0,60.0 L0.0,60.0 L30.0,60.0 L30.0,30.0 L60.0,30.0 L60.0,0.0 L30.0,0.0 L0.0,0.0 L0.0,30.0 L0.0,60.0 L30.0,60.0 L30.0,90.0 L60.0,90.0 L60.0,60.0 L60.0,30.0 L90.0,30.0 L120.0,30.0 L120.0,0.0 L150.0,0.0 L150.0,-30.0 L120.0,-30.0 L90.0,-30.0 L90.0,0.0 L90.0,30.0 L120.0,30.0 L120.0,60.0 L150.0,60.0 L150.0,30.0 L150.0,0.0 L120.0,0.0 L90.0,0.0 L90.0,30.0 L60.0,30.0 L60.0,60.0 L90.0,60.0 L120.0,60.0 L150.0,60.0 L180.0,60.0 L180.0,30.0 L210.0,30.0 L210.0,0.0 L180.0,0.0 L150.0,0.0 L150.0,30.0 L150.0,60.0 L180.0,60.0 L180.0,90.0 L210.0,90.0 L210.0,60.0 L210.0,30.0 L210.0,0.0 L210.0,-30.0 L180.0,-30.0 L180.0,-60.0 L150.0,-60.0 L150.0,-30.0 L150.0,0.0 L180.0,0.0 L210.0,0.0 L210.0,-30.0 L240.0,-30.0 L240.0,-60.0 L210.0,-60.0 L180.0,-60.0 L180.0,-90.0 L180.0,-120.0 L150.0,-120.0 L150.0,-150.0 L120.0,-150.0 L120.0,-120.0 L120.0,-90.0 L150.0,-90.0 L180.0,-90.0 L180.0,-120.0 L210.0,-120.0 L210.0,-150.0 L180.0,-150.0 L150.0,-150.0 L150.0,-120.0 L150.0,-90.0 L180.0,-90.0 L180.0,-60.0 L210.0,-60.0 L210.0,-90.0 L210.0,-120.0 L210.0,-150.0 L210.0,-180.0 L180.0,-180.0 L180.0,-210.0 L150.0,-210.0 L150.0,-180.0 L150.0,-150.0 L150.0,-120.0 L150.0,-90.0 L180.0,-90.0 L180.0,-60.0 L210.0,-60.0 L210.0,-90.0 L210.0,-120.0 L210.0,-150.0 L210.0,-180.0 L180.0,-180.0 L180.0,-210.0 L150.0,-210.0 L150.0,-180.0 L150.0,-150.0 L180.0,-150.0 L210.0,-150.0 L210.0,-180.0 L240.0,-180.0 L240.0,-210.0 L210.0,-210.0 L180.0,-210.0 L180.0,-240.0 L180.0,-270.0 L150.0,-270.0 L150.0,-300.0 L120.0,-300.0 L120.0,-270.0 L120.0,-240.0 L150.0,-240.0 L180.0,-240.0 L180.0,-270.0 L210.0,-270.0 L210.0,-300.0 L180.0,-300.0 L150.0,-300.0 L150.0,-270.0 L150.0,-240.0 L180.0,-240.0 L180.0,-210.0 L210.0,-210.0 L210.0,-240.0 L210.0,-270.0 L210.0,-300.0 L210.0,-330.0 L180.0,-330.0 L180.0,-360.0 L150.0,-360.0 L150.0,-330.0 L150.0,-300.0 L180.0,-300.0 L210.0,-300.0 L210.0,-330.0 L240.0,-330.0 L240.0,-360.0 L210.0,-360.0 L180.0,-360.0 L150.0,-360.0 L120.0,-360.0 L120.0,-330.0 L90.0,-330.0 L90.0,-300.0 L120.0,-300.0 L150.0,-300.0 L150.0,-330.0 L150.0,-360.0 L120.0,-360.0 L120.0,-390.0 L90.0,-390.0 L90.0,-360.0 L90.0,-330.0 L60.0,-330.0 L30.0,-330.0 L30.0,-300.0 L0.0,-300.0 L0.0,-270.0 L30.0,-270.0 L60.0,-270.0 L60.0,-300.0 L60.0,-330.0 L30.0,-330.0 L30.0,-360.0 L0.0,-360.0 L0.0,-330.0 L0.0,-300.0 L30.0,-300.0 L60.0,-300.0 L60.0,-330.0 L90.0,-330.0 L90.0,-360.0 L60.0,-360.0 L30.0,-360.0 L0.0,-360.0 L-30.0,-360.0 L-30.0,-330.0 L-60.0,-330.0 L-60.0,-300.0 L-30.0,-300.0 L0.0,-300.0 L30.0,-300.0 L60.0,-300.0 L60.0,-330.0 L90.0,-330.0 L90.0,-360.0 L60.0,-360.0 L30.0,-360.0 L0.0,-360.0 L-30.0,-360.0 L-30.0,-330.0 L-60.0,-330.0 L-60.0,-300.0 L-30.0,-300.0 L0.0,-300.0 L0.0,-330.0 L0.0,-360.0 L-30.0,-360.0 L-30.0,-390.0 L-60.0,-390.0 L-60.0,-360.0 L-60.0,-330.0 L-90.0,-330.0 L-120.0,-330.0 L-120.0,-300.0 L-150.0,-300.0 L-150.0,-270.0 L-120.0,-270.0 L-90.0,-270.0 L-90.0,-300.0 L-90.0,-330.0 L-120.0,-330.0 L-120.0,-360.0 L-150.0,-360.0 L-150.0,-330.0 L-150.0,-300.0 L-120.0,-300.0 L-90.0,-300.0 L-90.0,-330.0 L-60.0,-330.0 L-60.0,-360.0 L-90.0,-360.0 L-120.0,-360.0 L-150.0,-360.0 L-180.0,-360.0 L-180.0,-330.0 L-210.0,-330.0 L-210.0,-300.0 L-180.0,-300.0 L-150.0,-300.0 L-150.0,-330.0 L-150.0,-360.0 L-180.0,-360.0 L-180.0,-390.0 L-210.0,-390.0 L-210.0,-360.0 L-210.0,-330.0 L-210.0,-300.0 L-210.0,-270.0 L-180.0,-270.0 L-180.0,-240.0 L-150.0,-240.0 L-150.0,-270.0 L-150.0,-300.0 L-180.0,-300.0 L-210.0,-300.0 L-210.0,-270.0 L-240.0,-270.0 L-240.0,-240.0 L-210.0,-240.0 L-180.0,-240.0 L-180.0,-210.0 L-180.0,-180.0 L-150.0,-180.0 L-150.0,-150.0 L-120.0,-150.0 L-120.0,-180.0 L-120.0,-210.0 L-150.0,-210.0 L-180.0,-210.0 L-180.0,-180.0 L-210.0,-180.0 L-210.0,-150.0 L-180.0,-150.0 L-150.0,-150.0 L-150.0,-180.0 L-150.0,-210.0 L-180.0,-210.0 L-180.0,-240.0 L-210.0,-240.0 L-210.0,-210.0 L-210.0,-180.0 L-210.0,-150.0 L-210.0,-120.0 L-180.0,-120.0 L-180.0,-90.0 L-150.0,-90.0 L-150.0,-120.0 L-150.0,-150.0 L-120.0,-150.0 L-90.0,-150.0 L-90.0,-180.0 L-60.0,-180.0 L-60.0,-210.0 L-90.0,-210.0 L-120.0,-210.0 L-150.0,-210.0 L-180.0,-210.0 L-180.0,-180.0 L-210.0,-180.0 L-210.0,-150.0 L-180.0,-150.0 L-150.0,-150.0 L-150.0,-180.0 L-150.0,-210.0 L-180.0,-210.0 L-180.0,-240.0 L-210.0,-240.0 L-210.0,-210.0 L-210.0,-180.0 L-240.0,-180.0 L-270.0,-180.0 L-270.0,-150.0 L-300.0,-150.0 L-300.0,-120.0 L-270.0,-120.0 L-240.0,-120.0 L-240.0,-150.0 L-240.0,-180.0 L-270.0,-180.0 L-270.0,-210.0 L-300.0,-210.0 L-300.0,-180.0 L-300.0,-150.0 L-270.0,-150.0 L-240.0,-150.0 L-240.0,-180.0 L-210.0,-180.0 L-210.0,-210.0 L-240.0,-210.0 L-270.0,-210.0 L-300.0,-210.0 L-330.0,-210.0 L-330.0,-180.0 L-360.0,-180.0 L-360.0,-150.0 L-330.0,-150.0 L-300.0,-150.0 L-300.0,-180.0 L-300.0,-210.0 L-330.0,-210.0 L-330.0,-240.0 L-360.0,-240.0 L-360.0,-210.0 L-360.0,-180.0 L-360.0,-150.0 L-360.0,-120.0 L-330.0,-120.0 L-330.0,-90.0 L-300.0,-90.0 L-300.0,-120.0 L-300.0,-150.0 L-330.0,-150.0 L-360.0,-150.0 L-360.0,-120.0 L-390.0,-120.0 L-390.0,-90.0 L-360.0,-90.0 L-330.0,-90.0 L-330.0,-60.0 L-330.0,-30.0 L-300.0,-30.0 L-300.0,0.0 L-270.0,0.0 L-270.0,-30.0 L-270.0,-60.0 L-300.0,-60.0 L-330.0,-60.0 L-330.0,-30.0 L-360.0,-30.0 L-360.0,0.0 L-330.0,0.0 L-300.0,0.0 L-300.0,-30.0 L-300.0,-60.0 L-330.0,-60.0 L-330.0,-90.0 L-360.0,-90.0 L-360.0,-60.0 L-360.0,-30.0 L-360.0,0.0 L-360.0,30.0 L-330.0,30.0 L-330.0,60.0 L-300.0,60.0 L-300.0,30.0 L-300.0,0.0 L-330.0,0.0 L-360.0,0.0 L-360.0,30.0 L-390.0,30.0 L-390.0,60.0 L-360.0,60.0 L-330.0,60.0 L-300.0,60.0 L-270.0,60.0 L-270.0,30.0 L-240.0,30.0 L-240.0,0.0 L-270.0,0.0 L-300.0,0.0 L-300.0,30.0 L-300.0,60.0 L-270.0,60.0 L-270.0,90.0 L-240.0,90.0 L-240.0,60.0 L-240.0,30.0 L-210.0,30.0 L-180.0,30.0 L-180.0,0.0 L-150.0,0.0 L-150.0,-30.0 L-180.0,-30.0 L-210.0,-30.0 L-210.0,0.0 L-210.0,30.0 L-180.0,30.0 L-180.0,60.0 L-150.0,60.0 L-150.0,30.0 L-150.0,0.0 L-180.0,0.0 L-210.0,0.0 L-210.0,30.0 L-240.0,30.0 L-240.0,60.0 L-210.0,60.0 L-180.0,60.0 L-150.0,60.0 L-120.0,60.0 L-120.0,30.0 L-90.0,30.0 L-90.0,0.0 L-120.0,0.0 L-150.0,0.0 L-180.0,0.0 L-210.0,0.0 L-210.0,30.0 L-240.0,30.0 L-240.0,60.0 L-210.0,60.0 L-180.0,60.0 L-150.0,60.0 L-120.0,60.0 L-120.0,30.0 L-90.0,30.0 L-90.0,0.0 L-120.0,0.0 L-150.0,0.0 L-150.0,30.0 L-150.0,60.0 L-120.0,60.0 L-120.0,90.0 L-90.0,90.0 L-90.0,60.0 L-90.0,30.0 L-60.0,30.0 L-30.0,30.0 L-30.0,0.0 L0.0,0.0 L0.0,-30.0 L-30.0,-30.0 L-60.0,-30.0 L-60.0,0.0 L-60.0,30.0 L-30.0,30.0 L-30.0,60.0 L0.0,60.0 L0.0,30.0 L0.0,0.0 L-30.0,0.0 L-60.0,0.0 L-60.0,30.0 L-90.0,30.0 L-90.0,60.0 L-60.0,60.0 L-30.0,60.0 L0.0,60.0 L30.0,60.0 L30.0,30.0 L60.0,30.0 L60.0,0.0 L30.0,0.0 L0.0,0.0 " style="fill:none;stroke-width:3;stroke:red;"></path></g></svg>