<svg height="600" overflow="visible" preserveAspectRatio="xMidYMid meet" version="1.0" width="1000" xmlns:xlink="http://www.w3.org/1999/xlink" xmlns="http://www.w3.org/2000/svg" zoomAndPan="magnify"><g transform="translate(467.01031,467.01031) scale(0.61856,-0.61856)"><path d="M0.0,0.0 L0.0,15.0 M0.0,15.0 M-15.0,15.0 L-15.0,15.0 L-15.0,30.0 L-15.0,45.0 L-30.0,45.0 L-30.0,30.0 L-30.0,15.0 L-15.0,15.0 M-15.0,15.0 M0.0,15.0 L0.0,15.0 L0.0,30.0 L0.0,45.0 M0.0,45.0 M15.0,45.0 L15.0,45.0 L15.0,60.0 L15.0,75.0 L30.0,75.0 L30.0,60.0 L30.0,45.0 L15.0,45.0 M15.0,45.0 M0.0,45.0 L0.0,45.0 L0.0,60.0 L0.0,75.0 L0.0,90.0 M0.0,90.0 M-15.0,90.0 L-15.0,90.0 M-15.0,90.0 M-30.0,90.0 L-30.0,90.0 M-30.0,90.0 M-45.0,90.0 L-45.0,90.0 M-45.0,90.0 M-60.0,90.0 L-60.0,90.0 M-60.0,90.0 M-75.0,90.0 L-75.0,90.0 M-75.0,90.0 M-90.0,90.0 L-90.0,90.0 L-90.0,105.0 M-90.0,105.0 M-105.0,105.0 L-105.0,105.0 L-105.0,120.0 L-105.0,135.0 L-120.0,135.0 L-120.0,120.0 L-120.0,105.0 L-105.0,105.0 M-105.0,105.0 M-90.0,105.0 L-90.0,105.0 L-90.0,120.0 L-90.0,135.0 M-90.0,135.0 M-75.0,135.0 L-75.0,135.0 L-75.0,150.0 L-75.0,165.0 L-60.0,165.0 L-60.0,150.0 L-60.0,135.0 L-75.0,135.0 M-75.0,135.0 M-90.0,135.0 L-90.0,135.0 L-90.0,150.0 L-90.0,165.0 L-90.0,180.0 L-90.0,195.0 M-90.0,195.0 M-105.0,195.0 L-105.0,195.0 L-105.0,210.0 L-105.0,225.0 L-120.0,225.0 L-120.0,210.0 L-120.0,195.0 L-105.0,195.0 M-105.0,195.0 M-90.0,195.0 L-90.0,195.0 L-90.0,210.0 L-90.0,225.0 M-90.0,225.0 M-75.0,225.0 L-75.0,225.0 L-75.0,240.0 L-75.0,255.0 L-60.0,255.0 L-60.0,240.0 L-60.0,225.0 L-75.0,225.0 M-75.0,225.0 M-90.0,225.0 L-90.0,225.0 L-90.0,240.0 L-90.0,255.0 L-90.0,270.0 L-105.0,270.0 M-105.0,270.0 M-105.0,255.0 L-105.0,255.0 L-120.0,255.0 L-135.0,255.0 L-135.0,240.0 L-120.0,240.0 L-105.0,240.0 L-105.0,255.0 M-105.0,255.0 M-105.0,270.0 L-105.0,270.0 L-120.0,270.0 L-135.0,270.0 M-135.0,270.0 M-135.0,285.0 L-135.0,285.0 L-150.0,285.0 L-165.0,285.0 L-165.0,300.0 L-150.0,300.0 L-135.0,300.0 L-135.0,285.0 M-135.0,285.0 M-135.0,270.0 L-135.0,270.0 L-150.0,270.0 L-165.0,270.0 L-180.0,270.0 L-180.0,255.0 M-180.0,255.0 M-165.0,255.0 L-165.0,255.0 L-165.0,240.0 L-165.0,225.0 L-150.0,225.0 L-150.0,240.0 L-150.0,255.0 L-165.0,255.0 M-165.0,255.0 M-180.0,255.0 L-180.0,255.0 L-180.0,240.0 L-180.0,225.0 M-180.0,225.0 M-195.0,225.0 L-195.0,225.0 L-195.0,210.0 L-195.0,195.0 L-210.0,195.0 L-210.0,210.0 L-210.0,225.0 L-195.0,225.0 M-195.0,225.0 M-180.0,225.0 L-180.0,225.0 L-180.0,210.0 L-180.0,195.0 L-180.0,180.0 L-180.0,165.0 M-180.0,165.0 M-165.0,165.0 L-165.0,165.0 L-165.0,150.0 L-165.0,135.0 L-150.0,135.0 L-150.0,150.0 L-150.0,165.0 L-165.0,165.0 M-165.0,165.0 M-180.0,165.0 L-180.0,165.0 L-180.0,150.0 L-180.0,135.0 M-180.0,135.0 M-195.0,135.0 L-195.0,135.0 L-195.0,120.0 L-195.0,105.0 L-210.0,105.0 L-210.0,120.0 L-210.0,135.0 L-195.0,135.0 M-195.0,135.0 M-180.0,135.0 L-180.0,135.0 L-180.0,120.0 L-180.0,105.0 L-180.0,90.0 L-165.0,90.0 M-165.0,90.0 M-165.0,105.0 L-165.0,105.0 L-150.0,105.0 L-135.0,105.0 L-135.0,120.0 L-150.0,120.0 L-165.0,120.0 L-165.0,105.0 M-165.0,105.0 M-165.0,90.0 L-165.0,90.0 L-150.0,90.0 L-135.0,90.0 M-135.0,90.0 M-135.0,75.0 L-135.0,75.0 L-120.0,75.0 L-105.0,75.0 L-105.0,60.0 L-120.0,60.0 L-135.0,60.0 L-135.0,75.0 M-135.0,75.0 M-135.0,90.0 L-135.0,90.0 L-120.0,90.0 L-105.0,90.0 L-90.0,90.0 M-90.0,90.0 M-75.0,90.0 L-75.0,90.0 M-75.0,90.0 M-60.0,90.0 L-60.0,90.0 M-60.0,90.0 M-45.0,90.0 L-45.0,90.0 M-45.0,90.0 M-30.0,90.0 L-30.0,90.0 M-30.0,90.0 M-15.0,90.0 L-15.0,90.0 M-15.0,90.0 M0.0,90.0 L0.0,90.0 L0.0,105.0 M0.0,105.0 M-15.0,105.0 L-15.0,105.0 L-15.0,120.0 L-15.0,135.0 L-30.0,135.0 L-30.0,120.0 L-30.0,105.0 L-15.0,105.0 M-15.0,105.0 M0.0,105.0 L0.0,105.0 L0.0,120.0 L0.0,135.0 M0.0,135.0 M15.0,135.0 L15.0,135.0 L15.0,150.0 L15.0,165.0 L30.0,165.0 L30.0,150.0 L30.0,135.0 L15.0,135.0 M15.0,135.0 M0.0,135.0 L0.0,135.0 L0.0,150.0 L0.0,165.0 L0.0,180.0 L0.0,195.0 M0.0,195.0 M-15.0,195.0 L-15.0,195.0 L-15.0,210.0 L-15.0,225.0 L-30.0,225.0 L-30.0,210.0 L-30.0,195.0 L-15.0,195.0 M-15.0,195.0 M0.0,195.0 L0.0,195.0 L0.0,210.0 L0.0,225.0 M0.0,225.0 M15.0,225.0 L15.0,225.0 L15.0,240.0 L15.0,255.0 L30.0,255.0 L30.0,240.0 L30.0,225.0 L15.0,225.0 M15.0,225.0 M0.0,225.0 L0.0,225.0 L0.0,240.0 L0.0,255.0 L0.0,270.0 M0.0,270.0 M15.0,270.0 L15.0,270.0 M15.0,270.0 M30.0,270.0 L30.0,270.0 M30.0,270.0 M45.0,270.0 L45.0,270.0 M45.0,270.0 M60.0,270.0 L60.0,270.0 M60.0,270.0 M75.0,270.0 L75.0,270.0 M75.0,270.0 M90.0,270.0 L90.0,270.0 L90.0,285.0 M90.0,285.0 M75.0,285.0 L75.0,285.0 L75.0,300.0 L75.0,315.0 L60.0,315.0 L60.0,300.0 L60.0,285.0 L75.0,285.0 M75.0,285.0 M90.0,285.0 L90.0,285.0 L90.0,300.0 L90.0,315.0 M90.0,315.0 M105.0,315.0 L105.0,315.0 L105.0,330.0 L105.0,345.0 L120.0,345.0 L120.0,330.0 L120.0,315.0 L105.0,315.0 M105.0,315.0 M90.0,315.0 L90.0,315.0 L90.0,330.0 L90.0,345.0 L90.0,360.0 L90.0,375.0 M90.0,375.0 M75.0,375.0 L75.0,375.0 L75.0,390.0 L75.0,405.0 L60.0,405.0 L60.0,390.0 L60.0,375.0 L75.0,375.0 M75.0,375.0 M90.0,375.0 L90.0,375.0 L90.0,390.0 L90.0,405.0 M90.0,405.0 M105.0,405.0 L105.0,405.0 L105.0,420.0 L105.0,435.0 L120.0,435.0 L120.0,420.0 L120.0,405.0 L105.0,405.0 M105.0,405.0 M90.0,405.0 L90.0,405.0 L90.0,420.0 L90.0,435.0 L90.0,450.0 L105.0,450.0 M105.0,450.0 M105.0,465.0 L105.0,465.0 L120.0,465.0 L135.0,465.0 L135.0,480.0 L120.0,480.0 L105.0,480.0 L105.0,465.0 M105.0,465.0 M105.0,450.0 L105.0,450.0 L120.0,450.0 L135.0,450.0 M135.0,450.0 M135.0,435.0 L135.0,435.0 L150.0,435.0 L165.0,435.0 L165.0,420.0 L150.0,420.0 L135.0,420.0 L135.0,435.0 M135.0,435.0 M135.0,450.0 L135.0,450.0 L150.0,450.0 L165.0,450.0 L180.0,450.0 L180.0,435.0 M180.0,435.0 M195.0,435.0 L195.0,435.0 L195.0,420.0 L195.0,405.0 L210.0,405.0 L210.0,420.0 L210.0,435.0 L195.0,435.0 M195.0,435.0 M180.0,435.0 L180.0,435.0 L180.0,420.0 L180.0,405.0 M180.0,405.0 M165.0,405.0 L165.0,405.0 L165.0,390.0 L165.0,375.0 L150.0,375.0 L150.0,390.0 L150.0,405.0 L165.0,405.0 M165.0,405.0 M180.0,405.0 L180.0,405.0 L180.0,390.0 L180.0,375.0 L180.0,360.0 L180.0,345.0 M180.0,345.0 M195.0,345.0 L195.0,345.0 L195.0,330.0 L195.0,315.0 L210.0,315.0 L210.0,330.0 L210.0,345.0 L195.0,345.0 M195.0,345.0 M180.0,345.0 L180.0,345.0 L180.0,330.0 L180.0,315.0 M180.0,315.0 M165.0,315.0 L165.0,315.0 L165.0,300.0 L165.0,285.0 L150.0,285.0 L150.0,300.0 L150.0,315.0 L165.0,315.0 M165.0,315.0 M180.0,315.0 L180.0,315.0 L180.0,300.0 L180.0,285.0 L180.0,270.0 L165.0,270.0 M165.0,270.0 M165.0,255.0 L165.0,255.0 L150.0,255.0 L135.0,255.0 L135.0,240.0 L150.0,240.0 L165.0,240.0 L165.0,255.0 M165.0,255.0 M165.0,270.0 L165.0,270.0 L150.0,270.0 L135.0,270.0 M135.0,270.0 M135.0,285.0 L135.0,285.0 L120.0,285.0 L105.0,285.0 L105.0,300.0 L120.0,300.0 L135.0,300.0 L135.0,285.0 M135.0,285.0 M135.0,270.0 L135.0,270.0 L120.0,270.0 L105.0,270.0 L90.0,270.0 M90.0,270.0 M75.0,270.0 L75.0,270.0 M75.0,270.0 M60.0,270.0 L60.0,270.0 M60.0,270.0 M45.0,270.0 L45.0,270.0 M45.0,270.0 M30.0,270.0 L30.0,270.0 M30.0,270.0 M15.0,270.0 L15.0,270.0 M15.0,270.0 M0.0,270.0 L0.0,270.0 L0.0,285.0 M0.0,285.0 M-15.0,285.0 L-15.0,285.0 L-15.0,300.0 L-15.0,315.0 L-30.0,315.0 L-30.0,300.0 L-30.0,285.0 L-15.0,285.0 M-15.0,285.0 M0.0,285.0 L0.0,285.0 L0.0,300.0 L0.0,315.0 M0.0,315.0 M15.0,315.0 L15.0,315.0 L15.0,330.0 L15.0,345.0 L30.0,345.0 L30.0,330.0 L30.0,315.0 L15.0,315.0 M15.0,315.0 M0.0,315.0 L0.0,315.0 L0.0,330.0 L0.0,345.0 L0.0,360.0 L0.0,375.0 M0.0,375.0 M-15.0,375.0 L-15.0,375.0 L-15.0,390.0 L-15.0,405.0 L-30.0,405.0 L-30.0,390.0 L-30.0,375.0 L-15.0,375.0 M-15.0,375.0 M0.0,375.0 L0.0,375.0 L0.0,390.0 L0.0,405.0 M0.0,405.0 M15.0,405.0 L15.0,405.0 L15.0,420.0 L15.0,435.0 L30.0,435.0 L30.0,420.0 L30.0,405.0 L15.0,405.0 M15.0,405.0 M0.0,405.0 L0.0,405.0 L0.0,420.0 L0.0,435.0 L0.0,450.0 L0.0,465.0 M0.0,465.0 M-15.0,465.0 L-15.0,465.0 L-15.0,480.0 L-15.0,495.0 L-30.0,495.0 L-30.0,480.0 L-30.0,465.0 L-15.0,465.0 M-15.0,465.0 M0.0,465.0 L0.0,465.0 L0.0,480.0 L0.0,495.0 M0.0,495.0 M15.0,495.0 L15.0,495.0 L15.0,510.0 L15.0,525.0 L30.0,525.0 L30.0,510.0 L30.0,495.0 L15.0,495.0 M15.0,495.0 M0.0,495.0 L0.0,495.0 L0.0,510.0 L0.0,525.0 L0.0,540.0 L-15.0,540.0 M-15.0,540.0 M-15.0,525.0 L-15.0,525.0 L-30.0,525.0 L-45.0,525.0 L-45.0,510.0 L-30.0,510.0 L-15.0,510.0 L-15.0,525.0 M-15.0,525.0 M-15.0,540.0 L-15.0,540.0 L-30.0,540.0 L-45.0,540.0 M-45.0,540.0 M-45.0,555.0 L-45.0,555.0 L-60.0,555.0 L-75.0,555.0 L-75.0,570.0 L-60.0,570.0 L-45.0,570.0 L-45.0,555.0 M-45.0,555.0 M-45.0,540.0 L-45.0,540.0 L-60.0,540.0 L-75.0,540.0 L-90.0,540.0 M-90.0,540.0 M-90.0,525.0 L-90.0,525.0 M-90.0,525.0 M-90.0,510.0 L-90.0,510.0 M-90.0,510.0 M-90.0,495.0 L-90.0,495.0 M-90.0,495.0 M-90.0,480.0 L-90.0,480.0 M-90.0,480.0 M-90.0,465.0 L-90.0,465.0 M-90.0,465.0 M-90.0,450.0 L-90.0,450.0 L-105.0,450.0 M-105.0,450.0 M-105.0,435.0 L-105.0,435.0 L-120.0,435.0 L-135.0,435.0 L-135.0,420.0 L-120.0,420.0 L-105.0,420.0 L-105.0,435.0 M-105.0,435.0 M-105.0,450.0 L-105.0,450.0 L-120.0,450.0 L-135.0,450.0 M-135.0,450.0 M-135.0,465.0 L-135.0,465.0 L-150.0,465.0 L-165.0,465.0 L-165.0,480.0 L-150.0,480.0 L-135.0,480.0 L-135.0,465.0 M-135.0,465.0 M-135.0,450.0 L-135.0,450.0 L-150.0,450.0 L-165.0,450.0 L-180.0,450.0 L-195.0,450.0 M-195.0,450.0 M-195.0,435.0 L-195.0,435.0 L-210.0,435.0 L-225.0,435.0 L-225.0,420.0 L-210.0,420.0 L-195.0,420.0 L-195.0,435.0 M-195.0,435.0 M-195.0,450.0 L-195.0,450.0 L-210.0,450.0 L-225.0,450.0 M-225.0,450.0 M-225.0,465.0 L-225.0,465.0 L-240.0,465.0 L-255.0,465.0 L-255.0,480.0 L-240.0,480.0 L-225.0,480.0 L-225.0,465.0 M-225.0,465.0 M-225.0,450.0 L-225.0,450.0 L-240.0,450.0 L-255.0,450.0 L-270.0,450.0 L-270.0,435.0 M-270.0,435.0 M-255.0,435.0 L-255.0,435.0 L-255.0,420.0 L-255.0,405.0 L-240.0,405.0 L-240.0,420.0 L-240.0,435.0 L-255.0,435.0 M-255.0,435.0 M-270.0,435.0 L-270.0,435.0 L-270.0,420.0 L-270.0,405.0 M-270.0,405.0 M-285.0,405.0 L-285.0,405.0 L-285.0,390.0 L-285.0,375.0 L-300.0,375.0 L-300.0,390.0 L-300.0,405.0 L-285.0,405.0 M-285.0,405.0 M-270.0,405.0 L-270.0,405.0 L-270.0,390.0 L-270.0,375.0 L-270.0,360.0 L-255.0,360.0 M-255.0,360.0 M-255.0,375.0 L-255.0,375.0 L-240.0,375.0 L-225.0,375.0 L-225.0,390.0 L-240.0,390.0 L-255.0,390.0 L-255.0,375.0 M-255.0,375.0 M-255.0,360.0 L-255.0,360.0 L-240.0,360.0 L-225.0,360.0 M-225.0,360.0 M-225.0,345.0 L-225.0,345.0 L-210.0,345.0 L-195.0,345.0 L-195.0,330.0 L-210.0,330.0 L-225.0,330.0 L-225.0,345.0 M-225.0,345.0 M-225.0,360.0 L-225.0,360.0 L-210.0,360.0 L-195.0,360.0 L-180.0,360.0 L-165.0,360.0 M-165.0,360.0 M-165.0,375.0 L-165.0,375.0 L-150.0,375.0 L-135.0,375.0 L-135.0,390.0 L-150.0,390.0 L-165.0,390.0 L-165.0,375.0 M-165.0,375.0 M-165.0,360.0 L-165.0,360.0 L-150.0,360.0 L-135.0,360.0 M-135.0,360.0 M-135.0,345.0 L-135.0,345.0 L-120.0,345.0 L-105.0,345.0 L-105.0,330.0 L-120.0,330.0 L-135.0,330.0 L-135.0,345.0 M-135.0,345.0 M-135.0,360.0 L-135.0,360.0 L-120.0,360.0 L-105.0,360.0 L-90.0,360.0 L-90.0,375.0 M-90.0,375.0 M-105.0,375.0 L-105.0,375.0 L-105.0,390.0 L-105.0,405.0 L-120.0,405.0 L-120.0,390.0 L-120.0,375.0 L-105.0,375.0 M-105.0,375.0 M-90.0,375.0 L-90.0,375.0 L-90.0,390.0 L-90.0,405.0 M-90.0,405.0 M-75.0,405.0 L-75.0,405.0 L-75.0,420.0 L-75.0,435.0 L-60.0,435.0 L-60.0,420.0 L-60.0,405.0 L-75.0,405.0 M-75.0,405.0 M-90.0,405.0 L-90.0,405.0 L-90.0,420.0 L-90.0,435.0 L-90.0,450.0 M-90.0,450.0 M-90.0,465.0 L-90.0,465.0 M-90.0,465.0 M-90.0,480.0 L-90.0,480.0 M-90.0,480.0 M-90.0,495.0 L-90.0,495.0 M-90.0,495.0 M-90.0,510.0 L-90.0,510.0 M-90.0,510.0 M-90.0,525.0 L-90.0,525.0 M-90.0,525.0 M-90.0,540.0 L-90.0,540.0 L-105.0,540.0 M-105.0,540.0 M-105.0,525.0 L-105.0,525.0 L-120.0,525.0 L-135.0,525.0 L-135.0,510.0 L-120.0,510.0 L-105.0,510.0 L-105.0,525.0 M-105.0,525.0 M-105.0,540.0 L-105.0,540.0 L-120.0,540.0 L-135.0,540.0 M-135.0,540.0 M-135.0,555.0 L-135.0,555.0 L-150.0,555.0 L-165.0,555.0 L-165.0,570.0 L-150.0,570.0 L-135.0,570.0 L-135.0,555.0 M-135.0,555.0 M-135.0,540.0 L-135.0,540.0 L-150.0,540.0 L-165.0,540.0 L-180.0,540.0 L-195.0,540.0 M-195.0,540.0 M-195.0,525.0 L-195.0,525.0 L-210.0,525.0 L-225.0,525.0 L-225.0,510.0 L-210.0,510.0 L-195.0,510.0 L-195.0,525.0 M-195.0,525.0 M-195.0,540.0 L-195.0,540.0 L-210.0,540.0 L-225.0,540.0 M-225.0,540.0 M-225.0,555.0 L-225.0,555.0 L-240.0,555.0 L-255.0,555.0 L-255.0,570.0 L-240.0,570.0 L-225.0,570.0 L-225.0,555.0 M-225.0,555.0 M-225.0,540.0 L-225.0,540.0 L-240.0,540.0 L-255.0,540.0 L-270.0,540.0 M-270.0,540.0 M-270.0,555.0 L-270.0,555.0 M-270.0,555.0 M-270.0,570.0 L-270.0,570.0 M-270.0,570.0 M-270.0,585.0 L-270.0,585.0 M-270.0,585.0 M-270.0,600.0 L-270.0,600.0 M-270.0,600.0 M-270.0,615.0 L-270.0,615.0 M-270.0,615.0 M-270.0,630.0 L-270.0,630.0 L-285.0,630.0 M-285.0,630.0 M-285.0,615.0 L-285.0,615.0 L-300.0,615.0 L-315.0,615.0 L-315.0,600.0 L-300.0,600.0 L-285.0,600.0 L-285.0,615.0 M-285.0,615.0 M-285.0,630.0 L-285.0,630.0 L-300.0,630.0 L-315.0,630.0 M-315.0,630.0 M-315.0,645.0 L-315.0,645.0 L-330.0,645.0 L-345.0,645.0 L-345.0,660.0 L-330.0,660.0 L-315.0,660.0 L-315.0,645.0 M-315.0,645.0 M-315.0,630.0 L-315.0,630.0 L-330.0,630.0 L-345.0,630.0 L-360.0,630.0 L-375.0,630.0 M-375.0,630.0 M-375.0,615.0 L-375.0,615.0 L-390.0,615.0 L-405.0,615.0 L-405.0,600.0 L-390.0,600.0 L-375.0,600.0 L-375.0,615.0 M-375.0,615.0 M-375.0,630.0 L-375.0,630.0 L-390.0,630.0 L-405.0,630.0 M-405.0,630.0 M-405.0,645.0 L-405.0,645.0 L-420.0,645.0 L-435.0,645.0 L-435.0,660.0 L-420.0,660.0 L-405.0,660.0 L-405.0,645.0 M-405.0,645.0 M-405.0,630.0 L-405.0,630.0 L-420.0,630.0 L-435.0,630.0 L-450.0,630.0 L-450.0,645.0 M-450.0,645.0 M-465.0,645.0 L-465.0,645.0 L-465.0,660.0 L-465.0,675.0 L-480.0,675.0 L-480.0,660.0 L-480.0,645.0 L-465.0,645.0 M-465.0,645.0 M-450.0,645.0 L-450.0,645.0 L-450.0,660.0 L-450.0,675.0 M-450.0,675.0 M-435.0,675.0 L-435.0,675.0 L-435.0,690.0 L-435.0,705.0 L-420.0,705.0 L-420.0,690.0 L-420.0,675.0 L-435.0,675.0 M-435.0,675.0 M-450.0,675.0 L-450.0,675.0 L-450.0,690.0 L-450.0,705.0 L-450.0,720.0 L-435.0,720.0 M-435.0,720.0 M-435.0,735.0 L-435.0,735.0 L-420.0,735.0 L-405.0,735.0 L-405.0,750.0 L-420.0,750.0 L-435.0,750.0 L-435.0,735.0 M-435.0,735.0 M-435.0,720.0 L-435.0,720.0 L-420.0,720.0 L-405.0,720.0 M-405.0,720.0 M-405.0,705.0 L-405.0,705.0 L-390.0,705.0 L-375.0,705.0 L-375.0,690.0 L-390.0,690.0 L-405.0,690.0 L-405.0,705.0 M-405.0,705.0 M-405.0,720.0 L-405.0,720.0 L-390.0,720.0 L-375.0,720.0 L-360.0,720.0 L-345.0,720.0 M-345.0,720.0 M-345.0,735.0 L-345.0,735.0 L-330.0,735.0 L-315.0,735.0 L-315.0,750.0 L-330.0,750.0 L-345.0,750.0 L-345.0,735.0 M-345.0,735.0 M-345.0,720.0 L-345.0,720.0 L-330.0,720.0 L-315.0,720.0 M-315.0,720.0 M-315.0,705.0 L-315.0,705.0 L-300.0,705.0 L-285.0,705.0 L-285.0,690.0 L-300.0,690.0 L-315.0,690.0 L-315.0,705.0 M-315.0,705.0 M-315.0,720.0 L-315.0,720.0 L-300.0,720.0 L-285.0,720.0 L-270.0,720.0 L-270.0,705.0 M-270.0,705.0 M-255.0,705.0 L-255.0,705.0 L-255.0,690.0 L-255.0,675.0 L-240.0,675.0 L-240.0,690.0 L-240.0,705.0 L-255.0,705.0 M-255.0,705.0 M-270.0,705.0 L-270.0,705.0 L-270.0,690.0 L-270.0,675.0 M-270.0,675.0 M-285.0,675.0 L-285.0,675.0 L-285.0,660.0 L-285.0,645.0 L-300.0,645.0 L-300.0,660.0 L-300.0,675.0 L-285.0,675.0 M-285.0,675.0 M-270.0,675.0 L-270.0,675.0 L-270.0,660.0 L-270.0,645.0 L-270.0,630.0 M-270.0,630.0 M-270.0,615.0 L-270.0,615.0 M-270.0,615.0 M-270.0,600.0 L-270.0,600.0 M-270.0,600.0 M-270.0,585.0 L-270.0,585.0 M-270.0,585.0 M-270.0,570.0 L-270.0,570.0 M-270.0,570.0 M-270.0,555.0 L-270.0,555.0 M-270.0,555.0 M-270.0,540.0 L-270.0,540.0 L-285.0,540.0 M-285.0,540.0 M-285.0,525.0 L-285.0,525.0 L-300.0,525.0 L-315.0,525.0 L-315.0,510.0 L-300.0,510.0 L-285.0,510.0 L-285.0,525.0 M-285.0,525.0 M-285.0,540.0 L-285.0,540.0 L-300.0,540.0 L-315.0,540.0 M-315.0,540.0 M-315.0,555.0 L-315.0,555.0 L-330.0,555.0 L-345.0,555.0 L-345.0,570.0 L-330.0,570.0 L-315.0,570.0 L-315.0,555.0 M-315.0,555.0 M-315.0,540.0 L-315.0,540.0 L-330.0,540.0 L-345.0,540.0 L-360.0,540.0 L-375.0,540.0 M-375.0,540.0 M-375.0,525.0 L-375.0,525.0 L-390.0,525.0 L-405.0,525.0 L-405.0,510.0 L-390.0,510.0 L-375.0,510.0 L-375.0,525.0 M-375.0,525.0 M-375.0,540.0 L-375.0,540.0 L-390.0,540.0 L-405.0,540.0 M-405.0,540.0 M-405.0,555.0 L-405.0,555.0 L-420.0,555.0 L-435.0,555.0 L-435.0,570.0 L-420.0,570.0 L-405.0,570.0 L-405.0,555.0 M-405.0,555.0 M-405.0,540.0 L-405.0,540.0 L-420.0,540.0 L-435.0,540.0 L-450.0,540.0 L-465.0,540.0 M-465.0,540.0 M-465.0,525.0 L-465.0,525.0 L-480.0,525.0 L-495.0,525.0 L-495.0,510.0 L-480.0,510.0 L-465.0,510.0 L-465.0,525.0 M-465.0,525.0 M-465.0,540.0 L-465.0,540.0 L-480.0,540.0 L-495.0,540.0 M-495.0,540.0 M-495.0,555.0 L-495.0,555.0 L-510.0,555.0 L-525.0,555.0 L-525.0,570.0 L-510.0,570.0 L-495.0,570.0 L-495.0,555.0 M-495.0,555.0 M-495.0,540.0 L-495.0,540.0 L-510.0,540.0 L-525.0,540.0 L-540.0,540.0 L-540.0,525.0 M-540.0,525.0 M-525.0,525.0 L-525.0,525.0 L-525.0,510.0 L-525.0,495.0 L-510.0,495.0 L-510.0,510.0 L-510.0,525.0 L-525.0,525.0 M-525.0,525.0 M-540.0,525.0 L-540.0,525.0 L-540.0,510.0 L-540.0,495.0 M-540.0,495.0 M-555.0,495.0 L-555.0,495.0 L-555.0,480.0 L-555.0,465.0 L-570.0,465.0 L-570.0,480.0 L-570.0,495.0 L-555.0,495.0 M-555.0,495.0 M-540.0,495.0 L-540.0,495.0 L-540.0,480.0 L-540.0,465.0 L-540.0,450.0 M-540.0,450.0 M-525.0,450.0 L-525.0,450.0 M-525.0,450.0 M-510.0,450.0 L-510.0,450.0 M-510.0,450.0 M-495.0,450.0 L-495.0,450.0 M-495.0,450.0 M-480.0,450.0 L-480.0,450.0 M-480.0,450.0 M-465.0,450.0 L-465.0,450.0 M-465.0,450.0 M-450.0,450.0 L-450.0,450.0 L-450.0,435.0 M-450.0,435.0 M-435.0,435.0 L-435.0,435.0 L-435.0,420.0 L-435.0,405.0 L-420.0,405.0 L-420.0,420.0 L-420.0,435.0 L-435.0,435.0 M-435.0,435.0 M-450.0,435.0 L-450.0,435.0 L-450.0,420.0 L-450.0,405.0 M-450.0,405.0 M-465.0,405.0 L-465.0,405.0 L-465.0,390.0 L-465.0,375.0 L-480.0,375.0 L-480.0,390.0 L-480.0,405.0 L-465.0,405.0 M-465.0,405.0 M-450.0,405.0 L-450.0,405.0 L-450.0,390.0 L-450.0,375.0 L-450.0,360.0 L-450.0,345.0 M-450.0,345.0 M-435.0,345.0 L-435.0,345.0 L-435.0,330.0 L-435.0,315.0 L-420.0,315.0 L-420.0,330.0 L-420.0,345.0 L-435.0,345.0 M-435.0,345.0 M-450.0,345.0 L-450.0,345.0 L-450.0,330.0 L-450.0,315.0 M-450.0,315.0 M-465.0,315.0 L-465.0,315.0 L-465.0,300.0 L-465.0,285.0 L-480.0,285.0 L-480.0,300.0 L-480.0,315.0 L-465.0,315.0 M-465.0,315.0 M-450.0,315.0 L-450.0,315.0 L-450.0,300.0 L-450.0,285.0 L-450.0,270.0 L-435.0,270.0 M-435.0,270.0 M-435.0,285.0 L-435.0,285.0 L-420.0,285.0 L-405.0,285.0 L-405.0,300.0 L-420.0,300.0 L-435.0,300.0 L-435.0,285.0 M-435.0,285.0 M-435.0,270.0 L-435.0,270.0 L-420.0,270.0 L-405.0,270.0 M-405.0,270.0 M-405.0,255.0 L-405.0,255.0 L-390.0,255.0 L-375.0,255.0 L-375.0,240.0 L-390.0,240.0 L-405.0,240.0 L-405.0,255.0 M-405.0,255.0 M-405.0,270.0 L-405.0,270.0 L-390.0,270.0 L-375.0,270.0 L-360.0,270.0 L-360.0,285.0 M-360.0,285.0 M-375.0,285.0 L-375.0,285.0 L-375.0,300.0 L-375.0,315.0 L-390.0,315.0 L-390.0,300.0 L-390.0,285.0 L-375.0,285.0 M-375.0,285.0 M-360.0,285.0 L-360.0,285.0 L-360.0,300.0 L-360.0,315.0 M-360.0,315.0 M-345.0,315.0 L-345.0,315.0 L-345.0,330.0 L-345.0,345.0 L-330.0,345.0 L-330.0,330.0 L-330.0,315.0 L-345.0,315.0 M-345.0,315.0 M-360.0,315.0 L-360.0,315.0 L-360.0,330.0 L-360.0,345.0 L-360.0,360.0 L-360.0,375.0 M-360.0,375.0 M-375.0,375.0 L-375.0,375.0 L-375.0,390.0 L-375.0,405.0 L-390.0,405.0 L-390.0,390.0 L-390.0,375.0 L-375.0,375.0 M-375.0,375.0 M-360.0,375.0 L-360.0,375.0 L-360.0,390.0 L-360.0,405.0 M-360.0,405.0 M-345.0,405.0 L-345.0,405.0 L-345.0,420.0 L-345.0,435.0 L-330.0,435.0 L-330.0,420.0 L-330.0,405.0 L-345.0,405.0 M-345.0,405.0 M-360.0,405.0 L-360.0,405.0 L-360.0,420.0 L-360.0,435.0 L-360.0,450.0 L-375.0,450.0 M-375.0,450.0 M-375.0,435.0 L-375.0,435.0 L-390.0,435.0 L-405.0,435.0 L-405.0,420.0 L-390.0,420.0 L-375.0,420.0 L-375.0,435.0 M-375.0,435.0 M-375.0,450.0 L-375.0,450.0 L-390.0,450.0 L-405.0,450.0 M-405.0,450.0 M-405.0,465.0 L-405.0,465.0 L-420.0,465.0 L-435.0,465.0 L-435.0,480.0 L-420.0,480.0 L-405.0,480.0 L-405.0,465.0 M-405.0,465.0 M-405.0,450.0 L-405.0,450.0 L-420.0,450.0 L-435.0,450.0 L-450.0,450.0 M-450.0,450.0 M-465.0,450.0 L-465.0,450.0 M-465.0,450.0 M-480.0,450.0 L-480.0,450.0 M-480.0,450.0 M-495.0,450.0 L-495.0,450.0 M-495.0,450.0 M-510.0,450.0 L-510.0,450.0 M-510.0,450.0 M-525.0,450.0 L-525.0,450.0 M-525.0,450.0 M-540.0,450.0 L-540.0,450.0 L-540.0,435.0 M-540.0,435.0 M-525.0,435.0 L-525.0,435.0 L-525.0,420.0 L-525.0,405.0 L-510.0,405.0 L-510.0,420.0 L-510.0,435.0 L-525.0,435.0 M-525.0,435.0 M-540.0,435.0 L-540.0,435.0 L-540.0,420.0 L-540.0,405.0 M-540.0,405.0 M-555.0,405.0 L-555.0,405.0 L-555.0,390.0 L-555.0,375.0 L-570.0,375.0 L-570.0,390.0 L-570.0,405.0 L-555.0,405.0 M-555.0,405.0 M-540.0,405.0 L-540.0,405.0 L-540.0,390.0 L-540.0,375.0 L-540.0,360.0 L-540.0,345.0 M-540.0,345.0 M-525.0,345.0 L-525.0,345.0 L-525.0,330.0 L-525.0,315.0 L-510.0,315.0 L-510.0,330.0 L-510.0,345.0 L-525.0,345.0 M-525.0,345.0 M-540.0,345.0 L-540.0,345.0 L-540.0,330.0 L-540.0,315.0 M-540.0,315.0 M-555.0,315.0 L-555.0,315.0 L-555.0,300.0 L-555.0,285.0 L-570.0,285.0 L-570.0,300.0 L-570.0,315.0 L-555.0,315.0 M-555.0,315.0 M-540.0,315.0 L-540.0,315.0 L-540.0,300.0 L-540.0,285.0 L-540.0,270.0 M-540.0,270.0 M-555.0,270.0 L-555.0,270.0 M-555.0,270.0 M-570.0,270.0 L-570.0,270.0 M-570.0,270.0 M-585.0,270.0 L-585.0,270.0 M-585.0,270.0 M-600.0,270.0 L-600.0,270.0 M-600.0,270.0 M-615.0,270.0 L-615.0,270.0 M-615.0,270.0 M-630.0,270.0 L-630.0,270.0 L-630.0,255.0 M-630.0,255.0 M-615.0,255.0 L-615.0,255.0 L-615.0,240.0 L-615.0,225.0 L-600.0,225.0 L-600.0,240.0 L-600.0,255.0 L-615.0,255.0 M-615.0,255.0 M-630.0,255.0 L-630.0,255.0 L-630.0,240.0 L-630.0,225.0 M-630.0,225.0 M-645.0,225.0 L-645.0,225.0 L-645.0,210.0 L-645.0,195.0 L-660.0,195.0 L-660.0,210.0 L-660.0,225.0 L-645.0,225.0 M-645.0,225.0 M-630.0,225.0 L-630.0,225.0 L-630.0,210.0 L-630.0,195.0 L-630.0,180.0 L-630.0,165.0 M-630.0,165.0 M-615.0,165.0 L-615.0,165.0 L-615.0,150.0 L-615.0,135.0 L-600.0,135.0 L-600.0,150.0 L-600.0,165.0 L-615.0,165.0 M-615.0,165.0 M-630.0,165.0 L-630.0,165.0 L-630.0,150.0 L-630.0,135.0 M-630.0,135.0 M-645.0,135.0 L-645.0,135.0 L-645.0,120.0 L-645.0,105.0 L-660.0,105.0 L-660.0,120.0 L-660.0,135.0 L-645.0,135.0 M-645.0,135.0 M-630.0,135.0 L-630.0,135.0 L-630.0,120.0 L-630.0,105.0 L-630.0,90.0 L-645.0,90.0 M-645.0,90.0 M-645.0,75.0 L-645.0,75.0 L-660.0,75.0 L-675.0,75.0 L-675.0,60.0 L-660.0,60.0 L-645.0,60.0 L-645.0,75.0 M-645.0,75.0 M-645.0,90.0 L-645.0,90.0 L-660.0,90.0 L-675.0,90.0 M-675.0,90.0 M-675.0,105.0 L-675.0,105.0 L-690.0,105.0 L-705.0,105.0 L-705.0,120.0 L-690.0,120.0 L-675.0,120.0 L-675.0,105.0 M-675.0,105.0 M-675.0,90.0 L-675.0,90.0 L-690.0,90.0 L-705.0,90.0 L-720.0,90.0 L-720.0,105.0 M-720.0,105.0 M-735.0,105.0 L-735.0,105.0 L-735.0,120.0 L-735.0,135.0 L-750.0,135.0 L-750.0,120.0 L-750.0,105.0 L-735.0,105.0 M-735.0,105.0 M-720.0,105.0 L-720.0,105.0 L-720.0,120.0 L-720.0,135.0 M-720.0,135.0 M-705.0,135.0 L-705.0,135.0 L-705.0,150.0 L-705.0,165.0 L-690.0,165.0 L-690.0,150.0 L-690.0,135.0 L-705.0,135.0 M-705.0,135.0 M-720.0,135.0 L-720.0,135.0 L-720.0,150.0 L-720.0,165.0 L-720.0,180.0 L-720.0,195.0 M-720.0,195.0 M-735.0,195.0 L-735.0,195.0 L-735.0,210.0 L-735.0,225.0 L-750.0,225.0 L-750.0,210.0 L-750.0,195.0 L-735.0,195.0 M-735.0,195.0 M-720.0,195.0 L-720.0,195.0 L-720.0,210.0 L-720.0,225.0 M-720.0,225.0 M-705.0,225.0 L-705.0,225.0 L-705.0,240.0 L-705.0,255.0 L-690.0,255.0 L-690.0,240.0 L-690.0,225.0 L-705.0,225.0 M-705.0,225.0 M-720.0,225.0 L-720.0,225.0 L-720.0,240.0 L-720.0,255.0 L-720.0,270.0 L-705.0,270.0 M-705.0,270.0 M-705.0,285.0 L-705.0,285.0 L-690.0,285.0 L-675.0,285.0 L-675.0,300.0 L-690.0,300.0 L-705.0,300.0 L-705.0,285.0 M-705.0,285.0 M-705.0,270.0 L-705.0,270.0 L-690.0,270.0 L-675.0,270.0 M-675.0,270.0 M-675.0,255.0 L-675.0,255.0 L-660.0,255.0 L-645.0,255.0 L-645.0,240.0 L-660.0,240.0 L-675.0,240.0 L-675.0,255.0 M-675.0,255.0 M-675.0,270.0 L-675.0,270.0 L-660.0,270.0 L-645.0,270.0 L-630.0,270.0 M-630.0,270.0 M-615.0,270.0 L-615.0,270.0 M-615.0,270.0 M-600.0,270.0 L-600.0,270.0 M-600.0,270.0 M-585.0,270.0 L-585.0,270.0 M-585.0,270.0 M-570.0,270.0 L-570.0,270.0 M-570.0,270.0 M-555.0,270.0 L-555.0,270.0 M-555.0,270.0 M-540.0,270.0 L-540.0,270.0 L-540.0,255.0 M-540.0,255.0 M-525.0,255.0 L-525.0,255.0 L-525.0,240.0 L-525.0,225.0 L-510.0,225.0 L-510.0,240.0 L-510.0,255.0 L-525.0,255.0 M-525.0,255.0 M-540.0,255.0 L-540.0,255.0 L-540.0,240.0 L-540.0,225.0 M-540.0,225.0 M-555.0,225.0 L-555.0,225.0 L-555.0,210.0 L-555.0,195.0 L-570.0,195.0 L-570.0,210.0 L-570.0,225.0 L-555.0,225.0 M-555.0,225.0 M-540.0,225.0 L-540.0,225.0 L-540.0,210.0 L-540.0,195.0 L-540.0,180.0 L-540.0,165.0 M-540.0,165.0 M-525.0,165.0 L-525.0,165.0 L-525.0,150.0 L-525.0,135.0 L-510.0,135.0 L-510.0,150.0 L-510.0,165.0 L-525.0,165.0 M-525.0,165.0 M-540.0,165.0 L-540.0,165.0 L-540.0,150.0 L-540.0,135.0 M-540.0,135.0 M-555.0,135.0 L-555.0,135.0 L-555.0,120.0 L-555.0,105.0 L-570.0,105.0 L-570.0,120.0 L-570.0,135.0 L-555.0,135.0 M-555.0,135.0 M-540.0,135.0 L-540.0,135.0 L-540.0,120.0 L-540.0,105.0 L-540.0,90.0 L-540.0,75.0 M-540.0,75.0 M-525.0,75.0 L-525.0,75.0 L-525.0,60.0 L-525.0,45.0 L-510.0,45.0 L-510.0,60.0 L-510.0,75.0 L-525.0,75.0 M-525.0,75.0 M-540.0,75.0 L-540.0,75.0 L-540.0,60.0 L-540.0,45.0 M-540.0,45.0 M-555.0,45.0 L-555.0,45.0 L-555.0,30.0 L-555.0,15.0 L-570.0,15.0 L-570.0,30.0 L-570.0,45.0 L-555.0,45.0 M-555.0,45.0 M-540.0,45.0 L-540.0,45.0 L-540.0,30.0 L-540.0,15.0 L-540.0,0.0 L-525.0,0.0 M-525.0,0.0 M-525.0,15.0 L-525.0,15.0 L-510.0,15.0 L-495.0,15.0 L-495.0,30.0 L-510.0,30.0 L-525.0,30.0 L-525.0,15.0 M-525.0,15.0 M-525.0,0.0 L-525.0,0.0 L-510.0,0.0 L-495.0,0.0 M-495.0,0.0 M-495.0,-15.0 L-495.0,-15.0 L-480.0,-15.0 L-465.0,-15.0 L-465.0,-30.0 L-480.0,-30.0 L-495.0,-30.0 L-495.0,-15.0 M-495.0,-15.0 M-495.0,0.0 L-495.0,0.0 L-480.0,0.0 L-465.0,0.0 L-450.0,0.0 M-450.0,0.0 M-450.0,15.0 L-450.0,15.0 M-450.0,15.0 M-450.0,30.0 L-450.0,30.0 M-450.0,30.0 M-450.0,45.0 L-450.0,45.0 M-450.0,45.0 M-450.0,60.0 L-450.0,60.0 M-450.0,60.0 M-450.0,75.0 L-450.0,75.0 M-450.0,75.0 M-450.0,90.0 L-450.0,90.0 L-435.0,90.0 M-435.0,90.0 M-435.0,105.0 L-435.0,105.0 L-420.0,105.0 L-405.0,105.0 L-405.0,120.0 L-420.0,120.0 L-435.0,120.0 L-435.0,105.0 M-435.0,105.0 M-435.0,90.0 L-435.0,90.0 L-420.0,90.0 L-405.0,90.0 M-405.0,90.0 M-405.0,75.0 L-405.0,75.0 L-390.0,75.0 L-375.0,75.0 L-375.0,60.0 L-390.0,60.0 L-405.0,60.0 L-405.0,75.0 M-405.0,75.0 M-405.0,90.0 L-405.0,90.0 L-390.0,90.0 L-375.0,90.0 L-360.0,90.0 L-345.0,90.0 M-345.0,90.0 M-345.0,105.0 L-345.0,105.0 L-330.0,105.0 L-315.0,105.0 L-315.0,120.0 L-330.0,120.0 L-345.0,120.0 L-345.0,105.0 M-345.0,105.0 M-345.0,90.0 L-345.0,90.0 L-330.0,90.0 L-315.0,90.0 M-315.0,90.0 M-315.0,75.0 L-315.0,75.0 L-300.0,75.0 L-285.0,75.0 L-285.0,60.0 L-300.0,60.0 L-315.0,60.0 L-315.0,75.0 M-315.0,75.0 M-315.0,90.0 L-315.0,90.0 L-300.0,90.0 L-285.0,90.0 L-270.0,90.0 L-270.0,105.0 M-270.0,105.0 M-285.0,105.0 L-285.0,105.0 L-285.0,120.0 L-285.0,135.0 L-300.0,135.0 L-300.0,120.0 L-300.0,105.0 L-285.0,105.0 M-285.0,105.0 M-270.0,105.0 L-270.0,105.0 L-270.0,120.0 L-270.0,135.0 M-270.0,135.0 M-255.0,135.0 L-255.0,135.0 L-255.0,150.0 L-255.0,165.0 L-240.0,165.0 L-240.0,150.0 L-240.0,135.0 L-255.0,135.0 M-255.0,135.0 M-270.0,135.0 L-270.0,135.0 L-270.0,150.0 L-270.0,165.0 L-270.0,180.0 L-285.0,180.0 M-285.0,180.0 M-285.0,165.0 L-285.0,165.0 L-300.0,165.0 L-315.0,165.0 L-315.0,150.0 L-300.0,150.0 L-285.0,150.0 L-285.0,165.0 M-285.0,165.0 M-285.0,180.0 L-285.0,180.0 L-300.0,180.0 L-315.0,180.0 M-315.0,180.0 M-315.0,195.0 L-315.0,195.0 L-330.0,195.0 L-345.0,195.0 L-345.0,210.0 L-330.0,210.0 L-315.0,210.0 L-315.0,195.0 M-315.0,195.0 M-315.0,180.0 L-315.0,180.0 L-330.0,180.0 L-345.0,180.0 L-360.0,180.0 L-375.0,180.0 M-375.0,180.0 M-375.0,165.0 L-375.0,165.0 L-390.0,165.0 L-405.0,165.0 L-405.0,150.0 L-390.0,150.0 L-375.0,150.0 L-375.0,165.0 M-375.0,165.0 M-375.0,180.0 L-375.0,180.0 L-390.0,180.0 L-405.0,180.0 M-405.0,180.0 M-405.0,195.0 L-405.0,195.0 L-420.0,195.0 L-435.0,195.0 L-435.0,210.0 L-420.0,210.0 L-405.0,210.0 L-405.0,195.0 M-405.0,195.0 M-405.0,180.0 L-405.0,180.0 L-420.0,180.0 L-435.0,180.0 L-450.0,180.0 L-450.0,165.0 M-450.0,165.0 M-435.0,165.0 L-435.0,165.0 L-435.0,150.0 L-435.0,135.0 L-420.0,135.0 L-420.0,150.0 L-420.0,165.0 L-435.0,165.0 M-435.0,165.0 M-450.0,165.0 L-450.0,165.0 L-450.0,150.0 L-450.0,135.0 M-450.0,135.0 M-465.0,135.0 L-465.0,135.0 L-465.0,120.0 L-465.0,105.0 L-480.0,105.0 L-480.0,120.0 L-480.0,135.0 L-465.0,135.0 M-465.0,135.0 M-450.0,135.0 L-450.0,135.0 L-450.0,120.0 L-450.0,105.0 L-450.0,90.0 M-450.0,90.0 M-450.0,75.0 L-450.0,75.0 M-450.0,75.0 M-450.0,60.0 L-450.0,60.0 M-450.0,60.0 M-450.0,45.0 L-450.0,45.0 M-450.0,45.0 M-450.0,30.0 L-450.0,30.0 M-450.0,30.0 M-450.0,15.0 L-450.0,15.0 M-450.0,15.0 M-450.0,0.0 L-450.0,0.0 L-435.0,0.0 M-435.0,0.0 M-435.0,15.0 L-435.0,15.0 L-420.0,15.0 L-405.0,15.0 L-405.0,30.0 L-420.0,30.0 L-435.0,30.0 L-435.0,15.0 M-435.0,15.0 M-435.0,0.0 L-435.0,0.0 L-420.0,0.0 L-405.0,0.0 M-405.0,0.0 M-405.0,-15.0 L-405.0,-15.0 L-390.0,-15.0 L-375.0,-15.0 L-375.0,-30.0 L-390.0,-30.0 L-405.0,-30.0 L-405.0,-15.0 M-405.0,-15.0 M-405.0,0.0 L-405.0,0.0 L-390.0,0.0 L-375.0,0.0 L-360.0,0.0 L-345.0,0.0 M-345.0,0.0 M-345.0,15.0 L-345.0,15.0 L-330.0,15.0 L-315.0,15.0 L-315.0,30.0 L-330.0,30.0 L-345.0,30.0 L-345.0,15.0 M-345.0,15.0 M-345.0,0.0 L-345.0,0.0 L-330.0,0.0 L-315.0,0.0 M-315.0,0.0 M-315.0,-15.0 L-315.0,-15.0 L-300.0,-15.0 L-285.0,-15.0 L-285.0,-30.0 L-300.0,-30.0 L-315.0,-30.0 L-315.0,-15.0 M-315.0,-15.0 M-315.0,0.0 L-315.0,0.0 L-300.0,0.0 L-285.0,0.0 L-270.0,0.0 M-270.0,0.0 M-270.0,-15.0 L-270.0,-15.0 M-270.0,-15.0 M-270.0,-30.0 L-270.0,-30.0 M-270.0,-30.0 M-270.0,-45.0 L-270.0,-45.0 M-270.0,-45.0 M-270.0,-60.0 L-270.0,-60.0 M-270.0,-60.0 M-270.0,-75.0 L-270.0,-75.0 M-270.0,-75.0 M-270.0,-90.0 L-270.0,-90.0 L-255.0,-90.0 M-255.0,-90.0 M-255.0,-75.0 L-255.0,-75.0 L-240.0,-75.0 L-225.0,-75.0 L-225.0,-60.0 L-240.0,-60.0 L-255.0,-60.0 L-255.0,-75.0 M-255.0,-75.0 M-255.0,-90.0 L-255.0,-90.0 L-240.0,-90.0 L-225.0,-90.0 M-225.0,-90.0 M-225.0,-105.0 L-225.0,-105.0 L-210.0,-105.0 L-195.0,-105.0 L-195.0,-120.0 L-210.0,-120.0 L-225.0,-120.0 L-225.0,-105.0 M-225.0,-105.0 M-225.0,-90.0 L-225.0,-90.0 L-210.0,-90.0 L-195.0,-90.0 L-180.0,-90.0 L-165.0,-90.0 M-165.0,-90.0 M-165.0,-75.0 L-165.0,-75.0 L-150.0,-75.0 L-135.0,-75.0 L-135.0,-60.0 L-150.0,-60.0 L-165.0,-60.0 L-165.0,-75.0 M-165.0,-75.0 M-165.0,-90.0 L-165.0,-90.0 L-150.0,-90.0 L-135.0,-90.0 M-135.0,-90.0 M-135.0,-105.0 L-135.0,-105.0 L-120.0,-105.0 L-105.0,-105.0 L-105.0,-120.0 L-120.0,-120.0 L-135.0,-120.0 L-135.0,-105.0 M-135.0,-105.0 M-135.0,-90.0 L-135.0,-90.0 L-120.0,-90.0 L-105.0,-90.0 L-90.0,-90.0 L-90.0,-105.0 M-90.0,-105.0 M-75.0,-105.0 L-75.0,-105.0 L-75.0,-120.0 L-75.0,-135.0 L-60.0,-135.0 L-60.0,-120.0 L-60.0,-105.0 L-75.0,-105.0 M-75.0,-105.0 M-90.0,-105.0 L-90.0,-105.0 L-90.0,-120.0 L-90.0,-135.0 M-90.0,-135.0 M-105.0,-135.0 L-105.0,-135.0 L-105.0,-150.0 L-105.0,-165.0 L-120.0,-165.0 L-120.0,-150.0 L-120.0,-135.0 L-105.0,-135.0 M-105.0,-135.0 M-90.0,-135.0 L-90.0,-135.0 L-90.0,-150.0 L-90.0,-165.0 L-90.0,-180.0 L-105.0,-180.0 M-105.0,-180.0 M-105.0,-195.0 L-105.0,-195.0 L-120.0,-195.0 L-135.0,-195.0 L-135.0,-210.0 L-120.0,-210.0 L-105.0,-210.0 L-105.0,-195.0 M-105.0,-195.0 M-105.0,-180.0 L-105.0,-180.0 L-120.0,-180.0 L-135.0,-180.0 M-135.0,-180.0 M-135.0,-165.0 L-135.0,-165.0 L-150.0,-165.0 L-165.0,-165.0 L-165.0,-150.0 L-150.0,-150.0 L-135.0,-150.0 L-135.0,-165.0 M-135.0,-165.0 M-135.0,-180.0 L-135.0,-180.0 L-150.0,-180.0 L-165.0,-180.0 L-180.0,-180.0 L-195.0,-180.0 M-195.0,-180.0 M-195.0,-195.0 L-195.0,-195.0 L-210.0,-195.0 L-225.0,-195.0 L-225.0,-210.0 L-210.0,-210.0 L-195.0,-210.0 L-195.0,-195.0 M-195.0,-195.0 M-195.0,-180.0 L-195.0,-180.0 L-210.0,-180.0 L-225.0,-180.0 M-225.0,-180.0 M-225.0,-165.0 L-225.0,-165.0 L-240.0,-165.0 L-255.0,-165.0 L-255.0,-150.0 L-240.0,-150.0 L-225.0,-150.0 L-225.0,-165.0 M-225.0,-165.0 M-225.0,-180.0 L-225.0,-180.0 L-240.0,-180.0 L-255.0,-180.0 L-270.0,-180.0 L-270.0,-165.0 M-270.0,-165.0 M-285.0,-165.0 L-285.0,-165.0 L-285.0,-150.0 L-285.0,-135.0 L-300.0,-135.0 L-300.0,-150.0 L-300.0,-165.0 L-285.0,-165.0 M-285.0,-165.0 M-270.0,-165.0 L-270.0,-165.0 L-270.0,-150.0 L-270.0,-135.0 M-270.0,-135.0 M-255.0,-135.0 L-255.0,-135.0 L-255.0,-120.0 L-255.0,-105.0 L-240.0,-105.0 L-240.0,-120.0 L-240.0,-135.0 L-255.0,-135.0 M-255.0,-135.0 M-270.0,-135.0 L-270.0,-135.0 L-270.0,-120.0 L-270.0,-105.0 L-270.0,-90.0 M-270.0,-90.0 M-270.0,-75.0 L-270.0,-75.0 M-270.0,-75.0 M-270.0,-60.0 L-270.0,-60.0 M-270.0,-60.0 M-270.0,-45.0 L-270.0,-45.0 M-270.0,-45.0 M-270.0,-30.0 L-270.0,-30.0 M-270.0,-30.0 M-270.0,-15.0 L-270.0,-15.0 M-270.0,-15.0 M-270.0,0.0 L-270.0,0.0 L-255.0,0.0 M-255.0,0.0 M-255.0,15.0 L-255.0,15.0 L-240.0,15.0 L-225.0,15.0 L-225.0,30.0 L-240.0,30.0 L-255.0,30.0 L-255.0,15.0 M-255.0,15.0 M-255.0,0.0 L-255.0,0.0 L-240.0,0.0 L-225.0,0.0 M-225.0,0.0 M-225.0,-15.0 L-225.0,-15.0 L-210.0,-15.0 L-195.0,-15.0 L-195.0,-30.0 L-210.0,-30.0 L-225.0,-30.0 L-225.0,-15.0 M-225.0,-15.0 M-225.0,0.0 L-225.0,0.0 L-210.0,0.0 L-195.0,0.0 L-180.0,0.0 L-165.0,0.0 M-165.0,0.0 M-165.0,15.0 L-165.0,15.0 L-150.0,15.0 L-135.0,15.0 L-135.0,30.0 L-150.0,30.0 L-165.0,30.0 L-165.0,15.0 M-165.0,15.0 M-165.0,0.0 L-165.0,0.0 L-150.0,0.0 L-135.0,0.0 M-135.0,0.0 M-135.0,-15.0 L-135.0,-15.0 L-120.0,-15.0 L-105.0,-15.0 L-105.0,-30.0 L-120.0,-30.0 L-135.0,-30.0 L-135.0,-15.0 M-135.0,-15.0 M-135.0,0.0 L-135.0,0.0 L-120.0,0.0 L-105.0,0.0 L-90.0,0.0 L-75.0,0.0 M-75.0,0.0 M-75.0,15.0 L-75.0,15.0 L-60.0,15.0 L-45.0,15.0 L-45.0,30.0 L-60.0,30.0 L-75.0,30.0 L-75.0,15.0 M-75.0,15.0 M-75.0,0.0 L-75.0,0.0 L-60.0,0.0 L-45.0,0.0 M-45.0,0.0 M-45.0,-15.0 L-45.0,-15.0 L-30.0,-15.0 L-15.0,-15.0 L-15.0,-30.0 L-30.0,-30.0 L-45.0,-30.0 L-45.0,-15.0 M-45.0,-15.0 M-45.0,0.0 L-45.0,0.0 L-30.0,0.0 L-15.0,0.0 L0.0,0.0 " style="fill:none;stroke-width:3;stroke:red;"></path></g></svg>