<svg height="600" overflow="visible" preserveAspectRatio="xMidYMid meet" version="1.0" width="1000" xmlns:xlink="http://www.w3.org/1999/xlink" xmlns="http://www.w3.org/2000/svg" zoomAndPan="magnify"><g transform="translate(563.65365,216.27907) scale(0.34884,-0.34884)"><path d="M0.0,0.0 L0.0,30.0 L-25.98076,45.0 L-25.98076,15.0 L-51.96152,0.0 L-51.96152,30.0 L-51.96152,60.0 L-25.98076,75.0 L-25.98076,105.0 L-51.96152,120.0 L-77.94228,135.0 L-77.94228,105.0 L-51.96152,90.0 L-77.94228,75.0 L-103.92304,90.0 L-129.9038,75.0 L-129.9038,45.0 L-129.9038,15.0 L-103.92304,30.0 L-103.92304,60.0 L-77.94228,45.0 L-77.94228,15.0 L-103.92304,0.0 L-103.92304,-30.0 L-77.94228,-15.0 L-51.96152,-30.0 L-77.94228,-45.0 L-103.92304,-60.0 L-129.9038,-45.0 L-129.9038,-15.0 L-155.88456,0.0 L-155.88456,-30.0 L-181.86532,-45.0 L-181.86532,-15.0 L-181.86532,15.0 L-155.88456,30.0 L-155.88456,60.0 L-181.86532,75.0 L-181.86532,45.0 L-207.84608,30.0 L-207.84608,60.0 L-207.84608,90.0 L-181.86532,105.0 L-155.88456,90.0 L-129.9038,105.0 L-103.92304,120.0 L-129.9038,135.0 L-155.88456,120.0 L-155.88456,150.0 L-129.9038,165.0 L-129.9038,195.0 L-155.88456,210.0 L-155.88456,180.0 L-181.86532,165.0 L-181.86532,195.0 L-181.86532,225.0 L-155.88456,240.0 L-155.88456,270.0 L-181.86532,285.0 L-207.84608,300.0 L-207.84608,270.0 L-181.86532,255.0 L-207.84608,240.0 L-233.82684,255.0 L-233.82684,285.0 L-259.8076,300.0 L-285.78836,315.0 L-285.78836,285.0 L-259.8076,270.0 L-285.78836,255.0 L-311.76912,270.0 L-337.74988,255.0 L-337.74988,225.0 L-337.74988,195.0 L-311.76912,210.0 L-311.76912,240.0 L-285.78836,225.0 L-285.78836,195.0 L-259.8076,180.0 L-233.82684,195.0 L-259.8076,210.0 L-259.8076,240.0 L-233.82684,225.0 L-207.84608,210.0 L-207.84608,180.0 L-233.82684,165.0 L-233.82684,135.0 L-207.84608,150.0 L-181.86532,135.0 L-207.84608,120.0 L-233.82684,105.0 L-259.8076,120.0 L-259.8076,150.0 L-285.78836,165.0 L-311.76912,180.0 L-311.76912,150.0 L-285.78836,135.0 L-311.76912,120.0 L-337.74988,135.0 L-363.73064,120.0 L-363.73064,90.0 L-337.74988,105.0 L-311.76912,90.0 L-337.74988,75.0 L-363.73064,60.0 L-389.7114,75.0 L-415.69216,60.0 L-415.69216,30.0 L-415.69216,0.0 L-389.7114,15.0 L-389.7114,45.0 L-363.73064,30.0 L-363.73064,0.0 L-389.7114,-15.0 L-389.7114,-45.0 L-389.7114,-75.0 L-363.73064,-60.0 L-363.73064,-30.0 L-337.74988,-45.0 L-337.74988,-75.0 L-311.76912,-90.0 L-285.78836,-75.0 L-259.8076,-60.0 L-285.78836,-45.0 L-311.76912,-60.0 L-311.76912,-30.0 L-285.78836,-15.0 L-285.78836,15.0 L-311.76912,30.0 L-311.76912,0.0 L-337.74988,-15.0 L-337.74988,15.0 L-337.74988,45.0 L-311.76912,60.0 L-285.78836,45.0 L-259.8076,60.0 L-285.78836,75.0 L-285.78836,105.0 L-259.8076,90.0 L-233.82684,75.0 L-233.82684,45.0 L-259.8076,30.0 L-259.8076,0.0 L-259.8076,-30.0 L-233.82684,-15.0 L-233.82684,15.0 L-207.84608,0.0 L-207.84608,-30.0 L-233.82684,-45.0 L-233.82684,-75.0 L-207.84608,-60.0 L-181.86532,-75.0 L-207.84608,-90.0 L-233.82684,-105.0 L-259.8076,-90.0 L-285.78836,-105.0 L-285.78836,-135.0 L-285.78836,-165.0 L-259.8076,-150.0 L-259.8076,-120.0 L-233.82684,-135.0 L-233.82684,-165.0 L-207.84608,-180.0 L-181.86532,-165.0 L-155.88456,-150.0 L-181.86532,-135.0 L-207.84608,-150.0 L-207.84608,-120.0 L-181.86532,-105.0 L-155.88456,-120.0 L-129.9038,-105.0 L-155.88456,-90.0 L-155.88456,-60.0 L-129.9038,-75.0 L-103.92304,-90.0 L-103.92304,-120.0 L-129.9038,-135.0 L-129.9038,-165.0 L-103.92304,-150.0 L-77.94228,-165.0 L-103.92304,-180.0 L-129.9038,-195.0 L-155.88456,-180.0 L-181.86532,-195.0 L-181.86532,-225.0 L-155.88456,-210.0 L-129.9038,-225.0 L-155.88456,-240.0 L-181.86532,-255.0 L-207.84608,-240.0 L-207.84608,-210.0 L-233.82684,-195.0 L-259.8076,-180.0 L-259.8076,-210.0 L-233.82684,-225.0 L-259.8076,-240.0 L-285.78836,-225.0 L-285.78836,-195.0 L-311.76912,-180.0 L-311.76912,-210.0 L-337.74988,-225.0 L-337.74988,-195.0 L-337.74988,-165.0 L-311.76912,-150.0 L-311.76912,-120.0 L-337.74988,-105.0 L-363.73064,-90.0 L-363.73064,-120.0 L-337.74988,-135.0 L-363.73064,-150.0 L-389.7114,-135.0 L-415.69216,-150.0 L-415.69216,-180.0 L-415.69216,-210.0 L-389.7114,-195.0 L-389.7114,-165.0 L-363.73064,-180.0 L-363.73064,-210.0 L-389.7114,-225.0 L-389.7114,-255.0 L-363.73064,-240.0 L-337.74988,-255.0 L-363.73064,-270.0 L-389.7114,-285.0 L-415.69216,-270.0 L-415.69216,-240.0 L-441.67292,-225.0 L-441.67292,-255.0 L-467.65368,-270.0 L-467.65368,-240.0 L-467.65368,-210.0 L-441.67292,-195.0 L-441.67292,-165.0 L-467.65368,-150.0 L-467.65368,-180.0 L-493.63444,-195.0 L-493.63444,-165.0 L-493.63444,-135.0 L-467.65368,-120.0 L-441.67292,-135.0 L-415.69216,-120.0 L-389.7114,-105.0 L-415.69216,-90.0 L-441.67292,-105.0 L-441.67292,-75.0 L-415.69216,-60.0 L-415.69216,-30.0 L-441.67292,-15.0 L-441.67292,-45.0 L-467.65368,-60.0 L-467.65368,-30.0 L-467.65368,0.0 L-441.67292,15.0 L-441.67292,45.0 L-467.65368,60.0 L-493.63444,75.0 L-493.63444,45.0 L-467.65368,30.0 L-493.63444,15.0 L-519.6152,30.0 L-545.59596,15.0 L-545.59596,-15.0 L-545.59596,-45.0 L-519.6152,-30.0 L-519.6152,0.0 L-493.63444,-15.0 L-493.63444,-45.0 L-519.6152,-60.0 L-519.6152,-90.0 L-493.63444,-75.0 L-467.65368,-90.0 L-493.63444,-105.0 L-519.6152,-120.0 L-545.59596,-105.0 L-545.59596,-75.0 L-571.57672,-60.0 L-571.57672,-90.0 L-597.55748,-105.0 L-597.55748,-75.0 L-597.55748,-45.0 L-571.57672,-30.0 L-571.57672,0.0 L-597.55748,15.0 L-597.55748,-15.0 L-623.53824,-30.0 L-623.53824,0.0 L-623.53824,30.0 L-597.55748,45.0 L-571.57672,30.0 L-545.59596,45.0 L-519.6152,60.0 L-545.59596,75.0 L-571.57672,60.0 L-571.57672,90.0 L-545.59596,105.0 L-519.6152,90.0 L-493.63444,105.0 L-519.6152,120.0 L-519.6152,150.0 L-493.63444,135.0 L-467.65368,120.0 L-467.65368,90.0 L-441.67292,75.0 L-415.69216,90.0 L-389.7114,105.0 L-415.69216,120.0 L-441.67292,105.0 L-441.67292,135.0 L-415.69216,150.0 L-389.7114,135.0 L-363.73064,150.0 L-337.74988,165.0 L-363.73064,180.0 L-389.7114,165.0 L-389.7114,195.0 L-363.73064,210.0 L-363.73064,240.0 L-389.7114,255.0 L-415.69216,270.0 L-415.69216,240.0 L-389.7114,225.0 L-415.69216,210.0 L-441.67292,225.0 L-467.65368,210.0 L-467.65368,180.0 L-441.67292,195.0 L-415.69216,180.0 L-441.67292,165.0 L-467.65368,150.0 L-493.63444,165.0 L-493.63444,195.0 L-519.6152,210.0 L-519.6152,180.0 L-545.59596,165.0 L-545.59596,195.0 L-545.59596,225.0 L-519.6152,240.0 L-493.63444,225.0 L-467.65368,240.0 L-441.67292,255.0 L-467.65368,270.0 L-493.63444,255.0 L-493.63444,285.0 L-467.65368,300.0 L-467.65368,330.0 L-493.63444,345.0 L-493.63444,315.0 L-519.6152,300.0 L-519.6152,330.0 L-519.6152,360.0 L-493.63444,375.0 L-493.63444,405.0 L-519.6152,420.0 L-545.59596,435.0 L-545.59596,405.0 L-519.6152,390.0 L-545.59596,375.0 L-571.57672,390.0 L-597.55748,375.0 L-597.55748,345.0 L-597.55748,315.0 L-571.57672,330.0 L-571.57672,360.0 L-545.59596,345.0 L-545.59596,315.0 L-571.57672,300.0 L-571.57672,270.0 L-545.59596,285.0 L-519.6152,270.0 L-545.59596,255.0 L-571.57672,240.0 L-597.55748,255.0 L-597.55748,285.0 L-623.53824,300.0 L-623.53824,270.0 L-649.519,255.0 L-649.519,285.0 L-649.519,315.0 L-623.53824,330.0 L-623.53824,360.0 L-649.519,375.0 L-649.519,345.0 L-675.49976,330.0 L-675.49976,360.0 L-675.49976,390.0 L-649.519,405.0 L-623.53824,390.0 L-597.55748,405.0 L-571.57672,420.0 L-597.55748,435.0 L-623.53824,420.0 L-623.53824,450.0 L-597.55748,465.0 L-597.55748,495.0 L-623.53824,510.0 L-623.53824,480.0 L-649.519,465.0 L-649.519,495.0 L-649.519,525.0 L-623.53824,540.0 L-623.53824,570.0 L-649.519,585.0 L-675.49976,600.0 L-675.49976,570.0 L-649.519,555.0 L-675.49976,540.0 L-701.48052,555.0 L-701.48052,585.0 L-727.46128,600.0 L-753.44204,615.0 L-753.44204,585.0 L-727.46128,570.0 L-753.44204,555.0 L-779.4228,570.0 L-805.40356,555.0 L-805.40356,525.0 L-805.40356,495.0 L-779.4228,510.0 L-779.4228,540.0 L-753.44204,525.0 L-753.44204,495.0 L-727.46128,480.0 L-701.48052,495.0 L-727.46128,510.0 L-727.46128,540.0 L-701.48052,525.0 L-675.49976,510.0 L-675.49976,480.0 L-701.48052,465.0 L-701.48052,435.0 L-675.49976,450.0 L-649.519,435.0 L-675.49976,420.0 L-701.48052,405.0 L-727.46128,420.0 L-727.46128,450.0 L-753.44204,465.0 L-779.4228,480.0 L-779.4228,450.0 L-753.44204,435.0 L-779.4228,420.0 L-805.40356,435.0 L-805.40356,465.0 L-831.38432,480.0 L-831.38432,450.0 L-857.36508,435.0 L-857.36508,465.0 L-857.36508,495.0 L-831.38432,510.0 L-831.38432,540.0 L-857.36508,555.0 L-883.34584,570.0 L-883.34584,540.0 L-857.36508,525.0 L-883.34584,510.0 L-909.3266,525.0 L-909.3266,555.0 L-935.30736,570.0 L-961.28812,585.0 L-961.28812,555.0 L-935.30736,540.0 L-961.28812,525.0 L-987.26888,540.0 L-1013.24964,525.0 L-1013.24964,495.0 L-1013.24964,465.0 L-987.26888,480.0 L-987.26888,510.0 L-961.28812,495.0 L-961.28812,465.0 L-935.30736,450.0 L-909.3266,465.0 L-935.30736,480.0 L-935.30736,510.0 L-909.3266,495.0 L-883.34584,480.0 L-883.34584,450.0 L-909.3266,435.0 L-909.3266,405.0 L-883.34584,420.0 L-857.36508,405.0 L-883.34584,390.0 L-909.3266,375.0 L-935.30736,390.0 L-935.30736,420.0 L-961.28812,435.0 L-987.26888,450.0 L-987.26888,420.0 L-961.28812,405.0 L-987.26888,390.0 L-1013.24964,405.0 L-1039.2304,390.0 L-1039.2304,360.0 L-1013.24964,375.0 L-987.26888,360.0 L-1013.24964,345.0 L-1039.2304,330.0 L-1065.21116,345.0 L-1091.19192,330.0 L-1091.19192,300.0 L-1091.19192,270.0 L-1065.21116,285.0 L-1065.21116,315.0 L-1039.2304,300.0 L-1039.2304,270.0 L-1065.21116,255.0 L-1065.21116,225.0 L-1065.21116,195.0 L-1039.2304,210.0 L-1039.2304,240.0 L-1013.24964,225.0 L-1013.24964,195.0 L-987.26888,180.0 L-961.28812,195.0 L-935.30736,210.0 L-961.28812,225.0 L-987.26888,210.0 L-987.26888,240.0 L-961.28812,255.0 L-961.28812,285.0 L-987.26888,300.0 L-987.26888,270.0 L-1013.24964,255.0 L-1013.24964,285.0 L-1013.24964,315.0 L-987.26888,330.0 L-961.28812,315.0 L-935.30736,330.0 L-961.28812,345.0 L-961.28812,375.0 L-935.30736,360.0 L-909.3266,345.0 L-909.3266,315.0 L-935.30736,300.0 L-935.30736,270.0 L-935.30736,240.0 L-909.3266,255.0 L-909.3266,285.0 L-883.34584,270.0 L-883.34584,240.0 L-857.36508,225.0 L-831.38432,240.0 L-857.36508,255.0 L-857.36508,285.0 L-831.38432,270.0 L-805.40356,255.0 L-805.40356,225.0 L-779.4228,210.0 L-753.44204,225.0 L-727.46128,240.0 L-753.44204,255.0 L-779.4228,240.0 L-779.4228,270.0 L-753.44204,285.0 L-753.44204,315.0 L-779.4228,330.0 L-805.40356,345.0 L-805.40356,315.0 L-779.4228,300.0 L-805.40356,285.0 L-831.38432,300.0 L-831.38432,330.0 L-857.36508,345.0 L-857.36508,315.0 L-883.34584,300.0 L-883.34584,330.0 L-883.34584,360.0 L-857.36508,375.0 L-831.38432,360.0 L-805.40356,375.0 L-831.38432,390.0 L-831.38432,420.0 L-805.40356,405.0 L-779.4228,390.0 L-779.4228,360.0 L-753.44204,345.0 L-727.46128,360.0 L-753.44204,375.0 L-753.44204,405.0 L-727.46128,390.0 L-701.48052,375.0 L-701.48052,345.0 L-727.46128,330.0 L-727.46128,300.0 L-727.46128,270.0 L-701.48052,285.0 L-701.48052,315.0 L-675.49976,300.0 L-675.49976,270.0 L-701.48052,255.0 L-701.48052,225.0 L-675.49976,240.0 L-649.519,225.0 L-675.49976,210.0 L-701.48052,195.0 L-727.46128,210.0 L-753.44204,195.0 L-753.44204,165.0 L-753.44204,135.0 L-727.46128,150.0 L-727.46128,180.0 L-701.48052,165.0 L-701.48052,135.0 L-675.49976,120.0 L-649.519,135.0 L-623.53824,150.0 L-649.519,165.0 L-675.49976,150.0 L-675.49976,180.0 L-649.519,195.0 L-623.53824,180.0 L-597.55748,195.0 L-623.53824,210.0 L-623.53824,240.0 L-597.55748,225.0 L-571.57672,210.0 L-571.57672,180.0 L-597.55748,165.0 L-597.55748,135.0 L-571.57672,150.0 L-545.59596,135.0 L-571.57672,120.0 L-597.55748,105.0 L-623.53824,120.0 L-649.519,105.0 L-649.519,75.0 L-623.53824,90.0 L-597.55748,75.0 L-623.53824,60.0 L-649.519,45.0 L-675.49976,60.0 L-675.49976,90.0 L-701.48052,105.0 L-727.46128,120.0 L-727.46128,90.0 L-701.48052,75.0 L-727.46128,60.0 L-753.44204,75.0 L-753.44204,105.0 L-779.4228,120.0 L-779.4228,90.0 L-805.40356,75.0 L-805.40356,105.0 L-805.40356,135.0 L-779.4228,150.0 L-779.4228,180.0 L-805.40356,195.0 L-831.38432,210.0 L-831.38432,180.0 L-805.40356,165.0 L-831.38432,150.0 L-857.36508,165.0 L-857.36508,195.0 L-883.34584,210.0 L-909.3266,225.0 L-909.3266,195.0 L-883.34584,180.0 L-909.3266,165.0 L-935.30736,180.0 L-961.28812,165.0 L-961.28812,135.0 L-961.28812,105.0 L-935.30736,120.0 L-935.30736,150.0 L-909.3266,135.0 L-909.3266,105.0 L-883.34584,90.0 L-857.36508,105.0 L-883.34584,120.0 L-883.34584,150.0 L-857.36508,135.0 L-831.38432,120.0 L-831.38432,90.0 L-857.36508,75.0 L-857.36508,45.0 L-831.38432,60.0 L-805.40356,45.0 L-831.38432,30.0 L-857.36508,15.0 L-883.34584,30.0 L-883.34584,60.0 L-909.3266,75.0 L-935.30736,90.0 L-935.30736,60.0 L-909.3266,45.0 L-935.30736,30.0 L-961.28812,45.0 L-987.26888,30.0 L-987.26888,0.0 L-961.28812,15.0 L-935.30736,0.0 L-961.28812,-15.0 L-987.26888,-30.0 L-1013.24964,-15.0 L-1039.2304,-30.0 L-1039.2304,-60.0 L-1039.2304,-90.0 L-1013.24964,-75.0 L-1013.24964,-45.0 L-987.26888,-60.0 L-987.26888,-90.0 L-961.28812,-105.0 L-935.30736,-90.0 L-909.3266,-75.0 L-935.30736,-60.0 L-961.28812,-75.0 L-961.28812,-45.0 L-935.30736,-30.0 L-909.3266,-45.0 L-883.34584,-30.0 L-909.3266,-15.0 L-909.3266,15.0 L-883.34584,0.0 L-857.36508,-15.0 L-857.36508,-45.0 L-883.34584,-60.0 L-883.34584,-90.0 L-857.36508,-75.0 L-831.38432,-90.0 L-857.36508,-105.0 L-883.34584,-120.0 L-909.3266,-105.0 L-935.30736,-120.0 L-935.30736,-150.0 L-909.3266,-135.0 L-883.34584,-150.0 L-909.3266,-165.0 L-935.30736,-180.0 L-961.28812,-165.0 L-961.28812,-135.0 L-987.26888,-120.0 L-1013.24964,-105.0 L-1013.24964,-135.0 L-987.26888,-150.0 L-1013.24964,-165.0 L-1039.2304,-150.0 L-1065.21116,-165.0 L-1065.21116,-195.0 L-1039.2304,-180.0 L-1013.24964,-195.0 L-1039.2304,-210.0 L-1065.21116,-225.0 L-1091.19192,-210.0 L-1117.17268,-225.0 L-1117.17268,-255.0 L-1117.17268,-285.0 L-1091.19192,-270.0 L-1091.19192,-240.0 L-1065.21116,-255.0 L-1065.21116,-285.0 L-1091.19192,-300.0 L-1091.19192,-330.0 L-1091.19192,-360.0 L-1065.21116,-345.0 L-1065.21116,-315.0 L-1039.2304,-330.0 L-1039.2304,-360.0 L-1013.24964,-375.0 L-987.26888,-360.0 L-961.28812,-345.0 L-987.26888,-330.0 L-1013.24964,-345.0 L-1013.24964,-315.0 L-987.26888,-300.0 L-987.26888,-270.0 L-1013.24964,-255.0 L-1013.24964,-285.0 L-1039.2304,-300.0 L-1039.2304,-270.0 L-1039.2304,-240.0 L-1013.24964,-225.0 L-987.26888,-240.0 L-961.28812,-225.0 L-987.26888,-210.0 L-987.26888,-180.0 L-961.28812,-195.0 L-935.30736,-210.0 L-935.30736,-240.0 L-961.28812,-255.0 L-961.28812,-285.0 L-961.28812,-315.0 L-935.30736,-300.0 L-935.30736,-270.0 L-909.3266,-285.0 L-909.3266,-315.0 L-935.30736,-330.0 L-935.30736,-360.0 L-909.3266,-345.0 L-883.34584,-360.0 L-909.3266,-375.0 L-935.30736,-390.0 L-961.28812,-375.0 L-987.26888,-390.0 L-987.26888,-420.0 L-987.26888,-450.0 L-961.28812,-435.0 L-961.28812,-405.0 L-935.30736,-420.0 L-935.30736,-450.0 L-961.28812,-465.0 L-961.28812,-495.0 L-961.28812,-525.0 L-935.30736,-510.0 L-935.30736,-480.0 L-909.3266,-495.0 L-909.3266,-525.0 L-883.34584,-540.0 L-857.36508,-525.0 L-831.38432,-510.0 L-857.36508,-495.0 L-883.34584,-510.0 L-883.34584,-480.0 L-857.36508,-465.0 L-857.36508,-435.0 L-883.34584,-420.0 L-883.34584,-450.0 L-909.3266,-465.0 L-909.3266,-435.0 L-909.3266,-405.0 L-883.34584,-390.0 L-857.36508,-405.0 L-831.38432,-390.0 L-857.36508,-375.0 L-857.36508,-345.0 L-831.38432,-360.0 L-805.40356,-375.0 L-805.40356,-405.0 L-831.38432,-420.0 L-831.38432,-450.0 L-831.38432,-480.0 L-805.40356,-465.0 L-805.40356,-435.0 L-779.4228,-450.0 L-779.4228,-480.0 L-753.44204,-495.0 L-727.46128,-480.0 L-753.44204,-465.0 L-753.44204,-435.0 L-727.46128,-450.0 L-701.48052,-465.0 L-701.48052,-495.0 L-675.49976,-510.0 L-649.519,-495.0 L-623.53824,-480.0 L-649.519,-465.0 L-675.49976,-480.0 L-675.49976,-450.0 L-649.519,-435.0 L-623.53824,-450.0 L-597.55748,-435.0 L-571.57672,-420.0 L-597.55748,-405.0 L-623.53824,-420.0 L-623.53824,-390.0 L-597.55748,-375.0 L-597.55748,-345.0 L-623.53824,-330.0 L-649.519,-315.0 L-649.519,-345.0 L-623.53824,-360.0 L-649.519,-375.0 L-675.49976,-360.0 L-701.48052,-375.0 L-701.48052,-405.0 L-675.49976,-390.0 L-649.519,-405.0 L-675.49976,-420.0 L-701.48052,-435.0 L-727.46128,-420.0 L-727.46128,-390.0 L-753.44204,-375.0 L-753.44204,-405.0 L-779.4228,-420.0 L-779.4228,-390.0 L-779.4228,-360.0 L-753.44204,-345.0 L-727.46128,-360.0 L-701.48052,-345.0 L-675.49976,-330.0 L-701.48052,-315.0 L-727.46128,-330.0 L-727.46128,-300.0 L-701.48052,-285.0 L-701.48052,-255.0 L-727.46128,-240.0 L-727.46128,-270.0 L-753.44204,-285.0 L-753.44204,-255.0 L-753.44204,-225.0 L-727.46128,-210.0 L-727.46128,-180.0 L-753.44204,-165.0 L-779.4228,-150.0 L-779.4228,-180.0 L-753.44204,-195.0 L-779.4228,-210.0 L-805.40356,-195.0 L-831.38432,-210.0 L-831.38432,-240.0 L-831.38432,-270.0 L-805.40356,-255.0 L-805.40356,-225.0 L-779.4228,-240.0 L-779.4228,-270.0 L-805.40356,-285.0 L-805.40356,-315.0 L-779.4228,-300.0 L-753.44204,-315.0 L-779.4228,-330.0 L-805.40356,-345.0 L-831.38432,-330.0 L-831.38432,-300.0 L-857.36508,-285.0 L-857.36508,-315.0 L-883.34584,-330.0 L-883.34584,-300.0 L-883.34584,-270.0 L-857.36508,-255.0 L-857.36508,-225.0 L-883.34584,-210.0 L-883.34584,-240.0 L-909.3266,-255.0 L-909.3266,-225.0 L-909.3266,-195.0 L-883.34584,-180.0 L-857.36508,-195.0 L-831.38432,-180.0 L-805.40356,-165.0 L-831.38432,-150.0 L-857.36508,-165.0 L-857.36508,-135.0 L-831.38432,-120.0 L-805.40356,-135.0 L-779.4228,-120.0 L-805.40356,-105.0 L-805.40356,-75.0 L-779.4228,-90.0 L-753.44204,-105.0 L-753.44204,-135.0 L-727.46128,-150.0 L-701.48052,-135.0 L-675.49976,-120.0 L-701.48052,-105.0 L-727.46128,-120.0 L-727.46128,-90.0 L-701.48052,-75.0 L-701.48052,-45.0 L-727.46128,-30.0 L-753.44204,-15.0 L-753.44204,-45.0 L-727.46128,-60.0 L-753.44204,-75.0 L-779.4228,-60.0 L-779.4228,-30.0 L-805.40356,-15.0 L-805.40356,-45.0 L-831.38432,-60.0 L-831.38432,-30.0 L-831.38432,0.0 L-805.40356,15.0 L-779.4228,0.0 L-753.44204,15.0 L-779.4228,30.0 L-779.4228,60.0 L-753.44204,45.0 L-727.46128,30.0 L-727.46128,0.0 L-701.48052,-15.0 L-675.49976,0.0 L-701.48052,15.0 L-701.48052,45.0 L-675.49976,30.0 L-649.519,15.0 L-649.519,-15.0 L-675.49976,-30.0 L-675.49976,-60.0 L-675.49976,-90.0 L-649.519,-75.0 L-649.519,-45.0 L-623.53824,-60.0 L-623.53824,-90.0 L-649.519,-105.0 L-649.519,-135.0 L-623.53824,-120.0 L-597.55748,-135.0 L-623.53824,-150.0 L-649.519,-165.0 L-675.49976,-150.0 L-701.48052,-165.0 L-701.48052,-195.0 L-701.48052,-225.0 L-675.49976,-210.0 L-675.49976,-180.0 L-649.519,-195.0 L-649.519,-225.0 L-675.49976,-240.0 L-675.49976,-270.0 L-675.49976,-300.0 L-649.519,-285.0 L-649.519,-255.0 L-623.53824,-270.0 L-623.53824,-300.0 L-597.55748,-315.0 L-571.57672,-300.0 L-545.59596,-285.0 L-571.57672,-270.0 L-597.55748,-285.0 L-597.55748,-255.0 L-571.57672,-240.0 L-571.57672,-210.0 L-597.55748,-195.0 L-597.55748,-225.0 L-623.53824,-240.0 L-623.53824,-210.0 L-623.53824,-180.0 L-597.55748,-165.0 L-571.57672,-180.0 L-545.59596,-165.0 L-571.57672,-150.0 L-571.57672,-120.0 L-545.59596,-135.0 L-519.6152,-150.0 L-519.6152,-180.0 L-545.59596,-195.0 L-545.59596,-225.0 L-545.59596,-255.0 L-519.6152,-240.0 L-519.6152,-210.0 L-493.63444,-225.0 L-493.63444,-255.0 L-519.6152,-270.0 L-519.6152,-300.0 L-493.63444,-285.0 L-467.65368,-300.0 L-493.63444,-315.0 L-519.6152,-330.0 L-545.59596,-315.0 L-571.57672,-330.0 L-571.57672,-360.0 L-571.57672,-390.0 L-545.59596,-375.0 L-545.59596,-345.0 L-519.6152,-360.0 L-519.6152,-390.0 L-493.63444,-405.0 L-467.65368,-390.0 L-441.67292,-375.0 L-467.65368,-360.0 L-493.63444,-375.0 L-493.63444,-345.0 L-467.65368,-330.0 L-441.67292,-345.0 L-415.69216,-330.0 L-441.67292,-315.0 L-441.67292,-285.0 L-415.69216,-300.0 L-389.7114,-315.0 L-389.7114,-345.0 L-415.69216,-360.0 L-415.69216,-390.0 L-389.7114,-375.0 L-363.73064,-390.0 L-389.7114,-405.0 L-415.69216,-420.0 L-441.67292,-405.0 L-467.65368,-420.0 L-467.65368,-450.0 L-441.67292,-435.0 L-415.69216,-450.0 L-441.67292,-465.0 L-467.65368,-480.0 L-493.63444,-465.0 L-493.63444,-435.0 L-519.6152,-420.0 L-545.59596,-405.0 L-545.59596,-435.0 L-519.6152,-450.0 L-545.59596,-465.0 L-571.57672,-450.0 L-597.55748,-465.0 L-597.55748,-495.0 L-571.57672,-480.0 L-545.59596,-495.0 L-571.57672,-510.0 L-597.55748,-525.0 L-623.53824,-510.0 L-649.519,-525.0 L-649.519,-555.0 L-649.519,-585.0 L-623.53824,-570.0 L-623.53824,-540.0 L-597.55748,-555.0 L-597.55748,-585.0 L-623.53824,-600.0 L-623.53824,-630.0 L-623.53824,-660.0 L-597.55748,-645.0 L-597.55748,-615.0 L-571.57672,-630.0 L-571.57672,-660.0 L-545.59596,-675.0 L-519.6152,-660.0 L-493.63444,-645.0 L-519.6152,-630.0 L-545.59596,-645.0 L-545.59596,-615.0 L-519.6152,-600.0 L-519.6152,-570.0 L-545.59596,-555.0 L-545.59596,-585.0 L-571.57672,-600.0 L-571.57672,-570.0 L-571.57672,-540.0 L-545.59596,-525.0 L-519.6152,-540.0 L-493.63444,-525.0 L-519.6152,-510.0 L-519.6152,-480.0 L-493.63444,-495.0 L-467.65368,-510.0 L-467.65368,-540.0 L-493.63444,-555.0 L-493.63444,-585.0 L-493.63444,-615.0 L-467.65368,-600.0 L-467.65368,-570.0 L-441.67292,-585.0 L-441.67292,-615.0 L-415.69216,-630.0 L-389.7114,-615.0 L-415.69216,-600.0 L-415.69216,-570.0 L-389.7114,-585.0 L-363.73064,-600.0 L-363.73064,-630.0 L-337.74988,-645.0 L-311.76912,-630.0 L-285.78836,-615.0 L-311.76912,-600.0 L-337.74988,-615.0 L-337.74988,-585.0 L-311.76912,-570.0 L-285.78836,-585.0 L-259.8076,-570.0 L-233.82684,-555.0 L-259.8076,-540.0 L-285.78836,-555.0 L-285.78836,-525.0 L-259.8076,-510.0 L-259.8076,-480.0 L-285.78836,-465.0 L-311.76912,-450.0 L-311.76912,-480.0 L-285.78836,-495.0 L-311.76912,-510.0 L-337.74988,-495.0 L-363.73064,-510.0 L-363.73064,-540.0 L-337.74988,-525.0 L-311.76912,-540.0 L-337.74988,-555.0 L-363.73064,-570.0 L-389.7114,-555.0 L-389.7114,-525.0 L-415.69216,-510.0 L-415.69216,-540.0 L-441.67292,-555.0 L-441.67292,-525.0 L-441.67292,-495.0 L-415.69216,-480.0 L-389.7114,-495.0 L-363.73064,-480.0 L-337.74988,-465.0 L-363.73064,-450.0 L-389.7114,-465.0 L-389.7114,-435.0 L-363.73064,-420.0 L-337.74988,-435.0 L-311.76912,-420.0 L-337.74988,-405.0 L-337.74988,-375.0 L-311.76912,-390.0 L-285.78836,-405.0 L-285.78836,-435.0 L-259.8076,-450.0 L-233.82684,-435.0 L-207.84608,-420.0 L-233.82684,-405.0 L-259.8076,-420.0 L-259.8076,-390.0 L-233.82684,-375.0 L-233.82684,-345.0 L-259.8076,-330.0 L-285.78836,-315.0 L-285.78836,-345.0 L-259.8076,-360.0 L-285.78836,-375.0 L-311.76912,-360.0 L-311.76912,-330.0 L-337.74988,-315.0 L-337.74988,-345.0 L-363.73064,-360.0 L-363.73064,-330.0 L-363.73064,-300.0 L-337.74988,-285.0 L-311.76912,-300.0 L-285.78836,-285.0 L-311.76912,-270.0 L-311.76912,-240.0 L-285.78836,-255.0 L-259.8076,-270.0 L-259.8076,-300.0 L-233.82684,-315.0 L-207.84608,-300.0 L-233.82684,-285.0 L-233.82684,-255.0 L-207.84608,-270.0 L-181.86532,-285.0 L-181.86532,-315.0 L-207.84608,-330.0 L-207.84608,-360.0 L-207.84608,-390.0 L-181.86532,-375.0 L-181.86532,-345.0 L-155.88456,-360.0 L-155.88456,-390.0 L-181.86532,-405.0 L-181.86532,-435.0 L-155.88456,-420.0 L-129.9038,-435.0 L-155.88456,-450.0 L-181.86532,-465.0 L-207.84608,-450.0 L-233.82684,-465.0 L-233.82684,-495.0 L-233.82684,-525.0 L-207.84608,-510.0 L-207.84608,-480.0 L-181.86532,-495.0 L-181.86532,-525.0 L-155.88456,-540.0 L-129.9038,-525.0 L-103.92304,-510.0 L-129.9038,-495.0 L-155.88456,-510.0 L-155.88456,-480.0 L-129.9038,-465.0 L-103.92304,-480.0 L-77.94228,-465.0 L-103.92304,-450.0 L-103.92304,-420.0 L-77.94228,-435.0 L-51.96152,-450.0 L-51.96152,-480.0 L-77.94228,-495.0 L-77.94228,-525.0 L-51.96152,-510.0 L-25.98076,-525.0 L-51.96152,-540.0 L-77.94228,-555.0 L-103.92304,-540.0 L-129.9038,-555.0 L-129.9038,-585.0 L-103.92304,-570.0 L-77.94228,-585.0 L-103.92304,-600.0 L-129.9038,-615.0 L-155.88456,-600.0 L-155.88456,-570.0 L-181.86532,-555.0 L-207.84608,-540.0 L-207.84608,-570.0 L-181.86532,-585.0 L-207.84608,-600.0 L-233.82684,-585.0 L-259.8076,-600.0 L-259.8076,-630.0 L-233.82684,-615.0 L-207.84608,-630.0 L-233.82684,-645.0 L-259.8076,-660.0 L-285.78836,-645.0 L-311.76912,-660.0 L-311.76912,-690.0 L-311.76912,-720.0 L-285.78836,-705.0 L-285.78836,-675.0 L-259.8076,-690.0 L-259.8076,-720.0 L-233.82684,-735.0 L-207.84608,-720.0 L-181.86532,-705.0 L-207.84608,-690.0 L-233.82684,-705.0 L-233.82684,-675.0 L-207.84608,-660.0 L-181.86532,-675.0 L-155.88456,-660.0 L-181.86532,-645.0 L-181.86532,-615.0 L-155.88456,-630.0 L-129.9038,-645.0 L-129.9038,-675.0 L-155.88456,-690.0 L-155.88456,-720.0 L-129.9038,-705.0 L-103.92304,-720.0 L-129.9038,-735.0 L-155.88456,-750.0 L-181.86532,-735.0 L-207.84608,-750.0 L-207.84608,-780.0 L-181.86532,-765.0 L-155.88456,-780.0 L-181.86532,-795.0 L-207.84608,-810.0 L-233.82684,-795.0 L-233.82684,-765.0 L-259.8076,-750.0 L-285.78836,-735.0 L-285.78836,-765.0 L-259.8076,-780.0 L-285.78836,-795.0 L-311.76912,-780.0 L-311.76912,-750.0 L-337.74988,-735.0 L-337.74988,-765.0 L-363.73064,-780.0 L-363.73064,-750.0 L-363.73064,-720.0 L-337.74988,-705.0 L-337.74988,-675.0 L-363.73064,-660.0 L-389.7114,-645.0 L-389.7114,-675.0 L-363.73064,-690.0 L-389.7114,-705.0 L-415.69216,-690.0 L-415.69216,-660.0 L-441.67292,-645.0 L-467.65368,-630.0 L-467.65368,-660.0 L-441.67292,-675.0 L-467.65368,-690.0 L-493.63444,-675.0 L-519.6152,-690.0 L-519.6152,-720.0 L-519.6152,-750.0 L-493.63444,-735.0 L-493.63444,-705.0 L-467.65368,-720.0 L-467.65368,-750.0 L-441.67292,-765.0 L-415.69216,-750.0 L-441.67292,-735.0 L-441.67292,-705.0 L-415.69216,-720.0 L-389.7114,-735.0 L-389.7114,-765.0 L-415.69216,-780.0 L-415.69216,-810.0 L-389.7114,-795.0 L-363.73064,-810.0 L-389.7114,-825.0 L-415.69216,-840.0 L-441.67292,-825.0 L-441.67292,-795.0 L-467.65368,-780.0 L-493.63444,-765.0 L-493.63444,-795.0 L-467.65368,-810.0 L-493.63444,-825.0 L-519.6152,-810.0 L-519.6152,-780.0 L-545.59596,-765.0 L-545.59596,-795.0 L-571.57672,-810.0 L-571.57672,-780.0 L-571.57672,-750.0 L-545.59596,-735.0 L-545.59596,-705.0 L-571.57672,-690.0 L-597.55748,-675.0 L-597.55748,-705.0 L-571.57672,-720.0 L-597.55748,-735.0 L-623.53824,-720.0 L-649.519,-735.0 L-649.519,-765.0 L-649.519,-795.0 L-623.53824,-780.0 L-623.53824,-750.0 L-597.55748,-765.0 L-597.55748,-795.0 L-623.53824,-810.0 L-623.53824,-840.0 L-597.55748,-825.0 L-571.57672,-840.0 L-597.55748,-855.0 L-623.53824,-870.0 L-649.519,-855.0 L-649.519,-825.0 L-675.49976,-810.0 L-675.49976,-840.0 L-701.48052,-855.0 L-701.48052,-825.0 L-701.48052,-795.0 L-675.49976,-780.0 L-675.49976,-750.0 L-701.48052,-735.0 L-701.48052,-765.0 L-727.46128,-780.0 L-727.46128,-750.0 L-727.46128,-720.0 L-701.48052,-705.0 L-675.49976,-720.0 L-649.519,-705.0 L-623.53824,-690.0 L-649.519,-675.0 L-675.49976,-690.0 L-675.49976,-660.0 L-649.519,-645.0 L-649.519,-615.0 L-675.49976,-600.0 L-675.49976,-630.0 L-701.48052,-645.0 L-701.48052,-615.0 L-701.48052,-585.0 L-675.49976,-570.0 L-675.49976,-540.0 L-701.48052,-525.0 L-727.46128,-510.0 L-727.46128,-540.0 L-701.48052,-555.0 L-727.46128,-570.0 L-753.44204,-555.0 L-753.44204,-525.0 L-779.4228,-510.0 L-805.40356,-495.0 L-805.40356,-525.0 L-779.4228,-540.0 L-805.40356,-555.0 L-831.38432,-540.0 L-857.36508,-555.0 L-857.36508,-585.0 L-857.36508,-615.0 L-831.38432,-600.0 L-831.38432,-570.0 L-805.40356,-585.0 L-805.40356,-615.0 L-779.4228,-630.0 L-753.44204,-615.0 L-779.4228,-600.0 L-779.4228,-570.0 L-753.44204,-585.0 L-727.46128,-600.0 L-727.46128,-630.0 L-753.44204,-645.0 L-753.44204,-675.0 L-727.46128,-660.0 L-701.48052,-675.0 L-727.46128,-690.0 L-753.44204,-705.0 L-779.4228,-690.0 L-779.4228,-660.0 L-805.40356,-645.0 L-831.38432,-630.0 L-831.38432,-660.0 L-805.40356,-675.0 L-831.38432,-690.0 L-857.36508,-675.0 L-883.34584,-690.0 L-883.34584,-720.0 L-857.36508,-705.0 L-831.38432,-720.0 L-857.36508,-735.0 L-883.34584,-750.0 L-909.3266,-735.0 L-935.30736,-750.0 L-935.30736,-780.0 L-935.30736,-810.0 L-909.3266,-795.0 L-909.3266,-765.0 L-883.34584,-780.0 L-883.34584,-810.0 L-909.3266,-825.0 L-909.3266,-855.0 L-909.3266,-885.0 L-883.34584,-870.0 L-883.34584,-840.0 L-857.36508,-855.0 L-857.36508,-885.0 L-831.38432,-900.0 L-805.40356,-885.0 L-779.4228,-870.0 L-805.40356,-855.0 L-831.38432,-870.0 L-831.38432,-840.0 L-805.40356,-825.0 L-805.40356,-795.0 L-831.38432,-780.0 L-831.38432,-810.0 L-857.36508,-825.0 L-857.36508,-795.0 L-857.36508,-765.0 L-831.38432,-750.0 L-805.40356,-765.0 L-779.4228,-750.0 L-805.40356,-735.0 L-805.40356,-705.0 L-779.4228,-720.0 L-753.44204,-735.0 L-753.44204,-765.0 L-779.4228,-780.0 L-779.4228,-810.0 L-779.4228,-840.0 L-753.44204,-825.0 L-753.44204,-795.0 L-727.46128,-810.0 L-727.46128,-840.0 L-753.44204,-855.0 L-753.44204,-885.0 L-727.46128,-870.0 L-701.48052,-885.0 L-727.46128,-900.0 L-753.44204,-915.0 L-779.4228,-900.0 L-805.40356,-915.0 L-805.40356,-945.0 L-805.40356,-975.0 L-779.4228,-960.0 L-779.4228,-930.0 L-753.44204,-945.0 L-753.44204,-975.0 L-727.46128,-990.0 L-701.48052,-975.0 L-675.49976,-960.0 L-701.48052,-945.0 L-727.46128,-960.0 L-727.46128,-930.0 L-701.48052,-915.0 L-675.49976,-930.0 L-649.519,-915.0 L-675.49976,-900.0 L-675.49976,-870.0 L-649.519,-885.0 L-623.53824,-900.0 L-623.53824,-930.0 L-649.519,-945.0 L-649.519,-975.0 L-623.53824,-960.0 L-597.55748,-975.0 L-623.53824,-990.0 L-649.519,-1005.0 L-675.49976,-990.0 L-701.48052,-1005.0 L-701.48052,-1035.0 L-675.49976,-1020.0 L-649.519,-1035.0 L-675.49976,-1050.0 L-701.48052,-1065.0 L-727.46128,-1050.0 L-727.46128,-1020.0 L-753.44204,-1005.0 L-779.4228,-990.0 L-779.4228,-1020.0 L-753.44204,-1035.0 L-779.4228,-1050.0 L-805.40356,-1035.0 L-805.40356,-1005.0 L-831.38432,-990.0 L-831.38432,-1020.0 L-857.36508,-1035.0 L-857.36508,-1005.0 L-857.36508,-975.0 L-831.38432,-960.0 L-831.38432,-930.0 L-857.36508,-915.0 L-883.34584,-900.0 L-883.34584,-930.0 L-857.36508,-945.0 L-883.34584,-960.0 L-909.3266,-945.0 L-935.30736,-960.0 L-935.30736,-990.0 L-935.30736,-1020.0 L-909.3266,-1005.0 L-909.3266,-975.0 L-883.34584,-990.0 L-883.34584,-1020.0 L-909.3266,-1035.0 L-909.3266,-1065.0 L-883.34584,-1050.0 L-857.36508,-1065.0 L-883.34584,-1080.0 L-909.3266,-1095.0 L-935.30736,-1080.0 L-935.30736,-1050.0 L-961.28812,-1035.0 L-961.28812,-1065.0 L-987.26888,-1080.0 L-987.26888,-1050.0 L-987.26888,-1020.0 L-961.28812,-1005.0 L-961.28812,-975.0 L-987.26888,-960.0 L-987.26888,-990.0 L-1013.24964,-1005.0 L-1013.24964,-975.0 L-1013.24964,-945.0 L-987.26888,-930.0 L-961.28812,-945.0 L-935.30736,-930.0 L-909.3266,-915.0 L-935.30736,-900.0 L-961.28812,-915.0 L-961.28812,-885.0 L-935.30736,-870.0 L-935.30736,-840.0 L-961.28812,-825.0 L-961.28812,-855.0 L-987.26888,-870.0 L-987.26888,-840.0 L-987.26888,-810.0 L-961.28812,-795.0 L-961.28812,-765.0 L-987.26888,-750.0 L-1013.24964,-735.0 L-1013.24964,-765.0 L-987.26888,-780.0 L-1013.24964,-795.0 L-1039.2304,-780.0 L-1065.21116,-795.0 L-1065.21116,-825.0 L-1065.21116,-855.0 L-1039.2304,-840.0 L-1039.2304,-810.0 L-1013.24964,-825.0 L-1013.24964,-855.0 L-1039.2304,-870.0 L-1039.2304,-900.0 L-1013.24964,-885.0 L-987.26888,-900.0 L-1013.24964,-915.0 L-1039.2304,-930.0 L-1065.21116,-915.0 L-1065.21116,-885.0 L-1091.19192,-870.0 L-1091.19192,-900.0 L-1117.17268,-915.0 L-1117.17268,-885.0 L-1117.17268,-855.0 L-1091.19192,-840.0 L-1091.19192,-810.0 L-1117.17268,-795.0 L-1117.17268,-825.0 L-1143.15344,-840.0 L-1143.15344,-810.0 L-1143.15344,-780.0 L-1117.17268,-765.0 L-1091.19192,-780.0 L-1065.21116,-765.0 L-1039.2304,-750.0 L-1065.21116,-735.0 L-1091.19192,-750.0 L-1091.19192,-720.0 L-1065.21116,-705.0 L-1039.2304,-720.0 L-1013.24964,-705.0 L-1039.2304,-690.0 L-1039.2304,-660.0 L-1013.24964,-675.0 L-987.26888,-690.0 L-987.26888,-720.0 L-961.28812,-735.0 L-935.30736,-720.0 L-909.3266,-705.0 L-935.30736,-690.0 L-961.28812,-705.0 L-961.28812,-675.0 L-935.30736,-660.0 L-909.3266,-675.0 L-883.34584,-660.0 L-857.36508,-645.0 L-883.34584,-630.0 L-909.3266,-645.0 L-909.3266,-615.0 L-883.34584,-600.0 L-883.34584,-570.0 L-909.3266,-555.0 L-935.30736,-540.0 L-935.30736,-570.0 L-909.3266,-585.0 L-935.30736,-600.0 L-961.28812,-585.0 L-987.26888,-600.0 L-987.26888,-630.0 L-961.28812,-615.0 L-935.30736,-630.0 L-961.28812,-645.0 L-987.26888,-660.0 L-1013.24964,-645.0 L-1013.24964,-615.0 L-1039.2304,-600.0 L-1039.2304,-630.0 L-1065.21116,-645.0 L-1065.21116,-615.0 L-1065.21116,-585.0 L-1039.2304,-570.0 L-1013.24964,-585.0 L-987.26888,-570.0 L-961.28812,-555.0 L-987.26888,-540.0 L-1013.24964,-555.0 L-1013.24964,-525.0 L-987.26888,-510.0 L-987.26888,-480.0 L-1013.24964,-465.0 L-1013.24964,-495.0 L-1039.2304,-510.0 L-1039.2304,-480.0 L-1039.2304,-450.0 L-1013.24964,-435.0 L-1013.24964,-405.0 L-1039.2304,-390.0 L-1065.21116,-375.0 L-1065.21116,-405.0 L-1039.2304,-420.0 L-1065.21116,-435.0 L-1091.19192,-420.0 L-1117.17268,-435.0 L-1117.17268,-465.0 L-1117.17268,-495.0 L-1091.19192,-480.0 L-1091.19192,-450.0 L-1065.21116,-465.0 L-1065.21116,-495.0 L-1091.19192,-510.0 L-1091.19192,-540.0 L-1065.21116,-525.0 L-1039.2304,-540.0 L-1065.21116,-555.0 L-1091.19192,-570.0 L-1117.17268,-555.0 L-1117.17268,-525.0 L-1143.15344,-510.0 L-1143.15344,-540.0 L-1169.1342,-555.0 L-1169.1342,-525.0 L-1169.1342,-495.0 L-1143.15344,-480.0 L-1143.15344,-450.0 L-1169.1342,-435.0 L-1169.1342,-465.0 L-1195.11496,-480.0 L-1195.11496,-450.0 L-1195.11496,-420.0 L-1169.1342,-405.0 L-1143.15344,-420.0 L-1117.17268,-405.0 L-1091.19192,-390.0 L-1117.17268,-375.0 L-1143.15344,-390.0 L-1143.15344,-360.0 L-1117.17268,-345.0 L-1117.17268,-315.0 L-1143.15344,-300.0 L-1143.15344,-330.0 L-1169.1342,-345.0 L-1169.1342,-315.0 L-1169.1342,-285.0 L-1143.15344,-270.0 L-1143.15344,-240.0 L-1169.1342,-225.0 L-1195.11496,-210.0 L-1195.11496,-240.0 L-1169.1342,-255.0 L-1195.11496,-270.0 L-1221.09572,-255.0 L-1221.09572,-225.0 L-1247.07648,-210.0 L-1273.05724,-195.0 L-1273.05724,-225.0 L-1247.07648,-240.0 L-1273.05724,-255.0 L-1299.038,-240.0 L-1325.01876,-255.0 L-1325.01876,-285.0 L-1325.01876,-315.0 L-1299.038,-300.0 L-1299.038,-270.0 L-1273.05724,-285.0 L-1273.05724,-315.0 L-1247.07648,-330.0 L-1221.09572,-315.0 L-1247.07648,-300.0 L-1247.07648,-270.0 L-1221.09572,-285.0 L-1195.11496,-300.0 L-1195.11496,-330.0 L-1221.09572,-345.0 L-1221.09572,-375.0 L-1195.11496,-360.0 L-1169.1342,-375.0 L-1195.11496,-390.0 L-1221.09572,-405.0 L-1247.07648,-390.0 L-1247.07648,-360.0 L-1273.05724,-345.0 L-1299.038,-330.0 L-1299.038,-360.0 L-1273.05724,-375.0 L-1299.038,-390.0 L-1325.01876,-375.0 L-1350.99952,-390.0 L-1350.99952,-420.0 L-1325.01876,-405.0 L-1299.038,-420.0 L-1325.01876,-435.0 L-1350.99952,-450.0 L-1376.98028,-435.0 L-1402.96104,-450.0 L-1402.96104,-480.0 L-1402.96104,-510.0 L-1376.98028,-495.0 L-1376.98028,-465.0 L-1350.99952,-480.0 L-1350.99952,-510.0 L-1376.98028,-525.0 L-1376.98028,-555.0 L-1376.98028,-585.0 L-1350.99952,-570.0 L-1350.99952,-540.0 L-1325.01876,-555.0 L-1325.01876,-585.0 L-1299.038,-600.0 L-1273.05724,-585.0 L-1247.07648,-570.0 L-1273.05724,-555.0 L-1299.038,-570.0 L-1299.038,-540.0 L-1273.05724,-525.0 L-1273.05724,-495.0 L-1299.038,-480.0 L-1299.038,-510.0 L-1325.01876,-525.0 L-1325.01876,-495.0 L-1325.01876,-465.0 L-1299.038,-450.0 L-1273.05724,-465.0 L-1247.07648,-450.0 L-1273.05724,-435.0 L-1273.05724,-405.0 L-1247.07648,-420.0 L-1221.09572,-435.0 L-1221.09572,-465.0 L-1247.07648,-480.0 L-1247.07648,-510.0 L-1247.07648,-540.0 L-1221.09572,-525.0 L-1221.09572,-495.0 L-1195.11496,-510.0 L-1195.11496,-540.0 L-1221.09572,-555.0 L-1221.09572,-585.0 L-1195.11496,-570.0 L-1169.1342,-585.0 L-1195.11496,-600.0 L-1221.09572,-615.0 L-1247.07648,-600.0 L-1273.05724,-615.0 L-1273.05724,-645.0 L-1273.05724,-675.0 L-1247.07648,-660.0 L-1247.07648,-630.0 L-1221.09572,-645.0 L-1221.09572,-675.0 L-1195.11496,-690.0 L-1169.1342,-675.0 L-1143.15344,-660.0 L-1169.1342,-645.0 L-1195.11496,-660.0 L-1195.11496,-630.0 L-1169.1342,-615.0 L-1143.15344,-630.0 L-1117.17268,-615.0 L-1143.15344,-600.0 L-1143.15344,-570.0 L-1117.17268,-585.0 L-1091.19192,-600.0 L-1091.19192,-630.0 L-1117.17268,-645.0 L-1117.17268,-675.0 L-1091.19192,-660.0 L-1065.21116,-675.0 L-1091.19192,-690.0 L-1117.17268,-705.0 L-1143.15344,-690.0 L-1169.1342,-705.0 L-1169.1342,-735.0 L-1143.15344,-720.0 L-1117.17268,-735.0 L-1143.15344,-750.0 L-1169.1342,-765.0 L-1195.11496,-750.0 L-1195.11496,-720.0 L-1221.09572,-705.0 L-1247.07648,-690.0 L-1247.07648,-720.0 L-1221.09572,-735.0 L-1247.07648,-750.0 L-1273.05724,-735.0 L-1273.05724,-705.0 L-1299.038,-690.0 L-1299.038,-720.0 L-1325.01876,-735.0 L-1325.01876,-705.0 L-1325.01876,-675.0 L-1299.038,-660.0 L-1299.038,-630.0 L-1325.01876,-615.0 L-1350.99952,-600.0 L-1350.99952,-630.0 L-1325.01876,-645.0 L-1350.99952,-660.0 L-1376.98028,-645.0 L-1402.96104,-660.0 L-1402.96104,-690.0 L-1402.96104,-720.0 L-1376.98028,-705.0 L-1376.98028,-675.0 L-1350.99952,-690.0 L-1350.99952,-720.0 L-1376.98028,-735.0 L-1376.98028,-765.0 L-1350.99952,-750.0 L-1325.01876,-765.0 L-1350.99952,-780.0 L-1376.98028,-795.0 L-1402.96104,-780.0 L-1402.96104,-750.0 L-1428.9418,-735.0 L-1428.9418,-765.0 L-1454.92256,-780.0 L-1454.92256,-750.0 L-1454.92256,-720.0 L-1428.9418,-705.0 L-1428.9418,-675.0 L-1454.92256,-660.0 L-1454.92256,-690.0 L-1480.90332,-705.0 L-1480.90332,-675.0 L-1480.90332,-645.0 L-1454.92256,-630.0 L-1428.9418,-645.0 L-1402.96104,-630.0 L-1376.98028,-615.0 L-1402.96104,-600.0 L-1428.9418,-615.0 L-1428.9418,-585.0 L-1402.96104,-570.0 L-1402.96104,-540.0 L-1428.9418,-525.0 L-1428.9418,-555.0 L-1454.92256,-570.0 L-1454.92256,-540.0 L-1454.92256,-510.0 L-1428.9418,-495.0 L-1428.9418,-465.0 L-1454.92256,-450.0 L-1480.90332,-435.0 L-1480.90332,-465.0 L-1454.92256,-480.0 L-1480.90332,-495.0 L-1506.88408,-480.0 L-1532.86484,-495.0 L-1532.86484,-525.0 L-1532.86484,-555.0 L-1506.88408,-540.0 L-1506.88408,-510.0 L-1480.90332,-525.0 L-1480.90332,-555.0 L-1506.88408,-570.0 L-1506.88408,-600.0 L-1480.90332,-585.0 L-1454.92256,-600.0 L-1480.90332,-615.0 L-1506.88408,-630.0 L-1532.86484,-615.0 L-1532.86484,-585.0 L-1558.8456,-570.0 L-1558.8456,-600.0 L-1584.82636,-615.0 L-1584.82636,-585.0 L-1584.82636,-555.0 L-1558.8456,-540.0 L-1558.8456,-510.0 L-1584.82636,-495.0 L-1584.82636,-525.0 L-1610.80712,-540.0 L-1610.80712,-510.0 L-1610.80712,-480.0 L-1584.82636,-465.0 L-1558.8456,-480.0 L-1532.86484,-465.0 L-1506.88408,-450.0 L-1532.86484,-435.0 L-1558.8456,-450.0 L-1558.8456,-420.0 L-1532.86484,-405.0 L-1506.88408,-420.0 L-1480.90332,-405.0 L-1506.88408,-390.0 L-1506.88408,-360.0 L-1480.90332,-375.0 L-1454.92256,-390.0 L-1454.92256,-420.0 L-1428.9418,-435.0 L-1402.96104,-420.0 L-1376.98028,-405.0 L-1402.96104,-390.0 L-1428.9418,-405.0 L-1428.9418,-375.0 L-1402.96104,-360.0 L-1376.98028,-375.0 L-1350.99952,-360.0 L-1325.01876,-345.0 L-1350.99952,-330.0 L-1376.98028,-345.0 L-1376.98028,-315.0 L-1350.99952,-300.0 L-1350.99952,-270.0 L-1376.98028,-255.0 L-1402.96104,-240.0 L-1402.96104,-270.0 L-1376.98028,-285.0 L-1402.96104,-300.0 L-1428.9418,-285.0 L-1454.92256,-300.0 L-1454.92256,-330.0 L-1428.9418,-315.0 L-1402.96104,-330.0 L-1428.9418,-345.0 L-1454.92256,-360.0 L-1480.90332,-345.0 L-1480.90332,-315.0 L-1506.88408,-300.0 L-1506.88408,-330.0 L-1532.86484,-345.0 L-1532.86484,-315.0 L-1532.86484,-285.0 L-1506.88408,-270.0 L-1480.90332,-285.0 L-1454.92256,-270.0 L-1428.9418,-255.0 L-1454.92256,-240.0 L-1480.90332,-255.0 L-1480.90332,-225.0 L-1454.92256,-210.0 L-1428.9418,-225.0 L-1402.96104,-210.0 L-1428.9418,-195.0 L-1428.9418,-165.0 L-1402.96104,-180.0 L-1376.98028,-195.0 L-1376.98028,-225.0 L-1350.99952,-240.0 L-1325.01876,-225.0 L-1299.038,-210.0 L-1325.01876,-195.0 L-1350.99952,-210.0 L-1350.99952,-180.0 L-1325.01876,-165.0 L-1325.01876,-135.0 L-1350.99952,-120.0 L-1376.98028,-105.0 L-1376.98028,-135.0 L-1350.99952,-150.0 L-1376.98028,-165.0 L-1402.96104,-150.0 L-1402.96104,-120.0 L-1428.9418,-105.0 L-1428.9418,-135.0 L-1454.92256,-150.0 L-1454.92256,-120.0 L-1454.92256,-90.0 L-1428.9418,-75.0 L-1402.96104,-90.0 L-1376.98028,-75.0 L-1402.96104,-60.0 L-1402.96104,-30.0 L-1376.98028,-45.0 L-1350.99952,-60.0 L-1350.99952,-90.0 L-1325.01876,-105.0 L-1299.038,-90.0 L-1325.01876,-75.0 L-1325.01876,-45.0 L-1299.038,-60.0 L-1273.05724,-75.0 L-1273.05724,-105.0 L-1299.038,-120.0 L-1299.038,-150.0 L-1299.038,-180.0 L-1273.05724,-165.0 L-1273.05724,-135.0 L-1247.07648,-150.0 L-1247.07648,-180.0 L-1221.09572,-195.0 L-1195.11496,-180.0 L-1221.09572,-165.0 L-1221.09572,-135.0 L-1195.11496,-150.0 L-1169.1342,-165.0 L-1169.1342,-195.0 L-1143.15344,-210.0 L-1117.17268,-195.0 L-1091.19192,-180.0 L-1117.17268,-165.0 L-1143.15344,-180.0 L-1143.15344,-150.0 L-1117.17268,-135.0 L-1091.19192,-150.0 L-1065.21116,-135.0 L-1039.2304,-120.0 L-1065.21116,-105.0 L-1091.19192,-120.0 L-1091.19192,-90.0 L-1065.21116,-75.0 L-1065.21116,-45.0 L-1091.19192,-30.0 L-1117.17268,-15.0 L-1117.17268,-45.0 L-1091.19192,-60.0 L-1117.17268,-75.0 L-1143.15344,-60.0 L-1169.1342,-75.0 L-1169.1342,-105.0 L-1143.15344,-90.0 L-1117.17268,-105.0 L-1143.15344,-120.0 L-1169.1342,-135.0 L-1195.11496,-120.0 L-1195.11496,-90.0 L-1221.09572,-75.0 L-1221.09572,-105.0 L-1247.07648,-120.0 L-1247.07648,-90.0 L-1247.07648,-60.0 L-1221.09572,-45.0 L-1195.11496,-60.0 L-1169.1342,-45.0 L-1143.15344,-30.0 L-1169.1342,-15.0 L-1195.11496,-30.0 L-1195.11496,0.0 L-1169.1342,15.0 L-1143.15344,0.0 L-1117.17268,15.0 L-1143.15344,30.0 L-1143.15344,60.0 L-1117.17268,45.0 L-1091.19192,30.0 L-1091.19192,0.0 L-1065.21116,-15.0 L-1039.2304,0.0 L-1013.24964,15.0 L-1039.2304,30.0 L-1065.21116,15.0 L-1065.21116,45.0 L-1039.2304,60.0 L-1013.24964,45.0 L-987.26888,60.0 L-961.28812,75.0 L-987.26888,90.0 L-1013.24964,75.0 L-1013.24964,105.0 L-987.26888,120.0 L-987.26888,150.0 L-1013.24964,165.0 L-1039.2304,180.0 L-1039.2304,150.0 L-1013.24964,135.0 L-1039.2304,120.0 L-1065.21116,135.0 L-1091.19192,120.0 L-1091.19192,90.0 L-1065.21116,105.0 L-1039.2304,90.0 L-1065.21116,75.0 L-1091.19192,60.0 L-1117.17268,75.0 L-1117.17268,105.0 L-1143.15344,120.0 L-1143.15344,90.0 L-1169.1342,75.0 L-1169.1342,105.0 L-1169.1342,135.0 L-1143.15344,150.0 L-1117.17268,135.0 L-1091.19192,150.0 L-1065.21116,165.0 L-1091.19192,180.0 L-1117.17268,165.0 L-1117.17268,195.0 L-1091.19192,210.0 L-1091.19192,240.0 L-1117.17268,255.0 L-1117.17268,225.0 L-1143.15344,210.0 L-1143.15344,240.0 L-1143.15344,270.0 L-1117.17268,285.0 L-1117.17268,315.0 L-1143.15344,330.0 L-1169.1342,345.0 L-1169.1342,315.0 L-1143.15344,300.0 L-1169.1342,285.0 L-1195.11496,300.0 L-1195.11496,330.0 L-1221.09572,345.0 L-1247.07648,360.0 L-1247.07648,330.0 L-1221.09572,315.0 L-1247.07648,300.0 L-1273.05724,315.0 L-1299.038,300.0 L-1299.038,270.0 L-1299.038,240.0 L-1273.05724,255.0 L-1273.05724,285.0 L-1247.07648,270.0 L-1247.07648,240.0 L-1221.09572,225.0 L-1195.11496,240.0 L-1221.09572,255.0 L-1221.09572,285.0 L-1195.11496,270.0 L-1169.1342,255.0 L-1169.1342,225.0 L-1195.11496,210.0 L-1195.11496,180.0 L-1169.1342,195.0 L-1143.15344,180.0 L-1169.1342,165.0 L-1195.11496,150.0 L-1221.09572,165.0 L-1221.09572,195.0 L-1247.07648,210.0 L-1273.05724,225.0 L-1273.05724,195.0 L-1247.07648,180.0 L-1273.05724,165.0 L-1299.038,180.0 L-1325.01876,165.0 L-1325.01876,135.0 L-1299.038,150.0 L-1273.05724,135.0 L-1299.038,120.0 L-1325.01876,105.0 L-1350.99952,120.0 L-1376.98028,105.0 L-1376.98028,75.0 L-1376.98028,45.0 L-1350.99952,60.0 L-1350.99952,90.0 L-1325.01876,75.0 L-1325.01876,45.0 L-1299.038,30.0 L-1273.05724,45.0 L-1247.07648,60.0 L-1273.05724,75.0 L-1299.038,60.0 L-1299.038,90.0 L-1273.05724,105.0 L-1247.07648,90.0 L-1221.09572,105.0 L-1247.07648,120.0 L-1247.07648,150.0 L-1221.09572,135.0 L-1195.11496,120.0 L-1195.11496,90.0 L-1221.09572,75.0 L-1221.09572,45.0 L-1195.11496,60.0 L-1169.1342,45.0 L-1195.11496,30.0 L-1221.09572,15.0 L-1247.07648,30.0 L-1273.05724,15.0 L-1273.05724,-15.0 L-1247.07648,0.0 L-1221.09572,-15.0 L-1247.07648,-30.0 L-1273.05724,-45.0 L-1299.038,-30.0 L-1299.038,0.0 L-1325.01876,15.0 L-1350.99952,30.0 L-1350.99952,0.0 L-1325.01876,-15.0 L-1350.99952,-30.0 L-1376.98028,-15.0 L-1376.98028,15.0 L-1402.96104,30.0 L-1402.96104,0.0 L-1428.9418,-15.0 L-1428.9418,15.0 L-1428.9418,45.0 L-1402.96104,60.0 L-1402.96104,90.0 L-1428.9418,105.0 L-1454.92256,120.0 L-1454.92256,90.0 L-1428.9418,75.0 L-1454.92256,60.0 L-1480.90332,75.0 L-1506.88408,60.0 L-1506.88408,30.0 L-1506.88408,0.0 L-1480.90332,15.0 L-1480.90332,45.0 L-1454.92256,30.0 L-1454.92256,0.0 L-1480.90332,-15.0 L-1480.90332,-45.0 L-1454.92256,-30.0 L-1428.9418,-45.0 L-1454.92256,-60.0 L-1480.90332,-75.0 L-1506.88408,-60.0 L-1506.88408,-30.0 L-1532.86484,-15.0 L-1532.86484,-45.0 L-1558.8456,-60.0 L-1558.8456,-30.0 L-1558.8456,0.0 L-1532.86484,15.0 L-1532.86484,45.0 L-1558.8456,60.0 L-1558.8456,30.0 L-1584.82636,15.0 L-1584.82636,45.0 L-1584.82636,75.0 L-1558.8456,90.0 L-1532.86484,75.0 L-1506.88408,90.0 L-1480.90332,105.0 L-1506.88408,120.0 L-1532.86484,105.0 L-1532.86484,135.0 L-1506.88408,150.0 L-1480.90332,135.0 L-1454.92256,150.0 L-1480.90332,165.0 L-1480.90332,195.0 L-1454.92256,180.0 L-1428.9418,165.0 L-1428.9418,135.0 L-1402.96104,120.0 L-1376.98028,135.0 L-1350.99952,150.0 L-1376.98028,165.0 L-1402.96104,150.0 L-1402.96104,180.0 L-1376.98028,195.0 L-1350.99952,180.0 L-1325.01876,195.0 L-1299.038,210.0 L-1325.01876,225.0 L-1350.99952,210.0 L-1350.99952,240.0 L-1325.01876,255.0 L-1325.01876,285.0 L-1350.99952,300.0 L-1376.98028,315.0 L-1376.98028,285.0 L-1350.99952,270.0 L-1376.98028,255.0 L-1402.96104,270.0 L-1428.9418,255.0 L-1428.9418,225.0 L-1402.96104,240.0 L-1376.98028,225.0 L-1402.96104,210.0 L-1428.9418,195.0 L-1454.92256,210.0 L-1454.92256,240.0 L-1480.90332,255.0 L-1480.90332,225.0 L-1506.88408,210.0 L-1506.88408,240.0 L-1506.88408,270.0 L-1480.90332,285.0 L-1454.92256,270.0 L-1428.9418,285.0 L-1402.96104,300.0 L-1428.9418,315.0 L-1454.92256,300.0 L-1454.92256,330.0 L-1428.9418,345.0 " style="fill:none;stroke-width:3;stroke:red;"></path></g></svg>