<svg height="600" overflow="visible" preserveAspectRatio="xMidYMid meet" version="1.0" width="1000" xmlns:xlink="http://www.w3.org/1999/xlink" xmlns="http://www.w3.org/2000/svg" zoomAndPan="magnify"><g transform="translate(132.98969,467.01031) scale(0.61856,-0.61856)"><path d="M0.0,0.0 L0.0,15.0 L-15.0,15.0 L-30.0,15.0 L-30.0,30.0 L-30.0,45.0 L-15.0,45.0 L-15.0,30.0 L0.0,30.0 L0.0,45.0 L0.0,60.0 L15.0,60.0 L15.0,45.0 L30.0,45.0 L30.0,60.0 L30.0,75.0 L15.0,75.0 L0.0,75.0 L0.0,90.0 L-15.0,90.0 L-15.0,75.0 L-15.0,60.0 L-30.0,60.0 L-45.0,60.0 L-45.0,75.0 L-30.0,75.0 L-30.0,90.0 L-45.0,90.0 L-60.0,90.0 L-60.0,105.0 L-45.0,105.0 L-45.0,120.0 L-60.0,120.0 L-75.0,120.0 L-75.0,105.0 L-75.0,90.0 L-90.0,90.0 L-105.0,90.0 L-105.0,75.0 L-105.0,60.0 L-120.0,60.0 L-135.0,60.0 L-135.0,75.0 L-120.0,75.0 L-120.0,90.0 L-135.0,90.0 L-150.0,90.0 L-150.0,105.0 L-135.0,105.0 L-135.0,120.0 L-150.0,120.0 L-165.0,120.0 L-165.0,105.0 L-165.0,90.0 L-180.0,90.0 L-180.0,105.0 L-195.0,105.0 L-210.0,105.0 L-210.0,120.0 L-210.0,135.0 L-195.0,135.0 L-195.0,120.0 L-180.0,120.0 L-180.0,135.0 L-180.0,150.0 L-165.0,150.0 L-165.0,135.0 L-150.0,135.0 L-150.0,150.0 L-150.0,165.0 L-165.0,165.0 L-180.0,165.0 L-180.0,180.0 L-180.0,195.0 L-195.0,195.0 L-210.0,195.0 L-210.0,210.0 L-210.0,225.0 L-195.0,225.0 L-195.0,210.0 L-180.0,210.0 L-180.0,225.0 L-180.0,240.0 L-165.0,240.0 L-165.0,225.0 L-150.0,225.0 L-150.0,240.0 L-150.0,255.0 L-165.0,255.0 L-180.0,255.0 L-180.0,270.0 L-165.0,270.0 L-165.0,285.0 L-165.0,300.0 L-150.0,300.0 L-135.0,300.0 L-135.0,285.0 L-150.0,285.0 L-150.0,270.0 L-135.0,270.0 L-120.0,270.0 L-120.0,255.0 L-135.0,255.0 L-135.0,240.0 L-120.0,240.0 L-105.0,240.0 L-105.0,255.0 L-105.0,270.0 L-90.0,270.0 L-90.0,255.0 L-75.0,255.0 L-60.0,255.0 L-60.0,240.0 L-60.0,225.0 L-75.0,225.0 L-75.0,240.0 L-90.0,240.0 L-90.0,225.0 L-90.0,210.0 L-105.0,210.0 L-105.0,225.0 L-120.0,225.0 L-120.0,210.0 L-120.0,195.0 L-105.0,195.0 L-90.0,195.0 L-90.0,180.0 L-75.0,180.0 L-75.0,195.0 L-75.0,210.0 L-60.0,210.0 L-45.0,210.0 L-45.0,195.0 L-60.0,195.0 L-60.0,180.0 L-45.0,180.0 L-30.0,180.0 L-30.0,165.0 L-45.0,165.0 L-45.0,150.0 L-30.0,150.0 L-15.0,150.0 L-15.0,165.0 L-15.0,180.0 L0.0,180.0 L0.0,195.0 L-15.0,195.0 L-30.0,195.0 L-30.0,210.0 L-30.0,225.0 L-15.0,225.0 L-15.0,210.0 L0.0,210.0 L0.0,225.0 L0.0,240.0 L15.0,240.0 L15.0,225.0 L30.0,225.0 L30.0,240.0 L30.0,255.0 L15.0,255.0 L0.0,255.0 L0.0,270.0 L0.0,285.0 L-15.0,285.0 L-30.0,285.0 L-30.0,300.0 L-30.0,315.0 L-15.0,315.0 L-15.0,300.0 L0.0,300.0 L0.0,315.0 L0.0,330.0 L15.0,330.0 L15.0,315.0 L30.0,315.0 L30.0,330.0 L30.0,345.0 L15.0,345.0 L0.0,345.0 L0.0,360.0 L15.0,360.0 L15.0,375.0 L15.0,390.0 L30.0,390.0 L45.0,390.0 L45.0,375.0 L30.0,375.0 L30.0,360.0 L45.0,360.0 L60.0,360.0 L60.0,345.0 L45.0,345.0 L45.0,330.0 L60.0,330.0 L75.0,330.0 L75.0,345.0 L75.0,360.0 L90.0,360.0 L90.0,345.0 L105.0,345.0 L120.0,345.0 L120.0,330.0 L120.0,315.0 L105.0,315.0 L105.0,330.0 L90.0,330.0 L90.0,315.0 L90.0,300.0 L75.0,300.0 L75.0,315.0 L60.0,315.0 L60.0,300.0 L60.0,285.0 L75.0,285.0 L90.0,285.0 L90.0,270.0 L105.0,270.0 L105.0,285.0 L105.0,300.0 L120.0,300.0 L135.0,300.0 L135.0,285.0 L120.0,285.0 L120.0,270.0 L135.0,270.0 L150.0,270.0 L150.0,255.0 L135.0,255.0 L135.0,240.0 L150.0,240.0 L165.0,240.0 L165.0,255.0 L165.0,270.0 L180.0,270.0 L180.0,285.0 L165.0,285.0 L150.0,285.0 L150.0,300.0 L150.0,315.0 L165.0,315.0 L165.0,300.0 L180.0,300.0 L180.0,315.0 L180.0,330.0 L195.0,330.0 L195.0,315.0 L210.0,315.0 L210.0,330.0 L210.0,345.0 L195.0,345.0 L180.0,345.0 L180.0,360.0 L180.0,375.0 L165.0,375.0 L150.0,375.0 L150.0,390.0 L150.0,405.0 L165.0,405.0 L165.0,390.0 L180.0,390.0 L180.0,405.0 L180.0,420.0 L195.0,420.0 L195.0,405.0 L210.0,405.0 L210.0,420.0 L210.0,435.0 L195.0,435.0 L180.0,435.0 L180.0,450.0 L165.0,450.0 L165.0,435.0 L165.0,420.0 L150.0,420.0 L135.0,420.0 L135.0,435.0 L150.0,435.0 L150.0,450.0 L135.0,450.0 L120.0,450.0 L120.0,465.0 L135.0,465.0 L135.0,480.0 L120.0,480.0 L105.0,480.0 L105.0,465.0 L105.0,450.0 L90.0,450.0 L75.0,450.0 L75.0,435.0 L75.0,420.0 L60.0,420.0 L45.0,420.0 L45.0,435.0 L60.0,435.0 L60.0,450.0 L45.0,450.0 L30.0,450.0 L30.0,465.0 L45.0,465.0 L45.0,480.0 L30.0,480.0 L15.0,480.0 L15.0,465.0 L15.0,450.0 L0.0,450.0 L0.0,465.0 L-15.0,465.0 L-30.0,465.0 L-30.0,480.0 L-30.0,495.0 L-15.0,495.0 L-15.0,480.0 L0.0,480.0 L0.0,495.0 L0.0,510.0 L15.0,510.0 L15.0,495.0 L30.0,495.0 L30.0,510.0 L30.0,525.0 L15.0,525.0 L0.0,525.0 L0.0,540.0 L15.0,540.0 L15.0,555.0 L15.0,570.0 L30.0,570.0 L45.0,570.0 L45.0,555.0 L30.0,555.0 L30.0,540.0 L45.0,540.0 L60.0,540.0 L60.0,525.0 L45.0,525.0 L45.0,510.0 L60.0,510.0 L75.0,510.0 L75.0,525.0 L75.0,540.0 L90.0,540.0 L90.0,555.0 L75.0,555.0 L60.0,555.0 L60.0,570.0 L60.0,585.0 L75.0,585.0 L75.0,570.0 L90.0,570.0 L90.0,585.0 L90.0,600.0 L105.0,600.0 L105.0,585.0 L120.0,585.0 L120.0,600.0 L120.0,615.0 L105.0,615.0 L90.0,615.0 L90.0,630.0 L90.0,645.0 L75.0,645.0 L60.0,645.0 L60.0,660.0 L60.0,675.0 L75.0,675.0 L75.0,660.0 L90.0,660.0 L90.0,675.0 L90.0,690.0 L105.0,690.0 L105.0,675.0 L120.0,675.0 L120.0,690.0 L120.0,705.0 L105.0,705.0 L90.0,705.0 L90.0,720.0 L105.0,720.0 L105.0,735.0 L105.0,750.0 L120.0,750.0 L135.0,750.0 L135.0,735.0 L120.0,735.0 L120.0,720.0 L135.0,720.0 L150.0,720.0 L150.0,705.0 L135.0,705.0 L135.0,690.0 L150.0,690.0 L165.0,690.0 L165.0,705.0 L165.0,720.0 L180.0,720.0 L195.0,720.0 L195.0,735.0 L195.0,750.0 L210.0,750.0 L225.0,750.0 L225.0,735.0 L210.0,735.0 L210.0,720.0 L225.0,720.0 L240.0,720.0 L240.0,705.0 L225.0,705.0 L225.0,690.0 L240.0,690.0 L255.0,690.0 L255.0,705.0 L255.0,720.0 L270.0,720.0 L270.0,705.0 L285.0,705.0 L300.0,705.0 L300.0,690.0 L300.0,675.0 L285.0,675.0 L285.0,690.0 L270.0,690.0 L270.0,675.0 L270.0,660.0 L255.0,660.0 L255.0,675.0 L240.0,675.0 L240.0,660.0 L240.0,645.0 L255.0,645.0 L270.0,645.0 L270.0,630.0 L255.0,630.0 L255.0,615.0 L255.0,600.0 L240.0,600.0 L225.0,600.0 L225.0,615.0 L240.0,615.0 L240.0,630.0 L225.0,630.0 L210.0,630.0 L210.0,645.0 L225.0,645.0 L225.0,660.0 L210.0,660.0 L195.0,660.0 L195.0,645.0 L195.0,630.0 L180.0,630.0 L180.0,615.0 L195.0,615.0 L210.0,615.0 L210.0,600.0 L210.0,585.0 L195.0,585.0 L195.0,600.0 L180.0,600.0 L180.0,585.0 L180.0,570.0 L165.0,570.0 L165.0,585.0 L150.0,585.0 L150.0,570.0 L150.0,555.0 L165.0,555.0 L180.0,555.0 L180.0,540.0 L195.0,540.0 L195.0,555.0 L195.0,570.0 L210.0,570.0 L225.0,570.0 L225.0,555.0 L210.0,555.0 L210.0,540.0 L225.0,540.0 L240.0,540.0 L240.0,525.0 L225.0,525.0 L225.0,510.0 L240.0,510.0 L255.0,510.0 L255.0,525.0 L255.0,540.0 L270.0,540.0 L285.0,540.0 L285.0,555.0 L285.0,570.0 L300.0,570.0 L315.0,570.0 L315.0,555.0 L300.0,555.0 L300.0,540.0 L315.0,540.0 L330.0,540.0 L330.0,525.0 L315.0,525.0 L315.0,510.0 L330.0,510.0 L345.0,510.0 L345.0,525.0 L345.0,540.0 L360.0,540.0 L360.0,525.0 L375.0,525.0 L390.0,525.0 L390.0,510.0 L390.0,495.0 L375.0,495.0 L375.0,510.0 L360.0,510.0 L360.0,495.0 L360.0,480.0 L345.0,480.0 L345.0,495.0 L330.0,495.0 L330.0,480.0 L330.0,465.0 L345.0,465.0 L360.0,465.0 L360.0,450.0 L345.0,450.0 L345.0,435.0 L345.0,420.0 L330.0,420.0 L315.0,420.0 L315.0,435.0 L330.0,435.0 L330.0,450.0 L315.0,450.0 L300.0,450.0 L300.0,465.0 L315.0,465.0 L315.0,480.0 L300.0,480.0 L285.0,480.0 L285.0,465.0 L285.0,450.0 L270.0,450.0 L270.0,435.0 L285.0,435.0 L300.0,435.0 L300.0,420.0 L300.0,405.0 L285.0,405.0 L285.0,420.0 L270.0,420.0 L270.0,405.0 L270.0,390.0 L255.0,390.0 L255.0,405.0 L240.0,405.0 L240.0,390.0 L240.0,375.0 L255.0,375.0 L270.0,375.0 L270.0,360.0 L285.0,360.0 L285.0,375.0 L285.0,390.0 L300.0,390.0 L315.0,390.0 L315.0,375.0 L300.0,375.0 L300.0,360.0 L315.0,360.0 L330.0,360.0 L330.0,345.0 L315.0,345.0 L315.0,330.0 L330.0,330.0 L345.0,330.0 L345.0,345.0 L345.0,360.0 L360.0,360.0 L375.0,360.0 L375.0,375.0 L375.0,390.0 L390.0,390.0 L405.0,390.0 L405.0,375.0 L390.0,375.0 L390.0,360.0 L405.0,360.0 L420.0,360.0 L420.0,345.0 L405.0,345.0 L405.0,330.0 L420.0,330.0 L435.0,330.0 L435.0,345.0 L435.0,360.0 L450.0,360.0 L450.0,375.0 L435.0,375.0 L420.0,375.0 L420.0,390.0 L420.0,405.0 L435.0,405.0 L435.0,390.0 L450.0,390.0 L450.0,405.0 L450.0,420.0 L465.0,420.0 L465.0,405.0 L480.0,405.0 L480.0,420.0 L480.0,435.0 L465.0,435.0 L450.0,435.0 L450.0,450.0 L450.0,465.0 L435.0,465.0 L420.0,465.0 L420.0,480.0 L420.0,495.0 L435.0,495.0 L435.0,480.0 L450.0,480.0 L450.0,495.0 L450.0,510.0 L465.0,510.0 L465.0,495.0 L480.0,495.0 L480.0,510.0 L480.0,525.0 L465.0,525.0 L450.0,525.0 L450.0,540.0 L465.0,540.0 L465.0,555.0 L465.0,570.0 L480.0,570.0 L495.0,570.0 L495.0,555.0 L480.0,555.0 L480.0,540.0 L495.0,540.0 L510.0,540.0 L510.0,525.0 L495.0,525.0 L495.0,510.0 L510.0,510.0 L525.0,510.0 L525.0,525.0 L525.0,540.0 L540.0,540.0 L540.0,525.0 L555.0,525.0 L570.0,525.0 L570.0,510.0 L570.0,495.0 L555.0,495.0 L555.0,510.0 L540.0,510.0 L540.0,495.0 L540.0,480.0 L525.0,480.0 L525.0,495.0 L510.0,495.0 L510.0,480.0 L510.0,465.0 L525.0,465.0 L540.0,465.0 L540.0,450.0 L555.0,450.0 L555.0,465.0 L555.0,480.0 L570.0,480.0 L585.0,480.0 L585.0,465.0 L570.0,465.0 L570.0,450.0 L585.0,450.0 L600.0,450.0 L600.0,435.0 L585.0,435.0 L585.0,420.0 L600.0,420.0 L615.0,420.0 L615.0,435.0 L615.0,450.0 L630.0,450.0 L645.0,450.0 L645.0,465.0 L645.0,480.0 L660.0,480.0 L675.0,480.0 L675.0,465.0 L660.0,465.0 L660.0,450.0 L675.0,450.0 L690.0,450.0 L690.0,435.0 L675.0,435.0 L675.0,420.0 L690.0,420.0 L705.0,420.0 L705.0,435.0 L705.0,450.0 L720.0,450.0 L720.0,435.0 L735.0,435.0 L750.0,435.0 L750.0,420.0 L750.0,405.0 L735.0,405.0 L735.0,420.0 L720.0,420.0 L720.0,405.0 L720.0,390.0 L705.0,390.0 L705.0,405.0 L690.0,405.0 L690.0,390.0 L690.0,375.0 L705.0,375.0 L720.0,375.0 L720.0,360.0 L720.0,345.0 L735.0,345.0 L750.0,345.0 L750.0,330.0 L750.0,315.0 L735.0,315.0 L735.0,330.0 L720.0,330.0 L720.0,315.0 L720.0,300.0 L705.0,300.0 L705.0,315.0 L690.0,315.0 L690.0,300.0 L690.0,285.0 L705.0,285.0 L720.0,285.0 L720.0,270.0 L705.0,270.0 L705.0,255.0 L705.0,240.0 L690.0,240.0 L675.0,240.0 L675.0,255.0 L690.0,255.0 L690.0,270.0 L675.0,270.0 L660.0,270.0 L660.0,285.0 L675.0,285.0 L675.0,300.0 L660.0,300.0 L645.0,300.0 L645.0,285.0 L645.0,270.0 L630.0,270.0 L630.0,285.0 L615.0,285.0 L600.0,285.0 L600.0,300.0 L600.0,315.0 L615.0,315.0 L615.0,300.0 L630.0,300.0 L630.0,315.0 L630.0,330.0 L645.0,330.0 L645.0,315.0 L660.0,315.0 L660.0,330.0 L660.0,345.0 L645.0,345.0 L630.0,345.0 L630.0,360.0 L615.0,360.0 L615.0,345.0 L615.0,330.0 L600.0,330.0 L585.0,330.0 L585.0,345.0 L600.0,345.0 L600.0,360.0 L585.0,360.0 L570.0,360.0 L570.0,375.0 L585.0,375.0 L585.0,390.0 L570.0,390.0 L555.0,390.0 L555.0,375.0 L555.0,360.0 L540.0,360.0 L540.0,345.0 L555.0,345.0 L570.0,345.0 L570.0,330.0 L570.0,315.0 L555.0,315.0 L555.0,330.0 L540.0,330.0 L540.0,315.0 L540.0,300.0 L525.0,300.0 L525.0,315.0 L510.0,315.0 L510.0,300.0 L510.0,285.0 L525.0,285.0 L540.0,285.0 L540.0,270.0 L540.0,255.0 L555.0,255.0 L570.0,255.0 L570.0,240.0 L570.0,225.0 L555.0,225.0 L555.0,240.0 L540.0,240.0 L540.0,225.0 L540.0,210.0 L525.0,210.0 L525.0,225.0 L510.0,225.0 L510.0,210.0 L510.0,195.0 L525.0,195.0 L540.0,195.0 L540.0,180.0 L525.0,180.0 L525.0,165.0 L525.0,150.0 L510.0,150.0 L495.0,150.0 L495.0,165.0 L510.0,165.0 L510.0,180.0 L495.0,180.0 L480.0,180.0 L480.0,195.0 L495.0,195.0 L495.0,210.0 L480.0,210.0 L465.0,210.0 L465.0,195.0 L465.0,180.0 L450.0,180.0 L450.0,195.0 L435.0,195.0 L420.0,195.0 L420.0,210.0 L420.0,225.0 L435.0,225.0 L435.0,210.0 L450.0,210.0 L450.0,225.0 L450.0,240.0 L465.0,240.0 L465.0,225.0 L480.0,225.0 L480.0,240.0 L480.0,255.0 L465.0,255.0 L450.0,255.0 L450.0,270.0 L435.0,270.0 L435.0,255.0 L435.0,240.0 L420.0,240.0 L405.0,240.0 L405.0,255.0 L420.0,255.0 L420.0,270.0 L405.0,270.0 L390.0,270.0 L390.0,285.0 L405.0,285.0 L405.0,300.0 L390.0,300.0 L375.0,300.0 L375.0,285.0 L375.0,270.0 L360.0,270.0 L360.0,255.0 L375.0,255.0 L390.0,255.0 L390.0,240.0 L390.0,225.0 L375.0,225.0 L375.0,240.0 L360.0,240.0 L360.0,225.0 L360.0,210.0 L345.0,210.0 L345.0,225.0 L330.0,225.0 L330.0,210.0 L330.0,195.0 L345.0,195.0 L360.0,195.0 L360.0,180.0 L360.0,165.0 L375.0,165.0 L390.0,165.0 L390.0,150.0 L390.0,135.0 L375.0,135.0 L375.0,150.0 L360.0,150.0 L360.0,135.0 L360.0,120.0 L345.0,120.0 L345.0,135.0 L330.0,135.0 L330.0,120.0 L330.0,105.0 L345.0,105.0 L360.0,105.0 L360.0,90.0 L375.0,90.0 L375.0,105.0 L375.0,120.0 L390.0,120.0 L405.0,120.0 L405.0,105.0 L390.0,105.0 L390.0,90.0 L405.0,90.0 L420.0,90.0 L420.0,75.0 L405.0,75.0 L405.0,60.0 L420.0,60.0 L435.0,60.0 L435.0,75.0 L435.0,90.0 L450.0,90.0 L465.0,90.0 L465.0,105.0 L465.0,120.0 L480.0,120.0 L495.0,120.0 L495.0,105.0 L480.0,105.0 L480.0,90.0 L495.0,90.0 L510.0,90.0 L510.0,75.0 L495.0,75.0 L495.0,60.0 L510.0,60.0 L525.0,60.0 L525.0,75.0 L525.0,90.0 L540.0,90.0 L540.0,75.0 L555.0,75.0 L570.0,75.0 L570.0,60.0 L570.0,45.0 L555.0,45.0 L555.0,60.0 L540.0,60.0 L540.0,45.0 L540.0,30.0 L525.0,30.0 L525.0,45.0 L510.0,45.0 L510.0,30.0 L510.0,15.0 L525.0,15.0 L540.0,15.0 L540.0,0.0 L525.0,0.0 L525.0,-15.0 L525.0,-30.0 L510.0,-30.0 L495.0,-30.0 L495.0,-15.0 L510.0,-15.0 L510.0,0.0 L495.0,0.0 L480.0,0.0 L480.0,15.0 L495.0,15.0 L495.0,30.0 L480.0,30.0 L465.0,30.0 L465.0,15.0 L465.0,0.0 L450.0,0.0 L450.0,-15.0 L465.0,-15.0 L480.0,-15.0 L480.0,-30.0 L480.0,-45.0 L465.0,-45.0 L465.0,-30.0 L450.0,-30.0 L450.0,-45.0 L450.0,-60.0 L435.0,-60.0 L435.0,-45.0 L420.0,-45.0 L420.0,-60.0 L420.0,-75.0 L435.0,-75.0 L450.0,-75.0 L450.0,-90.0 L450.0,-105.0 L465.0,-105.0 L480.0,-105.0 L480.0,-120.0 L480.0,-135.0 L465.0,-135.0 L465.0,-120.0 L450.0,-120.0 L450.0,-135.0 L450.0,-150.0 L435.0,-150.0 L435.0,-135.0 L420.0,-135.0 L420.0,-150.0 L420.0,-165.0 L435.0,-165.0 L450.0,-165.0 L450.0,-180.0 L435.0,-180.0 L435.0,-195.0 L435.0,-210.0 L420.0,-210.0 L405.0,-210.0 L405.0,-195.0 L420.0,-195.0 L420.0,-180.0 L405.0,-180.0 L390.0,-180.0 L390.0,-165.0 L405.0,-165.0 L405.0,-150.0 L390.0,-150.0 L375.0,-150.0 L375.0,-165.0 L375.0,-180.0 L360.0,-180.0 L345.0,-180.0 L345.0,-195.0 L345.0,-210.0 L330.0,-210.0 L315.0,-210.0 L315.0,-195.0 L330.0,-195.0 L330.0,-180.0 L315.0,-180.0 L300.0,-180.0 L300.0,-165.0 L315.0,-165.0 L315.0,-150.0 L300.0,-150.0 L285.0,-150.0 L285.0,-165.0 L285.0,-180.0 L270.0,-180.0 L270.0,-165.0 L255.0,-165.0 L240.0,-165.0 L240.0,-150.0 L240.0,-135.0 L255.0,-135.0 L255.0,-150.0 L270.0,-150.0 L270.0,-135.0 L270.0,-120.0 L285.0,-120.0 L285.0,-135.0 L300.0,-135.0 L300.0,-120.0 L300.0,-105.0 L285.0,-105.0 L270.0,-105.0 L270.0,-90.0 L285.0,-90.0 L285.0,-75.0 L285.0,-60.0 L300.0,-60.0 L315.0,-60.0 L315.0,-75.0 L300.0,-75.0 L300.0,-90.0 L315.0,-90.0 L330.0,-90.0 L330.0,-105.0 L315.0,-105.0 L315.0,-120.0 L330.0,-120.0 L345.0,-120.0 L345.0,-105.0 L345.0,-90.0 L360.0,-90.0 L360.0,-75.0 L345.0,-75.0 L330.0,-75.0 L330.0,-60.0 L330.0,-45.0 L345.0,-45.0 L345.0,-60.0 L360.0,-60.0 L360.0,-45.0 L360.0,-30.0 L375.0,-30.0 L375.0,-45.0 L390.0,-45.0 L390.0,-30.0 L390.0,-15.0 L375.0,-15.0 L360.0,-15.0 L360.0,0.0 L345.0,0.0 L345.0,-15.0 L345.0,-30.0 L330.0,-30.0 L315.0,-30.0 L315.0,-15.0 L330.0,-15.0 L330.0,0.0 L315.0,0.0 L300.0,0.0 L300.0,15.0 L315.0,15.0 L315.0,30.0 L300.0,30.0 L285.0,30.0 L285.0,15.0 L285.0,0.0 L270.0,0.0 L255.0,0.0 L255.0,-15.0 L255.0,-30.0 L240.0,-30.0 L225.0,-30.0 L225.0,-15.0 L240.0,-15.0 L240.0,0.0 L225.0,0.0 L210.0,0.0 L210.0,15.0 L225.0,15.0 L225.0,30.0 L210.0,30.0 L195.0,30.0 L195.0,15.0 L195.0,0.0 L180.0,0.0 L180.0,15.0 L165.0,15.0 L150.0,15.0 L150.0,30.0 L150.0,45.0 L165.0,45.0 L165.0,30.0 L180.0,30.0 L180.0,45.0 L180.0,60.0 L195.0,60.0 L195.0,45.0 L210.0,45.0 L210.0,60.0 L210.0,75.0 L195.0,75.0 L180.0,75.0 L180.0,90.0 L195.0,90.0 L195.0,105.0 L195.0,120.0 L210.0,120.0 L225.0,120.0 L225.0,105.0 L210.0,105.0 L210.0,90.0 L225.0,90.0 L240.0,90.0 L240.0,75.0 L225.0,75.0 L225.0,60.0 L240.0,60.0 L255.0,60.0 L255.0,75.0 L255.0,90.0 L270.0,90.0 L270.0,105.0 L255.0,105.0 L240.0,105.0 L240.0,120.0 L240.0,135.0 L255.0,135.0 L255.0,120.0 L270.0,120.0 L270.0,135.0 L270.0,150.0 L285.0,150.0 L285.0,135.0 L300.0,135.0 L300.0,150.0 L300.0,165.0 L285.0,165.0 L270.0,165.0 L270.0,180.0 L255.0,180.0 L255.0,165.0 L255.0,150.0 L240.0,150.0 L225.0,150.0 L225.0,165.0 L240.0,165.0 L240.0,180.0 L225.0,180.0 L210.0,180.0 L210.0,195.0 L225.0,195.0 L225.0,210.0 L210.0,210.0 L195.0,210.0 L195.0,195.0 L195.0,180.0 L180.0,180.0 L165.0,180.0 L165.0,165.0 L165.0,150.0 L150.0,150.0 L135.0,150.0 L135.0,165.0 L150.0,165.0 L150.0,180.0 L135.0,180.0 L120.0,180.0 L120.0,195.0 L135.0,195.0 L135.0,210.0 L120.0,210.0 L105.0,210.0 L105.0,195.0 L105.0,180.0 L90.0,180.0 L90.0,165.0 L105.0,165.0 L120.0,165.0 L120.0,150.0 L120.0,135.0 L105.0,135.0 L105.0,150.0 L90.0,150.0 L90.0,135.0 L90.0,120.0 L75.0,120.0 L75.0,135.0 L60.0,135.0 L60.0,120.0 L60.0,105.0 L75.0,105.0 L90.0,105.0 L90.0,90.0 L90.0,75.0 L105.0,75.0 L120.0,75.0 L120.0,60.0 L120.0,45.0 L105.0,45.0 L105.0,60.0 L90.0,60.0 L90.0,45.0 L90.0,30.0 L75.0,30.0 L75.0,45.0 L60.0,45.0 L60.0,30.0 L60.0,15.0 L75.0,15.0 L90.0,15.0 L90.0,0.0 L75.0,0.0 L75.0,-15.0 L75.0,-30.0 L60.0,-30.0 L45.0,-30.0 L45.0,-15.0 L60.0,-15.0 L60.0,0.0 L45.0,0.0 L30.0,0.0 L30.0,15.0 L45.0,15.0 L45.0,30.0 L30.0,30.0 L15.0,30.0 L15.0,15.0 L15.0,0.0 L0.0,0.0 " style="fill:none;stroke-width:3;stroke:red;"></path></g></svg>