<svg height="600" overflow="visible" preserveAspectRatio="xMidYMid meet" version="1.0" width="1000" xmlns:xlink="http://www.w3.org/1999/xlink" xmlns="http://www.w3.org/2000/svg" zoomAndPan="magnify"><g transform="translate(518.76077,598.83268) scale(0.23346,-0.23346)"><path d="M0.0,0.0 L0.0,40.0 L-34.64102,20.0 L-34.64102,60.0 L0.0,40.0 L0.0,80.0 L-34.64102,60.0 L-69.28204,40.0 L-69.28204,80.0 L-103.92306,60.0 L-103.92306,100.0 L-69.28204,80.0 L-69.28204,120.0 L-34.64102,100.0 L0.0,80.0 L0.0,120.0 L-34.64102,100.0 L-34.64102,140.0 L0.0,120.0 L0.0,160.0 L-34.64102,140.0 L-69.28204,120.0 L-103.92306,100.0 L-138.56408,80.0 L-138.56408,120.0 L-173.2051,100.0 L-173.2051,140.0 L-138.56408,120.0 L-138.56408,160.0 L-173.2051,140.0 L-207.84612,120.0 L-207.84612,160.0 L-242.48714,140.0 L-242.48714,180.0 L-207.84612,160.0 L-207.84612,200.0 L-173.2051,180.0 L-138.56408,160.0 L-138.56408,200.0 L-173.2051,180.0 L-173.2051,220.0 L-138.56408,200.0 L-138.56408,240.0 L-103.92306,220.0 L-69.28204,200.0 L-34.64102,180.0 L0.0,160.0 L0.0,200.0 L-34.64102,180.0 L-34.64102,220.0 L0.0,200.0 L0.0,240.0 L-34.64102,220.0 L-69.28204,200.0 L-69.28204,240.0 L-103.92306,220.0 L-103.92306,260.0 L-69.28204,240.0 L-69.28204,280.0 L-34.64102,260.0 L0.0,240.0 L0.0,280.0 L-34.64102,260.0 L-34.64102,300.0 L0.0,280.0 L0.0,320.0 L-34.64102,300.0 L-69.28204,280.0 L-103.92306,260.0 L-138.56408,240.0 L-173.2051,220.0 L-207.84612,200.0 L-242.48714,180.0 L-277.12816,160.0 L-277.12816,200.0 L-311.76918,180.0 L-311.76918,220.0 L-277.12816,200.0 L-277.12816,240.0 L-311.76918,220.0 L-346.4102,200.0 L-346.4102,240.0 L-381.05122,220.0 L-381.05122,260.0 L-346.4102,240.0 L-346.4102,280.0 L-311.76918,260.0 L-277.12816,240.0 L-277.12816,280.0 L-311.76918,260.0 L-311.76918,300.0 L-277.12816,280.0 L-277.12816,320.0 L-311.76918,300.0 L-346.4102,280.0 L-381.05122,260.0 L-415.69224,240.0 L-415.69224,280.0 L-450.33326,260.0 L-450.33326,300.0 L-415.69224,280.0 L-415.69224,320.0 L-450.33326,300.0 L-484.97428,280.0 L-484.97428,320.0 L-519.6153,300.0 L-519.6153,340.0 L-484.97428,320.0 L-484.97428,360.0 L-450.33326,340.0 L-415.69224,320.0 L-415.69224,360.0 L-450.33326,340.0 L-450.33326,380.0 L-415.69224,360.0 L-415.69224,400.0 L-381.05122,380.0 L-346.4102,360.0 L-311.76918,340.0 L-277.12816,320.0 L-277.12816,360.0 L-311.76918,340.0 L-311.76918,380.0 L-277.12816,360.0 L-277.12816,400.0 L-311.76918,380.0 L-346.4102,360.0 L-346.4102,400.0 L-381.05122,380.0 L-381.05122,420.0 L-346.4102,400.0 L-346.4102,440.0 L-311.76918,420.0 L-277.12816,400.0 L-277.12816,440.0 L-311.76918,420.0 L-311.76918,460.0 L-277.12816,440.0 L-277.12816,480.0 L-242.48714,460.0 L-207.84612,440.0 L-173.2051,420.0 L-138.56408,400.0 L-103.92306,380.0 L-69.28204,360.0 L-34.64102,340.0 L0.0,320.0 L0.0,360.0 L-34.64102,340.0 L-34.64102,380.0 L0.0,360.0 L0.0,400.0 L-34.64102,380.0 L-69.28204,360.0 L-69.28204,400.0 L-103.92306,380.0 L-103.92306,420.0 L-69.28204,400.0 L-69.28204,440.0 L-34.64102,420.0 L0.0,400.0 L0.0,440.0 L-34.64102,420.0 L-34.64102,460.0 L0.0,440.0 L0.0,480.0 L-34.64102,460.0 L-69.28204,440.0 L-103.92306,420.0 L-138.56408,400.0 L-138.56408,440.0 L-173.2051,420.0 L-173.2051,460.0 L-138.56408,440.0 L-138.56408,480.0 L-173.2051,460.0 L-207.84612,440.0 L-207.84612,480.0 L-242.48714,460.0 L-242.48714,500.0 L-207.84612,480.0 L-207.84612,520.0 L-173.2051,500.0 L-138.56408,480.0 L-138.56408,520.0 L-173.2051,500.0 L-173.2051,540.0 L-138.56408,520.0 L-138.56408,560.0 L-103.92306,540.0 L-69.28204,520.0 L-34.64102,500.0 L0.0,480.0 L0.0,520.0 L-34.64102,500.0 L-34.64102,540.0 L0.0,520.0 L0.0,560.0 L-34.64102,540.0 L-69.28204,520.0 L-69.28204,560.0 L-103.92306,540.0 L-103.92306,580.0 L-69.28204,560.0 L-69.28204,600.0 L-34.64102,580.0 L0.0,560.0 L0.0,600.0 L-34.64102,580.0 L-34.64102,620.0 L0.0,600.0 L0.0,640.0 L-34.64102,620.0 L-69.28204,600.0 L-103.92306,580.0 L-138.56408,560.0 L-173.2051,540.0 L-207.84612,520.0 L-242.48714,500.0 L-277.12816,480.0 L-311.76918,460.0 L-346.4102,440.0 L-381.05122,420.0 L-415.69224,400.0 L-450.33326,380.0 L-484.97428,360.0 L-519.6153,340.0 L-554.25632,320.0 L-554.25632,360.0 L-588.89734,340.0 L-588.89734,380.0 L-554.25632,360.0 L-554.25632,400.0 L-588.89734,380.0 L-623.53836,360.0 L-623.53836,400.0 L-658.17938,380.0 L-658.17938,420.0 L-623.53836,400.0 L-623.53836,440.0 L-588.89734,420.0 L-554.25632,400.0 L-554.25632,440.0 L-588.89734,420.0 L-588.89734,460.0 L-554.25632,440.0 L-554.25632,480.0 L-588.89734,460.0 L-623.53836,440.0 L-658.17938,420.0 L-692.8204,400.0 L-692.8204,440.0 L-727.46142,420.0 L-727.46142,460.0 L-692.8204,440.0 L-692.8204,480.0 L-727.46142,460.0 L-762.10244,440.0 L-762.10244,480.0 L-796.74346,460.0 L-796.74346,500.0 L-762.10244,480.0 L-762.10244,520.0 L-727.46142,500.0 L-692.8204,480.0 L-692.8204,520.0 L-727.46142,500.0 L-727.46142,540.0 L-692.8204,520.0 L-692.8204,560.0 L-658.17938,540.0 L-623.53836,520.0 L-588.89734,500.0 L-554.25632,480.0 L-554.25632,520.0 L-588.89734,500.0 L-588.89734,540.0 L-554.25632,520.0 L-554.25632,560.0 L-588.89734,540.0 L-623.53836,520.0 L-623.53836,560.0 L-658.17938,540.0 L-658.17938,580.0 L-623.53836,560.0 L-623.53836,600.0 L-588.89734,580.0 L-554.25632,560.0 L-554.25632,600.0 L-588.89734,580.0 L-588.89734,620.0 L-554.25632,600.0 L-554.25632,640.0 L-588.89734,620.0 L-623.53836,600.0 L-658.17938,580.0 L-692.8204,560.0 L-727.46142,540.0 L-762.10244,520.0 L-796.74346,500.0 L-831.38448,480.0 L-831.38448,520.0 L-866.0255,500.0 L-866.0255,540.0 L-831.38448,520.0 L-831.38448,560.0 L-866.0255,540.0 L-900.66652,520.0 L-900.66652,560.0 L-935.30754,540.0 L-935.30754,580.0 L-900.66652,560.0 L-900.66652,600.0 L-866.0255,580.0 L-831.38448,560.0 L-831.38448,600.0 L-866.0255,580.0 L-866.0255,620.0 L-831.38448,600.0 L-831.38448,640.0 L-866.0255,620.0 L-900.66652,600.0 L-935.30754,580.0 L-969.94856,560.0 L-969.94856,600.0 L-1004.58958,580.0 L-1004.58958,620.0 L-969.94856,600.0 L-969.94856,640.0 L-1004.58958,620.0 L-1039.2306,600.0 L-1039.2306,640.0 L-1073.87162,620.0 L-1073.87162,660.0 L-1039.2306,640.0 L-1039.2306,680.0 L-1004.58958,660.0 L-969.94856,640.0 L-969.94856,680.0 L-1004.58958,660.0 L-1004.58958,700.0 L-969.94856,680.0 L-969.94856,720.0 L-935.30754,700.0 L-900.66652,680.0 L-866.0255,660.0 L-831.38448,640.0 L-831.38448,680.0 L-866.0255,660.0 L-866.0255,700.0 L-831.38448,680.0 L-831.38448,720.0 L-866.0255,700.0 L-900.66652,680.0 L-900.66652,720.0 L-935.30754,700.0 L-935.30754,740.0 L-900.66652,720.0 L-900.66652,760.0 L-866.0255,740.0 L-831.38448,720.0 L-831.38448,760.0 L-866.0255,740.0 L-866.0255,780.0 L-831.38448,760.0 L-831.38448,800.0 L-796.74346,780.0 L-762.10244,760.0 L-727.46142,740.0 L-692.8204,720.0 L-658.17938,700.0 L-623.53836,680.0 L-588.89734,660.0 L-554.25632,640.0 L-554.25632,680.0 L-588.89734,660.0 L-588.89734,700.0 L-554.25632,680.0 L-554.25632,720.0 L-588.89734,700.0 L-623.53836,680.0 L-623.53836,720.0 L-658.17938,700.0 L-658.17938,740.0 L-623.53836,720.0 L-623.53836,760.0 L-588.89734,740.0 L-554.25632,720.0 L-554.25632,760.0 L-588.89734,740.0 L-588.89734,780.0 L-554.25632,760.0 L-554.25632,800.0 L-588.89734,780.0 L-623.53836,760.0 L-658.17938,740.0 L-692.8204,720.0 L-692.8204,760.0 L-727.46142,740.0 L-727.46142,780.0 L-692.8204,760.0 L-692.8204,800.0 L-727.46142,780.0 L-762.10244,760.0 L-762.10244,800.0 L-796.74346,780.0 L-796.74346,820.0 L-762.10244,800.0 L-762.10244,840.0 L-727.46142,820.0 L-692.8204,800.0 L-692.8204,840.0 L-727.46142,820.0 L-727.46142,860.0 L-692.8204,840.0 L-692.8204,880.0 L-658.17938,860.0 L-623.53836,840.0 L-588.89734,820.0 L-554.25632,800.0 L-554.25632,840.0 L-588.89734,820.0 L-588.89734,860.0 L-554.25632,840.0 L-554.25632,880.0 L-588.89734,860.0 L-623.53836,840.0 L-623.53836,880.0 L-658.17938,860.0 L-658.17938,900.0 L-623.53836,880.0 L-623.53836,920.0 L-588.89734,900.0 L-554.25632,880.0 L-554.25632,920.0 L-588.89734,900.0 L-588.89734,940.0 L-554.25632,920.0 L-554.25632,960.0 L-519.6153,940.0 L-484.97428,920.0 L-450.33326,900.0 L-415.69224,880.0 L-381.05122,860.0 L-346.4102,840.0 L-311.76918,820.0 L-277.12816,800.0 L-242.48714,780.0 L-207.84612,760.0 L-173.2051,740.0 L-138.56408,720.0 L-103.92306,700.0 L-69.28204,680.0 L-34.64102,660.0 L0.0,640.0 L0.0,680.0 L-34.64102,660.0 L-34.64102,700.0 L0.0,680.0 L0.0,720.0 L-34.64102,700.0 L-69.28204,680.0 L-69.28204,720.0 L-103.92306,700.0 L-103.92306,740.0 L-69.28204,720.0 L-69.28204,760.0 L-34.64102,740.0 L0.0,720.0 L0.0,760.0 L-34.64102,740.0 L-34.64102,780.0 L0.0,760.0 L0.0,800.0 L-34.64102,780.0 L-69.28204,760.0 L-103.92306,740.0 L-138.56408,720.0 L-138.56408,760.0 L-173.2051,740.0 L-173.2051,780.0 L-138.56408,760.0 L-138.56408,800.0 L-173.2051,780.0 L-207.84612,760.0 L-207.84612,800.0 L-242.48714,780.0 L-242.48714,820.0 L-207.84612,800.0 L-207.84612,840.0 L-173.2051,820.0 L-138.56408,800.0 L-138.56408,840.0 L-173.2051,820.0 L-173.2051,860.0 L-138.56408,840.0 L-138.56408,880.0 L-103.92306,860.0 L-69.28204,840.0 L-34.64102,820.0 L0.0,800.0 L0.0,840.0 L-34.64102,820.0 L-34.64102,860.0 L0.0,840.0 L0.0,880.0 L-34.64102,860.0 L-69.28204,840.0 L-69.28204,880.0 L-103.92306,860.0 L-103.92306,900.0 L-69.28204,880.0 L-69.28204,920.0 L-34.64102,900.0 L0.0,880.0 L0.0,920.0 L-34.64102,900.0 L-34.64102,940.0 L0.0,920.0 L0.0,960.0 L-34.64102,940.0 L-69.28204,920.0 L-103.92306,900.0 L-138.56408,880.0 L-173.2051,860.0 L-207.84612,840.0 L-242.48714,820.0 L-277.12816,800.0 L-277.12816,840.0 L-311.76918,820.0 L-311.76918,860.0 L-277.12816,840.0 L-277.12816,880.0 L-311.76918,860.0 L-346.4102,840.0 L-346.4102,880.0 L-381.05122,860.0 L-381.05122,900.0 L-346.4102,880.0 L-346.4102,920.0 L-311.76918,900.0 L-277.12816,880.0 L-277.12816,920.0 L-311.76918,900.0 L-311.76918,940.0 L-277.12816,920.0 L-277.12816,960.0 L-311.76918,940.0 L-346.4102,920.0 L-381.05122,900.0 L-415.69224,880.0 L-415.69224,920.0 L-450.33326,900.0 L-450.33326,940.0 L-415.69224,920.0 L-415.69224,960.0 L-450.33326,940.0 L-484.97428,920.0 L-484.97428,960.0 L-519.6153,940.0 L-519.6153,980.0 L-484.97428,960.0 L-484.97428,1000.0 L-450.33326,980.0 L-415.69224,960.0 L-415.69224,1000.0 L-450.33326,980.0 L-450.33326,1020.0 L-415.69224,1000.0 L-415.69224,1040.0 L-381.05122,1020.0 L-346.4102,1000.0 L-311.76918,980.0 L-277.12816,960.0 L-277.12816,1000.0 L-311.76918,980.0 L-311.76918,1020.0 L-277.12816,1000.0 L-277.12816,1040.0 L-311.76918,1020.0 L-346.4102,1000.0 L-346.4102,1040.0 L-381.05122,1020.0 L-381.05122,1060.0 L-346.4102,1040.0 L-346.4102,1080.0 L-311.76918,1060.0 L-277.12816,1040.0 L-277.12816,1080.0 L-311.76918,1060.0 L-311.76918,1100.0 L-277.12816,1080.0 L-277.12816,1120.0 L-242.48714,1100.0 L-207.84612,1080.0 L-173.2051,1060.0 L-138.56408,1040.0 L-103.92306,1020.0 L-69.28204,1000.0 L-34.64102,980.0 L0.0,960.0 L0.0,1000.0 L-34.64102,980.0 L-34.64102,1020.0 L0.0,1000.0 L0.0,1040.0 L-34.64102,1020.0 L-69.28204,1000.0 L-69.28204,1040.0 L-103.92306,1020.0 L-103.92306,1060.0 L-69.28204,1040.0 L-69.28204,1080.0 L-34.64102,1060.0 L0.0,1040.0 L0.0,1080.0 L-34.64102,1060.0 L-34.64102,1100.0 L0.0,1080.0 L0.0,1120.0 L-34.64102,1100.0 L-69.28204,1080.0 L-103.92306,1060.0 L-138.56408,1040.0 L-138.56408,1080.0 L-173.2051,1060.0 L-173.2051,1100.0 L-138.56408,1080.0 L-138.56408,1120.0 L-173.2051,1100.0 L-207.84612,1080.0 L-207.84612,1120.0 L-242.48714,1100.0 L-242.48714,1140.0 L-207.84612,1120.0 L-207.84612,1160.0 L-173.2051,1140.0 L-138.56408,1120.0 L-138.56408,1160.0 L-173.2051,1140.0 L-173.2051,1180.0 L-138.56408,1160.0 L-138.56408,1200.0 L-103.92306,1180.0 L-69.28204,1160.0 L-34.64102,1140.0 L0.0,1120.0 L0.0,1160.0 L-34.64102,1140.0 L-34.64102,1180.0 L0.0,1160.0 L0.0,1200.0 L-34.64102,1180.0 L-69.28204,1160.0 L-69.28204,1200.0 L-103.92306,1180.0 L-103.92306,1220.0 L-69.28204,1200.0 L-69.28204,1240.0 L-34.64102,1220.0 L0.0,1200.0 L0.0,1240.0 L-34.64102,1220.0 L-34.64102,1260.0 L0.0,1240.0 L0.0,1280.0 L-34.64102,1260.0 L-69.28204,1240.0 L-103.92306,1220.0 L-138.56408,1200.0 L-173.2051,1180.0 L-207.84612,1160.0 L-242.48714,1140.0 L-277.12816,1120.0 L-311.76918,1100.0 L-346.4102,1080.0 L-381.05122,1060.0 L-415.69224,1040.0 L-450.33326,1020.0 L-484.97428,1000.0 L-519.6153,980.0 L-554.25632,960.0 L-588.89734,940.0 L-623.53836,920.0 L-658.17938,900.0 L-692.8204,880.0 L-727.46142,860.0 L-762.10244,840.0 L-796.74346,820.0 L-831.38448,800.0 L-866.0255,780.0 L-900.66652,760.0 L-935.30754,740.0 L-969.94856,720.0 L-1004.58958,700.0 L-1039.2306,680.0 L-1073.87162,660.0 L-1108.51264,640.0 L-1108.51264,680.0 L-1143.15366,660.0 L-1143.15366,700.0 L-1108.51264,680.0 L-1108.51264,720.0 L-1143.15366,700.0 L-1177.79468,680.0 L-1177.79468,720.0 L-1212.4357,700.0 L-1212.4357,740.0 L-1177.79468,720.0 L-1177.79468,760.0 L-1143.15366,740.0 L-1108.51264,720.0 L-1108.51264,760.0 L-1143.15366,740.0 L-1143.15366,780.0 L-1108.51264,760.0 L-1108.51264,800.0 L-1143.15366,780.0 L-1177.79468,760.0 L-1212.4357,740.0 L-1247.07672,720.0 L-1247.07672,760.0 L-1281.71774,740.0 L-1281.71774,780.0 L-1247.07672,760.0 L-1247.07672,800.0 L-1281.71774,780.0 L-1316.35876,760.0 L-1316.35876,800.0 L-1350.99978,780.0 L-1350.99978,820.0 L-1316.35876,800.0 L-1316.35876,840.0 L-1281.71774,820.0 L-1247.07672,800.0 L-1247.07672,840.0 L-1281.71774,820.0 L-1281.71774,860.0 L-1247.07672,840.0 L-1247.07672,880.0 L-1212.4357,860.0 L-1177.79468,840.0 L-1143.15366,820.0 L-1108.51264,800.0 L-1108.51264,840.0 L-1143.15366,820.0 L-1143.15366,860.0 L-1108.51264,840.0 L-1108.51264,880.0 L-1143.15366,860.0 L-1177.79468,840.0 L-1177.79468,880.0 L-1212.4357,860.0 L-1212.4357,900.0 L-1177.79468,880.0 L-1177.79468,920.0 L-1143.15366,900.0 L-1108.51264,880.0 L-1108.51264,920.0 L-1143.15366,900.0 L-1143.15366,940.0 L-1108.51264,920.0 L-1108.51264,960.0 L-1143.15366,940.0 L-1177.79468,920.0 L-1212.4357,900.0 L-1247.07672,880.0 L-1281.71774,860.0 L-1316.35876,840.0 L-1350.99978,820.0 L-1385.6408,800.0 L-1385.6408,840.0 L-1420.28182,820.0 L-1420.28182,860.0 L-1385.6408,840.0 L-1385.6408,880.0 L-1420.28182,860.0 L-1454.92284,840.0 L-1454.92284,880.0 L-1489.56386,860.0 L-1489.56386,900.0 L-1454.92284,880.0 L-1454.92284,920.0 L-1420.28182,900.0 L-1385.6408,880.0 L-1385.6408,920.0 L-1420.28182,900.0 L-1420.28182,940.0 L-1385.6408,920.0 L-1385.6408,960.0 L-1420.28182,940.0 L-1454.92284,920.0 L-1489.56386,900.0 L-1524.20488,880.0 L-1524.20488,920.0 L-1558.8459,900.0 L-1558.8459,940.0 L-1524.20488,920.0 L-1524.20488,960.0 L-1558.8459,940.0 L-1593.48692,920.0 L-1593.48692,960.0 L-1628.12794,940.0 L-1628.12794,980.0 L-1593.48692,960.0 L-1593.48692,1000.0 L-1558.8459,980.0 L-1524.20488,960.0 L-1524.20488,1000.0 L-1558.8459,980.0 L-1558.8459,1020.0 L-1524.20488,1000.0 L-1524.20488,1040.0 L-1489.56386,1020.0 L-1454.92284,1000.0 L-1420.28182,980.0 L-1385.6408,960.0 L-1385.6408,1000.0 L-1420.28182,980.0 L-1420.28182,1020.0 L-1385.6408,1000.0 L-1385.6408,1040.0 L-1420.28182,1020.0 L-1454.92284,1000.0 L-1454.92284,1040.0 L-1489.56386,1020.0 L-1489.56386,1060.0 L-1454.92284,1040.0 L-1454.92284,1080.0 L-1420.28182,1060.0 L-1385.6408,1040.0 L-1385.6408,1080.0 L-1420.28182,1060.0 L-1420.28182,1100.0 L-1385.6408,1080.0 L-1385.6408,1120.0 L-1350.99978,1100.0 L-1316.35876,1080.0 L-1281.71774,1060.0 L-1247.07672,1040.0 L-1212.4357,1020.0 L-1177.79468,1000.0 L-1143.15366,980.0 L-1108.51264,960.0 L-1108.51264,1000.0 L-1143.15366,980.0 L-1143.15366,1020.0 L-1108.51264,1000.0 L-1108.51264,1040.0 L-1143.15366,1020.0 L-1177.79468,1000.0 L-1177.79468,1040.0 L-1212.4357,1020.0 L-1212.4357,1060.0 L-1177.79468,1040.0 L-1177.79468,1080.0 L-1143.15366,1060.0 L-1108.51264,1040.0 L-1108.51264,1080.0 L-1143.15366,1060.0 L-1143.15366,1100.0 L-1108.51264,1080.0 L-1108.51264,1120.0 L-1143.15366,1100.0 L-1177.79468,1080.0 L-1212.4357,1060.0 L-1247.07672,1040.0 L-1247.07672,1080.0 L-1281.71774,1060.0 L-1281.71774,1100.0 L-1247.07672,1080.0 L-1247.07672,1120.0 L-1281.71774,1100.0 L-1316.35876,1080.0 L-1316.35876,1120.0 L-1350.99978,1100.0 L-1350.99978,1140.0 L-1316.35876,1120.0 L-1316.35876,1160.0 L-1281.71774,1140.0 L-1247.07672,1120.0 L-1247.07672,1160.0 L-1281.71774,1140.0 L-1281.71774,1180.0 L-1247.07672,1160.0 L-1247.07672,1200.0 L-1212.4357,1180.0 L-1177.79468,1160.0 L-1143.15366,1140.0 L-1108.51264,1120.0 L-1108.51264,1160.0 L-1143.15366,1140.0 L-1143.15366,1180.0 L-1108.51264,1160.0 L-1108.51264,1200.0 L-1143.15366,1180.0 L-1177.79468,1160.0 L-1177.79468,1200.0 L-1212.4357,1180.0 L-1212.4357,1220.0 L-1177.79468,1200.0 L-1177.79468,1240.0 L-1143.15366,1220.0 L-1108.51264,1200.0 L-1108.51264,1240.0 L-1143.15366,1220.0 L-1143.15366,1260.0 L-1108.51264,1240.0 L-1108.51264,1280.0 L-1143.15366,1260.0 L-1177.79468,1240.0 L-1212.4357,1220.0 L-1247.07672,1200.0 L-1281.71774,1180.0 L-1316.35876,1160.0 L-1350.99978,1140.0 L-1385.6408,1120.0 L-1420.28182,1100.0 L-1454.92284,1080.0 L-1489.56386,1060.0 L-1524.20488,1040.0 L-1558.8459,1020.0 L-1593.48692,1000.0 L-1628.12794,980.0 L-1662.76896,960.0 L-1662.76896,1000.0 L-1697.40998,980.0 L-1697.40998,1020.0 L-1662.76896,1000.0 L-1662.76896,1040.0 L-1697.40998,1020.0 L-1732.051,1000.0 L-1732.051,1040.0 L-1766.69202,1020.0 L-1766.69202,1060.0 L-1732.051,1040.0 L-1732.051,1080.0 L-1697.40998,1060.0 L-1662.76896,1040.0 L-1662.76896,1080.0 L-1697.40998,1060.0 L-1697.40998,1100.0 L-1662.76896,1080.0 L-1662.76896,1120.0 L-1697.40998,1100.0 L-1732.051,1080.0 L-1766.69202,1060.0 L-1801.33304,1040.0 L-1801.33304,1080.0 L-1835.97406,1060.0 L-1835.97406,1100.0 L-1801.33304,1080.0 L-1801.33304,1120.0 L-1835.97406,1100.0 L-1870.61508,1080.0 L-1870.61508,1120.0 L-1905.2561,1100.0 L-1905.2561,1140.0 L-1870.61508,1120.0 L-1870.61508,1160.0 L-1835.97406,1140.0 L-1801.33304,1120.0 L-1801.33304,1160.0 L-1835.97406,1140.0 L-1835.97406,1180.0 L-1801.33304,1160.0 L-1801.33304,1200.0 L-1766.69202,1180.0 L-1732.051,1160.0 L-1697.40998,1140.0 L-1662.76896,1120.0 L-1662.76896,1160.0 L-1697.40998,1140.0 L-1697.40998,1180.0 L-1662.76896,1160.0 L-1662.76896,1200.0 L-1697.40998,1180.0 L-1732.051,1160.0 L-1732.051,1200.0 L-1766.69202,1180.0 L-1766.69202,1220.0 L-1732.051,1200.0 L-1732.051,1240.0 L-1697.40998,1220.0 L-1662.76896,1200.0 L-1662.76896,1240.0 L-1697.40998,1220.0 L-1697.40998,1260.0 L-1662.76896,1240.0 L-1662.76896,1280.0 L-1697.40998,1260.0 L-1732.051,1240.0 L-1766.69202,1220.0 L-1801.33304,1200.0 L-1835.97406,1180.0 L-1870.61508,1160.0 L-1905.2561,1140.0 L-1939.89712,1120.0 L-1939.89712,1160.0 L-1974.53814,1140.0 L-1974.53814,1180.0 L-1939.89712,1160.0 L-1939.89712,1200.0 L-1974.53814,1180.0 L-2009.17916,1160.0 L-2009.17916,1200.0 L-2043.82018,1180.0 L-2043.82018,1220.0 L-2009.17916,1200.0 L-2009.17916,1240.0 L-1974.53814,1220.0 L-1939.89712,1200.0 L-1939.89712,1240.0 L-1974.53814,1220.0 L-1974.53814,1260.0 L-1939.89712,1240.0 L-1939.89712,1280.0 L-1974.53814,1260.0 L-2009.17916,1240.0 L-2043.82018,1220.0 L-2078.4612,1200.0 L-2078.4612,1240.0 L-2113.10222,1220.0 L-2113.10222,1260.0 L-2078.4612,1240.0 L-2078.4612,1280.0 L-2113.10222,1260.0 L-2147.74324,1240.0 L-2147.74324,1280.0 L-2182.38426,1260.0 L-2182.38426,1300.0 L-2147.74324,1280.0 L-2147.74324,1320.0 L-2113.10222,1300.0 L-2078.4612,1280.0 L-2078.4612,1320.0 L-2113.10222,1300.0 L-2113.10222,1340.0 L-2078.4612,1320.0 L-2078.4612,1360.0 L-2043.82018,1340.0 L-2009.17916,1320.0 L-1974.53814,1300.0 L-1939.89712,1280.0 L-1939.89712,1320.0 L-1974.53814,1300.0 L-1974.53814,1340.0 L-1939.89712,1320.0 L-1939.89712,1360.0 L-1974.53814,1340.0 L-2009.17916,1320.0 L-2009.17916,1360.0 L-2043.82018,1340.0 L-2043.82018,1380.0 L-2009.17916,1360.0 L-2009.17916,1400.0 L-1974.53814,1380.0 L-1939.89712,1360.0 L-1939.89712,1400.0 L-1974.53814,1380.0 L-1974.53814,1420.0 L-1939.89712,1400.0 L-1939.89712,1440.0 L-1905.2561,1420.0 L-1870.61508,1400.0 L-1835.97406,1380.0 L-1801.33304,1360.0 L-1766.69202,1340.0 L-1732.051,1320.0 L-1697.40998,1300.0 L-1662.76896,1280.0 L-1662.76896,1320.0 L-1697.40998,1300.0 L-1697.40998,1340.0 L-1662.76896,1320.0 L-1662.76896,1360.0 L-1697.40998,1340.0 L-1732.051,1320.0 L-1732.051,1360.0 L-1766.69202,1340.0 L-1766.69202,1380.0 L-1732.051,1360.0 L-1732.051,1400.0 L-1697.40998,1380.0 L-1662.76896,1360.0 L-1662.76896,1400.0 L-1697.40998,1380.0 L-1697.40998,1420.0 L-1662.76896,1400.0 L-1662.76896,1440.0 L-1697.40998,1420.0 L-1732.051,1400.0 L-1766.69202,1380.0 L-1801.33304,1360.0 L-1801.33304,1400.0 L-1835.97406,1380.0 L-1835.97406,1420.0 L-1801.33304,1400.0 L-1801.33304,1440.0 L-1835.97406,1420.0 L-1870.61508,1400.0 L-1870.61508,1440.0 L-1905.2561,1420.0 L-1905.2561,1460.0 L-1870.61508,1440.0 L-1870.61508,1480.0 L-1835.97406,1460.0 L-1801.33304,1440.0 L-1801.33304,1480.0 L-1835.97406,1460.0 L-1835.97406,1500.0 L-1801.33304,1480.0 L-1801.33304,1520.0 L-1766.69202,1500.0 L-1732.051,1480.0 L-1697.40998,1460.0 L-1662.76896,1440.0 L-1662.76896,1480.0 L-1697.40998,1460.0 L-1697.40998,1500.0 L-1662.76896,1480.0 L-1662.76896,1520.0 L-1697.40998,1500.0 L-1732.051,1480.0 L-1732.051,1520.0 L-1766.69202,1500.0 L-1766.69202,1540.0 L-1732.051,1520.0 L-1732.051,1560.0 L-1697.40998,1540.0 L-1662.76896,1520.0 L-1662.76896,1560.0 L-1697.40998,1540.0 L-1697.40998,1580.0 L-1662.76896,1560.0 L-1662.76896,1600.0 L-1628.12794,1580.0 L-1593.48692,1560.0 L-1558.8459,1540.0 L-1524.20488,1520.0 L-1489.56386,1500.0 L-1454.92284,1480.0 L-1420.28182,1460.0 L-1385.6408,1440.0 L-1350.99978,1420.0 L-1316.35876,1400.0 L-1281.71774,1380.0 L-1247.07672,1360.0 L-1212.4357,1340.0 L-1177.79468,1320.0 L-1143.15366,1300.0 L-1108.51264,1280.0 L-1108.51264,1320.0 L-1143.15366,1300.0 L-1143.15366,1340.0 L-1108.51264,1320.0 L-1108.51264,1360.0 L-1143.15366,1340.0 L-1177.79468,1320.0 L-1177.79468,1360.0 L-1212.4357,1340.0 L-1212.4357,1380.0 L-1177.79468,1360.0 L-1177.79468,1400.0 L-1143.15366,1380.0 L-1108.51264,1360.0 L-1108.51264,1400.0 L-1143.15366,1380.0 L-1143.15366,1420.0 L-1108.51264,1400.0 L-1108.51264,1440.0 L-1143.15366,1420.0 L-1177.79468,1400.0 L-1212.4357,1380.0 L-1247.07672,1360.0 L-1247.07672,1400.0 L-1281.71774,1380.0 L-1281.71774,1420.0 L-1247.07672,1400.0 L-1247.07672,1440.0 L-1281.71774,1420.0 L-1316.35876,1400.0 L-1316.35876,1440.0 L-1350.99978,1420.0 L-1350.99978,1460.0 L-1316.35876,1440.0 L-1316.35876,1480.0 L-1281.71774,1460.0 L-1247.07672,1440.0 L-1247.07672,1480.0 L-1281.71774,1460.0 L-1281.71774,1500.0 L-1247.07672,1480.0 L-1247.07672,1520.0 L-1212.4357,1500.0 L-1177.79468,1480.0 L-1143.15366,1460.0 L-1108.51264,1440.0 L-1108.51264,1480.0 L-1143.15366,1460.0 L-1143.15366,1500.0 L-1108.51264,1480.0 L-1108.51264,1520.0 L-1143.15366,1500.0 L-1177.79468,1480.0 L-1177.79468,1520.0 L-1212.4357,1500.0 L-1212.4357,1540.0 L-1177.79468,1520.0 L-1177.79468,1560.0 L-1143.15366,1540.0 L-1108.51264,1520.0 L-1108.51264,1560.0 L-1143.15366,1540.0 L-1143.15366,1580.0 L-1108.51264,1560.0 L-1108.51264,1600.0 L-1143.15366,1580.0 L-1177.79468,1560.0 L-1212.4357,1540.0 L-1247.07672,1520.0 L-1281.71774,1500.0 L-1316.35876,1480.0 L-1350.99978,1460.0 L-1385.6408,1440.0 L-1385.6408,1480.0 L-1420.28182,1460.0 L-1420.28182,1500.0 L-1385.6408,1480.0 L-1385.6408,1520.0 L-1420.28182,1500.0 L-1454.92284,1480.0 L-1454.92284,1520.0 L-1489.56386,1500.0 L-1489.56386,1540.0 L-1454.92284,1520.0 L-1454.92284,1560.0 L-1420.28182,1540.0 L-1385.6408,1520.0 L-1385.6408,1560.0 L-1420.28182,1540.0 L-1420.28182,1580.0 L-1385.6408,1560.0 L-1385.6408,1600.0 L-1420.28182,1580.0 L-1454.92284,1560.0 L-1489.56386,1540.0 L-1524.20488,1520.0 L-1524.20488,1560.0 L-1558.8459,1540.0 L-1558.8459,1580.0 L-1524.20488,1560.0 L-1524.20488,1600.0 L-1558.8459,1580.0 L-1593.48692,1560.0 L-1593.48692,1600.0 L-1628.12794,1580.0 L-1628.12794,1620.0 L-1593.48692,1600.0 L-1593.48692,1640.0 L-1558.8459,1620.0 L-1524.20488,1600.0 L-1524.20488,1640.0 L-1558.8459,1620.0 L-1558.8459,1660.0 L-1524.20488,1640.0 L-1524.20488,1680.0 L-1489.56386,1660.0 L-1454.92284,1640.0 L-1420.28182,1620.0 L-1385.6408,1600.0 L-1385.6408,1640.0 L-1420.28182,1620.0 L-1420.28182,1660.0 L-1385.6408,1640.0 L-1385.6408,1680.0 L-1420.28182,1660.0 L-1454.92284,1640.0 L-1454.92284,1680.0 L-1489.56386,1660.0 L-1489.56386,1700.0 L-1454.92284,1680.0 L-1454.92284,1720.0 L-1420.28182,1700.0 L-1385.6408,1680.0 L-1385.6408,1720.0 L-1420.28182,1700.0 L-1420.28182,1740.0 L-1385.6408,1720.0 L-1385.6408,1760.0 L-1350.99978,1740.0 L-1316.35876,1720.0 L-1281.71774,1700.0 L-1247.07672,1680.0 L-1212.4357,1660.0 L-1177.79468,1640.0 L-1143.15366,1620.0 L-1108.51264,1600.0 L-1108.51264,1640.0 L-1143.15366,1620.0 L-1143.15366,1660.0 L-1108.51264,1640.0 L-1108.51264,1680.0 L-1143.15366,1660.0 L-1177.79468,1640.0 L-1177.79468,1680.0 L-1212.4357,1660.0 L-1212.4357,1700.0 L-1177.79468,1680.0 L-1177.79468,1720.0 L-1143.15366,1700.0 L-1108.51264,1680.0 L-1108.51264,1720.0 L-1143.15366,1700.0 L-1143.15366,1740.0 L-1108.51264,1720.0 L-1108.51264,1760.0 L-1143.15366,1740.0 L-1177.79468,1720.0 L-1212.4357,1700.0 L-1247.07672,1680.0 L-1247.07672,1720.0 L-1281.71774,1700.0 L-1281.71774,1740.0 L-1247.07672,1720.0 L-1247.07672,1760.0 L-1281.71774,1740.0 L-1316.35876,1720.0 L-1316.35876,1760.0 L-1350.99978,1740.0 L-1350.99978,1780.0 L-1316.35876,1760.0 L-1316.35876,1800.0 L-1281.71774,1780.0 L-1247.07672,1760.0 L-1247.07672,1800.0 L-1281.71774,1780.0 L-1281.71774,1820.0 L-1247.07672,1800.0 L-1247.07672,1840.0 L-1212.4357,1820.0 L-1177.79468,1800.0 L-1143.15366,1780.0 L-1108.51264,1760.0 L-1108.51264,1800.0 L-1143.15366,1780.0 L-1143.15366,1820.0 L-1108.51264,1800.0 L-1108.51264,1840.0 L-1143.15366,1820.0 L-1177.79468,1800.0 L-1177.79468,1840.0 L-1212.4357,1820.0 L-1212.4357,1860.0 L-1177.79468,1840.0 L-1177.79468,1880.0 L-1143.15366,1860.0 L-1108.51264,1840.0 L-1108.51264,1880.0 L-1143.15366,1860.0 L-1143.15366,1900.0 L-1108.51264,1880.0 L-1108.51264,1920.0 L-1073.87162,1900.0 L-1039.2306,1880.0 L-1004.58958,1860.0 L-969.94856,1840.0 L-935.30754,1820.0 L-900.66652,1800.0 L-866.0255,1780.0 L-831.38448,1760.0 L-796.74346,1740.0 L-762.10244,1720.0 L-727.46142,1700.0 L-692.8204,1680.0 L-658.17938,1660.0 L-623.53836,1640.0 L-588.89734,1620.0 L-554.25632,1600.0 L-519.6153,1580.0 L-484.97428,1560.0 L-450.33326,1540.0 L-415.69224,1520.0 L-381.05122,1500.0 L-346.4102,1480.0 L-311.76918,1460.0 L-277.12816,1440.0 L-242.48714,1420.0 L-207.84612,1400.0 L-173.2051,1380.0 L-138.56408,1360.0 L-103.92306,1340.0 L-69.28204,1320.0 L-34.64102,1300.0 L0.0,1280.0 L0.0,1320.0 L-34.64102,1300.0 L-34.64102,1340.0 L0.0,1320.0 L0.0,1360.0 L-34.64102,1340.0 L-69.28204,1320.0 L-69.28204,1360.0 L-103.92306,1340.0 L-103.92306,1380.0 L-69.28204,1360.0 L-69.28204,1400.0 L-34.64102,1380.0 L0.0,1360.0 L0.0,1400.0 L-34.64102,1380.0 L-34.64102,1420.0 L0.0,1400.0 L0.0,1440.0 L-34.64102,1420.0 L-69.28204,1400.0 L-103.92306,1380.0 L-138.56408,1360.0 L-138.56408,1400.0 L-173.2051,1380.0 L-173.2051,1420.0 L-138.56408,1400.0 L-138.56408,1440.0 L-173.2051,1420.0 L-207.84612,1400.0 L-207.84612,1440.0 L-242.48714,1420.0 L-242.48714,1460.0 L-207.84612,1440.0 L-207.84612,1480.0 L-173.2051,1460.0 L-138.56408,1440.0 L-138.56408,1480.0 L-173.2051,1460.0 L-173.2051,1500.0 L-138.56408,1480.0 L-138.56408,1520.0 L-103.92306,1500.0 L-69.28204,1480.0 L-34.64102,1460.0 L0.0,1440.0 L0.0,1480.0 L-34.64102,1460.0 L-34.64102,1500.0 L0.0,1480.0 L0.0,1520.0 L-34.64102,1500.0 L-69.28204,1480.0 L-69.28204,1520.0 L-103.92306,1500.0 L-103.92306,1540.0 L-69.28204,1520.0 L-69.28204,1560.0 L-34.64102,1540.0 L0.0,1520.0 L0.0,1560.0 L-34.64102,1540.0 L-34.64102,1580.0 L0.0,1560.0 L0.0,1600.0 L-34.64102,1580.0 L-69.28204,1560.0 L-103.92306,1540.0 L-138.56408,1520.0 L-173.2051,1500.0 L-207.84612,1480.0 L-242.48714,1460.0 L-277.12816,1440.0 L-277.12816,1480.0 L-311.76918,1460.0 L-311.76918,1500.0 L-277.12816,1480.0 L-277.12816,1520.0 L-311.76918,1500.0 L-346.4102,1480.0 L-346.4102,1520.0 L-381.05122,1500.0 L-381.05122,1540.0 L-346.4102,1520.0 L-346.4102,1560.0 L-311.76918,1540.0 L-277.12816,1520.0 L-277.12816,1560.0 L-311.76918,1540.0 L-311.76918,1580.0 L-277.12816,1560.0 L-277.12816,1600.0 L-311.76918,1580.0 L-346.4102,1560.0 L-381.05122,1540.0 L-415.69224,1520.0 L-415.69224,1560.0 L-450.33326,1540.0 L-450.33326,1580.0 L-415.69224,1560.0 L-415.69224,1600.0 L-450.33326,1580.0 L-484.97428,1560.0 L-484.97428,1600.0 L-519.6153,1580.0 L-519.6153,1620.0 L-484.97428,1600.0 L-484.97428,1640.0 L-450.33326,1620.0 L-415.69224,1600.0 L-415.69224,1640.0 L-450.33326,1620.0 L-450.33326,1660.0 L-415.69224,1640.0 L-415.69224,1680.0 L-381.05122,1660.0 L-346.4102,1640.0 L-311.76918,1620.0 L-277.12816,1600.0 L-277.12816,1640.0 L-311.76918,1620.0 L-311.76918,1660.0 L-277.12816,1640.0 L-277.12816,1680.0 L-311.76918,1660.0 L-346.4102,1640.0 L-346.4102,1680.0 L-381.05122,1660.0 L-381.05122,1700.0 L-346.4102,1680.0 L-346.4102,1720.0 L-311.76918,1700.0 L-277.12816,1680.0 L-277.12816,1720.0 L-311.76918,1700.0 L-311.76918,1740.0 L-277.12816,1720.0 L-277.12816,1760.0 L-242.48714,1740.0 L-207.84612,1720.0 L-173.2051,1700.0 L-138.56408,1680.0 L-103.92306,1660.0 L-69.28204,1640.0 L-34.64102,1620.0 L0.0,1600.0 L0.0,1640.0 L-34.64102,1620.0 L-34.64102,1660.0 L0.0,1640.0 L0.0,1680.0 L-34.64102,1660.0 L-69.28204,1640.0 L-69.28204,1680.0 L-103.92306,1660.0 L-103.92306,1700.0 L-69.28204,1680.0 L-69.28204,1720.0 L-34.64102,1700.0 L0.0,1680.0 L0.0,1720.0 L-34.64102,1700.0 L-34.64102,1740.0 L0.0,1720.0 L0.0,1760.0 L-34.64102,1740.0 L-69.28204,1720.0 L-103.92306,1700.0 L-138.56408,1680.0 L-138.56408,1720.0 L-173.2051,1700.0 L-173.2051,1740.0 L-138.56408,1720.0 L-138.56408,1760.0 L-173.2051,1740.0 L-207.84612,1720.0 L-207.84612,1760.0 L-242.48714,1740.0 L-242.48714,1780.0 L-207.84612,1760.0 L-207.84612,1800.0 L-173.2051,1780.0 L-138.56408,1760.0 L-138.56408,1800.0 L-173.2051,1780.0 L-173.2051,1820.0 L-138.56408,1800.0 L-138.56408,1840.0 L-103.92306,1820.0 L-69.28204,1800.0 L-34.64102,1780.0 L0.0,1760.0 L0.0,1800.0 L-34.64102,1780.0 L-34.64102,1820.0 L0.0,1800.0 L0.0,1840.0 L-34.64102,1820.0 L-69.28204,1800.0 L-69.28204,1840.0 L-103.92306,1820.0 L-103.92306,1860.0 L-69.28204,1840.0 L-69.28204,1880.0 L-34.64102,1860.0 L0.0,1840.0 L0.0,1880.0 L-34.64102,1860.0 L-34.64102,1900.0 L0.0,1880.0 L0.0,1920.0 L-34.64102,1900.0 L-69.28204,1880.0 L-103.92306,1860.0 L-138.56408,1840.0 L-173.2051,1820.0 L-207.84612,1800.0 L-242.48714,1780.0 L-277.12816,1760.0 L-311.76918,1740.0 L-346.4102,1720.0 L-381.05122,1700.0 L-415.69224,1680.0 L-450.33326,1660.0 L-484.97428,1640.0 L-519.6153,1620.0 L-554.25632,1600.0 L-554.25632,1640.0 L-588.89734,1620.0 L-588.89734,1660.0 L-554.25632,1640.0 L-554.25632,1680.0 L-588.89734,1660.0 L-623.53836,1640.0 L-623.53836,1680.0 L-658.17938,1660.0 L-658.17938,1700.0 L-623.53836,1680.0 L-623.53836,1720.0 L-588.89734,1700.0 L-554.25632,1680.0 L-554.25632,1720.0 L-588.89734,1700.0 L-588.89734,1740.0 L-554.25632,1720.0 L-554.25632,1760.0 L-588.89734,1740.0 L-623.53836,1720.0 L-658.17938,1700.0 L-692.8204,1680.0 L-692.8204,1720.0 L-727.46142,1700.0 L-727.46142,1740.0 L-692.8204,1720.0 L-692.8204,1760.0 L-727.46142,1740.0 L-762.10244,1720.0 L-762.10244,1760.0 L-796.74346,1740.0 L-796.74346,1780.0 L-762.10244,1760.0 L-762.10244,1800.0 L-727.46142,1780.0 L-692.8204,1760.0 L-692.8204,1800.0 L-727.46142,1780.0 L-727.46142,1820.0 L-692.8204,1800.0 L-692.8204,1840.0 L-658.17938,1820.0 L-623.53836,1800.0 L-588.89734,1780.0 L-554.25632,1760.0 L-554.25632,1800.0 L-588.89734,1780.0 L-588.89734,1820.0 L-554.25632,1800.0 L-554.25632,1840.0 L-588.89734,1820.0 L-623.53836,1800.0 L-623.53836,1840.0 L-658.17938,1820.0 L-658.17938,1860.0 L-623.53836,1840.0 L-623.53836,1880.0 L-588.89734,1860.0 L-554.25632,1840.0 L-554.25632,1880.0 L-588.89734,1860.0 L-588.89734,1900.0 L-554.25632,1880.0 L-554.25632,1920.0 L-588.89734,1900.0 L-623.53836,1880.0 L-658.17938,1860.0 L-692.8204,1840.0 L-727.46142,1820.0 L-762.10244,1800.0 L-796.74346,1780.0 L-831.38448,1760.0 L-831.38448,1800.0 L-866.0255,1780.0 L-866.0255,1820.0 L-831.38448,1800.0 L-831.38448,1840.0 L-866.0255,1820.0 L-900.66652,1800.0 L-900.66652,1840.0 L-935.30754,1820.0 L-935.30754,1860.0 L-900.66652,1840.0 L-900.66652,1880.0 L-866.0255,1860.0 L-831.38448,1840.0 L-831.38448,1880.0 L-866.0255,1860.0 L-866.0255,1900.0 L-831.38448,1880.0 L-831.38448,1920.0 L-866.0255,1900.0 L-900.66652,1880.0 L-935.30754,1860.0 L-969.94856,1840.0 L-969.94856,1880.0 L-1004.58958,1860.0 L-1004.58958,1900.0 L-969.94856,1880.0 L-969.94856,1920.0 L-1004.58958,1900.0 L-1039.2306,1880.0 L-1039.2306,1920.0 L-1073.87162,1900.0 L-1073.87162,1940.0 L-1039.2306,1920.0 L-1039.2306,1960.0 L-1004.58958,1940.0 L-969.94856,1920.0 L-969.94856,1960.0 L-1004.58958,1940.0 L-1004.58958,1980.0 L-969.94856,1960.0 L-969.94856,2000.0 L-935.30754,1980.0 L-900.66652,1960.0 L-866.0255,1940.0 L-831.38448,1920.0 L-831.38448,1960.0 L-866.0255,1940.0 L-866.0255,1980.0 L-831.38448,1960.0 L-831.38448,2000.0 L-866.0255,1980.0 L-900.66652,1960.0 L-900.66652,2000.0 L-935.30754,1980.0 L-935.30754,2020.0 L-900.66652,2000.0 L-900.66652,2040.0 L-866.0255,2020.0 L-831.38448,2000.0 L-831.38448,2040.0 L-866.0255,2020.0 L-866.0255,2060.0 L-831.38448,2040.0 L-831.38448,2080.0 L-796.74346,2060.0 L-762.10244,2040.0 L-727.46142,2020.0 L-692.8204,2000.0 L-658.17938,1980.0 L-623.53836,1960.0 L-588.89734,1940.0 L-554.25632,1920.0 L-554.25632,1960.0 L-588.89734,1940.0 L-588.89734,1980.0 L-554.25632,1960.0 L-554.25632,2000.0 L-588.89734,1980.0 L-623.53836,1960.0 L-623.53836,2000.0 L-658.17938,1980.0 L-658.17938,2020.0 L-623.53836,2000.0 L-623.53836,2040.0 L-588.89734,2020.0 L-554.25632,2000.0 L-554.25632,2040.0 L-588.89734,2020.0 L-588.89734,2060.0 L-554.25632,2040.0 L-554.25632,2080.0 L-588.89734,2060.0 L-623.53836,2040.0 L-658.17938,2020.0 L-692.8204,2000.0 L-692.8204,2040.0 L-727.46142,2020.0 L-727.46142,2060.0 L-692.8204,2040.0 L-692.8204,2080.0 L-727.46142,2060.0 L-762.10244,2040.0 L-762.10244,2080.0 L-796.74346,2060.0 L-796.74346,2100.0 L-762.10244,2080.0 L-762.10244,2120.0 L-727.46142,2100.0 L-692.8204,2080.0 L-692.8204,2120.0 L-727.46142,2100.0 L-727.46142,2140.0 L-692.8204,2120.0 L-692.8204,2160.0 L-658.17938,2140.0 L-623.53836,2120.0 L-588.89734,2100.0 L-554.25632,2080.0 L-554.25632,2120.0 L-588.89734,2100.0 L-588.89734,2140.0 L-554.25632,2120.0 L-554.25632,2160.0 L-588.89734,2140.0 L-623.53836,2120.0 L-623.53836,2160.0 L-658.17938,2140.0 L-658.17938,2180.0 L-623.53836,2160.0 L-623.53836,2200.0 L-588.89734,2180.0 L-554.25632,2160.0 L-554.25632,2200.0 L-588.89734,2180.0 L-588.89734,2220.0 L-554.25632,2200.0 L-554.25632,2240.0 L-519.6153,2220.0 L-484.97428,2200.0 L-450.33326,2180.0 L-415.69224,2160.0 L-381.05122,2140.0 L-346.4102,2120.0 L-311.76918,2100.0 L-277.12816,2080.0 L-242.48714,2060.0 L-207.84612,2040.0 L-173.2051,2020.0 L-138.56408,2000.0 L-103.92306,1980.0 L-69.28204,1960.0 L-34.64102,1940.0 L0.0,1920.0 L0.0,1960.0 L-34.64102,1940.0 L-34.64102,1980.0 L0.0,1960.0 L0.0,2000.0 L-34.64102,1980.0 L-69.28204,1960.0 L-69.28204,2000.0 L-103.92306,1980.0 L-103.92306,2020.0 L-69.28204,2000.0 L-69.28204,2040.0 L-34.64102,2020.0 L0.0,2000.0 L0.0,2040.0 L-34.64102,2020.0 L-34.64102,2060.0 L0.0,2040.0 L0.0,2080.0 L-34.64102,2060.0 L-69.28204,2040.0 L-103.92306,2020.0 L-138.56408,2000.0 L-138.56408,2040.0 L-173.2051,2020.0 L-173.2051,2060.0 L-138.56408,2040.0 L-138.56408,2080.0 L-173.2051,2060.0 L-207.84612,2040.0 L-207.84612,2080.0 L-242.48714,2060.0 L-242.48714,2100.0 L-207.84612,2080.0 L-207.84612,2120.0 L-173.2051,2100.0 L-138.56408,2080.0 L-138.56408,2120.0 L-173.2051,2100.0 L-173.2051,2140.0 L-138.56408,2120.0 L-138.56408,2160.0 L-103.92306,2140.0 L-69.28204,2120.0 L-34.64102,2100.0 L0.0,2080.0 L0.0,2120.0 L-34.64102,2100.0 L-34.64102,2140.0 L0.0,2120.0 L0.0,2160.0 L-34.64102,2140.0 L-69.28204,2120.0 L-69.28204,2160.0 L-103.92306,2140.0 L-103.92306,2180.0 L-69.28204,2160.0 L-69.28204,2200.0 L-34.64102,2180.0 L0.0,2160.0 L0.0,2200.0 L-34.64102,2180.0 L-34.64102,2220.0 L0.0,2200.0 L0.0,2240.0 L-34.64102,2220.0 L-69.28204,2200.0 L-103.92306,2180.0 L-138.56408,2160.0 L-173.2051,2140.0 L-207.84612,2120.0 L-242.48714,2100.0 L-277.12816,2080.0 L-277.12816,2120.0 L-311.76918,2100.0 L-311.76918,2140.0 L-277.12816,2120.0 L-277.12816,2160.0 L-311.76918,2140.0 L-346.4102,2120.0 L-346.4102,2160.0 L-381.05122,2140.0 L-381.05122,2180.0 L-346.4102,2160.0 L-346.4102,2200.0 L-311.76918,2180.0 L-277.12816,2160.0 L-277.12816,2200.0 L-311.76918,2180.0 L-311.76918,2220.0 L-277.12816,2200.0 L-277.12816,2240.0 L-311.76918,2220.0 L-346.4102,2200.0 L-381.05122,2180.0 L-415.69224,2160.0 L-415.69224,2200.0 L-450.33326,2180.0 L-450.33326,2220.0 L-415.69224,2200.0 L-415.69224,2240.0 L-450.33326,2220.0 L-484.97428,2200.0 L-484.97428,2240.0 L-519.6153,2220.0 L-519.6153,2260.0 L-484.97428,2240.0 L-484.97428,2280.0 L-450.33326,2260.0 L-415.69224,2240.0 L-415.69224,2280.0 L-450.33326,2260.0 L-450.33326,2300.0 L-415.69224,2280.0 L-415.69224,2320.0 L-381.05122,2300.0 L-346.4102,2280.0 L-311.76918,2260.0 L-277.12816,2240.0 L-277.12816,2280.0 L-311.76918,2260.0 L-311.76918,2300.0 L-277.12816,2280.0 L-277.12816,2320.0 L-311.76918,2300.0 L-346.4102,2280.0 L-346.4102,2320.0 L-381.05122,2300.0 L-381.05122,2340.0 L-346.4102,2320.0 L-346.4102,2360.0 L-311.76918,2340.0 L-277.12816,2320.0 L-277.12816,2360.0 L-311.76918,2340.0 L-311.76918,2380.0 L-277.12816,2360.0 L-277.12816,2400.0 L-242.48714,2380.0 L-207.84612,2360.0 L-173.2051,2340.0 L-138.56408,2320.0 L-103.92306,2300.0 L-69.28204,2280.0 L-34.64102,2260.0 L0.0,2240.0 L0.0,2280.0 L-34.64102,2260.0 L-34.64102,2300.0 L0.0,2280.0 L0.0,2320.0 L-34.64102,2300.0 L-69.28204,2280.0 L-69.28204,2320.0 L-103.92306,2300.0 L-103.92306,2340.0 L-69.28204,2320.0 L-69.28204,2360.0 L-34.64102,2340.0 L0.0,2320.0 L0.0,2360.0 L-34.64102,2340.0 L-34.64102,2380.0 L0.0,2360.0 L0.0,2400.0 L-34.64102,2380.0 L-69.28204,2360.0 L-103.92306,2340.0 L-138.56408,2320.0 L-138.56408,2360.0 L-173.2051,2340.0 L-173.2051,2380.0 L-138.56408,2360.0 L-138.56408,2400.0 L-173.2051,2380.0 L-207.84612,2360.0 L-207.84612,2400.0 L-242.48714,2380.0 L-242.48714,2420.0 L-207.84612,2400.0 L-207.84612,2440.0 L-173.2051,2420.0 L-138.56408,2400.0 L-138.56408,2440.0 L-173.2051,2420.0 L-173.2051,2460.0 L-138.56408,2440.0 L-138.56408,2480.0 L-103.92306,2460.0 L-69.28204,2440.0 L-34.64102,2420.0 L0.0,2400.0 L0.0,2440.0 L-34.64102,2420.0 L-34.64102,2460.0 L0.0,2440.0 L0.0,2480.0 L-34.64102,2460.0 L-69.28204,2440.0 L-69.28204,2480.0 L-103.92306,2460.0 L-103.92306,2500.0 L-69.28204,2480.0 L-69.28204,2520.0 L-34.64102,2500.0 L0.0,2480.0 L0.0,2520.0 L-34.64102,2500.0 L-34.64102,2540.0 L0.0,2520.0 L0.0,2560.0 L-34.64102,2540.0 L-69.28204,2520.0 L-103.92306,2500.0 L-138.56408,2480.0 L-173.2051,2460.0 L-207.84612,2440.0 L-242.48714,2420.0 L-277.12816,2400.0 L-311.76918,2380.0 L-346.4102,2360.0 L-381.05122,2340.0 L-415.69224,2320.0 L-450.33326,2300.0 L-484.97428,2280.0 L-519.6153,2260.0 L-554.25632,2240.0 L-588.89734,2220.0 L-623.53836,2200.0 L-658.17938,2180.0 L-692.8204,2160.0 L-727.46142,2140.0 L-762.10244,2120.0 L-796.74346,2100.0 L-831.38448,2080.0 L-866.0255,2060.0 L-900.66652,2040.0 L-935.30754,2020.0 L-969.94856,2000.0 L-1004.58958,1980.0 L-1039.2306,1960.0 L-1073.87162,1940.0 L-1108.51264,1920.0 L-1143.15366,1900.0 L-1177.79468,1880.0 L-1212.4357,1860.0 L-1247.07672,1840.0 L-1281.71774,1820.0 L-1316.35876,1800.0 L-1350.99978,1780.0 L-1385.6408,1760.0 L-1420.28182,1740.0 L-1454.92284,1720.0 L-1489.56386,1700.0 L-1524.20488,1680.0 L-1558.8459,1660.0 L-1593.48692,1640.0 L-1628.12794,1620.0 L-1662.76896,1600.0 L-1697.40998,1580.0 L-1732.051,1560.0 L-1766.69202,1540.0 L-1801.33304,1520.0 L-1835.97406,1500.0 L-1870.61508,1480.0 L-1905.2561,1460.0 L-1939.89712,1440.0 L-1974.53814,1420.0 L-2009.17916,1400.0 L-2043.82018,1380.0 L-2078.4612,1360.0 L-2113.10222,1340.0 L-2147.74324,1320.0 L-2182.38426,1300.0 L-2217.02528,1280.0 L-2182.38426,1260.0 L-2147.74324,1240.0 L-2113.10222,1220.0 L-2078.4612,1200.0 L-2043.82018,1180.0 L-2009.17916,1160.0 L-1974.53814,1140.0 L-1939.89712,1120.0 L-1905.2561,1100.0 L-1870.61508,1080.0 L-1835.97406,1060.0 L-1801.33304,1040.0 L-1766.69202,1020.0 L-1732.051,1000.0 L-1697.40998,980.0 L-1662.76896,960.0 L-1628.12794,940.0 L-1593.48692,920.0 L-1558.8459,900.0 L-1524.20488,880.0 L-1489.56386,860.0 L-1454.92284,840.0 L-1420.28182,820.0 L-1385.6408,800.0 L-1350.99978,780.0 L-1316.35876,760.0 L-1281.71774,740.0 L-1247.07672,720.0 L-1212.4357,700.0 L-1177.79468,680.0 L-1143.15366,660.0 L-1108.51264,640.0 L-1073.87162,620.0 L-1039.2306,600.0 L-1004.58958,580.0 L-969.94856,560.0 L-935.30754,540.0 L-900.66652,520.0 L-866.0255,500.0 L-831.38448,480.0 L-796.74346,460.0 L-762.10244,440.0 L-727.46142,420.0 L-692.8204,400.0 L-658.17938,380.0 L-623.53836,360.0 L-588.89734,340.0 L-554.25632,320.0 L-519.6153,300.0 L-484.97428,280.0 L-450.33326,260.0 L-415.69224,240.0 L-381.05122,220.0 L-346.4102,200.0 L-311.76918,180.0 L-277.12816,160.0 L-242.48714,140.0 L-207.84612,120.0 L-173.2051,100.0 L-138.56408,80.0 L-103.92306,60.0 L-69.28204,40.0 L-34.64102,20.0 L0.0,0.0 " style="fill:none;stroke-width:3;stroke:red;"></path></g></svg>